%TF.GenerationSoftware,KiCad,Pcbnew,9.0.0*%
%TF.CreationDate,2025-04-07T10:45:10-04:00*%
%TF.ProjectId,Expansion_Card_Retrofit,45787061-6e73-4696-9f6e-5f436172645f,X1*%
%TF.SameCoordinates,Original*%
%TF.FileFunction,Soldermask,Top*%
%TF.FilePolarity,Negative*%
%FSLAX45Y45*%
G04 Gerber Fmt 4.5, Leading zero omitted, Abs format (unit mm)*
G04 Created by KiCad (PCBNEW 9.0.0) date 2025-04-07 10:45:10*
%MOMM*%
%LPD*%
G01*
G04 APERTURE LIST*
G04 Aperture macros list*
%AMRoundRect*
0 Rectangle with rounded corners*
0 $1 Rounding radius*
0 $2 $3 $4 $5 $6 $7 $8 $9 X,Y pos of 4 corners*
0 Add a 4 corners polygon primitive as box body*
4,1,4,$2,$3,$4,$5,$6,$7,$8,$9,$2,$3,0*
0 Add four circle primitives for the rounded corners*
1,1,$1+$1,$2,$3*
1,1,$1+$1,$4,$5*
1,1,$1+$1,$6,$7*
1,1,$1+$1,$8,$9*
0 Add four rect primitives between the rounded corners*
20,1,$1+$1,$2,$3,$4,$5,0*
20,1,$1+$1,$4,$5,$6,$7,0*
20,1,$1+$1,$6,$7,$8,$9,0*
20,1,$1+$1,$8,$9,$2,$3,0*%
%AMFreePoly0*
4,1,13,-0.500000,0.250000,-0.480970,0.345671,-0.426777,0.426777,-0.345671,0.480970,-0.250000,0.500000,0.500000,0.500000,0.500000,-0.500000,-0.250000,-0.500000,-0.345671,-0.480970,-0.426777,-0.426777,-0.480970,-0.345671,-0.500000,-0.250000,-0.500000,0.250000,-0.500000,0.250000,$1*%
%AMFreePoly1*
4,1,6,0.180000,0.075000,0.000000,-0.105000,-0.180000,-0.105000,-0.180000,0.105000,0.180000,0.105000,0.180000,0.075000,0.180000,0.075000,$1*%
%AMFreePoly2*
4,1,6,0.180000,-0.075000,0.180000,-0.105000,-0.180000,-0.105000,-0.180000,0.105000,0.000000,0.105000,0.180000,-0.075000,0.180000,-0.075000,$1*%
%AMFreePoly3*
4,1,6,0.180000,-0.105000,0.000000,-0.105000,-0.180000,0.075000,-0.180000,0.105000,0.180000,0.105000,0.180000,-0.105000,0.180000,-0.105000,$1*%
%AMFreePoly4*
4,1,6,0.180000,-0.105000,-0.180000,-0.105000,-0.180000,-0.075000,0.000000,0.105000,0.180000,0.105000,0.180000,-0.105000,0.180000,-0.105000,$1*%
G04 Aperture macros list end*
%ADD10C,2.475000*%
%ADD11C,0.010000*%
%ADD12R,0.380000X1.000000*%
%ADD13R,0.700000X1.150000*%
%ADD14R,1.500000X1.500000*%
%ADD15RoundRect,0.100000X-0.130000X-0.100000X0.130000X-0.100000X0.130000X0.100000X-0.130000X0.100000X0*%
%ADD16RoundRect,0.100000X0.130000X0.100000X-0.130000X0.100000X-0.130000X-0.100000X0.130000X-0.100000X0*%
%ADD17RoundRect,0.100000X0.100000X-0.130000X0.100000X0.130000X-0.100000X0.130000X-0.100000X-0.130000X0*%
%ADD18RoundRect,0.140000X0.170000X-0.140000X0.170000X0.140000X-0.170000X0.140000X-0.170000X-0.140000X0*%
%ADD19R,0.850000X0.850000*%
%ADD20O,0.850000X0.850000*%
%ADD21FreePoly0,270.000000*%
%ADD22FreePoly0,90.000000*%
%ADD23RoundRect,0.140000X-0.170000X0.140000X-0.170000X-0.140000X0.170000X-0.140000X0.170000X0.140000X0*%
%ADD24RoundRect,0.100000X-0.100000X0.130000X-0.100000X-0.130000X0.100000X-0.130000X0.100000X0.130000X0*%
%ADD25R,0.660000X0.220000*%
%ADD26R,1.200000X1.400000*%
%ADD27RoundRect,0.140000X-0.140000X-0.170000X0.140000X-0.170000X0.140000X0.170000X-0.140000X0.170000X0*%
%ADD28RoundRect,0.093750X0.093750X0.106250X-0.093750X0.106250X-0.093750X-0.106250X0.093750X-0.106250X0*%
%ADD29R,1.000000X1.600000*%
%ADD30C,0.400000*%
%ADD31R,0.650001X0.249999*%
%ADD32RoundRect,0.140000X0.140000X0.170000X-0.140000X0.170000X-0.140000X-0.170000X0.140000X-0.170000X0*%
%ADD33C,0.300000*%
%ADD34RoundRect,0.225000X0.225000X0.250000X-0.225000X0.250000X-0.225000X-0.250000X0.225000X-0.250000X0*%
%ADD35C,1.000000*%
%ADD36RoundRect,0.050000X-0.350000X-0.050000X0.350000X-0.050000X0.350000X0.050000X-0.350000X0.050000X0*%
%ADD37RoundRect,0.050000X-0.050000X-0.325000X0.050000X-0.325000X0.050000X0.325000X-0.050000X0.325000X0*%
%ADD38R,0.200000X0.600000*%
%ADD39FreePoly1,0.000000*%
%ADD40FreePoly2,0.000000*%
%ADD41FreePoly3,0.000000*%
%ADD42FreePoly4,0.000000*%
%ADD43RoundRect,0.120000X0.000000X-0.169706X0.169706X0.000000X0.000000X0.169706X-0.169706X0.000000X0*%
G04 APERTURE END LIST*
D10*
X193750Y805000D02*
G75*
G02*
X-53750Y805000I-123750J0D01*
G01*
X-53750Y805000D02*
G75*
G02*
X193750Y805000I123750J0D01*
G01*
%TO.C,JP1*%
D11*
X434000Y821000D02*
X334000Y821000D01*
X334000Y801000D01*
X434000Y801000D01*
X434000Y821000D01*
G36*
X434000Y821000D02*
G01*
X334000Y821000D01*
X334000Y801000D01*
X434000Y801000D01*
X434000Y821000D01*
G37*
%TD*%
D12*
%TO.C,P1*%
X925000Y2551000D03*
X975000Y2551000D03*
X1025000Y2551000D03*
X1075000Y2551000D03*
X1125000Y2551000D03*
X1175000Y2551000D03*
X1225000Y2551000D03*
X1275000Y2551000D03*
X1325000Y2551000D03*
X1375000Y2551000D03*
X1425000Y2551000D03*
X1475000Y2551000D03*
D13*
X858000Y2467000D03*
%TD*%
D14*
%TO.C,TP3*%
X1755000Y2625000D03*
%TD*%
%TO.C,TP1*%
X645000Y2625000D03*
%TD*%
D15*
%TO.C,R32*%
X231500Y1537500D03*
X295500Y1537500D03*
%TD*%
D16*
%TO.C,R13*%
X1683500Y50000D03*
X1619500Y50000D03*
%TD*%
D15*
%TO.C,C80*%
X1595500Y2017500D03*
X1659500Y2017500D03*
%TD*%
D17*
%TO.C,C56*%
X2000000Y1941000D03*
X2000000Y2005000D03*
%TD*%
%TO.C,C85*%
X455000Y2125500D03*
X455000Y2189500D03*
%TD*%
D18*
%TO.C,C78*%
X1780000Y1868000D03*
X1780000Y1964000D03*
%TD*%
D19*
%TO.C,J4*%
X2306000Y285000D03*
D20*
X2306000Y185000D03*
X2206000Y285000D03*
X2206000Y185000D03*
%TD*%
D21*
%TO.C,JP1*%
X384000Y871000D03*
D22*
X384000Y751000D03*
%TD*%
D23*
%TO.C,C2*%
X892500Y1933500D03*
X892500Y1837500D03*
%TD*%
D24*
%TO.C,R1*%
X1110000Y2280000D03*
X1110000Y2216000D03*
%TD*%
D16*
%TO.C,C59*%
X2004000Y1824000D03*
X1940000Y1824000D03*
%TD*%
D15*
%TO.C,R23*%
X1981000Y51000D03*
X2045000Y51000D03*
%TD*%
D25*
%TO.C,J3*%
X2140000Y1222000D03*
X2311000Y1222000D03*
X2140000Y1262000D03*
X2311000Y1262000D03*
X2140000Y1302000D03*
X2311000Y1302000D03*
X2140000Y1342000D03*
X2311000Y1342000D03*
X2140000Y1382000D03*
X2311000Y1382000D03*
X2140000Y1422000D03*
X2311000Y1422000D03*
X2140000Y1462000D03*
X2311000Y1462000D03*
X2140000Y1502000D03*
X2311000Y1502000D03*
X2140000Y1542000D03*
X2311000Y1542000D03*
X2140000Y1582000D03*
X2311000Y1582000D03*
%TD*%
D15*
%TO.C,R8*%
X903500Y50000D03*
X967500Y50000D03*
%TD*%
D26*
%TO.C,Y2*%
X2131000Y2133000D03*
X2131000Y1913000D03*
X2301000Y1913000D03*
X2301000Y2133000D03*
%TD*%
D15*
%TO.C,R33*%
X231500Y1615000D03*
X295500Y1615000D03*
%TD*%
D27*
%TO.C,C10*%
X217000Y1352500D03*
X313000Y1352500D03*
%TD*%
D28*
%TO.C,U3*%
X2217500Y2294000D03*
X2217500Y2359000D03*
X2217500Y2424000D03*
X2040000Y2424000D03*
X2040000Y2359000D03*
X2040000Y2294000D03*
D29*
X2128750Y2359000D03*
%TD*%
D15*
%TO.C,R18*%
X1308000Y1835000D03*
X1372000Y1835000D03*
%TD*%
D23*
%TO.C,C81*%
X1505000Y1988000D03*
X1505000Y1892000D03*
%TD*%
D30*
%TO.C,U2*%
X1887000Y258000D03*
X1807000Y258000D03*
X1727000Y258000D03*
X1647000Y258000D03*
X1567000Y258000D03*
X1487000Y258000D03*
X1407000Y258000D03*
X1327000Y258000D03*
X1247000Y258000D03*
X1167000Y258000D03*
X1087000Y258000D03*
X1007000Y258000D03*
X927000Y258000D03*
X847000Y258000D03*
X767000Y258000D03*
X687000Y258000D03*
X607000Y258000D03*
X527000Y258000D03*
X1887000Y338000D03*
X1807000Y338000D03*
X1727000Y338000D03*
X1647000Y338000D03*
X1567000Y338000D03*
X1487000Y338000D03*
X1407000Y338000D03*
X1327000Y338000D03*
X1247000Y338000D03*
X1167000Y338000D03*
X1087000Y338000D03*
X1007000Y338000D03*
X927000Y338000D03*
X847000Y338000D03*
X767000Y338000D03*
X687000Y338000D03*
X607000Y338000D03*
X527000Y338000D03*
X1887000Y418000D03*
X1807000Y418000D03*
X1727000Y418000D03*
X1647000Y418000D03*
X1567000Y418000D03*
X1487000Y418000D03*
X1407000Y418000D03*
X1327000Y418000D03*
X1247000Y418000D03*
X1167000Y418000D03*
X1087000Y418000D03*
X1007000Y418000D03*
X927000Y418000D03*
X847000Y418000D03*
X767000Y418000D03*
X687000Y418000D03*
X607000Y418000D03*
X527000Y418000D03*
X1887000Y498000D03*
X1807000Y498000D03*
X1727000Y498000D03*
X1647000Y498000D03*
X1567000Y498000D03*
X1487000Y498000D03*
X1407000Y498000D03*
X1327000Y498000D03*
X1247000Y498000D03*
X1167000Y498000D03*
X1087000Y498000D03*
X1007000Y498000D03*
X927000Y498000D03*
X847000Y498000D03*
X767000Y498000D03*
X687000Y498000D03*
X607000Y498000D03*
X527000Y498000D03*
X1887000Y578000D03*
X1807000Y578000D03*
X1727000Y578000D03*
X1647000Y578000D03*
X1567000Y578000D03*
X1487000Y578000D03*
X1407000Y578000D03*
X1327000Y578000D03*
X1247000Y578000D03*
X1167000Y578000D03*
X1087000Y578000D03*
X1007000Y578000D03*
X927000Y578000D03*
X847000Y578000D03*
X767000Y578000D03*
X687000Y578000D03*
X607000Y578000D03*
X527000Y578000D03*
X1887000Y658000D03*
X1807000Y658000D03*
X1727000Y658000D03*
X1647000Y658000D03*
X1567000Y658000D03*
X1487000Y658000D03*
X1407000Y658000D03*
X1327000Y658000D03*
X1247000Y658000D03*
X1167000Y658000D03*
X1087000Y658000D03*
X1007000Y658000D03*
X927000Y658000D03*
X847000Y658000D03*
X767000Y658000D03*
X687000Y658000D03*
X607000Y658000D03*
X527000Y658000D03*
X1887000Y738000D03*
X1807000Y738000D03*
X1727000Y738000D03*
X1647000Y738000D03*
X1567000Y738000D03*
X1487000Y738000D03*
X1407000Y738000D03*
X1327000Y738000D03*
X1247000Y738000D03*
X1167000Y738000D03*
X1087000Y738000D03*
X1007000Y738000D03*
X927000Y738000D03*
X847000Y738000D03*
X767000Y738000D03*
X687000Y738000D03*
X607000Y738000D03*
X527000Y738000D03*
X1887000Y818000D03*
X1807000Y818000D03*
X1727000Y818000D03*
X1647000Y818000D03*
X1567000Y818000D03*
X1487000Y818000D03*
X1407000Y818000D03*
X1327000Y818000D03*
X1247000Y818000D03*
X1167000Y818000D03*
X1087000Y818000D03*
X1007000Y818000D03*
X927000Y818000D03*
X847000Y818000D03*
X767000Y818000D03*
X687000Y818000D03*
X607000Y818000D03*
X527000Y818000D03*
X1887000Y898000D03*
X1807000Y898000D03*
X1727000Y898000D03*
X1647000Y898000D03*
X1567000Y898000D03*
X1487000Y898000D03*
X1407000Y898000D03*
X1327000Y898000D03*
X1247000Y898000D03*
X1167000Y898000D03*
X1087000Y898000D03*
X1007000Y898000D03*
X927000Y898000D03*
X847000Y898000D03*
X767000Y898000D03*
X687000Y898000D03*
X607000Y898000D03*
X527000Y898000D03*
X1887000Y978000D03*
X1807000Y978000D03*
X1727000Y978000D03*
X1647000Y978000D03*
X1567000Y978000D03*
X1487000Y978000D03*
X1407000Y978000D03*
X1327000Y978000D03*
X1247000Y978000D03*
X1167000Y978000D03*
X1087000Y978000D03*
X1007000Y978000D03*
X927000Y978000D03*
X847000Y978000D03*
X767000Y978000D03*
X687000Y978000D03*
X607000Y978000D03*
X527000Y978000D03*
X1887000Y1058000D03*
X1807000Y1058000D03*
X1727000Y1058000D03*
X1647000Y1058000D03*
X1567000Y1058000D03*
X1487000Y1058000D03*
X1407000Y1058000D03*
X1327000Y1058000D03*
X1247000Y1058000D03*
X1167000Y1058000D03*
X1087000Y1058000D03*
X1007000Y1058000D03*
X927000Y1058000D03*
X847000Y1058000D03*
X767000Y1058000D03*
X687000Y1058000D03*
X607000Y1058000D03*
X527000Y1058000D03*
X1887000Y1138000D03*
X1807000Y1138000D03*
X1727000Y1138000D03*
X1647000Y1138000D03*
X1567000Y1138000D03*
X1487000Y1138000D03*
X1407000Y1138000D03*
X1327000Y1138000D03*
X1247000Y1138000D03*
X1167000Y1138000D03*
X1087000Y1138000D03*
X1007000Y1138000D03*
X927000Y1138000D03*
X847000Y1138000D03*
X767000Y1138000D03*
X687000Y1138000D03*
X607000Y1138000D03*
X527000Y1138000D03*
X1887000Y1218000D03*
X1807000Y1218000D03*
X1727000Y1218000D03*
X1647000Y1218000D03*
X1567000Y1218000D03*
X1487000Y1218000D03*
X1407000Y1218000D03*
X1327000Y1218000D03*
X1247000Y1218000D03*
X1167000Y1218000D03*
X1087000Y1218000D03*
X1007000Y1218000D03*
X927000Y1218000D03*
X847000Y1218000D03*
X767000Y1218000D03*
X687000Y1218000D03*
X607000Y1218000D03*
X527000Y1218000D03*
X1887000Y1298000D03*
X1807000Y1298000D03*
X1727000Y1298000D03*
X1647000Y1298000D03*
X1567000Y1298000D03*
X1487000Y1298000D03*
X1407000Y1298000D03*
X1327000Y1298000D03*
X1247000Y1298000D03*
X1167000Y1298000D03*
X1087000Y1298000D03*
X1007000Y1298000D03*
X927000Y1298000D03*
X847000Y1298000D03*
X767000Y1298000D03*
X687000Y1298000D03*
X607000Y1298000D03*
X527000Y1298000D03*
X1887000Y1378000D03*
X1807000Y1378000D03*
X1727000Y1378000D03*
X1647000Y1378000D03*
X1567000Y1378000D03*
X1487000Y1378000D03*
X1407000Y1378000D03*
X1327000Y1378000D03*
X1247000Y1378000D03*
X1167000Y1378000D03*
X1087000Y1378000D03*
X1007000Y1378000D03*
X927000Y1378000D03*
X847000Y1378000D03*
X767000Y1378000D03*
X687000Y1378000D03*
X607000Y1378000D03*
X527000Y1378000D03*
X1887000Y1458000D03*
X1807000Y1458000D03*
X1727000Y1458000D03*
X1647000Y1458000D03*
X1567000Y1458000D03*
X1487000Y1458000D03*
X1407000Y1458000D03*
X1327000Y1458000D03*
X1247000Y1458000D03*
X1167000Y1458000D03*
X1087000Y1458000D03*
X1007000Y1458000D03*
X927000Y1458000D03*
X847000Y1458000D03*
X767000Y1458000D03*
X687000Y1458000D03*
X607000Y1458000D03*
X527000Y1458000D03*
X1887000Y1538000D03*
X1807000Y1538000D03*
X1727000Y1538000D03*
X1647000Y1538000D03*
X1567000Y1538000D03*
X1487000Y1538000D03*
X1407000Y1538000D03*
X1327000Y1538000D03*
X1247000Y1538000D03*
X1167000Y1538000D03*
X1087000Y1538000D03*
X1007000Y1538000D03*
X927000Y1538000D03*
X847000Y1538000D03*
X767000Y1538000D03*
X687000Y1538000D03*
X607000Y1538000D03*
X527000Y1538000D03*
X1887000Y1618000D03*
X1807000Y1618000D03*
X1727000Y1618000D03*
X1647000Y1618000D03*
X1567000Y1618000D03*
X1487000Y1618000D03*
X1407000Y1618000D03*
X1327000Y1618000D03*
X1247000Y1618000D03*
X1167000Y1618000D03*
X1087000Y1618000D03*
X1007000Y1618000D03*
X927000Y1618000D03*
X847000Y1618000D03*
X767000Y1618000D03*
X687000Y1618000D03*
X607000Y1618000D03*
X527000Y1618000D03*
%TD*%
D23*
%TO.C,C54*%
X1637000Y2309000D03*
X1637000Y2213000D03*
%TD*%
D31*
%TO.C,U7*%
X152500Y2290000D03*
X152500Y2240000D03*
X152500Y2190000D03*
X152500Y2140000D03*
X152500Y2090000D03*
X277500Y2090000D03*
X277500Y2140000D03*
X277500Y2190000D03*
X277500Y2240000D03*
X277500Y2290000D03*
%TD*%
D15*
%TO.C,C62*%
X1466000Y2324000D03*
X1530000Y2324000D03*
%TD*%
D32*
%TO.C,C1*%
X692000Y2356000D03*
X596000Y2356000D03*
%TD*%
D23*
%TO.C,C58*%
X1746000Y2305000D03*
X1746000Y2209000D03*
%TD*%
D18*
%TO.C,C55*%
X1640000Y1842000D03*
X1640000Y1938000D03*
%TD*%
D24*
%TO.C,C61*%
X1829000Y2304000D03*
X1829000Y2240000D03*
%TD*%
D15*
%TO.C,R5*%
X1465500Y50000D03*
X1529500Y50000D03*
%TD*%
D33*
%TO.C,U11*%
X152500Y1182500D03*
X192500Y1182500D03*
X152500Y1142500D03*
X192500Y1142500D03*
%TD*%
D34*
%TO.C,TH1*%
X1857500Y2425000D03*
X1702500Y2425000D03*
%TD*%
D15*
%TO.C,R37*%
X528000Y50000D03*
X592000Y50000D03*
%TD*%
D35*
%TO.C,FID5*%
X2316000Y615000D03*
%TD*%
D15*
%TO.C,R36*%
X715500Y50000D03*
X779500Y50000D03*
%TD*%
D36*
%TO.C,U5*%
X1210000Y2172000D03*
X1210000Y2132000D03*
D37*
X1230000Y2064500D03*
X1270000Y2064500D03*
X1310000Y2064500D03*
D36*
X1330000Y2132000D03*
X1330000Y2172000D03*
D37*
X1310000Y2239500D03*
X1270000Y2239500D03*
X1230000Y2239500D03*
%TD*%
D35*
%TO.C,FID6*%
X264500Y475000D03*
%TD*%
D15*
%TO.C,R14*%
X1840000Y50000D03*
X1904000Y50000D03*
%TD*%
%TO.C,R6*%
X1278500Y50000D03*
X1342500Y50000D03*
%TD*%
D16*
%TO.C,R10*%
X432000Y2290000D03*
X368000Y2290000D03*
%TD*%
D19*
%TO.C,J1*%
X242000Y285000D03*
D20*
X242000Y185000D03*
X142000Y285000D03*
X142000Y185000D03*
%TD*%
D16*
%TO.C,R2*%
X731000Y2437000D03*
X667000Y2437000D03*
%TD*%
%TO.C,C60*%
X1985000Y2091000D03*
X1921000Y2091000D03*
%TD*%
D15*
%TO.C,R7*%
X1091000Y50000D03*
X1155000Y50000D03*
%TD*%
D18*
%TO.C,C84*%
X372500Y2117000D03*
X372500Y2213000D03*
%TD*%
D27*
%TO.C,C83*%
X150000Y2405000D03*
X246000Y2405000D03*
%TD*%
D38*
%TO.C,D9*%
X965000Y2145000D03*
X875000Y2145000D03*
X795000Y2145000D03*
X715000Y2145000D03*
X625000Y2145000D03*
X665000Y2050000D03*
X755000Y2050000D03*
X835000Y2050000D03*
X925000Y2050000D03*
%TD*%
D39*
%TO.C,U6*%
X1127000Y1947500D03*
D40*
X1127000Y1882500D03*
D41*
X1213000Y1947500D03*
D42*
X1213000Y1882500D03*
D43*
X1170000Y1915000D03*
%TD*%
D23*
%TO.C,C3*%
X797500Y1933500D03*
X797500Y1837500D03*
%TD*%
D35*
%TO.C,FID4*%
X280000Y1725000D03*
%TD*%
D27*
%TO.C,C9*%
X216500Y1445000D03*
X312500Y1445000D03*
%TD*%
D17*
%TO.C,R9*%
X527500Y2125000D03*
X527500Y2189000D03*
%TD*%
%TO.C,R11*%
X70000Y2078000D03*
X70000Y2142000D03*
%TD*%
D27*
%TO.C,C79*%
X1452000Y2243000D03*
X1548000Y2243000D03*
%TD*%
D17*
%TO.C,R21*%
X975000Y1840500D03*
X975000Y1904500D03*
%TD*%
M02*
