%TF.GenerationSoftware,KiCad,Pcbnew,9.0.0*%
%TF.CreationDate,2025-04-07T10:45:09-04:00*%
%TF.ProjectId,Expansion_Card_Retrofit,45787061-6e73-4696-9f6e-5f436172645f,X1*%
%TF.SameCoordinates,Original*%
%TF.FileFunction,Copper,L8,Bot*%
%TF.FilePolarity,Positive*%
%FSLAX45Y45*%
G04 Gerber Fmt 4.5, Leading zero omitted, Abs format (unit mm)*
G04 Created by KiCad (PCBNEW 9.0.0) date 2025-04-07 10:45:09*
%MOMM*%
%LPD*%
G01*
G04 APERTURE LIST*
G04 Aperture macros list*
%AMRoundRect*
0 Rectangle with rounded corners*
0 $1 Rounding radius*
0 $2 $3 $4 $5 $6 $7 $8 $9 X,Y pos of 4 corners*
0 Add a 4 corners polygon primitive as box body*
4,1,4,$2,$3,$4,$5,$6,$7,$8,$9,$2,$3,0*
0 Add four circle primitives for the rounded corners*
1,1,$1+$1,$2,$3*
1,1,$1+$1,$4,$5*
1,1,$1+$1,$6,$7*
1,1,$1+$1,$8,$9*
0 Add four rect primitives between the rounded corners*
20,1,$1+$1,$2,$3,$4,$5,0*
20,1,$1+$1,$4,$5,$6,$7,0*
20,1,$1+$1,$6,$7,$8,$9,0*
20,1,$1+$1,$8,$9,$2,$3,0*%
%AMHorizOval*
0 Thick line with rounded ends*
0 $1 width*
0 $2 $3 position (X,Y) of the first rounded end (center of the circle)*
0 $4 $5 position (X,Y) of the second rounded end (center of the circle)*
0 Add line between two ends*
20,1,$1,$2,$3,$4,$5,0*
0 Add two circle primitives to create the rounded ends*
1,1,$1,$2,$3*
1,1,$1,$4,$5*%
%AMFreePoly0*
4,1,18,-0.437500,0.050000,-0.433694,0.069134,-0.422855,0.085355,-0.406634,0.096194,-0.387500,0.100000,0.387500,0.100000,0.406634,0.096194,0.422855,0.085355,0.433694,0.069134,0.437500,0.050000,0.437500,-0.050000,0.387500,-0.100000,-0.387500,-0.100000,-0.406634,-0.096194,-0.422855,-0.085355,-0.433694,-0.069134,-0.437500,-0.050000,-0.437500,0.050000,-0.437500,0.050000,$1*%
%AMFreePoly1*
4,1,18,-0.437500,0.050000,-0.433694,0.069134,-0.422855,0.085355,-0.406634,0.096194,-0.387500,0.100000,0.387500,0.100000,0.437500,0.050000,0.437500,-0.050000,0.433694,-0.069134,0.422855,-0.085355,0.406634,-0.096194,0.387500,-0.100000,-0.387500,-0.100000,-0.406634,-0.096194,-0.422855,-0.085355,-0.433694,-0.069134,-0.437500,-0.050000,-0.437500,0.050000,-0.437500,0.050000,$1*%
%AMFreePoly2*
4,1,18,-0.100000,0.387500,-0.096194,0.406634,-0.085355,0.422855,-0.069134,0.433694,-0.050000,0.437500,0.050000,0.437500,0.069134,0.433694,0.085355,0.422855,0.096194,0.406634,0.100000,0.387500,0.100000,-0.387500,0.096194,-0.406634,0.085355,-0.422855,0.069134,-0.433694,0.050000,-0.437500,-0.050000,-0.437500,-0.100000,-0.387500,-0.100000,0.387500,-0.100000,0.387500,$1*%
%AMFreePoly3*
4,1,18,-0.100000,0.387500,-0.096194,0.406634,-0.085355,0.422855,-0.069134,0.433694,-0.050000,0.437500,0.050000,0.437500,0.069134,0.433694,0.085355,0.422855,0.096194,0.406634,0.100000,0.387500,0.100000,-0.387500,0.050000,-0.437500,-0.050000,-0.437500,-0.069134,-0.433694,-0.085355,-0.422855,-0.096194,-0.406634,-0.100000,-0.387500,-0.100000,0.387500,-0.100000,0.387500,$1*%
%AMFreePoly4*
4,1,18,-0.437500,0.050000,-0.387500,0.100000,0.387500,0.100000,0.406634,0.096194,0.422855,0.085355,0.433694,0.069134,0.437500,0.050000,0.437500,-0.050000,0.433694,-0.069134,0.422855,-0.085355,0.406634,-0.096194,0.387500,-0.100000,-0.387500,-0.100000,-0.406634,-0.096194,-0.422855,-0.085355,-0.433694,-0.069134,-0.437500,-0.050000,-0.437500,0.050000,-0.437500,0.050000,$1*%
%AMFreePoly5*
4,1,18,-0.437500,0.050000,-0.433694,0.069134,-0.422855,0.085355,-0.406634,0.096194,-0.387500,0.100000,0.387500,0.100000,0.406634,0.096194,0.422855,0.085355,0.433694,0.069134,0.437500,0.050000,0.437500,-0.050000,0.433694,-0.069134,0.422855,-0.085355,0.406634,-0.096194,0.387500,-0.100000,-0.387500,-0.100000,-0.437500,-0.050000,-0.437500,0.050000,-0.437500,0.050000,$1*%
%AMFreePoly6*
4,1,18,-0.100000,0.387500,-0.096194,0.406634,-0.085355,0.422855,-0.069134,0.433694,-0.050000,0.437500,0.050000,0.437500,0.100000,0.387500,0.100000,-0.387500,0.096194,-0.406634,0.085355,-0.422855,0.069134,-0.433694,0.050000,-0.437500,-0.050000,-0.437500,-0.069134,-0.433694,-0.085355,-0.422855,-0.096194,-0.406634,-0.100000,-0.387500,-0.100000,0.387500,-0.100000,0.387500,$1*%
%AMFreePoly7*
4,1,18,-0.100000,0.387500,-0.050000,0.437500,0.050000,0.437500,0.069134,0.433694,0.085355,0.422855,0.096194,0.406634,0.100000,0.387500,0.100000,-0.387500,0.096194,-0.406634,0.085355,-0.422855,0.069134,-0.433694,0.050000,-0.437500,-0.050000,-0.437500,-0.069134,-0.433694,-0.085355,-0.422855,-0.096194,-0.406634,-0.100000,-0.387500,-0.100000,0.387500,-0.100000,0.387500,$1*%
%AMFreePoly8*
4,1,12,0.260000,-0.029000,0.260000,-0.160000,-0.160000,-0.160000,-0.210000,-0.147000,-0.247000,-0.110000,-0.260000,-0.060000,-0.260000,0.060000,-0.247000,0.110000,-0.210000,0.147000,-0.160000,0.160000,0.071000,0.160000,0.260000,-0.029000,0.260000,-0.029000,$1*%
%AMFreePoly9*
4,1,12,0.260000,0.029000,0.071000,-0.160000,-0.160000,-0.160000,-0.210000,-0.147000,-0.247000,-0.110000,-0.260000,-0.060000,-0.260000,0.060000,-0.247000,0.110000,-0.210000,0.147000,-0.160000,0.160000,0.260000,0.160000,0.260000,0.029000,0.260000,0.029000,$1*%
%AMFreePoly10*
4,1,12,0.210000,0.147000,0.247000,0.110000,0.260000,0.060000,0.260000,-0.060000,0.247000,-0.110000,0.210000,-0.147000,0.160000,-0.160000,-0.071000,-0.160000,-0.260000,0.029000,-0.260000,0.160000,0.160000,0.160000,0.210000,0.147000,0.210000,0.147000,$1*%
%AMFreePoly11*
4,1,12,0.210000,0.147000,0.247000,0.110000,0.260000,0.060000,0.260000,-0.060000,0.247000,-0.110000,0.210000,-0.147000,0.160000,-0.160000,-0.260000,-0.160000,-0.260000,-0.029000,-0.071000,0.160000,0.160000,0.160000,0.210000,0.147000,0.210000,0.147000,$1*%
G04 Aperture macros list end*
%TA.AperFunction,SMDPad,CuDef*%
%ADD10R,0.380000X1.000000*%
%TD*%
%TA.AperFunction,SMDPad,CuDef*%
%ADD11R,0.700000X1.150000*%
%TD*%
%TA.AperFunction,ComponentPad*%
%ADD12R,0.850000X0.850000*%
%TD*%
%TA.AperFunction,ComponentPad*%
%ADD13O,0.850000X0.850000*%
%TD*%
%TA.AperFunction,SMDPad,CuDef*%
%ADD14R,1.500000X1.500000*%
%TD*%
%TA.AperFunction,SMDPad,CuDef*%
%ADD15RoundRect,0.100000X-0.100000X0.130000X-0.100000X-0.130000X0.100000X-0.130000X0.100000X0.130000X0*%
%TD*%
%TA.AperFunction,SMDPad,CuDef*%
%ADD16RoundRect,0.140000X-0.140000X-0.170000X0.140000X-0.170000X0.140000X0.170000X-0.140000X0.170000X0*%
%TD*%
%TA.AperFunction,SMDPad,CuDef*%
%ADD17RoundRect,0.100000X-0.130000X-0.100000X0.130000X-0.100000X0.130000X0.100000X-0.130000X0.100000X0*%
%TD*%
%TA.AperFunction,SMDPad,CuDef*%
%ADD18RoundRect,0.100000X0.130000X0.100000X-0.130000X0.100000X-0.130000X-0.100000X0.130000X-0.100000X0*%
%TD*%
%TA.AperFunction,SMDPad,CuDef*%
%ADD19RoundRect,0.147500X-0.147500X-0.172500X0.147500X-0.172500X0.147500X0.172500X-0.147500X0.172500X0*%
%TD*%
%TA.AperFunction,SMDPad,CuDef*%
%ADD20RoundRect,0.100000X0.100000X-0.130000X0.100000X0.130000X-0.100000X0.130000X-0.100000X-0.130000X0*%
%TD*%
%TA.AperFunction,SMDPad,CuDef*%
%ADD21C,1.000000*%
%TD*%
%TA.AperFunction,SMDPad,CuDef*%
%ADD22C,0.910000*%
%TD*%
%TA.AperFunction,SMDPad,CuDef*%
%ADD23HorizOval,0.910000X-0.100000X0.100000X0.100000X-0.100000X0*%
%TD*%
%TA.AperFunction,SMDPad,CuDef*%
%ADD24RoundRect,0.140000X0.140000X0.170000X-0.140000X0.170000X-0.140000X-0.170000X0.140000X-0.170000X0*%
%TD*%
%TA.AperFunction,SMDPad,CuDef*%
%ADD25R,1.000000X0.700000*%
%TD*%
%TA.AperFunction,SMDPad,CuDef*%
%ADD26RoundRect,0.147500X0.147500X0.172500X-0.147500X0.172500X-0.147500X-0.172500X0.147500X-0.172500X0*%
%TD*%
%TA.AperFunction,SMDPad,CuDef*%
%ADD27RoundRect,0.062500X0.387500X0.062500X-0.387500X0.062500X-0.387500X-0.062500X0.387500X-0.062500X0*%
%TD*%
%TA.AperFunction,HeatsinkPad*%
%ADD28R,0.200000X1.600000*%
%TD*%
%TA.AperFunction,SMDPad,CuDef*%
%ADD29RoundRect,0.140000X-0.170000X0.140000X-0.170000X-0.140000X0.170000X-0.140000X0.170000X0.140000X0*%
%TD*%
%TA.AperFunction,SMDPad,CuDef*%
%ADD30R,0.650001X0.249999*%
%TD*%
%TA.AperFunction,SMDPad,CuDef*%
%ADD31FreePoly0,270.000000*%
%TD*%
%TA.AperFunction,SMDPad,CuDef*%
%ADD32RoundRect,0.050000X-0.050000X0.387500X-0.050000X-0.387500X0.050000X-0.387500X0.050000X0.387500X0*%
%TD*%
%TA.AperFunction,SMDPad,CuDef*%
%ADD33FreePoly1,270.000000*%
%TD*%
%TA.AperFunction,SMDPad,CuDef*%
%ADD34FreePoly2,270.000000*%
%TD*%
%TA.AperFunction,SMDPad,CuDef*%
%ADD35RoundRect,0.050000X-0.387500X0.050000X-0.387500X-0.050000X0.387500X-0.050000X0.387500X0.050000X0*%
%TD*%
%TA.AperFunction,SMDPad,CuDef*%
%ADD36FreePoly3,270.000000*%
%TD*%
%TA.AperFunction,SMDPad,CuDef*%
%ADD37FreePoly4,270.000000*%
%TD*%
%TA.AperFunction,SMDPad,CuDef*%
%ADD38FreePoly5,270.000000*%
%TD*%
%TA.AperFunction,SMDPad,CuDef*%
%ADD39FreePoly6,270.000000*%
%TD*%
%TA.AperFunction,SMDPad,CuDef*%
%ADD40FreePoly7,270.000000*%
%TD*%
%TA.AperFunction,ComponentPad*%
%ADD41C,0.600000*%
%TD*%
%TA.AperFunction,ComponentPad*%
%ADD42C,0.500000*%
%TD*%
%TA.AperFunction,SMDPad,CuDef*%
%ADD43RoundRect,0.153000X1.547000X1.547000X-1.547000X1.547000X-1.547000X-1.547000X1.547000X-1.547000X0*%
%TD*%
%TA.AperFunction,SMDPad,CuDef*%
%ADD44C,0.500000*%
%TD*%
%TA.AperFunction,SMDPad,CuDef*%
%ADD45RoundRect,0.075000X-0.275000X0.390000X-0.275000X-0.390000X0.275000X-0.390000X0.275000X0.390000X0*%
%TD*%
%TA.AperFunction,SMDPad,CuDef*%
%ADD46RoundRect,0.075000X-0.275000X0.075000X-0.275000X-0.075000X0.275000X-0.075000X0.275000X0.075000X0*%
%TD*%
%TA.AperFunction,SMDPad,CuDef*%
%ADD47FreePoly8,180.000000*%
%TD*%
%TA.AperFunction,SMDPad,CuDef*%
%ADD48FreePoly9,180.000000*%
%TD*%
%TA.AperFunction,SMDPad,CuDef*%
%ADD49RoundRect,0.100000X0.106066X0.000000X0.000000X0.106066X-0.106066X0.000000X0.000000X-0.106066X0*%
%TD*%
%TA.AperFunction,SMDPad,CuDef*%
%ADD50FreePoly10,180.000000*%
%TD*%
%TA.AperFunction,SMDPad,CuDef*%
%ADD51FreePoly11,180.000000*%
%TD*%
%TA.AperFunction,SMDPad,CuDef*%
%ADD52RoundRect,0.140000X0.170000X-0.140000X0.170000X0.140000X-0.170000X0.140000X-0.170000X-0.140000X0*%
%TD*%
%TA.AperFunction,SMDPad,CuDef*%
%ADD53RoundRect,0.075000X0.275000X-0.390000X0.275000X0.390000X-0.275000X0.390000X-0.275000X-0.390000X0*%
%TD*%
%TA.AperFunction,SMDPad,CuDef*%
%ADD54RoundRect,0.075000X0.275000X-0.075000X0.275000X0.075000X-0.275000X0.075000X-0.275000X-0.075000X0*%
%TD*%
%TA.AperFunction,SMDPad,CuDef*%
%ADD55RoundRect,0.135000X0.185000X-0.135000X0.185000X0.135000X-0.185000X0.135000X-0.185000X-0.135000X0*%
%TD*%
%TA.AperFunction,SMDPad,CuDef*%
%ADD56RoundRect,0.087500X-0.087500X0.225000X-0.087500X-0.225000X0.087500X-0.225000X0.087500X0.225000X0*%
%TD*%
%TA.AperFunction,SMDPad,CuDef*%
%ADD57RoundRect,0.087500X-0.225000X0.087500X-0.225000X-0.087500X0.225000X-0.087500X0.225000X0.087500X0*%
%TD*%
%TA.AperFunction,ViaPad*%
%ADD58C,0.400000*%
%TD*%
%TA.AperFunction,ViaPad*%
%ADD59C,0.800000*%
%TD*%
%TA.AperFunction,ViaPad*%
%ADD60C,0.500000*%
%TD*%
%TA.AperFunction,Conductor*%
%ADD61C,0.152400*%
%TD*%
%TA.AperFunction,Conductor*%
%ADD62C,0.250000*%
%TD*%
%TA.AperFunction,Conductor*%
%ADD63C,0.254000*%
%TD*%
G04 APERTURE END LIST*
D10*
%TO.P,P1,B1,GND*%
%TO.N,GND*%
X1475000Y2551000D03*
%TO.P,P1,B2,TX2+*%
%TO.N,/TX2_P*%
X1425000Y2551000D03*
%TO.P,P1,B3,TX2-*%
%TO.N,/TX2_N*%
X1375000Y2551000D03*
%TO.P,P1,B4,VBUS*%
%TO.N,Net-(P1-VBUS-PadA4)*%
X1325000Y2551000D03*
%TO.P,P1,B5,VCONN*%
%TO.N,unconnected-(P1-VCONN-PadB5)*%
X1275000Y2551000D03*
%TO.P,P1,B8,SBU2*%
%TO.N,unconnected-(P1-SBU2-PadB8)*%
X1125000Y2551000D03*
%TO.P,P1,B9,VBUS*%
%TO.N,Net-(P1-VBUS-PadA4)*%
X1075000Y2551000D03*
%TO.P,P1,B10,RX1-*%
%TO.N,/RX1_P*%
X1025000Y2551000D03*
%TO.P,P1,B11,RX1+*%
%TO.N,/RX1_N*%
X975000Y2551000D03*
%TO.P,P1,B12,GND*%
%TO.N,GND*%
X925000Y2551000D03*
D11*
%TO.P,P1,S1,SHIELD*%
%TO.N,Net-(P1-SHIELD)*%
X1542000Y2467000D03*
%TD*%
D12*
%TO.P,J4,1,Pin_1*%
%TO.N,/IO_P*%
X2306000Y285000D03*
D13*
%TO.P,J4,2,Pin_2*%
%TO.N,GND*%
X2306000Y185000D03*
%TO.P,J4,3,Pin_3*%
%TO.N,/IO_N*%
X2206000Y285000D03*
%TO.P,J4,4,Pin_4*%
%TO.N,GND*%
X2206000Y185000D03*
%TD*%
D12*
%TO.P,J1,1,Pin_1*%
%TO.N,/RUN*%
X242000Y285000D03*
D13*
%TO.P,J1,2,Pin_2*%
%TO.N,/~{FLASH_CS}*%
X242000Y185000D03*
%TO.P,J1,3,Pin_3*%
%TO.N,GND*%
X142000Y285000D03*
%TO.P,J1,4,Pin_4*%
X142000Y185000D03*
%TD*%
D14*
%TO.P,TP2,1,1*%
%TO.N,GND*%
X645000Y2625000D03*
%TD*%
%TO.P,TP4,1,1*%
%TO.N,GND*%
X1755000Y2625000D03*
%TD*%
D15*
%TO.P,R43,1*%
%TO.N,+2V5*%
X887500Y464500D03*
%TO.P,R43,2*%
%TO.N,/SDA2*%
X887500Y400500D03*
%TD*%
D16*
%TO.P,C66,1*%
%TO.N,+2V5*%
X1844500Y1102500D03*
%TO.P,C66,2*%
%TO.N,GND*%
X1940500Y1102500D03*
%TD*%
D17*
%TO.P,C117,1*%
%TO.N,+1V1*%
X1296000Y790000D03*
%TO.P,C117,2*%
%TO.N,GND*%
X1360000Y790000D03*
%TD*%
D16*
%TO.P,C21,1*%
%TO.N,+2V5*%
X1592000Y205000D03*
%TO.P,C21,2*%
%TO.N,GND*%
X1688000Y205000D03*
%TD*%
D18*
%TO.P,C11,1*%
%TO.N,+2V5*%
X262000Y1505000D03*
%TO.P,C11,2*%
%TO.N,GND*%
X198000Y1505000D03*
%TD*%
D19*
%TO.P,D10,1,K*%
%TO.N,Net-(D10-K)*%
X1619500Y85000D03*
%TO.P,D10,2,A*%
%TO.N,+2V5*%
X1716500Y85000D03*
%TD*%
D20*
%TO.P,C77,1*%
%TO.N,+2V5*%
X1607500Y1338500D03*
%TO.P,C77,2*%
%TO.N,GND*%
X1607500Y1402500D03*
%TD*%
%TO.P,C71,1*%
%TO.N,+2V5*%
X1607500Y626000D03*
%TO.P,C71,2*%
%TO.N,GND*%
X1607500Y690000D03*
%TD*%
D21*
%TO.P,TP6,1,1*%
%TO.N,Net-(U1-SWD)*%
X2400000Y1875000D03*
%TD*%
D22*
%TO.P,MK1,1,GND*%
%TO.N,GND*%
X667000Y960000D03*
%TO.P,MK1,2,LR*%
%TO.N,/MIC_LR*%
X667000Y795000D03*
%TO.P,MK1,3,GND*%
%TO.N,GND*%
X667000Y630000D03*
%TO.P,MK1,4,CLK*%
%TO.N,/MIC_CLK*%
X433000Y630000D03*
%TO.P,MK1,5,DOUT*%
%TO.N,Net-(JP1-A)*%
X433000Y795000D03*
D23*
%TO.P,MK1,6,VDD*%
%TO.N,+2V5*%
X443000Y950000D03*
%TD*%
D24*
%TO.P,C106,1*%
%TO.N,+1V1*%
X1137000Y1086000D03*
%TO.P,C106,2*%
%TO.N,GND*%
X1041000Y1086000D03*
%TD*%
D20*
%TO.P,C53,1*%
%TO.N,+1V1*%
X807500Y1505500D03*
%TO.P,C53,2*%
%TO.N,GND*%
X807500Y1569500D03*
%TD*%
D15*
%TO.P,R25,1*%
%TO.N,GND*%
X486000Y1564000D03*
%TO.P,R25,2*%
%TO.N,Net-(R25-Pad2)*%
X486000Y1500000D03*
%TD*%
D16*
%TO.P,C103,1*%
%TO.N,+1V1*%
X1042000Y790000D03*
%TO.P,C103,2*%
%TO.N,GND*%
X1138000Y790000D03*
%TD*%
D20*
%TO.P,C45,1*%
%TO.N,+2V5*%
X1525000Y1340500D03*
%TO.P,C45,2*%
%TO.N,GND*%
X1525000Y1404500D03*
%TD*%
D25*
%TO.P,Y1,1,ENABLE/DISABLE*%
%TO.N,Net-(Y1-ENABLE{slash}DISABLE)*%
X140000Y1610000D03*
%TO.P,Y1,2,NC*%
%TO.N,unconnected-(Y1-NC-Pad2)*%
X140000Y1730000D03*
%TO.P,Y1,3,GND*%
%TO.N,GND*%
X140000Y1850000D03*
%TO.P,Y1,4,CLK+*%
%TO.N,/SER_CLK_P*%
X300000Y1850000D03*
%TO.P,Y1,5,CLK-*%
%TO.N,/SER_CLK_N*%
X300000Y1730000D03*
%TO.P,Y1,6,VDD*%
%TO.N,+2V5*%
X300000Y1610000D03*
%TD*%
D26*
%TO.P,D5,1,K*%
%TO.N,/K4*%
X780000Y85000D03*
%TO.P,D5,2,A*%
%TO.N,+2V5*%
X683000Y85000D03*
%TD*%
D20*
%TO.P,C33,1*%
%TO.N,+2V5*%
X648000Y226000D03*
%TO.P,C33,2*%
%TO.N,GND*%
X648000Y290000D03*
%TD*%
D17*
%TO.P,R15,1*%
%TO.N,+2V5*%
X343000Y1505000D03*
%TO.P,R15,2*%
%TO.N,Net-(Y1-ENABLE{slash}DISABLE)*%
X407000Y1505000D03*
%TD*%
D27*
%TO.P,U4,1,~{CS}*%
%TO.N,/~{FLASH_CS}*%
X1182750Y2310250D03*
%TO.P,U4,2,SO/SIO1*%
%TO.N,/FLASH_S1*%
X1182750Y2260250D03*
%TO.P,U4,3,~{WP}/SIO2*%
%TO.N,/FLASH_S2*%
X1182750Y2210250D03*
%TO.P,U4,4,GND*%
%TO.N,GND*%
X1182750Y2160250D03*
%TO.P,U4,5,SI/SIO0*%
%TO.N,/FLASH_S0*%
X897750Y2160250D03*
%TO.P,U4,6,SCLK*%
%TO.N,/FLASH_CLK*%
X897750Y2210250D03*
%TO.P,U4,7,~{RESET}/SIO3*%
%TO.N,/FLASH_S3*%
X897750Y2260250D03*
%TO.P,U4,8,VCC*%
%TO.N,+2V5*%
X897750Y2310250D03*
D28*
%TO.P,U4,9,GND*%
%TO.N,GND*%
X1040250Y2235250D03*
%TD*%
D24*
%TO.P,C90,1*%
%TO.N,+1V1*%
X575500Y1760000D03*
%TO.P,C90,2*%
%TO.N,GND*%
X479500Y1760000D03*
%TD*%
D16*
%TO.P,C86,1*%
%TO.N,VBUS*%
X172000Y2007000D03*
%TO.P,C86,2*%
%TO.N,GND*%
X268000Y2007000D03*
%TD*%
D18*
%TO.P,C82,1*%
%TO.N,+1V1*%
X644500Y1337500D03*
%TO.P,C82,2*%
%TO.N,GND*%
X580500Y1337500D03*
%TD*%
D17*
%TO.P,C91,1*%
%TO.N,+1V1*%
X895500Y1177500D03*
%TO.P,C91,2*%
%TO.N,GND*%
X959500Y1177500D03*
%TD*%
D29*
%TO.P,C18,1*%
%TO.N,+2V5*%
X890000Y283000D03*
%TO.P,C18,2*%
%TO.N,GND*%
X890000Y187000D03*
%TD*%
D18*
%TO.P,C29,1*%
%TO.N,+2V5*%
X562000Y475000D03*
%TO.P,C29,2*%
%TO.N,GND*%
X498000Y475000D03*
%TD*%
D30*
%TO.P,U8,1,VIN*%
%TO.N,VBUS*%
X165000Y2092500D03*
%TO.P,U8,2,VIN*%
X165000Y2142500D03*
%TO.P,U8,3,EN*%
X165000Y2192500D03*
%TO.P,U8,4,PG*%
%TO.N,/power_supply/PG_1V1*%
X165000Y2242500D03*
%TO.P,U8,5,VOUT*%
%TO.N,+1V1*%
X165000Y2292500D03*
%TO.P,U8,6,VOUT*%
X290000Y2292500D03*
%TO.P,U8,7,VOUT*%
X290000Y2242500D03*
%TO.P,U8,8,FB*%
%TO.N,Net-(U8-FB)*%
X290000Y2192500D03*
%TO.P,U8,9,GND*%
%TO.N,GND*%
X290000Y2142500D03*
%TO.P,U8,10,GND*%
X290000Y2092500D03*
%TD*%
D15*
%TO.P,R40,1*%
%TO.N,+1V1*%
X80000Y2297000D03*
%TO.P,R40,2*%
%TO.N,/power_supply/PG_1V1*%
X80000Y2233000D03*
%TD*%
%TO.P,R28,1*%
%TO.N,GND*%
X340000Y1202500D03*
%TO.P,R28,2*%
%TO.N,Net-(R27-Pad2)*%
X340000Y1138500D03*
%TD*%
D20*
%TO.P,C28,1*%
%TO.N,+2V5*%
X808000Y1096000D03*
%TO.P,C28,2*%
%TO.N,GND*%
X808000Y1160000D03*
%TD*%
%TO.P,C30,1*%
%TO.N,+2V5*%
X807000Y707000D03*
%TO.P,C30,2*%
%TO.N,GND*%
X807000Y771000D03*
%TD*%
%TO.P,R4,1*%
%TO.N,+2V5*%
X727500Y1436000D03*
%TO.P,R4,2*%
%TO.N,/~{RST}*%
X727500Y1500000D03*
%TD*%
D31*
%TO.P,U1,1,IOVDD*%
%TO.N,+2V5*%
X1427500Y2288750D03*
D32*
%TO.P,U1,2,GPIO0*%
%TO.N,/TX0*%
X1467500Y2288750D03*
%TO.P,U1,3,GPIO1*%
%TO.N,/RX0*%
X1507500Y2288750D03*
%TO.P,U1,4,GPIO2*%
%TO.N,unconnected-(U1-GPIO2-Pad4)*%
X1547500Y2288750D03*
%TO.P,U1,5,GPIO3*%
%TO.N,unconnected-(U1-GPIO3-Pad5)*%
X1587500Y2288750D03*
%TO.P,U1,6,DVDD*%
%TO.N,+1V1*%
X1627500Y2288750D03*
%TO.P,U1,7,GPIO4*%
%TO.N,/TX1*%
X1667500Y2288750D03*
%TO.P,U1,8,GPIO5*%
%TO.N,/RX1*%
X1707500Y2288750D03*
%TO.P,U1,9,GPIO6*%
%TO.N,/TDI*%
X1747500Y2288750D03*
%TO.P,U1,10,GPIO7*%
%TO.N,/TDO*%
X1787500Y2288750D03*
%TO.P,U1,11,IOVDD*%
%TO.N,+2V5*%
X1827500Y2288750D03*
%TO.P,U1,12,GPIO8*%
%TO.N,/TCK*%
X1867500Y2288750D03*
%TO.P,U1,13,GPIO9*%
%TO.N,/TMS*%
X1907500Y2288750D03*
%TO.P,U1,14,GPIO10*%
%TO.N,/~{RST}*%
X1947500Y2288750D03*
D33*
%TO.P,U1,15,GPIO11*%
%TO.N,unconnected-(U1-GPIO11-Pad15)*%
X1987500Y2288750D03*
D34*
%TO.P,U1,16,GPIO12*%
%TO.N,/HSTX_0_P*%
X2051250Y2225000D03*
D35*
%TO.P,U1,17,GPIO13*%
%TO.N,/HSTX_0_N*%
X2051250Y2185000D03*
%TO.P,U1,18,GPIO14*%
%TO.N,/HSTX_1_P*%
X2051250Y2145000D03*
%TO.P,U1,19,GPIO15*%
%TO.N,/HSTX_1_N*%
X2051250Y2105000D03*
%TO.P,U1,20,IOVDD*%
%TO.N,+2V5*%
X2051250Y2065000D03*
%TO.P,U1,21,XIN*%
%TO.N,Net-(U1-XIN)*%
X2051250Y2025000D03*
%TO.P,U1,22,XOUT*%
%TO.N,Net-(U1-XOUT)*%
X2051250Y1985000D03*
%TO.P,U1,23,DVDD*%
%TO.N,+1V1*%
X2051250Y1945000D03*
%TO.P,U1,24,SWCLK*%
%TO.N,Net-(U1-SWCLK)*%
X2051250Y1905000D03*
%TO.P,U1,25,SWD*%
%TO.N,Net-(U1-SWD)*%
X2051250Y1865000D03*
%TO.P,U1,26,RUN*%
%TO.N,/RUN*%
X2051250Y1825000D03*
%TO.P,U1,27,GPIO16*%
%TO.N,/HSTX_2_P*%
X2051250Y1785000D03*
%TO.P,U1,28,GPIO17*%
%TO.N,/HSTX_2_N*%
X2051250Y1745000D03*
%TO.P,U1,29,GPIO18*%
%TO.N,/HSTX_3_P*%
X2051250Y1705000D03*
D36*
%TO.P,U1,30,IOVDD*%
%TO.N,+2V5*%
X2051250Y1665000D03*
D37*
%TO.P,U1,31,GPIO19*%
%TO.N,/HSTX_3_N*%
X1987500Y1601250D03*
D32*
%TO.P,U1,32,GPIO20*%
%TO.N,/CC_CFG_CTRL_CLK*%
X1947500Y1601250D03*
%TO.P,U1,33,GPIO21*%
%TO.N,unconnected-(U1-GPIO21-Pad33)*%
X1907500Y1601250D03*
%TO.P,U1,34,GPIO22*%
%TO.N,/CC_CFG_CTRL_VALID*%
X1867500Y1601250D03*
%TO.P,U1,35,GPIO23*%
%TO.N,/GPIO23_GPOUT1*%
X1827500Y1601250D03*
%TO.P,U1,36,GPIO24*%
%TO.N,/CC_CFG_CTRL_EN*%
X1787500Y1601250D03*
%TO.P,U1,37,GPIO25*%
%TO.N,unconnected-(U1-GPIO25-Pad37)*%
X1747500Y1601250D03*
%TO.P,U1,38,IOVDD*%
%TO.N,+2V5*%
X1707500Y1601250D03*
%TO.P,U1,39,DVDD*%
%TO.N,+1V1*%
X1667500Y1601250D03*
%TO.P,U1,40,GPIO26_ADC0*%
%TO.N,unconnected-(U1-GPIO26_ADC0-Pad40)*%
X1627500Y1601250D03*
%TO.P,U1,41,GPIO27_ADC1*%
%TO.N,/CC_CFG_CTRL_RECFG*%
X1587500Y1601250D03*
%TO.P,U1,42,GPIO28_ADC2*%
%TO.N,unconnected-(U1-GPIO28_ADC2-Pad42)*%
X1547500Y1601250D03*
%TO.P,U1,43,GPIO29_ADC3*%
%TO.N,unconnected-(U1-GPIO29_ADC3-Pad43)*%
X1507500Y1601250D03*
%TO.P,U1,44,ADC_AVDD*%
%TO.N,+3V3*%
X1467500Y1601250D03*
D38*
%TO.P,U1,45,IOVDD*%
%TO.N,+2V5*%
X1427500Y1601250D03*
D39*
%TO.P,U1,46,VREG_AVDD*%
%TO.N,Net-(U1-VREG_AVDD)*%
X1363750Y1665000D03*
D35*
%TO.P,U1,47,VREG_PGND*%
%TO.N,GND*%
X1363750Y1705000D03*
%TO.P,U1,48,VREG_LX*%
%TO.N,unconnected-(U1-VREG_LX-Pad48)*%
X1363750Y1745000D03*
%TO.P,U1,49,VREG_VIN*%
%TO.N,+3V3*%
X1363750Y1785000D03*
%TO.P,U1,50,VREG_FB*%
%TO.N,+1V1*%
X1363750Y1825000D03*
%TO.P,U1,51,USB_DM*%
%TO.N,/USB_DN*%
X1363750Y1865000D03*
%TO.P,U1,52,USB_DP*%
%TO.N,/USB_DP*%
X1363750Y1905000D03*
%TO.P,U1,53,USB_OTP_VDD*%
%TO.N,+3V3*%
X1363750Y1945000D03*
%TO.P,U1,54,QSPI_IOVDD*%
%TO.N,+2V5*%
X1363750Y1985000D03*
%TO.P,U1,55,QSPI_SD3*%
%TO.N,/FLASH_S3*%
X1363750Y2025000D03*
%TO.P,U1,56,QSPI_SCLK*%
%TO.N,/FLASH_CLK*%
X1363750Y2065000D03*
%TO.P,U1,57,QSPI_SD0*%
%TO.N,/FLASH_S0*%
X1363750Y2105000D03*
%TO.P,U1,58,QSPI_SD2*%
%TO.N,/FLASH_S2*%
X1363750Y2145000D03*
%TO.P,U1,59,QSPI_SD1*%
%TO.N,/FLASH_S1*%
X1363750Y2185000D03*
D40*
%TO.P,U1,60,QSPI_SS*%
%TO.N,/~{FLASH_CS}*%
X1363750Y2225000D03*
D41*
%TO.P,U1,61,GND*%
%TO.N,GND*%
X1845000Y2082500D03*
D42*
X1707500Y2082500D03*
X1570000Y2082500D03*
D41*
X1845000Y1945000D03*
X1707500Y1945000D03*
D43*
X1707500Y1945000D03*
D41*
X1570000Y1945000D03*
X1845000Y1807500D03*
X1707500Y1807500D03*
X1570000Y1807500D03*
%TD*%
D18*
%TO.P,R30,1*%
%TO.N,Net-(U2A-GND{slash}SER_TX1_P)*%
X642000Y1577500D03*
%TO.P,R30,2*%
%TO.N,GND*%
X578000Y1577500D03*
%TD*%
%TO.P,R19,1*%
%TO.N,+2V5*%
X1637000Y310000D03*
%TO.P,R19,2*%
%TO.N,/SDA0*%
X1573000Y310000D03*
%TD*%
D20*
%TO.P,R22,1*%
%TO.N,Net-(U2H-POR_ADJ)*%
X727500Y1655500D03*
%TO.P,R22,2*%
%TO.N,GND*%
X727500Y1719500D03*
%TD*%
D17*
%TO.P,C94,1*%
%TO.N,+1V1*%
X1455000Y778000D03*
%TO.P,C94,2*%
%TO.N,GND*%
X1519000Y778000D03*
%TD*%
D29*
%TO.P,C34,1*%
%TO.N,+2V5*%
X485000Y295500D03*
%TO.P,C34,2*%
%TO.N,GND*%
X485000Y199500D03*
%TD*%
D18*
%TO.P,C97,1*%
%TO.N,+1V1*%
X1519000Y698000D03*
%TO.P,C97,2*%
%TO.N,GND*%
X1455000Y698000D03*
%TD*%
%TO.P,R39,1*%
%TO.N,+2V5*%
X2222000Y1561000D03*
%TO.P,R39,2*%
%TO.N,/CFG_MD3{slash}IO_WA_B1*%
X2158000Y1561000D03*
%TD*%
D44*
%TO.P,FID1,*%
%TO.N,*%
X1823000Y743000D03*
%TD*%
D45*
%TO.P,D15,1,K*%
%TO.N,/IO_N*%
X2031000Y429500D03*
D46*
%TO.P,D15,2,A*%
%TO.N,GND*%
X2031000Y341000D03*
%TD*%
D24*
%TO.P,C12,1*%
%TO.N,+2V5*%
X295500Y1420000D03*
%TO.P,C12,2*%
%TO.N,GND*%
X199500Y1420000D03*
%TD*%
D18*
%TO.P,R34,1*%
%TO.N,+2V5*%
X2017000Y1495000D03*
%TO.P,R34,2*%
%TO.N,/POR_EN*%
X1953000Y1495000D03*
%TD*%
D17*
%TO.P,C98,1*%
%TO.N,+1V1*%
X1454500Y1178000D03*
%TO.P,C98,2*%
%TO.N,GND*%
X1518500Y1178000D03*
%TD*%
%TO.P,C87,1*%
%TO.N,+1V1*%
X463000Y2292500D03*
%TO.P,C87,2*%
%TO.N,Net-(U8-FB)*%
X527000Y2292500D03*
%TD*%
D16*
%TO.P,C73,1*%
%TO.N,+2V5*%
X1826000Y381000D03*
%TO.P,C73,2*%
%TO.N,GND*%
X1922000Y381000D03*
%TD*%
D17*
%TO.P,C38,1*%
%TO.N,+2V5*%
X815500Y1417500D03*
%TO.P,C38,2*%
%TO.N,GND*%
X879500Y1417500D03*
%TD*%
D16*
%TO.P,C74,1*%
%TO.N,+2V5*%
X1844000Y205000D03*
%TO.P,C74,2*%
%TO.N,GND*%
X1940000Y205000D03*
%TD*%
D18*
%TO.P,C64,1*%
%TO.N,+1V1*%
X639500Y1497500D03*
%TO.P,C64,2*%
%TO.N,GND*%
X575500Y1497500D03*
%TD*%
D20*
%TO.P,R26,1*%
%TO.N,+2V5*%
X415000Y1360000D03*
%TO.P,R26,2*%
%TO.N,Net-(R25-Pad2)*%
X415000Y1424000D03*
%TD*%
D17*
%TO.P,C63,1*%
%TO.N,+1V1*%
X968000Y1577500D03*
%TO.P,C63,2*%
%TO.N,GND*%
X1032000Y1577500D03*
%TD*%
D18*
%TO.P,C92,1*%
%TO.N,+1V1*%
X1519000Y1258000D03*
%TO.P,C92,2*%
%TO.N,GND*%
X1455000Y1258000D03*
%TD*%
D24*
%TO.P,C14,1*%
%TO.N,VBUS*%
X1158000Y1936000D03*
%TO.P,C14,2*%
%TO.N,GND*%
X1062000Y1936000D03*
%TD*%
D17*
%TO.P,C68,1*%
%TO.N,+2V5*%
X1853000Y857500D03*
%TO.P,C68,2*%
%TO.N,GND*%
X1917000Y857500D03*
%TD*%
D24*
%TO.P,C26,1*%
%TO.N,+2V5*%
X574000Y1102000D03*
%TO.P,C26,2*%
%TO.N,GND*%
X478000Y1102000D03*
%TD*%
D29*
%TO.P,C17,1*%
%TO.N,+2V5*%
X1060000Y313000D03*
%TO.P,C17,2*%
%TO.N,GND*%
X1060000Y217000D03*
%TD*%
D17*
%TO.P,C111,1*%
%TO.N,+1V1*%
X895000Y1018000D03*
%TO.P,C111,2*%
%TO.N,GND*%
X959000Y1018000D03*
%TD*%
D20*
%TO.P,C76,1*%
%TO.N,+2V5*%
X1682500Y1100500D03*
%TO.P,C76,2*%
%TO.N,GND*%
X1682500Y1164500D03*
%TD*%
D18*
%TO.P,R20,1*%
%TO.N,+2V5*%
X1652000Y385000D03*
%TO.P,R20,2*%
%TO.N,/SCL0*%
X1588000Y385000D03*
%TD*%
%TO.P,C112,1*%
%TO.N,+1V1*%
X960000Y858000D03*
%TO.P,C112,2*%
%TO.N,GND*%
X896000Y858000D03*
%TD*%
D26*
%TO.P,D2,1,K*%
%TO.N,/K1*%
X1342250Y85000D03*
%TO.P,D2,2,A*%
%TO.N,+2V5*%
X1245250Y85000D03*
%TD*%
D17*
%TO.P,R31,1*%
%TO.N,+2V5*%
X553500Y1937500D03*
%TO.P,R31,2*%
%TO.N,Net-(U2H-POR_ADJ)*%
X617500Y1937500D03*
%TD*%
%TO.P,C96,1*%
%TO.N,+1V1*%
X896000Y779000D03*
%TO.P,C96,2*%
%TO.N,GND*%
X960000Y779000D03*
%TD*%
D20*
%TO.P,C46,1*%
%TO.N,+2V5*%
X850000Y2398000D03*
%TO.P,C46,2*%
%TO.N,GND*%
X850000Y2462000D03*
%TD*%
D18*
%TO.P,C75,1*%
%TO.N,+2V5*%
X1757000Y1337500D03*
%TO.P,C75,2*%
%TO.N,GND*%
X1693000Y1337500D03*
%TD*%
%TO.P,R17,1*%
%TO.N,+2V5*%
X312000Y405000D03*
%TO.P,R17,2*%
%TO.N,/RUN*%
X248000Y405000D03*
%TD*%
D29*
%TO.P,C107,1*%
%TO.N,+1V1*%
X1253000Y991000D03*
%TO.P,C107,2*%
%TO.N,GND*%
X1253000Y895000D03*
%TD*%
D47*
%TO.P,U10,1,GND*%
%TO.N,GND*%
X1059000Y463000D03*
D48*
%TO.P,U10,2,SCL*%
%TO.N,/SCL2*%
X1059000Y415000D03*
D49*
%TO.P,U10,3,ADD0*%
%TO.N,GND*%
X1020000Y439000D03*
D50*
%TO.P,U10,4,SDA*%
%TO.N,/SDA2*%
X981000Y415000D03*
D51*
%TO.P,U10,5,V+*%
%TO.N,+2V5*%
X981000Y463000D03*
%TD*%
D52*
%TO.P,C40,1*%
%TO.N,+2V5*%
X1050000Y1271500D03*
%TO.P,C40,2*%
%TO.N,GND*%
X1050000Y1367500D03*
%TD*%
D16*
%TO.P,C8,1*%
%TO.N,GND*%
X2188000Y1961000D03*
%TO.P,C8,2*%
%TO.N,Net-(U1-XOUT)*%
X2284000Y1961000D03*
%TD*%
D24*
%TO.P,C13,1*%
%TO.N,+2V5*%
X295000Y1327500D03*
%TO.P,C13,2*%
%TO.N,GND*%
X199000Y1327500D03*
%TD*%
D15*
%TO.P,R44,1*%
%TO.N,+2V5*%
X817500Y444500D03*
%TO.P,R44,2*%
%TO.N,/SCL2*%
X817500Y380500D03*
%TD*%
D24*
%TO.P,C35,1*%
%TO.N,+2V5*%
X650500Y392500D03*
%TO.P,C35,2*%
%TO.N,GND*%
X554500Y392500D03*
%TD*%
D18*
%TO.P,R38,1*%
%TO.N,+2V5*%
X2222000Y1490000D03*
%TO.P,R38,2*%
%TO.N,/CFG_MD2{slash}IO_WA_A1*%
X2158000Y1490000D03*
%TD*%
%TO.P,C32,1*%
%TO.N,+2V5*%
X879000Y618000D03*
%TO.P,C32,2*%
%TO.N,GND*%
X815000Y618000D03*
%TD*%
D44*
%TO.P,FID2,*%
%TO.N,*%
X2061000Y221000D03*
%TD*%
D18*
%TO.P,C93,1*%
%TO.N,+1V1*%
X960500Y698000D03*
%TO.P,C93,2*%
%TO.N,GND*%
X896500Y698000D03*
%TD*%
D52*
%TO.P,C57,1*%
%TO.N,+2V5*%
X2170000Y2329500D03*
%TO.P,C57,2*%
%TO.N,GND*%
X2170000Y2425500D03*
%TD*%
D20*
%TO.P,C70,1*%
%TO.N,+2V5*%
X1607500Y465500D03*
%TO.P,C70,2*%
%TO.N,GND*%
X1607500Y529500D03*
%TD*%
D17*
%TO.P,C31,1*%
%TO.N,+2V5*%
X815000Y539000D03*
%TO.P,C31,2*%
%TO.N,GND*%
X879000Y539000D03*
%TD*%
D52*
%TO.P,C109,1*%
%TO.N,+1V1*%
X1151000Y895000D03*
%TO.P,C109,2*%
%TO.N,GND*%
X1151000Y991000D03*
%TD*%
D20*
%TO.P,C19,1*%
%TO.N,+2V5*%
X1127000Y546000D03*
%TO.P,C19,2*%
%TO.N,GND*%
X1127000Y610000D03*
%TD*%
D29*
%TO.P,C110,1*%
%TO.N,+1V1*%
X1051000Y991000D03*
%TO.P,C110,2*%
%TO.N,GND*%
X1051000Y895000D03*
%TD*%
D52*
%TO.P,C108,1*%
%TO.N,+1V1*%
X1358000Y895000D03*
%TO.P,C108,2*%
%TO.N,GND*%
X1358000Y991000D03*
%TD*%
D16*
%TO.P,C15,1*%
%TO.N,+3V3*%
X1062000Y1842500D03*
%TO.P,C15,2*%
%TO.N,GND*%
X1158000Y1842500D03*
%TD*%
D20*
%TO.P,C69,1*%
%TO.N,+2V5*%
X1607500Y773000D03*
%TO.P,C69,2*%
%TO.N,GND*%
X1607500Y837000D03*
%TD*%
D24*
%TO.P,C52,1*%
%TO.N,Net-(U2H-POR_ADJ)*%
X636000Y1852500D03*
%TO.P,C52,2*%
%TO.N,GND*%
X540000Y1852500D03*
%TD*%
D29*
%TO.P,C65,1*%
%TO.N,+2V5*%
X1615000Y1018000D03*
%TO.P,C65,2*%
%TO.N,GND*%
X1615000Y922000D03*
%TD*%
D52*
%TO.P,C47,1*%
%TO.N,+2V5*%
X750000Y2355000D03*
%TO.P,C47,2*%
%TO.N,GND*%
X750000Y2451000D03*
%TD*%
D18*
%TO.P,R42,1*%
%TO.N,+2V5*%
X724500Y1092500D03*
%TO.P,R42,2*%
%TO.N,/SDA1*%
X660500Y1092500D03*
%TD*%
D53*
%TO.P,D16,1,K*%
%TO.N,/IO_P*%
X2032000Y582500D03*
D54*
%TO.P,D16,2,A*%
%TO.N,GND*%
X2032000Y671000D03*
%TD*%
D20*
%TO.P,R27,1*%
%TO.N,+2V5*%
X270000Y1070500D03*
%TO.P,R27,2*%
%TO.N,Net-(R27-Pad2)*%
X270000Y1134500D03*
%TD*%
D18*
%TO.P,C23,1*%
%TO.N,+2V5*%
X1518500Y538000D03*
%TO.P,C23,2*%
%TO.N,GND*%
X1454500Y538000D03*
%TD*%
D24*
%TO.P,C101,1*%
%TO.N,+1V1*%
X1367000Y709000D03*
%TO.P,C101,2*%
%TO.N,GND*%
X1271000Y709000D03*
%TD*%
%TO.P,C42,1*%
%TO.N,+2V5*%
X1068000Y1675000D03*
%TO.P,C42,2*%
%TO.N,GND*%
X972000Y1675000D03*
%TD*%
D26*
%TO.P,D4,1,K*%
%TO.N,/K3*%
X967250Y85000D03*
%TO.P,D4,2,A*%
%TO.N,+2V5*%
X870250Y85000D03*
%TD*%
D55*
%TO.P,R3,1*%
%TO.N,Net-(U1-VREG_AVDD)*%
X1157500Y1506000D03*
%TO.P,R3,2*%
%TO.N,+3V3*%
X1157500Y1608000D03*
%TD*%
D18*
%TO.P,C116,1*%
%TO.N,+1V1*%
X1359500Y1080000D03*
%TO.P,C116,2*%
%TO.N,GND*%
X1295500Y1080000D03*
%TD*%
D17*
%TO.P,C16,1*%
%TO.N,+2V5*%
X975000Y539000D03*
%TO.P,C16,2*%
%TO.N,GND*%
X1039000Y539000D03*
%TD*%
D56*
%TO.P,U9,1,SDO/SA0*%
%TO.N,+2V5*%
X1205000Y431250D03*
%TO.P,U9,2,SDx*%
%TO.N,unconnected-(U9-SDx-Pad2)*%
X1255000Y431250D03*
%TO.P,U9,3,SCx*%
%TO.N,unconnected-(U9-SCx-Pad3)*%
X1305000Y431250D03*
%TO.P,U9,4,INT1*%
%TO.N,/IMU_INT1*%
X1355000Y431250D03*
D57*
%TO.P,U9,5,VDDIO*%
%TO.N,+2V5*%
X1371250Y365000D03*
%TO.P,U9,6,GND*%
%TO.N,GND*%
X1371250Y315000D03*
%TO.P,U9,7,GND*%
X1371250Y265000D03*
D56*
%TO.P,U9,8,VDD*%
%TO.N,+2V5*%
X1355000Y198750D03*
%TO.P,U9,9,INT2*%
%TO.N,/IMU_INT2*%
X1305000Y198750D03*
%TO.P,U9,10,OCS_AUX*%
%TO.N,unconnected-(U9-OCS_AUX-Pad10)*%
X1255000Y198750D03*
%TO.P,U9,11,SDO_AUX*%
%TO.N,unconnected-(U9-SDO_AUX-Pad11)*%
X1205000Y198750D03*
D57*
%TO.P,U9,12,CS*%
%TO.N,+2V5*%
X1188750Y265000D03*
%TO.P,U9,13,SCL*%
%TO.N,/SCL0*%
X1188750Y315000D03*
%TO.P,U9,14,SDA*%
%TO.N,/SDA0*%
X1188750Y365000D03*
%TD*%
D18*
%TO.P,R41,1*%
%TO.N,+2V5*%
X724500Y1167500D03*
%TO.P,R41,2*%
%TO.N,/SCL1*%
X660500Y1167500D03*
%TD*%
D17*
%TO.P,C44,1*%
%TO.N,+2V5*%
X1453000Y1497500D03*
%TO.P,C44,2*%
%TO.N,GND*%
X1517000Y1497500D03*
%TD*%
D24*
%TO.P,C105,1*%
%TO.N,+1V1*%
X1367000Y1259000D03*
%TO.P,C105,2*%
%TO.N,GND*%
X1271000Y1259000D03*
%TD*%
D17*
%TO.P,C72,1*%
%TO.N,+2V5*%
X1853500Y617500D03*
%TO.P,C72,2*%
%TO.N,GND*%
X1917500Y617500D03*
%TD*%
D21*
%TO.P,TP5,1,1*%
%TO.N,Net-(U1-SWCLK)*%
X2400000Y2075000D03*
%TD*%
D20*
%TO.P,C43,1*%
%TO.N,+2V5*%
X1252500Y1570500D03*
%TO.P,C43,2*%
%TO.N,GND*%
X1252500Y1634500D03*
%TD*%
D18*
%TO.P,C95,1*%
%TO.N,+1V1*%
X959500Y1098000D03*
%TO.P,C95,2*%
%TO.N,GND*%
X895500Y1098000D03*
%TD*%
D29*
%TO.P,C22,1*%
%TO.N,+2V5*%
X1480000Y303000D03*
%TO.P,C22,2*%
%TO.N,GND*%
X1480000Y207000D03*
%TD*%
D18*
%TO.P,R35,1*%
%TO.N,Net-(U8-FB)*%
X442000Y2035000D03*
%TO.P,R35,2*%
%TO.N,GND*%
X378000Y2035000D03*
%TD*%
D16*
%TO.P,C104,1*%
%TO.N,+1V1*%
X1271000Y617000D03*
%TO.P,C104,2*%
%TO.N,GND*%
X1367000Y617000D03*
%TD*%
%TO.P,C102,1*%
%TO.N,+1V1*%
X1271000Y1167000D03*
%TO.P,C102,2*%
%TO.N,GND*%
X1367000Y1167000D03*
%TD*%
D24*
%TO.P,C89,1*%
%TO.N,+1V1*%
X575500Y1665000D03*
%TO.P,C89,2*%
%TO.N,GND*%
X479500Y1665000D03*
%TD*%
D17*
%TO.P,C37,1*%
%TO.N,+2V5*%
X895500Y1257500D03*
%TO.P,C37,2*%
%TO.N,GND*%
X959500Y1257500D03*
%TD*%
D19*
%TO.P,D11,1,K*%
%TO.N,GND*%
X1807000Y85000D03*
%TO.P,D11,2,A*%
%TO.N,Net-(D11-A)*%
X1904000Y85000D03*
%TD*%
D44*
%TO.P,FID3,*%
%TO.N,*%
X743000Y2155000D03*
%TD*%
D20*
%TO.P,C36,1*%
%TO.N,+2V5*%
X487500Y1360500D03*
%TO.P,C36,2*%
%TO.N,GND*%
X487500Y1424500D03*
%TD*%
D26*
%TO.P,D1,1,K*%
%TO.N,/K0*%
X1529750Y85000D03*
%TO.P,D1,2,A*%
%TO.N,+2V5*%
X1432750Y85000D03*
%TD*%
D52*
%TO.P,C27,1*%
%TO.N,+2V5*%
X809000Y895000D03*
%TO.P,C27,2*%
%TO.N,GND*%
X809000Y991000D03*
%TD*%
D15*
%TO.P,C67,1*%
%TO.N,+2V5*%
X1607500Y1170000D03*
%TO.P,C67,2*%
%TO.N,GND*%
X1607500Y1106000D03*
%TD*%
%TO.P,R12,1*%
%TO.N,+2V5*%
X350000Y219000D03*
%TO.P,R12,2*%
%TO.N,/~{FLASH_CS}*%
X350000Y155000D03*
%TD*%
D20*
%TO.P,R29,1*%
%TO.N,Net-(U2A-GND{slash}SER_TX1_N)*%
X655000Y1678000D03*
%TO.P,R29,2*%
%TO.N,GND*%
X655000Y1742000D03*
%TD*%
D24*
%TO.P,C100,1*%
%TO.N,+1V1*%
X1138000Y698000D03*
%TO.P,C100,2*%
%TO.N,GND*%
X1042000Y698000D03*
%TD*%
D18*
%TO.P,C25,1*%
%TO.N,+2V5*%
X1363000Y536000D03*
%TO.P,C25,2*%
%TO.N,GND*%
X1299000Y536000D03*
%TD*%
D26*
%TO.P,D6,1,K*%
%TO.N,/K5*%
X592500Y85000D03*
%TO.P,D6,2,A*%
%TO.N,+2V5*%
X495500Y85000D03*
%TD*%
D17*
%TO.P,C24,1*%
%TO.N,+2V5*%
X1454500Y619000D03*
%TO.P,C24,2*%
%TO.N,GND*%
X1518500Y619000D03*
%TD*%
D16*
%TO.P,C41,1*%
%TO.N,+2V5*%
X1345000Y1367500D03*
%TO.P,C41,2*%
%TO.N,GND*%
X1441000Y1367500D03*
%TD*%
D17*
%TO.P,C114,1*%
%TO.N,+1V1*%
X1454500Y1019000D03*
%TO.P,C114,2*%
%TO.N,GND*%
X1518500Y1019000D03*
%TD*%
D16*
%TO.P,C99,1*%
%TO.N,+1V1*%
X1041000Y1177500D03*
%TO.P,C99,2*%
%TO.N,GND*%
X1137000Y1177500D03*
%TD*%
D15*
%TO.P,R24,1*%
%TO.N,+1V1*%
X470000Y2217000D03*
%TO.P,R24,2*%
%TO.N,Net-(U8-FB)*%
X470000Y2153000D03*
%TD*%
D24*
%TO.P,C7,1*%
%TO.N,GND*%
X2263000Y2072500D03*
%TO.P,C7,2*%
%TO.N,Net-(U1-XIN)*%
X2167000Y2072500D03*
%TD*%
D18*
%TO.P,C20,1*%
%TO.N,+2V5*%
X1039000Y617000D03*
%TO.P,C20,2*%
%TO.N,GND*%
X975000Y617000D03*
%TD*%
%TO.P,C115,1*%
%TO.N,+1V1*%
X1519500Y858000D03*
%TO.P,C115,2*%
%TO.N,GND*%
X1455500Y858000D03*
%TD*%
D29*
%TO.P,C88,1*%
%TO.N,+1V1*%
X387500Y2210500D03*
%TO.P,C88,2*%
%TO.N,GND*%
X387500Y2114500D03*
%TD*%
D26*
%TO.P,D3,1,K*%
%TO.N,/K2*%
X1154750Y85000D03*
%TO.P,D3,2,A*%
%TO.N,+2V5*%
X1057750Y85000D03*
%TD*%
D16*
%TO.P,C39,1*%
%TO.N,+2V5*%
X1154500Y1367500D03*
%TO.P,C39,2*%
%TO.N,GND*%
X1250500Y1367500D03*
%TD*%
%TO.P,C6,1*%
%TO.N,Net-(U1-VREG_AVDD)*%
X1249000Y1480000D03*
%TO.P,C6,2*%
%TO.N,GND*%
X1345000Y1480000D03*
%TD*%
D15*
%TO.P,R16,1*%
%TO.N,+1V1*%
X717000Y1305000D03*
%TO.P,R16,2*%
%TO.N,Net-(U2G-NC{slash}VDD_SER)*%
X717000Y1241000D03*
%TD*%
D18*
%TO.P,C113,1*%
%TO.N,+1V1*%
X1519000Y1098000D03*
%TO.P,C113,2*%
%TO.N,GND*%
X1455000Y1098000D03*
%TD*%
D58*
%TO.N,GND*%
X1709268Y2156085D03*
X487000Y1098000D03*
X487000Y1658000D03*
X727000Y1578000D03*
X2270000Y1715000D03*
X565000Y782500D03*
X373000Y2035000D03*
X2342000Y1232000D03*
X1367500Y1502500D03*
X1324000Y2316000D03*
X2342000Y1319000D03*
X887000Y858000D03*
X1287000Y1098000D03*
D59*
X225000Y705000D03*
D58*
X380000Y2440000D03*
X1927000Y378000D03*
X1287000Y698000D03*
D59*
X75000Y980000D03*
D58*
X967000Y618000D03*
X792780Y2253709D03*
X1056000Y2442000D03*
X1047000Y538000D03*
X567000Y1498000D03*
X2031000Y341000D03*
D59*
X225000Y905000D03*
D58*
X1367000Y1018000D03*
X887000Y1098000D03*
X1447000Y218000D03*
X1447000Y858000D03*
X1287000Y538000D03*
X1687000Y1338000D03*
X1250000Y1658000D03*
X1607500Y1415000D03*
X1607000Y538000D03*
X1786840Y40003D03*
X569119Y1182301D03*
X967000Y1418000D03*
X887000Y218000D03*
X1047000Y858000D03*
X1447000Y1098000D03*
X1127000Y778000D03*
X1506928Y1677979D03*
X807000Y1658000D03*
X1927000Y218000D03*
X561151Y301261D03*
D59*
X75000Y630000D03*
D58*
X487000Y538000D03*
X1127000Y1018000D03*
X2117500Y622500D03*
X630000Y2329000D03*
D60*
X1798650Y2672450D03*
D58*
X567000Y1258000D03*
X887000Y538000D03*
D60*
X598500Y2672450D03*
D58*
X1127000Y218000D03*
X1285771Y1691968D03*
X2360000Y2205000D03*
X807000Y618000D03*
X1367000Y618000D03*
X1137278Y2121722D03*
X925000Y2551000D03*
X325000Y2440000D03*
X1287000Y858000D03*
X1367000Y778000D03*
X967000Y1258000D03*
X1447000Y538000D03*
X1668000Y193000D03*
X2090000Y785000D03*
X2050000Y1225000D03*
X830960Y808083D03*
X1527000Y778000D03*
X887000Y698000D03*
X1367000Y1178000D03*
X1527000Y1018000D03*
X1920000Y865000D03*
X568000Y1338000D03*
X1447000Y698000D03*
X1047000Y1098000D03*
X1127000Y618000D03*
X1915624Y1099191D03*
X1287000Y1258000D03*
X975000Y1952500D03*
X1142092Y2359000D03*
X647000Y298000D03*
X1300000Y2460000D03*
X580000Y2178000D03*
X2159000Y584000D03*
X1610000Y932500D03*
X1287000Y1338000D03*
X1075000Y2160250D03*
X1200000Y1833080D03*
X1883160Y1675000D03*
X807000Y1168266D03*
X2290000Y2425000D03*
X487000Y218000D03*
D60*
X693750Y2672450D03*
D58*
X1127000Y1178000D03*
X1607000Y1098000D03*
D60*
X1709750Y2672450D03*
D58*
X1047000Y698000D03*
X385000Y1260000D03*
X1955070Y1782620D03*
X1527000Y1178000D03*
X2263000Y2072500D03*
X676000Y1789000D03*
X2173296Y1720725D03*
X2342000Y1401000D03*
X2045000Y51000D03*
X117120Y1512120D03*
X1927000Y618000D03*
X679207Y2417000D03*
X2210379Y1972100D03*
X807000Y1578000D03*
X1607000Y858000D03*
X725000Y618000D03*
X967000Y1018000D03*
X642847Y1423962D03*
X2330000Y2367000D03*
X1475000Y2551000D03*
X1447000Y1258000D03*
X967000Y1178000D03*
X967000Y778000D03*
X197500Y1255000D03*
X807000Y1018000D03*
X1447000Y1338000D03*
X1527000Y618000D03*
X1047000Y1498000D03*
X1607000Y698000D03*
%TO.N,VBUS*%
X80000Y2392000D03*
X2040000Y2294000D03*
X38288Y2337862D03*
X1225368Y1997000D03*
X2040000Y2424000D03*
X1975000Y2420000D03*
%TO.N,/USB_DP*%
X1441287Y2073787D03*
%TO.N,Net-(D10-K)*%
X1619500Y50000D03*
%TO.N,/SCL1*%
X487222Y1027706D03*
%TO.N,Net-(U1-XIN)*%
X2167000Y2072500D03*
%TO.N,Net-(U1-XOUT)*%
X2265500Y1930000D03*
%TO.N,/CC_CFG_CTRL_RECFG*%
X1565000Y1683000D03*
%TO.N,/K0*%
X1529500Y50000D03*
%TO.N,/K1*%
X1342500Y50000D03*
%TO.N,/K2*%
X1155000Y50000D03*
%TO.N,/K3*%
X967500Y50000D03*
%TO.N,/GPIO23_GPOUT1*%
X967000Y1338000D03*
%TO.N,Net-(P1-VBUS-PadA4)*%
X1702500Y2425000D03*
X1075000Y2551000D03*
X1325000Y2551000D03*
%TO.N,/CC_CFG_CTRL_EN*%
X1597266Y1498000D03*
X1960000Y127500D03*
%TO.N,/TX2_P*%
X1338000Y2364000D03*
X623713Y2273713D03*
%TO.N,/CC_CFG_CTRL_CLK*%
X1847000Y298000D03*
X1757266Y1018000D03*
%TO.N,/CC_CFG_CTRL_VALID*%
X1847500Y457500D03*
X1688983Y1418434D03*
%TO.N,Net-(D11-A)*%
X1904000Y50000D03*
%TO.N,Net-(U2H-POR_ADJ)*%
X753894Y1660887D03*
%TO.N,/power_supply/PG_2V5*%
X795000Y2070192D03*
X92500Y2140000D03*
X1204000Y1771896D03*
%TO.N,/TX2_N*%
X581287Y2231287D03*
X1338000Y2424000D03*
%TO.N,/RUN*%
X1513000Y1732000D03*
%TO.N,+1V1*%
X967000Y698000D03*
X1447000Y778000D03*
X887000Y778000D03*
X807000Y1498000D03*
X1447000Y1178000D03*
X1625000Y2355000D03*
X645776Y1334480D03*
X1287000Y778000D03*
X1367000Y858000D03*
X1497500Y1817500D03*
X1527000Y1258000D03*
X1047000Y1018000D03*
X647000Y1498000D03*
X1527000Y1098000D03*
X1527000Y698000D03*
X1047000Y1178000D03*
X1367000Y1098000D03*
X1287000Y618000D03*
X1287000Y1178000D03*
X1127000Y858000D03*
X1985000Y1945000D03*
X1367000Y698000D03*
X1447000Y1018000D03*
X1367000Y1258000D03*
X1047000Y778000D03*
X725000Y1330000D03*
X887000Y1178000D03*
X200000Y2330000D03*
X1127000Y1258000D03*
X567000Y1658000D03*
X1287000Y1018000D03*
X967000Y1098000D03*
X967000Y1578000D03*
X887000Y1018000D03*
X1127000Y698000D03*
X1527000Y858000D03*
X1127000Y1098000D03*
X967000Y858000D03*
X400000Y2337500D03*
X1667500Y1694220D03*
%TO.N,/RX2_P*%
X1467768Y2417752D03*
X743713Y2291213D03*
%TO.N,/USB_DN*%
X1483713Y2116213D03*
%TO.N,/RX1_N*%
X1149311Y2411191D03*
%TO.N,Net-(P1-SHIELD)*%
X1524169Y2403041D03*
X466576Y2445544D03*
%TO.N,/RX2_N*%
X1437392Y2373137D03*
X701287Y2248787D03*
%TO.N,Net-(U2B-IO_WA_A2{slash}~{CFG_FAILED})*%
X1690000Y297500D03*
X1770000Y1180000D03*
X1807500Y1680000D03*
X1687500Y700000D03*
%TO.N,+3V3*%
X1097694Y1800823D03*
X1197266Y1578000D03*
X1449839Y1689742D03*
X1040000Y2095000D03*
X1440000Y1965000D03*
%TO.N,/TDI*%
X1905506Y2149258D03*
X1850000Y1418000D03*
%TO.N,/TX1*%
X1607160Y2446000D03*
X649000Y534000D03*
%TO.N,/TMS*%
X1899199Y2350503D03*
X1762184Y1494500D03*
%TO.N,/RX1*%
X720000Y459000D03*
X1579392Y2153288D03*
%TO.N,/~{RST}*%
X807000Y1348000D03*
X1940000Y1905000D03*
X1990123Y2362514D03*
%TO.N,/TX0*%
X1437500Y2180113D03*
X430000Y415000D03*
%TO.N,/HSTX_3_N*%
X1945164Y1675000D03*
X2017751Y1102751D03*
%TO.N,/HSTX_0_N*%
X1963781Y2155159D03*
X2185000Y1769500D03*
X1986329Y972853D03*
%TO.N,/HSTX_1_N*%
X2310000Y2240000D03*
X1980970Y727426D03*
%TO.N,/HSTX_1_P*%
X2310000Y2310000D03*
X2030467Y776924D03*
%TO.N,/HSTX_0_P*%
X2255000Y1769500D03*
X1914283Y2204657D03*
X2035826Y1022350D03*
%TO.N,/HSTX_2_P*%
X2066407Y914824D03*
X2121042Y1800000D03*
%TO.N,/HSTX_2_N*%
X2121042Y1730000D03*
X2066407Y844824D03*
%TO.N,/RX0*%
X490000Y385000D03*
X1527031Y2178898D03*
%TO.N,/HSTX_3_P*%
X2003763Y1706068D03*
X2067249Y1152249D03*
%TO.N,/TDO*%
X1842600Y1496702D03*
X1785000Y2376000D03*
%TO.N,/TCK*%
X1826324Y2176481D03*
X1766684Y1415904D03*
%TO.N,+2V5*%
X807000Y698000D03*
X1607000Y1018000D03*
X1207694Y459220D03*
X1607000Y1178000D03*
X567000Y855000D03*
X1032500Y55000D03*
X1447000Y618000D03*
X887000Y298000D03*
X567000Y1098000D03*
X2140000Y2248840D03*
X392500Y327500D03*
X317500Y2050000D03*
X1610000Y460000D03*
X647000Y218000D03*
X1827500Y2307500D03*
X102500Y2017500D03*
X1767000Y1338000D03*
X295000Y1255000D03*
X227500Y1082500D03*
X1764780Y212500D03*
X1527000Y538000D03*
X670000Y1975000D03*
X1127000Y538000D03*
X830000Y2327500D03*
X1285550Y1775506D03*
X487000Y298000D03*
X1450000Y1502500D03*
X1261708Y1915610D03*
X1127000Y1338000D03*
X42500Y2017500D03*
X1572000Y193000D03*
X2265679Y1623869D03*
X490000Y2075000D03*
X264821Y1491431D03*
X1140000Y1724000D03*
X1047000Y618000D03*
X1951000Y1423000D03*
X1679220Y1498100D03*
X1847000Y218000D03*
X2255023Y1070214D03*
X1724220Y1694220D03*
X1607000Y618000D03*
X1367000Y1338000D03*
X727470Y1416052D03*
X807000Y538000D03*
X1915108Y1731163D03*
X1527000Y1338000D03*
X567000Y538000D03*
X807000Y1098000D03*
X1427720Y92491D03*
X1607000Y1338000D03*
X437000Y71000D03*
X1847000Y618000D03*
X807000Y858000D03*
X1047000Y1258000D03*
X1607000Y1258000D03*
X1447000Y298000D03*
X887000Y1258000D03*
X1966425Y2057241D03*
X727000Y307734D03*
X1127000Y298000D03*
X1287500Y1570000D03*
X1607000Y778000D03*
X1847000Y858000D03*
X865720Y92156D03*
X674512Y89070D03*
X887000Y618000D03*
X1847000Y378000D03*
X375000Y1005000D03*
X967000Y538000D03*
X1367000Y538000D03*
X1847500Y1097500D03*
X1240720Y92156D03*
X1417204Y2326192D03*
%TO.N,/POR_EN*%
X1948637Y1501216D03*
%TO.N,Net-(U2B-IO_WA_B2{slash}CFG_DONE)*%
X1860187Y139209D03*
X1216734Y1098000D03*
%TO.N,/~{FLASH_CS}*%
X40000Y1945000D03*
X584840Y2120000D03*
%TO.N,/SER_CLK_P*%
X967000Y1498000D03*
%TO.N,/SER_CLK_N*%
X887000Y1498000D03*
%TO.N,/RX1_P*%
X1106884Y2453617D03*
%TO.N,Net-(U2A-GND{slash}SER_TX1_N)*%
X666752Y1680720D03*
%TO.N,Net-(R25-Pad2)*%
X487000Y1498000D03*
%TO.N,Net-(R27-Pad2)*%
X487000Y1258000D03*
%TO.N,Net-(U2A-GND{slash}SER_TX1_P)*%
X647000Y1578000D03*
%TO.N,Net-(U2G-NC{slash}VDD_SER)*%
X647000Y1255000D03*
%TO.N,/power_supply/PG_1V1*%
X80000Y2237000D03*
%TO.N,/K4*%
X779500Y50000D03*
%TO.N,/CFG_MD2{slash}IO_WA_A1*%
X2075306Y1522158D03*
%TO.N,/CFG_MD3{slash}IO_WA_B1*%
X2068758Y1580100D03*
%TO.N,Net-(J3-Pin_13)*%
X1687000Y1258000D03*
X2073426Y1472033D03*
%TO.N,Net-(J3-Pin_11)*%
X2077100Y1419780D03*
X1767000Y1258000D03*
%TO.N,/IO_N*%
X1687000Y538000D03*
%TO.N,/IO_P*%
X1767000Y538000D03*
%TO.N,/SDA0*%
X1444880Y375880D03*
X1288837Y370552D03*
%TO.N,/SCL0*%
X1530000Y458000D03*
%TO.N,/IMU_INT2*%
X1290000Y295000D03*
%TO.N,/IMU_INT1*%
X1535000Y378203D03*
%TO.N,/MIC_CLK*%
X487500Y627500D03*
%TO.N,Net-(JP1-A)*%
X390000Y865000D03*
%TO.N,/MIC_LR*%
X578962Y713962D03*
%TO.N,/SDA1*%
X568998Y930494D03*
%TO.N,/SDA2*%
X890000Y375000D03*
%TO.N,/SCL2*%
X810000Y377500D03*
%TO.N,/K5*%
X592000Y50000D03*
%TD*%
D61*
%TO.N,GND*%
X199000Y1256500D02*
X197500Y1255000D01*
X972000Y1675000D02*
X982720Y1685720D01*
X72120Y1557120D02*
X72120Y1782880D01*
D62*
X2069000Y671000D02*
X2117500Y622500D01*
D61*
X1796837Y50000D02*
X1807000Y50000D01*
X540000Y1852500D02*
X540000Y1820500D01*
X567000Y1577500D02*
X479500Y1665000D01*
X1367500Y1487500D02*
X1396000Y1459000D01*
X990000Y1615220D02*
X990000Y1657000D01*
X139240Y1850000D02*
X140000Y1850000D01*
X1153000Y1845000D02*
X1062000Y1936000D01*
X992759Y1615220D02*
X990000Y1615220D01*
X479500Y1665500D02*
X487000Y1658000D01*
X1363750Y1705000D02*
X1298803Y1705000D01*
X1032000Y1513000D02*
X1047000Y1498000D01*
D62*
X685000Y1780000D02*
X676000Y1789000D01*
D61*
X1158000Y1845000D02*
X1188080Y1845000D01*
X215000Y1488000D02*
X215000Y1435500D01*
X879500Y1417500D02*
X966500Y1417500D01*
X219500Y1202500D02*
X197500Y1224500D01*
D62*
X1371250Y265000D02*
X1400000Y265000D01*
D61*
X385000Y1247500D02*
X385000Y1260000D01*
X1476938Y1459000D02*
X1477558Y1459620D01*
X493500Y1424500D02*
X567000Y1498000D01*
X340000Y1202500D02*
X385000Y1247500D01*
X1027500Y1577500D02*
X1008720Y1596280D01*
X140000Y1850000D02*
X268000Y1978000D01*
X1059000Y463000D02*
X1059000Y526000D01*
X340000Y1202500D02*
X219500Y1202500D01*
X1252500Y1634500D02*
X1250000Y1637000D01*
X578000Y1577500D02*
X567000Y1577500D01*
X1057880Y2160250D02*
X1075000Y2160250D01*
X487000Y1658000D02*
X486000Y1657000D01*
X713207Y2451000D02*
X679207Y2417000D01*
X1158000Y1845000D02*
X1153000Y1845000D01*
D62*
X2032000Y671000D02*
X2069000Y671000D01*
D61*
X479500Y1760000D02*
X479500Y1665500D01*
X778000Y960000D02*
X809000Y991000D01*
X1250000Y1637000D02*
X1250000Y1658000D01*
D62*
X685000Y1742000D02*
X685000Y1780000D01*
D61*
X713000Y630000D02*
X725000Y618000D01*
X1032000Y1577500D02*
X1027500Y1577500D01*
X1182750Y2160250D02*
X1075000Y2160250D01*
X1786840Y40003D02*
X1796837Y50000D01*
X645000Y2561000D02*
X645000Y2625000D01*
X843000Y2455000D02*
X850000Y2462000D01*
X72120Y1782880D02*
X139240Y1850000D01*
X1032000Y1577500D02*
X1032000Y1513000D01*
X1621000Y1106000D02*
X1607500Y1106000D01*
X199500Y1420000D02*
X199500Y1328000D01*
X215000Y1435500D02*
X199500Y1420000D01*
X1050000Y1348000D02*
X959500Y1257500D01*
X1607500Y1402500D02*
X1607500Y1415000D01*
X124240Y1505000D02*
X117120Y1512120D01*
X1298803Y1705000D02*
X1285771Y1691968D01*
X554500Y307913D02*
X561151Y301261D01*
X140000Y1850000D02*
X140000Y1849793D01*
X1396000Y1459000D02*
X1476938Y1459000D01*
X1008720Y1596280D02*
X1008720Y1599259D01*
X1367500Y1502500D02*
X1367500Y1487500D01*
X1059000Y526000D02*
X1047000Y538000D01*
X1126000Y217000D02*
X1127000Y218000D01*
D62*
X685000Y1742000D02*
X655000Y1742000D01*
D61*
X1144222Y2121722D02*
X1137278Y2121722D01*
X795000Y630000D02*
X807000Y618000D01*
X808000Y1167266D02*
X808000Y1160000D01*
X498000Y475000D02*
X498000Y527000D01*
X1682500Y1164500D02*
X1679500Y1164500D01*
X554500Y418500D02*
X498000Y475000D01*
X117120Y1512120D02*
X72120Y1557120D01*
X782000Y2455000D02*
X843000Y2455000D01*
D62*
X2289500Y2425500D02*
X2290000Y2425000D01*
D61*
X199000Y1327500D02*
X199000Y1256500D01*
X1040250Y2177880D02*
X1057880Y2160250D01*
D62*
X1400000Y265000D02*
X1447000Y218000D01*
D61*
X667000Y960000D02*
X778000Y960000D01*
D62*
X727500Y1719500D02*
X705000Y1742000D01*
D61*
X1020000Y439000D02*
X1044000Y463000D01*
X982720Y1944780D02*
X975000Y1952500D01*
D62*
X705000Y1742000D02*
X685000Y1742000D01*
D61*
X199500Y1328000D02*
X199000Y1327500D01*
X990000Y1657000D02*
X972000Y1675000D01*
X807000Y1168266D02*
X808000Y1167266D01*
X667000Y630000D02*
X713000Y630000D01*
X1008720Y1599259D02*
X992759Y1615220D01*
X540000Y1820500D02*
X479500Y1760000D01*
X1477558Y1459620D02*
X1479120Y1459620D01*
X1062000Y1936000D02*
X991500Y1936000D01*
X1479120Y1459620D02*
X1517000Y1497500D01*
X1050000Y1367500D02*
X1050000Y1348000D01*
D62*
X2170000Y2425500D02*
X2289500Y2425500D01*
D61*
X554500Y392500D02*
X554500Y307913D01*
X487500Y1424500D02*
X493500Y1424500D01*
X750000Y2451000D02*
X713207Y2451000D01*
X486000Y1657000D02*
X486000Y1564000D01*
X1182750Y2160250D02*
X1144222Y2121722D01*
X268000Y1978000D02*
X268000Y2007000D01*
X966500Y1417500D02*
X967000Y1418000D01*
X1605500Y1404500D02*
X1607500Y1402500D01*
X198000Y1505000D02*
X215000Y1488000D01*
X1679500Y1164500D02*
X1621000Y1106000D01*
X198000Y1505000D02*
X124240Y1505000D01*
X1525000Y1404500D02*
X1605500Y1404500D01*
X554500Y392500D02*
X554500Y418500D01*
X1060000Y217000D02*
X1126000Y217000D01*
X1044000Y463000D02*
X1059000Y463000D01*
X498000Y527000D02*
X487000Y538000D01*
D62*
X1371250Y315000D02*
X1371250Y293750D01*
X1371250Y293750D02*
X1447000Y218000D01*
D61*
X197500Y1224500D02*
X197500Y1255000D01*
X991500Y1936000D02*
X975000Y1952500D01*
X1040250Y2289750D02*
X1040250Y2177880D01*
X1188080Y1845000D02*
X1200000Y1833080D01*
%TO.N,VBUS*%
X1164368Y1936000D02*
X1225368Y1997000D01*
X1158000Y1936000D02*
X1164368Y1936000D01*
X1158000Y1936000D02*
X1158000Y1928000D01*
X1158000Y1928000D02*
X1150000Y1920000D01*
%TO.N,/USB_DP*%
X1399880Y1902620D02*
X1442701Y1902620D01*
X1458795Y2073787D02*
X1441287Y2073787D01*
X1482380Y2050201D02*
X1458795Y2073787D01*
X1442701Y1902620D02*
X1482380Y1942299D01*
X1363750Y1905000D02*
X1397500Y1905000D01*
X1482380Y1942299D02*
X1482380Y2050201D01*
X1441287Y2073787D02*
X1448473Y2066600D01*
X1397500Y1905000D02*
X1399880Y1902620D01*
%TO.N,/SCL1*%
X524720Y1065205D02*
X487222Y1027706D01*
X607979Y1220021D02*
X550021Y1220021D01*
X550021Y1220021D02*
X524720Y1194720D01*
X524720Y1194720D02*
X524720Y1065205D01*
X660500Y1167500D02*
X607979Y1220021D01*
%TO.N,Net-(U1-XIN)*%
X2051250Y2025000D02*
X2119500Y2025000D01*
X2119500Y2025000D02*
X2167000Y2072500D01*
%TO.N,Net-(U1-XOUT)*%
X2235120Y2009880D02*
X2284000Y1961000D01*
X2051250Y1985000D02*
X2135527Y1985000D01*
X2160407Y2009880D02*
X2235120Y2009880D01*
X2135527Y1985000D02*
X2160407Y2009880D01*
%TO.N,/CC_CFG_CTRL_RECFG*%
X1587500Y1660500D02*
X1565000Y1683000D01*
X1587500Y1601250D02*
X1587500Y1660500D01*
%TO.N,/GPIO23_GPOUT1*%
X1030027Y1424000D02*
X1481795Y1424000D01*
X1804720Y1512392D02*
X1804720Y1493000D01*
X1523380Y1445380D02*
X1534880Y1456880D01*
X967000Y1360973D02*
X1030027Y1424000D01*
X1503175Y1445380D02*
X1523380Y1445380D01*
X1779450Y1456880D02*
X1805000Y1482429D01*
X1534880Y1456880D02*
X1779450Y1456880D01*
X1481795Y1424000D02*
X1503175Y1445380D01*
X1805000Y1482429D02*
X1805000Y1493000D01*
X1827500Y1601250D02*
X1827500Y1535172D01*
X967000Y1338000D02*
X967000Y1360973D01*
X1827500Y1535172D02*
X1804720Y1512392D01*
%TO.N,/CC_CFG_CTRL_EN*%
X1601093Y1501827D02*
X1607000Y1501827D01*
X1643344Y1535880D02*
X1782690Y1535880D01*
X1609271Y1499556D02*
X1609271Y1501807D01*
X1609271Y1501807D02*
X1643344Y1535880D01*
X1782690Y1535880D02*
X1787500Y1540689D01*
X1597266Y1498000D02*
X1601093Y1501827D01*
X1787500Y1540689D02*
X1787500Y1601250D01*
X1607000Y1501827D02*
X1609271Y1499556D01*
%TO.N,/TX2_P*%
X1425000Y2551000D02*
X1425000Y2476000D01*
X1425000Y2476000D02*
X1417620Y2468620D01*
X1417620Y2443620D02*
X1338000Y2364000D01*
X1417620Y2468620D02*
X1417620Y2443620D01*
%TO.N,/CC_CFG_CTRL_CLK*%
X1730000Y1197500D02*
X1730000Y1045266D01*
X1905980Y1349980D02*
X1851880Y1295880D01*
X1710000Y1217500D02*
X1730000Y1197500D01*
X1660000Y1217500D02*
X1710000Y1217500D01*
X1730000Y1045266D02*
X1757266Y1018000D01*
X1649120Y1273691D02*
X1649120Y1228380D01*
X1851880Y1295880D02*
X1671309Y1295880D01*
X1947500Y1557500D02*
X1905980Y1515980D01*
X1905980Y1515980D02*
X1905980Y1349980D01*
X1671309Y1295880D02*
X1649120Y1273691D01*
X1947500Y1601250D02*
X1947500Y1557500D01*
X1649120Y1228380D02*
X1660000Y1217500D01*
%TO.N,/CC_CFG_CTRL_VALID*%
X1805120Y1398216D02*
X1782624Y1375720D01*
X1731698Y1375720D02*
X1688983Y1418434D01*
X1782624Y1375720D02*
X1731698Y1375720D01*
X1827309Y1455880D02*
X1805120Y1433690D01*
X1880480Y1477669D02*
X1858690Y1455880D01*
X1880480Y1514690D02*
X1880480Y1477669D01*
X1867500Y1527670D02*
X1880480Y1514690D01*
X1858690Y1455880D02*
X1827309Y1455880D01*
X1867500Y1601250D02*
X1867500Y1527670D01*
X1805120Y1433690D02*
X1805120Y1398216D01*
%TO.N,Net-(U2H-POR_ADJ)*%
X636000Y1852500D02*
X636000Y1919000D01*
X765380Y1753639D02*
X765380Y1672373D01*
X636000Y1852500D02*
X666519Y1852500D01*
X765380Y1672373D02*
X753894Y1660887D01*
X666519Y1852500D02*
X765380Y1753639D01*
X636000Y1919000D02*
X617500Y1937500D01*
%TO.N,/power_supply/PG_2V5*%
X1020000Y1727500D02*
X1020000Y1646753D01*
X910000Y1837500D02*
X1020000Y1727500D01*
X1040473Y1626280D02*
X1095527Y1626280D01*
X795000Y2070192D02*
X910000Y1955192D01*
X1095527Y1626280D02*
X1152339Y1683092D01*
X1204000Y1722076D02*
X1204000Y1771896D01*
X1152339Y1683092D02*
X1165016Y1683092D01*
X1165016Y1683092D02*
X1204000Y1722076D01*
X1020000Y1646753D02*
X1040473Y1626280D01*
X910000Y1955192D02*
X910000Y1837500D01*
%TO.N,/TX2_N*%
X1375000Y2551000D02*
X1375000Y2520000D01*
X1382380Y2458217D02*
X1348163Y2424000D01*
X1375000Y2551000D02*
X1375000Y2476000D01*
X1375000Y2476000D02*
X1382380Y2468620D01*
X1348163Y2424000D02*
X1338000Y2424000D01*
X1382380Y2468620D02*
X1382380Y2458217D01*
%TO.N,/RUN*%
X242000Y285000D02*
X242000Y399000D01*
X1944248Y1825000D02*
X1851248Y1732000D01*
X1851248Y1732000D02*
X1513000Y1732000D01*
X2051250Y1825000D02*
X1944248Y1825000D01*
X242000Y399000D02*
X248000Y405000D01*
%TO.N,+1V1*%
X1480000Y1835000D02*
X1440000Y1835000D01*
X1497500Y1817500D02*
X1480000Y1835000D01*
X717874Y1330000D02*
X725000Y1330000D01*
X1667500Y1680141D02*
X1667500Y1601250D01*
X1627500Y2288750D02*
X1627500Y2352500D01*
X1674243Y1686884D02*
X1667500Y1680141D01*
X717000Y1305000D02*
X717000Y1329126D01*
X675256Y1305000D02*
X645776Y1334480D01*
X1674243Y1687477D02*
X1674243Y1686884D01*
X567000Y1751500D02*
X575500Y1760000D01*
X2051250Y1945000D02*
X1985000Y1945000D01*
X567000Y1658000D02*
X567000Y1751500D01*
X717000Y1329126D02*
X717874Y1330000D01*
X1667500Y1694220D02*
X1674243Y1687477D01*
X1627500Y2352500D02*
X1625000Y2355000D01*
X1430000Y1825000D02*
X1363750Y1825000D01*
X1440000Y1835000D02*
X1430000Y1825000D01*
X717000Y1305000D02*
X675256Y1305000D01*
%TO.N,/USB_DN*%
X1397500Y1865000D02*
X1399880Y1867380D01*
X1517620Y2064798D02*
X1483713Y2098705D01*
X1517620Y1927701D02*
X1517620Y2064798D01*
X1457299Y1867380D02*
X1517620Y1927701D01*
X1363750Y1865000D02*
X1397500Y1865000D01*
X1399880Y1867380D02*
X1457299Y1867380D01*
X1483713Y2098705D02*
X1483713Y2116213D01*
%TO.N,/RX1_N*%
X954380Y2411315D02*
X1005315Y2360380D01*
X982380Y2512620D02*
X982380Y2495058D01*
X1131803Y2411191D02*
X1149311Y2411191D01*
X1080992Y2360380D02*
X1131803Y2411191D01*
X982380Y2495058D02*
X954380Y2467058D01*
X1005315Y2360380D02*
X1080992Y2360380D01*
X975000Y2520000D02*
X982380Y2512620D01*
X975000Y2551000D02*
X975000Y2520000D01*
X954380Y2467058D02*
X954380Y2411315D01*
%TO.N,+3V3*%
X1468000Y1707902D02*
X1449839Y1689742D01*
X1463258Y1689742D02*
X1449839Y1689742D01*
X1363750Y1785000D02*
X1418173Y1785000D01*
X1062000Y1827000D02*
X1062000Y1845000D01*
X1167266Y1608000D02*
X1197266Y1578000D01*
X1420000Y1945000D02*
X1363750Y1945000D01*
X1098000Y1801129D02*
X1097694Y1800823D01*
X1418173Y1785000D02*
X1468000Y1735173D01*
X1062000Y1845000D02*
X1098000Y1809000D01*
X1467500Y1601250D02*
X1467500Y1685500D01*
X1467500Y1685500D02*
X1463258Y1689742D01*
X1440000Y1965000D02*
X1420000Y1945000D01*
X1468000Y1735173D02*
X1468000Y1707902D01*
X1157500Y1608000D02*
X1167266Y1608000D01*
X1098000Y1809000D02*
X1098000Y1801129D01*
%TO.N,Net-(U1-VREG_AVDD)*%
X1223000Y1506000D02*
X1249000Y1480000D01*
X1157500Y1506000D02*
X1223000Y1506000D01*
X1352500Y1637500D02*
X1352500Y1564500D01*
X1352500Y1564500D02*
X1268000Y1480000D01*
X1363750Y1648750D02*
X1352500Y1637500D01*
X1363750Y1665000D02*
X1363750Y1648750D01*
X1268000Y1480000D02*
X1249000Y1480000D01*
X1249000Y1480000D02*
X1261000Y1492000D01*
%TO.N,/TDI*%
X1747500Y2288750D02*
X1747500Y2190381D01*
X1888968Y2132720D02*
X1905506Y2149258D01*
X1747500Y2190381D02*
X1805161Y2132720D01*
X1805161Y2132720D02*
X1888968Y2132720D01*
%TO.N,/TX1*%
X1667500Y2395340D02*
X1667500Y2288750D01*
X1607160Y2446000D02*
X1616840Y2446000D01*
X1616840Y2446000D02*
X1667500Y2395340D01*
%TO.N,/TMS*%
X1907500Y2342202D02*
X1907500Y2288750D01*
X1899199Y2350503D02*
X1907500Y2342202D01*
%TO.N,/RX1*%
X1707500Y2288750D02*
X1707500Y2242500D01*
X1707500Y2242500D02*
X1604593Y2139593D01*
X1593086Y2139593D02*
X1579392Y2153288D01*
X1604593Y2139593D02*
X1593086Y2139593D01*
%TO.N,/~{RST}*%
X1974859Y2359213D02*
X1947500Y2331854D01*
X708455Y1370144D02*
X784856Y1370144D01*
X681562Y1454062D02*
X681562Y1397036D01*
X1990123Y2362514D02*
X1986823Y2359213D01*
X681562Y1397036D02*
X708455Y1370144D01*
X1986823Y2359213D02*
X1974859Y2359213D01*
X1947500Y2331854D02*
X1947500Y2288750D01*
X784856Y1370144D02*
X807000Y1348000D01*
X727500Y1500000D02*
X681562Y1454062D01*
%TO.N,/TX0*%
X1455000Y2178000D02*
X1467500Y2190500D01*
X1440967Y2178000D02*
X1455000Y2178000D01*
X1438212Y2180373D02*
X1438594Y2180373D01*
X1467500Y2190500D02*
X1467500Y2288750D01*
X1437952Y2180113D02*
X1438212Y2180373D01*
X1437500Y2180113D02*
X1437952Y2180113D01*
X1438594Y2180373D02*
X1440967Y2178000D01*
%TO.N,/HSTX_3_N*%
X1964376Y1667280D02*
X1967720Y1667280D01*
X1967720Y1667280D02*
X1987500Y1647500D01*
X1956656Y1675000D02*
X1964376Y1667280D01*
X1987500Y1647500D02*
X1987500Y1601250D01*
X1945164Y1675000D02*
X1956656Y1675000D01*
%TO.N,/HSTX_0_N*%
X2170630Y932380D02*
X2130158Y972853D01*
X1973075Y2181682D02*
X1963781Y2172387D01*
X2269370Y932380D02*
X2170630Y932380D01*
X2032429Y2179562D02*
X2030309Y2181682D01*
X2320022Y1835409D02*
X2354275Y1801156D01*
X2185000Y1769500D02*
X2250909Y1835409D01*
X2130158Y972853D02*
X1986329Y972853D01*
X1963781Y2172387D02*
X1963781Y2155159D01*
X2354275Y1801156D02*
X2354275Y1467285D01*
X2352620Y1015630D02*
X2269370Y932380D01*
X2030309Y2181682D02*
X1973075Y2181682D01*
X2262620Y1241370D02*
X2352620Y1151370D01*
X2262620Y1375630D02*
X2262620Y1241370D01*
X2352620Y1151370D02*
X2352620Y1015630D01*
X2051250Y2179562D02*
X2032429Y2179562D01*
X2354275Y1467285D02*
X2262620Y1375630D01*
X2250909Y1835409D02*
X2320022Y1835409D01*
%TO.N,/HSTX_1_N*%
X2297620Y2252380D02*
X2293755Y2252380D01*
X2053870Y2102380D02*
X2051250Y2105000D01*
X2139407Y2121380D02*
X2120407Y2102380D01*
X2120407Y2102380D02*
X2053870Y2102380D01*
X2162755Y2121380D02*
X2139407Y2121380D01*
X2293755Y2252380D02*
X2162755Y2121380D01*
X2310000Y2240000D02*
X2297620Y2252380D01*
%TO.N,/HSTX_1_P*%
X2124934Y2147818D02*
X2072691Y2147818D01*
X2070071Y2150438D02*
X2051250Y2150438D01*
X2072691Y2147818D02*
X2070071Y2150438D01*
X2274736Y2297620D02*
X2124934Y2147818D01*
X2310000Y2310000D02*
X2297620Y2297620D01*
X2297620Y2297620D02*
X2274736Y2297620D01*
%TO.N,/HSTX_0_P*%
X2189370Y977620D02*
X2148897Y1018093D01*
X2255000Y1769500D02*
X2255000Y1775521D01*
X2307380Y1034370D02*
X2250630Y977620D01*
X2269648Y1790169D02*
X2301283Y1790169D01*
X2307380Y1132630D02*
X2307380Y1034370D01*
X2301283Y1790169D02*
X2309035Y1782417D01*
X2040084Y1018093D02*
X2035826Y1022350D01*
X1954254Y2227120D02*
X1931791Y2204657D01*
X2049130Y2227120D02*
X1954254Y2227120D01*
X2309035Y1486024D02*
X2217380Y1394370D01*
X2217380Y1394370D02*
X2217380Y1222630D01*
X1931791Y2204657D02*
X1914283Y2204657D01*
X2255000Y1775521D02*
X2269648Y1790169D01*
X2250630Y977620D02*
X2189370Y977620D01*
X2051250Y2225000D02*
X2049130Y2227120D01*
X2309035Y1782417D02*
X2309035Y1486024D01*
X2217380Y1222630D02*
X2307380Y1132630D01*
X2148897Y1018093D02*
X2040084Y1018093D01*
%TO.N,/HSTX_2_P*%
X2108662Y1787620D02*
X2121042Y1800000D01*
X2053870Y1787620D02*
X2108662Y1787620D01*
X2051250Y1785000D02*
X2053870Y1787620D01*
%TO.N,/HSTX_2_N*%
X2053870Y1742380D02*
X2108662Y1742380D01*
X2108662Y1742380D02*
X2121042Y1730000D01*
X2051250Y1745000D02*
X2053870Y1742380D01*
%TO.N,/RX0*%
X1507500Y2202500D02*
X1527031Y2182969D01*
X1527031Y2182969D02*
X1527031Y2178898D01*
X1507500Y2288750D02*
X1507500Y2202500D01*
%TO.N,/HSTX_3_P*%
X2003763Y1706068D02*
X2004831Y1705000D01*
X2004831Y1705000D02*
X2051250Y1705000D01*
%TO.N,/TDO*%
X1787500Y2288750D02*
X1787500Y2373500D01*
X1787500Y2373500D02*
X1785000Y2376000D01*
%TO.N,/TCK*%
X1867500Y2288750D02*
X1867500Y2241905D01*
X1853523Y2207831D02*
X1834692Y2189000D01*
X1834692Y2184849D02*
X1826324Y2176481D01*
X1853523Y2227928D02*
X1853523Y2207831D01*
X1867500Y2241905D02*
X1853523Y2227928D01*
X1834692Y2189000D02*
X1834692Y2184849D01*
%TO.N,+2V5*%
X2151750Y1631250D02*
X2222000Y1561000D01*
X281500Y1505000D02*
X262000Y1505000D01*
D63*
X590570Y1980460D02*
X664540Y1980460D01*
D61*
X1827500Y2307500D02*
X1827500Y2288750D01*
X562000Y533000D02*
X567000Y538000D01*
X1724220Y1694220D02*
X1724220Y1689220D01*
X2017000Y1475000D02*
X1965000Y1423000D01*
X562000Y475000D02*
X562000Y533000D01*
X343000Y1505000D02*
X262000Y1505000D01*
X295500Y1420000D02*
X295500Y1328000D01*
X1682500Y1085500D02*
X1615000Y1018000D01*
X1716500Y85000D02*
X1716500Y117860D01*
X300000Y1523500D02*
X281500Y1505000D01*
X2170000Y2259199D02*
X2170000Y2329500D01*
X262000Y1505000D02*
X279000Y1488000D01*
D62*
X1207694Y452960D02*
X1205000Y450266D01*
D61*
X650500Y384234D02*
X727000Y307734D01*
X265277Y1491887D02*
X265277Y1513277D01*
X1974184Y2065000D02*
X1966425Y2057241D01*
X890000Y301000D02*
X887000Y298000D01*
X650500Y392500D02*
X650500Y384234D01*
X1716500Y117860D02*
X1743120Y144480D01*
X420000Y960000D02*
X375000Y1005000D01*
D63*
X1160000Y265000D02*
X1127000Y298000D01*
D61*
X1142000Y1768493D02*
X1140000Y1766493D01*
X1707500Y1672500D02*
X1707500Y1601250D01*
X1637000Y310000D02*
X1637000Y250000D01*
X389500Y327500D02*
X312000Y405000D01*
D62*
X1068000Y1675000D02*
X1068000Y1706000D01*
D61*
X1417204Y2299046D02*
X1417204Y2326192D01*
X2175780Y1098018D02*
X2203584Y1070214D01*
X1965000Y1423000D02*
X1951000Y1423000D01*
X852500Y2359000D02*
X852500Y2350000D01*
X2203584Y1070214D02*
X2255023Y1070214D01*
D63*
X1188750Y265000D02*
X1160000Y265000D01*
D61*
X865000Y2354000D02*
X871000Y2360000D01*
X2222000Y1561000D02*
X2222000Y1580191D01*
X239500Y1070500D02*
X270000Y1070500D01*
X880000Y2305000D02*
X865000Y2320000D01*
X1764780Y192350D02*
X1764780Y212500D01*
X1637000Y310000D02*
X1637000Y370000D01*
X2085000Y1631250D02*
X2151750Y1631250D01*
X870000Y2359000D02*
X871000Y2360000D01*
X2222000Y1580191D02*
X2265679Y1623869D01*
X865000Y2320000D02*
X865000Y2354000D01*
X265277Y1513277D02*
X300000Y1548000D01*
X2051250Y2065000D02*
X1974184Y2065000D01*
D63*
X553500Y1943390D02*
X590570Y1980460D01*
D61*
X350000Y285000D02*
X392500Y327500D01*
X433000Y960000D02*
X420000Y960000D01*
D62*
X495500Y85000D02*
X451000Y85000D01*
D61*
X415500Y1360500D02*
X415000Y1360000D01*
X415000Y1360000D02*
X327500Y1360000D01*
X1306840Y1985000D02*
X1363750Y1985000D01*
X815500Y1417500D02*
X728919Y1417500D01*
X1447000Y320500D02*
X1447000Y298000D01*
X279000Y1488000D02*
X279000Y1436500D01*
X728919Y1417500D02*
X727470Y1416052D01*
X1743120Y170691D02*
X1764780Y192350D01*
X279000Y1436500D02*
X295500Y1420000D01*
D62*
X1068000Y1706000D02*
X1086000Y1724000D01*
D61*
X782000Y2359000D02*
X852500Y2359000D01*
X300000Y1610000D02*
X300000Y1523500D01*
X852500Y2350000D02*
X830000Y2327500D01*
D62*
X1086000Y1724000D02*
X1140000Y1724000D01*
D61*
X2017000Y1630750D02*
X2017000Y1495000D01*
X1402500Y365000D02*
X1447000Y320500D01*
X1637000Y370000D02*
X1652000Y385000D01*
X817500Y444500D02*
X867500Y444500D01*
X264821Y1491431D02*
X265277Y1491887D01*
D62*
X1207694Y459220D02*
X1207694Y452960D01*
D61*
X1427500Y1601250D02*
X1427500Y1525000D01*
X1724220Y1689220D02*
X1707500Y1672500D01*
X644500Y392500D02*
X562000Y475000D01*
X2017000Y1495000D02*
X2017000Y1475000D01*
X2051250Y1665000D02*
X2085000Y1631250D01*
X1682500Y1100500D02*
X1682500Y1085500D01*
X2222000Y1561000D02*
X2222000Y1490000D01*
X227500Y1082500D02*
X239500Y1070500D01*
X650500Y392500D02*
X644500Y392500D01*
X1140000Y1766493D02*
X1140000Y1724000D01*
X1127000Y1338000D02*
X1138500Y1338000D01*
X1427500Y2288750D02*
X1417204Y2299046D01*
X2159640Y2248840D02*
X2170000Y2259199D01*
X871000Y2360000D02*
X871000Y2395000D01*
X981000Y524000D02*
X967000Y538000D01*
X1112000Y313000D02*
X1127000Y298000D01*
X2140000Y2248840D02*
X2159640Y2248840D01*
D62*
X1205000Y450266D02*
X1205000Y431250D01*
D61*
X1060000Y313000D02*
X1112000Y313000D01*
X1652000Y385000D02*
X1652000Y418000D01*
X852500Y2359000D02*
X870000Y2359000D01*
X1637000Y250000D02*
X1592000Y205000D01*
X392500Y327500D02*
X389500Y327500D01*
X981000Y463000D02*
X981000Y524000D01*
X871000Y2395000D02*
X871000Y2406000D01*
D63*
X553500Y1937500D02*
X553500Y1943390D01*
D61*
X350000Y219000D02*
X350000Y285000D01*
X1138500Y1338000D02*
X1165500Y1365000D01*
X487500Y1360500D02*
X415500Y1360500D01*
X433000Y960000D02*
X462000Y960000D01*
X2222000Y1490000D02*
X2175780Y1443780D01*
D62*
X451000Y85000D02*
X437000Y71000D01*
D61*
X2051250Y1665000D02*
X2017000Y1630750D01*
X1652000Y418000D02*
X1610000Y460000D01*
X889000Y463000D02*
X887500Y464500D01*
D63*
X664540Y1980460D02*
X670000Y1975000D01*
D61*
X2175780Y1443780D02*
X2175780Y1098018D01*
X867500Y444500D02*
X887500Y464500D01*
X1371250Y365000D02*
X1402500Y365000D01*
X1427500Y1525000D02*
X1450000Y1502500D01*
X1743120Y144480D02*
X1743120Y170691D01*
X327500Y1360000D02*
X295000Y1327500D01*
X981000Y463000D02*
X889000Y463000D01*
X1261708Y1939868D02*
X1261708Y1915610D01*
X295500Y1328000D02*
X295000Y1327500D01*
X295000Y1327500D02*
X295000Y1255000D01*
X1306840Y1985000D02*
X1261708Y1939868D01*
X1355000Y198750D02*
X1355000Y165211D01*
X1355000Y165211D02*
X1427720Y92491D01*
X300000Y1548000D02*
X300000Y1610000D01*
%TO.N,/~{FLASH_CS}*%
X325000Y930000D02*
X28000Y1227000D01*
X1222750Y2310250D02*
X1308000Y2225000D01*
X663407Y2308836D02*
X667880Y2313310D01*
X325000Y630000D02*
X325000Y930000D01*
X608000Y2120000D02*
X663407Y2175407D01*
X387780Y397220D02*
X387780Y567220D01*
X584840Y2120000D02*
X608000Y2120000D01*
X387780Y567220D02*
X325000Y630000D01*
X350000Y155000D02*
X390000Y155000D01*
X900000Y2405000D02*
X972030Y2332970D01*
X972030Y2332970D02*
X1097030Y2332970D01*
X1097030Y2332970D02*
X1119750Y2310250D01*
X871759Y2502720D02*
X900000Y2474479D01*
X430380Y354620D02*
X387780Y397220D01*
X1189750Y2310250D02*
X1222750Y2310250D01*
X667880Y2313310D02*
X667880Y2365905D01*
X625000Y2408785D02*
X625000Y2430000D01*
X667880Y2365905D02*
X625000Y2408785D01*
X625000Y2430000D02*
X697720Y2502720D01*
X663407Y2175407D02*
X663407Y2308836D01*
X28000Y1933000D02*
X40000Y1945000D01*
X272000Y155000D02*
X242000Y185000D01*
X697720Y2502720D02*
X871759Y2502720D01*
X1119750Y2310250D02*
X1182750Y2310250D01*
X390000Y155000D02*
X430380Y195380D01*
X350000Y155000D02*
X272000Y155000D01*
X28000Y1227000D02*
X28000Y1933000D01*
X900000Y2474479D02*
X900000Y2405000D01*
X1308000Y2225000D02*
X1363750Y2225000D01*
X430380Y195380D02*
X430380Y354620D01*
%TO.N,/FLASH_S1*%
X1296000Y2185000D02*
X1363750Y2185000D01*
X1220750Y2260250D02*
X1296000Y2185000D01*
X1189750Y2260250D02*
X1220750Y2260250D01*
%TO.N,/FLASH_CLK*%
X934202Y2044500D02*
X982044Y2044500D01*
X1199820Y2067860D02*
X1260180Y2067860D01*
X1102681Y2044500D02*
X1176460Y2044500D01*
X1176460Y2044500D02*
X1199820Y2067860D01*
X834870Y2143832D02*
X934202Y2044500D01*
X1014504Y2012040D02*
X1070221Y2012040D01*
X852750Y2210250D02*
X834870Y2192370D01*
X982044Y2044500D02*
X1014504Y2012040D01*
X1260180Y2067860D02*
X1263040Y2065000D01*
X1070221Y2012040D02*
X1102681Y2044500D01*
X897750Y2210250D02*
X852750Y2210250D01*
X1263040Y2065000D02*
X1363750Y2065000D01*
X834870Y2192370D02*
X834870Y2143832D01*
%TO.N,/FLASH_S2*%
X1229750Y2210250D02*
X1182750Y2210250D01*
X1295000Y2145000D02*
X1229750Y2210250D01*
X1363750Y2145000D02*
X1295000Y2145000D01*
%TO.N,/FLASH_S3*%
X809370Y2216870D02*
X809370Y2132620D01*
X1080676Y1986800D02*
X1112876Y2019000D01*
X809370Y2132620D02*
X922990Y2019000D01*
X1186655Y2019000D02*
X1210275Y2042620D01*
X1267345Y2025000D02*
X1363750Y2025000D01*
X999465Y1986800D02*
X1080676Y1986800D01*
X1112876Y2019000D02*
X1186655Y2019000D01*
X1249725Y2042620D02*
X1267345Y2025000D01*
X852750Y2260250D02*
X809370Y2216870D01*
X922990Y2019000D02*
X967265Y2019000D01*
X967265Y2019000D02*
X999465Y1986800D01*
X897750Y2260250D02*
X852750Y2260250D01*
X1210275Y2042620D02*
X1249725Y2042620D01*
%TO.N,/SER_CLK_P*%
X356021Y1850000D02*
X300000Y1850000D01*
X739370Y2072620D02*
X543092Y2072620D01*
X462380Y1991908D02*
X462380Y1956359D01*
X847620Y1744370D02*
X847620Y1964370D01*
X967000Y1498000D02*
X907508Y1557492D01*
X902120Y1689870D02*
X847620Y1744370D01*
X315000Y1850000D02*
X300000Y1850000D01*
X907508Y1557492D02*
X907508Y1634473D01*
X907508Y1634473D02*
X902120Y1639860D01*
X543092Y2072620D02*
X462380Y1991908D01*
X902120Y1639860D02*
X902120Y1689870D01*
X847620Y1964370D02*
X739370Y2072620D01*
X462380Y1956359D02*
X356021Y1850000D01*
%TO.N,/SER_CLK_N*%
X802380Y1945630D02*
X802380Y1725630D01*
X315000Y1730000D02*
X300000Y1730000D01*
X856682Y1630710D02*
X856682Y1671128D01*
X507620Y1973169D02*
X561831Y2027380D01*
X507620Y1937620D02*
X507620Y1973169D01*
X561831Y2027380D02*
X720630Y2027380D01*
X720630Y2027380D02*
X802380Y1945630D01*
X887000Y1498000D02*
X887000Y1514021D01*
X300000Y1730000D02*
X507620Y1937620D01*
X887000Y1514021D02*
X862268Y1538753D01*
X802380Y1725630D02*
X856882Y1671128D01*
X862268Y1538753D02*
X862268Y1630710D01*
%TO.N,Net-(U1-SWD)*%
X2372280Y1865000D02*
X2372280Y1875000D01*
X2051250Y1865000D02*
X2372280Y1865000D01*
%TO.N,Net-(U1-SWCLK)*%
X2051250Y1905000D02*
X2163000Y1905000D01*
X2372280Y1952280D02*
X2372280Y2075000D01*
X2312120Y1892120D02*
X2372280Y1952280D01*
X2163000Y1905000D02*
X2175880Y1892120D01*
X2175880Y1892120D02*
X2312120Y1892120D01*
%TO.N,/RX1_P*%
X989620Y2452461D02*
X989620Y2425299D01*
X1025000Y2520000D02*
X1017620Y2512620D01*
X1025000Y2551000D02*
X1025000Y2520000D01*
X989620Y2425299D02*
X1019299Y2395620D01*
X1066395Y2395620D02*
X1106884Y2436109D01*
X1019299Y2395620D02*
X1066395Y2395620D01*
X1017620Y2512620D02*
X1017620Y2480461D01*
X1017620Y2480461D02*
X989620Y2452461D01*
%TO.N,Net-(R25-Pad2)*%
X415000Y1435000D02*
X415000Y1424000D01*
X480000Y1500000D02*
X415000Y1435000D01*
X486000Y1500000D02*
X480000Y1500000D01*
%TO.N,Net-(R27-Pad2)*%
X487000Y1258000D02*
X487000Y1240500D01*
X385000Y1138500D02*
X340000Y1138500D01*
X340000Y1138500D02*
X274000Y1138500D01*
X274000Y1138500D02*
X270000Y1134500D01*
X487000Y1240500D02*
X385000Y1138500D01*
%TO.N,Net-(U2G-NC{slash}VDD_SER)*%
X717000Y1241000D02*
X661000Y1241000D01*
X661000Y1241000D02*
X647000Y1255000D01*
%TO.N,/power_supply/PG_1V1*%
X85500Y2242500D02*
X80000Y2237000D01*
X165000Y2242500D02*
X85500Y2242500D01*
%TO.N,Net-(U8-FB)*%
X442000Y2040000D02*
X442000Y2035000D01*
X470000Y2153000D02*
X450000Y2153000D01*
X445000Y2043000D02*
X442000Y2040000D01*
X470000Y2153000D02*
X470000Y2152500D01*
X260000Y2195000D02*
X310000Y2195000D01*
X337720Y2167280D02*
X342120Y2162880D01*
X505000Y2152500D02*
X527500Y2175000D01*
X342120Y2162880D02*
X435120Y2162880D01*
X445000Y2153000D02*
X470000Y2153000D01*
X318780Y2185473D02*
X336973Y2167280D01*
X470000Y2152500D02*
X505000Y2152500D01*
X435120Y2162880D02*
X445000Y2153000D01*
X450000Y2153000D02*
X445000Y2148000D01*
X527500Y2175000D02*
X527500Y2292000D01*
X310000Y2195000D02*
X318780Y2186220D01*
X527500Y2292000D02*
X527000Y2292500D01*
X336973Y2167280D02*
X337720Y2167280D01*
X445000Y2148000D02*
X445000Y2043000D01*
X318780Y2186220D02*
X318780Y2185473D01*
%TO.N,Net-(Y1-ENABLE{slash}DISABLE)*%
X407000Y1623760D02*
X367880Y1662880D01*
X407000Y1505000D02*
X407000Y1623760D01*
X367880Y1662880D02*
X192880Y1662880D01*
X192880Y1662880D02*
X140000Y1610000D01*
X140000Y1610000D02*
X140000Y1585000D01*
%TO.N,unconnected-(U1-VREG_LX-Pad48)*%
X1363750Y1745000D02*
X1363370Y1745380D01*
%TO.N,/FLASH_S0*%
X1165983Y2070000D02*
X1092345Y2070000D01*
X1092345Y2070000D02*
X1059725Y2037380D01*
X1228438Y2093300D02*
X1189283Y2093300D01*
X1189283Y2093300D02*
X1165983Y2070000D01*
X981000Y2070000D02*
X897750Y2153250D01*
X1228438Y2093300D02*
X1240138Y2105000D01*
X1059725Y2037380D02*
X1025000Y2037380D01*
X1025000Y2037380D02*
X992380Y2070000D01*
X992380Y2070000D02*
X981000Y2070000D01*
X1240138Y2105000D02*
X1363750Y2105000D01*
%TO.N,/CFG_MD2{slash}IO_WA_A1*%
X2125842Y1522158D02*
X2158000Y1490000D01*
X2075306Y1522158D02*
X2125842Y1522158D01*
%TO.N,/CFG_MD3{slash}IO_WA_B1*%
X2074900Y1580100D02*
X2094000Y1561000D01*
X2094000Y1561000D02*
X2158000Y1561000D01*
X2068758Y1580100D02*
X2074900Y1580100D01*
%TO.N,Net-(J3-Pin_13)*%
X2114880Y1389880D02*
X1945120Y1220120D01*
X2073426Y1472033D02*
X2080538Y1472033D01*
X1747380Y1220120D02*
X1709500Y1258000D01*
X1945120Y1220120D02*
X1747380Y1220120D01*
X2080538Y1472033D02*
X2114880Y1437690D01*
X1709500Y1258000D02*
X1687000Y1258000D01*
X2114880Y1437690D02*
X2114880Y1389880D01*
%TO.N,Net-(J3-Pin_11)*%
X1915320Y1258000D02*
X1767000Y1258000D01*
X2077100Y1419780D02*
X1915320Y1258000D01*
%TO.N,/IO_N*%
X2166380Y400660D02*
X2224880Y342160D01*
X1913821Y518260D02*
X1848178Y518260D01*
X2031000Y429500D02*
X1972620Y487880D01*
X1848178Y518260D02*
X1832679Y502760D01*
X1748669Y502760D02*
X1722240Y502760D01*
X1944201Y487880D02*
X1913821Y518260D01*
X1751309Y500120D02*
X1748669Y502760D01*
X2090380Y488880D02*
X2113201Y488880D01*
X1832679Y502760D02*
X1785330Y502760D01*
X2166380Y435701D02*
X2166380Y400660D01*
X1722240Y502760D02*
X1687000Y538000D01*
X2113201Y488880D02*
X2166380Y435701D01*
X1785330Y502760D02*
X1782690Y500120D01*
X2031000Y429500D02*
X2090380Y488880D01*
X1782690Y500120D02*
X1751309Y500120D01*
X2224880Y330880D02*
X2179000Y285000D01*
X1972620Y487880D02*
X1944201Y487880D01*
X2224880Y342160D02*
X2224880Y330880D01*
%TO.N,/IO_P*%
X2201620Y450299D02*
X2201620Y415257D01*
X2260120Y356757D02*
X2260120Y330880D01*
X1833581Y553500D02*
X1818081Y538000D01*
X1958799Y523120D02*
X1928419Y553500D01*
X2032000Y582500D02*
X2090380Y524120D01*
X2032000Y582500D02*
X1972620Y523120D01*
X2201620Y415257D02*
X2260120Y356757D01*
X2260120Y330880D02*
X2306000Y285000D01*
X2090380Y524120D02*
X2127799Y524120D01*
X1818081Y538000D02*
X1767000Y538000D01*
X2127799Y524120D02*
X2201620Y450299D01*
X1928419Y553500D02*
X1833581Y553500D01*
X1972620Y523120D02*
X1958799Y523120D01*
%TO.N,/SDA0*%
X1573000Y310000D02*
X1550000Y310000D01*
X1194302Y370552D02*
X1188750Y365000D01*
X1288837Y370552D02*
X1194302Y370552D01*
X1550000Y310000D02*
X1484120Y375880D01*
X1484120Y375880D02*
X1444880Y375880D01*
%TO.N,/SCL0*%
X1132500Y346071D02*
X1132500Y438500D01*
X1132500Y438500D02*
X1191000Y497000D01*
X1535000Y458000D02*
X1530000Y458000D01*
X1491000Y497000D02*
X1530000Y458000D01*
X1188750Y315000D02*
X1163571Y315000D01*
X1163571Y315000D02*
X1132500Y346071D01*
X1588000Y405000D02*
X1535000Y458000D01*
X1588000Y385000D02*
X1588000Y405000D01*
X1191000Y497000D02*
X1491000Y497000D01*
%TO.N,/IMU_INT2*%
X1290000Y295000D02*
X1299178Y295000D01*
X1305000Y289178D02*
X1305000Y198750D01*
X1299178Y295000D02*
X1305000Y289178D01*
%TO.N,/IMU_INT1*%
X1535000Y378203D02*
X1535000Y393509D01*
X1535000Y393509D02*
X1497259Y431250D01*
X1497259Y431250D02*
X1355000Y431250D01*
%TO.N,/MIC_CLK*%
X439991Y637500D02*
X439991Y663991D01*
X477500Y637500D02*
X439991Y637500D01*
X433000Y657000D02*
X433000Y630000D01*
X439991Y663991D02*
X433000Y657000D01*
X487500Y627500D02*
X477500Y637500D01*
%TO.N,Net-(JP1-A)*%
X433000Y822000D02*
X390000Y865000D01*
X433000Y795000D02*
X433000Y822000D01*
X395000Y870000D02*
X390000Y865000D01*
%TO.N,/MIC_LR*%
X667000Y795000D02*
X585962Y713962D01*
X585962Y713962D02*
X578962Y713962D01*
%TO.N,/SDA1*%
X568998Y1000998D02*
X568998Y930494D01*
X660500Y1092500D02*
X568998Y1000998D01*
%TO.N,/SDA2*%
X887500Y400500D02*
X966500Y400500D01*
X966500Y400500D02*
X981000Y415000D01*
%TO.N,/SCL2*%
X810000Y377500D02*
X850220Y337280D01*
X850220Y337280D02*
X981280Y337280D01*
X981280Y337280D02*
X1059000Y415000D01*
%TD*%
%TA.AperFunction,Conductor*%
%TO.N,GND*%
G36*
X157985Y1049962D02*
G01*
X159358Y1049854D01*
X177373Y1048436D01*
X183902Y1045948D01*
X185169Y1044842D01*
X303698Y926313D01*
X307047Y920180D01*
X307330Y917545D01*
X307330Y671390D01*
X307167Y670572D01*
X307259Y670064D01*
X306386Y666644D01*
X298207Y646899D01*
X297324Y645165D01*
X285430Y625756D01*
X284286Y624181D01*
X269503Y606873D01*
X268127Y605497D01*
X250819Y590714D01*
X249244Y589570D01*
X229835Y577676D01*
X228101Y576793D01*
X207072Y568082D01*
X205221Y567481D01*
X183087Y562167D01*
X181166Y561863D01*
X157985Y560038D01*
X157013Y560000D01*
X73196Y560000D01*
X71808Y560078D01*
X66361Y560692D01*
X57755Y561661D01*
X55048Y562279D01*
X42362Y566718D01*
X39861Y567923D01*
X28480Y575074D01*
X26309Y576805D01*
X18922Y584192D01*
X15573Y590325D01*
X15290Y592960D01*
X15290Y677310D01*
X17259Y684014D01*
X22539Y688589D01*
X27690Y689710D01*
X80086Y689710D01*
X80087Y689710D01*
X99953Y693213D01*
X118910Y700113D01*
X136380Y710199D01*
X151834Y723166D01*
X164801Y738620D01*
X174887Y756090D01*
X181787Y775047D01*
X185290Y794913D01*
X185290Y815087D01*
X181787Y834953D01*
X174887Y853910D01*
X164801Y871380D01*
X155566Y882386D01*
X151834Y886834D01*
X136380Y899801D01*
X136380Y899801D01*
X130557Y903163D01*
X118910Y909887D01*
X118910Y909887D01*
X99953Y916787D01*
X80087Y920290D01*
X80087Y920290D01*
X73041Y920290D01*
X27690Y920290D01*
X20986Y922258D01*
X16411Y927539D01*
X15290Y932690D01*
X15290Y1017040D01*
X16154Y1019983D01*
X16807Y1022982D01*
X17182Y1023484D01*
X17259Y1023743D01*
X18921Y1025807D01*
X26310Y1033195D01*
X28479Y1034926D01*
X39861Y1042077D01*
X42362Y1043281D01*
X55049Y1047721D01*
X57755Y1048339D01*
X71808Y1049922D01*
X73196Y1050000D01*
X157013Y1050000D01*
X157985Y1049962D01*
G37*
%TD.AperFunction*%
%TD*%
%TA.AperFunction,Conductor*%
%TO.N,+2V5*%
G36*
X831241Y2430324D02*
G01*
X832114Y2429963D01*
X832114Y2429963D01*
X832115Y2429963D01*
X832115Y2429963D01*
X838009Y2428790D01*
X838009Y2428790D01*
X838010Y2428790D01*
X861990Y2428790D01*
X867351Y2429856D01*
X874310Y2429234D01*
X879828Y2424947D01*
X882152Y2418359D01*
X882170Y2417695D01*
X882170Y2408547D01*
X882170Y2401453D01*
X884884Y2394900D01*
X884885Y2394900D01*
X906368Y2373417D01*
X909717Y2367284D01*
X910000Y2364648D01*
X910000Y2345000D01*
X929648Y2345000D01*
X936352Y2343032D01*
X938416Y2341368D01*
X956914Y2322870D01*
X961930Y2317855D01*
X962345Y2317683D01*
X963902Y2316428D01*
X965720Y2315598D01*
X966567Y2314281D01*
X967785Y2313299D01*
X968417Y2311402D01*
X969498Y2309720D01*
X969894Y2306964D01*
X969992Y2306669D01*
X970000Y2306227D01*
X970000Y2297400D01*
X968031Y2290696D01*
X962751Y2286121D01*
X957600Y2285000D01*
X786139Y2285000D01*
X779435Y2286969D01*
X774860Y2292249D01*
X774233Y2294432D01*
X774133Y2294405D01*
X773923Y2295190D01*
X771864Y2302874D01*
X767887Y2309763D01*
X762263Y2315387D01*
X755374Y2319365D01*
X749191Y2321021D01*
X743225Y2324658D01*
X740172Y2330942D01*
X740000Y2332999D01*
X740000Y2377704D01*
X741968Y2384408D01*
X746378Y2388543D01*
X820474Y2429708D01*
X827290Y2431243D01*
X831241Y2430324D01*
G37*
%TD.AperFunction*%
%TD*%
%TA.AperFunction,Conductor*%
%TO.N,+2V5*%
G36*
X360057Y1638241D02*
G01*
X362122Y1636578D01*
X366275Y1632424D01*
X366738Y1631731D01*
X367162Y1631437D01*
X368963Y1628401D01*
X372671Y1619449D01*
X373509Y1616322D01*
X374894Y1605806D01*
X375000Y1604187D01*
X375000Y1535415D01*
X373031Y1528711D01*
X372910Y1528526D01*
X370403Y1524774D01*
X368950Y1517468D01*
X368950Y1492532D01*
X370403Y1485226D01*
X372910Y1481474D01*
X374998Y1474806D01*
X375000Y1474585D01*
X375000Y1442167D01*
X376711Y1429199D01*
X379002Y1423681D01*
X379950Y1418926D01*
X379950Y1408532D01*
X381403Y1401226D01*
X381403Y1401226D01*
X381403Y1401226D01*
X386940Y1392940D01*
X394478Y1387903D01*
X395226Y1387403D01*
X395226Y1387403D01*
X402532Y1385950D01*
X402532Y1385950D01*
X402533Y1385950D01*
X427468Y1385950D01*
X427468Y1385950D01*
X434773Y1387403D01*
X434774Y1387403D01*
X434774Y1387403D01*
X434774Y1387403D01*
X438879Y1390146D01*
X440664Y1390705D01*
X442235Y1391722D01*
X445398Y1392188D01*
X445546Y1392234D01*
X445716Y1392236D01*
X457381Y1392275D01*
X464091Y1390329D01*
X464311Y1390186D01*
X467726Y1387903D01*
X469553Y1387540D01*
X475032Y1386450D01*
X475033Y1386450D01*
X499967Y1386450D01*
X502161Y1386886D01*
X503530Y1387159D01*
X506573Y1386886D01*
X509630Y1386838D01*
X510213Y1386561D01*
X510489Y1386536D01*
X512817Y1385322D01*
X513782Y1384680D01*
X517217Y1381257D01*
X521243Y1375247D01*
X523102Y1370769D01*
X524517Y1363672D01*
X524518Y1358828D01*
X523102Y1351710D01*
X521251Y1347240D01*
X517217Y1341204D01*
X516628Y1340614D01*
X516422Y1340141D01*
X513796Y1337783D01*
X507760Y1333749D01*
X503290Y1331898D01*
X499780Y1331200D01*
X494948Y1330238D01*
X492529Y1330000D01*
X375000Y1330000D01*
X374999Y1330000D01*
X374999Y1330000D01*
X362059Y1328296D01*
X362059Y1328296D01*
X350000Y1323302D01*
X350000Y1323302D01*
X339645Y1315355D01*
X331698Y1305000D01*
X331698Y1305000D01*
X326704Y1292941D01*
X326704Y1292941D01*
X325000Y1280000D01*
X325000Y1280000D01*
X323509Y1268678D01*
X322672Y1265551D01*
X318926Y1256508D01*
X317307Y1253705D01*
X311349Y1245940D01*
X309060Y1243651D01*
X301295Y1237693D01*
X298492Y1236074D01*
X289449Y1232329D01*
X286322Y1231491D01*
X276619Y1230213D01*
X273381Y1230213D01*
X263678Y1231491D01*
X260551Y1232329D01*
X251508Y1236074D01*
X248705Y1237693D01*
X240940Y1243651D01*
X238651Y1245940D01*
X235112Y1250551D01*
X232593Y1257068D01*
X232550Y1258100D01*
X232550Y1259614D01*
X232550Y1259614D01*
X230161Y1268529D01*
X228312Y1271732D01*
X226665Y1278522D01*
X228950Y1285124D01*
X230282Y1286699D01*
X237381Y1293798D01*
X241768Y1303734D01*
X242050Y1306163D01*
X242050Y1348837D01*
X241768Y1351266D01*
X237381Y1361202D01*
X233851Y1364732D01*
X230502Y1370864D01*
X231001Y1377833D01*
X233851Y1382268D01*
X237881Y1386298D01*
X242268Y1396234D01*
X242550Y1398663D01*
X242550Y1441337D01*
X242454Y1442167D01*
X242268Y1443766D01*
X238726Y1451787D01*
X237670Y1456796D01*
X237670Y1492509D01*
X237670Y1492509D01*
X237669Y1492512D01*
X237660Y1492533D01*
X236994Y1494142D01*
X236050Y1498887D01*
X236050Y1517468D01*
X236050Y1517468D01*
X234597Y1524774D01*
X234597Y1524774D01*
X234597Y1524774D01*
X229060Y1533060D01*
X229060Y1533060D01*
X228632Y1533488D01*
X225283Y1539621D01*
X225000Y1542256D01*
X225000Y1604187D01*
X225106Y1605806D01*
X226491Y1616322D01*
X226491Y1616322D01*
X227328Y1619449D01*
X231074Y1628492D01*
X232693Y1631295D01*
X233559Y1632424D01*
X235811Y1635359D01*
X241453Y1639479D01*
X245648Y1640210D01*
X353353Y1640210D01*
X360057Y1638241D01*
G37*
%TD.AperFunction*%
%TD*%
%TA.AperFunction,Conductor*%
%TO.N,VBUS*%
G36*
X186439Y2467742D02*
G01*
X189573Y2464859D01*
X192307Y2461295D01*
X193926Y2458492D01*
X197671Y2449449D01*
X198509Y2446323D01*
X199894Y2435806D01*
X200000Y2434188D01*
X200000Y2375801D01*
X198031Y2369097D01*
X192751Y2364522D01*
X190809Y2363824D01*
X189535Y2363482D01*
X186471Y2362661D01*
X186471Y2362661D01*
X178479Y2358047D01*
X178478Y2358047D01*
X171953Y2351522D01*
X171953Y2351521D01*
X167339Y2343529D01*
X167339Y2343529D01*
X164950Y2334614D01*
X164950Y2332450D01*
X162982Y2325746D01*
X157701Y2321171D01*
X152550Y2320050D01*
X131018Y2320050D01*
X126627Y2319177D01*
X126135Y2318973D01*
X119188Y2318226D01*
X112941Y2321354D01*
X111080Y2323540D01*
X108060Y2328060D01*
X99774Y2333597D01*
X99774Y2333597D01*
X99773Y2333597D01*
X92468Y2335050D01*
X92467Y2335050D01*
X67533Y2335050D01*
X67532Y2335050D01*
X60226Y2333597D01*
X60226Y2333597D01*
X51940Y2328060D01*
X46403Y2319774D01*
X46403Y2319774D01*
X44950Y2312468D01*
X44950Y2281532D01*
X46403Y2274227D01*
X46403Y2274226D01*
X47965Y2271889D01*
X50053Y2265221D01*
X49750Y2262271D01*
X49244Y2260025D01*
X46403Y2255774D01*
X44950Y2248467D01*
X44950Y2241615D01*
X44950Y2241615D01*
X44950Y2240994D01*
X44950Y2231523D01*
X44950Y2231520D01*
X44950Y2217532D01*
X46403Y2210227D01*
X46403Y2210226D01*
X46403Y2210226D01*
X51940Y2201940D01*
X60226Y2196403D01*
X60226Y2196403D01*
X67532Y2194950D01*
X67532Y2194950D01*
X71299Y2194950D01*
X78002Y2192982D01*
X82578Y2187701D01*
X83572Y2180785D01*
X80670Y2174430D01*
X77499Y2171811D01*
X70979Y2168047D01*
X70978Y2168047D01*
X64453Y2161522D01*
X64452Y2161521D01*
X59839Y2153529D01*
X59838Y2153529D01*
X57450Y2144614D01*
X57450Y2135386D01*
X59838Y2126471D01*
X59839Y2126471D01*
X64452Y2118480D01*
X64453Y2118479D01*
X64453Y2118479D01*
X70979Y2111953D01*
X70979Y2111953D01*
X70979Y2111953D01*
X78970Y2107339D01*
X78971Y2107339D01*
X78971Y2107339D01*
X87885Y2104950D01*
X87886Y2104950D01*
X97114Y2104950D01*
X97114Y2104950D01*
X106029Y2107339D01*
X114021Y2111953D01*
X120547Y2118479D01*
X125161Y2126471D01*
X127550Y2135386D01*
X127550Y2144614D01*
X125161Y2153529D01*
X125161Y2153529D01*
X120547Y2161521D01*
X120547Y2161521D01*
X120547Y2161521D01*
X114021Y2168047D01*
X114021Y2168047D01*
X114020Y2168047D01*
X106029Y2172661D01*
X106029Y2172661D01*
X105582Y2172781D01*
X102637Y2173570D01*
X96671Y2177207D01*
X93618Y2183491D01*
X94448Y2190429D01*
X98896Y2195817D01*
X98957Y2195858D01*
X99774Y2196403D01*
X99774Y2196403D01*
X108060Y2201940D01*
X113597Y2210226D01*
X113597Y2210226D01*
X113823Y2210565D01*
X119184Y2215046D01*
X126117Y2215917D01*
X126553Y2215838D01*
X126628Y2215823D01*
X126628Y2215823D01*
X128833Y2215385D01*
X131018Y2214950D01*
X187600Y2214950D01*
X194304Y2212981D01*
X198879Y2207701D01*
X200000Y2202550D01*
X200000Y2005813D01*
X199894Y2004194D01*
X198509Y1993678D01*
X197671Y1990551D01*
X193926Y1981508D01*
X192307Y1978705D01*
X186349Y1970940D01*
X184060Y1968651D01*
X176295Y1962693D01*
X173492Y1961074D01*
X164449Y1957328D01*
X161322Y1956491D01*
X151940Y1955255D01*
X150806Y1955106D01*
X149187Y1955000D01*
X81858Y1955000D01*
X75154Y1956968D01*
X71119Y1961200D01*
X68047Y1966521D01*
X68047Y1966521D01*
X68047Y1966521D01*
X63322Y1971246D01*
X62778Y1972242D01*
X61896Y1972955D01*
X61133Y1975254D01*
X59973Y1977379D01*
X60054Y1978510D01*
X59697Y1979587D01*
X60299Y1981932D01*
X60471Y1984348D01*
X61196Y1985431D01*
X61433Y1986354D01*
X62971Y1988084D01*
X63480Y1988845D01*
X63446Y1988878D01*
X63616Y1989048D01*
X63651Y1989100D01*
X64061Y1989481D01*
X64335Y1989618D01*
X64548Y1989857D01*
X64673Y1989953D01*
X64765Y1989833D01*
X66992Y1990944D01*
X69864Y1992512D01*
X70101Y1992495D01*
X70313Y1992601D01*
X73568Y1992247D01*
X76833Y1992014D01*
X77061Y1991868D01*
X77259Y1991846D01*
X77899Y1991329D01*
X80240Y1989825D01*
X80334Y1989948D01*
X80979Y1989453D01*
X80979Y1989453D01*
X80979Y1989453D01*
X80979Y1989453D01*
X88971Y1984839D01*
X88971Y1984839D01*
X88971Y1984839D01*
X97886Y1982450D01*
X97886Y1982450D01*
X107114Y1982450D01*
X107114Y1982450D01*
X116029Y1984839D01*
X124021Y1989453D01*
X130547Y1995979D01*
X135161Y2003971D01*
X137550Y2012886D01*
X137550Y2022114D01*
X135161Y2031029D01*
X132500Y2035638D01*
X130547Y2039021D01*
X130547Y2039021D01*
X130547Y2039021D01*
X124021Y2045547D01*
X124021Y2045547D01*
X124020Y2045547D01*
X116029Y2050161D01*
X116029Y2050161D01*
X116029Y2050161D01*
X116029Y2050161D01*
X107114Y2052550D01*
X97886Y2052550D01*
X88971Y2050161D01*
X88971Y2050161D01*
X88971Y2050161D01*
X88971Y2050161D01*
X80979Y2045547D01*
X80334Y2045052D01*
X80186Y2045245D01*
X75134Y2042487D01*
X68165Y2042987D01*
X64760Y2045175D01*
X64666Y2045052D01*
X64020Y2045547D01*
X56029Y2050161D01*
X56029Y2050161D01*
X56029Y2050161D01*
X56029Y2050161D01*
X47114Y2052550D01*
X37886Y2052550D01*
X30899Y2050678D01*
X23914Y2050844D01*
X18128Y2054761D01*
X15378Y2061183D01*
X15290Y2062655D01*
X15290Y2384391D01*
X15350Y2385606D01*
X16798Y2400312D01*
X17272Y2402694D01*
X21384Y2416250D01*
X22314Y2418494D01*
X28991Y2430986D01*
X30340Y2433006D01*
X39327Y2443956D01*
X41045Y2445673D01*
X51994Y2454660D01*
X54014Y2456009D01*
X66506Y2462686D01*
X68750Y2463616D01*
X82306Y2467728D01*
X84689Y2468202D01*
X99394Y2469650D01*
X100609Y2469710D01*
X179735Y2469710D01*
X186439Y2467742D01*
G37*
%TD.AperFunction*%
%TD*%
%TA.AperFunction,Conductor*%
%TO.N,+2V5*%
G36*
X745964Y1204847D02*
G01*
X748358Y1204468D01*
X753876Y1203594D01*
X757565Y1202396D01*
X763823Y1199207D01*
X764013Y1199069D01*
X764136Y1199042D01*
X766961Y1196927D01*
X770830Y1193058D01*
X774179Y1186926D01*
X774224Y1181871D01*
X773966Y1180577D01*
X773914Y1180312D01*
X773729Y1179523D01*
X771950Y1172881D01*
X771950Y1163652D01*
X772527Y1161496D01*
X772950Y1158287D01*
X772950Y1144532D01*
X774403Y1137227D01*
X774403Y1137226D01*
X774403Y1137226D01*
X779940Y1128940D01*
X786731Y1124402D01*
X788226Y1123403D01*
X788226Y1123403D01*
X795532Y1121950D01*
X795532Y1121950D01*
X795533Y1121950D01*
X820468Y1121950D01*
X820468Y1121950D01*
X824999Y1122852D01*
X827774Y1123403D01*
X827774Y1123403D01*
X827774Y1123403D01*
X827774Y1123404D01*
X828825Y1123839D01*
X829235Y1123883D01*
X829572Y1124120D01*
X832680Y1124254D01*
X835772Y1124586D01*
X836141Y1124402D01*
X836552Y1124420D01*
X839239Y1122852D01*
X842020Y1121459D01*
X842332Y1121046D01*
X842586Y1120897D01*
X844620Y1118013D01*
X847395Y1112565D01*
X848594Y1108876D01*
X849847Y1100964D01*
X850000Y1099024D01*
X850000Y1095976D01*
X849847Y1094036D01*
X848349Y1084579D01*
X848277Y1084355D01*
X848289Y1084230D01*
X847151Y1080890D01*
X843252Y1073238D01*
X840972Y1070100D01*
X834900Y1064028D01*
X831762Y1061748D01*
X824110Y1057849D01*
X820421Y1056651D01*
X812442Y1055387D01*
X810964Y1055153D01*
X809024Y1055000D01*
X742535Y1055000D01*
X740614Y1055150D01*
X728187Y1057098D01*
X724530Y1058274D01*
X714169Y1063492D01*
X711047Y1065730D01*
X706609Y1070100D01*
X702780Y1073869D01*
X700493Y1076956D01*
X699963Y1077969D01*
X698550Y1083718D01*
X698550Y1104968D01*
X698550Y1104968D01*
X697097Y1112274D01*
X697097Y1112274D01*
X697097Y1112274D01*
X693345Y1117889D01*
X692808Y1119603D01*
X691813Y1121099D01*
X691265Y1124532D01*
X691257Y1124557D01*
X691097Y1134790D01*
X692961Y1141523D01*
X693185Y1141872D01*
X697097Y1147726D01*
X698550Y1155033D01*
X698550Y1179967D01*
X698550Y1180577D01*
X698690Y1180577D01*
X699248Y1183242D01*
X699878Y1186564D01*
X699970Y1186692D01*
X699987Y1186773D01*
X702080Y1189614D01*
X707345Y1194962D01*
X710500Y1197285D01*
X718818Y1201572D01*
X724499Y1202950D01*
X729468Y1202950D01*
X737972Y1204642D01*
X738006Y1204468D01*
X740681Y1205000D01*
X744024Y1205000D01*
X745964Y1204847D01*
G37*
%TD.AperFunction*%
%TD*%
%TA.AperFunction,Conductor*%
%TO.N,GND*%
G36*
X75520Y1568354D02*
G01*
X77710Y1565872D01*
X78977Y1563977D01*
X84034Y1560597D01*
X84034Y1560597D01*
X84035Y1560597D01*
X86264Y1560154D01*
X88494Y1559710D01*
X191506Y1559710D01*
X194391Y1560284D01*
X201350Y1559661D01*
X206868Y1555375D01*
X209192Y1548786D01*
X209210Y1548122D01*
X209210Y1542257D01*
X209300Y1540570D01*
X209301Y1540565D01*
X209584Y1537933D01*
X209584Y1537932D01*
X211425Y1532054D01*
X211425Y1532053D01*
X213704Y1527878D01*
X214741Y1525980D01*
X214741Y1525980D01*
X214773Y1525921D01*
X215193Y1525360D01*
X215576Y1524819D01*
X218170Y1520937D01*
X220258Y1514269D01*
X220260Y1514048D01*
X220260Y1498887D01*
X220563Y1495808D01*
X220563Y1495807D01*
X221507Y1491062D01*
X221508Y1491057D01*
X221509Y1491053D01*
X221567Y1490763D01*
X221545Y1490759D01*
X221880Y1488044D01*
X221880Y1456796D01*
X222220Y1453537D01*
X222220Y1453536D01*
X222220Y1453536D01*
X223276Y1448529D01*
X223277Y1448528D01*
X224281Y1445411D01*
X224282Y1445410D01*
X224282Y1445409D01*
X225703Y1442190D01*
X226760Y1437182D01*
X226760Y1402819D01*
X226555Y1401846D01*
X226655Y1401207D01*
X225703Y1397808D01*
X225564Y1397495D01*
X222990Y1393738D01*
X222687Y1393435D01*
X222686Y1393433D01*
X220568Y1390805D01*
X220567Y1390804D01*
X217718Y1386371D01*
X215251Y1378959D01*
X214753Y1371991D01*
X214717Y1371240D01*
X214717Y1371240D01*
X216644Y1363297D01*
X216644Y1363297D01*
X219992Y1357165D01*
X219993Y1357164D01*
X222685Y1353568D01*
X222976Y1353232D01*
X222916Y1353180D01*
X223195Y1352996D01*
X225065Y1350003D01*
X225203Y1349690D01*
X226260Y1344682D01*
X226260Y1310319D01*
X225203Y1305308D01*
X225064Y1304995D01*
X222490Y1301237D01*
X219117Y1297865D01*
X218225Y1296895D01*
X216894Y1295322D01*
X216894Y1295321D01*
X214028Y1290288D01*
X211743Y1283686D01*
X211514Y1282970D01*
X211320Y1274799D01*
X211320Y1274798D01*
X212967Y1268009D01*
X212967Y1268009D01*
X214638Y1263836D01*
X214638Y1263836D01*
X214831Y1263438D01*
X214806Y1263426D01*
X215870Y1260857D01*
X216417Y1258816D01*
X216709Y1256909D01*
X216754Y1256914D01*
X216817Y1256411D01*
X216817Y1256411D01*
X217865Y1251375D01*
X217865Y1251374D01*
X220307Y1245057D01*
X220385Y1244858D01*
X222585Y1240939D01*
X224430Y1238534D01*
X226122Y1236329D01*
X226124Y1236327D01*
X227486Y1234774D01*
X229775Y1232486D01*
X231327Y1231124D01*
X231328Y1231124D01*
X237013Y1226761D01*
X239092Y1225166D01*
X240810Y1224018D01*
X243613Y1222400D01*
X245465Y1221486D01*
X254508Y1217740D01*
X256464Y1217077D01*
X256464Y1217076D01*
X256465Y1217076D01*
X258683Y1216482D01*
X259591Y1216239D01*
X261616Y1215836D01*
X271320Y1214558D01*
X273381Y1214423D01*
X273382Y1214423D01*
X276618Y1214423D01*
X276619Y1214423D01*
X278680Y1214558D01*
X288384Y1215836D01*
X290409Y1216239D01*
X292074Y1216685D01*
X293535Y1217076D01*
X293535Y1217076D01*
X293536Y1217077D01*
X295492Y1217740D01*
X300596Y1219855D01*
X300713Y1219867D01*
X300806Y1219940D01*
X302131Y1220376D01*
X308621Y1222115D01*
X316669Y1226761D01*
X323239Y1233331D01*
X327884Y1241376D01*
X328785Y1242725D01*
X329834Y1244093D01*
X330982Y1245810D01*
X332600Y1248613D01*
X333514Y1250466D01*
X337260Y1259508D01*
X337924Y1261464D01*
X337924Y1261465D01*
X337924Y1261465D01*
X338445Y1263410D01*
X338761Y1264591D01*
X339164Y1266617D01*
X340655Y1277939D01*
X340655Y1277939D01*
X341874Y1287201D01*
X342712Y1290327D01*
X344866Y1295529D01*
X346484Y1298332D01*
X349913Y1302799D01*
X352201Y1305087D01*
X356669Y1308516D01*
X359471Y1310134D01*
X364673Y1312288D01*
X367799Y1313126D01*
X375228Y1314104D01*
X376847Y1314210D01*
X407600Y1314210D01*
X414304Y1312242D01*
X418879Y1306961D01*
X420000Y1301810D01*
X420000Y1225813D01*
X419894Y1224194D01*
X418509Y1213678D01*
X417671Y1210551D01*
X413926Y1201508D01*
X412307Y1198705D01*
X411161Y1197211D01*
X410092Y1195992D01*
X399009Y1184909D01*
X397789Y1183839D01*
X396295Y1182693D01*
X393491Y1181074D01*
X384449Y1177329D01*
X381322Y1176491D01*
X371940Y1175255D01*
X370806Y1175106D01*
X369187Y1175000D01*
X362711Y1175000D01*
X360292Y1175238D01*
X352491Y1176790D01*
X327509Y1176790D01*
X323857Y1176064D01*
X320132Y1175323D01*
X320132Y1175323D01*
X319708Y1175238D01*
X317289Y1175000D01*
X117536Y1175000D01*
X110832Y1176969D01*
X108768Y1178632D01*
X58632Y1228768D01*
X55283Y1234900D01*
X55000Y1237536D01*
X55000Y1558983D01*
X56968Y1565687D01*
X62249Y1570262D01*
X69165Y1571257D01*
X75520Y1568354D01*
G37*
%TD.AperFunction*%
%TA.AperFunction,Conductor*%
G36*
X236585Y2174776D02*
G01*
X237369Y2174903D01*
X239890Y2173806D01*
X242528Y2173032D01*
X243211Y2172361D01*
X243775Y2172115D01*
X246134Y2169489D01*
X246476Y2168977D01*
X251534Y2165597D01*
X251534Y2165597D01*
X251534Y2165597D01*
X253764Y2165154D01*
X255994Y2164710D01*
X302007Y2164710D01*
X304816Y2163885D01*
X307692Y2163330D01*
X308354Y2162847D01*
X308711Y2162742D01*
X310566Y2161282D01*
X310673Y2161181D01*
X323996Y2147858D01*
X325131Y2147388D01*
X326806Y2145789D01*
X326867Y2145684D01*
X327015Y2145585D01*
X329142Y2143458D01*
X329142Y2143458D01*
X329143Y2143458D01*
X337563Y2139970D01*
X407155Y2139970D01*
X407228Y2139948D01*
X407302Y2139969D01*
X410575Y2138966D01*
X413859Y2138002D01*
X413909Y2137944D01*
X413982Y2137921D01*
X416196Y2135304D01*
X418434Y2132721D01*
X418461Y2132626D01*
X418495Y2132587D01*
X419449Y2129189D01*
X419894Y2125806D01*
X420000Y2124188D01*
X420000Y2076030D01*
X418031Y2069326D01*
X414489Y2065720D01*
X410767Y2063233D01*
X405177Y2054868D01*
X405177Y2054867D01*
X403710Y2047491D01*
X403710Y2022509D01*
X405177Y2015132D01*
X405177Y2015132D01*
X406700Y2012854D01*
X410767Y2006767D01*
X414489Y2004280D01*
X418969Y1998919D01*
X420000Y1993970D01*
X420000Y1951515D01*
X418031Y1944811D01*
X416368Y1942747D01*
X373387Y1899766D01*
X367255Y1896418D01*
X360286Y1896916D01*
X357730Y1898224D01*
X356599Y1898979D01*
X355966Y1899403D01*
X355965Y1899403D01*
X351506Y1900290D01*
X248494Y1900290D01*
X244034Y1899403D01*
X244034Y1899403D01*
X238977Y1896023D01*
X235597Y1890966D01*
X235597Y1890965D01*
X234710Y1886506D01*
X234710Y1813494D01*
X234874Y1812668D01*
X235112Y1810171D01*
X235080Y1805000D01*
X235000Y1805000D01*
X235000Y1792353D01*
X235000Y1792322D01*
X234003Y1789004D01*
X233031Y1785696D01*
X233001Y1785669D01*
X232989Y1785630D01*
X230357Y1783379D01*
X227751Y1781121D01*
X227706Y1781111D01*
X227680Y1781088D01*
X227470Y1781060D01*
X222600Y1780000D01*
X194864Y1780000D01*
X194864Y1780148D01*
X192332Y1780126D01*
X191506Y1780290D01*
X88494Y1780290D01*
X84034Y1779403D01*
X84034Y1779403D01*
X78977Y1776024D01*
X77710Y1774128D01*
X72349Y1769648D01*
X65416Y1768777D01*
X59114Y1771792D01*
X55442Y1777737D01*
X55000Y1781017D01*
X55000Y1905752D01*
X56968Y1912456D01*
X61200Y1916491D01*
X61669Y1916761D01*
X68239Y1923331D01*
X72885Y1931379D01*
X72885Y1931379D01*
X72958Y1931555D01*
X73060Y1931682D01*
X73291Y1932082D01*
X73354Y1932046D01*
X77343Y1936996D01*
X83972Y1939202D01*
X84414Y1939210D01*
X149186Y1939210D01*
X149187Y1939210D01*
X150220Y1939244D01*
X151839Y1939350D01*
X151840Y1939350D01*
X151841Y1939350D01*
X152155Y1939381D01*
X152867Y1939451D01*
X163384Y1940836D01*
X165409Y1941239D01*
X167074Y1941685D01*
X168535Y1942076D01*
X168535Y1942076D01*
X168536Y1942076D01*
X170492Y1942740D01*
X179534Y1946486D01*
X181387Y1947400D01*
X184190Y1949018D01*
X185907Y1950166D01*
X193672Y1956124D01*
X195225Y1957486D01*
X197514Y1959775D01*
X198876Y1961328D01*
X199897Y1962659D01*
X202728Y1965341D01*
X202839Y1965417D01*
X202840Y1965417D01*
X210583Y1973160D01*
X215006Y1983178D01*
X215290Y1985626D01*
X215290Y1999354D01*
X215396Y2000973D01*
X215549Y2002132D01*
X215650Y2003161D01*
X215723Y2004280D01*
X215756Y2004780D01*
X215790Y2005813D01*
X215790Y2054646D01*
X282210Y2054646D01*
X282210Y2045354D01*
X284615Y2036379D01*
X289261Y2028331D01*
X295831Y2021761D01*
X303879Y2017115D01*
X312854Y2014710D01*
X312854Y2014710D01*
X322146Y2014710D01*
X322146Y2014710D01*
X331121Y2017115D01*
X339169Y2021761D01*
X345739Y2028331D01*
X350385Y2036379D01*
X352790Y2045354D01*
X352790Y2054646D01*
X350385Y2063621D01*
X345739Y2071669D01*
X339169Y2078239D01*
X331121Y2082885D01*
X331122Y2082885D01*
X328130Y2083687D01*
X322146Y2085290D01*
X312854Y2085290D01*
X306870Y2083687D01*
X303879Y2082885D01*
X295832Y2078239D01*
X295831Y2078239D01*
X289261Y2071669D01*
X289261Y2071668D01*
X284615Y2063621D01*
X284356Y2062655D01*
X282210Y2054646D01*
X215790Y2054646D01*
X215790Y2162600D01*
X217758Y2169304D01*
X223039Y2173879D01*
X228190Y2175000D01*
X235824Y2175000D01*
X236585Y2174776D01*
G37*
%TD.AperFunction*%
%TD*%
%TA.AperFunction,Conductor*%
%TO.N,+1V1*%
G36*
X505659Y2348032D02*
G01*
X510235Y2342751D01*
X511229Y2335835D01*
X508327Y2329480D01*
X505064Y2327127D01*
X505148Y2327001D01*
X495767Y2320733D01*
X490177Y2312368D01*
X490177Y2312367D01*
X488710Y2304992D01*
X488710Y2280009D01*
X490177Y2272632D01*
X490177Y2272632D01*
X495767Y2264267D01*
X495767Y2264267D01*
X499079Y2262054D01*
X503560Y2256693D01*
X504590Y2251744D01*
X504590Y2202004D01*
X502621Y2195300D01*
X497341Y2190724D01*
X490425Y2189730D01*
X489771Y2189842D01*
X485251Y2190741D01*
X482491Y2191290D01*
X482491Y2191290D01*
X457509Y2191290D01*
X450132Y2189823D01*
X449363Y2189309D01*
X447224Y2187880D01*
X440557Y2185792D01*
X440335Y2185790D01*
X355999Y2185790D01*
X353055Y2186655D01*
X350056Y2187307D01*
X349555Y2187682D01*
X349295Y2187759D01*
X347231Y2189422D01*
X341422Y2195231D01*
X338073Y2201363D01*
X337790Y2203999D01*
X337790Y2206506D01*
X337790Y2206506D01*
X336903Y2210966D01*
X336903Y2210966D01*
X336903Y2210966D01*
X333524Y2216023D01*
X328466Y2219403D01*
X328466Y2219403D01*
X328466Y2219403D01*
X328466Y2219403D01*
X328466Y2219403D01*
X324006Y2220290D01*
X255994Y2220290D01*
X251534Y2219403D01*
X251534Y2219403D01*
X246476Y2216024D01*
X242831Y2210568D01*
X242264Y2210094D01*
X241289Y2208689D01*
X240578Y2207978D01*
X238948Y2204043D01*
X234564Y2198603D01*
X227934Y2196396D01*
X221164Y2198125D01*
X216404Y2203238D01*
X215375Y2206153D01*
X214308Y2211058D01*
X212586Y2214499D01*
X212231Y2216464D01*
X211401Y2218279D01*
X211624Y2219832D01*
X211345Y2221375D01*
X211715Y2222826D01*
X211665Y2222836D01*
X212421Y2226641D01*
X212790Y2228494D01*
X212790Y2256506D01*
X211903Y2260966D01*
X211903Y2260966D01*
X211903Y2260966D01*
X208523Y2266023D01*
X207159Y2266935D01*
X203466Y2269403D01*
X203466Y2269403D01*
X203466Y2269403D01*
X203465Y2269403D01*
X199006Y2270290D01*
X130994Y2270290D01*
X126534Y2269403D01*
X126534Y2269403D01*
X123686Y2267500D01*
X121881Y2266935D01*
X120290Y2265912D01*
X117194Y2265467D01*
X117018Y2265412D01*
X116797Y2265410D01*
X110233Y2265410D01*
X103529Y2267378D01*
X103347Y2267498D01*
X100511Y2269393D01*
X96030Y2274754D01*
X95000Y2279703D01*
X95000Y2292623D01*
X96968Y2299327D01*
X102249Y2303903D01*
X109165Y2304897D01*
X112685Y2303841D01*
X112800Y2303786D01*
X120876Y2302527D01*
X127823Y2303273D01*
X127969Y2303311D01*
X128245Y2303381D01*
X128894Y2303529D01*
X131375Y2304022D01*
X133794Y2304260D01*
X152549Y2304260D01*
X152550Y2304260D01*
X155907Y2304621D01*
X161058Y2305742D01*
X168041Y2309237D01*
X173322Y2313813D01*
X173878Y2314318D01*
X178132Y2321298D01*
X180100Y2328001D01*
X180661Y2331904D01*
X180957Y2333347D01*
X181630Y2335858D01*
X182869Y2338848D01*
X183772Y2340412D01*
X185742Y2342980D01*
X187020Y2344258D01*
X189587Y2346228D01*
X191152Y2347132D01*
X194142Y2348370D01*
X194897Y2348572D01*
X196151Y2348965D01*
X196997Y2349269D01*
X201192Y2350000D01*
X498955Y2350000D01*
X505659Y2348032D01*
G37*
%TD.AperFunction*%
%TD*%
M02*
