%TF.GenerationSoftware,KiCad,Pcbnew,9.0.0*%
%TF.CreationDate,2025-04-07T10:45:09-04:00*%
%TF.ProjectId,Expansion_Card_Retrofit,45787061-6e73-4696-9f6e-5f436172645f,X1*%
%TF.SameCoordinates,Original*%
%TF.FileFunction,Copper,L3,Inr*%
%TF.FilePolarity,Positive*%
%FSLAX45Y45*%
G04 Gerber Fmt 4.5, Leading zero omitted, Abs format (unit mm)*
G04 Created by KiCad (PCBNEW 9.0.0) date 2025-04-07 10:45:09*
%MOMM*%
%LPD*%
G01*
G04 APERTURE LIST*
%TA.AperFunction,ComponentPad*%
%ADD10R,0.850000X0.850000*%
%TD*%
%TA.AperFunction,ComponentPad*%
%ADD11O,0.850000X0.850000*%
%TD*%
%TA.AperFunction,ComponentPad*%
%ADD12C,0.600000*%
%TD*%
%TA.AperFunction,ComponentPad*%
%ADD13C,0.500000*%
%TD*%
%TA.AperFunction,ViaPad*%
%ADD14C,0.400000*%
%TD*%
%TA.AperFunction,ViaPad*%
%ADD15C,0.800000*%
%TD*%
%TA.AperFunction,Conductor*%
%ADD16C,0.152400*%
%TD*%
G04 APERTURE END LIST*
D10*
%TO.N,/RUN*%
%TO.C,J1*%
X242000Y285000D03*
D11*
%TO.N,GND*%
X142000Y285000D03*
X142000Y185000D03*
%TD*%
D12*
%TO.N,GND*%
%TO.C,U1*%
X1845000Y2082500D03*
D13*
X1707500Y2082500D03*
X1570000Y2082500D03*
D12*
X1845000Y1945000D03*
X1707500Y1945000D03*
X1570000Y1945000D03*
X1845000Y1807500D03*
X1707500Y1807500D03*
X1570000Y1807500D03*
%TD*%
D14*
%TO.N,GND*%
X1709268Y2156085D03*
X487000Y1098000D03*
X487000Y1658000D03*
X727000Y1578000D03*
X565000Y782500D03*
X373000Y2035000D03*
X1367500Y1502500D03*
X887000Y858000D03*
X1287000Y1098000D03*
D15*
X225000Y705000D03*
D14*
X1287000Y698000D03*
D15*
X75000Y980000D03*
D14*
X967000Y618000D03*
X1047000Y538000D03*
X567000Y1498000D03*
D15*
X225000Y905000D03*
D14*
X1367000Y1018000D03*
X887000Y1098000D03*
X1447000Y218000D03*
X1447000Y858000D03*
X1287000Y538000D03*
X1687000Y1338000D03*
X1250000Y1658000D03*
X1607500Y1415000D03*
X1607000Y538000D03*
X1786840Y40003D03*
X569119Y1182301D03*
X967000Y1418000D03*
X887000Y218000D03*
X1047000Y858000D03*
X1447000Y1098000D03*
X1127000Y778000D03*
X1506928Y1677979D03*
X807000Y1658000D03*
X561151Y301261D03*
D15*
X75000Y630000D03*
D14*
X487000Y538000D03*
X1127000Y1018000D03*
X567000Y1258000D03*
X887000Y538000D03*
X1127000Y218000D03*
X1285771Y1691968D03*
X807000Y618000D03*
X1367000Y618000D03*
X1137278Y2121722D03*
X1287000Y858000D03*
X1367000Y778000D03*
X967000Y1258000D03*
X1447000Y538000D03*
X1668000Y193000D03*
X830960Y808083D03*
X1527000Y778000D03*
X887000Y698000D03*
X1367000Y1178000D03*
X1527000Y1018000D03*
X568000Y1338000D03*
X1447000Y698000D03*
X1047000Y1098000D03*
X1127000Y618000D03*
X1287000Y1258000D03*
X975000Y1952500D03*
X647000Y298000D03*
X1610000Y932500D03*
X1287000Y1338000D03*
X1075000Y2160250D03*
X1200000Y1833080D03*
X1883160Y1675000D03*
X807000Y1168266D03*
X487000Y218000D03*
X1127000Y1178000D03*
X1607000Y1098000D03*
X1047000Y698000D03*
X385000Y1260000D03*
X1527000Y1178000D03*
X676000Y1789000D03*
X117120Y1512120D03*
X807000Y1578000D03*
X1607000Y858000D03*
X725000Y618000D03*
X967000Y1018000D03*
X642847Y1423962D03*
X1447000Y1258000D03*
X967000Y1178000D03*
X967000Y778000D03*
X197500Y1255000D03*
X807000Y1018000D03*
X1447000Y1338000D03*
X1527000Y618000D03*
X1047000Y1498000D03*
X1607000Y698000D03*
%TO.N,/CC_CFG_CTRL_RECFG*%
X1565000Y1683000D03*
%TO.N,/CC_CFG_CTRL_EN*%
X1597266Y1498000D03*
X1960000Y127500D03*
%TO.N,/TX2_P*%
X1338000Y2364000D03*
X623713Y2273713D03*
%TO.N,/CC_CFG_CTRL_CLK*%
X1847000Y298000D03*
X1757266Y1018000D03*
%TO.N,/CC_CFG_CTRL_VALID*%
X1847500Y457500D03*
X1688983Y1418434D03*
%TO.N,/power_supply/PG_2V5*%
X795000Y2070192D03*
X92500Y2140000D03*
%TO.N,/TX2_N*%
X581287Y2231287D03*
X1338000Y2424000D03*
%TO.N,/RUN*%
X1513000Y1732000D03*
%TO.N,/RX2_P*%
X1467768Y2417752D03*
X743713Y2291213D03*
%TO.N,Net-(P1-SHIELD)*%
X1524169Y2403041D03*
X466576Y2445544D03*
%TO.N,/RX2_N*%
X1437392Y2373137D03*
X701287Y2248787D03*
%TO.N,Net-(U2B-IO_WA_A2{slash}~{CFG_FAILED})*%
X1690000Y297500D03*
X1770000Y1180000D03*
X1807500Y1680000D03*
X1687500Y700000D03*
%TO.N,/TDI*%
X1905506Y2149258D03*
X1850000Y1418000D03*
%TO.N,/TX1*%
X1607160Y2446000D03*
X649000Y534000D03*
%TO.N,/TMS*%
X1899199Y2350503D03*
X1762184Y1494500D03*
%TO.N,/RX1*%
X720000Y459000D03*
X1579392Y2153288D03*
%TO.N,/~{RST}*%
X807000Y1348000D03*
X1940000Y1905000D03*
%TO.N,/TX0*%
X1437500Y2180113D03*
X430000Y415000D03*
%TO.N,/HSTX_3_N*%
X1945164Y1675000D03*
X2017751Y1102751D03*
%TO.N,/HSTX_0_N*%
X1963781Y2155159D03*
X2185000Y1769500D03*
%TO.N,/HSTX_1_N*%
X2310000Y2240000D03*
X1980970Y727426D03*
%TO.N,/HSTX_1_P*%
X2310000Y2310000D03*
X2030467Y776924D03*
%TO.N,/HSTX_0_P*%
X2255000Y1769500D03*
X1914283Y2204657D03*
%TO.N,/HSTX_2_P*%
X2066407Y914824D03*
X2121042Y1800000D03*
%TO.N,/HSTX_2_N*%
X2121042Y1730000D03*
X2066407Y844824D03*
%TO.N,/RX0*%
X490000Y385000D03*
X1527031Y2178898D03*
%TO.N,/HSTX_3_P*%
X2003763Y1706068D03*
X2067249Y1152249D03*
%TO.N,/TDO*%
X1842600Y1496702D03*
X1785000Y2376000D03*
%TO.N,/TCK*%
X1826324Y2176481D03*
X1766684Y1415904D03*
%TO.N,Net-(U2B-IO_WA_B2{slash}CFG_DONE)*%
X1860187Y139209D03*
X1216734Y1098000D03*
%TD*%
D16*
%TO.N,/CC_CFG_CTRL_EN*%
X1597266Y1498000D02*
X1604621Y1490646D01*
X1964880Y132380D02*
X1960000Y127500D01*
X1795146Y819854D02*
X1964880Y650120D01*
X1609000Y1468000D02*
X1649120Y1427880D01*
X1649120Y1427880D02*
X1649120Y1183380D01*
X1964880Y650120D02*
X1964880Y132380D01*
X1604621Y1490646D02*
X1608146Y1490646D01*
X1609000Y1489792D02*
X1609000Y1468000D01*
X1608146Y1490646D02*
X1609000Y1489792D01*
X1649120Y1183380D02*
X1795146Y1037354D01*
X1795146Y1037354D02*
X1795146Y819854D01*
%TO.N,/TX2_P*%
X1325620Y2376380D02*
X1338000Y2364000D01*
X1313299Y2376380D02*
X1325620Y2376380D01*
X572620Y2367701D02*
X659799Y2454880D01*
X1219299Y2282380D02*
X1313299Y2376380D01*
X659799Y2454880D02*
X882701Y2454880D01*
X623713Y2273713D02*
X606205Y2273713D01*
X882701Y2454880D02*
X1055201Y2282380D01*
X1055201Y2282380D02*
X1219299Y2282380D01*
X606205Y2273713D02*
X572620Y2307299D01*
X572620Y2307299D02*
X572620Y2367701D01*
%TO.N,/CC_CFG_CTRL_CLK*%
X1889120Y393690D02*
X1889120Y340120D01*
X1910000Y414570D02*
X1889120Y393690D01*
X1889120Y661942D02*
X1889120Y602310D01*
X1911309Y416309D02*
X1910000Y415000D01*
X1910000Y415000D02*
X1910000Y414570D01*
X1889120Y602310D02*
X1911309Y580120D01*
X1757266Y1018000D02*
X1757266Y793796D01*
X1889120Y340120D02*
X1847000Y298000D01*
X1757266Y793796D02*
X1889120Y661942D01*
X1911309Y580120D02*
X1911309Y416309D01*
%TO.N,/CC_CFG_CTRL_VALID*%
X1544614Y250386D02*
X1484880Y310120D01*
X1382691Y1300120D02*
X1404880Y1322310D01*
X1759000Y379633D02*
X1759000Y306695D01*
X1254880Y1215880D02*
X1298451Y1215880D01*
X1404880Y1359184D02*
X1581576Y1535880D01*
X1641340Y1507497D02*
X1641340Y1482409D01*
X1355550Y1300120D02*
X1382691Y1300120D01*
X1688983Y1434766D02*
X1688983Y1418434D01*
X1612957Y1535880D02*
X1641340Y1507497D01*
X1461915Y334008D02*
X1384992Y334008D01*
X1484880Y311043D02*
X1461915Y334008D01*
X1298451Y1215880D02*
X1324880Y1242310D01*
X1384992Y334008D02*
X1361000Y358000D01*
X1178854Y1139854D02*
X1254880Y1215880D01*
X1641340Y1482409D02*
X1688983Y1434766D01*
X1361000Y358000D02*
X1361000Y451000D01*
X1361000Y451000D02*
X1324880Y487120D01*
X1324880Y487120D02*
X1324880Y926549D01*
X1324880Y1269451D02*
X1355550Y1300120D01*
X1759000Y306695D02*
X1702691Y250386D01*
X1581576Y1535880D02*
X1612957Y1535880D01*
X1324880Y926549D02*
X1178854Y1072576D01*
X1836867Y457500D02*
X1759000Y379633D01*
X1484880Y310120D02*
X1484880Y311043D01*
X1324880Y1242310D02*
X1324880Y1269451D01*
X1702691Y250386D02*
X1544614Y250386D01*
X1178854Y1072576D02*
X1178854Y1139854D01*
X1847500Y457500D02*
X1836867Y457500D01*
X1404880Y1322310D02*
X1404880Y1359184D01*
%TO.N,/power_supply/PG_2V5*%
X450000Y2175000D02*
X127500Y2175000D01*
X795000Y2070192D02*
X554808Y2070192D01*
X554808Y2070192D02*
X450000Y2175000D01*
X127500Y2175000D02*
X92500Y2140000D01*
%TO.N,/TX2_N*%
X897299Y2490120D02*
X1069799Y2317620D01*
X537380Y2292702D02*
X537380Y2382299D01*
X645201Y2490120D02*
X897299Y2490120D01*
X1204701Y2317620D02*
X1298701Y2411620D01*
X537380Y2382299D02*
X645201Y2490120D01*
X581287Y2231287D02*
X581287Y2248795D01*
X1069799Y2317620D02*
X1204701Y2317620D01*
X1298701Y2411620D02*
X1325620Y2411620D01*
X1325620Y2411620D02*
X1338000Y2424000D01*
X581287Y2248795D02*
X537380Y2292702D01*
%TO.N,/RUN*%
X1111310Y1215880D02*
X1086000Y1190571D01*
X982690Y260120D02*
X266880Y260120D01*
X1324880Y1322310D02*
X1302691Y1300120D01*
X1086000Y1190571D02*
X1086000Y363430D01*
X1168000Y1241190D02*
X1142691Y1215880D01*
X1410000Y1438810D02*
X1324880Y1353691D01*
X1513000Y1732000D02*
X1427174Y1732000D01*
X266880Y260120D02*
X242000Y285000D01*
X1168000Y1255000D02*
X1168000Y1241190D01*
X1324880Y1353691D02*
X1324880Y1322310D01*
X1302691Y1300120D02*
X1213120Y1300120D01*
X1410000Y1714826D02*
X1410000Y1438810D01*
X1427174Y1732000D02*
X1410000Y1714826D01*
X1213120Y1300120D02*
X1168000Y1255000D01*
X1142691Y1215880D02*
X1111310Y1215880D01*
X1086000Y363430D02*
X982690Y260120D01*
%TO.N,/RX2_P*%
X769799Y2367380D02*
X855201Y2367380D01*
X736527Y2298400D02*
X736527Y2334108D01*
X1483300Y2402220D02*
X1467768Y2417752D01*
X736527Y2334108D02*
X769799Y2367380D01*
X1363771Y2243852D02*
X1443771Y2243852D01*
X869880Y2265201D02*
X922701Y2212380D01*
X1483300Y2374119D02*
X1483300Y2402220D01*
X743713Y2291213D02*
X736527Y2298400D01*
X869880Y2352701D02*
X869880Y2265201D01*
X1332299Y2212380D02*
X1363771Y2243852D01*
X1495120Y2295201D02*
X1495120Y2362299D01*
X922701Y2212380D02*
X1332299Y2212380D01*
X855201Y2367380D02*
X869880Y2352701D01*
X1443771Y2243852D02*
X1495120Y2295201D01*
X1495120Y2362299D02*
X1483300Y2374119D01*
%TO.N,Net-(P1-SHIELD)*%
X466576Y2445544D02*
X506544Y2445544D01*
X897429Y2525000D02*
X909309Y2513120D01*
X506544Y2445544D02*
X586000Y2525000D01*
X586000Y2525000D02*
X897429Y2525000D01*
X1495880Y2513120D02*
X1527000Y2482000D01*
X1524169Y2418751D02*
X1524169Y2403041D01*
X1527000Y2482000D02*
X1527000Y2421581D01*
X909309Y2513120D02*
X1495880Y2513120D01*
X1527000Y2421581D02*
X1524169Y2418751D01*
%TO.N,/RX2_N*%
X1440252Y2370276D02*
X1437392Y2373137D01*
X1459880Y2347702D02*
X1440252Y2367329D01*
X755201Y2402620D02*
X869799Y2402620D01*
X1420079Y2269997D02*
X1459880Y2309799D01*
X869799Y2402620D02*
X905120Y2367299D01*
X701287Y2348705D02*
X755201Y2402620D01*
X905120Y2367299D02*
X905120Y2279799D01*
X1317701Y2247620D02*
X1340079Y2269997D01*
X1459880Y2309799D02*
X1459880Y2347702D01*
X701287Y2248787D02*
X701287Y2348705D01*
X1440252Y2367329D02*
X1440252Y2370276D01*
X905120Y2279799D02*
X937299Y2247620D01*
X937299Y2247620D02*
X1317701Y2247620D01*
X1340079Y2269997D02*
X1420079Y2269997D01*
%TO.N,Net-(U2B-IO_WA_A2{slash}~{CFG_FAILED})*%
X1724880Y662620D02*
X1687500Y700000D01*
X1807500Y1585372D02*
X1885438Y1507434D01*
X1827309Y1455880D02*
X1804880Y1433450D01*
X1804880Y1242380D02*
X1770000Y1207500D01*
X1858690Y1455880D02*
X1827309Y1455880D01*
X1724880Y326146D02*
X1724880Y662620D01*
X1804880Y1433450D02*
X1804880Y1242380D01*
X1885438Y1507434D02*
X1885438Y1482627D01*
X1807500Y1680000D02*
X1807500Y1585372D01*
X1885438Y1482627D02*
X1858690Y1455880D01*
X1696234Y297500D02*
X1724880Y326146D01*
X1770000Y1207500D02*
X1770000Y1180000D01*
X1690000Y297500D02*
X1696234Y297500D01*
%TO.N,/TDI*%
X1900000Y1783000D02*
X1900000Y2128524D01*
X1845380Y1637120D02*
X1845380Y1728380D01*
X1902476Y2131000D02*
X1902476Y2146228D01*
X1850000Y1418000D02*
X1893000Y1418000D01*
X1912500Y1437500D02*
X1912500Y1570000D01*
X1912500Y1570000D02*
X1845380Y1637120D01*
X1845380Y1728380D02*
X1900000Y1783000D01*
X1900000Y2128524D02*
X1902476Y2131000D01*
X1893000Y1418000D02*
X1912500Y1437500D01*
X1902476Y2146228D02*
X1905506Y2149258D01*
%TO.N,/TX1*%
X1625000Y2099092D02*
X1625000Y1915000D01*
X1623770Y2182693D02*
X1623770Y2173833D01*
X1607160Y2446000D02*
X1587120Y2425960D01*
X1142691Y1300120D02*
X1115550Y1300120D01*
X1008190Y1192761D02*
X1008190Y533191D01*
X1636715Y2110807D02*
X1625000Y2099092D01*
X1623770Y2173833D02*
X1625300Y2172304D01*
X1008190Y533191D02*
X1003008Y528008D01*
X981915Y501992D02*
X976992Y501992D01*
X1345000Y1740000D02*
X1345000Y1552780D01*
X1164880Y1322310D02*
X1142691Y1300120D01*
X1587120Y2425960D02*
X1587120Y2226511D01*
X976992Y501992D02*
X892500Y417500D01*
X1062691Y1220120D02*
X1035549Y1220120D01*
X1003008Y523085D02*
X981915Y501992D01*
X1587120Y2226511D02*
X1627354Y2186277D01*
X1084880Y1242310D02*
X1062691Y1220120D01*
X1570000Y1860000D02*
X1465000Y1860000D01*
X1164880Y1372660D02*
X1164880Y1322310D01*
X1624459Y2123064D02*
X1636715Y2110807D01*
X1035549Y1220120D02*
X1008190Y1192761D01*
X1625000Y1915000D02*
X1570000Y1860000D01*
X1625300Y2172304D02*
X1625300Y2170455D01*
X707929Y417500D02*
X649000Y476429D01*
X892500Y417500D02*
X707929Y417500D01*
X1465000Y1860000D02*
X1345000Y1740000D01*
X1084880Y1269451D02*
X1084880Y1242310D01*
X1003008Y528008D02*
X1003008Y523085D01*
X649000Y476429D02*
X649000Y534000D01*
X1627354Y2186277D02*
X1623770Y2182693D01*
X1345000Y1552780D02*
X1164880Y1372660D01*
X1115550Y1300120D02*
X1084880Y1269451D01*
X1625300Y2170455D02*
X1638120Y2157635D01*
X1638120Y2136725D02*
X1624459Y2123064D01*
X1638120Y2157635D02*
X1638120Y2136725D01*
%TO.N,/TMS*%
X1772040Y1837721D02*
X1780000Y1845681D01*
X1755176Y2137069D02*
X1755176Y2175101D01*
X1780000Y1765000D02*
X1780000Y1769319D01*
X1780000Y1983181D02*
X1780000Y2044319D01*
X1754902Y1508098D02*
X1744120Y1518880D01*
X1747100Y1732100D02*
X1780000Y1765000D01*
X1754327Y2136220D02*
X1755176Y2137069D01*
X1772040Y1777279D02*
X1772040Y1837721D01*
X1772040Y1975221D02*
X1780000Y1983181D01*
X1772040Y2052279D02*
X1772040Y2112721D01*
X1769309Y2413880D02*
X1835822Y2413880D01*
X1762184Y1494500D02*
X1754902Y1501781D01*
X1629620Y1673619D02*
X1629620Y1709910D01*
X1629620Y1709910D02*
X1651809Y1732100D01*
X1744120Y1559119D02*
X1629620Y1673619D01*
X1755176Y2175101D02*
X1740826Y2189450D01*
X1780000Y2255000D02*
X1747120Y2287880D01*
X1780000Y1769319D02*
X1772040Y1777279D01*
X1651809Y1732100D02*
X1747100Y1732100D01*
X1774933Y2115614D02*
X1754327Y2136220D01*
X1835822Y2413880D02*
X1899199Y2350503D01*
X1754902Y1501781D02*
X1754902Y1508098D01*
X1780000Y1845681D02*
X1780000Y1906819D01*
X1740826Y2189450D02*
X1740826Y2208662D01*
X1772040Y1914779D02*
X1772040Y1975221D01*
X1780000Y2247836D02*
X1780000Y2255000D01*
X1740826Y2208662D02*
X1780000Y2247836D01*
X1772040Y2112721D02*
X1774933Y2115614D01*
X1747120Y2391691D02*
X1769309Y2413880D01*
X1780000Y1906819D02*
X1772040Y1914779D01*
X1780000Y2044319D02*
X1772040Y2052279D01*
X1747120Y2287880D02*
X1747120Y2391691D01*
X1744120Y1518880D02*
X1744120Y1559119D01*
%TO.N,/RX1*%
X902690Y575880D02*
X925000Y598190D01*
X1262065Y1732909D02*
X1299725Y1732909D01*
X1159386Y1630230D02*
X1262065Y1732909D01*
X1299725Y1732909D02*
X1338179Y1771364D01*
X1338179Y1771364D02*
X1338179Y1795679D01*
X849120Y522309D02*
X849120Y553691D01*
X1583269Y2145000D02*
X1579392Y2148877D01*
X1031309Y1295880D02*
X1159386Y1423957D01*
X1579392Y2141123D02*
X1579392Y2153288D01*
X849120Y553691D02*
X871309Y575880D01*
X1564107Y2137249D02*
X1575518Y2137249D01*
X925000Y598190D02*
X925000Y1269571D01*
X925000Y1269571D02*
X951309Y1295880D01*
X1575518Y2137249D02*
X1579392Y2141123D01*
X1610700Y2145000D02*
X1583269Y2145000D01*
X1517916Y1975416D02*
X1517916Y2091058D01*
X1579392Y2148877D02*
X1579392Y2153288D01*
X1517916Y2091058D02*
X1564107Y2137249D01*
X785810Y459000D02*
X849120Y522309D01*
X720000Y459000D02*
X785810Y459000D01*
X951309Y1295880D02*
X1031309Y1295880D01*
X1338179Y1795679D02*
X1517916Y1975416D01*
X871309Y575880D02*
X902690Y575880D01*
X1612880Y2147180D02*
X1610700Y2145000D01*
X1159386Y1423957D02*
X1159386Y1630230D01*
%TO.N,/~{RST}*%
X2130000Y1342500D02*
X2130000Y1589838D01*
X259890Y117500D02*
X279390Y137000D01*
X2096383Y558442D02*
X1937500Y717326D01*
X2024209Y957162D02*
X2105129Y1038082D01*
X2042500Y1802500D02*
X1940000Y1905000D01*
X2024209Y874209D02*
X2024209Y957162D01*
X2022880Y87880D02*
X2096383Y161383D01*
X2105129Y1317629D02*
X2130000Y1342500D01*
X2105129Y1038082D02*
X2105129Y1317629D01*
X279390Y137000D02*
X1449000Y137000D01*
X81620Y153380D02*
X117500Y117500D01*
X738008Y1461992D02*
X604492Y1461992D01*
X81620Y310010D02*
X81620Y153380D01*
X1449000Y137000D02*
X1498120Y87880D01*
X117500Y117500D02*
X259890Y117500D01*
X2130000Y1589838D02*
X2042500Y1677338D01*
X2042500Y1677338D02*
X2042500Y1802500D01*
X2096383Y161383D02*
X2096383Y558442D01*
X449120Y1306620D02*
X449120Y677510D01*
X1937500Y787500D02*
X2024209Y874209D01*
X1937500Y717326D02*
X1937500Y787500D01*
X807000Y1348000D02*
X807000Y1393000D01*
X604492Y1461992D02*
X449120Y1306620D01*
X807000Y1393000D02*
X738008Y1461992D01*
X1498120Y87880D02*
X2022880Y87880D01*
X449120Y677510D02*
X81620Y310010D01*
%TO.N,/TX0*%
X849280Y1319280D02*
X650000Y1120000D01*
X849280Y1679280D02*
X849280Y1319280D01*
X1350373Y2180373D02*
X849280Y1679280D01*
X650000Y675000D02*
X524880Y549880D01*
X524880Y522309D02*
X502690Y500120D01*
X1436788Y2180373D02*
X1350373Y2180373D01*
X524880Y549880D02*
X524880Y522309D01*
X430000Y455000D02*
X430000Y415000D01*
X502690Y500120D02*
X475120Y500120D01*
X1437500Y2180113D02*
X1437048Y2180113D01*
X1437048Y2180113D02*
X1436788Y2180373D01*
X475120Y500120D02*
X430000Y455000D01*
X650000Y1120000D02*
X650000Y675000D01*
%TO.N,/HSTX_3_N*%
X1915199Y1322188D02*
X1867380Y1274370D01*
X1958523Y1661641D02*
X1958523Y1633455D01*
X1867380Y1198130D02*
X1923130Y1142380D01*
X1957380Y1632312D02*
X1957380Y1558130D01*
X1945164Y1675000D02*
X1958523Y1661641D01*
X1958523Y1633455D02*
X1957380Y1632312D01*
X2017751Y1137767D02*
X2017751Y1102751D01*
X2013138Y1142380D02*
X2017751Y1137767D01*
X1923130Y1142380D02*
X2013138Y1142380D01*
X2024685Y1354342D02*
X2024685Y1342674D01*
X1940000Y1675000D02*
X1934760Y1669760D01*
X1945164Y1675000D02*
X1940000Y1675000D01*
X1990353Y1388674D02*
X2024685Y1354342D01*
X1957380Y1558130D02*
X1990353Y1525158D01*
X2004199Y1322188D02*
X1915199Y1322188D01*
X2024685Y1342674D02*
X2004199Y1322188D01*
X1867380Y1274370D02*
X1867380Y1198130D01*
X1990353Y1525158D02*
X1990353Y1388674D01*
%TO.N,/HSTX_0_N*%
X1968038Y2159417D02*
X1987922Y2159417D01*
X2057380Y2095630D02*
X2057380Y1935630D01*
X1963781Y2155159D02*
X1968038Y2159417D01*
X2057380Y1935630D02*
X2168322Y1824689D01*
X2197380Y1795630D02*
X2197380Y1781880D01*
X2197380Y1781880D02*
X2185000Y1769500D01*
X2168322Y1824689D02*
X2197380Y1795630D01*
X1987922Y2159417D02*
X1993594Y2159417D01*
X1993594Y2159417D02*
X2057380Y2095630D01*
%TO.N,/HSTX_1_N*%
X2302732Y2174257D02*
X2362620Y2114370D01*
X2302620Y1204370D02*
X2352620Y1154370D01*
X2150496Y683507D02*
X2042398Y683507D01*
X2310000Y2240000D02*
X2316021Y2240000D01*
X2195120Y850630D02*
X2195120Y728130D01*
X2042398Y683507D02*
X1998478Y727426D01*
X2302732Y2238753D02*
X2302732Y2174257D01*
X2362620Y2114370D02*
X2362620Y1493091D01*
X1998478Y727426D02*
X1980970Y727426D01*
X2352620Y1154370D02*
X2352620Y1008130D01*
X2195120Y728130D02*
X2150496Y683507D01*
X2362620Y1493091D02*
X2302620Y1433091D01*
X2352620Y1008130D02*
X2195120Y850630D01*
X2303979Y2240000D02*
X2302732Y2238753D01*
X2302620Y1433091D02*
X2302620Y1204370D01*
X2310000Y2240000D02*
X2303979Y2240000D01*
%TO.N,/HSTX_1_P*%
X2149880Y869370D02*
X2149880Y746870D01*
X2257380Y1451831D02*
X2257380Y1185630D01*
X2257492Y2155518D02*
X2317380Y2095630D01*
X2317380Y2095630D02*
X2317380Y1511831D01*
X2317380Y1511831D02*
X2257380Y1451831D01*
X2310000Y2310000D02*
X2257492Y2257492D01*
X2307380Y1135630D02*
X2307380Y1026870D01*
X2061137Y728747D02*
X2030467Y759416D01*
X2030467Y759416D02*
X2030467Y776924D01*
X2257492Y2257492D02*
X2257492Y2155518D01*
X2131757Y728747D02*
X2061137Y728747D01*
X2307380Y1026870D02*
X2149880Y869370D01*
X2149880Y746870D02*
X2131757Y728747D01*
X2257380Y1185630D02*
X2307380Y1135630D01*
%TO.N,/HSTX_0_P*%
X2012333Y2204657D02*
X2102620Y2114370D01*
X2102620Y1954370D02*
X2200311Y1856678D01*
X2242620Y1814369D02*
X2242620Y1781880D01*
X2200311Y1856678D02*
X2242620Y1814369D01*
X2102620Y2114370D02*
X2102620Y1954370D01*
X1914283Y2204657D02*
X1987922Y2204657D01*
X1987922Y2204657D02*
X2012333Y2204657D01*
X2242620Y1781880D02*
X2255000Y1769500D01*
%TO.N,/HSTX_2_P*%
X2105000Y1800000D02*
X2070000Y1765000D01*
X2070000Y1765000D02*
X2070000Y1687403D01*
X2121042Y1800000D02*
X2105000Y1800000D01*
X2070000Y1687403D02*
X2167380Y1590023D01*
X2167380Y1266187D02*
X2130629Y1229436D01*
X2072427Y914824D02*
X2066407Y914824D01*
X2130629Y973025D02*
X2072427Y914824D01*
X2130629Y1229436D02*
X2130629Y973025D01*
X2167380Y1590023D02*
X2167380Y1266187D01*
%TO.N,/HSTX_2_N*%
X2175867Y954284D02*
X2066407Y844824D01*
X2212620Y1608762D02*
X2212620Y1247448D01*
X2212620Y1247448D02*
X2175867Y1210695D01*
X2121042Y1700340D02*
X2212620Y1608762D01*
X2121042Y1730000D02*
X2115021Y1730000D01*
X2175867Y1210695D02*
X2175867Y954284D01*
X2115021Y1730000D02*
X2114970Y1729949D01*
X2121042Y1730000D02*
X2121042Y1700340D01*
%TO.N,/RX0*%
X1485716Y2175000D02*
X1523133Y2175000D01*
X1004880Y1482309D02*
X1004880Y1513690D01*
X755000Y703000D02*
X755000Y1176923D01*
X895240Y1399810D02*
X955550Y1460120D01*
X1004880Y1513690D02*
X1243473Y1752283D01*
X982690Y1460120D02*
X1004880Y1482309D01*
X895240Y1317163D02*
X895240Y1399810D01*
X1243473Y1752283D02*
X1243473Y1827248D01*
X604880Y499880D02*
X604880Y552880D01*
X1523133Y2175000D02*
X1527031Y2178898D01*
X955550Y1460120D02*
X982690Y1460120D01*
X755000Y1176923D02*
X895240Y1317163D01*
X1312880Y1896655D02*
X1312880Y2002164D01*
X1243473Y1827248D02*
X1312880Y1896655D01*
X604880Y552880D02*
X755000Y703000D01*
X1312880Y2002164D02*
X1485716Y2175000D01*
X490000Y385000D02*
X604880Y499880D01*
%TO.N,/HSTX_3_P*%
X2022938Y1276948D02*
X1933938Y1276948D01*
X2069925Y1373081D02*
X2069925Y1323935D01*
X1941870Y1187620D02*
X2031878Y1187620D01*
X2031878Y1187620D02*
X2067249Y1152249D01*
X1912620Y1255630D02*
X1912620Y1216870D01*
X1933938Y1276948D02*
X1912620Y1255630D01*
X2003763Y1616143D02*
X2002620Y1615000D01*
X1912620Y1216870D02*
X1941870Y1187620D01*
X2003763Y1706068D02*
X2003763Y1703883D01*
X2035593Y1543897D02*
X2035593Y1407413D01*
X2002620Y1576870D02*
X2035593Y1543897D01*
X2003763Y1703883D02*
X2000000Y1700120D01*
X2035593Y1407413D02*
X2069925Y1373081D01*
X2003763Y1706068D02*
X2003763Y1616143D01*
X2069925Y1323935D02*
X2022938Y1276948D01*
X2002620Y1615000D02*
X2002620Y1576870D01*
%TO.N,/TDO*%
X1783000Y2288062D02*
X1783000Y2288063D01*
X1797280Y2102266D02*
X1797280Y2062734D01*
X1782500Y2373500D02*
X1782500Y2288562D01*
X1805240Y1835226D02*
X1797280Y1827266D01*
X1780416Y2162867D02*
X1810000Y2133284D01*
X1769620Y1569682D02*
X1842600Y1496702D01*
X1810000Y2133284D02*
X1810000Y2114986D01*
X1805240Y1917274D02*
X1805240Y1835226D01*
X1797280Y1787734D02*
X1805240Y1779774D01*
X1785000Y2376000D02*
X1782500Y2373500D01*
X1797280Y1964766D02*
X1797280Y1925234D01*
X1805240Y1779774D02*
X1805240Y1754545D01*
X1805240Y1972726D02*
X1797280Y1964766D01*
X1780416Y2195516D02*
X1780416Y2162867D01*
X1805240Y2054774D02*
X1805240Y1972726D01*
X1797280Y1925234D02*
X1805240Y1917274D01*
X1797280Y2062734D02*
X1805240Y2054774D01*
X1792500Y1722500D02*
X1769620Y1699620D01*
X1797280Y1827266D02*
X1797280Y1787734D01*
X1783000Y2288062D02*
X1810000Y2261062D01*
X1782500Y2288562D02*
X1783000Y2288062D01*
X1810000Y2114986D02*
X1797280Y2102266D01*
X1769620Y1699620D02*
X1769620Y1569682D01*
X1805240Y1754545D02*
X1792500Y1741805D01*
X1810000Y2225100D02*
X1780416Y2195516D01*
X1792500Y1741805D02*
X1792500Y1722500D01*
X1810000Y2261062D02*
X1810000Y2225100D01*
%TO.N,/TCK*%
X1717000Y1548000D02*
X1604120Y1660880D01*
X1640000Y1756353D02*
X1640000Y1843775D01*
X1764514Y1423601D02*
X1761709Y1426407D01*
X1902062Y2425000D02*
X1937079Y2389983D01*
X1657500Y1861275D02*
X1657500Y2092915D01*
X1761709Y1426407D02*
X1758593Y1426407D01*
X1663360Y2168089D02*
X1654111Y2177339D01*
X1657500Y2092915D02*
X1673901Y2109316D01*
X1604120Y1660880D02*
X1604120Y1720473D01*
X1663360Y2126271D02*
X1663360Y2168089D01*
X1758593Y1426407D02*
X1717000Y1468000D01*
X1766684Y1415904D02*
X1764514Y1418073D01*
X1673901Y2109316D02*
X1660153Y2123064D01*
X1654111Y2177339D02*
X1675000Y2198228D01*
X1718190Y2462880D02*
X1738070Y2443000D01*
X1844000Y2443000D02*
X1862000Y2425000D01*
X1664620Y2440691D02*
X1686809Y2462880D01*
X1675000Y2398930D02*
X1664620Y2409310D01*
X1826324Y2202154D02*
X1826324Y2176481D01*
X1937079Y2389983D02*
X1937079Y2312909D01*
X1664620Y2409310D02*
X1664620Y2440691D01*
X1675000Y2198228D02*
X1675000Y2398930D01*
X1686809Y2462880D02*
X1718190Y2462880D01*
X1604120Y1720473D02*
X1640000Y1756353D01*
X1660153Y2123064D02*
X1663360Y2126271D01*
X1862000Y2425000D02*
X1902062Y2425000D01*
X1937079Y2312909D02*
X1826324Y2202154D01*
X1764514Y1418073D02*
X1764514Y1423601D01*
X1738070Y2443000D02*
X1844000Y2443000D01*
X1640000Y1843775D02*
X1657500Y1861275D01*
X1717000Y1468000D02*
X1717000Y1548000D01*
%TO.N,Net-(U2B-IO_WA_B2{slash}CFG_DONE)*%
X1885380Y526050D02*
X1885380Y426013D01*
X1809120Y393690D02*
X1809120Y155880D01*
X1809120Y155880D02*
X1825791Y139209D01*
X1834246Y418816D02*
X1809120Y393690D01*
X1657000Y810500D02*
X1809120Y658380D01*
X1885380Y426013D02*
X1878184Y418816D01*
X1809120Y658380D02*
X1809120Y602310D01*
X1825791Y139209D02*
X1860187Y139209D01*
X1216734Y1098000D02*
X1258854Y1140120D01*
X1657000Y1105811D02*
X1657000Y810500D01*
X1809120Y602310D02*
X1885380Y526050D01*
X1878184Y418816D02*
X1834246Y418816D01*
X1622690Y1140120D02*
X1657000Y1105811D01*
X1258854Y1140120D02*
X1622690Y1140120D01*
%TD*%
%TA.AperFunction,Conductor*%
%TO.N,GND*%
G36*
X1146006Y1071306D02*
G01*
X1146664Y1071328D01*
X1151248Y1069727D01*
X1155897Y1068327D01*
X1156482Y1067899D01*
X1157037Y1067705D01*
X1158795Y1066208D01*
X1163302Y1062912D01*
X1298293Y927922D01*
X1304502Y918856D01*
X1307018Y908160D01*
X1307050Y906779D01*
X1307050Y835653D01*
X1305031Y824852D01*
X1299246Y815510D01*
X1290478Y808888D01*
X1284889Y806772D01*
X1276062Y804407D01*
X1276062Y804407D01*
X1269601Y800676D01*
X1269600Y800676D01*
X1264324Y795400D01*
X1264324Y795399D01*
X1260593Y788938D01*
X1260593Y788938D01*
X1258662Y781731D01*
X1258662Y774269D01*
X1260593Y767062D01*
X1260593Y767062D01*
X1264324Y760601D01*
X1264324Y760600D01*
X1269600Y755324D01*
X1269601Y755324D01*
X1276062Y751593D01*
X1276062Y751593D01*
X1276062Y751593D01*
X1283269Y749662D01*
X1283270Y749662D01*
X1284889Y749228D01*
X1285100Y749127D01*
X1285333Y749105D01*
X1290047Y746758D01*
X1294799Y744482D01*
X1294959Y744312D01*
X1295169Y744208D01*
X1298719Y740313D01*
X1302326Y736477D01*
X1302414Y736260D01*
X1302572Y736087D01*
X1304475Y731173D01*
X1306453Y726293D01*
X1306483Y725990D01*
X1306541Y725841D01*
X1307050Y720347D01*
X1307050Y675653D01*
X1305031Y664852D01*
X1299246Y655510D01*
X1290478Y648888D01*
X1284889Y646772D01*
X1276062Y644407D01*
X1276062Y644407D01*
X1269601Y640677D01*
X1269600Y640676D01*
X1264324Y635400D01*
X1264324Y635399D01*
X1260593Y628938D01*
X1260593Y628938D01*
X1258662Y621731D01*
X1258662Y614269D01*
X1260593Y607062D01*
X1260593Y607062D01*
X1264324Y600601D01*
X1264324Y600600D01*
X1269600Y595324D01*
X1269601Y595324D01*
X1276062Y591593D01*
X1276062Y591593D01*
X1276062Y591593D01*
X1283269Y589662D01*
X1283270Y589662D01*
X1284889Y589228D01*
X1294799Y584482D01*
X1302326Y576477D01*
X1306453Y566293D01*
X1307050Y560347D01*
X1307050Y490667D01*
X1307050Y483573D01*
X1308899Y479110D01*
X1309765Y477020D01*
X1334413Y452372D01*
X1336364Y449523D01*
X1338692Y446970D01*
X1339444Y445026D01*
X1340622Y443307D01*
X1341413Y439945D01*
X1342661Y436724D01*
X1342980Y433284D01*
X1343138Y432610D01*
X1343170Y431230D01*
X1343170Y423693D01*
X1341151Y412892D01*
X1335366Y403550D01*
X1326598Y396928D01*
X1316029Y393921D01*
X1305088Y394935D01*
X1301659Y396386D01*
X1301586Y396209D01*
X1299775Y396959D01*
X1292568Y398890D01*
X1292568Y398890D01*
X1285107Y398890D01*
X1285106Y398890D01*
X1277899Y396959D01*
X1277899Y396959D01*
X1271438Y393229D01*
X1271437Y393228D01*
X1266161Y387952D01*
X1266161Y387952D01*
X1262431Y381491D01*
X1262430Y381490D01*
X1260499Y374283D01*
X1260499Y366821D01*
X1262430Y359614D01*
X1262431Y359614D01*
X1266161Y353153D01*
X1267354Y351598D01*
X1267232Y351504D01*
X1272186Y344272D01*
X1274702Y333576D01*
X1273184Y322693D01*
X1268377Y314062D01*
X1268517Y313955D01*
X1267324Y312399D01*
X1263593Y305938D01*
X1263593Y305938D01*
X1261662Y298731D01*
X1261662Y291269D01*
X1263593Y284062D01*
X1263593Y284062D01*
X1267324Y277601D01*
X1267324Y277600D01*
X1272600Y272324D01*
X1272601Y272324D01*
X1279062Y268593D01*
X1279062Y268593D01*
X1286269Y266662D01*
X1286269Y266662D01*
X1286269Y266662D01*
X1293731Y266662D01*
X1293731Y266662D01*
X1300938Y268593D01*
X1303119Y269852D01*
X1307399Y272324D01*
X1307399Y272324D01*
X1307400Y272324D01*
X1312676Y277600D01*
X1312676Y277601D01*
X1312676Y277601D01*
X1316407Y284062D01*
X1316407Y284062D01*
X1316674Y285058D01*
X1318338Y291269D01*
X1318338Y298731D01*
X1318204Y299749D01*
X1318796Y310721D01*
X1323312Y320738D01*
X1331141Y328448D01*
X1341227Y332809D01*
X1352207Y333232D01*
X1359277Y331281D01*
X1364780Y329005D01*
X1374892Y318893D01*
X1381445Y316178D01*
X1388539Y316178D01*
X1395789Y316178D01*
X1401277Y313908D01*
X1405602Y311092D01*
X1409992Y308374D01*
X1410199Y308100D01*
X1410487Y307913D01*
X1413503Y303726D01*
X1416614Y299606D01*
X1416773Y299185D01*
X1416908Y298997D01*
X1417049Y298455D01*
X1418729Y294018D01*
X1419241Y292107D01*
X1420593Y287062D01*
X1424323Y280601D01*
X1424324Y280600D01*
X1429600Y275324D01*
X1429601Y275324D01*
X1436062Y271593D01*
X1436062Y271593D01*
X1436062Y271593D01*
X1443269Y269662D01*
X1443269Y269662D01*
X1443269Y269662D01*
X1450731Y269662D01*
X1450731Y269662D01*
X1457938Y271593D01*
X1457938Y271593D01*
X1463588Y274855D01*
X1463736Y274908D01*
X1463857Y275009D01*
X1468917Y276733D01*
X1473952Y278507D01*
X1474109Y278503D01*
X1474258Y278553D01*
X1479596Y278334D01*
X1484935Y278169D01*
X1485080Y278108D01*
X1485237Y278101D01*
X1490135Y275968D01*
X1495054Y273886D01*
X1495213Y273756D01*
X1495311Y273714D01*
X1498177Y271346D01*
X1499574Y270210D01*
X1499634Y270151D01*
X1529498Y240286D01*
X1534514Y235271D01*
X1535122Y235019D01*
X1537640Y232525D01*
X1539163Y230327D01*
X1541076Y228458D01*
X1542264Y225849D01*
X1543896Y223492D01*
X1544521Y220891D01*
X1545630Y218458D01*
X1545795Y215596D01*
X1546466Y212808D01*
X1546109Y210157D01*
X1546264Y207488D01*
X1545486Y203538D01*
X1543662Y196731D01*
X1543662Y189269D01*
X1545593Y182062D01*
X1545593Y182062D01*
X1549323Y175601D01*
X1549324Y175600D01*
X1554600Y170324D01*
X1554601Y170324D01*
X1561062Y166593D01*
X1561062Y166593D01*
X1565104Y165510D01*
X1565104Y165510D01*
X1568269Y164662D01*
X1575731Y164662D01*
X1578895Y165510D01*
X1578896Y165510D01*
X1580703Y165994D01*
X1582938Y166593D01*
X1587832Y169419D01*
X1589399Y170324D01*
X1589399Y170324D01*
X1589400Y170324D01*
X1594676Y175600D01*
X1594676Y175601D01*
X1594676Y175601D01*
X1598407Y182062D01*
X1598407Y182062D01*
X1598889Y183864D01*
X1600338Y189269D01*
X1600338Y196731D01*
X1600338Y196731D01*
X1600082Y198674D01*
X1600529Y198733D01*
X1599979Y205874D01*
X1603148Y216395D01*
X1609905Y225060D01*
X1619335Y230700D01*
X1629705Y232556D01*
X1707125Y232556D01*
X1717926Y230537D01*
X1727269Y224752D01*
X1733891Y215984D01*
X1736006Y210395D01*
X1738373Y201562D01*
X1738373Y201562D01*
X1742103Y195101D01*
X1742104Y195100D01*
X1747380Y189824D01*
X1747381Y189824D01*
X1753842Y186093D01*
X1753842Y186093D01*
X1761049Y184162D01*
X1761049Y184162D01*
X1761390Y184162D01*
X1762202Y184010D01*
X1762992Y183906D01*
X1762986Y183864D01*
X1772191Y182143D01*
X1781533Y176358D01*
X1788155Y167590D01*
X1791162Y157021D01*
X1791290Y154262D01*
X1791290Y152333D01*
X1792754Y148799D01*
X1793477Y147052D01*
X1795746Y136301D01*
X1793977Y125456D01*
X1788409Y115982D01*
X1779796Y109160D01*
X1769299Y105909D01*
X1765854Y105710D01*
X1517890Y105710D01*
X1507089Y107729D01*
X1497747Y113514D01*
X1496748Y114467D01*
X1459100Y152115D01*
X1459100Y152116D01*
X1452547Y154830D01*
X695039Y154830D01*
X684238Y156849D01*
X674896Y162634D01*
X668274Y171402D01*
X665267Y181971D01*
X666280Y192912D01*
X666985Y195074D01*
X668641Y199565D01*
X669676Y200600D01*
X673407Y207062D01*
X675338Y214269D01*
X675338Y217727D01*
X677184Y222734D01*
X677312Y222947D01*
X677357Y223191D01*
X680123Y227657D01*
X682816Y232170D01*
X683011Y232322D01*
X683142Y232533D01*
X687335Y235700D01*
X691475Y238934D01*
X691712Y239006D01*
X691910Y239155D01*
X696965Y240593D01*
X701993Y242113D01*
X702240Y242095D01*
X702479Y242162D01*
X705238Y242290D01*
X986237Y242290D01*
X986237Y242290D01*
X992790Y245004D01*
X1050080Y302294D01*
X1059145Y308504D01*
X1069841Y311020D01*
X1080724Y309501D01*
X1090324Y304155D01*
X1097344Y295701D01*
X1100103Y288890D01*
X1100593Y287062D01*
X1104324Y280601D01*
X1104324Y280600D01*
X1109600Y275324D01*
X1109601Y275324D01*
X1116062Y271593D01*
X1116062Y271593D01*
X1116062Y271593D01*
X1123269Y269662D01*
X1123269Y269662D01*
X1123269Y269662D01*
X1130731Y269662D01*
X1130731Y269662D01*
X1137938Y271593D01*
X1141152Y273449D01*
X1144399Y275324D01*
X1144399Y275324D01*
X1144400Y275324D01*
X1149676Y280600D01*
X1149676Y280601D01*
X1149676Y280601D01*
X1152250Y285058D01*
X1153407Y287062D01*
X1155338Y294269D01*
X1155338Y301731D01*
X1153407Y308938D01*
X1153278Y309161D01*
X1149676Y315399D01*
X1149676Y315400D01*
X1144400Y320676D01*
X1144399Y320677D01*
X1137938Y324407D01*
X1137938Y324407D01*
X1130731Y326338D01*
X1129664Y326479D01*
X1119219Y329890D01*
X1110712Y336845D01*
X1105292Y346403D01*
X1103690Y357274D01*
X1103830Y358461D01*
X1103830Y462951D01*
X1179356Y462951D01*
X1179356Y455489D01*
X1181287Y448282D01*
X1181287Y448282D01*
X1185018Y441821D01*
X1185018Y441820D01*
X1190294Y436544D01*
X1190295Y436544D01*
X1196756Y432813D01*
X1196756Y432813D01*
X1203963Y430882D01*
X1203963Y430882D01*
X1203963Y430882D01*
X1211425Y430882D01*
X1211425Y430882D01*
X1218632Y432813D01*
X1221769Y434624D01*
X1225093Y436544D01*
X1225094Y436544D01*
X1225094Y436544D01*
X1230370Y441820D01*
X1230370Y441821D01*
X1230371Y441821D01*
X1232857Y446128D01*
X1234101Y448282D01*
X1236032Y455489D01*
X1236032Y462951D01*
X1234101Y470158D01*
X1234101Y470158D01*
X1230371Y476619D01*
X1230370Y476620D01*
X1225094Y481896D01*
X1225093Y481896D01*
X1218632Y485627D01*
X1218632Y485627D01*
X1211425Y487558D01*
X1211425Y487558D01*
X1203963Y487558D01*
X1203963Y487558D01*
X1196756Y485627D01*
X1196756Y485627D01*
X1192486Y483162D01*
X1185866Y480829D01*
X1185654Y479110D01*
X1184341Y476664D01*
X1183500Y474019D01*
X1183052Y473214D01*
X1181287Y470158D01*
X1181287Y470158D01*
X1179356Y462951D01*
X1103830Y462951D01*
X1103830Y479899D01*
X1105849Y490700D01*
X1111634Y500042D01*
X1120402Y506664D01*
X1123782Y508096D01*
X1128222Y509662D01*
X1130731Y509662D01*
X1137938Y511593D01*
X1144400Y515324D01*
X1144470Y515394D01*
X1147210Y516361D01*
X1149112Y516657D01*
X1151194Y523202D01*
X1151643Y524006D01*
X1152476Y525450D01*
X1153407Y527062D01*
X1155338Y534269D01*
X1155338Y541731D01*
X1153407Y548938D01*
X1153407Y548938D01*
X1149676Y555399D01*
X1149676Y555400D01*
X1144400Y560676D01*
X1144399Y560677D01*
X1137938Y564407D01*
X1137938Y564407D01*
X1130731Y566338D01*
X1129827Y566457D01*
X1127737Y567140D01*
X1125548Y567343D01*
X1122557Y568832D01*
X1119382Y569869D01*
X1117679Y571261D01*
X1115711Y572241D01*
X1113461Y574709D01*
X1110874Y576823D01*
X1109790Y578736D01*
X1108309Y580361D01*
X1107102Y583476D01*
X1105454Y586382D01*
X1105058Y588752D01*
X1104339Y590607D01*
X1103830Y596101D01*
X1103830Y639899D01*
X1105849Y650700D01*
X1111634Y660042D01*
X1120402Y666664D01*
X1129828Y669543D01*
X1130730Y669662D01*
X1130731Y669662D01*
X1137938Y671593D01*
X1141344Y673560D01*
X1144399Y675324D01*
X1144399Y675324D01*
X1144400Y675324D01*
X1149676Y680600D01*
X1149676Y680601D01*
X1149676Y680601D01*
X1153071Y686480D01*
X1153407Y687062D01*
X1155338Y694269D01*
X1155338Y701731D01*
X1153407Y708938D01*
X1152679Y710199D01*
X1149676Y715399D01*
X1149676Y715400D01*
X1144400Y720676D01*
X1144399Y720676D01*
X1137938Y724407D01*
X1137938Y724407D01*
X1130731Y726338D01*
X1129827Y726457D01*
X1127737Y727140D01*
X1125548Y727343D01*
X1122557Y728831D01*
X1119382Y729869D01*
X1117679Y731261D01*
X1115711Y732240D01*
X1113461Y734709D01*
X1110874Y736823D01*
X1109790Y738736D01*
X1108309Y740361D01*
X1107102Y743476D01*
X1105454Y746382D01*
X1105058Y748752D01*
X1104339Y750607D01*
X1103830Y756101D01*
X1103830Y799899D01*
X1105849Y810700D01*
X1111634Y820042D01*
X1120402Y826664D01*
X1129828Y829543D01*
X1130730Y829662D01*
X1130731Y829662D01*
X1137938Y831593D01*
X1141024Y833375D01*
X1144399Y835324D01*
X1144399Y835324D01*
X1144400Y835324D01*
X1149676Y840600D01*
X1149676Y840601D01*
X1149676Y840601D01*
X1153407Y847062D01*
X1153407Y847062D01*
X1155338Y854269D01*
X1155338Y861731D01*
X1153407Y868938D01*
X1153407Y868938D01*
X1149676Y875399D01*
X1149676Y875400D01*
X1144400Y880676D01*
X1144399Y880676D01*
X1137938Y884407D01*
X1137938Y884407D01*
X1130731Y886338D01*
X1129827Y886457D01*
X1119382Y889869D01*
X1110874Y896823D01*
X1105454Y906382D01*
X1103830Y916101D01*
X1103830Y1039899D01*
X1103994Y1040774D01*
X1103882Y1041656D01*
X1104998Y1046150D01*
X1105849Y1050700D01*
X1106318Y1051457D01*
X1106532Y1052320D01*
X1109196Y1056106D01*
X1111634Y1060042D01*
X1112344Y1060579D01*
X1112856Y1061306D01*
X1116707Y1063874D01*
X1120402Y1066664D01*
X1121449Y1067035D01*
X1121999Y1067401D01*
X1124140Y1067987D01*
X1127252Y1069089D01*
X1129835Y1069662D01*
X1130731Y1069662D01*
X1135048Y1070819D01*
X1135682Y1070959D01*
X1140534Y1071123D01*
X1145376Y1071496D01*
X1146006Y1071306D01*
G37*
%TD.AperFunction*%
%TA.AperFunction,Conductor*%
G36*
X168892Y348630D02*
G01*
X178491Y343283D01*
X185511Y334829D01*
X189003Y324411D01*
X189290Y320280D01*
X189290Y241494D01*
X189882Y238516D01*
X189882Y238516D01*
X192139Y235139D01*
X194221Y233057D01*
X193911Y232746D01*
X197854Y228894D01*
X202410Y218894D01*
X203261Y210481D01*
X203000Y204126D01*
X201615Y201728D01*
X198662Y190706D01*
X198662Y179294D01*
X201538Y168561D01*
X201351Y164002D01*
X201125Y163019D01*
X201202Y162013D01*
X199900Y157692D01*
X198890Y153293D01*
X198324Y152458D01*
X198033Y151492D01*
X195258Y147932D01*
X192726Y144196D01*
X191897Y143622D01*
X191277Y142826D01*
X187403Y140510D01*
X183693Y137940D01*
X182712Y137704D01*
X181846Y137186D01*
X176825Y136287D01*
X173010Y135369D01*
X172259Y135470D01*
X171476Y135330D01*
X137271Y135330D01*
X126469Y137349D01*
X117127Y143134D01*
X116128Y144088D01*
X108207Y152008D01*
X101998Y161073D01*
X99482Y171770D01*
X99450Y173151D01*
X99450Y290240D01*
X100085Y293635D01*
X100244Y297085D01*
X101086Y298992D01*
X101469Y301041D01*
X103287Y303978D01*
X104682Y307137D01*
X106889Y309795D01*
X107254Y310383D01*
X108207Y311382D01*
X123163Y326338D01*
X138248Y341423D01*
X147313Y347632D01*
X158009Y350148D01*
X168892Y348630D01*
G37*
%TD.AperFunction*%
%TA.AperFunction,Conductor*%
G36*
X593063Y241486D02*
G01*
X597413Y241011D01*
X598434Y240482D01*
X599563Y240271D01*
X603284Y237967D01*
X607168Y235953D01*
X607928Y235091D01*
X608906Y234486D01*
X611543Y230994D01*
X614437Y227713D01*
X615155Y226211D01*
X615527Y225718D01*
X615729Y225009D01*
X616816Y222734D01*
X618662Y217727D01*
X618662Y214269D01*
X620593Y207062D01*
X624324Y200600D01*
X625359Y199565D01*
X627015Y195074D01*
X628857Y184241D01*
X626662Y173475D01*
X620725Y164228D01*
X611850Y157750D01*
X601233Y154916D01*
X598961Y154830D01*
X315238Y154830D01*
X304437Y156849D01*
X295095Y162634D01*
X288473Y171402D01*
X285466Y181971D01*
X285338Y184730D01*
X285338Y190706D01*
X282385Y201728D01*
X281877Y203621D01*
X282261Y203724D01*
X280722Y211020D01*
X282492Y221865D01*
X288059Y231338D01*
X289888Y232947D01*
X289779Y233057D01*
X290255Y233532D01*
X291598Y234453D01*
X294006Y236572D01*
X294313Y236777D01*
X294526Y236459D01*
X299320Y239742D01*
X310016Y242258D01*
X311397Y242290D01*
X588762Y242290D01*
X593063Y241486D01*
G37*
%TD.AperFunction*%
%TA.AperFunction,Conductor*%
G36*
X1479563Y1120271D02*
G01*
X1488905Y1114486D01*
X1495527Y1105718D01*
X1498238Y1096190D01*
X1498406Y1096212D01*
X1498662Y1094269D01*
X1500274Y1088253D01*
X1500593Y1087062D01*
X1504324Y1080600D01*
X1509600Y1075324D01*
X1516062Y1071593D01*
X1523269Y1069662D01*
X1523269Y1069662D01*
X1523269Y1069662D01*
X1530731Y1069662D01*
X1530731Y1069662D01*
X1537938Y1071593D01*
X1542223Y1074067D01*
X1552586Y1077719D01*
X1563569Y1077381D01*
X1573688Y1073098D01*
X1581577Y1065449D01*
X1586170Y1055466D01*
X1586846Y1044499D01*
X1583515Y1034028D01*
X1583067Y1033223D01*
X1580593Y1028938D01*
X1580593Y1028938D01*
X1578662Y1021731D01*
X1578662Y1014269D01*
X1580593Y1007062D01*
X1580593Y1007062D01*
X1584323Y1000601D01*
X1584324Y1000600D01*
X1589600Y995324D01*
X1589601Y995324D01*
X1596062Y991593D01*
X1596062Y991593D01*
X1603269Y989662D01*
X1603269Y989662D01*
X1609270Y989662D01*
X1620071Y987643D01*
X1629413Y981858D01*
X1636035Y973090D01*
X1639042Y962521D01*
X1639170Y959762D01*
X1639170Y836238D01*
X1637151Y825437D01*
X1631366Y816094D01*
X1622598Y809473D01*
X1616774Y807295D01*
X1611887Y806028D01*
X1610731Y806338D01*
X1603269Y806338D01*
X1596062Y804407D01*
X1589600Y800676D01*
X1589025Y800101D01*
X1585126Y799090D01*
X1583515Y794028D01*
X1583067Y793223D01*
X1580593Y788938D01*
X1580593Y788938D01*
X1578662Y781731D01*
X1578662Y774269D01*
X1580593Y767062D01*
X1583067Y762777D01*
X1584837Y757753D01*
X1587277Y757647D01*
X1589600Y755324D01*
X1596062Y751593D01*
X1603269Y749662D01*
X1610731Y749662D01*
X1617938Y751593D01*
X1624400Y755324D01*
X1625080Y756004D01*
X1634247Y755606D01*
X1644950Y753119D01*
X1654032Y746935D01*
X1660267Y737887D01*
X1662812Y727197D01*
X1661324Y716310D01*
X1660057Y713489D01*
X1660099Y713471D01*
X1659349Y711660D01*
X1657290Y703977D01*
X1657290Y696023D01*
X1659349Y688340D01*
X1659349Y688339D01*
X1662307Y683216D01*
X1664457Y677114D01*
X1667405Y676288D01*
X1669616Y675442D01*
X1675839Y671849D01*
X1683523Y669790D01*
X1684382Y669790D01*
X1687838Y668467D01*
X1691220Y666393D01*
X1694799Y664679D01*
X1695870Y663539D01*
X1697204Y662721D01*
X1699608Y659564D01*
X1702326Y656673D01*
X1702913Y655224D01*
X1703861Y653979D01*
X1704962Y650167D01*
X1706453Y646489D01*
X1706477Y644925D01*
X1706911Y643423D01*
X1707050Y640543D01*
X1707050Y595653D01*
X1705031Y584852D01*
X1699246Y575510D01*
X1690478Y568888D01*
X1684889Y566772D01*
X1676062Y564407D01*
X1671777Y561933D01*
X1665304Y559652D01*
X1663515Y554028D01*
X1663067Y553223D01*
X1660593Y548938D01*
X1660593Y548938D01*
X1658662Y541731D01*
X1658662Y534269D01*
X1659800Y530023D01*
X1660593Y527062D01*
X1664324Y520600D01*
X1669600Y515324D01*
X1676062Y511593D01*
X1683269Y509662D01*
X1683269Y509662D01*
X1684889Y509228D01*
X1694799Y504482D01*
X1702326Y496477D01*
X1706453Y486293D01*
X1707050Y480347D01*
X1707050Y356287D01*
X1705031Y345486D01*
X1699246Y336144D01*
X1690478Y329522D01*
X1684888Y327406D01*
X1678340Y325651D01*
X1678339Y325651D01*
X1678339Y325651D01*
X1677078Y324923D01*
X1671450Y321674D01*
X1665826Y316050D01*
X1661849Y309160D01*
X1659790Y301478D01*
X1659790Y298116D01*
X1657771Y287315D01*
X1651986Y277973D01*
X1643218Y271351D01*
X1632649Y268344D01*
X1629890Y268216D01*
X1564384Y268216D01*
X1560989Y268851D01*
X1557539Y269010D01*
X1555632Y269852D01*
X1553583Y270235D01*
X1550646Y272054D01*
X1547487Y273449D01*
X1544829Y275655D01*
X1544241Y276020D01*
X1543242Y276974D01*
X1521178Y299037D01*
X1514969Y308102D01*
X1512453Y318799D01*
X1513971Y329681D01*
X1519318Y339281D01*
X1527771Y346301D01*
X1536842Y349341D01*
X1536838Y349357D01*
X1537104Y349429D01*
X1538190Y349793D01*
X1538419Y349824D01*
X1538731Y349865D01*
X1538731Y349865D01*
X1545938Y351796D01*
X1549594Y353907D01*
X1552399Y355526D01*
X1552400Y355526D01*
X1552400Y355527D01*
X1557676Y360803D01*
X1557676Y360803D01*
X1557677Y360803D01*
X1561151Y366821D01*
X1561407Y367265D01*
X1563338Y374472D01*
X1563338Y381933D01*
X1561407Y389141D01*
X1561307Y389314D01*
X1559877Y391791D01*
X1556225Y402155D01*
X1556563Y413138D01*
X1560846Y423257D01*
X1568495Y431145D01*
X1578477Y435738D01*
X1589445Y436415D01*
X1597100Y433979D01*
X1597251Y434343D01*
X1599062Y433593D01*
X1606269Y431662D01*
X1606269Y431662D01*
X1606269Y431662D01*
X1613731Y431662D01*
X1613731Y431662D01*
X1620938Y433593D01*
X1624001Y435362D01*
X1627399Y437324D01*
X1627399Y437324D01*
X1627400Y437324D01*
X1632676Y442600D01*
X1632676Y442601D01*
X1632676Y442601D01*
X1635252Y447062D01*
X1636407Y449062D01*
X1638338Y456269D01*
X1638338Y463731D01*
X1636407Y470938D01*
X1632676Y477400D01*
X1627400Y482676D01*
X1620938Y486407D01*
X1617888Y487224D01*
X1613731Y488338D01*
X1613731Y488338D01*
X1606269Y488338D01*
X1606269Y488338D01*
X1599062Y486407D01*
X1592009Y482335D01*
X1581645Y478683D01*
X1570662Y479021D01*
X1560543Y483304D01*
X1552655Y490954D01*
X1548062Y500936D01*
X1547386Y511903D01*
X1550717Y522375D01*
X1551163Y523176D01*
X1553407Y527062D01*
X1555338Y534269D01*
X1555338Y541731D01*
X1553407Y548938D01*
X1549676Y555400D01*
X1544400Y560676D01*
X1537938Y564407D01*
X1537938Y564407D01*
X1530731Y566338D01*
X1530731Y566338D01*
X1523269Y566338D01*
X1523269Y566338D01*
X1516062Y564407D01*
X1516062Y564407D01*
X1515186Y563901D01*
X1515186Y563901D01*
X1509600Y560676D01*
X1504324Y555400D01*
X1501099Y549814D01*
X1501099Y549814D01*
X1500593Y548938D01*
X1500593Y548938D01*
X1498662Y541731D01*
X1498662Y534269D01*
X1500593Y527062D01*
X1500593Y527062D01*
X1504323Y520601D01*
X1504324Y520600D01*
X1507282Y517642D01*
X1513491Y508577D01*
X1516007Y497881D01*
X1514489Y486998D01*
X1509142Y477398D01*
X1507344Y475426D01*
X1507323Y475399D01*
X1503593Y468938D01*
X1503593Y468938D01*
X1501662Y461731D01*
X1501662Y454269D01*
X1503593Y447062D01*
X1503593Y447062D01*
X1507323Y440601D01*
X1507324Y440600D01*
X1511180Y436744D01*
X1512632Y434624D01*
X1514474Y432832D01*
X1515711Y430130D01*
X1517390Y427678D01*
X1517978Y425178D01*
X1519048Y422841D01*
X1519225Y419875D01*
X1519906Y416982D01*
X1519551Y414437D01*
X1519704Y411873D01*
X1518798Y409043D01*
X1518388Y406099D01*
X1517110Y403767D01*
X1516354Y401408D01*
X1514313Y398666D01*
X1513495Y397173D01*
X1513516Y397156D01*
X1513409Y397017D01*
X1513298Y396814D01*
X1512173Y395421D01*
X1511417Y394776D01*
X1511185Y394463D01*
X1510943Y394221D01*
X1510862Y394302D01*
X1508272Y392091D01*
X1504455Y388665D01*
X1504102Y388532D01*
X1503815Y388287D01*
X1498974Y386591D01*
X1494179Y384776D01*
X1493801Y384779D01*
X1493445Y384654D01*
X1488319Y384821D01*
X1483191Y384861D01*
X1482840Y385000D01*
X1482463Y385012D01*
X1477746Y387019D01*
X1472976Y388909D01*
X1472604Y389206D01*
X1472351Y389314D01*
X1471812Y389838D01*
X1467770Y393066D01*
X1462280Y398556D01*
X1462279Y398556D01*
X1455818Y402287D01*
X1455818Y402287D01*
X1448611Y404218D01*
X1448611Y404218D01*
X1441149Y404218D01*
X1441149Y404218D01*
X1433942Y402287D01*
X1433941Y402287D01*
X1427480Y398556D01*
X1426932Y398135D01*
X1417133Y393162D01*
X1406200Y392064D01*
X1395608Y394990D01*
X1386789Y401544D01*
X1380933Y410842D01*
X1378831Y421627D01*
X1378830Y421857D01*
X1378830Y454546D01*
X1378440Y455489D01*
X1376116Y461100D01*
X1372325Y464891D01*
X1366115Y473956D01*
X1363599Y484652D01*
X1365117Y495535D01*
X1370464Y505135D01*
X1378517Y511927D01*
X1384400Y515324D01*
X1389676Y520600D01*
X1389676Y520601D01*
X1389676Y520601D01*
X1392476Y525450D01*
X1393407Y527062D01*
X1395338Y534269D01*
X1395338Y541731D01*
X1393407Y548938D01*
X1389676Y555400D01*
X1384400Y560676D01*
X1377938Y564407D01*
X1377938Y564407D01*
X1370731Y566338D01*
X1368788Y566594D01*
X1368847Y567042D01*
X1361809Y568357D01*
X1352467Y574142D01*
X1345845Y582910D01*
X1342838Y593479D01*
X1342710Y596238D01*
X1342710Y621731D01*
X1418662Y621731D01*
X1418662Y614269D01*
X1420010Y609239D01*
X1420593Y607062D01*
X1424324Y600600D01*
X1429600Y595324D01*
X1436062Y591593D01*
X1443269Y589662D01*
X1443269Y589662D01*
X1443269Y589662D01*
X1450731Y589662D01*
X1450731Y589662D01*
X1457938Y591593D01*
X1464400Y595324D01*
X1469676Y600600D01*
X1473407Y607062D01*
X1475338Y614269D01*
X1475338Y621731D01*
X1475338Y621731D01*
X1578662Y621731D01*
X1578662Y614269D01*
X1580010Y609239D01*
X1580593Y607062D01*
X1584324Y600600D01*
X1589600Y595324D01*
X1596062Y591593D01*
X1603269Y589662D01*
X1603269Y589662D01*
X1603269Y589662D01*
X1610731Y589662D01*
X1610731Y589662D01*
X1617938Y591593D01*
X1622223Y594067D01*
X1628695Y596348D01*
X1630485Y601973D01*
X1630931Y602774D01*
X1633407Y607062D01*
X1635338Y614269D01*
X1635338Y621731D01*
X1633407Y628938D01*
X1630823Y633414D01*
X1630533Y634235D01*
X1630006Y634927D01*
X1628716Y639393D01*
X1628525Y639933D01*
X1622267Y641924D01*
X1621462Y642372D01*
X1617938Y644407D01*
X1617938Y644407D01*
X1610731Y646338D01*
X1610731Y646338D01*
X1603269Y646338D01*
X1603269Y646338D01*
X1596062Y644407D01*
X1596062Y644407D01*
X1595871Y644297D01*
X1595871Y644296D01*
X1589600Y640676D01*
X1584324Y635400D01*
X1580593Y628938D01*
X1579987Y626674D01*
X1579986Y626674D01*
X1578662Y621731D01*
X1475338Y621731D01*
X1473407Y628938D01*
X1469676Y635400D01*
X1464400Y640676D01*
X1457938Y644407D01*
X1457938Y644407D01*
X1450731Y646338D01*
X1450731Y646338D01*
X1443269Y646338D01*
X1443269Y646338D01*
X1436062Y644407D01*
X1436062Y644407D01*
X1431777Y641933D01*
X1425709Y639795D01*
X1425584Y638856D01*
X1424315Y636542D01*
X1423515Y634028D01*
X1423067Y633223D01*
X1420593Y628938D01*
X1420593Y628938D01*
X1418662Y621731D01*
X1342710Y621731D01*
X1342710Y639762D01*
X1344729Y650563D01*
X1350514Y659906D01*
X1359282Y666527D01*
X1362924Y668050D01*
X1367633Y669662D01*
X1370731Y669662D01*
X1377938Y671593D01*
X1384400Y675324D01*
X1384521Y675445D01*
X1387487Y676461D01*
X1388792Y676651D01*
X1390485Y681973D01*
X1390931Y682774D01*
X1393407Y687062D01*
X1395338Y694269D01*
X1395338Y701731D01*
X1395338Y701731D01*
X1498662Y701731D01*
X1498662Y694269D01*
X1500461Y687555D01*
X1500593Y687062D01*
X1504324Y680600D01*
X1509600Y675324D01*
X1516062Y671593D01*
X1523269Y669662D01*
X1523269Y669662D01*
X1523269Y669662D01*
X1530731Y669662D01*
X1530731Y669662D01*
X1537938Y671593D01*
X1544400Y675324D01*
X1549676Y680600D01*
X1553407Y687062D01*
X1555338Y694269D01*
X1555338Y701731D01*
X1553407Y708938D01*
X1550933Y713223D01*
X1550406Y714716D01*
X1549508Y716020D01*
X1548631Y719702D01*
X1543027Y721485D01*
X1542223Y721933D01*
X1538341Y724174D01*
X1537938Y724407D01*
X1537938Y724407D01*
X1530731Y726338D01*
X1530731Y726338D01*
X1523269Y726338D01*
X1523269Y726338D01*
X1516062Y724407D01*
X1516062Y724407D01*
X1515871Y724297D01*
X1515871Y724296D01*
X1509600Y720676D01*
X1504324Y715400D01*
X1500593Y708938D01*
X1499987Y706674D01*
X1499986Y706674D01*
X1498662Y701731D01*
X1395338Y701731D01*
X1393407Y708938D01*
X1389676Y715400D01*
X1384400Y720676D01*
X1377938Y724407D01*
X1377938Y724407D01*
X1370731Y726338D01*
X1368788Y726594D01*
X1368847Y727041D01*
X1361809Y728357D01*
X1352467Y734142D01*
X1345845Y742910D01*
X1342838Y753479D01*
X1342710Y756238D01*
X1342710Y781731D01*
X1418662Y781731D01*
X1418662Y774269D01*
X1420447Y767608D01*
X1420593Y767062D01*
X1424324Y760600D01*
X1429600Y755324D01*
X1436062Y751593D01*
X1443269Y749662D01*
X1443269Y749662D01*
X1443269Y749662D01*
X1450731Y749662D01*
X1450731Y749662D01*
X1457938Y751593D01*
X1464400Y755324D01*
X1469676Y760600D01*
X1473407Y767062D01*
X1475338Y774269D01*
X1475338Y781731D01*
X1473407Y788938D01*
X1469676Y795400D01*
X1464400Y800676D01*
X1457938Y804407D01*
X1457938Y804407D01*
X1450731Y806338D01*
X1450731Y806338D01*
X1443269Y806338D01*
X1443269Y806338D01*
X1436062Y804407D01*
X1436062Y804407D01*
X1431777Y801933D01*
X1425709Y799795D01*
X1425584Y798856D01*
X1424315Y796542D01*
X1423515Y794028D01*
X1423067Y793223D01*
X1420593Y788938D01*
X1420593Y788938D01*
X1418662Y781731D01*
X1342710Y781731D01*
X1342710Y799762D01*
X1344729Y810563D01*
X1350514Y819905D01*
X1359282Y826527D01*
X1362924Y828049D01*
X1367633Y829662D01*
X1370731Y829662D01*
X1377938Y831593D01*
X1384400Y835324D01*
X1384521Y835445D01*
X1387487Y836460D01*
X1388792Y836651D01*
X1390485Y841973D01*
X1390931Y842774D01*
X1393407Y847062D01*
X1395338Y854269D01*
X1395338Y861731D01*
X1395338Y861731D01*
X1498662Y861731D01*
X1498662Y854269D01*
X1500515Y847355D01*
X1500593Y847062D01*
X1504324Y840600D01*
X1509600Y835324D01*
X1516062Y831593D01*
X1523269Y829662D01*
X1523269Y829662D01*
X1523269Y829662D01*
X1530731Y829662D01*
X1530731Y829662D01*
X1537938Y831593D01*
X1542223Y834067D01*
X1548579Y836307D01*
X1549208Y839281D01*
X1550029Y840540D01*
X1550485Y841973D01*
X1550931Y842774D01*
X1553407Y847062D01*
X1555338Y854269D01*
X1555338Y861731D01*
X1553407Y868938D01*
X1553407Y868938D01*
X1549676Y875399D01*
X1549676Y875400D01*
X1544400Y880676D01*
X1544399Y880676D01*
X1537938Y884407D01*
X1537938Y884407D01*
X1530731Y886338D01*
X1530731Y886338D01*
X1523269Y886338D01*
X1523269Y886338D01*
X1516062Y884407D01*
X1516062Y884407D01*
X1509601Y880676D01*
X1509600Y880676D01*
X1504324Y875400D01*
X1504323Y875399D01*
X1500593Y868938D01*
X1500593Y868938D01*
X1498662Y861731D01*
X1395338Y861731D01*
X1393407Y868938D01*
X1393407Y868938D01*
X1389676Y875399D01*
X1389676Y875400D01*
X1384400Y880676D01*
X1384399Y880676D01*
X1377938Y884407D01*
X1377938Y884407D01*
X1370731Y886338D01*
X1368788Y886594D01*
X1368847Y887041D01*
X1361809Y888357D01*
X1352467Y894142D01*
X1345845Y902910D01*
X1342838Y913479D01*
X1342710Y916238D01*
X1342710Y930096D01*
X1342710Y930096D01*
X1339996Y936649D01*
X1334980Y941665D01*
X1313589Y963056D01*
X1307380Y972121D01*
X1304864Y982817D01*
X1306382Y993700D01*
X1308838Y999148D01*
X1309676Y1000600D01*
X1309676Y1000600D01*
X1313407Y1007062D01*
X1315338Y1014269D01*
X1315338Y1021731D01*
X1315338Y1021731D01*
X1418662Y1021731D01*
X1418662Y1014269D01*
X1420593Y1007062D01*
X1420593Y1007062D01*
X1424323Y1000601D01*
X1424324Y1000600D01*
X1429600Y995324D01*
X1429601Y995324D01*
X1436062Y991593D01*
X1436062Y991593D01*
X1443269Y989662D01*
X1443269Y989662D01*
X1443269Y989662D01*
X1450731Y989662D01*
X1450731Y989662D01*
X1457938Y991593D01*
X1461086Y993411D01*
X1464399Y995324D01*
X1464399Y995324D01*
X1464400Y995324D01*
X1469676Y1000600D01*
X1469676Y1000601D01*
X1469676Y1000601D01*
X1472234Y1005031D01*
X1473407Y1007062D01*
X1475338Y1014269D01*
X1475338Y1021731D01*
X1473407Y1028938D01*
X1469676Y1035400D01*
X1464400Y1040676D01*
X1457938Y1044407D01*
X1457938Y1044407D01*
X1450731Y1046338D01*
X1450731Y1046338D01*
X1443269Y1046338D01*
X1443269Y1046338D01*
X1436062Y1044407D01*
X1436062Y1044407D01*
X1435186Y1043901D01*
X1435186Y1043901D01*
X1429600Y1040676D01*
X1424324Y1035400D01*
X1421099Y1029814D01*
X1421099Y1029814D01*
X1420593Y1028938D01*
X1420593Y1028938D01*
X1418662Y1021731D01*
X1315338Y1021731D01*
X1313407Y1028938D01*
X1310933Y1033223D01*
X1307281Y1043586D01*
X1307619Y1054570D01*
X1311902Y1064689D01*
X1319552Y1072577D01*
X1329534Y1077170D01*
X1340501Y1077846D01*
X1350972Y1074515D01*
X1351777Y1074067D01*
X1352842Y1073452D01*
X1356062Y1071593D01*
X1363269Y1069662D01*
X1363269Y1069662D01*
X1363269Y1069662D01*
X1370731Y1069662D01*
X1370731Y1069662D01*
X1377938Y1071593D01*
X1384400Y1075324D01*
X1389676Y1080600D01*
X1393407Y1087062D01*
X1395338Y1094269D01*
X1395338Y1094270D01*
X1395594Y1096212D01*
X1396041Y1096153D01*
X1397357Y1103191D01*
X1403142Y1112534D01*
X1411910Y1119155D01*
X1422479Y1122163D01*
X1425238Y1122290D01*
X1468762Y1122290D01*
X1479563Y1120271D01*
G37*
%TD.AperFunction*%
%TA.AperFunction,Conductor*%
G36*
X446723Y626460D02*
G01*
X456322Y621114D01*
X463114Y613061D01*
X464823Y610101D01*
X464824Y610100D01*
X470100Y604824D01*
X470101Y604824D01*
X476562Y601093D01*
X476562Y601093D01*
X483769Y599162D01*
X483770Y599162D01*
X485177Y598977D01*
X495623Y595565D01*
X504130Y588611D01*
X509551Y579053D01*
X511153Y568182D01*
X510638Y563694D01*
X509963Y560179D01*
X509764Y559980D01*
X507050Y553427D01*
X507050Y545006D01*
X506514Y542212D01*
X505527Y539701D01*
X505031Y537049D01*
X503534Y534632D01*
X502494Y531985D01*
X500667Y530000D01*
X499246Y527707D01*
X496977Y525993D01*
X495052Y523901D01*
X492631Y522711D01*
X490478Y521085D01*
X487742Y520306D01*
X485191Y519052D01*
X482504Y518816D01*
X479909Y518077D01*
X477150Y517950D01*
X471573Y517950D01*
X468452Y516657D01*
X465020Y515235D01*
X465020Y515235D01*
X414885Y465100D01*
X414884Y465100D01*
X414370Y463857D01*
X413126Y460855D01*
X412170Y458546D01*
X412170Y451967D01*
X410151Y441166D01*
X405992Y433765D01*
X405826Y433550D01*
X405826Y433549D01*
X405826Y433549D01*
X404286Y430882D01*
X401849Y426660D01*
X399790Y418977D01*
X399790Y411023D01*
X401849Y403340D01*
X401849Y403339D01*
X404364Y398983D01*
X408016Y388620D01*
X407677Y377637D01*
X403395Y367518D01*
X395745Y359629D01*
X386209Y355152D01*
X381562Y353907D01*
X381562Y353907D01*
X375101Y350176D01*
X375100Y350176D01*
X369824Y344900D01*
X369823Y344899D01*
X366093Y338438D01*
X366093Y338438D01*
X364162Y331231D01*
X364162Y331231D01*
X364162Y323769D01*
X365528Y318672D01*
X366354Y315589D01*
X366549Y313054D01*
X367245Y310609D01*
X366968Y307623D01*
X367199Y304633D01*
X366466Y302199D01*
X366231Y299668D01*
X364895Y296983D01*
X364030Y294112D01*
X362467Y292107D01*
X361333Y289831D01*
X359117Y287811D01*
X357274Y285446D01*
X355092Y284141D01*
X353213Y282429D01*
X350417Y281345D01*
X347843Y279806D01*
X345242Y279341D01*
X342967Y278459D01*
X337473Y277950D01*
X324610Y277950D01*
X313809Y279969D01*
X304466Y285754D01*
X297845Y294522D01*
X294837Y305091D01*
X294710Y307850D01*
X294710Y328506D01*
X294264Y330746D01*
X294118Y331484D01*
X291861Y334861D01*
X289941Y336144D01*
X288484Y337118D01*
X285506Y337710D01*
X206720Y337710D01*
X195919Y339729D01*
X186577Y345514D01*
X179955Y354282D01*
X176948Y364851D01*
X177961Y375792D01*
X182859Y385629D01*
X185577Y388752D01*
X416078Y619253D01*
X425143Y625463D01*
X435840Y627979D01*
X446723Y626460D01*
G37*
%TD.AperFunction*%
%TA.AperFunction,Conductor*%
G36*
X624717Y471064D02*
G01*
X634316Y465717D01*
X636357Y463857D01*
X697830Y402384D01*
X704383Y399670D01*
X711476Y399670D01*
X752030Y399670D01*
X752587Y399566D01*
X753147Y399649D01*
X757971Y398559D01*
X762832Y397651D01*
X763313Y397353D01*
X763865Y397228D01*
X767969Y394470D01*
X772174Y391866D01*
X772515Y391415D01*
X772985Y391099D01*
X775815Y387045D01*
X778796Y383098D01*
X779044Y382419D01*
X779275Y382089D01*
X779661Y380734D01*
X781074Y376873D01*
X781662Y374471D01*
X781662Y373769D01*
X783593Y366562D01*
X783598Y366553D01*
X783706Y366114D01*
X783990Y360951D01*
X784388Y355794D01*
X784292Y355475D01*
X784310Y355142D01*
X782711Y350226D01*
X781219Y345273D01*
X781014Y345010D01*
X780911Y344693D01*
X777643Y340686D01*
X774463Y336607D01*
X774177Y336436D01*
X773966Y336178D01*
X769473Y333623D01*
X765032Y330967D01*
X764704Y330911D01*
X764414Y330746D01*
X759301Y329987D01*
X754202Y329114D01*
X753875Y329181D01*
X753545Y329132D01*
X748502Y330271D01*
X743433Y331299D01*
X742989Y331516D01*
X742827Y331553D01*
X742595Y331708D01*
X739712Y333116D01*
X737938Y334141D01*
X737938Y334141D01*
X730731Y336072D01*
X730731Y336072D01*
X723269Y336072D01*
X723269Y336072D01*
X716062Y334141D01*
X716062Y334141D01*
X709601Y330410D01*
X709600Y330410D01*
X704324Y325134D01*
X704324Y325133D01*
X700593Y318672D01*
X700593Y318672D01*
X698662Y311465D01*
X698662Y307850D01*
X696643Y297049D01*
X690859Y287707D01*
X682090Y281085D01*
X671521Y278078D01*
X668762Y277950D01*
X544653Y277950D01*
X533852Y279969D01*
X524510Y285754D01*
X518104Y294097D01*
X515338Y299436D01*
X515338Y301731D01*
X513407Y308938D01*
X509676Y315400D01*
X504400Y320676D01*
X504308Y320729D01*
X502135Y324923D01*
X501863Y325824D01*
X501332Y326599D01*
X500283Y331058D01*
X498960Y335443D01*
X499032Y336380D01*
X498816Y337295D01*
X499449Y341832D01*
X499799Y346399D01*
X500205Y347247D01*
X500335Y348178D01*
X502563Y352180D01*
X504539Y356312D01*
X505224Y356957D01*
X505681Y357778D01*
X507542Y359819D01*
X508549Y360826D01*
X508549Y360826D01*
X514174Y366451D01*
X518151Y373339D01*
X520210Y381023D01*
X520210Y381024D01*
X520245Y381292D01*
X520450Y381918D01*
X520717Y382916D01*
X520771Y382901D01*
X523657Y391737D01*
X528747Y398531D01*
X594073Y463857D01*
X603138Y470067D01*
X613834Y472582D01*
X624717Y471064D01*
G37*
%TD.AperFunction*%
%TA.AperFunction,Conductor*%
G36*
X1043344Y519814D02*
G01*
X1047772Y519196D01*
X1048693Y518684D01*
X1049723Y518466D01*
X1053466Y516025D01*
X1057372Y513850D01*
X1058045Y513039D01*
X1058927Y512463D01*
X1061536Y508835D01*
X1064391Y505396D01*
X1064726Y504397D01*
X1065341Y503541D01*
X1066463Y499215D01*
X1067883Y494977D01*
X1068001Y493284D01*
X1068099Y492905D01*
X1068054Y492518D01*
X1068170Y490846D01*
X1068170Y383200D01*
X1066151Y372399D01*
X1060366Y363057D01*
X1059413Y362058D01*
X1039569Y342214D01*
X998832Y301477D01*
X984063Y286708D01*
X981213Y284756D01*
X978660Y282429D01*
X976717Y281676D01*
X974997Y280498D01*
X971635Y279707D01*
X968414Y278459D01*
X964975Y278141D01*
X964301Y277982D01*
X962920Y277950D01*
X944653Y277950D01*
X933852Y279969D01*
X924510Y285754D01*
X917888Y294522D01*
X915772Y300111D01*
X915338Y301731D01*
X915338Y301731D01*
X913407Y308938D01*
X913407Y308938D01*
X913407Y308939D01*
X909676Y315400D01*
X908619Y316777D01*
X903646Y326575D01*
X902547Y337509D01*
X905473Y348100D01*
X911198Y356122D01*
X912676Y357600D01*
X912676Y357600D01*
X912676Y357601D01*
X916407Y364062D01*
X916407Y364062D01*
X918338Y371269D01*
X918338Y378731D01*
X916407Y385938D01*
X915657Y387749D01*
X915890Y387845D01*
X913153Y395611D01*
X913491Y406594D01*
X917774Y416714D01*
X921555Y421340D01*
X979407Y479191D01*
X980929Y480611D01*
X985013Y484162D01*
X985462Y484162D01*
X992015Y486876D01*
X1017866Y512727D01*
X1018651Y513410D01*
X1022505Y515673D01*
X1026193Y518199D01*
X1027218Y518440D01*
X1028127Y518973D01*
X1032538Y519691D01*
X1036889Y520715D01*
X1037933Y520569D01*
X1038972Y520738D01*
X1043344Y519814D01*
G37*
%TD.AperFunction*%
%TA.AperFunction,Conductor*%
G36*
X909182Y557751D02*
G01*
X910705Y557591D01*
X914480Y557636D01*
X916128Y557020D01*
X917878Y556836D01*
X921236Y555111D01*
X924773Y553790D01*
X926088Y552620D01*
X927653Y551816D01*
X930161Y548995D01*
X932982Y546485D01*
X933785Y544919D01*
X934954Y543604D01*
X937352Y538635D01*
X938662Y535123D01*
X938662Y534269D01*
X940593Y527062D01*
X943638Y521788D01*
X944510Y519451D01*
X946395Y508626D01*
X944241Y497851D01*
X938341Y488581D01*
X937640Y487855D01*
X893872Y444088D01*
X884807Y437878D01*
X874111Y435362D01*
X872730Y435330D01*
X859541Y435330D01*
X848740Y437349D01*
X839397Y443134D01*
X832775Y451902D01*
X829768Y462471D01*
X830782Y473412D01*
X835680Y483249D01*
X838398Y486372D01*
X864236Y512210D01*
X866613Y517950D01*
X866950Y518763D01*
X866950Y528150D01*
X868969Y538951D01*
X874754Y548294D01*
X883522Y554915D01*
X894091Y557923D01*
X896850Y558050D01*
X909182Y558050D01*
X909182Y557751D01*
G37*
%TD.AperFunction*%
%TA.AperFunction,Conductor*%
G36*
X443201Y2152981D02*
G01*
X452543Y2147196D01*
X453542Y2146243D01*
X466212Y2133573D01*
X472422Y2124508D01*
X474937Y2113811D01*
X473419Y2102928D01*
X468450Y2094006D01*
X468517Y2093955D01*
X468167Y2093498D01*
X468072Y2093329D01*
X467847Y2093082D01*
X467323Y2092399D01*
X463593Y2085938D01*
X463593Y2085938D01*
X461662Y2078731D01*
X461662Y2071269D01*
X463593Y2064062D01*
X463593Y2064062D01*
X467323Y2057601D01*
X467324Y2057600D01*
X472600Y2052324D01*
X472601Y2052324D01*
X479062Y2048593D01*
X479062Y2048593D01*
X486269Y2046662D01*
X486269Y2046662D01*
X486269Y2046662D01*
X493731Y2046662D01*
X493731Y2046662D01*
X500938Y2048593D01*
X505299Y2051111D01*
X507399Y2052324D01*
X507399Y2052324D01*
X507400Y2052324D01*
X507400Y2052324D01*
X508955Y2053517D01*
X509139Y2053277D01*
X510472Y2054190D01*
X514146Y2057032D01*
X514984Y2057281D01*
X515705Y2057775D01*
X520227Y2058839D01*
X524680Y2060162D01*
X525551Y2060092D01*
X526401Y2060292D01*
X531002Y2059650D01*
X535632Y2059276D01*
X536489Y2058886D01*
X537284Y2058775D01*
X540800Y2057343D01*
X543979Y2055806D01*
X544708Y2055077D01*
X549342Y2053157D01*
X551261Y2052362D01*
X551261Y2052362D01*
X558354Y2052362D01*
X635786Y2052362D01*
X646587Y2050343D01*
X655930Y2044559D01*
X662552Y2035790D01*
X665559Y2025221D01*
X664545Y2014280D01*
X659647Y2004443D01*
X653988Y1998741D01*
X652600Y1997676D01*
X647324Y1992400D01*
X647324Y1992399D01*
X643593Y1985938D01*
X643593Y1985938D01*
X641662Y1978731D01*
X641662Y1971269D01*
X643593Y1964062D01*
X643593Y1964062D01*
X647324Y1957601D01*
X647324Y1957600D01*
X652600Y1952324D01*
X652601Y1952324D01*
X659062Y1948593D01*
X659062Y1948593D01*
X666269Y1946662D01*
X666269Y1946662D01*
X666269Y1946662D01*
X673731Y1946662D01*
X673731Y1946662D01*
X680938Y1948593D01*
X686300Y1951689D01*
X687399Y1952324D01*
X687399Y1952324D01*
X687400Y1952324D01*
X692676Y1957600D01*
X692676Y1957601D01*
X692676Y1957601D01*
X695519Y1962525D01*
X696407Y1964062D01*
X698338Y1971269D01*
X698338Y1978731D01*
X696407Y1985938D01*
X696335Y1986062D01*
X692676Y1992399D01*
X692676Y1992400D01*
X687400Y1997676D01*
X686012Y1998741D01*
X685158Y1999693D01*
X684070Y2000366D01*
X681510Y2003756D01*
X678672Y2006918D01*
X678219Y2008114D01*
X677449Y2009135D01*
X676286Y2013222D01*
X674782Y2017195D01*
X674791Y2018473D01*
X674441Y2019703D01*
X674833Y2023935D01*
X674866Y2028183D01*
X675337Y2029371D01*
X675455Y2030645D01*
X677349Y2034448D01*
X678914Y2038398D01*
X679783Y2039336D01*
X680353Y2040481D01*
X683493Y2043343D01*
X686379Y2046461D01*
X687529Y2047022D01*
X688474Y2047884D01*
X692435Y2049418D01*
X696253Y2051283D01*
X697784Y2051491D01*
X698720Y2051853D01*
X704214Y2052362D01*
X758033Y2052362D01*
X768834Y2050343D01*
X776236Y2046183D01*
X776450Y2046018D01*
X776451Y2046018D01*
X783339Y2042041D01*
X791023Y2039982D01*
X791023Y2039982D01*
X798977Y2039982D01*
X798977Y2039982D01*
X806661Y2042041D01*
X813549Y2046018D01*
X819174Y2051643D01*
X823151Y2058532D01*
X825210Y2066215D01*
X825210Y2074169D01*
X823151Y2081853D01*
X819174Y2088742D01*
X813549Y2094366D01*
X806661Y2098344D01*
X798977Y2100402D01*
X791023Y2100402D01*
X783339Y2098344D01*
X776451Y2094366D01*
X776451Y2094366D01*
X776236Y2094201D01*
X775650Y2093904D01*
X774754Y2093386D01*
X774726Y2093435D01*
X766437Y2089228D01*
X758033Y2088022D01*
X643078Y2088022D01*
X632277Y2090041D01*
X622934Y2095826D01*
X616312Y2104595D01*
X613305Y2115164D01*
X613178Y2117922D01*
X613178Y2125100D01*
X615197Y2135901D01*
X620981Y2145244D01*
X629750Y2151865D01*
X640319Y2154873D01*
X643078Y2155000D01*
X990131Y2155000D01*
X1000932Y2152981D01*
X1010274Y2147196D01*
X1016896Y2138428D01*
X1019903Y2127859D01*
X1018889Y2116918D01*
X1016025Y2110150D01*
X1013593Y2105938D01*
X1013593Y2105938D01*
X1011662Y2098731D01*
X1011662Y2091269D01*
X1013593Y2084062D01*
X1013593Y2084062D01*
X1017323Y2077601D01*
X1017324Y2077600D01*
X1022600Y2072324D01*
X1022601Y2072324D01*
X1029062Y2068593D01*
X1029062Y2068593D01*
X1036269Y2066662D01*
X1036269Y2066662D01*
X1036269Y2066662D01*
X1043731Y2066662D01*
X1043731Y2066662D01*
X1050938Y2068593D01*
X1055573Y2071269D01*
X1057399Y2072324D01*
X1057399Y2072324D01*
X1057400Y2072324D01*
X1062676Y2077600D01*
X1062676Y2077601D01*
X1062676Y2077601D01*
X1066182Y2083673D01*
X1066407Y2084062D01*
X1068338Y2091269D01*
X1068338Y2098731D01*
X1066407Y2105938D01*
X1065747Y2107081D01*
X1063975Y2110150D01*
X1060323Y2120514D01*
X1060662Y2131497D01*
X1064945Y2141616D01*
X1072594Y2149504D01*
X1082576Y2154097D01*
X1089869Y2155000D01*
X1227600Y2155000D01*
X1238401Y2152981D01*
X1247743Y2147196D01*
X1254365Y2138428D01*
X1257372Y2127859D01*
X1256358Y2116918D01*
X1251460Y2107081D01*
X1248742Y2103958D01*
X841423Y1696639D01*
X841423Y1696638D01*
X839180Y1694395D01*
X834164Y1689380D01*
X831450Y1682827D01*
X831450Y1681215D01*
X828117Y1676060D01*
X826174Y1674011D01*
X824633Y1671646D01*
X822427Y1670059D01*
X820556Y1668086D01*
X818005Y1666877D01*
X815714Y1665229D01*
X813083Y1664546D01*
X810626Y1663382D01*
X807810Y1663176D01*
X805079Y1662467D01*
X802378Y1662780D01*
X799667Y1662582D01*
X796967Y1663408D01*
X794164Y1663733D01*
X791759Y1665001D01*
X789159Y1665796D01*
X786940Y1667541D01*
X784443Y1668857D01*
X782658Y1670908D01*
X780522Y1672588D01*
X779083Y1675017D01*
X777230Y1677146D01*
X777114Y1677345D01*
X776570Y1678287D01*
X776570Y1678287D01*
X771294Y1683563D01*
X771294Y1683564D01*
X771293Y1683564D01*
X764832Y1687294D01*
X764832Y1687294D01*
X757625Y1689225D01*
X757625Y1689225D01*
X750163Y1689225D01*
X750163Y1689225D01*
X742956Y1687294D01*
X742956Y1687294D01*
X734797Y1682584D01*
X734715Y1682727D01*
X726951Y1678786D01*
X716017Y1677688D01*
X705426Y1680614D01*
X696607Y1687169D01*
X692654Y1692531D01*
X691578Y1694395D01*
X689428Y1698120D01*
X684151Y1703396D01*
X684151Y1703396D01*
X684151Y1703396D01*
X677690Y1707126D01*
X677689Y1707127D01*
X670482Y1709058D01*
X670482Y1709058D01*
X663021Y1709058D01*
X663021Y1709058D01*
X655814Y1707127D01*
X655813Y1707126D01*
X649352Y1703396D01*
X649351Y1703396D01*
X644076Y1698120D01*
X644075Y1698119D01*
X640345Y1691658D01*
X640345Y1691658D01*
X639605Y1688897D01*
X634859Y1678987D01*
X626853Y1671460D01*
X616669Y1667334D01*
X605682Y1667165D01*
X595376Y1670976D01*
X589582Y1675494D01*
X584400Y1680676D01*
X584399Y1680676D01*
X577938Y1684407D01*
X577938Y1684407D01*
X570731Y1686338D01*
X570731Y1686338D01*
X563269Y1686338D01*
X563269Y1686338D01*
X556062Y1684407D01*
X556062Y1684407D01*
X549601Y1680676D01*
X549600Y1680676D01*
X544324Y1675400D01*
X544324Y1675399D01*
X540593Y1668938D01*
X540593Y1668938D01*
X538662Y1661731D01*
X538662Y1654269D01*
X540593Y1647062D01*
X540593Y1647062D01*
X544324Y1640601D01*
X544324Y1640600D01*
X549600Y1635324D01*
X549601Y1635324D01*
X556062Y1631593D01*
X556062Y1631593D01*
X563269Y1629662D01*
X563269Y1629662D01*
X563269Y1629662D01*
X570731Y1629662D01*
X570731Y1629662D01*
X577938Y1631593D01*
X582223Y1634067D01*
X592586Y1637719D01*
X603569Y1637381D01*
X613688Y1633098D01*
X621577Y1625449D01*
X626170Y1615466D01*
X626846Y1604499D01*
X623515Y1594028D01*
X623067Y1593223D01*
X620593Y1588938D01*
X620593Y1588938D01*
X618662Y1581731D01*
X618662Y1574269D01*
X620593Y1567062D01*
X620593Y1567062D01*
X624324Y1560601D01*
X624324Y1560600D01*
X625782Y1559142D01*
X631991Y1550077D01*
X634507Y1539381D01*
X632989Y1528498D01*
X631359Y1524582D01*
X629194Y1520270D01*
X624324Y1515400D01*
X620593Y1508938D01*
X618662Y1501731D01*
X618662Y1499296D01*
X615962Y1493920D01*
X615637Y1493493D01*
X615470Y1492982D01*
X612321Y1489132D01*
X609311Y1485174D01*
X608853Y1484892D01*
X608513Y1484477D01*
X600685Y1479714D01*
X594392Y1477108D01*
X434005Y1316720D01*
X434004Y1316720D01*
X433390Y1315236D01*
X432136Y1312210D01*
X431290Y1310167D01*
X431290Y1057011D01*
X429271Y1046210D01*
X423486Y1036868D01*
X414718Y1030246D01*
X404149Y1027239D01*
X393207Y1028253D01*
X386440Y1031117D01*
X385938Y1031407D01*
X385938Y1031407D01*
X378731Y1033338D01*
X378731Y1033338D01*
X371269Y1033338D01*
X371269Y1033338D01*
X364062Y1031407D01*
X364062Y1031407D01*
X357601Y1027676D01*
X357600Y1027676D01*
X352324Y1022400D01*
X352323Y1022399D01*
X348593Y1015938D01*
X348593Y1015938D01*
X346662Y1008731D01*
X346662Y1001269D01*
X348593Y994062D01*
X348593Y994062D01*
X352323Y987601D01*
X352324Y987600D01*
X357600Y982324D01*
X357601Y982324D01*
X364062Y978593D01*
X364062Y978593D01*
X371269Y976662D01*
X371269Y976662D01*
X371269Y976662D01*
X378731Y976662D01*
X378731Y976662D01*
X385938Y978593D01*
X386440Y978883D01*
X387318Y979193D01*
X388062Y979754D01*
X392476Y981010D01*
X396803Y982535D01*
X397735Y982506D01*
X398631Y982761D01*
X403200Y982338D01*
X407786Y982197D01*
X408644Y981833D01*
X409572Y981747D01*
X413679Y979702D01*
X417905Y977914D01*
X418574Y977265D01*
X419409Y976850D01*
X422500Y973459D01*
X425794Y970265D01*
X426183Y969418D01*
X426811Y968729D01*
X428469Y964451D01*
X430387Y960282D01*
X430529Y959133D01*
X430781Y958483D01*
X431290Y952989D01*
X431290Y922240D01*
X429271Y911439D01*
X423486Y902097D01*
X414718Y895475D01*
X404149Y892468D01*
X395688Y893186D01*
X395674Y893082D01*
X393731Y893338D01*
X393731Y893338D01*
X386269Y893338D01*
X386269Y893338D01*
X379062Y891407D01*
X379062Y891407D01*
X372601Y887676D01*
X372600Y887676D01*
X367324Y882400D01*
X367323Y882399D01*
X363593Y875938D01*
X363593Y875938D01*
X361662Y868731D01*
X361662Y861269D01*
X363593Y854062D01*
X363593Y854062D01*
X367323Y847601D01*
X367324Y847600D01*
X372600Y842324D01*
X372601Y842324D01*
X379062Y838593D01*
X379062Y838593D01*
X386269Y836662D01*
X386269Y836662D01*
X386269Y836662D01*
X393731Y836662D01*
X395674Y836918D01*
X395690Y836798D01*
X404605Y837486D01*
X415127Y834317D01*
X423793Y827562D01*
X429433Y818132D01*
X431290Y807760D01*
X431290Y697281D01*
X429271Y686480D01*
X423486Y677137D01*
X422532Y676138D01*
X212392Y465998D01*
X203327Y459788D01*
X192630Y457272D01*
X181747Y458790D01*
X172148Y464137D01*
X165128Y472591D01*
X161924Y481307D01*
X161924Y481308D01*
X161628Y482795D01*
X154445Y500137D01*
X144017Y515744D01*
X130744Y529017D01*
X129729Y529695D01*
X117333Y537977D01*
X115137Y539445D01*
X109618Y541731D01*
X97795Y546628D01*
X79385Y550290D01*
X79385Y550290D01*
X73041Y550290D01*
X45190Y550290D01*
X34389Y552309D01*
X25046Y558094D01*
X18425Y566862D01*
X15417Y577431D01*
X15290Y580190D01*
X15290Y659810D01*
X17309Y670611D01*
X23094Y679954D01*
X31862Y686575D01*
X42431Y689583D01*
X45190Y689710D01*
X80086Y689710D01*
X80087Y689710D01*
X99953Y693213D01*
X118910Y700113D01*
X136380Y710199D01*
X151834Y723166D01*
X164801Y738620D01*
X174887Y756090D01*
X181787Y775047D01*
X185290Y794913D01*
X185290Y815087D01*
X181787Y834953D01*
X174887Y853910D01*
X164801Y871380D01*
X151834Y886834D01*
X136380Y899801D01*
X132219Y902203D01*
X118910Y909887D01*
X118910Y909887D01*
X118910Y909887D01*
X109041Y913479D01*
X99953Y916787D01*
X84248Y919556D01*
X80087Y920290D01*
X80086Y920290D01*
X45190Y920290D01*
X34389Y922309D01*
X25046Y928094D01*
X18425Y936862D01*
X15417Y947431D01*
X15290Y950190D01*
X15290Y1086231D01*
X199162Y1086231D01*
X199162Y1078769D01*
X201093Y1071562D01*
X201093Y1071562D01*
X204823Y1065101D01*
X204824Y1065100D01*
X210100Y1059824D01*
X210101Y1059824D01*
X216562Y1056093D01*
X216562Y1056093D01*
X223769Y1054162D01*
X223769Y1054162D01*
X223769Y1054162D01*
X231231Y1054162D01*
X231231Y1054162D01*
X238438Y1056093D01*
X240880Y1057503D01*
X244899Y1059824D01*
X244899Y1059824D01*
X244900Y1059824D01*
X250176Y1065100D01*
X250176Y1065101D01*
X250176Y1065101D01*
X253300Y1070512D01*
X253907Y1071562D01*
X255838Y1078769D01*
X255838Y1086231D01*
X253907Y1093438D01*
X253716Y1093769D01*
X250176Y1099899D01*
X250176Y1099900D01*
X244900Y1105176D01*
X244899Y1105177D01*
X238438Y1108907D01*
X238438Y1108907D01*
X231231Y1110838D01*
X231231Y1110838D01*
X223769Y1110838D01*
X223769Y1110838D01*
X216562Y1108907D01*
X216562Y1108907D01*
X210101Y1105177D01*
X210100Y1105176D01*
X204824Y1099900D01*
X204823Y1099899D01*
X201093Y1093438D01*
X201093Y1093438D01*
X199162Y1086231D01*
X15290Y1086231D01*
X15290Y1258731D01*
X266662Y1258731D01*
X266662Y1251269D01*
X268593Y1244062D01*
X268593Y1244062D01*
X272324Y1237601D01*
X272324Y1237600D01*
X277600Y1232324D01*
X277601Y1232324D01*
X284062Y1228593D01*
X284062Y1228593D01*
X291269Y1226662D01*
X291269Y1226662D01*
X291269Y1226662D01*
X298731Y1226662D01*
X298731Y1226662D01*
X305938Y1228593D01*
X310262Y1231090D01*
X312399Y1232324D01*
X312399Y1232324D01*
X312400Y1232324D01*
X317676Y1237600D01*
X317676Y1237601D01*
X317676Y1237601D01*
X320163Y1241908D01*
X321407Y1244062D01*
X323338Y1251269D01*
X323338Y1258731D01*
X321407Y1265938D01*
X321407Y1265938D01*
X317676Y1272399D01*
X317676Y1272400D01*
X312400Y1277676D01*
X312399Y1277677D01*
X305938Y1281407D01*
X305938Y1281407D01*
X298731Y1283338D01*
X298731Y1283338D01*
X291269Y1283338D01*
X291269Y1283338D01*
X284062Y1281407D01*
X284062Y1281407D01*
X277601Y1277677D01*
X277600Y1277676D01*
X272324Y1272400D01*
X272324Y1272399D01*
X268593Y1265938D01*
X268593Y1265938D01*
X266662Y1258731D01*
X15290Y1258731D01*
X15290Y1495162D01*
X236483Y1495162D01*
X236483Y1487700D01*
X238414Y1480493D01*
X238414Y1480492D01*
X242145Y1474031D01*
X242145Y1474031D01*
X247421Y1468755D01*
X247422Y1468754D01*
X253883Y1465024D01*
X253883Y1465024D01*
X261090Y1463093D01*
X261090Y1463093D01*
X261090Y1463093D01*
X268552Y1463093D01*
X268552Y1463093D01*
X275759Y1465024D01*
X278566Y1466644D01*
X282221Y1468754D01*
X282221Y1468754D01*
X282221Y1468755D01*
X287497Y1474031D01*
X287497Y1474031D01*
X287498Y1474031D01*
X291228Y1480492D01*
X291228Y1480493D01*
X293159Y1487700D01*
X293159Y1495161D01*
X291399Y1501731D01*
X458662Y1501731D01*
X458662Y1494269D01*
X460593Y1487062D01*
X460593Y1487062D01*
X464323Y1480601D01*
X464324Y1480600D01*
X469600Y1475324D01*
X469601Y1475324D01*
X476062Y1471593D01*
X476062Y1471593D01*
X483269Y1469662D01*
X483269Y1469662D01*
X483269Y1469662D01*
X490731Y1469662D01*
X490731Y1469662D01*
X497938Y1471593D01*
X502160Y1474031D01*
X504399Y1475324D01*
X504399Y1475324D01*
X504400Y1475324D01*
X509676Y1480600D01*
X509676Y1480601D01*
X509676Y1480601D01*
X512711Y1485856D01*
X513407Y1487062D01*
X515338Y1494269D01*
X515338Y1501731D01*
X513407Y1508938D01*
X511450Y1512327D01*
X509676Y1515399D01*
X509676Y1515400D01*
X504400Y1520676D01*
X504399Y1520676D01*
X497938Y1524407D01*
X497938Y1524407D01*
X490731Y1526338D01*
X490731Y1526338D01*
X483269Y1526338D01*
X483269Y1526338D01*
X476062Y1524407D01*
X476062Y1524407D01*
X469601Y1520676D01*
X469600Y1520676D01*
X464324Y1515400D01*
X464323Y1515399D01*
X460593Y1508938D01*
X460593Y1508938D01*
X458662Y1501731D01*
X291399Y1501731D01*
X291228Y1502369D01*
X291124Y1502549D01*
X287498Y1508830D01*
X287497Y1508831D01*
X282221Y1514107D01*
X282221Y1514107D01*
X275760Y1517837D01*
X275759Y1517838D01*
X268552Y1519769D01*
X268552Y1519769D01*
X261090Y1519769D01*
X261090Y1519769D01*
X253883Y1517838D01*
X253883Y1517837D01*
X247422Y1514107D01*
X247421Y1514107D01*
X242145Y1508831D01*
X242145Y1508830D01*
X238414Y1502369D01*
X238414Y1502369D01*
X236483Y1495162D01*
X15290Y1495162D01*
X15290Y1886762D01*
X17309Y1897563D01*
X23094Y1906905D01*
X31862Y1913527D01*
X41795Y1916353D01*
X41788Y1916406D01*
X42146Y1916453D01*
X42431Y1916534D01*
X42942Y1916558D01*
X43730Y1916662D01*
X43731Y1916662D01*
X50938Y1918593D01*
X55289Y1921105D01*
X57399Y1922324D01*
X57399Y1922324D01*
X57400Y1922324D01*
X62676Y1927600D01*
X62676Y1927601D01*
X62676Y1927601D01*
X66407Y1934062D01*
X66407Y1934062D01*
X66899Y1935897D01*
X68338Y1941269D01*
X68338Y1948731D01*
X67577Y1951569D01*
X66732Y1962525D01*
X69901Y1973046D01*
X76657Y1981712D01*
X86088Y1987352D01*
X96918Y1989205D01*
X97501Y1989162D01*
X98769Y1989162D01*
X106231Y1989162D01*
X106231Y1989162D01*
X113438Y1991093D01*
X117078Y1993195D01*
X119899Y1994824D01*
X119899Y1994824D01*
X119900Y1994824D01*
X125176Y2000100D01*
X125176Y2000101D01*
X125176Y2000101D01*
X128907Y2006562D01*
X128907Y2006562D01*
X129323Y2008114D01*
X130838Y2013769D01*
X130838Y2021231D01*
X128907Y2028438D01*
X127726Y2030483D01*
X125176Y2034899D01*
X125176Y2034900D01*
X119900Y2040176D01*
X119899Y2040176D01*
X113438Y2043907D01*
X113438Y2043907D01*
X106231Y2045838D01*
X106231Y2045838D01*
X98769Y2045838D01*
X98769Y2045838D01*
X91562Y2043907D01*
X91562Y2043907D01*
X87450Y2041533D01*
X77086Y2037881D01*
X66103Y2038219D01*
X63795Y2038822D01*
X60142Y2039934D01*
X59900Y2040176D01*
X53438Y2043907D01*
X46231Y2045838D01*
X40741Y2045838D01*
X36485Y2047133D01*
X35491Y2047651D01*
X34389Y2047857D01*
X30645Y2050175D01*
X26740Y2052209D01*
X26000Y2053051D01*
X25046Y2053642D01*
X24979Y2053731D01*
X289162Y2053731D01*
X289162Y2046269D01*
X291093Y2039062D01*
X291093Y2039062D01*
X294824Y2032601D01*
X294824Y2032600D01*
X300100Y2027324D01*
X300101Y2027324D01*
X306562Y2023593D01*
X306562Y2023593D01*
X313769Y2021662D01*
X313769Y2021662D01*
X313769Y2021662D01*
X321231Y2021662D01*
X321231Y2021662D01*
X328438Y2023593D01*
X331638Y2025440D01*
X334899Y2027324D01*
X334899Y2027324D01*
X334900Y2027324D01*
X340176Y2032600D01*
X340176Y2032601D01*
X340176Y2032601D01*
X343225Y2037881D01*
X343907Y2039062D01*
X345838Y2046269D01*
X345838Y2053731D01*
X343907Y2060938D01*
X343208Y2062149D01*
X340176Y2067399D01*
X340176Y2067400D01*
X334900Y2072676D01*
X334899Y2072676D01*
X328438Y2076407D01*
X328438Y2076407D01*
X321231Y2078338D01*
X321231Y2078338D01*
X313769Y2078338D01*
X313769Y2078338D01*
X306562Y2076407D01*
X306562Y2076407D01*
X300101Y2072676D01*
X300100Y2072676D01*
X294824Y2067400D01*
X294824Y2067399D01*
X291093Y2060938D01*
X291093Y2060938D01*
X289162Y2053731D01*
X24979Y2053731D01*
X22392Y2057156D01*
X19486Y2060463D01*
X19100Y2061516D01*
X18425Y2062410D01*
X17219Y2066646D01*
X15704Y2070780D01*
X15724Y2071901D01*
X15417Y2072979D01*
X15290Y2075738D01*
X15290Y2102486D01*
X17309Y2113287D01*
X23094Y2122629D01*
X31862Y2129251D01*
X42431Y2132258D01*
X53372Y2131244D01*
X63209Y2126346D01*
X66843Y2122740D01*
X66940Y2122836D01*
X68326Y2121451D01*
X73950Y2115826D01*
X80839Y2111849D01*
X88523Y2109790D01*
X88523Y2109790D01*
X96477Y2109790D01*
X96477Y2109790D01*
X104160Y2111849D01*
X111049Y2115826D01*
X116674Y2121451D01*
X120651Y2128339D01*
X121390Y2131096D01*
X121857Y2132838D01*
X126602Y2142749D01*
X134608Y2150276D01*
X144792Y2154403D01*
X150738Y2155000D01*
X432400Y2155000D01*
X443201Y2152981D01*
G37*
%TD.AperFunction*%
%TA.AperFunction,Conductor*%
G36*
X861352Y1157576D02*
G01*
X862244Y1157578D01*
X867555Y1156082D01*
X869745Y1155240D01*
X876062Y1151593D01*
X883269Y1149662D01*
X884257Y1149662D01*
X887998Y1148224D01*
X891359Y1146155D01*
X894919Y1144450D01*
X896005Y1143295D01*
X897356Y1142464D01*
X899742Y1139321D01*
X902446Y1136445D01*
X903042Y1134975D01*
X904000Y1133712D01*
X905090Y1129919D01*
X906573Y1126261D01*
X906597Y1124675D01*
X907035Y1123152D01*
X907170Y1120315D01*
X907170Y1075685D01*
X905151Y1064884D01*
X899366Y1055542D01*
X890598Y1048920D01*
X885009Y1046804D01*
X876062Y1044407D01*
X876062Y1044407D01*
X871777Y1041933D01*
X865385Y1039681D01*
X864627Y1036329D01*
X863906Y1035258D01*
X863515Y1034028D01*
X863067Y1033223D01*
X860593Y1028938D01*
X860593Y1028938D01*
X858662Y1021731D01*
X858662Y1014269D01*
X860593Y1007062D01*
X860593Y1007062D01*
X864323Y1000601D01*
X864324Y1000600D01*
X869600Y995324D01*
X869601Y995324D01*
X876062Y991593D01*
X876062Y991593D01*
X876062Y991593D01*
X883269Y989662D01*
X883270Y989662D01*
X885009Y989196D01*
X894919Y984450D01*
X902446Y976445D01*
X906573Y966261D01*
X907170Y960315D01*
X907170Y835685D01*
X906403Y831583D01*
X906007Y827428D01*
X905400Y826216D01*
X905151Y824884D01*
X902954Y821336D01*
X901083Y817604D01*
X900080Y816694D01*
X899366Y815542D01*
X896035Y813026D01*
X892944Y810223D01*
X891498Y809600D01*
X890598Y808920D01*
X887998Y807776D01*
X884257Y806338D01*
X883269Y806338D01*
X876062Y804407D01*
X869746Y800760D01*
X867555Y799918D01*
X865347Y799511D01*
X864627Y796329D01*
X863906Y795258D01*
X863515Y794028D01*
X863067Y793223D01*
X860593Y788938D01*
X860593Y788938D01*
X858662Y781731D01*
X858662Y774269D01*
X860593Y767062D01*
X863067Y762777D01*
X865192Y756748D01*
X867555Y756082D01*
X869745Y755240D01*
X876062Y751593D01*
X883269Y749662D01*
X884257Y749662D01*
X887998Y748224D01*
X891359Y746155D01*
X894919Y744450D01*
X896005Y743295D01*
X897356Y742464D01*
X899742Y739321D01*
X902446Y736445D01*
X903042Y734975D01*
X904000Y733712D01*
X905090Y729919D01*
X906573Y726261D01*
X906597Y724675D01*
X907035Y723151D01*
X907170Y720315D01*
X907170Y675685D01*
X905151Y664884D01*
X899366Y655542D01*
X890598Y648920D01*
X885009Y646804D01*
X876062Y644407D01*
X876062Y644407D01*
X875186Y643901D01*
X875186Y643901D01*
X869600Y640676D01*
X864324Y635400D01*
X861099Y629814D01*
X861099Y629814D01*
X860593Y628938D01*
X860593Y628938D01*
X858662Y621731D01*
X858662Y614269D01*
X859651Y610579D01*
X859793Y608730D01*
X860383Y606971D01*
X860213Y603294D01*
X860496Y599623D01*
X859961Y597848D01*
X859875Y595995D01*
X858388Y592627D01*
X857326Y589102D01*
X856078Y587395D01*
X855437Y585943D01*
X851912Y581698D01*
X843302Y573088D01*
X834237Y566878D01*
X823540Y564362D01*
X814421Y565349D01*
X810731Y566338D01*
X810731Y566338D01*
X803269Y566338D01*
X803269Y566338D01*
X796062Y564407D01*
X796062Y564407D01*
X789601Y560677D01*
X789600Y560676D01*
X784324Y555400D01*
X784323Y555399D01*
X780593Y548938D01*
X780593Y548938D01*
X778662Y541731D01*
X778662Y534269D01*
X780593Y527062D01*
X780593Y527062D01*
X783700Y521680D01*
X784010Y520801D01*
X784572Y520058D01*
X785827Y515644D01*
X787352Y511316D01*
X787324Y510385D01*
X787579Y509489D01*
X787155Y504920D01*
X787014Y500333D01*
X786651Y499475D01*
X786565Y498547D01*
X784520Y494441D01*
X782731Y490214D01*
X782082Y489545D01*
X781667Y488711D01*
X778276Y485620D01*
X775082Y482326D01*
X774235Y481936D01*
X773547Y481308D01*
X769267Y479651D01*
X765099Y477733D01*
X763950Y477591D01*
X763300Y477339D01*
X757806Y476830D01*
X756967Y476830D01*
X746166Y478849D01*
X738764Y483009D01*
X738549Y483174D01*
X738549Y483174D01*
X731661Y487151D01*
X731660Y487151D01*
X723977Y489210D01*
X723977Y489210D01*
X716023Y489210D01*
X716023Y489210D01*
X714604Y488830D01*
X703648Y487985D01*
X693127Y491155D01*
X684461Y497911D01*
X678822Y507341D01*
X676969Y518172D01*
X677985Y525450D01*
X679210Y530023D01*
X679210Y537977D01*
X677151Y545661D01*
X673174Y552549D01*
X672612Y553112D01*
X666402Y562177D01*
X663886Y572873D01*
X665404Y583756D01*
X670751Y593356D01*
X672611Y595395D01*
X750089Y672874D01*
X759154Y679083D01*
X769850Y681599D01*
X780733Y680081D01*
X787886Y676275D01*
X787903Y676304D01*
X788734Y675824D01*
X789434Y675452D01*
X789600Y675324D01*
X789600Y675324D01*
X789600Y675324D01*
X789601Y675324D01*
X796062Y671593D01*
X796062Y671593D01*
X803269Y669662D01*
X803269Y669662D01*
X803269Y669662D01*
X810731Y669662D01*
X810731Y669662D01*
X817938Y671593D01*
X824400Y675324D01*
X829676Y680600D01*
X833407Y687062D01*
X835338Y694269D01*
X835338Y701731D01*
X833407Y708938D01*
X830933Y713223D01*
X830636Y714065D01*
X830097Y714775D01*
X828819Y719223D01*
X828652Y719696D01*
X823027Y721485D01*
X822223Y721933D01*
X818341Y724174D01*
X817938Y724407D01*
X817938Y724407D01*
X810731Y726338D01*
X810731Y726338D01*
X803269Y726338D01*
X802730Y726338D01*
X791929Y728357D01*
X782586Y734142D01*
X775965Y742910D01*
X772957Y753479D01*
X772830Y756238D01*
X772830Y799762D01*
X774849Y810563D01*
X780634Y819905D01*
X789402Y826527D01*
X795637Y828808D01*
X801296Y830191D01*
X803269Y829662D01*
X810731Y829662D01*
X817938Y831593D01*
X824400Y835324D01*
X825073Y835997D01*
X828460Y836824D01*
X829518Y838935D01*
X830485Y841973D01*
X830931Y842774D01*
X833407Y847062D01*
X835338Y854269D01*
X835338Y861731D01*
X833407Y868938D01*
X833407Y868938D01*
X829676Y875399D01*
X829676Y875400D01*
X824400Y880676D01*
X824399Y880676D01*
X817938Y884407D01*
X817938Y884407D01*
X810731Y886338D01*
X810731Y886338D01*
X803269Y886338D01*
X802730Y886338D01*
X791929Y888357D01*
X782586Y894142D01*
X775965Y902910D01*
X772957Y913479D01*
X772830Y916238D01*
X772830Y1039762D01*
X774849Y1050563D01*
X780634Y1059906D01*
X789402Y1066527D01*
X795637Y1068809D01*
X801296Y1070191D01*
X803269Y1069662D01*
X810731Y1069662D01*
X817938Y1071593D01*
X824400Y1075324D01*
X825073Y1075997D01*
X828879Y1076927D01*
X830485Y1081973D01*
X830931Y1082774D01*
X833407Y1087062D01*
X835338Y1094269D01*
X835338Y1101731D01*
X833407Y1108938D01*
X830933Y1113223D01*
X830636Y1114065D01*
X830097Y1114775D01*
X828819Y1119223D01*
X827281Y1123587D01*
X827308Y1124479D01*
X827062Y1125336D01*
X827477Y1129945D01*
X827619Y1134570D01*
X827967Y1135392D01*
X828047Y1136280D01*
X830098Y1140427D01*
X831902Y1144689D01*
X832523Y1145329D01*
X832919Y1146129D01*
X836331Y1149256D01*
X839551Y1152577D01*
X840362Y1152950D01*
X841020Y1153553D01*
X845330Y1155236D01*
X849534Y1157170D01*
X850425Y1157225D01*
X851256Y1157549D01*
X855883Y1157562D01*
X860501Y1157846D01*
X861352Y1157576D01*
G37*
%TD.AperFunction*%
%TA.AperFunction,Conductor*%
G36*
X674036Y1443264D02*
G01*
X678872Y1442565D01*
X679418Y1442258D01*
X680034Y1442143D01*
X684188Y1439571D01*
X688445Y1437172D01*
X688843Y1436688D01*
X689376Y1436358D01*
X692321Y1432459D01*
X695424Y1428684D01*
X695769Y1427892D01*
X695998Y1427590D01*
X696180Y1426950D01*
X697628Y1423626D01*
X699132Y1419065D01*
X699132Y1412321D01*
X701064Y1405114D01*
X704794Y1398652D01*
X706390Y1397056D01*
X708253Y1391409D01*
X709718Y1380519D01*
X707150Y1369835D01*
X700896Y1360800D01*
X691801Y1354634D01*
X681093Y1352170D01*
X670217Y1353741D01*
X665060Y1356502D01*
X664873Y1356177D01*
X656714Y1360887D01*
X656714Y1360887D01*
X649507Y1362818D01*
X649507Y1362818D01*
X642045Y1362818D01*
X642045Y1362818D01*
X634838Y1360887D01*
X634837Y1360887D01*
X628376Y1357157D01*
X628376Y1357156D01*
X623100Y1351881D01*
X623099Y1351880D01*
X619369Y1345419D01*
X619369Y1345418D01*
X617438Y1338211D01*
X617438Y1330750D01*
X619369Y1323543D01*
X619369Y1323542D01*
X623099Y1317081D01*
X623100Y1317080D01*
X624910Y1315271D01*
X631120Y1306205D01*
X633635Y1295509D01*
X632117Y1284626D01*
X626770Y1275027D01*
X624910Y1272986D01*
X624324Y1272400D01*
X624324Y1272399D01*
X620593Y1265938D01*
X620593Y1265938D01*
X618662Y1258731D01*
X618662Y1251269D01*
X620593Y1244062D01*
X620593Y1244062D01*
X624324Y1237601D01*
X624324Y1237600D01*
X629600Y1232324D01*
X629601Y1232324D01*
X636062Y1228593D01*
X636062Y1228593D01*
X643269Y1226662D01*
X643269Y1226662D01*
X643269Y1226662D01*
X650731Y1226662D01*
X650731Y1226662D01*
X653204Y1227325D01*
X656421Y1227573D01*
X659562Y1228312D01*
X661853Y1227992D01*
X664160Y1228170D01*
X667249Y1227240D01*
X670445Y1226794D01*
X672466Y1225668D01*
X674681Y1225001D01*
X677226Y1223017D01*
X680045Y1221447D01*
X681523Y1219667D01*
X683347Y1218245D01*
X685003Y1215476D01*
X687065Y1212993D01*
X687800Y1210800D01*
X688987Y1208815D01*
X689531Y1205634D01*
X690557Y1202575D01*
X690450Y1200264D01*
X690840Y1197984D01*
X690198Y1194821D01*
X690049Y1191598D01*
X689115Y1189482D01*
X688655Y1187215D01*
X686914Y1184498D01*
X685611Y1181546D01*
X683038Y1178448D01*
X682727Y1177963D01*
X682086Y1177301D01*
X639900Y1135116D01*
X634885Y1130100D01*
X634884Y1130100D01*
X634462Y1129080D01*
X628463Y1119874D01*
X619544Y1113457D01*
X608908Y1110694D01*
X597993Y1111961D01*
X588273Y1117085D01*
X585696Y1119380D01*
X584400Y1120676D01*
X584399Y1120677D01*
X577938Y1124407D01*
X577938Y1124407D01*
X570731Y1126338D01*
X570731Y1126338D01*
X563269Y1126338D01*
X563269Y1126338D01*
X556062Y1124407D01*
X556062Y1124407D01*
X549601Y1120677D01*
X549600Y1120676D01*
X544324Y1115400D01*
X544324Y1115399D01*
X540593Y1108938D01*
X540593Y1108938D01*
X538662Y1101731D01*
X538662Y1101731D01*
X538662Y1101731D01*
X538662Y1094269D01*
X540593Y1087062D01*
X544324Y1080600D01*
X549600Y1075324D01*
X556062Y1071593D01*
X560097Y1070512D01*
X560097Y1070512D01*
X561183Y1070221D01*
X563269Y1069662D01*
X563269Y1069662D01*
X563269Y1069662D01*
X570731Y1069662D01*
X570731Y1069662D01*
X577938Y1071593D01*
X580544Y1073098D01*
X586097Y1076304D01*
X586188Y1076146D01*
X593866Y1080043D01*
X604799Y1081141D01*
X615391Y1078216D01*
X624210Y1071662D01*
X630067Y1062364D01*
X632169Y1051579D01*
X632170Y1051348D01*
X632170Y978532D01*
X630151Y967731D01*
X624366Y958389D01*
X615598Y951767D01*
X605029Y948760D01*
X594088Y949774D01*
X587320Y952638D01*
X583171Y955034D01*
X579936Y956901D01*
X579936Y956901D01*
X572729Y958832D01*
X572729Y958832D01*
X565267Y958832D01*
X565267Y958832D01*
X558060Y956901D01*
X558060Y956901D01*
X551599Y953171D01*
X551598Y953170D01*
X546322Y947894D01*
X546322Y947894D01*
X542591Y941433D01*
X542591Y941432D01*
X540660Y934225D01*
X540660Y926763D01*
X542591Y919556D01*
X542591Y919556D01*
X546322Y913095D01*
X547161Y912002D01*
X552134Y902203D01*
X553232Y891270D01*
X550306Y880678D01*
X545511Y873959D01*
X545517Y873955D01*
X545378Y873774D01*
X544582Y872658D01*
X544325Y872401D01*
X544324Y872399D01*
X540593Y865938D01*
X540593Y865938D01*
X538662Y858731D01*
X538662Y851269D01*
X540593Y844062D01*
X540593Y844062D01*
X544324Y837601D01*
X544324Y837600D01*
X549600Y832324D01*
X549601Y832324D01*
X556062Y828593D01*
X556062Y828593D01*
X563269Y826662D01*
X563269Y826662D01*
X563269Y826662D01*
X570731Y826662D01*
X570731Y826662D01*
X577938Y828593D01*
X580843Y830270D01*
X586097Y833304D01*
X586188Y833146D01*
X586640Y833375D01*
X588942Y835113D01*
X591497Y835840D01*
X593866Y837043D01*
X596736Y837331D01*
X599511Y838121D01*
X602156Y837876D01*
X604799Y838141D01*
X607580Y837373D01*
X610453Y837107D01*
X612830Y835923D01*
X615391Y835216D01*
X617706Y833495D01*
X620289Y832209D01*
X622078Y830246D01*
X624210Y828661D01*
X625748Y826221D01*
X627692Y824088D01*
X628651Y821611D01*
X630067Y819364D01*
X630619Y816532D01*
X631661Y813842D01*
X632130Y808779D01*
X632169Y808579D01*
X632170Y808348D01*
X632170Y767608D01*
X630151Y756807D01*
X624366Y747465D01*
X615598Y740843D01*
X605029Y737836D01*
X594088Y738850D01*
X590828Y739984D01*
X589900Y740369D01*
X582693Y742300D01*
X582693Y742300D01*
X575231Y742300D01*
X575231Y742300D01*
X568024Y740369D01*
X568024Y740369D01*
X561563Y736638D01*
X561562Y736638D01*
X556286Y731362D01*
X556285Y731361D01*
X552555Y724900D01*
X552555Y724900D01*
X550624Y717693D01*
X550624Y710231D01*
X552555Y703024D01*
X552555Y703024D01*
X556285Y696563D01*
X556286Y696562D01*
X561562Y691286D01*
X561563Y691286D01*
X568023Y687555D01*
X568024Y687555D01*
X568024Y687555D01*
X572668Y686311D01*
X573508Y685908D01*
X574431Y685780D01*
X578440Y683547D01*
X582578Y681565D01*
X583217Y680886D01*
X584031Y680433D01*
X586962Y676903D01*
X590105Y673560D01*
X590455Y672696D01*
X591050Y671979D01*
X592509Y667628D01*
X594232Y663376D01*
X594246Y662444D01*
X594542Y661561D01*
X594330Y656976D01*
X594401Y652389D01*
X594078Y651515D01*
X594035Y650584D01*
X592181Y646386D01*
X590590Y642083D01*
X589878Y641169D01*
X589597Y640532D01*
X586072Y636287D01*
X566231Y616447D01*
X557166Y610237D01*
X546470Y607721D01*
X535587Y609239D01*
X525987Y614586D01*
X518968Y623040D01*
X516208Y629851D01*
X515838Y631231D01*
X515838Y631231D01*
X513907Y638438D01*
X513907Y638438D01*
X510176Y644899D01*
X510176Y644900D01*
X504900Y650176D01*
X504899Y650177D01*
X498438Y653907D01*
X498438Y653907D01*
X489338Y656345D01*
X489447Y656755D01*
X482494Y659028D01*
X473989Y665985D01*
X468571Y675545D01*
X466950Y685256D01*
X466950Y969994D01*
X468969Y980795D01*
X474754Y990137D01*
X483522Y996759D01*
X489111Y998875D01*
X493118Y999949D01*
X498160Y1001300D01*
X502361Y1003725D01*
X504621Y1005030D01*
X504621Y1005030D01*
X504621Y1005030D01*
X509898Y1010306D01*
X509898Y1010307D01*
X509898Y1010307D01*
X512920Y1015541D01*
X513628Y1016768D01*
X515560Y1023976D01*
X515560Y1031437D01*
X513628Y1038644D01*
X509898Y1045106D01*
X504621Y1050382D01*
X498160Y1054113D01*
X494124Y1055195D01*
X494124Y1055195D01*
X489111Y1056538D01*
X479200Y1061284D01*
X471674Y1069289D01*
X467547Y1079473D01*
X466950Y1085419D01*
X466950Y1200347D01*
X468969Y1211148D01*
X474754Y1220490D01*
X483522Y1227112D01*
X489111Y1229228D01*
X490730Y1229662D01*
X490731Y1229662D01*
X497938Y1231593D01*
X497938Y1231593D01*
X497938Y1231593D01*
X504399Y1235324D01*
X504399Y1235324D01*
X504400Y1235324D01*
X509676Y1240600D01*
X509676Y1240601D01*
X509676Y1240601D01*
X513407Y1247062D01*
X513407Y1247062D01*
X515338Y1254269D01*
X515338Y1261731D01*
X513407Y1268938D01*
X512727Y1270116D01*
X509676Y1275399D01*
X509676Y1275400D01*
X504400Y1280676D01*
X504399Y1280677D01*
X502638Y1281693D01*
X494293Y1288842D01*
X489095Y1298523D01*
X487744Y1309428D01*
X490425Y1320084D01*
X496445Y1328730D01*
X603120Y1435404D01*
X612185Y1441614D01*
X622882Y1444130D01*
X624262Y1444162D01*
X669232Y1444162D01*
X674036Y1443264D01*
G37*
%TD.AperFunction*%
%TA.AperFunction,Conductor*%
G36*
X1566378Y1477976D02*
G01*
X1571596Y1477248D01*
X1571874Y1477123D01*
X1572031Y1477098D01*
X1577044Y1474792D01*
X1581192Y1472397D01*
X1589536Y1465248D01*
X1593866Y1457945D01*
X1593884Y1457900D01*
X1593885Y1457900D01*
X1622532Y1429252D01*
X1624484Y1426403D01*
X1626811Y1423850D01*
X1627564Y1421906D01*
X1628742Y1420187D01*
X1629533Y1416825D01*
X1630781Y1413604D01*
X1631099Y1410164D01*
X1631258Y1409490D01*
X1631290Y1408110D01*
X1631290Y1396238D01*
X1629271Y1385437D01*
X1623486Y1376095D01*
X1614718Y1369473D01*
X1605190Y1366762D01*
X1605212Y1366594D01*
X1603269Y1366338D01*
X1596062Y1364407D01*
X1596062Y1364407D01*
X1589601Y1360677D01*
X1589600Y1360676D01*
X1588142Y1359218D01*
X1579077Y1353009D01*
X1568381Y1350493D01*
X1557498Y1352011D01*
X1547898Y1357358D01*
X1545857Y1359218D01*
X1544400Y1360676D01*
X1544399Y1360677D01*
X1537938Y1364407D01*
X1537938Y1364407D01*
X1530731Y1366338D01*
X1530731Y1366338D01*
X1523269Y1366338D01*
X1523269Y1366338D01*
X1514169Y1363900D01*
X1514088Y1364201D01*
X1506343Y1362568D01*
X1502143Y1363254D01*
X1501646Y1352498D01*
X1501062Y1350687D01*
X1498662Y1341731D01*
X1498662Y1334269D01*
X1500593Y1327062D01*
X1500593Y1327062D01*
X1502453Y1323840D01*
X1502453Y1323840D01*
X1504324Y1320600D01*
X1507127Y1317797D01*
X1508291Y1316292D01*
X1509943Y1313067D01*
X1511991Y1310077D01*
X1512429Y1308215D01*
X1513302Y1306513D01*
X1513677Y1302909D01*
X1514507Y1299381D01*
X1514243Y1297486D01*
X1514441Y1295584D01*
X1513490Y1292087D01*
X1512989Y1288498D01*
X1512058Y1286827D01*
X1511556Y1284981D01*
X1509126Y1281563D01*
X1507642Y1278899D01*
X1506642Y1278068D01*
X1505782Y1276858D01*
X1504324Y1275400D01*
X1504323Y1275399D01*
X1500593Y1268938D01*
X1500593Y1268938D01*
X1498662Y1261731D01*
X1498662Y1254269D01*
X1500593Y1247062D01*
X1503067Y1242777D01*
X1505348Y1236305D01*
X1510972Y1234515D01*
X1511777Y1234067D01*
X1516062Y1231593D01*
X1523269Y1229662D01*
X1523269Y1229662D01*
X1523269Y1229662D01*
X1530731Y1229662D01*
X1530731Y1229662D01*
X1537938Y1231593D01*
X1542223Y1234067D01*
X1543073Y1234367D01*
X1543791Y1234911D01*
X1548230Y1236184D01*
X1552586Y1237719D01*
X1553487Y1237691D01*
X1554354Y1237940D01*
X1558954Y1237523D01*
X1563569Y1237381D01*
X1564399Y1237030D01*
X1565297Y1236948D01*
X1569436Y1234898D01*
X1573688Y1233098D01*
X1574335Y1232470D01*
X1575143Y1232070D01*
X1578261Y1228664D01*
X1581577Y1225449D01*
X1581954Y1224630D01*
X1582562Y1223965D01*
X1584239Y1219662D01*
X1586170Y1215466D01*
X1586225Y1214567D01*
X1586553Y1213727D01*
X1586562Y1209109D01*
X1586846Y1204499D01*
X1586573Y1203640D01*
X1586575Y1202738D01*
X1585076Y1197428D01*
X1584235Y1195247D01*
X1580593Y1188938D01*
X1578662Y1181731D01*
X1578662Y1180773D01*
X1577250Y1177105D01*
X1575183Y1173753D01*
X1573482Y1170201D01*
X1572320Y1169109D01*
X1571484Y1167751D01*
X1568346Y1165372D01*
X1565477Y1162674D01*
X1563999Y1162075D01*
X1562728Y1161112D01*
X1558943Y1160026D01*
X1555293Y1158547D01*
X1553699Y1158523D01*
X1552166Y1158083D01*
X1549347Y1157950D01*
X1504653Y1157950D01*
X1493852Y1159969D01*
X1484510Y1165754D01*
X1477888Y1174522D01*
X1475772Y1180111D01*
X1475338Y1181731D01*
X1475338Y1181731D01*
X1473407Y1188938D01*
X1470933Y1193223D01*
X1468652Y1199696D01*
X1463027Y1201485D01*
X1462223Y1201933D01*
X1457938Y1204407D01*
X1457938Y1204407D01*
X1450731Y1206338D01*
X1450731Y1206338D01*
X1443269Y1206338D01*
X1443269Y1206338D01*
X1436062Y1204407D01*
X1436062Y1204407D01*
X1431777Y1201933D01*
X1421413Y1198281D01*
X1410430Y1198619D01*
X1400311Y1202903D01*
X1392423Y1210552D01*
X1387830Y1220534D01*
X1387154Y1231502D01*
X1387221Y1232009D01*
X1388230Y1239154D01*
X1389676Y1240600D01*
X1393407Y1247062D01*
X1395338Y1254269D01*
X1395338Y1261731D01*
X1393407Y1268938D01*
X1392628Y1270287D01*
X1393624Y1277342D01*
X1395226Y1282094D01*
X1396673Y1286898D01*
X1396993Y1287335D01*
X1397134Y1287754D01*
X1398485Y1289375D01*
X1402088Y1294302D01*
X1419995Y1312209D01*
X1419995Y1312210D01*
X1422710Y1318763D01*
X1422710Y1325856D01*
X1422710Y1339414D01*
X1422934Y1340615D01*
X1422808Y1341830D01*
X1423938Y1345984D01*
X1424729Y1350215D01*
X1425372Y1351254D01*
X1425693Y1352433D01*
X1428247Y1355898D01*
X1430514Y1359557D01*
X1431467Y1360556D01*
X1451397Y1380486D01*
X1460462Y1386696D01*
X1471159Y1389212D01*
X1476109Y1388522D01*
X1475955Y1389018D01*
X1476717Y1399979D01*
X1481388Y1409926D01*
X1484513Y1413602D01*
X1540952Y1470041D01*
X1541144Y1470173D01*
X1541279Y1470363D01*
X1545673Y1473275D01*
X1550017Y1476250D01*
X1550244Y1476304D01*
X1550439Y1476433D01*
X1555586Y1477560D01*
X1560713Y1478766D01*
X1560945Y1478734D01*
X1561173Y1478784D01*
X1566378Y1477976D01*
G37*
%TD.AperFunction*%
%TA.AperFunction,Conductor*%
G36*
X1371772Y1530899D02*
G01*
X1381372Y1525552D01*
X1388391Y1517099D01*
X1391883Y1506680D01*
X1392170Y1502549D01*
X1392170Y1458581D01*
X1390151Y1447780D01*
X1384366Y1438437D01*
X1383413Y1437438D01*
X1319199Y1373225D01*
X1319199Y1373225D01*
X1314780Y1368806D01*
X1309765Y1363790D01*
X1307050Y1357237D01*
X1307050Y1342204D01*
X1304991Y1336946D01*
X1302112Y1332334D01*
X1299246Y1327707D01*
X1299202Y1327673D01*
X1299172Y1327625D01*
X1294829Y1324371D01*
X1290478Y1321085D01*
X1290424Y1321069D01*
X1290379Y1321036D01*
X1285148Y1319568D01*
X1279909Y1318078D01*
X1279820Y1318073D01*
X1279799Y1318068D01*
X1279765Y1318071D01*
X1277150Y1317950D01*
X1212610Y1317950D01*
X1201809Y1319969D01*
X1192467Y1325754D01*
X1185845Y1334522D01*
X1182838Y1345091D01*
X1182710Y1347850D01*
X1182710Y1352889D01*
X1184729Y1363691D01*
X1190514Y1373033D01*
X1191468Y1374032D01*
X1341128Y1523692D01*
X1350193Y1529902D01*
X1360889Y1532417D01*
X1371772Y1530899D01*
G37*
%TD.AperFunction*%
%TA.AperFunction,Conductor*%
G36*
X1121158Y1581316D02*
G01*
X1130758Y1575969D01*
X1137777Y1567516D01*
X1141269Y1557097D01*
X1141556Y1552966D01*
X1141556Y1443727D01*
X1139537Y1432926D01*
X1133753Y1423584D01*
X1132799Y1422585D01*
X1043920Y1333706D01*
X1034855Y1327497D01*
X1024159Y1324981D01*
X1013276Y1326499D01*
X1003676Y1331846D01*
X996656Y1340299D01*
X993897Y1347110D01*
X993407Y1348938D01*
X993406Y1348939D01*
X989676Y1355399D01*
X989676Y1355400D01*
X984400Y1360676D01*
X984399Y1360677D01*
X977938Y1364407D01*
X977938Y1364407D01*
X970731Y1366338D01*
X970731Y1366338D01*
X963269Y1366338D01*
X963269Y1366338D01*
X962745Y1366269D01*
X961469Y1366338D01*
X961468Y1366338D01*
X960224Y1366045D01*
X956016Y1366632D01*
X951773Y1366861D01*
X950607Y1367387D01*
X949341Y1367564D01*
X945629Y1369631D01*
X941756Y1371377D01*
X940859Y1372288D01*
X939742Y1372910D01*
X937027Y1376179D01*
X934046Y1379207D01*
X933538Y1380381D01*
X932722Y1381364D01*
X931372Y1385393D01*
X929685Y1389293D01*
X929636Y1390570D01*
X929230Y1391783D01*
X929426Y1396027D01*
X929263Y1400273D01*
X929678Y1401482D01*
X929737Y1402759D01*
X931454Y1406646D01*
X932835Y1410664D01*
X933771Y1411893D01*
X934176Y1412811D01*
X937700Y1417055D01*
X954178Y1433533D01*
X963243Y1439742D01*
X973939Y1442258D01*
X975320Y1442290D01*
X986237Y1442290D01*
X986237Y1442290D01*
X992790Y1445004D01*
X1019995Y1472210D01*
X1022710Y1478763D01*
X1022710Y1485856D01*
X1022710Y1493920D01*
X1024729Y1504721D01*
X1030514Y1514063D01*
X1031467Y1515062D01*
X1090514Y1574109D01*
X1099579Y1580318D01*
X1110275Y1582834D01*
X1121158Y1581316D01*
G37*
%TD.AperFunction*%
%TA.AperFunction,Conductor*%
G36*
X702174Y1663673D02*
G01*
X704625Y1663919D01*
X707592Y1663100D01*
X710652Y1662776D01*
X712843Y1661650D01*
X715217Y1660994D01*
X717687Y1659158D01*
X720424Y1657751D01*
X722059Y1655910D01*
X724037Y1654440D01*
X727321Y1649986D01*
X727721Y1649536D01*
X727790Y1649349D01*
X727991Y1649076D01*
X731218Y1643488D01*
X731218Y1643487D01*
X736494Y1638212D01*
X736495Y1638211D01*
X742956Y1634481D01*
X742956Y1634481D01*
X750163Y1632550D01*
X750163Y1632549D01*
X750163Y1632549D01*
X757625Y1632549D01*
X757625Y1632550D01*
X764832Y1634481D01*
X766986Y1635724D01*
X771293Y1638211D01*
X771294Y1638211D01*
X771294Y1638211D01*
X776570Y1643488D01*
X776570Y1643488D01*
X777763Y1645042D01*
X778114Y1644773D01*
X782800Y1650245D01*
X792480Y1655445D01*
X803385Y1656797D01*
X814042Y1654119D01*
X823011Y1647772D01*
X829083Y1638614D01*
X831436Y1627880D01*
X831450Y1626954D01*
X831450Y1556238D01*
X829431Y1545437D01*
X823646Y1536094D01*
X814878Y1529473D01*
X805196Y1526718D01*
X805212Y1526594D01*
X804370Y1526483D01*
X804309Y1526465D01*
X804199Y1526460D01*
X803269Y1526338D01*
X796062Y1524407D01*
X796062Y1524407D01*
X789601Y1520676D01*
X789600Y1520676D01*
X784324Y1515400D01*
X784323Y1515399D01*
X780593Y1508938D01*
X780593Y1508938D01*
X778459Y1500973D01*
X773713Y1491062D01*
X765707Y1483535D01*
X755523Y1479409D01*
X748913Y1478819D01*
X743695Y1478935D01*
X741555Y1479822D01*
X703820Y1479822D01*
X703487Y1479829D01*
X698430Y1480892D01*
X693350Y1481841D01*
X693064Y1482019D01*
X692733Y1482088D01*
X688402Y1484905D01*
X684008Y1487626D01*
X683805Y1487895D01*
X683522Y1488079D01*
X680502Y1492269D01*
X677386Y1496394D01*
X677229Y1496808D01*
X677097Y1496993D01*
X676957Y1497528D01*
X675271Y1501983D01*
X673407Y1508938D01*
X673407Y1508938D01*
X673407Y1508938D01*
X669676Y1515399D01*
X669676Y1515400D01*
X668218Y1516857D01*
X662009Y1525923D01*
X659493Y1536619D01*
X661011Y1547502D01*
X666358Y1557101D01*
X668218Y1559142D01*
X669676Y1560600D01*
X669676Y1560601D01*
X669676Y1560601D01*
X673407Y1567062D01*
X673407Y1567062D01*
X675338Y1574269D01*
X675338Y1581731D01*
X673407Y1588938D01*
X673407Y1588938D01*
X669676Y1595399D01*
X669676Y1595400D01*
X664400Y1600676D01*
X664400Y1600676D01*
X664400Y1600676D01*
X664400Y1600676D01*
X664132Y1600881D01*
X663586Y1601490D01*
X663014Y1602062D01*
X663045Y1602093D01*
X656792Y1609058D01*
X652902Y1619335D01*
X652986Y1630323D01*
X657034Y1640538D01*
X664499Y1648601D01*
X669355Y1651538D01*
X671884Y1652757D01*
X677690Y1654313D01*
X684151Y1658044D01*
X685358Y1659250D01*
X689118Y1661062D01*
X691496Y1661705D01*
X693692Y1662820D01*
X696754Y1663128D01*
X699725Y1663932D01*
X702174Y1663673D01*
G37*
%TD.AperFunction*%
%TA.AperFunction,Conductor*%
G36*
X1559157Y1719671D02*
G01*
X1563340Y1719463D01*
X1564564Y1718917D01*
X1565892Y1718732D01*
X1569551Y1716694D01*
X1573376Y1714988D01*
X1574320Y1714037D01*
X1575491Y1713385D01*
X1578167Y1710163D01*
X1581118Y1707191D01*
X1581655Y1705962D01*
X1582511Y1704931D01*
X1583842Y1700960D01*
X1585520Y1697123D01*
X1585577Y1695783D01*
X1586003Y1694512D01*
X1586290Y1690382D01*
X1586290Y1664427D01*
X1586290Y1657333D01*
X1587559Y1654269D01*
X1589004Y1650780D01*
X1635032Y1604753D01*
X1641242Y1595687D01*
X1643758Y1584991D01*
X1642239Y1574108D01*
X1636893Y1564509D01*
X1628439Y1557489D01*
X1618020Y1553997D01*
X1613889Y1553710D01*
X1585122Y1553710D01*
X1578029Y1553710D01*
X1575870Y1552816D01*
X1571476Y1550996D01*
X1524893Y1504413D01*
X1515828Y1498203D01*
X1505132Y1495688D01*
X1494249Y1497206D01*
X1485679Y1501735D01*
X1477977Y1507579D01*
X1476407Y1513438D01*
X1472676Y1519900D01*
X1467400Y1525176D01*
X1460938Y1528907D01*
X1453731Y1530838D01*
X1447318Y1530838D01*
X1439658Y1536649D01*
X1437435Y1539098D01*
X1434874Y1541193D01*
X1433773Y1543134D01*
X1432274Y1544786D01*
X1431085Y1547873D01*
X1429453Y1550751D01*
X1429051Y1553159D01*
X1428327Y1555041D01*
X1428332Y1557462D01*
X1427830Y1560470D01*
X1427830Y1627659D01*
X1429849Y1638460D01*
X1435634Y1647803D01*
X1436586Y1648800D01*
X1437219Y1649433D01*
X1446284Y1655643D01*
X1456980Y1658158D01*
X1462282Y1657583D01*
X1462326Y1657918D01*
X1464269Y1657662D01*
X1464269Y1657662D01*
X1471731Y1657662D01*
X1471731Y1657662D01*
X1478938Y1659593D01*
X1481364Y1660994D01*
X1485399Y1663324D01*
X1485399Y1663324D01*
X1485400Y1663324D01*
X1490676Y1668600D01*
X1490676Y1668601D01*
X1490676Y1668601D01*
X1494407Y1675062D01*
X1494407Y1675062D01*
X1494497Y1675400D01*
X1495909Y1680668D01*
X1500654Y1690578D01*
X1508660Y1698105D01*
X1510334Y1699102D01*
X1515201Y1701790D01*
X1516977Y1701790D01*
X1524661Y1703849D01*
X1531549Y1707826D01*
X1537174Y1713451D01*
X1537577Y1714148D01*
X1541934Y1716555D01*
X1543207Y1716976D01*
X1544313Y1717734D01*
X1548389Y1718693D01*
X1552365Y1720009D01*
X1553704Y1719943D01*
X1555009Y1720250D01*
X1559157Y1719671D01*
G37*
%TD.AperFunction*%
%TA.AperFunction,Conductor*%
G36*
X1308071Y1713060D02*
G01*
X1317414Y1707276D01*
X1324035Y1698507D01*
X1327043Y1687938D01*
X1327170Y1685179D01*
X1327170Y1627675D01*
X1325151Y1616873D01*
X1319366Y1607531D01*
X1310598Y1600909D01*
X1306684Y1599295D01*
X1298183Y1596475D01*
X1291231Y1598338D01*
X1283769Y1598338D01*
X1276562Y1596407D01*
X1270100Y1592676D01*
X1264824Y1587400D01*
X1263402Y1584937D01*
X1255123Y1582191D01*
X1251071Y1581638D01*
X1247090Y1580702D01*
X1245663Y1580901D01*
X1244236Y1580706D01*
X1240257Y1581655D01*
X1236207Y1582220D01*
X1234948Y1582921D01*
X1233547Y1583255D01*
X1230181Y1585577D01*
X1226607Y1587567D01*
X1225652Y1588699D01*
X1224501Y1589493D01*
X1222490Y1592449D01*
X1221243Y1593927D01*
X1221135Y1593845D01*
X1219942Y1595400D01*
X1214666Y1600676D01*
X1214666Y1600676D01*
X1210615Y1603015D01*
X1202270Y1610164D01*
X1197072Y1619845D01*
X1195722Y1630750D01*
X1198402Y1641406D01*
X1204422Y1650051D01*
X1260693Y1706322D01*
X1263542Y1708274D01*
X1266095Y1710601D01*
X1268039Y1711354D01*
X1269758Y1712531D01*
X1273120Y1713322D01*
X1276341Y1714570D01*
X1279781Y1714889D01*
X1280455Y1715047D01*
X1281835Y1715079D01*
X1297270Y1715079D01*
X1308071Y1713060D01*
G37*
%TD.AperFunction*%
%TA.AperFunction,Conductor*%
G36*
X1602424Y1845685D02*
G01*
X1611897Y1840118D01*
X1618720Y1831505D01*
X1621971Y1821008D01*
X1622170Y1817562D01*
X1622170Y1776123D01*
X1620151Y1765322D01*
X1614366Y1755980D01*
X1613412Y1754981D01*
X1594020Y1735588D01*
X1594020Y1735588D01*
X1590642Y1732210D01*
X1581577Y1726001D01*
X1570880Y1723485D01*
X1559997Y1725003D01*
X1550398Y1730350D01*
X1543378Y1738804D01*
X1541876Y1741912D01*
X1541151Y1743660D01*
X1541151Y1743661D01*
X1537174Y1750549D01*
X1531549Y1756174D01*
X1529836Y1757163D01*
X1521492Y1764312D01*
X1516293Y1773993D01*
X1514943Y1784898D01*
X1516789Y1793553D01*
X1518684Y1798609D01*
X1520176Y1800100D01*
X1523907Y1806562D01*
X1525838Y1813769D01*
X1525838Y1817690D01*
X1527741Y1822766D01*
X1527827Y1822908D01*
X1527857Y1823071D01*
X1530664Y1827605D01*
X1533423Y1832171D01*
X1533554Y1832272D01*
X1533642Y1832413D01*
X1537900Y1835630D01*
X1542119Y1838888D01*
X1542278Y1838935D01*
X1542410Y1839035D01*
X1547546Y1840497D01*
X1552654Y1842010D01*
X1552819Y1841997D01*
X1552979Y1842042D01*
X1555738Y1842170D01*
X1573546Y1842170D01*
X1573547Y1842170D01*
X1580100Y1844884D01*
X1580100Y1844885D01*
X1580827Y1845186D01*
X1591579Y1847454D01*
X1602424Y1845685D01*
G37*
%TD.AperFunction*%
%TA.AperFunction,Conductor*%
G36*
X1726333Y2130844D02*
G01*
X1728243Y2130756D01*
X1731559Y2129291D01*
X1735034Y2128259D01*
X1736784Y2126984D01*
X1738295Y2126317D01*
X1742540Y2122792D01*
X1745452Y2119880D01*
X1751662Y2110814D01*
X1754178Y2100118D01*
X1754210Y2098737D01*
X1754210Y2055826D01*
X1754210Y2048732D01*
X1756924Y2042179D01*
X1756924Y2042179D01*
X1757131Y2041870D01*
X1757337Y2041387D01*
X1757691Y2040999D01*
X1759492Y2036351D01*
X1761453Y2031768D01*
X1761526Y2031099D01*
X1761661Y2030753D01*
X1762170Y2025258D01*
X1762170Y2002242D01*
X1760151Y1991440D01*
X1757131Y1985630D01*
X1756924Y1985321D01*
X1756924Y1985321D01*
X1754210Y1978768D01*
X1754210Y1918326D01*
X1754210Y1911232D01*
X1756924Y1904679D01*
X1756924Y1904679D01*
X1757131Y1904370D01*
X1757337Y1903887D01*
X1757691Y1903499D01*
X1759492Y1898851D01*
X1761453Y1894268D01*
X1761526Y1893599D01*
X1761661Y1893253D01*
X1762170Y1887758D01*
X1762170Y1864742D01*
X1760151Y1853940D01*
X1757131Y1848130D01*
X1756924Y1847821D01*
X1756718Y1847322D01*
X1754518Y1842010D01*
X1754210Y1841267D01*
X1754210Y1779830D01*
X1753450Y1775765D01*
X1753068Y1771647D01*
X1752447Y1770399D01*
X1752191Y1769029D01*
X1750014Y1765513D01*
X1748171Y1761811D01*
X1747140Y1760872D01*
X1746406Y1759686D01*
X1743106Y1757194D01*
X1740050Y1754408D01*
X1738750Y1753905D01*
X1737637Y1753065D01*
X1733660Y1751933D01*
X1729804Y1750439D01*
X1727736Y1750248D01*
X1727069Y1750057D01*
X1724310Y1749930D01*
X1687730Y1749930D01*
X1676929Y1751949D01*
X1667586Y1757734D01*
X1660965Y1766502D01*
X1657957Y1777071D01*
X1657830Y1779830D01*
X1657830Y1824005D01*
X1659849Y1834806D01*
X1665634Y1844148D01*
X1666587Y1845147D01*
X1672615Y1851175D01*
X1672615Y1851175D01*
X1675330Y1857728D01*
X1675330Y1864821D01*
X1675330Y2073145D01*
X1677349Y2083946D01*
X1683134Y2093288D01*
X1684087Y2094287D01*
X1686263Y2096463D01*
X1689017Y2099216D01*
X1691509Y2105234D01*
X1691731Y2105770D01*
X1691731Y2105770D01*
X1692072Y2107484D01*
X1692783Y2109258D01*
X1693047Y2111152D01*
X1694811Y2114319D01*
X1696160Y2117683D01*
X1697464Y2119081D01*
X1698394Y2120751D01*
X1701183Y2123067D01*
X1703656Y2125718D01*
X1705377Y2126550D01*
X1706848Y2127771D01*
X1710285Y2128923D01*
X1713548Y2130501D01*
X1715454Y2130656D01*
X1717266Y2131263D01*
X1720888Y2131096D01*
X1724501Y2131388D01*
X1726333Y2130844D01*
G37*
%TD.AperFunction*%
%TA.AperFunction,Conductor*%
G36*
X1192299Y1980515D02*
G01*
X1197178Y1980034D01*
X1197960Y1979726D01*
X1198327Y1979675D01*
X1199005Y1979314D01*
X1202311Y1978010D01*
X1206294Y1975997D01*
X1207968Y1974324D01*
X1214430Y1970593D01*
X1219876Y1969134D01*
X1222636Y1967739D01*
X1231365Y1961065D01*
X1237094Y1951689D01*
X1239049Y1940876D01*
X1236966Y1930087D01*
X1235557Y1927166D01*
X1235301Y1926548D01*
X1233370Y1919341D01*
X1233370Y1911879D01*
X1235301Y1904672D01*
X1235301Y1904672D01*
X1239031Y1898211D01*
X1239032Y1898210D01*
X1242983Y1894259D01*
X1245320Y1890847D01*
X1247962Y1887666D01*
X1248405Y1886344D01*
X1249193Y1885193D01*
X1250140Y1881169D01*
X1251454Y1877247D01*
X1251390Y1875854D01*
X1251709Y1874497D01*
X1251137Y1870402D01*
X1250947Y1866271D01*
X1250383Y1864995D01*
X1250191Y1863614D01*
X1248178Y1860002D01*
X1246508Y1856219D01*
X1245182Y1854621D01*
X1244844Y1854015D01*
X1242983Y1851974D01*
X1233373Y1842363D01*
X1228357Y1837348D01*
X1228357Y1837348D01*
X1227304Y1834806D01*
X1226009Y1831680D01*
X1225643Y1830794D01*
X1225643Y1829796D01*
X1223623Y1818995D01*
X1217839Y1809653D01*
X1209070Y1803031D01*
X1202118Y1800907D01*
X1202162Y1800742D01*
X1193062Y1798303D01*
X1193062Y1798303D01*
X1186601Y1794573D01*
X1186600Y1794572D01*
X1181324Y1789296D01*
X1180131Y1787741D01*
X1179900Y1787918D01*
X1174677Y1781822D01*
X1164997Y1776624D01*
X1154092Y1775273D01*
X1143435Y1777954D01*
X1134467Y1784302D01*
X1128397Y1793462D01*
X1126391Y1802625D01*
X1126288Y1802611D01*
X1126129Y1803819D01*
X1126047Y1804196D01*
X1126042Y1804480D01*
X1126032Y1804554D01*
X1126032Y1804554D01*
X1124101Y1811761D01*
X1124101Y1811762D01*
X1120371Y1818223D01*
X1120370Y1818224D01*
X1115094Y1823499D01*
X1115094Y1823500D01*
X1108633Y1827230D01*
X1108632Y1827230D01*
X1101425Y1829161D01*
X1101425Y1829161D01*
X1096562Y1829161D01*
X1085761Y1831181D01*
X1076418Y1836965D01*
X1069797Y1845734D01*
X1066789Y1856303D01*
X1067803Y1867244D01*
X1072701Y1877080D01*
X1075419Y1880204D01*
X1120964Y1925749D01*
X1167683Y1972467D01*
X1171727Y1975238D01*
X1175656Y1978168D01*
X1176244Y1978332D01*
X1176748Y1978677D01*
X1181519Y1979799D01*
X1186243Y1981113D01*
X1186850Y1981053D01*
X1187444Y1981193D01*
X1192299Y1980515D01*
G37*
%TD.AperFunction*%
%TA.AperFunction,Conductor*%
G36*
X1586772Y2111261D02*
G01*
X1596371Y2105914D01*
X1603391Y2097461D01*
X1606883Y2087042D01*
X1607170Y2082911D01*
X1607170Y1934770D01*
X1605151Y1923969D01*
X1599366Y1914627D01*
X1598412Y1913628D01*
X1571372Y1886587D01*
X1562307Y1880378D01*
X1551610Y1877862D01*
X1550230Y1877830D01*
X1517730Y1877830D01*
X1506929Y1879849D01*
X1497587Y1885634D01*
X1490965Y1894402D01*
X1487958Y1904971D01*
X1488972Y1915912D01*
X1493870Y1925749D01*
X1496587Y1928872D01*
X1533032Y1965317D01*
X1534009Y1967676D01*
X1535746Y1971870D01*
X1535746Y2071288D01*
X1536381Y2074683D01*
X1536541Y2078133D01*
X1537383Y2080040D01*
X1537766Y2082089D01*
X1539584Y2085025D01*
X1540979Y2088185D01*
X1543185Y2090842D01*
X1543550Y2091431D01*
X1544504Y2092430D01*
X1556127Y2104054D01*
X1565193Y2110263D01*
X1575889Y2112779D01*
X1586772Y2111261D01*
G37*
%TD.AperFunction*%
%TD*%
M02*
