%TF.GenerationSoftware,KiCad,Pcbnew,9.0.0*%
%TF.CreationDate,2025-04-07T10:45:10-04:00*%
%TF.ProjectId,Expansion_Card_Retrofit,45787061-6e73-4696-9f6e-5f436172645f,X1*%
%TF.SameCoordinates,Original*%
%TF.FileFunction,Soldermask,Bot*%
%TF.FilePolarity,Negative*%
%FSLAX45Y45*%
G04 Gerber Fmt 4.5, Leading zero omitted, Abs format (unit mm)*
G04 Created by KiCad (PCBNEW 9.0.0) date 2025-04-07 10:45:10*
%MOMM*%
%LPD*%
G01*
G04 APERTURE LIST*
G04 Aperture macros list*
%AMRoundRect*
0 Rectangle with rounded corners*
0 $1 Rounding radius*
0 $2 $3 $4 $5 $6 $7 $8 $9 X,Y pos of 4 corners*
0 Add a 4 corners polygon primitive as box body*
4,1,4,$2,$3,$4,$5,$6,$7,$8,$9,$2,$3,0*
0 Add four circle primitives for the rounded corners*
1,1,$1+$1,$2,$3*
1,1,$1+$1,$4,$5*
1,1,$1+$1,$6,$7*
1,1,$1+$1,$8,$9*
0 Add four rect primitives between the rounded corners*
20,1,$1+$1,$2,$3,$4,$5,0*
20,1,$1+$1,$4,$5,$6,$7,0*
20,1,$1+$1,$6,$7,$8,$9,0*
20,1,$1+$1,$8,$9,$2,$3,0*%
%AMHorizOval*
0 Thick line with rounded ends*
0 $1 width*
0 $2 $3 position (X,Y) of the first rounded end (center of the circle)*
0 $4 $5 position (X,Y) of the second rounded end (center of the circle)*
0 Add line between two ends*
20,1,$1,$2,$3,$4,$5,0*
0 Add two circle primitives to create the rounded ends*
1,1,$1,$2,$3*
1,1,$1,$4,$5*%
%AMFreePoly0*
4,1,18,-0.437500,0.050000,-0.433694,0.069134,-0.422855,0.085355,-0.406634,0.096194,-0.387500,0.100000,0.387500,0.100000,0.406634,0.096194,0.422855,0.085355,0.433694,0.069134,0.437500,0.050000,0.437500,-0.050000,0.387500,-0.100000,-0.387500,-0.100000,-0.406634,-0.096194,-0.422855,-0.085355,-0.433694,-0.069134,-0.437500,-0.050000,-0.437500,0.050000,-0.437500,0.050000,$1*%
%AMFreePoly1*
4,1,18,-0.437500,0.050000,-0.433694,0.069134,-0.422855,0.085355,-0.406634,0.096194,-0.387500,0.100000,0.387500,0.100000,0.437500,0.050000,0.437500,-0.050000,0.433694,-0.069134,0.422855,-0.085355,0.406634,-0.096194,0.387500,-0.100000,-0.387500,-0.100000,-0.406634,-0.096194,-0.422855,-0.085355,-0.433694,-0.069134,-0.437500,-0.050000,-0.437500,0.050000,-0.437500,0.050000,$1*%
%AMFreePoly2*
4,1,18,-0.100000,0.387500,-0.096194,0.406634,-0.085355,0.422855,-0.069134,0.433694,-0.050000,0.437500,0.050000,0.437500,0.069134,0.433694,0.085355,0.422855,0.096194,0.406634,0.100000,0.387500,0.100000,-0.387500,0.096194,-0.406634,0.085355,-0.422855,0.069134,-0.433694,0.050000,-0.437500,-0.050000,-0.437500,-0.100000,-0.387500,-0.100000,0.387500,-0.100000,0.387500,$1*%
%AMFreePoly3*
4,1,18,-0.100000,0.387500,-0.096194,0.406634,-0.085355,0.422855,-0.069134,0.433694,-0.050000,0.437500,0.050000,0.437500,0.069134,0.433694,0.085355,0.422855,0.096194,0.406634,0.100000,0.387500,0.100000,-0.387500,0.050000,-0.437500,-0.050000,-0.437500,-0.069134,-0.433694,-0.085355,-0.422855,-0.096194,-0.406634,-0.100000,-0.387500,-0.100000,0.387500,-0.100000,0.387500,$1*%
%AMFreePoly4*
4,1,18,-0.437500,0.050000,-0.387500,0.100000,0.387500,0.100000,0.406634,0.096194,0.422855,0.085355,0.433694,0.069134,0.437500,0.050000,0.437500,-0.050000,0.433694,-0.069134,0.422855,-0.085355,0.406634,-0.096194,0.387500,-0.100000,-0.387500,-0.100000,-0.406634,-0.096194,-0.422855,-0.085355,-0.433694,-0.069134,-0.437500,-0.050000,-0.437500,0.050000,-0.437500,0.050000,$1*%
%AMFreePoly5*
4,1,18,-0.437500,0.050000,-0.433694,0.069134,-0.422855,0.085355,-0.406634,0.096194,-0.387500,0.100000,0.387500,0.100000,0.406634,0.096194,0.422855,0.085355,0.433694,0.069134,0.437500,0.050000,0.437500,-0.050000,0.433694,-0.069134,0.422855,-0.085355,0.406634,-0.096194,0.387500,-0.100000,-0.387500,-0.100000,-0.437500,-0.050000,-0.437500,0.050000,-0.437500,0.050000,$1*%
%AMFreePoly6*
4,1,18,-0.100000,0.387500,-0.096194,0.406634,-0.085355,0.422855,-0.069134,0.433694,-0.050000,0.437500,0.050000,0.437500,0.100000,0.387500,0.100000,-0.387500,0.096194,-0.406634,0.085355,-0.422855,0.069134,-0.433694,0.050000,-0.437500,-0.050000,-0.437500,-0.069134,-0.433694,-0.085355,-0.422855,-0.096194,-0.406634,-0.100000,-0.387500,-0.100000,0.387500,-0.100000,0.387500,$1*%
%AMFreePoly7*
4,1,18,-0.100000,0.387500,-0.050000,0.437500,0.050000,0.437500,0.069134,0.433694,0.085355,0.422855,0.096194,0.406634,0.100000,0.387500,0.100000,-0.387500,0.096194,-0.406634,0.085355,-0.422855,0.069134,-0.433694,0.050000,-0.437500,-0.050000,-0.437500,-0.069134,-0.433694,-0.085355,-0.422855,-0.096194,-0.406634,-0.100000,-0.387500,-0.100000,0.387500,-0.100000,0.387500,$1*%
%AMFreePoly8*
4,1,10,0.210000,0.050000,0.050000,-0.110000,-0.160000,-0.110000,-0.195000,-0.095000,-0.210000,-0.060000,-0.210000,0.060000,-0.195000,0.095000,-0.160000,0.110000,0.210000,0.110000,0.210000,0.050000,0.210000,0.050000,$1*%
%AMFreePoly9*
4,1,10,0.210000,-0.050000,0.210000,-0.110000,-0.160000,-0.110000,-0.195000,-0.095000,-0.210000,-0.060000,-0.210000,0.060000,-0.195000,0.095000,-0.160000,0.110000,0.050000,0.110000,0.210000,-0.050000,0.210000,-0.050000,$1*%
%AMFreePoly10*
4,1,10,0.195000,0.095000,0.210000,0.060000,0.210000,-0.060000,0.195000,-0.095000,0.160000,-0.110000,-0.210000,-0.110000,-0.210000,-0.050000,-0.050000,0.110000,0.160000,0.110000,0.195000,0.095000,0.195000,0.095000,$1*%
%AMFreePoly11*
4,1,12,0.260000,-0.029000,0.260000,-0.160000,-0.160000,-0.160000,-0.210000,-0.147000,-0.247000,-0.110000,-0.260000,-0.060000,-0.260000,0.060000,-0.247000,0.110000,-0.210000,0.147000,-0.160000,0.160000,0.071000,0.160000,0.260000,-0.029000,0.260000,-0.029000,$1*%
%AMFreePoly12*
4,1,12,0.260000,0.029000,0.071000,-0.160000,-0.160000,-0.160000,-0.210000,-0.147000,-0.247000,-0.110000,-0.260000,-0.060000,-0.260000,0.060000,-0.247000,0.110000,-0.210000,0.147000,-0.160000,0.160000,0.260000,0.160000,0.260000,0.029000,0.260000,0.029000,$1*%
%AMFreePoly13*
4,1,12,0.210000,0.147000,0.247000,0.110000,0.260000,0.060000,0.260000,-0.060000,0.247000,-0.110000,0.210000,-0.147000,0.160000,-0.160000,-0.071000,-0.160000,-0.260000,0.029000,-0.260000,0.160000,0.160000,0.160000,0.210000,0.147000,0.210000,0.147000,$1*%
%AMFreePoly14*
4,1,12,0.210000,0.147000,0.247000,0.110000,0.260000,0.060000,0.260000,-0.060000,0.247000,-0.110000,0.210000,-0.147000,0.160000,-0.160000,-0.260000,-0.160000,-0.260000,-0.029000,-0.071000,0.160000,0.160000,0.160000,0.210000,0.147000,0.210000,0.147000,$1*%
G04 Aperture macros list end*
%ADD10C,2.475000*%
%ADD11R,0.380000X1.000000*%
%ADD12R,0.700000X1.150000*%
%ADD13R,0.850000X0.850000*%
%ADD14O,0.850000X0.850000*%
%ADD15R,1.500000X1.500000*%
%ADD16RoundRect,0.100000X-0.100000X0.130000X-0.100000X-0.130000X0.100000X-0.130000X0.100000X0.130000X0*%
%ADD17RoundRect,0.140000X-0.140000X-0.170000X0.140000X-0.170000X0.140000X0.170000X-0.140000X0.170000X0*%
%ADD18RoundRect,0.100000X-0.130000X-0.100000X0.130000X-0.100000X0.130000X0.100000X-0.130000X0.100000X0*%
%ADD19RoundRect,0.100000X0.130000X0.100000X-0.130000X0.100000X-0.130000X-0.100000X0.130000X-0.100000X0*%
%ADD20RoundRect,0.147500X-0.147500X-0.172500X0.147500X-0.172500X0.147500X0.172500X-0.147500X0.172500X0*%
%ADD21RoundRect,0.100000X0.100000X-0.130000X0.100000X0.130000X-0.100000X0.130000X-0.100000X-0.130000X0*%
%ADD22C,1.000000*%
%ADD23C,0.910000*%
%ADD24HorizOval,0.910000X-0.100000X0.100000X0.100000X-0.100000X0*%
%ADD25RoundRect,0.140000X0.140000X0.170000X-0.140000X0.170000X-0.140000X-0.170000X0.140000X-0.170000X0*%
%ADD26R,1.000000X0.700000*%
%ADD27RoundRect,0.147500X0.147500X0.172500X-0.147500X0.172500X-0.147500X-0.172500X0.147500X-0.172500X0*%
%ADD28RoundRect,0.062500X0.387500X0.062500X-0.387500X0.062500X-0.387500X-0.062500X0.387500X-0.062500X0*%
%ADD29R,0.200000X1.600000*%
%ADD30RoundRect,0.140000X-0.170000X0.140000X-0.170000X-0.140000X0.170000X-0.140000X0.170000X0.140000X0*%
%ADD31R,0.650001X0.249999*%
%ADD32FreePoly0,270.000000*%
%ADD33RoundRect,0.050000X-0.050000X0.387500X-0.050000X-0.387500X0.050000X-0.387500X0.050000X0.387500X0*%
%ADD34FreePoly1,270.000000*%
%ADD35FreePoly2,270.000000*%
%ADD36RoundRect,0.050000X-0.387500X0.050000X-0.387500X-0.050000X0.387500X-0.050000X0.387500X0.050000X0*%
%ADD37FreePoly3,270.000000*%
%ADD38FreePoly4,270.000000*%
%ADD39FreePoly5,270.000000*%
%ADD40FreePoly6,270.000000*%
%ADD41FreePoly7,270.000000*%
%ADD42RoundRect,0.153000X1.547000X1.547000X-1.547000X1.547000X-1.547000X-1.547000X1.547000X-1.547000X0*%
%ADD43C,0.500000*%
%ADD44RoundRect,0.075000X-0.275000X0.390000X-0.275000X-0.390000X0.275000X-0.390000X0.275000X0.390000X0*%
%ADD45RoundRect,0.075000X-0.275000X0.075000X-0.275000X-0.075000X0.275000X-0.075000X0.275000X0.075000X0*%
%ADD46FreePoly8,180.000000*%
%ADD47FreePoly9,180.000000*%
%ADD48FreePoly10,180.000000*%
%ADD49FreePoly11,180.000000*%
%ADD50FreePoly12,180.000000*%
%ADD51RoundRect,0.100000X0.106066X0.000000X0.000000X0.106066X-0.106066X0.000000X0.000000X-0.106066X0*%
%ADD52FreePoly13,180.000000*%
%ADD53FreePoly14,180.000000*%
%ADD54RoundRect,0.140000X0.170000X-0.140000X0.170000X0.140000X-0.170000X0.140000X-0.170000X-0.140000X0*%
%ADD55RoundRect,0.075000X0.275000X-0.390000X0.275000X0.390000X-0.275000X0.390000X-0.275000X-0.390000X0*%
%ADD56RoundRect,0.075000X0.275000X-0.075000X0.275000X0.075000X-0.275000X0.075000X-0.275000X-0.075000X0*%
%ADD57RoundRect,0.135000X0.185000X-0.135000X0.185000X0.135000X-0.185000X0.135000X-0.185000X-0.135000X0*%
%ADD58RoundRect,0.087500X-0.087500X0.225000X-0.087500X-0.225000X0.087500X-0.225000X0.087500X0.225000X0*%
%ADD59RoundRect,0.087500X-0.225000X0.087500X-0.225000X-0.087500X0.225000X-0.087500X0.225000X0.087500X0*%
%ADD60C,0.400000*%
G04 APERTURE END LIST*
D10*
X193750Y805000D02*
G75*
G02*
X-53750Y805000I-123750J0D01*
G01*
X-53750Y805000D02*
G75*
G02*
X193750Y805000I123750J0D01*
G01*
D11*
%TO.C,P1*%
X1475000Y2551000D03*
X1425000Y2551000D03*
X1375000Y2551000D03*
X1325000Y2551000D03*
X1275000Y2551000D03*
X1125000Y2551000D03*
X1075000Y2551000D03*
X1025000Y2551000D03*
X975000Y2551000D03*
X925000Y2551000D03*
D12*
X1542000Y2467000D03*
%TD*%
D13*
%TO.C,J4*%
X2306000Y285000D03*
D14*
X2306000Y185000D03*
X2206000Y285000D03*
X2206000Y185000D03*
%TD*%
D13*
%TO.C,J1*%
X242000Y285000D03*
D14*
X242000Y185000D03*
X142000Y285000D03*
X142000Y185000D03*
%TD*%
D15*
%TO.C,TP2*%
X645000Y2625000D03*
%TD*%
%TO.C,TP4*%
X1755000Y2625000D03*
%TD*%
D16*
%TO.C,R43*%
X887500Y464500D03*
X887500Y400500D03*
%TD*%
D17*
%TO.C,C66*%
X1844500Y1102500D03*
X1940500Y1102500D03*
%TD*%
D18*
%TO.C,C117*%
X1296000Y790000D03*
X1360000Y790000D03*
%TD*%
D17*
%TO.C,C21*%
X1592000Y205000D03*
X1688000Y205000D03*
%TD*%
D19*
%TO.C,C11*%
X262000Y1505000D03*
X198000Y1505000D03*
%TD*%
D20*
%TO.C,D10*%
X1619500Y85000D03*
X1716500Y85000D03*
%TD*%
D21*
%TO.C,C77*%
X1607500Y1338500D03*
X1607500Y1402500D03*
%TD*%
%TO.C,C71*%
X1607500Y626000D03*
X1607500Y690000D03*
%TD*%
D22*
%TO.C,TP6*%
X2400000Y1875000D03*
%TD*%
D23*
%TO.C,MK1*%
X667000Y960000D03*
X667000Y795000D03*
X667000Y630000D03*
X433000Y630000D03*
X433000Y795000D03*
D24*
X443000Y950000D03*
%TD*%
D25*
%TO.C,C106*%
X1137000Y1086000D03*
X1041000Y1086000D03*
%TD*%
D21*
%TO.C,C53*%
X807500Y1505500D03*
X807500Y1569500D03*
%TD*%
D16*
%TO.C,R25*%
X486000Y1564000D03*
X486000Y1500000D03*
%TD*%
D17*
%TO.C,C103*%
X1042000Y790000D03*
X1138000Y790000D03*
%TD*%
D21*
%TO.C,C45*%
X1525000Y1340500D03*
X1525000Y1404500D03*
%TD*%
D26*
%TO.C,Y1*%
X140000Y1610000D03*
X140000Y1730000D03*
X140000Y1850000D03*
X300000Y1850000D03*
X300000Y1730000D03*
X300000Y1610000D03*
%TD*%
D27*
%TO.C,D5*%
X780000Y85000D03*
X683000Y85000D03*
%TD*%
D21*
%TO.C,C33*%
X648000Y226000D03*
X648000Y290000D03*
%TD*%
D18*
%TO.C,R15*%
X343000Y1505000D03*
X407000Y1505000D03*
%TD*%
D28*
%TO.C,U4*%
X1182750Y2310250D03*
X1182750Y2260250D03*
X1182750Y2210250D03*
X1182750Y2160250D03*
X897750Y2160250D03*
X897750Y2210250D03*
X897750Y2260250D03*
X897750Y2310250D03*
D29*
X1040250Y2235250D03*
%TD*%
D25*
%TO.C,C90*%
X575500Y1760000D03*
X479500Y1760000D03*
%TD*%
D17*
%TO.C,C86*%
X172000Y2007000D03*
X268000Y2007000D03*
%TD*%
D19*
%TO.C,C82*%
X644500Y1337500D03*
X580500Y1337500D03*
%TD*%
D18*
%TO.C,C91*%
X895500Y1177500D03*
X959500Y1177500D03*
%TD*%
D30*
%TO.C,C18*%
X890000Y283000D03*
X890000Y187000D03*
%TD*%
D19*
%TO.C,C29*%
X562000Y475000D03*
X498000Y475000D03*
%TD*%
D31*
%TO.C,U8*%
X165000Y2092500D03*
X165000Y2142500D03*
X165000Y2192500D03*
X165000Y2242500D03*
X165000Y2292500D03*
X290000Y2292500D03*
X290000Y2242500D03*
X290000Y2192500D03*
X290000Y2142500D03*
X290000Y2092500D03*
%TD*%
D16*
%TO.C,R40*%
X80000Y2297000D03*
X80000Y2233000D03*
%TD*%
%TO.C,R28*%
X340000Y1202500D03*
X340000Y1138500D03*
%TD*%
D21*
%TO.C,C28*%
X808000Y1096000D03*
X808000Y1160000D03*
%TD*%
%TO.C,C30*%
X807000Y707000D03*
X807000Y771000D03*
%TD*%
%TO.C,R4*%
X727500Y1436000D03*
X727500Y1500000D03*
%TD*%
D32*
%TO.C,U1*%
X1427500Y2288750D03*
D33*
X1467500Y2288750D03*
X1507500Y2288750D03*
X1547500Y2288750D03*
X1587500Y2288750D03*
X1627500Y2288750D03*
X1667500Y2288750D03*
X1707500Y2288750D03*
X1747500Y2288750D03*
X1787500Y2288750D03*
X1827500Y2288750D03*
X1867500Y2288750D03*
X1907500Y2288750D03*
X1947500Y2288750D03*
D34*
X1987500Y2288750D03*
D35*
X2051250Y2225000D03*
D36*
X2051250Y2185000D03*
X2051250Y2145000D03*
X2051250Y2105000D03*
X2051250Y2065000D03*
X2051250Y2025000D03*
X2051250Y1985000D03*
X2051250Y1945000D03*
X2051250Y1905000D03*
X2051250Y1865000D03*
X2051250Y1825000D03*
X2051250Y1785000D03*
X2051250Y1745000D03*
X2051250Y1705000D03*
D37*
X2051250Y1665000D03*
D38*
X1987500Y1601250D03*
D33*
X1947500Y1601250D03*
X1907500Y1601250D03*
X1867500Y1601250D03*
X1827500Y1601250D03*
X1787500Y1601250D03*
X1747500Y1601250D03*
X1707500Y1601250D03*
X1667500Y1601250D03*
X1627500Y1601250D03*
X1587500Y1601250D03*
X1547500Y1601250D03*
X1507500Y1601250D03*
X1467500Y1601250D03*
D39*
X1427500Y1601250D03*
D40*
X1363750Y1665000D03*
D36*
X1363750Y1705000D03*
X1363750Y1745000D03*
X1363750Y1785000D03*
X1363750Y1825000D03*
X1363750Y1865000D03*
X1363750Y1905000D03*
X1363750Y1945000D03*
X1363750Y1985000D03*
X1363750Y2025000D03*
X1363750Y2065000D03*
X1363750Y2105000D03*
X1363750Y2145000D03*
X1363750Y2185000D03*
D41*
X1363750Y2225000D03*
D42*
X1707500Y1945000D03*
%TD*%
D19*
%TO.C,R30*%
X642000Y1577500D03*
X578000Y1577500D03*
%TD*%
%TO.C,R19*%
X1637000Y310000D03*
X1573000Y310000D03*
%TD*%
D21*
%TO.C,R22*%
X727500Y1655500D03*
X727500Y1719500D03*
%TD*%
D18*
%TO.C,C94*%
X1455000Y778000D03*
X1519000Y778000D03*
%TD*%
D30*
%TO.C,C34*%
X485000Y295500D03*
X485000Y199500D03*
%TD*%
D19*
%TO.C,C97*%
X1519000Y698000D03*
X1455000Y698000D03*
%TD*%
%TO.C,R39*%
X2222000Y1561000D03*
X2158000Y1561000D03*
%TD*%
D43*
%TO.C,FID1*%
X1823000Y743000D03*
%TD*%
D44*
%TO.C,D15*%
X2031000Y429500D03*
D45*
X2031000Y341000D03*
%TD*%
D25*
%TO.C,C12*%
X295500Y1420000D03*
X199500Y1420000D03*
%TD*%
D19*
%TO.C,R34*%
X2017000Y1495000D03*
X1953000Y1495000D03*
%TD*%
D18*
%TO.C,C98*%
X1454500Y1178000D03*
X1518500Y1178000D03*
%TD*%
%TO.C,C87*%
X463000Y2292500D03*
X527000Y2292500D03*
%TD*%
D17*
%TO.C,C73*%
X1826000Y381000D03*
X1922000Y381000D03*
%TD*%
D18*
%TO.C,C38*%
X815500Y1417500D03*
X879500Y1417500D03*
%TD*%
D17*
%TO.C,C74*%
X1844000Y205000D03*
X1940000Y205000D03*
%TD*%
D19*
%TO.C,C64*%
X639500Y1497500D03*
X575500Y1497500D03*
%TD*%
D21*
%TO.C,R26*%
X415000Y1360000D03*
X415000Y1424000D03*
%TD*%
D18*
%TO.C,C63*%
X968000Y1577500D03*
X1032000Y1577500D03*
%TD*%
D19*
%TO.C,C92*%
X1519000Y1258000D03*
X1455000Y1258000D03*
%TD*%
D25*
%TO.C,C14*%
X1158000Y1936000D03*
X1062000Y1936000D03*
%TD*%
D18*
%TO.C,C68*%
X1853000Y857500D03*
X1917000Y857500D03*
%TD*%
D25*
%TO.C,C26*%
X574000Y1102000D03*
X478000Y1102000D03*
%TD*%
D30*
%TO.C,C17*%
X1060000Y313000D03*
X1060000Y217000D03*
%TD*%
D18*
%TO.C,C111*%
X895000Y1018000D03*
X959000Y1018000D03*
%TD*%
D21*
%TO.C,C76*%
X1682500Y1100500D03*
X1682500Y1164500D03*
%TD*%
D19*
%TO.C,R20*%
X1652000Y385000D03*
X1588000Y385000D03*
%TD*%
%TO.C,C112*%
X960000Y858000D03*
X896000Y858000D03*
%TD*%
D27*
%TO.C,D2*%
X1342250Y85000D03*
X1245250Y85000D03*
%TD*%
D18*
%TO.C,R31*%
X553500Y1937500D03*
X617500Y1937500D03*
%TD*%
%TO.C,C96*%
X896000Y779000D03*
X960000Y779000D03*
%TD*%
D21*
%TO.C,C46*%
X850000Y2398000D03*
X850000Y2462000D03*
%TD*%
D19*
%TO.C,C75*%
X1757000Y1337500D03*
X1693000Y1337500D03*
%TD*%
%TO.C,R17*%
X312000Y405000D03*
X248000Y405000D03*
%TD*%
D30*
%TO.C,C107*%
X1253000Y991000D03*
X1253000Y895000D03*
%TD*%
D46*
%TO.C,U10*%
X1059000Y415000D03*
D47*
X1059000Y463000D03*
D48*
X981000Y463000D03*
D49*
X1059000Y463000D03*
D50*
X1059000Y415000D03*
D51*
X1020000Y439000D03*
D52*
X981000Y415000D03*
D53*
X981000Y463000D03*
%TD*%
D54*
%TO.C,C40*%
X1050000Y1271500D03*
X1050000Y1367500D03*
%TD*%
D17*
%TO.C,C8*%
X2188000Y1961000D03*
X2284000Y1961000D03*
%TD*%
D25*
%TO.C,C13*%
X295000Y1327500D03*
X199000Y1327500D03*
%TD*%
D16*
%TO.C,R44*%
X817500Y444500D03*
X817500Y380500D03*
%TD*%
D25*
%TO.C,C35*%
X650500Y392500D03*
X554500Y392500D03*
%TD*%
D19*
%TO.C,R38*%
X2222000Y1490000D03*
X2158000Y1490000D03*
%TD*%
%TO.C,C32*%
X879000Y618000D03*
X815000Y618000D03*
%TD*%
D43*
%TO.C,FID2*%
X2061000Y221000D03*
%TD*%
D19*
%TO.C,C93*%
X960500Y698000D03*
X896500Y698000D03*
%TD*%
D54*
%TO.C,C57*%
X2170000Y2329500D03*
X2170000Y2425500D03*
%TD*%
D21*
%TO.C,C70*%
X1607500Y465500D03*
X1607500Y529500D03*
%TD*%
D18*
%TO.C,C31*%
X815000Y539000D03*
X879000Y539000D03*
%TD*%
D54*
%TO.C,C109*%
X1151000Y895000D03*
X1151000Y991000D03*
%TD*%
D21*
%TO.C,C19*%
X1127000Y546000D03*
X1127000Y610000D03*
%TD*%
D30*
%TO.C,C110*%
X1051000Y991000D03*
X1051000Y895000D03*
%TD*%
D54*
%TO.C,C108*%
X1358000Y895000D03*
X1358000Y991000D03*
%TD*%
D17*
%TO.C,C15*%
X1062000Y1842500D03*
X1158000Y1842500D03*
%TD*%
D21*
%TO.C,C69*%
X1607500Y773000D03*
X1607500Y837000D03*
%TD*%
D25*
%TO.C,C52*%
X636000Y1852500D03*
X540000Y1852500D03*
%TD*%
D30*
%TO.C,C65*%
X1615000Y1018000D03*
X1615000Y922000D03*
%TD*%
D54*
%TO.C,C47*%
X750000Y2355000D03*
X750000Y2451000D03*
%TD*%
D19*
%TO.C,R42*%
X724500Y1092500D03*
X660500Y1092500D03*
%TD*%
D55*
%TO.C,D16*%
X2032000Y582500D03*
D56*
X2032000Y671000D03*
%TD*%
D21*
%TO.C,R27*%
X270000Y1070500D03*
X270000Y1134500D03*
%TD*%
D19*
%TO.C,C23*%
X1518500Y538000D03*
X1454500Y538000D03*
%TD*%
D25*
%TO.C,C101*%
X1367000Y709000D03*
X1271000Y709000D03*
%TD*%
%TO.C,C42*%
X1068000Y1675000D03*
X972000Y1675000D03*
%TD*%
D27*
%TO.C,D4*%
X967250Y85000D03*
X870250Y85000D03*
%TD*%
D57*
%TO.C,R3*%
X1157500Y1506000D03*
X1157500Y1608000D03*
%TD*%
D19*
%TO.C,C116*%
X1359500Y1080000D03*
X1295500Y1080000D03*
%TD*%
D18*
%TO.C,C16*%
X975000Y539000D03*
X1039000Y539000D03*
%TD*%
D58*
%TO.C,U9*%
X1205000Y431250D03*
X1255000Y431250D03*
X1305000Y431250D03*
X1355000Y431250D03*
D59*
X1371250Y365000D03*
X1371250Y315000D03*
X1371250Y265000D03*
D58*
X1355000Y198750D03*
X1305000Y198750D03*
X1255000Y198750D03*
X1205000Y198750D03*
D59*
X1188750Y265000D03*
X1188750Y315000D03*
X1188750Y365000D03*
%TD*%
D19*
%TO.C,R41*%
X724500Y1167500D03*
X660500Y1167500D03*
%TD*%
D18*
%TO.C,C44*%
X1453000Y1497500D03*
X1517000Y1497500D03*
%TD*%
D25*
%TO.C,C105*%
X1367000Y1259000D03*
X1271000Y1259000D03*
%TD*%
D18*
%TO.C,C72*%
X1853500Y617500D03*
X1917500Y617500D03*
%TD*%
D22*
%TO.C,TP5*%
X2400000Y2075000D03*
%TD*%
D21*
%TO.C,C43*%
X1252500Y1570500D03*
X1252500Y1634500D03*
%TD*%
D19*
%TO.C,C95*%
X959500Y1098000D03*
X895500Y1098000D03*
%TD*%
D30*
%TO.C,C22*%
X1480000Y303000D03*
X1480000Y207000D03*
%TD*%
D19*
%TO.C,R35*%
X442000Y2035000D03*
X378000Y2035000D03*
%TD*%
D17*
%TO.C,C104*%
X1271000Y617000D03*
X1367000Y617000D03*
%TD*%
%TO.C,C102*%
X1271000Y1167000D03*
X1367000Y1167000D03*
%TD*%
D25*
%TO.C,C89*%
X575500Y1665000D03*
X479500Y1665000D03*
%TD*%
D18*
%TO.C,C37*%
X895500Y1257500D03*
X959500Y1257500D03*
%TD*%
D20*
%TO.C,D11*%
X1807000Y85000D03*
X1904000Y85000D03*
%TD*%
D43*
%TO.C,FID3*%
X743000Y2155000D03*
%TD*%
D21*
%TO.C,C36*%
X487500Y1360500D03*
X487500Y1424500D03*
%TD*%
D27*
%TO.C,D1*%
X1529750Y85000D03*
X1432750Y85000D03*
%TD*%
D54*
%TO.C,C27*%
X809000Y895000D03*
X809000Y991000D03*
%TD*%
D16*
%TO.C,C67*%
X1607500Y1170000D03*
X1607500Y1106000D03*
%TD*%
%TO.C,R12*%
X350000Y219000D03*
X350000Y155000D03*
%TD*%
D21*
%TO.C,R29*%
X655000Y1678000D03*
X655000Y1742000D03*
%TD*%
D25*
%TO.C,C100*%
X1138000Y698000D03*
X1042000Y698000D03*
%TD*%
D19*
%TO.C,C25*%
X1363000Y536000D03*
X1299000Y536000D03*
%TD*%
D27*
%TO.C,D6*%
X592500Y85000D03*
X495500Y85000D03*
%TD*%
D18*
%TO.C,C24*%
X1454500Y619000D03*
X1518500Y619000D03*
%TD*%
D17*
%TO.C,C41*%
X1345000Y1367500D03*
X1441000Y1367500D03*
%TD*%
D18*
%TO.C,C114*%
X1454500Y1019000D03*
X1518500Y1019000D03*
%TD*%
D17*
%TO.C,C99*%
X1041000Y1177500D03*
X1137000Y1177500D03*
%TD*%
D16*
%TO.C,R24*%
X470000Y2217000D03*
X470000Y2153000D03*
%TD*%
D25*
%TO.C,C7*%
X2263000Y2072500D03*
X2167000Y2072500D03*
%TD*%
D19*
%TO.C,C20*%
X1039000Y617000D03*
X975000Y617000D03*
%TD*%
%TO.C,C115*%
X1519500Y858000D03*
X1455500Y858000D03*
%TD*%
D30*
%TO.C,C88*%
X387500Y2210500D03*
X387500Y2114500D03*
%TD*%
D27*
%TO.C,D3*%
X1154750Y85000D03*
X1057750Y85000D03*
%TD*%
D17*
%TO.C,C39*%
X1154500Y1367500D03*
X1250500Y1367500D03*
%TD*%
%TO.C,C6*%
X1249000Y1480000D03*
X1345000Y1480000D03*
%TD*%
D16*
%TO.C,R16*%
X717000Y1305000D03*
X717000Y1241000D03*
%TD*%
D19*
%TO.C,C113*%
X1519000Y1098000D03*
X1455000Y1098000D03*
%TD*%
D60*
X2090000Y785000D03*
X2050000Y1225000D03*
X967000Y1338000D03*
X1597266Y1498000D03*
X1847000Y298000D03*
X1688983Y1418434D03*
X1687500Y700000D03*
X1850000Y1418000D03*
X649000Y534000D03*
X1762184Y1494500D03*
X720000Y459000D03*
X807000Y1348000D03*
X430000Y415000D03*
X2017751Y1102751D03*
X1986329Y972853D03*
X1980970Y727426D03*
X2030467Y776924D03*
X2035826Y1022350D03*
X2066407Y914824D03*
X2066407Y844824D03*
X490000Y385000D03*
X2067249Y1152249D03*
X1842600Y1496702D03*
X1766684Y1415904D03*
X1216734Y1098000D03*
X584840Y2120000D03*
X967000Y1498000D03*
X887000Y1498000D03*
X1687000Y1258000D03*
X1687000Y538000D03*
X1767000Y538000D03*
M02*
