%TF.GenerationSoftware,KiCad,Pcbnew,9.0.1*%
%TF.CreationDate,2025-05-16T18:32:17-04:00*%
%TF.ProjectId,Expansion_Card_Retrofit,45787061-6e73-4696-9f6e-5f436172645f,X1*%
%TF.SameCoordinates,Original*%
%TF.FileFunction,OtherDrawing,Comment*%
%FSLAX45Y45*%
G04 Gerber Fmt 4.5, Leading zero omitted, Abs format (unit mm)*
G04 Created by KiCad (PCBNEW 9.0.1) date 2025-05-16 18:32:17*
%MOMM*%
%LPD*%
G01*
G04 APERTURE LIST*
%ADD10C,0.080000*%
G04 APERTURE END LIST*
D10*
X1028571Y2628285D02*
X1028571Y2678285D01*
X1028571Y2678285D02*
X1047619Y2678285D01*
X1047619Y2678285D02*
X1052381Y2675904D01*
X1052381Y2675904D02*
X1054762Y2673523D01*
X1054762Y2673523D02*
X1057143Y2668761D01*
X1057143Y2668761D02*
X1057143Y2661618D01*
X1057143Y2661618D02*
X1054762Y2656857D01*
X1054762Y2656857D02*
X1052381Y2654476D01*
X1052381Y2654476D02*
X1047619Y2652095D01*
X1047619Y2652095D02*
X1028571Y2652095D01*
X1107143Y2633047D02*
X1104762Y2630666D01*
X1104762Y2630666D02*
X1097619Y2628285D01*
X1097619Y2628285D02*
X1092857Y2628285D01*
X1092857Y2628285D02*
X1085714Y2630666D01*
X1085714Y2630666D02*
X1080952Y2635428D01*
X1080952Y2635428D02*
X1078571Y2640190D01*
X1078571Y2640190D02*
X1076191Y2649714D01*
X1076191Y2649714D02*
X1076191Y2656857D01*
X1076191Y2656857D02*
X1078571Y2666380D01*
X1078571Y2666380D02*
X1080952Y2671142D01*
X1080952Y2671142D02*
X1085714Y2675904D01*
X1085714Y2675904D02*
X1092857Y2678285D01*
X1092857Y2678285D02*
X1097619Y2678285D01*
X1097619Y2678285D02*
X1104762Y2675904D01*
X1104762Y2675904D02*
X1107143Y2673523D01*
X1145238Y2654476D02*
X1152381Y2652095D01*
X1152381Y2652095D02*
X1154762Y2649714D01*
X1154762Y2649714D02*
X1157143Y2644952D01*
X1157143Y2644952D02*
X1157143Y2637809D01*
X1157143Y2637809D02*
X1154762Y2633047D01*
X1154762Y2633047D02*
X1152381Y2630666D01*
X1152381Y2630666D02*
X1147619Y2628285D01*
X1147619Y2628285D02*
X1128571Y2628285D01*
X1128571Y2628285D02*
X1128571Y2678285D01*
X1128571Y2678285D02*
X1145238Y2678285D01*
X1145238Y2678285D02*
X1150000Y2675904D01*
X1150000Y2675904D02*
X1152381Y2673523D01*
X1152381Y2673523D02*
X1154762Y2668761D01*
X1154762Y2668761D02*
X1154762Y2663999D01*
X1154762Y2663999D02*
X1152381Y2659238D01*
X1152381Y2659238D02*
X1150000Y2656857D01*
X1150000Y2656857D02*
X1145238Y2654476D01*
X1145238Y2654476D02*
X1128571Y2654476D01*
X1216667Y2654476D02*
X1233333Y2654476D01*
X1240476Y2628285D02*
X1216667Y2628285D01*
X1216667Y2628285D02*
X1216667Y2678285D01*
X1216667Y2678285D02*
X1240476Y2678285D01*
X1283333Y2628285D02*
X1283333Y2678285D01*
X1283333Y2630666D02*
X1278571Y2628285D01*
X1278571Y2628285D02*
X1269048Y2628285D01*
X1269048Y2628285D02*
X1264286Y2630666D01*
X1264286Y2630666D02*
X1261905Y2633047D01*
X1261905Y2633047D02*
X1259524Y2637809D01*
X1259524Y2637809D02*
X1259524Y2652095D01*
X1259524Y2652095D02*
X1261905Y2656857D01*
X1261905Y2656857D02*
X1264286Y2659238D01*
X1264286Y2659238D02*
X1269048Y2661618D01*
X1269048Y2661618D02*
X1278571Y2661618D01*
X1278571Y2661618D02*
X1283333Y2659238D01*
X1328571Y2661618D02*
X1328571Y2621142D01*
X1328571Y2621142D02*
X1326190Y2616380D01*
X1326190Y2616380D02*
X1323810Y2613999D01*
X1323810Y2613999D02*
X1319048Y2611618D01*
X1319048Y2611618D02*
X1311905Y2611618D01*
X1311905Y2611618D02*
X1307143Y2613999D01*
X1328571Y2630666D02*
X1323810Y2628285D01*
X1323810Y2628285D02*
X1314286Y2628285D01*
X1314286Y2628285D02*
X1309524Y2630666D01*
X1309524Y2630666D02*
X1307143Y2633047D01*
X1307143Y2633047D02*
X1304762Y2637809D01*
X1304762Y2637809D02*
X1304762Y2652095D01*
X1304762Y2652095D02*
X1307143Y2656857D01*
X1307143Y2656857D02*
X1309524Y2659238D01*
X1309524Y2659238D02*
X1314286Y2661618D01*
X1314286Y2661618D02*
X1323810Y2661618D01*
X1323810Y2661618D02*
X1328571Y2659238D01*
X1371429Y2630666D02*
X1366667Y2628285D01*
X1366667Y2628285D02*
X1357143Y2628285D01*
X1357143Y2628285D02*
X1352381Y2630666D01*
X1352381Y2630666D02*
X1350000Y2635428D01*
X1350000Y2635428D02*
X1350000Y2654476D01*
X1350000Y2654476D02*
X1352381Y2659238D01*
X1352381Y2659238D02*
X1357143Y2661618D01*
X1357143Y2661618D02*
X1366667Y2661618D01*
X1366667Y2661618D02*
X1371429Y2659238D01*
X1371429Y2659238D02*
X1373810Y2654476D01*
X1373810Y2654476D02*
X1373810Y2649714D01*
X1373810Y2649714D02*
X1350000Y2644952D01*
M02*
