M48
; DRILL file {KiCad 9.0.0} date 2025-03-28T20:31:48-0400
; FORMAT={-:-/ absolute / metric / decimal}
; #@! TF.CreationDate,2025-03-28T20:31:48-04:00
; #@! TF.GenerationSoftware,Kicad,Pcbnew,9.0.0
; #@! TF.FileFunction,MixedPlating,1,8
FMAT,2
METRIC
; #@! TA.AperFunction,Plated,PTH,ViaDrill
T1C0.200
; #@! TA.AperFunction,Plated,PTH,ComponentDrill
T2C0.250
; #@! TA.AperFunction,Plated,PTH,ViaDrill
T3C0.300
; #@! TA.AperFunction,Plated,PTH,ViaDrill
T4C0.400
; #@! TA.AperFunction,Plated,PTH,ComponentDrill
T5C0.500
%
G90
G05
T1
X0.383Y23.379
X0.4Y19.45
X0.425Y20.175
X0.8Y22.37
X0.8Y23.92
X0.925Y21.4
X1.025Y20.175
X1.171Y15.121
X1.975Y12.55
X2.0Y23.3
X2.275Y10.825
X2.648Y14.914
X2.95Y12.55
X3.175Y20.5
X3.25Y24.4
X3.73Y20.35
X3.75Y10.05
X3.8Y24.4
X3.85Y12.6
X3.9Y8.65
X3.925Y3.275
X4.0Y23.375
X4.3Y4.15
X4.37Y0.71
X4.666Y24.455
X4.87Y16.58
X4.87Y14.98
X4.87Y12.58
X4.87Y10.98
X4.87Y5.38
X4.87Y2.98
X4.87Y2.18
X4.872Y10.277
X4.875Y6.275
X4.9Y20.75
X4.9Y3.85
X5.612Y3.013
X5.65Y7.825
X5.67Y16.58
X5.67Y14.98
X5.67Y12.58
X5.67Y10.98
X5.67Y8.55
X5.67Y5.38
X5.68Y13.38
X5.69Y9.305
X5.691Y11.823
X5.79Y7.14
X5.8Y21.78
X5.813Y22.313
X5.848Y21.2
X5.92Y0.5
X6.237Y22.737
X6.3Y23.29
X6.428Y14.24
X6.458Y13.345
X6.47Y15.78
X6.47Y14.98
X6.47Y12.55
X6.47Y2.98
X6.47Y2.18
X6.49Y5.34
X6.668Y16.807
X6.7Y19.75
X6.745Y0.891
X6.76Y17.89
X6.792Y24.17
X7.013Y22.488
X7.2Y4.59
X7.25Y13.3
X7.25Y6.18
X7.27Y15.78
X7.27Y3.077
X7.275Y14.161
X7.437Y22.912
X7.539Y16.609
X7.795Y0.5
X7.928Y22.537
X7.95Y20.702
X8.07Y11.683
X8.07Y16.58
X8.07Y15.78
X8.07Y14.98
X8.07Y10.98
X8.07Y10.18
X8.07Y8.58
X8.07Y6.98
X8.07Y6.18
X8.07Y5.38
X8.07Y13.48
X8.1Y3.775
X8.3Y23.275
X8.31Y8.081
X8.657Y0.922
X8.87Y14.98
X8.87Y12.58
X8.87Y11.78
X8.87Y10.98
X8.87Y10.18
X8.87Y8.58
X8.87Y7.78
X8.87Y6.98
X8.87Y6.18
X8.87Y5.38
X8.87Y2.98
X8.87Y2.18
X8.9Y3.75
X9.25Y25.51
X9.67Y15.78
X9.67Y14.98
X9.67Y14.18
X9.67Y13.38
X9.67Y12.58
X9.67Y11.78
X9.67Y10.98
X9.67Y10.18
X9.67Y8.58
X9.67Y7.78
X9.67Y6.98
X9.67Y6.18
X9.67Y5.38
X9.675Y0.5
X9.75Y19.525
X10.325Y0.55
X10.4Y20.95
X10.47Y14.98
X10.47Y12.58
X10.47Y11.78
X10.47Y10.98
X10.47Y10.18
X10.47Y8.58
X10.47Y7.78
X10.47Y6.98
X10.47Y6.18
X10.47Y5.38
X10.56Y24.42
X10.75Y25.51
X10.75Y21.602
X10.977Y18.008
X11.069Y24.536
X11.27Y13.38
X11.27Y12.58
X11.27Y11.78
X11.27Y10.98
X11.27Y10.18
X11.27Y8.58
X11.27Y7.78
X11.27Y6.98
X11.27Y6.18
X11.27Y5.38
X11.27Y2.98
X11.27Y2.18
X11.373Y21.217
X11.4Y17.24
X11.421Y23.59
X11.493Y24.112
X11.55Y0.5
X11.973Y15.78
X12.0Y18.331
X12.04Y17.719
X12.077Y4.592
X12.167Y10.98
X12.254Y19.97
X12.407Y0.922
X12.5Y16.58
X12.617Y19.156
X12.856Y17.755
X12.858Y16.92
X12.87Y13.38
X12.87Y12.58
X12.87Y11.78
X12.87Y10.98
X12.87Y10.18
X12.87Y8.58
X12.87Y7.78
X12.87Y6.98
X12.87Y6.18
X12.87Y5.38
X12.875Y15.7
X12.888Y3.706
X12.9Y2.95
X13.0Y24.6
X13.24Y23.16
X13.25Y25.51
X13.38Y24.24
X13.38Y23.64
X13.425Y0.5
X13.67Y13.38
X13.67Y12.58
X13.67Y11.78
X13.67Y10.98
X13.67Y10.18
X13.67Y8.58
X13.67Y7.78
X13.67Y6.98
X13.67Y6.18
X13.67Y5.38
X13.675Y15.025
X14.172Y23.262
X14.277Y0.925
X14.374Y23.731
X14.375Y21.801
X14.4Y19.65
X14.413Y20.738
X14.449Y3.759
X14.47Y13.38
X14.47Y12.58
X14.47Y11.78
X14.47Y10.98
X14.47Y10.18
X14.47Y8.58
X14.47Y7.78
X14.47Y6.98
X14.47Y6.18
X14.47Y5.38
X14.47Y2.98
X14.47Y2.18
X14.5Y15.025
X14.678Y24.178
X14.68Y16.86
X14.75Y25.51
X14.837Y21.162
X14.975Y18.175
X15.13Y17.32
X15.177Y16.789
X15.242Y24.03
X15.27Y13.38
X15.27Y12.58
X15.27Y11.78
X15.27Y10.98
X15.27Y10.18
X15.27Y8.58
X15.27Y7.78
X15.27Y6.98
X15.27Y6.18
X15.27Y5.38
X15.295Y0.5
X15.3Y4.58
X15.35Y21.75
X15.35Y3.782
X15.72Y1.93
X15.973Y14.98
X16.07Y13.38
X16.07Y12.58
X16.07Y11.78
X16.07Y10.98
X16.07Y10.18
X16.07Y8.58
X16.07Y7.78
X16.07Y6.98
X16.07Y6.18
X16.07Y5.38
X16.072Y24.46
X16.075Y14.15
X16.1Y21.45
X16.1Y9.325
X16.1Y4.6
X16.195Y0.5
X16.25Y23.55
X16.675Y16.942
X16.68Y1.93
X16.792Y14.981
X16.87Y13.38
X16.87Y12.58
X16.87Y5.38
X16.875Y7.0
X16.89Y14.184
X16.9Y2.975
X17.025Y24.25
X17.242Y16.942
X17.4Y21.55
X17.573Y10.18
X17.622Y14.945
X17.648Y2.125
X17.667Y14.159
X17.67Y13.38
X17.67Y12.58
X17.67Y5.38
X17.7Y11.8
X17.85Y23.76
X17.868Y0.4
X18.075Y16.8
X18.275Y23.075
X18.426Y14.967
X18.47Y8.58
X18.47Y6.18
X18.47Y3.78
X18.47Y2.98
X18.47Y2.18
X18.475Y10.975
X18.475Y4.575
X18.5Y21.452
X18.5Y14.18
X18.602Y1.392
X18.65Y21.964
X18.832Y16.75
X18.992Y23.505
X19.04Y0.5
X19.143Y22.047
X19.151Y17.312
X19.156Y10.992
X19.2Y8.65
X19.27Y6.18
X19.27Y3.78
X19.27Y2.18
X19.4Y19.05
X19.452Y16.75
X19.486Y15.012
X19.51Y14.23
X19.551Y17.826
X19.6Y1.275
X19.638Y21.552
X19.664Y20.572
X19.75Y24.2
X19.81Y7.274
X19.85Y19.45
X19.863Y9.729
X19.901Y23.625
X20.038Y17.061
X20.178Y11.028
X20.305Y7.769
X20.31Y3.41
X20.358Y10.224
X20.4Y24.24
X20.4Y22.94
X20.45Y0.51
X20.5Y12.25
X20.664Y9.148
X20.664Y8.448
X20.672Y11.522
X20.688Y15.801
X20.734Y14.72
X20.753Y15.222
X20.771Y14.198
X20.9Y7.85
X21.175Y6.225
X21.21Y18.0
X21.21Y17.3
X21.4Y22.488
X21.59Y5.84
X21.67Y20.725
X21.733Y17.207
X21.85Y17.695
X22.104Y19.721
X22.55Y17.695
X22.55Y10.702
X22.63Y20.725
X22.655Y19.3
X22.657Y16.239
X22.7Y17.15
X22.9Y24.25
X23.1Y23.1
X23.1Y22.4
X23.3Y23.67
X23.42Y14.01
X23.42Y13.19
X23.42Y12.32
X23.6Y22.05
T2
X15.7Y20.825
X15.7Y19.45
X15.7Y18.075
X17.075Y20.825
X17.075Y19.45
X17.075Y18.075
X18.45Y20.825
X18.45Y19.45
X18.45Y18.075
T3
X5.985Y26.724
X6.938Y26.724
X17.098Y26.724
X17.986Y26.724
T4
X0.75Y9.8
X0.75Y6.3
X2.25Y9.05
X2.25Y7.05
T5
X1.42Y2.85
X1.42Y1.85
X2.42Y2.85
X2.42Y1.85
X22.06Y2.85
X22.06Y1.85
X23.06Y2.85
X23.06Y1.85
M30
