M48
; DRILL file {KiCad 9.0.1} date 2025-05-16T18:32:17-0400
; FORMAT={-:-/ absolute / metric / decimal}
; #@! TF.CreationDate,2025-05-16T18:32:17-04:00
; #@! TF.GenerationSoftware,Kicad,Pcbnew,9.0.1
; #@! TF.FileFunction,MixedPlating,1,8
FMAT,2
METRIC
; #@! TA.AperFunction,Plated,PTH,ViaDrill
T1C0.200
; #@! TA.AperFunction,Plated,PTH,ViaDrill
T2C0.300
; #@! TA.AperFunction,Plated,PTH,ViaDrill
T3C0.400
; #@! TA.AperFunction,Plated,PTH,ComponentDrill
T4C0.500
%
G90
G05
T1
X0.383Y23.379
X0.425Y20.175
X0.8Y22.37
X0.8Y23.92
X1.025Y21.4
X1.1Y20.15
X1.171Y15.121
X1.975Y12.55
X2.0Y23.3
X2.11Y4.67
X2.14Y5.37
X2.32Y0.55
X2.576Y10.732
X2.648Y14.914
X2.77Y5.37
X2.95Y12.55
X3.175Y20.5
X3.25Y24.4
X3.73Y20.35
X3.75Y10.05
X3.76Y2.74
X3.8Y24.4
X3.85Y12.6
X3.9Y8.65
X3.97Y5.27
X4.053Y23.378
X4.37Y0.71
X4.49Y4.333
X4.52Y13.605
X4.666Y24.455
X4.87Y16.58
X4.87Y14.98
X4.87Y12.58
X4.87Y10.98
X4.87Y5.38
X4.87Y2.98
X4.87Y2.18
X4.872Y10.277
X4.875Y6.275
X4.9Y20.75
X5.612Y2.921
X5.65Y7.825
X5.67Y16.58
X5.67Y14.98
X5.67Y12.58
X5.67Y10.98
X5.67Y8.55
X5.67Y5.38
X5.68Y13.38
X5.68Y6.97
X5.69Y9.305
X5.691Y11.823
X5.8Y21.78
X5.92Y0.5
X5.98Y22.81
X6.064Y22.313
X6.458Y13.345
X6.47Y15.78
X6.47Y14.98
X6.47Y12.55
X6.47Y2.98
X6.47Y2.18
X6.48Y14.14
X6.5Y23.4
X6.55Y16.76
X6.559Y22.808
X6.745Y0.891
X6.76Y17.89
X6.792Y24.17
X7.14Y23.14
X7.25Y18.525
X7.25Y13.3
X7.27Y15.78
X7.27Y3.077
X7.275Y14.161
X7.28Y16.57
X7.28Y14.98
X7.364Y6.18
X7.795Y0.5
X7.84Y23.14
X7.997Y22.048
X8.06Y7.77
X8.07Y11.683
X8.07Y16.58
X8.07Y15.78
X8.07Y14.98
X8.07Y10.98
X8.07Y10.18
X8.07Y8.58
X8.07Y6.98
X8.07Y6.18
X8.07Y5.38
X8.1Y4.55
X8.12Y3.8
X8.27Y23.69
X8.657Y0.922
X8.87Y14.98
X8.87Y12.58
X8.87Y11.78
X8.87Y10.98
X8.87Y10.18
X8.87Y8.58
X8.87Y7.78
X8.87Y6.98
X8.87Y6.18
X8.87Y5.38
X8.87Y2.98
X8.87Y2.18
X8.89Y4.56
X8.95Y3.8
X9.25Y25.51
X9.67Y15.78
X9.67Y14.98
X9.67Y14.18
X9.67Y13.38
X9.67Y12.58
X9.67Y11.78
X9.67Y10.98
X9.67Y10.18
X9.67Y8.58
X9.67Y7.78
X9.67Y6.98
X9.67Y6.18
X9.67Y5.38
X9.675Y0.5
X9.75Y19.525
X10.353Y24.097
X10.375Y16.676
X10.47Y14.98
X10.47Y12.58
X10.47Y11.78
X10.47Y10.98
X10.47Y10.18
X10.47Y8.58
X10.47Y7.78
X10.47Y6.98
X10.47Y6.18
X10.47Y5.38
X10.496Y21.389
X10.502Y0.891
X10.75Y25.51
X10.847Y23.603
X10.97Y24.12
X11.17Y20.635
X11.2Y23.07
X11.27Y13.38
X11.27Y12.58
X11.27Y11.78
X11.27Y10.98
X11.27Y10.18
X11.27Y8.58
X11.27Y7.78
X11.27Y6.98
X11.27Y6.18
X11.27Y5.38
X11.27Y2.98
X11.27Y2.18
X11.35Y19.79
X11.55Y20.25
X11.55Y0.5
X11.59Y18.0
X11.87Y20.635
X12.06Y18.745
X12.077Y4.592
X12.39Y20.446
X12.407Y0.922
X12.487Y16.647
X12.5Y19.07
X12.64Y24.67
X12.75Y18.38
X12.751Y15.669
X12.87Y13.38
X12.87Y12.58
X12.87Y11.78
X12.87Y10.98
X12.87Y10.18
X12.87Y8.58
X12.87Y7.78
X12.87Y6.98
X12.87Y6.18
X12.87Y5.38
X12.88Y2.92
X12.888Y3.706
X13.03Y17.13
X13.113Y24.467
X13.25Y25.51
X13.348Y23.119
X13.425Y0.5
X13.5Y20.55
X13.59Y18.48
X13.607Y23.973
X13.67Y13.38
X13.67Y12.58
X13.67Y11.78
X13.67Y10.98
X13.67Y10.18
X13.67Y8.58
X13.67Y7.78
X13.67Y6.98
X13.67Y6.18
X13.67Y5.38
X13.761Y19.258
X14.0Y20.95
X14.09Y16.61
X14.277Y0.925
X14.449Y3.759
X14.47Y13.38
X14.47Y12.58
X14.47Y11.78
X14.47Y10.98
X14.47Y10.18
X14.47Y8.58
X14.47Y7.78
X14.47Y6.98
X14.47Y6.18
X14.47Y5.38
X14.47Y2.98
X14.47Y2.18
X14.5Y15.025
X14.52Y19.03
X14.533Y20.843
X14.56Y20.007
X14.75Y25.51
X14.77Y24.68
X14.87Y16.18
X15.023Y23.792
X15.027Y21.337
X15.14Y17.32
X15.16Y18.02
X15.24Y22.63
X15.27Y13.38
X15.27Y12.58
X15.27Y11.78
X15.27Y10.98
X15.27Y10.18
X15.27Y8.58
X15.27Y7.78
X15.27Y6.98
X15.27Y6.18
X15.27Y5.38
X15.295Y0.5
X15.3Y4.58
X15.35Y3.782
X15.425Y24.675
X15.517Y23.298
X15.575Y21.112
X15.64Y23.795
X15.72Y1.93
X15.98Y20.05
X16.044Y14.227
X16.07Y14.94
X16.07Y13.38
X16.07Y12.58
X16.07Y11.78
X16.07Y10.98
X16.07Y10.18
X16.07Y8.58
X16.07Y7.78
X16.07Y6.98
X16.07Y6.18
X16.07Y5.38
X16.1Y9.36
X16.1Y4.6
X16.177Y19.244
X16.54Y18.04
X16.68Y1.93
X16.87Y13.38
X16.87Y5.38
X16.875Y18.525
X16.875Y7.0
X16.885Y3.782
X16.9Y2.975
X16.91Y12.559
X17.02Y0.5
X17.22Y15.61
X17.221Y16.253
X17.41Y19.64
X17.48Y25.02
X17.5Y23.05
X17.5Y18.25
X17.624Y12.555
X17.65Y21.84
X17.659Y14.987
X17.66Y11.75
X17.667Y14.159
X17.67Y13.38
X17.67Y5.38
X17.71Y6.2
X17.81Y21.32
X17.977Y22.323
X18.005Y23.705
X18.2Y18.242
X18.4Y0.5
X18.47Y8.58
X18.47Y6.18
X18.47Y3.78
X18.47Y2.18
X18.475Y10.975
X18.48Y6.97
X18.483Y17.092
X18.49Y14.98
X18.49Y14.16
X18.52Y5.38
X18.53Y15.79
X18.555Y1.32
X18.9Y18.242
X18.98Y23.676
X18.98Y22.63
X18.98Y21.13
X19.156Y10.992
X19.2Y8.65
X19.27Y6.18
X19.27Y3.78
X19.27Y2.18
X19.3Y6.96
X19.316Y16.244
X19.32Y14.17
X19.34Y7.72
X19.48Y21.63
X19.48Y21.13
X19.6Y18.242
X19.98Y22.63
X19.98Y22.13
X19.98Y21.63
X20.13Y17.02
X20.13Y14.48
X20.21Y15.36
X20.31Y3.41
X20.47Y21.13
X20.48Y22.63
X20.48Y21.63
X20.48Y20.13
X20.481Y18.623
X20.569Y24.01
X20.975Y10.075
X20.98Y22.63
X20.98Y22.13
X21.0Y17.95
X21.0Y16.7
X21.042Y10.763
X21.09Y15.73
X21.175Y6.225
X21.217Y14.97
X21.24Y24.44
X21.48Y21.13
X21.48Y20.63
X21.48Y20.13
X21.524Y17.372
X21.65Y10.35
X21.79Y16.08
X22.1Y18.27
X22.22Y13.5
X22.229Y16.737
X22.23Y24.04
X22.26Y15.05
X22.3Y10.6
X22.32Y17.39
X22.334Y20.892
X22.68Y12.26
X22.75Y23.17
X22.86Y22.53
X22.88Y10.64
X22.92Y15.22
X23.19Y24.04
X23.57Y23.16
X23.57Y21.8
T2
X6.45Y26.25
X17.55Y26.25
T3
X0.75Y9.8
X0.75Y6.3
X2.25Y9.05
X2.25Y7.05
T4
X22.06Y2.85
X22.06Y1.85
X23.06Y2.85
X23.06Y1.85
M30
