%TF.GenerationSoftware,KiCad,Pcbnew,9.0.0*%
%TF.CreationDate,2025-04-07T10:45:09-04:00*%
%TF.ProjectId,Expansion_Card_Retrofit,45787061-6e73-4696-9f6e-5f436172645f,X1*%
%TF.SameCoordinates,Original*%
%TF.FileFunction,Copper,L4,Inr*%
%TF.FilePolarity,Positive*%
%FSLAX45Y45*%
G04 Gerber Fmt 4.5, Leading zero omitted, Abs format (unit mm)*
G04 Created by KiCad (PCBNEW 9.0.0) date 2025-04-07 10:45:09*
%MOMM*%
%LPD*%
G01*
G04 APERTURE LIST*
%TA.AperFunction,ComponentPad*%
%ADD10O,0.850000X0.850000*%
%TD*%
%TA.AperFunction,ComponentPad*%
%ADD11C,0.600000*%
%TD*%
%TA.AperFunction,ComponentPad*%
%ADD12C,0.500000*%
%TD*%
%TA.AperFunction,ViaPad*%
%ADD13C,0.400000*%
%TD*%
%TA.AperFunction,ViaPad*%
%ADD14C,0.800000*%
%TD*%
%TA.AperFunction,ViaPad*%
%ADD15C,0.500000*%
%TD*%
%TA.AperFunction,Conductor*%
%ADD16C,0.152400*%
%TD*%
G04 APERTURE END LIST*
D10*
%TO.N,GND*%
%TO.C,J4*%
X2306000Y185000D03*
X2206000Y185000D03*
%TD*%
%TO.N,GND*%
%TO.C,J1*%
X142000Y285000D03*
X142000Y185000D03*
%TD*%
D11*
%TO.N,GND*%
%TO.C,U1*%
X1845000Y2082500D03*
D12*
X1707500Y2082500D03*
X1570000Y2082500D03*
D11*
X1845000Y1945000D03*
X1707500Y1945000D03*
X1570000Y1945000D03*
X1845000Y1807500D03*
X1707500Y1807500D03*
X1570000Y1807500D03*
%TD*%
D13*
%TO.N,GND*%
X1709268Y2156085D03*
X487000Y1098000D03*
X487000Y1658000D03*
X727000Y1578000D03*
X2270000Y1715000D03*
X565000Y782500D03*
X373000Y2035000D03*
X2342000Y1232000D03*
X1367500Y1502500D03*
X1324000Y2316000D03*
X2342000Y1319000D03*
X887000Y858000D03*
X1287000Y1098000D03*
D14*
X225000Y705000D03*
D13*
X380000Y2440000D03*
X1927000Y378000D03*
X1287000Y698000D03*
D14*
X75000Y980000D03*
D13*
X967000Y618000D03*
X792780Y2253709D03*
X1056000Y2442000D03*
X1047000Y538000D03*
X567000Y1498000D03*
X2031000Y341000D03*
D14*
X225000Y905000D03*
D13*
X1367000Y1018000D03*
X887000Y1098000D03*
X1447000Y218000D03*
X1447000Y858000D03*
X1287000Y538000D03*
X1687000Y1338000D03*
X1250000Y1658000D03*
X1607500Y1415000D03*
X1607000Y538000D03*
X1786840Y40003D03*
X569119Y1182301D03*
X967000Y1418000D03*
X887000Y218000D03*
X1047000Y858000D03*
X1447000Y1098000D03*
X1127000Y778000D03*
X1506928Y1677979D03*
X807000Y1658000D03*
X1927000Y218000D03*
X561151Y301261D03*
D14*
X75000Y630000D03*
D13*
X487000Y538000D03*
X1127000Y1018000D03*
X2117500Y622500D03*
X630000Y2329000D03*
D15*
X1798650Y2672450D03*
D13*
X567000Y1258000D03*
X887000Y538000D03*
D15*
X598500Y2672450D03*
D13*
X1127000Y218000D03*
X1285771Y1691968D03*
X2360000Y2205000D03*
X807000Y618000D03*
X1367000Y618000D03*
X1137278Y2121722D03*
X925000Y2551000D03*
X325000Y2440000D03*
X1287000Y858000D03*
X1367000Y778000D03*
X967000Y1258000D03*
X1447000Y538000D03*
X1668000Y193000D03*
X2090000Y785000D03*
X2050000Y1225000D03*
X830960Y808083D03*
X1527000Y778000D03*
X887000Y698000D03*
X1367000Y1178000D03*
X1527000Y1018000D03*
X1920000Y865000D03*
X568000Y1338000D03*
X1447000Y698000D03*
X1047000Y1098000D03*
X1127000Y618000D03*
X1915624Y1099191D03*
X1287000Y1258000D03*
X975000Y1952500D03*
X1142092Y2359000D03*
X647000Y298000D03*
X1300000Y2460000D03*
X580000Y2178000D03*
X2159000Y584000D03*
X1610000Y932500D03*
X1287000Y1338000D03*
X1075000Y2160250D03*
X1200000Y1833080D03*
X1883160Y1675000D03*
X807000Y1168266D03*
X2290000Y2425000D03*
X487000Y218000D03*
D15*
X693750Y2672450D03*
D13*
X1127000Y1178000D03*
X1607000Y1098000D03*
D15*
X1709750Y2672450D03*
D13*
X1047000Y698000D03*
X385000Y1260000D03*
X1955070Y1782620D03*
X1527000Y1178000D03*
X2263000Y2072500D03*
X676000Y1789000D03*
X2173296Y1720725D03*
X2342000Y1401000D03*
X2045000Y51000D03*
X117120Y1512120D03*
X1927000Y618000D03*
X679207Y2417000D03*
X2210379Y1972100D03*
X807000Y1578000D03*
X1607000Y858000D03*
X725000Y618000D03*
X967000Y1018000D03*
X642847Y1423962D03*
X2330000Y2367000D03*
X1475000Y2551000D03*
X1447000Y1258000D03*
X967000Y1178000D03*
X967000Y778000D03*
X197500Y1255000D03*
X807000Y1018000D03*
X1447000Y1338000D03*
X1527000Y618000D03*
X1047000Y1498000D03*
X1607000Y698000D03*
%TO.N,/CC_CFG_CTRL_RECFG*%
X1565000Y1683000D03*
%TD*%
D16*
%TO.N,GND*%
X2306000Y185000D02*
X2206000Y185000D01*
X2357500Y185000D02*
X2367500Y195000D01*
X2330809Y346691D02*
X2228309Y346691D01*
X2306000Y185000D02*
X2357500Y185000D01*
X142000Y185000D02*
X142000Y285000D01*
X2367500Y195000D02*
X2367500Y310000D01*
X2367500Y310000D02*
X2330809Y346691D01*
X2228309Y346691D02*
X2159000Y416000D01*
X2159000Y416000D02*
X2159000Y584000D01*
%TD*%
%TA.AperFunction,Conductor*%
%TO.N,GND*%
G36*
X157000Y205355D02*
G01*
X156161Y206194D01*
X146973Y210000D01*
X137027Y210000D01*
X127839Y206194D01*
X127000Y205355D01*
X127000Y264645D01*
X127839Y263806D01*
X137027Y260000D01*
X146973Y260000D01*
X156161Y263806D01*
X157000Y264645D01*
X157000Y205355D01*
G37*
%TD.AperFunction*%
%TA.AperFunction,Conductor*%
G36*
X680806Y2709604D02*
G01*
X687365Y2708740D01*
X690492Y2707903D01*
X695847Y2705684D01*
X698650Y2704066D01*
X703249Y2700537D01*
X705537Y2698249D01*
X708303Y2694644D01*
X709066Y2693650D01*
X710684Y2690847D01*
X712902Y2685492D01*
X713740Y2682365D01*
X714604Y2675806D01*
X714710Y2674188D01*
X714710Y2588490D01*
X714710Y2585000D01*
X714710Y2579038D01*
X715815Y2574913D01*
X717796Y2567519D01*
X720778Y2562355D01*
X723759Y2557191D01*
X732191Y2548759D01*
X742519Y2542796D01*
X754037Y2539710D01*
X754038Y2539710D01*
X870962Y2539710D01*
X870962Y2539710D01*
X882481Y2542796D01*
X892809Y2548759D01*
X898780Y2554731D01*
X1046662Y2554731D01*
X1046662Y2547269D01*
X1048593Y2540062D01*
X1052324Y2533600D01*
X1057600Y2528324D01*
X1064062Y2524593D01*
X1071269Y2522662D01*
X1071269Y2522662D01*
X1078731Y2522662D01*
X1078731Y2522662D01*
X1085938Y2524593D01*
X1092400Y2528324D01*
X1097676Y2533600D01*
X1101407Y2540062D01*
X1103338Y2547269D01*
X1103338Y2554731D01*
X1296662Y2554731D01*
X1296662Y2547269D01*
X1298593Y2540062D01*
X1302324Y2533600D01*
X1307600Y2528324D01*
X1314062Y2524593D01*
X1321269Y2522662D01*
X1321269Y2522662D01*
X1328731Y2522662D01*
X1328731Y2522662D01*
X1335938Y2524593D01*
X1342400Y2528324D01*
X1347676Y2533600D01*
X1351407Y2540062D01*
X1353338Y2547269D01*
X1353338Y2554731D01*
X1351407Y2561938D01*
X1347676Y2568400D01*
X1342400Y2573676D01*
X1335938Y2577407D01*
X1328731Y2579338D01*
X1321269Y2579338D01*
X1316464Y2578051D01*
X1314062Y2577407D01*
X1307600Y2573676D01*
X1307600Y2573676D01*
X1302324Y2568400D01*
X1302324Y2568400D01*
X1298593Y2561938D01*
X1298593Y2561938D01*
X1296662Y2554731D01*
X1103338Y2554731D01*
X1101407Y2561938D01*
X1097676Y2568400D01*
X1092400Y2573676D01*
X1085938Y2577407D01*
X1078731Y2579338D01*
X1071269Y2579338D01*
X1066464Y2578051D01*
X1064062Y2577407D01*
X1057600Y2573676D01*
X1057600Y2573676D01*
X1052324Y2568400D01*
X1052324Y2568400D01*
X1048593Y2561938D01*
X1048593Y2561938D01*
X1046662Y2554731D01*
X898780Y2554731D01*
X901241Y2557191D01*
X907204Y2567519D01*
X910290Y2579038D01*
X910290Y2585000D01*
X910290Y2588490D01*
X910290Y2619779D01*
X910528Y2622198D01*
X910764Y2623382D01*
X910928Y2624210D01*
X912780Y2628680D01*
X913228Y2629351D01*
X914044Y2630167D01*
X914167Y2630401D01*
X914426Y2630549D01*
X916649Y2632772D01*
X917320Y2633220D01*
X921790Y2635072D01*
X923802Y2635472D01*
X926221Y2635710D01*
X928490Y2635710D01*
X1471510Y2635710D01*
X1473779Y2635710D01*
X1476197Y2635472D01*
X1478210Y2635072D01*
X1482680Y2633220D01*
X1483350Y2632772D01*
X1484167Y2631956D01*
X1484401Y2631833D01*
X1484549Y2631573D01*
X1486772Y2629351D01*
X1487220Y2628680D01*
X1489071Y2624211D01*
X1489472Y2622198D01*
X1489710Y2619779D01*
X1489710Y2588490D01*
X1489710Y2585000D01*
X1489710Y2579038D01*
X1490815Y2574913D01*
X1492796Y2567519D01*
X1495778Y2562355D01*
X1498759Y2557191D01*
X1507191Y2548759D01*
X1517519Y2542796D01*
X1529037Y2539710D01*
X1529038Y2539710D01*
X1645962Y2539710D01*
X1645962Y2539710D01*
X1657481Y2542796D01*
X1667809Y2548759D01*
X1676241Y2557191D01*
X1682204Y2567519D01*
X1685290Y2579038D01*
X1685290Y2585000D01*
X1685290Y2588490D01*
X1685290Y2674188D01*
X1685396Y2675806D01*
X1686260Y2682365D01*
X1686260Y2682365D01*
X1687097Y2685492D01*
X1689316Y2690847D01*
X1690934Y2693650D01*
X1694463Y2698249D01*
X1696751Y2700537D01*
X1701350Y2704066D01*
X1704153Y2705684D01*
X1709508Y2707903D01*
X1712635Y2708740D01*
X1719194Y2709604D01*
X1720813Y2709710D01*
X1723490Y2709710D01*
X1786510Y2709710D01*
X1789187Y2709710D01*
X1790806Y2709604D01*
X1797365Y2708740D01*
X1800492Y2707903D01*
X1805847Y2705684D01*
X1808650Y2704066D01*
X1813249Y2700537D01*
X1815537Y2698249D01*
X1818303Y2694644D01*
X1819066Y2693650D01*
X1820684Y2690847D01*
X1822902Y2685492D01*
X1823740Y2682365D01*
X1824604Y2675806D01*
X1824710Y2674188D01*
X1824710Y2574913D01*
X1828213Y2555047D01*
X1835113Y2536090D01*
X1835113Y2536090D01*
X1845199Y2518620D01*
X1845199Y2518620D01*
X1858166Y2503166D01*
X1865769Y2496787D01*
X1873620Y2490199D01*
X1891090Y2480113D01*
X1891090Y2480113D01*
X1891090Y2480113D01*
X1891090Y2480113D01*
X1910047Y2473213D01*
X1929913Y2469710D01*
X1936959Y2469710D01*
X1958147Y2469710D01*
X1964851Y2467742D01*
X1969426Y2462461D01*
X1970421Y2455545D01*
X1967518Y2449190D01*
X1964347Y2446571D01*
X1957600Y2442676D01*
X1957600Y2442676D01*
X1952324Y2437400D01*
X1952324Y2437400D01*
X1948593Y2430938D01*
X1947845Y2428144D01*
X1946662Y2423731D01*
X1946662Y2416269D01*
X1948593Y2409062D01*
X1952324Y2402600D01*
X1957600Y2397324D01*
X1961786Y2394908D01*
X1966607Y2389851D01*
X1967929Y2382990D01*
X1966324Y2377969D01*
X1963717Y2373452D01*
X1962534Y2369038D01*
X1961785Y2366245D01*
X1961785Y2358783D01*
X1963717Y2351576D01*
X1967447Y2345114D01*
X1972723Y2339838D01*
X1979185Y2336107D01*
X1986393Y2334176D01*
X1986393Y2334176D01*
X1993854Y2334176D01*
X1993854Y2334176D01*
X2001061Y2336107D01*
X2007523Y2339838D01*
X2012799Y2345114D01*
X2016530Y2351576D01*
X2018461Y2358783D01*
X2018461Y2366245D01*
X2016530Y2373452D01*
X2012799Y2379914D01*
X2012799Y2379914D01*
X2012496Y2380439D01*
X2010849Y2387229D01*
X2013134Y2393832D01*
X2018626Y2398151D01*
X2025581Y2398815D01*
X2028272Y2397811D01*
X2028311Y2397904D01*
X2029062Y2397593D01*
X2029062Y2397593D01*
X2029062Y2397593D01*
X2036269Y2395662D01*
X2036269Y2395662D01*
X2043731Y2395662D01*
X2043731Y2395662D01*
X2050938Y2397593D01*
X2057400Y2401324D01*
X2062676Y2406600D01*
X2066407Y2413062D01*
X2068338Y2420269D01*
X2068338Y2427731D01*
X2066407Y2434938D01*
X2062676Y2441400D01*
X2057400Y2446676D01*
X2057400Y2446676D01*
X2056755Y2447171D01*
X2056868Y2447319D01*
X2052760Y2451628D01*
X2051437Y2458488D01*
X2054034Y2464975D01*
X2059725Y2469028D01*
X2063781Y2469710D01*
X2296510Y2469710D01*
X2299391Y2469710D01*
X2300606Y2469650D01*
X2315311Y2468202D01*
X2317694Y2467728D01*
X2331249Y2463616D01*
X2333494Y2462686D01*
X2345985Y2456010D01*
X2348006Y2454659D01*
X2351969Y2451407D01*
X2358955Y2445674D01*
X2360674Y2443955D01*
X2369659Y2433007D01*
X2371010Y2430985D01*
X2377686Y2418495D01*
X2378616Y2416249D01*
X2382706Y2402768D01*
X2382728Y2402695D01*
X2383202Y2400311D01*
X2384206Y2390123D01*
X2384647Y2385641D01*
X2384650Y2385606D01*
X2384710Y2384391D01*
X2384710Y932690D01*
X2382742Y925986D01*
X2377461Y921411D01*
X2372310Y920290D01*
X2319913Y920290D01*
X2300047Y916787D01*
X2281090Y909887D01*
X2281090Y909887D01*
X2263620Y899801D01*
X2263620Y899801D01*
X2248166Y886834D01*
X2235199Y871380D01*
X2235199Y871380D01*
X2225113Y853910D01*
X2225113Y853910D01*
X2218213Y834953D01*
X2214710Y815087D01*
X2214710Y794913D01*
X2218213Y775047D01*
X2225113Y756090D01*
X2225113Y756090D01*
X2235199Y738620D01*
X2235199Y738620D01*
X2248166Y723166D01*
X2257421Y715400D01*
X2263620Y710199D01*
X2281090Y700113D01*
X2281090Y700113D01*
X2281090Y700113D01*
X2281090Y700113D01*
X2300047Y693213D01*
X2319913Y689710D01*
X2326959Y689710D01*
X2372310Y689710D01*
X2379014Y687742D01*
X2383589Y682461D01*
X2384710Y677310D01*
X2384710Y562690D01*
X2382742Y555986D01*
X2377461Y551411D01*
X2372310Y550290D01*
X2320614Y550290D01*
X2302206Y546628D01*
X2302205Y546628D01*
X2284863Y539445D01*
X2284863Y539445D01*
X2269256Y529017D01*
X2269256Y529016D01*
X2255984Y515744D01*
X2255983Y515744D01*
X2245555Y500137D01*
X2245555Y500137D01*
X2238372Y482795D01*
X2238372Y482794D01*
X2234710Y464386D01*
X2234710Y445614D01*
X2238372Y427206D01*
X2238372Y427205D01*
X2245555Y409863D01*
X2245555Y409863D01*
X2255983Y394256D01*
X2255984Y394256D01*
X2269256Y380984D01*
X2269256Y380983D01*
X2284863Y370555D01*
X2284863Y370555D01*
X2288792Y368928D01*
X2302205Y363372D01*
X2318653Y360100D01*
X2320614Y359710D01*
X2320615Y359710D01*
X2320615Y359710D01*
X2326959Y359710D01*
X2372310Y359710D01*
X2379014Y357741D01*
X2383589Y352461D01*
X2384710Y347310D01*
X2384710Y220474D01*
X2382742Y213770D01*
X2377461Y209194D01*
X2370545Y208200D01*
X2364190Y211103D01*
X2361772Y214130D01*
X2361725Y214098D01*
X2354547Y224841D01*
X2354547Y224842D01*
X2345842Y233547D01*
X2345841Y233547D01*
X2340418Y237171D01*
X2335937Y242532D01*
X2335066Y249465D01*
X2338082Y255768D01*
X2338535Y256246D01*
X2340679Y258390D01*
X2346385Y268272D01*
X2349338Y279294D01*
X2349338Y290706D01*
X2346385Y301728D01*
X2342222Y308938D01*
X2340680Y311610D01*
X2340679Y311610D01*
X2332610Y319679D01*
X2332610Y319680D01*
X2322729Y325384D01*
X2322728Y325385D01*
X2322728Y325385D01*
X2311706Y328338D01*
X2300294Y328338D01*
X2289272Y325385D01*
X2289271Y325384D01*
X2279390Y319680D01*
X2279390Y319679D01*
X2271321Y311610D01*
X2271321Y311610D01*
X2266739Y303674D01*
X2261682Y298852D01*
X2254821Y297530D01*
X2248335Y300127D01*
X2245261Y303674D01*
X2240679Y311610D01*
X2240679Y311610D01*
X2232610Y319679D01*
X2232610Y319680D01*
X2222729Y325384D01*
X2222728Y325385D01*
X2222728Y325385D01*
X2211706Y328338D01*
X2200294Y328338D01*
X2189272Y325385D01*
X2189271Y325384D01*
X2179390Y319680D01*
X2179390Y319679D01*
X2171321Y311610D01*
X2171320Y311610D01*
X2165616Y301729D01*
X2165615Y301728D01*
X2162662Y290706D01*
X2162662Y279294D01*
X2165529Y268593D01*
X2165615Y268272D01*
X2165616Y268272D01*
X2171320Y258390D01*
X2171321Y258390D01*
X2173461Y256249D01*
X2176810Y250117D01*
X2176311Y243148D01*
X2172124Y237555D01*
X2171583Y237171D01*
X2166158Y233547D01*
X2157453Y224842D01*
X2157453Y224841D01*
X2150614Y214605D01*
X2150613Y214604D01*
X2145902Y203231D01*
X2145902Y203230D01*
X2145259Y200000D01*
X2185645Y200000D01*
X2184806Y199161D01*
X2181000Y189973D01*
X2181000Y180027D01*
X2184806Y170839D01*
X2185645Y170000D01*
X2145259Y170000D01*
X2145902Y166770D01*
X2145902Y166769D01*
X2150613Y155396D01*
X2150614Y155395D01*
X2157453Y145159D01*
X2157453Y145158D01*
X2166158Y136453D01*
X2166159Y136453D01*
X2176395Y129614D01*
X2176396Y129613D01*
X2187769Y124902D01*
X2187770Y124902D01*
X2191000Y124259D01*
X2191000Y164645D01*
X2191839Y163806D01*
X2201027Y160000D01*
X2210973Y160000D01*
X2220161Y163806D01*
X2221000Y164645D01*
X2221000Y124259D01*
X2224230Y124902D01*
X2224231Y124902D01*
X2235604Y129613D01*
X2235605Y129614D01*
X2245841Y136453D01*
X2247232Y137843D01*
X2253364Y141192D01*
X2260333Y140694D01*
X2264768Y137843D01*
X2266159Y136453D01*
X2276395Y129614D01*
X2276396Y129613D01*
X2287769Y124902D01*
X2287770Y124902D01*
X2291000Y124259D01*
X2291000Y164645D01*
X2291839Y163806D01*
X2301027Y160000D01*
X2310973Y160000D01*
X2320161Y163806D01*
X2321000Y164645D01*
X2321000Y124259D01*
X2324230Y124902D01*
X2324231Y124902D01*
X2335604Y129613D01*
X2335605Y129614D01*
X2345841Y136453D01*
X2345842Y136453D01*
X2354547Y145158D01*
X2354547Y145159D01*
X2361725Y155902D01*
X2361828Y155833D01*
X2366270Y160356D01*
X2373084Y161902D01*
X2379652Y159519D01*
X2383889Y153964D01*
X2384710Y149526D01*
X2384710Y100609D01*
X2384650Y99394D01*
X2383202Y84690D01*
X2382728Y82305D01*
X2378616Y68751D01*
X2377686Y66506D01*
X2371010Y54015D01*
X2369659Y51994D01*
X2360674Y41045D01*
X2358955Y39326D01*
X2348006Y30341D01*
X2345985Y28990D01*
X2333494Y22314D01*
X2331249Y21384D01*
X2317695Y17272D01*
X2315311Y16798D01*
X2300606Y15350D01*
X2299391Y15290D01*
X1938159Y15290D01*
X1931455Y17259D01*
X1926880Y22539D01*
X1925886Y29455D01*
X1927421Y33890D01*
X1929077Y36758D01*
X1930407Y39062D01*
X1932338Y46269D01*
X1932338Y53731D01*
X1930407Y60938D01*
X1926676Y67400D01*
X1921400Y72676D01*
X1914938Y76407D01*
X1907731Y78338D01*
X1900269Y78338D01*
X1895464Y77051D01*
X1893062Y76407D01*
X1886600Y72676D01*
X1886600Y72676D01*
X1881324Y67400D01*
X1881324Y67400D01*
X1877593Y60938D01*
X1877358Y60062D01*
X1875662Y53731D01*
X1875662Y46269D01*
X1876111Y44593D01*
X1877593Y39062D01*
X1877593Y39062D01*
X1880579Y33890D01*
X1882227Y27100D01*
X1879941Y20497D01*
X1874449Y16178D01*
X1869841Y15290D01*
X1653659Y15290D01*
X1646955Y17259D01*
X1642380Y22539D01*
X1641386Y29455D01*
X1642921Y33890D01*
X1644577Y36758D01*
X1645907Y39062D01*
X1647838Y46269D01*
X1647838Y53731D01*
X1645907Y60938D01*
X1642176Y67400D01*
X1636900Y72676D01*
X1630438Y76407D01*
X1623231Y78338D01*
X1615769Y78338D01*
X1610964Y77051D01*
X1608562Y76407D01*
X1602100Y72676D01*
X1602100Y72676D01*
X1596824Y67400D01*
X1596824Y67400D01*
X1593093Y60938D01*
X1592858Y60062D01*
X1591162Y53731D01*
X1591162Y46269D01*
X1591611Y44593D01*
X1593093Y39062D01*
X1593093Y39062D01*
X1596079Y33890D01*
X1596222Y33300D01*
X1596620Y32841D01*
X1597036Y29945D01*
X1597727Y27100D01*
X1597528Y26526D01*
X1597614Y25925D01*
X1596398Y23263D01*
X1595441Y20497D01*
X1594964Y20122D01*
X1594712Y19570D01*
X1592250Y17988D01*
X1589949Y16178D01*
X1589214Y16037D01*
X1588834Y15792D01*
X1585341Y15290D01*
X1563659Y15290D01*
X1556955Y17259D01*
X1552380Y22539D01*
X1551386Y29455D01*
X1552921Y33890D01*
X1554577Y36758D01*
X1555907Y39062D01*
X1557838Y46269D01*
X1557838Y53731D01*
X1555907Y60938D01*
X1552176Y67400D01*
X1546900Y72676D01*
X1540438Y76407D01*
X1533231Y78338D01*
X1525769Y78338D01*
X1520964Y77051D01*
X1518562Y76407D01*
X1512100Y72676D01*
X1512100Y72676D01*
X1506824Y67400D01*
X1506824Y67400D01*
X1503093Y60938D01*
X1502858Y60062D01*
X1501162Y53731D01*
X1501162Y46269D01*
X1501611Y44593D01*
X1503093Y39062D01*
X1503093Y39062D01*
X1506079Y33890D01*
X1507727Y27100D01*
X1505441Y20497D01*
X1499949Y16178D01*
X1495341Y15290D01*
X1376659Y15290D01*
X1369956Y17259D01*
X1365380Y22539D01*
X1364386Y29455D01*
X1365921Y33890D01*
X1367577Y36758D01*
X1368907Y39062D01*
X1370838Y46269D01*
X1370838Y53731D01*
X1368907Y60938D01*
X1365176Y67400D01*
X1359900Y72676D01*
X1353438Y76407D01*
X1346231Y78338D01*
X1338769Y78338D01*
X1333964Y77051D01*
X1331562Y76407D01*
X1325100Y72676D01*
X1325100Y72676D01*
X1319824Y67400D01*
X1319824Y67400D01*
X1316093Y60938D01*
X1315859Y60062D01*
X1314162Y53731D01*
X1314162Y46269D01*
X1314611Y44593D01*
X1316093Y39062D01*
X1316093Y39062D01*
X1319079Y33890D01*
X1320727Y27100D01*
X1318441Y20497D01*
X1312949Y16178D01*
X1308341Y15290D01*
X1189159Y15290D01*
X1182456Y17259D01*
X1177880Y22539D01*
X1176886Y29455D01*
X1178421Y33890D01*
X1180077Y36758D01*
X1181407Y39062D01*
X1183338Y46269D01*
X1183338Y53731D01*
X1181407Y60938D01*
X1177676Y67400D01*
X1172400Y72676D01*
X1165938Y76407D01*
X1158731Y78338D01*
X1151269Y78338D01*
X1146464Y77051D01*
X1144062Y76407D01*
X1137600Y72676D01*
X1137600Y72676D01*
X1132324Y67400D01*
X1132324Y67400D01*
X1128593Y60938D01*
X1128359Y60062D01*
X1126662Y53731D01*
X1126662Y46269D01*
X1127111Y44593D01*
X1128593Y39062D01*
X1128593Y39062D01*
X1131579Y33890D01*
X1133227Y27100D01*
X1130941Y20497D01*
X1125449Y16178D01*
X1120841Y15290D01*
X1062802Y15290D01*
X1056098Y17259D01*
X1051523Y22539D01*
X1050528Y29455D01*
X1053431Y35810D01*
X1054034Y36458D01*
X1055176Y37600D01*
X1058907Y44062D01*
X1060838Y51269D01*
X1060838Y58731D01*
X1058907Y65938D01*
X1055176Y72400D01*
X1049900Y77676D01*
X1043438Y81407D01*
X1036231Y83338D01*
X1028769Y83338D01*
X1024915Y82305D01*
X1021562Y81407D01*
X1015100Y77676D01*
X1015100Y77676D01*
X1009824Y72400D01*
X1009824Y72400D01*
X1008882Y70768D01*
X1003825Y65947D01*
X996964Y64625D01*
X990478Y67222D01*
X989375Y68201D01*
X984900Y72676D01*
X984900Y72676D01*
X978438Y76407D01*
X971231Y78338D01*
X963769Y78338D01*
X958964Y77051D01*
X956562Y76407D01*
X950100Y72676D01*
X950100Y72676D01*
X944824Y67400D01*
X944824Y67400D01*
X941093Y60938D01*
X940858Y60062D01*
X939162Y53731D01*
X939162Y46269D01*
X939611Y44593D01*
X941093Y39062D01*
X941093Y39062D01*
X944079Y33890D01*
X945727Y27100D01*
X943441Y20497D01*
X937949Y16178D01*
X933341Y15290D01*
X813659Y15290D01*
X806955Y17259D01*
X802380Y22539D01*
X801386Y29455D01*
X802921Y33890D01*
X804577Y36758D01*
X805907Y39062D01*
X807838Y46269D01*
X807838Y53731D01*
X805907Y60938D01*
X802176Y67400D01*
X796900Y72676D01*
X790438Y76407D01*
X783231Y78338D01*
X775769Y78338D01*
X770964Y77051D01*
X768562Y76407D01*
X762100Y72676D01*
X762100Y72676D01*
X756824Y67400D01*
X756824Y67400D01*
X753093Y60938D01*
X752858Y60062D01*
X751162Y53731D01*
X751162Y46269D01*
X751611Y44593D01*
X753093Y39062D01*
X753093Y39062D01*
X756079Y33890D01*
X757727Y27100D01*
X755441Y20497D01*
X749949Y16178D01*
X745341Y15290D01*
X626159Y15290D01*
X619456Y17259D01*
X614880Y22539D01*
X613886Y29455D01*
X615421Y33890D01*
X617077Y36758D01*
X618407Y39062D01*
X620338Y46269D01*
X620338Y53731D01*
X618407Y60938D01*
X614676Y67400D01*
X609400Y72676D01*
X602938Y76407D01*
X595731Y78338D01*
X588269Y78338D01*
X583464Y77051D01*
X581062Y76407D01*
X574600Y72676D01*
X574600Y72676D01*
X569324Y67400D01*
X569324Y67400D01*
X565593Y60938D01*
X565359Y60062D01*
X563662Y53731D01*
X563662Y46269D01*
X564111Y44593D01*
X565593Y39062D01*
X565593Y39062D01*
X568579Y33890D01*
X570227Y27100D01*
X567941Y20497D01*
X562449Y16178D01*
X557841Y15290D01*
X100609Y15290D01*
X99394Y15350D01*
X84689Y16798D01*
X82305Y17272D01*
X68751Y21384D01*
X66506Y22314D01*
X54015Y28990D01*
X51993Y30341D01*
X41045Y39326D01*
X39326Y41045D01*
X36414Y44593D01*
X30341Y51994D01*
X28990Y54015D01*
X26470Y58731D01*
X22314Y66506D01*
X21384Y68751D01*
X19570Y74731D01*
X408662Y74731D01*
X408662Y67269D01*
X410593Y60062D01*
X414324Y53600D01*
X419600Y48324D01*
X426062Y44593D01*
X433269Y42662D01*
X433269Y42662D01*
X440731Y42662D01*
X440731Y42662D01*
X447938Y44593D01*
X454400Y48324D01*
X459676Y53600D01*
X463407Y60062D01*
X465338Y67269D01*
X465338Y74731D01*
X463407Y81938D01*
X463407Y81938D01*
X463407Y81938D01*
X463406Y81939D01*
X460245Y87414D01*
X460245Y87414D01*
X459676Y88400D01*
X455275Y92801D01*
X646174Y92801D01*
X646174Y85339D01*
X648105Y78132D01*
X651836Y71670D01*
X657112Y66394D01*
X663574Y62663D01*
X670781Y60732D01*
X670781Y60732D01*
X678243Y60732D01*
X678243Y60732D01*
X685450Y62663D01*
X691912Y66394D01*
X697188Y71670D01*
X700919Y78132D01*
X702850Y85339D01*
X702850Y92801D01*
X702023Y95887D01*
X837382Y95887D01*
X837382Y88425D01*
X839313Y81218D01*
X843044Y74756D01*
X848320Y69480D01*
X854782Y65749D01*
X861989Y63818D01*
X861989Y63818D01*
X869451Y63818D01*
X869451Y63818D01*
X876658Y65749D01*
X883120Y69480D01*
X888396Y74756D01*
X892127Y81218D01*
X894058Y88425D01*
X894058Y95887D01*
X1212382Y95887D01*
X1212382Y88425D01*
X1214313Y81218D01*
X1218044Y74756D01*
X1223320Y69480D01*
X1229782Y65749D01*
X1236989Y63818D01*
X1236989Y63818D01*
X1244451Y63818D01*
X1244451Y63818D01*
X1251658Y65749D01*
X1258120Y69480D01*
X1263396Y74756D01*
X1267127Y81218D01*
X1269058Y88425D01*
X1269058Y95887D01*
X1268968Y96222D01*
X1399382Y96222D01*
X1399382Y88760D01*
X1401313Y81553D01*
X1405044Y75091D01*
X1410320Y69815D01*
X1416782Y66084D01*
X1423989Y64153D01*
X1423989Y64153D01*
X1431451Y64153D01*
X1431451Y64153D01*
X1438658Y66084D01*
X1445120Y69815D01*
X1450396Y75091D01*
X1454127Y81553D01*
X1456058Y88760D01*
X1456058Y96222D01*
X1454127Y103429D01*
X1450396Y109891D01*
X1445120Y115167D01*
X1438658Y118898D01*
X1431451Y120829D01*
X1423989Y120829D01*
X1419184Y119542D01*
X1416782Y118898D01*
X1410320Y115167D01*
X1410320Y115167D01*
X1405044Y109891D01*
X1405044Y109891D01*
X1401313Y103429D01*
X1401223Y103094D01*
X1399382Y96222D01*
X1268968Y96222D01*
X1267127Y103094D01*
X1263396Y109556D01*
X1258120Y114832D01*
X1251658Y118563D01*
X1244451Y120494D01*
X1236989Y120494D01*
X1232184Y119207D01*
X1229782Y118563D01*
X1223320Y114832D01*
X1223320Y114832D01*
X1218044Y109556D01*
X1218044Y109556D01*
X1214313Y103094D01*
X1213647Y100609D01*
X1212382Y95887D01*
X894058Y95887D01*
X892127Y103094D01*
X888396Y109556D01*
X883120Y114832D01*
X876658Y118563D01*
X869451Y120494D01*
X861989Y120494D01*
X857184Y119207D01*
X854782Y118563D01*
X848320Y114832D01*
X848320Y114832D01*
X843044Y109556D01*
X843044Y109556D01*
X839313Y103094D01*
X838647Y100609D01*
X837382Y95887D01*
X702023Y95887D01*
X700919Y100008D01*
X697188Y106470D01*
X691912Y111746D01*
X685450Y115477D01*
X678243Y117408D01*
X670781Y117408D01*
X667514Y116533D01*
X663574Y115477D01*
X657112Y111746D01*
X657112Y111746D01*
X651836Y106470D01*
X651836Y106470D01*
X648105Y100008D01*
X647408Y97407D01*
X646174Y92801D01*
X455275Y92801D01*
X454400Y93676D01*
X447938Y97407D01*
X440731Y99338D01*
X433269Y99338D01*
X428464Y98051D01*
X426062Y97407D01*
X419600Y93676D01*
X419600Y93676D01*
X414324Y88400D01*
X414324Y88400D01*
X410593Y81938D01*
X410400Y81218D01*
X408662Y74731D01*
X19570Y74731D01*
X17272Y82305D01*
X16798Y84689D01*
X15350Y99394D01*
X15290Y100609D01*
X15290Y300000D01*
X81259Y300000D01*
X121645Y300000D01*
X120806Y299161D01*
X117000Y289973D01*
X117000Y280027D01*
X120806Y270839D01*
X121645Y270000D01*
X81259Y270000D01*
X81902Y266770D01*
X81902Y266769D01*
X86613Y255396D01*
X86614Y255395D01*
X93453Y245159D01*
X93453Y245158D01*
X94843Y243768D01*
X98192Y237636D01*
X97694Y230667D01*
X94843Y226232D01*
X93453Y224842D01*
X93453Y224841D01*
X86614Y214605D01*
X86613Y214604D01*
X81902Y203231D01*
X81902Y203230D01*
X81259Y200000D01*
X121645Y200000D01*
X120806Y199161D01*
X117000Y189973D01*
X117000Y180027D01*
X120806Y170839D01*
X121645Y170000D01*
X81259Y170000D01*
X81902Y166770D01*
X81902Y166769D01*
X86613Y155396D01*
X86614Y155395D01*
X93453Y145159D01*
X93453Y145158D01*
X102158Y136453D01*
X102159Y136453D01*
X112394Y129614D01*
X112396Y129613D01*
X123769Y124902D01*
X123770Y124902D01*
X127000Y124259D01*
X127000Y164645D01*
X127839Y163806D01*
X137027Y160000D01*
X146973Y160000D01*
X156161Y163806D01*
X157000Y164645D01*
X157000Y124259D01*
X160230Y124902D01*
X160231Y124902D01*
X171604Y129613D01*
X171605Y129614D01*
X181841Y136453D01*
X181842Y136453D01*
X190547Y145158D01*
X190547Y145159D01*
X194171Y150582D01*
X199532Y155063D01*
X206465Y155934D01*
X212767Y152918D01*
X213249Y152461D01*
X215390Y150321D01*
X215390Y150321D01*
X215390Y150321D01*
X224779Y144900D01*
X225272Y144615D01*
X236294Y141662D01*
X236295Y141662D01*
X247705Y141662D01*
X247706Y141662D01*
X252473Y142940D01*
X1831849Y142940D01*
X1831849Y135478D01*
X1833780Y128271D01*
X1837511Y121809D01*
X1842787Y116533D01*
X1849249Y112802D01*
X1856456Y110871D01*
X1856456Y110871D01*
X1863918Y110871D01*
X1863918Y110871D01*
X1871125Y112802D01*
X1877587Y116533D01*
X1882863Y121809D01*
X1886594Y128271D01*
X1887387Y131231D01*
X1931662Y131231D01*
X1931662Y123769D01*
X1933593Y116562D01*
X1937324Y110100D01*
X1942600Y104824D01*
X1949062Y101093D01*
X1956269Y99162D01*
X1956269Y99162D01*
X1963731Y99162D01*
X1963731Y99162D01*
X1970938Y101093D01*
X1977400Y104824D01*
X1982676Y110100D01*
X1986407Y116562D01*
X1988338Y123769D01*
X1988338Y131231D01*
X1986407Y138438D01*
X1982676Y144900D01*
X1977400Y150176D01*
X1970938Y153907D01*
X1963731Y155838D01*
X1956269Y155838D01*
X1951464Y154551D01*
X1949062Y153907D01*
X1942600Y150176D01*
X1942600Y150176D01*
X1937324Y144900D01*
X1937324Y144900D01*
X1933593Y138438D01*
X1933593Y138438D01*
X1931662Y131231D01*
X1887387Y131231D01*
X1888525Y135478D01*
X1888525Y142940D01*
X1886594Y150147D01*
X1882863Y156609D01*
X1877587Y161885D01*
X1876989Y162230D01*
X1876358Y162594D01*
X1876358Y162594D01*
X1871125Y165616D01*
X1863918Y167547D01*
X1856456Y167547D01*
X1849249Y165616D01*
X1848690Y165293D01*
X1848689Y165293D01*
X1842787Y161885D01*
X1842787Y161885D01*
X1837511Y156609D01*
X1837511Y156609D01*
X1833780Y150147D01*
X1833780Y150147D01*
X1831849Y142940D01*
X252473Y142940D01*
X258728Y144615D01*
X268610Y150321D01*
X276679Y158390D01*
X282385Y168272D01*
X285338Y179294D01*
X285338Y190706D01*
X282385Y201728D01*
X281517Y203231D01*
X276680Y211610D01*
X276679Y211610D01*
X275112Y213178D01*
X268610Y219679D01*
X265057Y221731D01*
X618662Y221731D01*
X618662Y214269D01*
X620593Y207062D01*
X624324Y200600D01*
X629600Y195324D01*
X636062Y191593D01*
X643269Y189662D01*
X643269Y189662D01*
X650731Y189662D01*
X650731Y189662D01*
X657938Y191593D01*
X664400Y195324D01*
X665807Y196731D01*
X1543662Y196731D01*
X1543662Y189269D01*
X1545593Y182062D01*
X1549324Y175600D01*
X1554600Y170324D01*
X1561062Y166593D01*
X1568269Y164662D01*
X1568269Y164662D01*
X1575731Y164662D01*
X1575731Y164662D01*
X1582938Y166593D01*
X1589400Y170324D01*
X1594676Y175600D01*
X1598407Y182062D01*
X1600338Y189269D01*
X1600338Y196731D01*
X1598407Y203938D01*
X1598407Y203938D01*
X1598407Y203938D01*
X1598406Y203939D01*
X1594676Y210399D01*
X1594676Y210400D01*
X1589400Y215676D01*
X1588439Y216231D01*
X1736442Y216231D01*
X1736442Y208769D01*
X1738373Y201562D01*
X1742104Y195100D01*
X1747380Y189824D01*
X1753842Y186093D01*
X1761049Y184162D01*
X1761049Y184162D01*
X1768511Y184162D01*
X1768511Y184162D01*
X1775718Y186093D01*
X1782180Y189824D01*
X1787456Y195100D01*
X1791187Y201562D01*
X1793118Y208769D01*
X1793118Y216231D01*
X1791644Y221731D01*
X1818662Y221731D01*
X1818662Y214269D01*
X1820593Y207062D01*
X1824324Y200600D01*
X1829600Y195324D01*
X1836062Y191593D01*
X1843269Y189662D01*
X1843269Y189662D01*
X1844004Y189662D01*
X1850731Y189662D01*
X1857938Y191593D01*
X1864400Y195324D01*
X1869676Y200600D01*
X1873407Y207062D01*
X1875338Y214269D01*
X1875338Y221731D01*
X1873407Y228938D01*
X1869676Y235400D01*
X1864400Y240676D01*
X1857938Y244407D01*
X1850731Y246338D01*
X1843269Y246338D01*
X1838868Y245159D01*
X1836062Y244407D01*
X1829600Y240676D01*
X1829600Y240676D01*
X1824324Y235400D01*
X1824324Y235400D01*
X1820593Y228938D01*
X1820593Y228938D01*
X1818662Y221731D01*
X1791644Y221731D01*
X1791187Y223438D01*
X1787456Y229900D01*
X1782180Y235176D01*
X1775718Y238907D01*
X1768511Y240838D01*
X1761049Y240838D01*
X1756244Y239551D01*
X1753842Y238907D01*
X1747380Y235176D01*
X1747380Y235176D01*
X1742104Y229900D01*
X1742104Y229900D01*
X1738373Y223438D01*
X1738373Y223438D01*
X1736442Y216231D01*
X1588439Y216231D01*
X1582938Y219407D01*
X1575731Y221338D01*
X1568269Y221338D01*
X1563464Y220051D01*
X1561062Y219407D01*
X1554600Y215676D01*
X1554600Y215676D01*
X1549324Y210400D01*
X1549324Y210400D01*
X1545593Y203938D01*
X1545001Y201729D01*
X1543662Y196731D01*
X665807Y196731D01*
X669676Y200600D01*
X673407Y207062D01*
X675338Y214269D01*
X675338Y221731D01*
X673407Y228938D01*
X669676Y235400D01*
X664400Y240676D01*
X657938Y244407D01*
X650731Y246338D01*
X643269Y246338D01*
X638868Y245159D01*
X636062Y244407D01*
X629600Y240676D01*
X629600Y240676D01*
X624324Y235400D01*
X624324Y235400D01*
X620593Y228938D01*
X620593Y228938D01*
X618662Y221731D01*
X265057Y221731D01*
X259997Y224652D01*
X259376Y225123D01*
X257746Y227332D01*
X255852Y229318D01*
X255701Y230102D01*
X255226Y230745D01*
X255049Y233484D01*
X254530Y236179D01*
X254826Y236920D01*
X254775Y237717D01*
X256106Y240117D01*
X257126Y242665D01*
X257884Y243322D01*
X258165Y243827D01*
X258961Y244255D01*
X260673Y245739D01*
X268610Y250321D01*
X276679Y258390D01*
X282385Y268272D01*
X285338Y279294D01*
X285338Y290706D01*
X282385Y301728D01*
X278222Y308938D01*
X276680Y311610D01*
X276679Y311610D01*
X268610Y319679D01*
X268610Y319679D01*
X265795Y321305D01*
X265794Y321305D01*
X258728Y325385D01*
X255170Y326338D01*
X247706Y328338D01*
X236294Y328338D01*
X225272Y325385D01*
X225271Y325384D01*
X215390Y319680D01*
X215390Y319679D01*
X213249Y317539D01*
X207117Y314190D01*
X200148Y314689D01*
X194554Y318876D01*
X194171Y319418D01*
X190547Y324842D01*
X184158Y331231D01*
X364162Y331231D01*
X364162Y323769D01*
X366093Y316562D01*
X369824Y310100D01*
X375100Y304824D01*
X381562Y301093D01*
X388769Y299162D01*
X388769Y299162D01*
X396231Y299162D01*
X396231Y299162D01*
X403438Y301093D01*
X404542Y301731D01*
X458662Y301731D01*
X458662Y294269D01*
X460593Y287062D01*
X464324Y280600D01*
X469600Y275324D01*
X476062Y271593D01*
X483269Y269662D01*
X483269Y269662D01*
X490731Y269662D01*
X490731Y269662D01*
X497938Y271593D01*
X504400Y275324D01*
X509676Y280600D01*
X513407Y287062D01*
X515338Y294269D01*
X515338Y301731D01*
X513407Y308938D01*
X511948Y311465D01*
X698662Y311465D01*
X698662Y304003D01*
X700593Y296796D01*
X704324Y290334D01*
X709600Y285058D01*
X716062Y281327D01*
X723269Y279396D01*
X723269Y279396D01*
X730731Y279396D01*
X730731Y279396D01*
X737938Y281327D01*
X744400Y285058D01*
X749676Y290334D01*
X753407Y296796D01*
X754729Y301731D01*
X858662Y301731D01*
X858662Y294269D01*
X860593Y287062D01*
X864324Y280600D01*
X869600Y275324D01*
X876062Y271593D01*
X883269Y269662D01*
X883269Y269662D01*
X890731Y269662D01*
X890731Y269662D01*
X897938Y271593D01*
X904400Y275324D01*
X909676Y280600D01*
X913407Y287062D01*
X915338Y294269D01*
X915338Y301731D01*
X1098662Y301731D01*
X1098662Y294269D01*
X1100593Y287062D01*
X1104324Y280600D01*
X1109600Y275324D01*
X1116062Y271593D01*
X1123269Y269662D01*
X1123269Y269662D01*
X1130731Y269662D01*
X1130731Y269662D01*
X1137938Y271593D01*
X1144400Y275324D01*
X1149676Y280600D01*
X1153407Y287062D01*
X1155338Y294269D01*
X1155338Y301731D01*
X1153407Y308938D01*
X1149676Y315400D01*
X1144400Y320676D01*
X1137938Y324407D01*
X1130731Y326338D01*
X1123269Y326338D01*
X1118776Y325134D01*
X1116062Y324407D01*
X1109600Y320676D01*
X1109600Y320676D01*
X1104324Y315400D01*
X1104324Y315400D01*
X1100593Y308938D01*
X1100593Y308938D01*
X1098662Y301731D01*
X915338Y301731D01*
X913407Y308938D01*
X909676Y315400D01*
X904400Y320676D01*
X897938Y324407D01*
X897938Y324407D01*
X897937Y324407D01*
X897409Y324626D01*
X891969Y329010D01*
X889763Y335640D01*
X891491Y342410D01*
X896605Y347171D01*
X898945Y348059D01*
X900938Y348593D01*
X907400Y352324D01*
X912676Y357600D01*
X916407Y364062D01*
X918338Y371269D01*
X918338Y374283D01*
X1260499Y374283D01*
X1260499Y366821D01*
X1262431Y359614D01*
X1266161Y353152D01*
X1271437Y347876D01*
X1276249Y345098D01*
X1277900Y344145D01*
X1278277Y343989D01*
X1278547Y343771D01*
X1278603Y343739D01*
X1278598Y343730D01*
X1283718Y339605D01*
X1285924Y332976D01*
X1284197Y326206D01*
X1279732Y321794D01*
X1272601Y317677D01*
X1272600Y317676D01*
X1267324Y312400D01*
X1267324Y312400D01*
X1263593Y305938D01*
X1262628Y302334D01*
X1261662Y298731D01*
X1261662Y291269D01*
X1263593Y284062D01*
X1267324Y277600D01*
X1272600Y272324D01*
X1279062Y268593D01*
X1286269Y266662D01*
X1286269Y266662D01*
X1293731Y266662D01*
X1293731Y266662D01*
X1300938Y268593D01*
X1307400Y272324D01*
X1312676Y277600D01*
X1316407Y284062D01*
X1318338Y291269D01*
X1318338Y298731D01*
X1317534Y301731D01*
X1418662Y301731D01*
X1418662Y294269D01*
X1420593Y287062D01*
X1424324Y280600D01*
X1429600Y275324D01*
X1436062Y271593D01*
X1443269Y269662D01*
X1443269Y269662D01*
X1450731Y269662D01*
X1450731Y269662D01*
X1457938Y271593D01*
X1464400Y275324D01*
X1469676Y280600D01*
X1473407Y287062D01*
X1475338Y294269D01*
X1475338Y301231D01*
X1661662Y301231D01*
X1661662Y293769D01*
X1663593Y286562D01*
X1667324Y280100D01*
X1672600Y274824D01*
X1679062Y271093D01*
X1686269Y269162D01*
X1686269Y269162D01*
X1693731Y269162D01*
X1693731Y269162D01*
X1700938Y271093D01*
X1707400Y274824D01*
X1712676Y280100D01*
X1716407Y286562D01*
X1718338Y293769D01*
X1718338Y301231D01*
X1718204Y301731D01*
X1818662Y301731D01*
X1818662Y294269D01*
X1820593Y287062D01*
X1824324Y280600D01*
X1829600Y275324D01*
X1836062Y271593D01*
X1843269Y269662D01*
X1850731Y269662D01*
X1857938Y271593D01*
X1864400Y275324D01*
X1869676Y280600D01*
X1873407Y287062D01*
X1875338Y294269D01*
X1875338Y301731D01*
X1873407Y308938D01*
X1869676Y315400D01*
X1864400Y320676D01*
X1857938Y324407D01*
X1850731Y326338D01*
X1843269Y326338D01*
X1838776Y325134D01*
X1836062Y324407D01*
X1829600Y320676D01*
X1829600Y320676D01*
X1824324Y315400D01*
X1824324Y315400D01*
X1820593Y308938D01*
X1820593Y308938D01*
X1818662Y301731D01*
X1718204Y301731D01*
X1716407Y308438D01*
X1712676Y314900D01*
X1707400Y320176D01*
X1700938Y323907D01*
X1693731Y325838D01*
X1686269Y325838D01*
X1681464Y324551D01*
X1679062Y323907D01*
X1672600Y320176D01*
X1672600Y320176D01*
X1667324Y314900D01*
X1667324Y314900D01*
X1663593Y308438D01*
X1663593Y308438D01*
X1661662Y301231D01*
X1475338Y301231D01*
X1475338Y301731D01*
X1473407Y308938D01*
X1469676Y315400D01*
X1464400Y320676D01*
X1457938Y324407D01*
X1457938Y324407D01*
X1457938Y324407D01*
X1456524Y324786D01*
X1456524Y324786D01*
X1450731Y326338D01*
X1443269Y326338D01*
X1436062Y324407D01*
X1435877Y324300D01*
X1435876Y324300D01*
X1429600Y320676D01*
X1429600Y320676D01*
X1424324Y315400D01*
X1424324Y315400D01*
X1420593Y308938D01*
X1420593Y308938D01*
X1418662Y301731D01*
X1317534Y301731D01*
X1316407Y305938D01*
X1312676Y312400D01*
X1307400Y317676D01*
X1300938Y321407D01*
X1300938Y321407D01*
X1300559Y321564D01*
X1300289Y321781D01*
X1300234Y321813D01*
X1300239Y321822D01*
X1295119Y325948D01*
X1292913Y332577D01*
X1294641Y339347D01*
X1299105Y343758D01*
X1299775Y344145D01*
X1299775Y344145D01*
X1306237Y347876D01*
X1311513Y353152D01*
X1315244Y359614D01*
X1317175Y366821D01*
X1317175Y374283D01*
X1316390Y377214D01*
X1316390Y377214D01*
X1315748Y379611D01*
X1416542Y379611D01*
X1416542Y372149D01*
X1418473Y364942D01*
X1422204Y358480D01*
X1427480Y353204D01*
X1433942Y349473D01*
X1441149Y347542D01*
X1448611Y347542D01*
X1455818Y349473D01*
X1462280Y353204D01*
X1467556Y358480D01*
X1471287Y364942D01*
X1473218Y372149D01*
X1473218Y379611D01*
X1472595Y381933D01*
X1506662Y381933D01*
X1506662Y374472D01*
X1508593Y367265D01*
X1512324Y360803D01*
X1517600Y355527D01*
X1524062Y351796D01*
X1531269Y349865D01*
X1531270Y349865D01*
X1538731Y349865D01*
X1538731Y349865D01*
X1545938Y351796D01*
X1552400Y355527D01*
X1557676Y360803D01*
X1561407Y367265D01*
X1563338Y374472D01*
X1563338Y381731D01*
X1818662Y381731D01*
X1818662Y374269D01*
X1820593Y367062D01*
X1824324Y360600D01*
X1829600Y355324D01*
X1836062Y351593D01*
X1843269Y349662D01*
X1850731Y349662D01*
X1857938Y351593D01*
X1864400Y355324D01*
X1869676Y360600D01*
X1873407Y367062D01*
X1875338Y374269D01*
X1875338Y381731D01*
X1873407Y388938D01*
X1869676Y395400D01*
X1864400Y400676D01*
X1859789Y403338D01*
X1857938Y404407D01*
X1857938Y404407D01*
X1854623Y405295D01*
X1854622Y405295D01*
X1850731Y406338D01*
X1843269Y406338D01*
X1839787Y405405D01*
X1836062Y404407D01*
X1829600Y400676D01*
X1829600Y400676D01*
X1824324Y395400D01*
X1824324Y395400D01*
X1820593Y388938D01*
X1820501Y388593D01*
X1818662Y381731D01*
X1563338Y381731D01*
X1563338Y381933D01*
X1561407Y389141D01*
X1557676Y395603D01*
X1552400Y400879D01*
X1545938Y404609D01*
X1538731Y406541D01*
X1531269Y406541D01*
X1526162Y405172D01*
X1526161Y405172D01*
X1524062Y404610D01*
X1517600Y400879D01*
X1517600Y400878D01*
X1512324Y395603D01*
X1512324Y395603D01*
X1508593Y389141D01*
X1508483Y388731D01*
X1506662Y381933D01*
X1472595Y381933D01*
X1471287Y386818D01*
X1467556Y393280D01*
X1462280Y398556D01*
X1455818Y402287D01*
X1448611Y404218D01*
X1441149Y404218D01*
X1436344Y402930D01*
X1433942Y402287D01*
X1427480Y398556D01*
X1427480Y398556D01*
X1422204Y393280D01*
X1422204Y393280D01*
X1418473Y386818D01*
X1418237Y385938D01*
X1416542Y379611D01*
X1315748Y379611D01*
X1315244Y381490D01*
X1315244Y381490D01*
X1314919Y382054D01*
X1311513Y387952D01*
X1306237Y393228D01*
X1299775Y396959D01*
X1292568Y398890D01*
X1285107Y398890D01*
X1280575Y397676D01*
X1277899Y396959D01*
X1271437Y393228D01*
X1271437Y393228D01*
X1266162Y387952D01*
X1266161Y387952D01*
X1262431Y381490D01*
X1261691Y378731D01*
X1260499Y374283D01*
X918338Y374283D01*
X918338Y378731D01*
X916407Y385938D01*
X912676Y392400D01*
X907400Y397676D01*
X900938Y401407D01*
X893731Y403338D01*
X886269Y403338D01*
X882346Y402287D01*
X879062Y401407D01*
X872600Y397676D01*
X872600Y397676D01*
X867324Y392400D01*
X867324Y392400D01*
X863593Y385938D01*
X863593Y385938D01*
X862668Y382485D01*
X862668Y382484D01*
X861662Y378731D01*
X861662Y371269D01*
X862132Y369513D01*
X862132Y369513D01*
X862854Y366821D01*
X863593Y364062D01*
X867324Y357600D01*
X872600Y352324D01*
X879062Y348593D01*
X879062Y348593D01*
X879062Y348593D01*
X879590Y348374D01*
X885031Y343990D01*
X887237Y337361D01*
X885509Y330591D01*
X880396Y325830D01*
X878055Y324941D01*
X876062Y324407D01*
X876062Y324407D01*
X869600Y320676D01*
X869600Y320676D01*
X864324Y315400D01*
X864324Y315400D01*
X860593Y308938D01*
X860593Y308938D01*
X858662Y301731D01*
X754729Y301731D01*
X755338Y304003D01*
X755338Y311465D01*
X753407Y318672D01*
X749676Y325134D01*
X744400Y330410D01*
X737938Y334141D01*
X730731Y336072D01*
X723269Y336072D01*
X718464Y334784D01*
X716062Y334141D01*
X709600Y330410D01*
X709600Y330410D01*
X704324Y325134D01*
X704324Y325134D01*
X700593Y318672D01*
X700593Y318672D01*
X698662Y311465D01*
X511948Y311465D01*
X509676Y315400D01*
X504400Y320676D01*
X497938Y324407D01*
X490731Y326338D01*
X483269Y326338D01*
X478776Y325134D01*
X476062Y324407D01*
X469600Y320676D01*
X469600Y320676D01*
X464324Y315400D01*
X464324Y315400D01*
X460593Y308938D01*
X460593Y308938D01*
X458662Y301731D01*
X404542Y301731D01*
X409900Y304824D01*
X415176Y310100D01*
X418907Y316562D01*
X420838Y323769D01*
X420838Y331231D01*
X418907Y338438D01*
X415176Y344900D01*
X409900Y350176D01*
X403438Y353907D01*
X396231Y355838D01*
X388769Y355838D01*
X384985Y354824D01*
X381562Y353907D01*
X375100Y350176D01*
X375100Y350176D01*
X369824Y344900D01*
X369824Y344900D01*
X366093Y338438D01*
X365459Y336072D01*
X364162Y331231D01*
X184158Y331231D01*
X181842Y333547D01*
X181841Y333547D01*
X171605Y340387D01*
X171604Y340387D01*
X160231Y345098D01*
X157000Y345741D01*
X157000Y305355D01*
X156161Y306194D01*
X146973Y310000D01*
X137027Y310000D01*
X127839Y306194D01*
X127000Y305355D01*
X127000Y345741D01*
X123769Y345098D01*
X112396Y340387D01*
X112394Y340387D01*
X102159Y333547D01*
X102158Y333547D01*
X93453Y324842D01*
X93453Y324841D01*
X86614Y314606D01*
X86613Y314604D01*
X81902Y303231D01*
X81902Y303230D01*
X81259Y300000D01*
X15290Y300000D01*
X15290Y347310D01*
X17259Y354014D01*
X22539Y358589D01*
X27690Y359710D01*
X79385Y359710D01*
X79385Y359710D01*
X97795Y363372D01*
X115137Y370555D01*
X130744Y380983D01*
X144017Y394256D01*
X154445Y409863D01*
X158118Y418731D01*
X401662Y418731D01*
X401662Y411269D01*
X403593Y404062D01*
X407324Y397600D01*
X412600Y392324D01*
X419062Y388593D01*
X426269Y386662D01*
X426269Y386662D01*
X433731Y386662D01*
X433731Y386662D01*
X440938Y388593D01*
X443230Y389917D01*
X450020Y391564D01*
X456623Y389279D01*
X460942Y383787D01*
X461399Y382040D01*
X461452Y382054D01*
X461662Y381269D01*
X461662Y381269D01*
X463593Y374062D01*
X467324Y367600D01*
X472600Y362324D01*
X479062Y358593D01*
X486269Y356662D01*
X486269Y356662D01*
X493731Y356662D01*
X493731Y356662D01*
X500938Y358593D01*
X507400Y362324D01*
X512676Y367600D01*
X516407Y374062D01*
X518328Y381231D01*
X781662Y381231D01*
X781662Y373769D01*
X783593Y366562D01*
X787324Y360100D01*
X792600Y354824D01*
X799062Y351093D01*
X806269Y349162D01*
X806269Y349162D01*
X813731Y349162D01*
X813731Y349162D01*
X820938Y351093D01*
X827400Y354824D01*
X832676Y360100D01*
X836407Y366562D01*
X838338Y373769D01*
X838338Y381231D01*
X836407Y388438D01*
X832676Y394900D01*
X827400Y400176D01*
X820938Y403907D01*
X813731Y405838D01*
X806269Y405838D01*
X801685Y404610D01*
X799062Y403907D01*
X792600Y400176D01*
X792600Y400176D01*
X787324Y394900D01*
X787324Y394900D01*
X783593Y388438D01*
X783593Y388438D01*
X781662Y381231D01*
X518328Y381231D01*
X518338Y381269D01*
X518338Y388731D01*
X516407Y395938D01*
X512676Y402400D01*
X507400Y407676D01*
X500938Y411407D01*
X493731Y413338D01*
X486269Y413338D01*
X483386Y412566D01*
X479062Y411407D01*
X479061Y411407D01*
X476769Y410083D01*
X469979Y408436D01*
X463377Y410721D01*
X459058Y416214D01*
X458601Y417960D01*
X458548Y417946D01*
X458338Y418731D01*
X456407Y425938D01*
X452676Y432400D01*
X447400Y437676D01*
X440938Y441407D01*
X433731Y443338D01*
X426269Y443338D01*
X421464Y442051D01*
X419062Y441407D01*
X412600Y437676D01*
X412600Y437676D01*
X407324Y432400D01*
X407324Y432400D01*
X403593Y425938D01*
X403593Y425938D01*
X401662Y418731D01*
X158118Y418731D01*
X161628Y427205D01*
X165290Y445615D01*
X165290Y462731D01*
X691662Y462731D01*
X691662Y455269D01*
X693593Y448062D01*
X697324Y441600D01*
X702600Y436324D01*
X709062Y432593D01*
X716269Y430662D01*
X716269Y430662D01*
X723731Y430662D01*
X723731Y430662D01*
X730938Y432593D01*
X737400Y436324D01*
X742676Y441600D01*
X746407Y448062D01*
X748338Y455269D01*
X748338Y462731D01*
X748279Y462951D01*
X1179356Y462951D01*
X1179356Y455489D01*
X1181287Y448282D01*
X1185018Y441820D01*
X1190294Y436544D01*
X1196756Y432813D01*
X1203963Y430882D01*
X1203964Y430882D01*
X1211425Y430882D01*
X1211425Y430882D01*
X1218632Y432813D01*
X1225094Y436544D01*
X1230370Y441820D01*
X1234101Y448282D01*
X1236032Y455489D01*
X1236032Y461731D01*
X1501662Y461731D01*
X1501662Y454269D01*
X1503593Y447062D01*
X1507324Y440600D01*
X1512600Y435324D01*
X1519062Y431593D01*
X1526269Y429662D01*
X1533731Y429662D01*
X1540938Y431593D01*
X1547400Y435324D01*
X1552676Y440600D01*
X1556407Y447062D01*
X1558338Y454269D01*
X1558338Y461731D01*
X1557802Y463731D01*
X1581662Y463731D01*
X1581662Y456269D01*
X1582614Y452716D01*
X1582614Y452716D01*
X1583593Y449062D01*
X1587324Y442600D01*
X1592600Y437324D01*
X1599062Y433593D01*
X1606269Y431662D01*
X1606269Y431662D01*
X1613731Y431662D01*
X1613731Y431662D01*
X1620938Y433593D01*
X1627400Y437324D01*
X1632676Y442600D01*
X1636407Y449062D01*
X1638338Y456269D01*
X1638338Y461231D01*
X1819162Y461231D01*
X1819162Y453769D01*
X1821093Y446562D01*
X1824824Y440100D01*
X1830100Y434824D01*
X1836562Y431093D01*
X1843769Y429162D01*
X1851231Y429162D01*
X1858438Y431093D01*
X1864900Y434824D01*
X1870176Y440100D01*
X1873907Y446562D01*
X1875838Y453769D01*
X1875838Y461231D01*
X1873907Y468438D01*
X1870176Y474900D01*
X1864900Y480176D01*
X1858438Y483907D01*
X1851231Y485838D01*
X1843769Y485838D01*
X1838964Y484551D01*
X1836562Y483907D01*
X1830100Y480176D01*
X1830100Y480176D01*
X1824824Y474900D01*
X1824824Y474900D01*
X1821093Y468438D01*
X1821093Y468438D01*
X1819162Y461231D01*
X1638338Y461231D01*
X1638338Y463731D01*
X1636407Y470938D01*
X1632676Y477400D01*
X1627400Y482676D01*
X1620938Y486407D01*
X1613731Y488338D01*
X1606269Y488338D01*
X1601464Y487051D01*
X1599062Y486407D01*
X1592600Y482676D01*
X1592600Y482676D01*
X1587324Y477400D01*
X1587324Y477400D01*
X1583593Y470938D01*
X1582923Y468438D01*
X1581662Y463731D01*
X1557802Y463731D01*
X1556407Y468938D01*
X1552676Y475400D01*
X1547400Y480676D01*
X1543936Y482676D01*
X1540938Y484407D01*
X1535287Y485921D01*
X1533731Y486338D01*
X1526269Y486338D01*
X1522316Y485279D01*
X1522316Y485279D01*
X1519062Y484407D01*
X1512600Y480676D01*
X1512600Y480676D01*
X1507324Y475400D01*
X1507324Y475400D01*
X1503593Y468938D01*
X1503593Y468938D01*
X1501662Y461731D01*
X1236032Y461731D01*
X1236032Y462951D01*
X1234101Y470158D01*
X1230370Y476620D01*
X1225094Y481896D01*
X1218632Y485627D01*
X1211425Y487558D01*
X1203963Y487558D01*
X1199410Y486338D01*
X1196756Y485627D01*
X1190294Y481896D01*
X1190294Y481896D01*
X1185018Y476620D01*
X1185018Y476620D01*
X1181287Y470158D01*
X1181084Y469399D01*
X1179356Y462951D01*
X748279Y462951D01*
X746407Y469938D01*
X742676Y476400D01*
X737400Y481676D01*
X730938Y485407D01*
X723731Y487338D01*
X716269Y487338D01*
X711464Y486051D01*
X709062Y485407D01*
X702600Y481676D01*
X702600Y481676D01*
X697324Y476400D01*
X697324Y476400D01*
X693593Y469938D01*
X693325Y468938D01*
X691662Y462731D01*
X165290Y462731D01*
X165290Y464385D01*
X161628Y482795D01*
X154445Y500137D01*
X154445Y500137D01*
X154445Y500137D01*
X144017Y515744D01*
X144016Y515744D01*
X130744Y529016D01*
X130744Y529017D01*
X125930Y532233D01*
X115137Y539445D01*
X115136Y539445D01*
X109618Y541731D01*
X538662Y541731D01*
X538662Y534269D01*
X540593Y527062D01*
X544324Y520600D01*
X549600Y515324D01*
X556062Y511593D01*
X563269Y509662D01*
X563269Y509662D01*
X570731Y509662D01*
X570731Y509662D01*
X577938Y511593D01*
X584400Y515324D01*
X589676Y520600D01*
X593407Y527062D01*
X595338Y534269D01*
X595338Y537731D01*
X620662Y537731D01*
X620662Y530269D01*
X622593Y523062D01*
X626324Y516600D01*
X631600Y511324D01*
X638062Y507593D01*
X645269Y505662D01*
X645269Y505662D01*
X652731Y505662D01*
X652731Y505662D01*
X659938Y507593D01*
X666400Y511324D01*
X671676Y516600D01*
X675407Y523062D01*
X677338Y530269D01*
X677338Y537731D01*
X676266Y541731D01*
X778662Y541731D01*
X778662Y534269D01*
X780593Y527062D01*
X784324Y520600D01*
X789600Y515324D01*
X796062Y511593D01*
X803269Y509662D01*
X803269Y509662D01*
X810731Y509662D01*
X810731Y509662D01*
X817938Y511593D01*
X824400Y515324D01*
X829676Y520600D01*
X833407Y527062D01*
X835338Y534269D01*
X835338Y541731D01*
X938662Y541731D01*
X938662Y534269D01*
X940593Y527062D01*
X944324Y520600D01*
X949600Y515324D01*
X956062Y511593D01*
X963269Y509662D01*
X963269Y509662D01*
X970731Y509662D01*
X970731Y509662D01*
X977938Y511593D01*
X984400Y515324D01*
X989676Y520600D01*
X993407Y527062D01*
X995338Y534269D01*
X995338Y541731D01*
X1098662Y541731D01*
X1098662Y534269D01*
X1100593Y527062D01*
X1104324Y520600D01*
X1109600Y515324D01*
X1116062Y511593D01*
X1123269Y509662D01*
X1123269Y509662D01*
X1130731Y509662D01*
X1130731Y509662D01*
X1137938Y511593D01*
X1144400Y515324D01*
X1149676Y520600D01*
X1153407Y527062D01*
X1155338Y534269D01*
X1155338Y541731D01*
X1338662Y541731D01*
X1338662Y534269D01*
X1340593Y527062D01*
X1344324Y520600D01*
X1349600Y515324D01*
X1356062Y511593D01*
X1363269Y509662D01*
X1363269Y509662D01*
X1370731Y509662D01*
X1370731Y509662D01*
X1377938Y511593D01*
X1384400Y515324D01*
X1389676Y520600D01*
X1393407Y527062D01*
X1395338Y534269D01*
X1395338Y541731D01*
X1498662Y541731D01*
X1498662Y534269D01*
X1500593Y527062D01*
X1504324Y520600D01*
X1509600Y515324D01*
X1516062Y511593D01*
X1523269Y509662D01*
X1530731Y509662D01*
X1537938Y511593D01*
X1544400Y515324D01*
X1549676Y520600D01*
X1553407Y527062D01*
X1555338Y534269D01*
X1555338Y541731D01*
X1658662Y541731D01*
X1658662Y534269D01*
X1660593Y527062D01*
X1664324Y520600D01*
X1669600Y515324D01*
X1676062Y511593D01*
X1683269Y509662D01*
X1683269Y509662D01*
X1690731Y509662D01*
X1690731Y509662D01*
X1697938Y511593D01*
X1704400Y515324D01*
X1709676Y520600D01*
X1713407Y527062D01*
X1715338Y534269D01*
X1715338Y541731D01*
X1738662Y541731D01*
X1738662Y534269D01*
X1740593Y527062D01*
X1744324Y520600D01*
X1749600Y515324D01*
X1756062Y511593D01*
X1763269Y509662D01*
X1763269Y509662D01*
X1770731Y509662D01*
X1770731Y509662D01*
X1777938Y511593D01*
X1784400Y515324D01*
X1789676Y520600D01*
X1793407Y527062D01*
X1795338Y534269D01*
X1795338Y541731D01*
X1793407Y548938D01*
X1789676Y555400D01*
X1784400Y560676D01*
X1777938Y564407D01*
X1770731Y566338D01*
X1763269Y566338D01*
X1758464Y565051D01*
X1756062Y564407D01*
X1749600Y560676D01*
X1749600Y560676D01*
X1744324Y555400D01*
X1744324Y555400D01*
X1740593Y548938D01*
X1740593Y548938D01*
X1738662Y541731D01*
X1715338Y541731D01*
X1713407Y548938D01*
X1709676Y555400D01*
X1704400Y560676D01*
X1697938Y564407D01*
X1690731Y566338D01*
X1683269Y566338D01*
X1678464Y565051D01*
X1676062Y564407D01*
X1669600Y560676D01*
X1669600Y560676D01*
X1664324Y555400D01*
X1664324Y555400D01*
X1660593Y548938D01*
X1659628Y545334D01*
X1658662Y541731D01*
X1555338Y541731D01*
X1553407Y548938D01*
X1549676Y555400D01*
X1544400Y560676D01*
X1537938Y564407D01*
X1530731Y566338D01*
X1523269Y566338D01*
X1518464Y565051D01*
X1516062Y564407D01*
X1509600Y560676D01*
X1509600Y560676D01*
X1504324Y555400D01*
X1504324Y555400D01*
X1500593Y548938D01*
X1499628Y545334D01*
X1498662Y541731D01*
X1395338Y541731D01*
X1393407Y548938D01*
X1389676Y555400D01*
X1384400Y560676D01*
X1377938Y564407D01*
X1370731Y566338D01*
X1363269Y566338D01*
X1358464Y565051D01*
X1356062Y564407D01*
X1349600Y560676D01*
X1349600Y560676D01*
X1344324Y555400D01*
X1344324Y555400D01*
X1340593Y548938D01*
X1339628Y545334D01*
X1338662Y541731D01*
X1155338Y541731D01*
X1153407Y548938D01*
X1149676Y555400D01*
X1144400Y560676D01*
X1137938Y564407D01*
X1130731Y566338D01*
X1123269Y566338D01*
X1118464Y565051D01*
X1116062Y564407D01*
X1109600Y560676D01*
X1109600Y560676D01*
X1104324Y555400D01*
X1104324Y555400D01*
X1100593Y548938D01*
X1099628Y545334D01*
X1098662Y541731D01*
X995338Y541731D01*
X993407Y548938D01*
X989676Y555400D01*
X984400Y560676D01*
X977938Y564407D01*
X970731Y566338D01*
X963269Y566338D01*
X958464Y565051D01*
X956062Y564407D01*
X949600Y560676D01*
X949600Y560676D01*
X944324Y555400D01*
X944324Y555400D01*
X940593Y548938D01*
X939628Y545334D01*
X938662Y541731D01*
X835338Y541731D01*
X833407Y548938D01*
X829676Y555400D01*
X824400Y560676D01*
X817938Y564407D01*
X810731Y566338D01*
X803269Y566338D01*
X798464Y565051D01*
X796062Y564407D01*
X789600Y560676D01*
X789600Y560676D01*
X784324Y555400D01*
X784324Y555400D01*
X780593Y548938D01*
X779628Y545334D01*
X778662Y541731D01*
X676266Y541731D01*
X675407Y544938D01*
X671676Y551400D01*
X666400Y556676D01*
X659938Y560407D01*
X652731Y562338D01*
X645269Y562338D01*
X640464Y561051D01*
X638062Y560407D01*
X631600Y556676D01*
X631600Y556676D01*
X626324Y551400D01*
X626324Y551400D01*
X622593Y544938D01*
X622593Y544938D01*
X620662Y537731D01*
X595338Y537731D01*
X595338Y541731D01*
X593407Y548938D01*
X589676Y555400D01*
X584400Y560676D01*
X577938Y564407D01*
X570731Y566338D01*
X563269Y566338D01*
X558464Y565051D01*
X556062Y564407D01*
X549600Y560676D01*
X549600Y560676D01*
X544324Y555400D01*
X544324Y555400D01*
X540593Y548938D01*
X539628Y545334D01*
X538662Y541731D01*
X109618Y541731D01*
X97795Y546628D01*
X97794Y546628D01*
X79386Y550290D01*
X79385Y550290D01*
X73041Y550290D01*
X27690Y550290D01*
X20986Y552259D01*
X16411Y557539D01*
X15290Y562690D01*
X15290Y631231D01*
X459162Y631231D01*
X459162Y623769D01*
X461093Y616562D01*
X464824Y610100D01*
X470100Y604824D01*
X476562Y601093D01*
X483769Y599162D01*
X483769Y599162D01*
X491231Y599162D01*
X491231Y599162D01*
X498438Y601093D01*
X504900Y604824D01*
X510176Y610100D01*
X513907Y616562D01*
X515292Y621731D01*
X858662Y621731D01*
X858662Y614269D01*
X860593Y607062D01*
X864324Y600600D01*
X869600Y595324D01*
X876062Y591593D01*
X883269Y589662D01*
X883269Y589662D01*
X890731Y589662D01*
X890731Y589662D01*
X897938Y591593D01*
X904400Y595324D01*
X909676Y600600D01*
X913407Y607062D01*
X915338Y614269D01*
X915338Y621731D01*
X1018662Y621731D01*
X1018662Y614269D01*
X1020593Y607062D01*
X1024324Y600600D01*
X1029600Y595324D01*
X1036062Y591593D01*
X1043269Y589662D01*
X1043269Y589662D01*
X1050731Y589662D01*
X1050731Y589662D01*
X1057938Y591593D01*
X1064400Y595324D01*
X1069676Y600600D01*
X1073407Y607062D01*
X1075338Y614269D01*
X1075338Y621731D01*
X1258662Y621731D01*
X1258662Y614269D01*
X1260593Y607062D01*
X1264324Y600600D01*
X1269600Y595324D01*
X1276062Y591593D01*
X1283269Y589662D01*
X1283269Y589662D01*
X1290731Y589662D01*
X1290731Y589662D01*
X1297938Y591593D01*
X1304400Y595324D01*
X1309676Y600600D01*
X1313407Y607062D01*
X1315338Y614269D01*
X1315338Y621731D01*
X1418662Y621731D01*
X1418662Y614269D01*
X1420593Y607062D01*
X1424324Y600600D01*
X1429600Y595324D01*
X1436062Y591593D01*
X1443269Y589662D01*
X1443269Y589662D01*
X1450731Y589662D01*
X1450731Y589662D01*
X1457938Y591593D01*
X1464400Y595324D01*
X1469676Y600600D01*
X1473407Y607062D01*
X1475338Y614269D01*
X1475338Y621731D01*
X1578662Y621731D01*
X1578662Y614269D01*
X1580593Y607062D01*
X1584324Y600600D01*
X1589600Y595324D01*
X1596062Y591593D01*
X1603269Y589662D01*
X1603269Y589662D01*
X1610731Y589662D01*
X1610731Y589662D01*
X1617938Y591593D01*
X1624400Y595324D01*
X1629676Y600600D01*
X1633407Y607062D01*
X1635338Y614269D01*
X1635338Y621731D01*
X1818662Y621731D01*
X1818662Y614269D01*
X1820593Y607062D01*
X1824324Y600600D01*
X1829600Y595324D01*
X1836062Y591593D01*
X1843269Y589662D01*
X1843269Y589662D01*
X1850731Y589662D01*
X1850731Y589662D01*
X1857938Y591593D01*
X1864400Y595324D01*
X1869676Y600600D01*
X1873407Y607062D01*
X1875338Y614269D01*
X1875338Y621731D01*
X1873407Y628938D01*
X1869676Y635400D01*
X1864400Y640676D01*
X1857938Y644407D01*
X1850731Y646338D01*
X1843269Y646338D01*
X1838464Y645051D01*
X1836062Y644407D01*
X1829600Y640676D01*
X1829600Y640676D01*
X1824324Y635400D01*
X1824324Y635400D01*
X1820593Y628938D01*
X1820593Y628938D01*
X1818662Y621731D01*
X1635338Y621731D01*
X1633407Y628938D01*
X1629676Y635400D01*
X1624400Y640676D01*
X1617938Y644407D01*
X1610731Y646338D01*
X1603269Y646338D01*
X1598464Y645051D01*
X1596062Y644407D01*
X1589600Y640676D01*
X1589600Y640676D01*
X1584324Y635400D01*
X1584324Y635400D01*
X1580593Y628938D01*
X1580593Y628938D01*
X1578662Y621731D01*
X1475338Y621731D01*
X1473407Y628938D01*
X1469676Y635400D01*
X1464400Y640676D01*
X1457938Y644407D01*
X1450731Y646338D01*
X1443269Y646338D01*
X1438464Y645051D01*
X1436062Y644407D01*
X1429600Y640676D01*
X1429600Y640676D01*
X1424324Y635400D01*
X1424324Y635400D01*
X1420593Y628938D01*
X1420593Y628938D01*
X1418662Y621731D01*
X1315338Y621731D01*
X1313407Y628938D01*
X1309676Y635400D01*
X1304400Y640676D01*
X1297938Y644407D01*
X1290731Y646338D01*
X1283269Y646338D01*
X1278464Y645051D01*
X1276062Y644407D01*
X1269600Y640676D01*
X1269600Y640676D01*
X1264324Y635400D01*
X1264324Y635400D01*
X1260593Y628938D01*
X1260593Y628938D01*
X1258662Y621731D01*
X1075338Y621731D01*
X1073407Y628938D01*
X1069676Y635400D01*
X1064400Y640676D01*
X1057938Y644407D01*
X1050731Y646338D01*
X1043269Y646338D01*
X1038464Y645051D01*
X1036062Y644407D01*
X1029600Y640676D01*
X1029600Y640676D01*
X1024324Y635400D01*
X1024324Y635400D01*
X1020593Y628938D01*
X1020593Y628938D01*
X1018662Y621731D01*
X915338Y621731D01*
X913407Y628938D01*
X909676Y635400D01*
X904400Y640676D01*
X897938Y644407D01*
X890731Y646338D01*
X883269Y646338D01*
X878464Y645051D01*
X876062Y644407D01*
X869600Y640676D01*
X869600Y640676D01*
X864324Y635400D01*
X864324Y635400D01*
X860593Y628938D01*
X860593Y628938D01*
X858662Y621731D01*
X515292Y621731D01*
X515838Y623769D01*
X515838Y631231D01*
X513907Y638438D01*
X510176Y644900D01*
X504900Y650176D01*
X498438Y653907D01*
X491231Y655838D01*
X483769Y655838D01*
X478964Y654551D01*
X476562Y653907D01*
X470100Y650176D01*
X470100Y650176D01*
X464824Y644900D01*
X464824Y644900D01*
X461093Y638438D01*
X461093Y638438D01*
X459162Y631231D01*
X15290Y631231D01*
X15290Y677310D01*
X17259Y684014D01*
X22539Y688589D01*
X27690Y689710D01*
X80086Y689710D01*
X80087Y689710D01*
X99953Y693213D01*
X118910Y700113D01*
X136380Y710199D01*
X145311Y717693D01*
X550624Y717693D01*
X550624Y710231D01*
X552555Y703024D01*
X556286Y696562D01*
X561562Y691286D01*
X568024Y687555D01*
X575231Y685624D01*
X575231Y685624D01*
X582693Y685624D01*
X582693Y685624D01*
X589900Y687555D01*
X596362Y691286D01*
X601638Y696562D01*
X604622Y701731D01*
X778662Y701731D01*
X778662Y694269D01*
X780593Y687062D01*
X784324Y680600D01*
X789600Y675324D01*
X796062Y671593D01*
X803269Y669662D01*
X803269Y669662D01*
X810731Y669662D01*
X810731Y669662D01*
X817938Y671593D01*
X824400Y675324D01*
X829676Y680600D01*
X833407Y687062D01*
X835338Y694269D01*
X835338Y701731D01*
X938662Y701731D01*
X938662Y694269D01*
X940593Y687062D01*
X944324Y680600D01*
X949600Y675324D01*
X956062Y671593D01*
X963269Y669662D01*
X963269Y669662D01*
X970731Y669662D01*
X970731Y669662D01*
X977938Y671593D01*
X984400Y675324D01*
X989676Y680600D01*
X993407Y687062D01*
X995338Y694269D01*
X995338Y701731D01*
X1098662Y701731D01*
X1098662Y694269D01*
X1100593Y687062D01*
X1104324Y680600D01*
X1109600Y675324D01*
X1116062Y671593D01*
X1123269Y669662D01*
X1123269Y669662D01*
X1130731Y669662D01*
X1130731Y669662D01*
X1137938Y671593D01*
X1144400Y675324D01*
X1149676Y680600D01*
X1153407Y687062D01*
X1155338Y694269D01*
X1155338Y701731D01*
X1338662Y701731D01*
X1338662Y694269D01*
X1340593Y687062D01*
X1344324Y680600D01*
X1349600Y675324D01*
X1356062Y671593D01*
X1363269Y669662D01*
X1363269Y669662D01*
X1370731Y669662D01*
X1370731Y669662D01*
X1377938Y671593D01*
X1384400Y675324D01*
X1389676Y680600D01*
X1393407Y687062D01*
X1395338Y694269D01*
X1395338Y701731D01*
X1498662Y701731D01*
X1498662Y694269D01*
X1500593Y687062D01*
X1504324Y680600D01*
X1509600Y675324D01*
X1516062Y671593D01*
X1523269Y669662D01*
X1523269Y669662D01*
X1530731Y669662D01*
X1530731Y669662D01*
X1537938Y671593D01*
X1544400Y675324D01*
X1549676Y680600D01*
X1553407Y687062D01*
X1555338Y694269D01*
X1555338Y701731D01*
X1554802Y703731D01*
X1659162Y703731D01*
X1659162Y696269D01*
X1661093Y689062D01*
X1664824Y682600D01*
X1670100Y677324D01*
X1676562Y673593D01*
X1683769Y671662D01*
X1683769Y671662D01*
X1691231Y671662D01*
X1691231Y671662D01*
X1698438Y673593D01*
X1704900Y677324D01*
X1710176Y682600D01*
X1713907Y689062D01*
X1715838Y696269D01*
X1715838Y703731D01*
X1713907Y710938D01*
X1710176Y717400D01*
X1704900Y722676D01*
X1698438Y726407D01*
X1691231Y728338D01*
X1683769Y728338D01*
X1681066Y727614D01*
X1676562Y726407D01*
X1670100Y722676D01*
X1670100Y722676D01*
X1664824Y717400D01*
X1664824Y717400D01*
X1661093Y710938D01*
X1660849Y710026D01*
X1659162Y703731D01*
X1554802Y703731D01*
X1553407Y708938D01*
X1549676Y715400D01*
X1544400Y720676D01*
X1537938Y724407D01*
X1530731Y726338D01*
X1523269Y726338D01*
X1518464Y725051D01*
X1516062Y724407D01*
X1509600Y720676D01*
X1509600Y720676D01*
X1504324Y715400D01*
X1504324Y715400D01*
X1500593Y708938D01*
X1499740Y705753D01*
X1498662Y701731D01*
X1395338Y701731D01*
X1393407Y708938D01*
X1389676Y715400D01*
X1384400Y720676D01*
X1377938Y724407D01*
X1370731Y726338D01*
X1363269Y726338D01*
X1358464Y725051D01*
X1356062Y724407D01*
X1349600Y720676D01*
X1349600Y720676D01*
X1344324Y715400D01*
X1344324Y715400D01*
X1340593Y708938D01*
X1339740Y705753D01*
X1338662Y701731D01*
X1155338Y701731D01*
X1153407Y708938D01*
X1149676Y715400D01*
X1144400Y720676D01*
X1137938Y724407D01*
X1130731Y726338D01*
X1123269Y726338D01*
X1118464Y725051D01*
X1116062Y724407D01*
X1109600Y720676D01*
X1109600Y720676D01*
X1104324Y715400D01*
X1104324Y715400D01*
X1100593Y708938D01*
X1099740Y705753D01*
X1098662Y701731D01*
X995338Y701731D01*
X993407Y708938D01*
X989676Y715400D01*
X984400Y720676D01*
X977938Y724407D01*
X970731Y726338D01*
X963269Y726338D01*
X958464Y725051D01*
X956062Y724407D01*
X949600Y720676D01*
X949600Y720676D01*
X944324Y715400D01*
X944324Y715400D01*
X940593Y708938D01*
X939740Y705753D01*
X938662Y701731D01*
X835338Y701731D01*
X833407Y708938D01*
X829676Y715400D01*
X824400Y720676D01*
X817938Y724407D01*
X810731Y726338D01*
X803269Y726338D01*
X798464Y725051D01*
X796062Y724407D01*
X789600Y720676D01*
X789600Y720676D01*
X784324Y715400D01*
X784324Y715400D01*
X780593Y708938D01*
X779740Y705753D01*
X778662Y701731D01*
X604622Y701731D01*
X605369Y703024D01*
X607300Y710231D01*
X607300Y717693D01*
X605369Y724900D01*
X601756Y731157D01*
X1952632Y731157D01*
X1952632Y723696D01*
X1954563Y716488D01*
X1958294Y710026D01*
X1963570Y704750D01*
X1970032Y701020D01*
X1977239Y699088D01*
X1977239Y699088D01*
X1984700Y699088D01*
X1984701Y699088D01*
X1991908Y701020D01*
X1998370Y704750D01*
X2003646Y710026D01*
X2007377Y716488D01*
X2009308Y723696D01*
X2009308Y731157D01*
X2008487Y734220D01*
X2008653Y741205D01*
X2012570Y746991D01*
X2018992Y749741D01*
X2023674Y749407D01*
X2026737Y748586D01*
X2026737Y748586D01*
X2034198Y748586D01*
X2034198Y748586D01*
X2041405Y750517D01*
X2047867Y754248D01*
X2053143Y759524D01*
X2056874Y765986D01*
X2058805Y773193D01*
X2058805Y780655D01*
X2056874Y787862D01*
X2053143Y794324D01*
X2052006Y795461D01*
X2048658Y801593D01*
X2049156Y808562D01*
X2053343Y814156D01*
X2059890Y816597D01*
X2062394Y816523D01*
X2062675Y816486D01*
X2062676Y816486D01*
X2062676Y816486D01*
X2070137Y816486D01*
X2070137Y816486D01*
X2077345Y818417D01*
X2083806Y822148D01*
X2089083Y827424D01*
X2092813Y833886D01*
X2094745Y841093D01*
X2094745Y848554D01*
X2092813Y855762D01*
X2089083Y862224D01*
X2083806Y867500D01*
X2081061Y869085D01*
X2076239Y874142D01*
X2074917Y881002D01*
X2077514Y887489D01*
X2081061Y890562D01*
X2081122Y890598D01*
X2083806Y892148D01*
X2089083Y897424D01*
X2092813Y903886D01*
X2094745Y911093D01*
X2094745Y918554D01*
X2092813Y925762D01*
X2089083Y932224D01*
X2083806Y937500D01*
X2077345Y941230D01*
X2070137Y943162D01*
X2062676Y943162D01*
X2057871Y941874D01*
X2055468Y941230D01*
X2049007Y937500D01*
X2049006Y937499D01*
X2043731Y932224D01*
X2043731Y932224D01*
X2040000Y925762D01*
X2040000Y925762D01*
X2038069Y918554D01*
X2038069Y911093D01*
X2040000Y903886D01*
X2043731Y897424D01*
X2049007Y892148D01*
X2050290Y891407D01*
X2051753Y890562D01*
X2056574Y885505D01*
X2057896Y878645D01*
X2055299Y872158D01*
X2051753Y869085D01*
X2049007Y867500D01*
X2049006Y867499D01*
X2043731Y862224D01*
X2043731Y862224D01*
X2040000Y855762D01*
X2039504Y853910D01*
X2038069Y848554D01*
X2038069Y841093D01*
X2040000Y833886D01*
X2043731Y827424D01*
X2043731Y827424D01*
X2044868Y826287D01*
X2048216Y820154D01*
X2047718Y813185D01*
X2043530Y807592D01*
X2036984Y805150D01*
X2034481Y805225D01*
X2034198Y805262D01*
X2034198Y805262D01*
X2026737Y805262D01*
X2021932Y803975D01*
X2019529Y803331D01*
X2013068Y799600D01*
X2013067Y799600D01*
X2007792Y794324D01*
X2007791Y794324D01*
X2004061Y787862D01*
X2002129Y780655D01*
X2002129Y773193D01*
X2002950Y770131D01*
X2002784Y763146D01*
X1998867Y757359D01*
X1992445Y754609D01*
X1987763Y754944D01*
X1984701Y755764D01*
X1977239Y755764D01*
X1972927Y754609D01*
X1970032Y753833D01*
X1963570Y750102D01*
X1963570Y750102D01*
X1958294Y744827D01*
X1958294Y744826D01*
X1954563Y738364D01*
X1954563Y738364D01*
X1952632Y731157D01*
X601756Y731157D01*
X601638Y731362D01*
X596362Y736638D01*
X589900Y740369D01*
X582693Y742300D01*
X575231Y742300D01*
X570426Y741012D01*
X568024Y740369D01*
X561562Y736638D01*
X561562Y736638D01*
X556286Y731362D01*
X556286Y731362D01*
X552555Y724900D01*
X552232Y723696D01*
X550624Y717693D01*
X145311Y717693D01*
X151834Y723166D01*
X164801Y738620D01*
X174887Y756090D01*
X181787Y775047D01*
X182966Y781731D01*
X858662Y781731D01*
X858662Y774269D01*
X860593Y767062D01*
X864324Y760600D01*
X869600Y755324D01*
X876062Y751593D01*
X883269Y749662D01*
X883269Y749662D01*
X890731Y749662D01*
X890731Y749662D01*
X897938Y751593D01*
X904400Y755324D01*
X909676Y760600D01*
X913407Y767062D01*
X915338Y774269D01*
X915338Y781731D01*
X1018662Y781731D01*
X1018662Y774269D01*
X1020593Y767062D01*
X1024324Y760600D01*
X1029600Y755324D01*
X1036062Y751593D01*
X1043269Y749662D01*
X1043269Y749662D01*
X1050731Y749662D01*
X1050731Y749662D01*
X1057938Y751593D01*
X1064400Y755324D01*
X1069676Y760600D01*
X1073407Y767062D01*
X1075338Y774269D01*
X1075338Y781731D01*
X1258662Y781731D01*
X1258662Y774269D01*
X1260593Y767062D01*
X1264324Y760600D01*
X1269600Y755324D01*
X1276062Y751593D01*
X1283269Y749662D01*
X1283269Y749662D01*
X1290731Y749662D01*
X1290731Y749662D01*
X1297938Y751593D01*
X1304400Y755324D01*
X1309676Y760600D01*
X1313407Y767062D01*
X1315338Y774269D01*
X1315338Y781731D01*
X1418662Y781731D01*
X1418662Y774269D01*
X1420593Y767062D01*
X1424324Y760600D01*
X1429600Y755324D01*
X1436062Y751593D01*
X1443269Y749662D01*
X1443269Y749662D01*
X1450731Y749662D01*
X1450731Y749662D01*
X1457938Y751593D01*
X1464400Y755324D01*
X1469676Y760600D01*
X1473407Y767062D01*
X1475338Y774269D01*
X1475338Y781731D01*
X1578662Y781731D01*
X1578662Y774269D01*
X1580593Y767062D01*
X1584324Y760600D01*
X1589600Y755324D01*
X1596062Y751593D01*
X1603269Y749662D01*
X1603269Y749662D01*
X1610731Y749662D01*
X1610731Y749662D01*
X1617938Y751593D01*
X1624400Y755324D01*
X1629676Y760600D01*
X1633407Y767062D01*
X1635338Y774269D01*
X1635338Y781731D01*
X1633407Y788938D01*
X1629676Y795400D01*
X1624400Y800676D01*
X1617938Y804407D01*
X1610731Y806338D01*
X1603269Y806338D01*
X1599254Y805262D01*
X1596062Y804407D01*
X1589600Y800676D01*
X1589600Y800676D01*
X1584324Y795400D01*
X1584324Y795400D01*
X1580593Y788938D01*
X1580593Y788938D01*
X1578662Y781731D01*
X1475338Y781731D01*
X1473407Y788938D01*
X1469676Y795400D01*
X1464400Y800676D01*
X1457938Y804407D01*
X1450731Y806338D01*
X1443269Y806338D01*
X1439254Y805262D01*
X1436062Y804407D01*
X1429600Y800676D01*
X1429600Y800676D01*
X1424324Y795400D01*
X1424324Y795400D01*
X1420593Y788938D01*
X1420593Y788938D01*
X1418662Y781731D01*
X1315338Y781731D01*
X1313407Y788938D01*
X1309676Y795400D01*
X1304400Y800676D01*
X1297938Y804407D01*
X1290731Y806338D01*
X1283269Y806338D01*
X1279254Y805262D01*
X1276062Y804407D01*
X1269600Y800676D01*
X1269600Y800676D01*
X1264324Y795400D01*
X1264324Y795400D01*
X1260593Y788938D01*
X1260593Y788938D01*
X1258662Y781731D01*
X1075338Y781731D01*
X1073407Y788938D01*
X1069676Y795400D01*
X1064400Y800676D01*
X1057938Y804407D01*
X1050731Y806338D01*
X1043269Y806338D01*
X1039254Y805262D01*
X1036062Y804407D01*
X1029600Y800676D01*
X1029600Y800676D01*
X1024324Y795400D01*
X1024324Y795400D01*
X1020593Y788938D01*
X1020593Y788938D01*
X1018662Y781731D01*
X915338Y781731D01*
X913407Y788938D01*
X909676Y795400D01*
X904400Y800676D01*
X897938Y804407D01*
X890731Y806338D01*
X883269Y806338D01*
X879254Y805262D01*
X876062Y804407D01*
X869600Y800676D01*
X869600Y800676D01*
X864324Y795400D01*
X864324Y795400D01*
X860593Y788938D01*
X860593Y788938D01*
X858662Y781731D01*
X182966Y781731D01*
X185290Y794913D01*
X185290Y815087D01*
X181787Y834953D01*
X174887Y853910D01*
X173669Y856021D01*
X169441Y863344D01*
X166331Y868731D01*
X361662Y868731D01*
X361662Y861269D01*
X363593Y854062D01*
X367324Y847600D01*
X372600Y842324D01*
X379062Y838593D01*
X386269Y836662D01*
X386269Y836662D01*
X393731Y836662D01*
X393731Y836662D01*
X400938Y838593D01*
X407400Y842324D01*
X412676Y847600D01*
X416407Y854062D01*
X417658Y858731D01*
X538662Y858731D01*
X538662Y851269D01*
X540593Y844062D01*
X544324Y837600D01*
X549600Y832324D01*
X556062Y828593D01*
X563269Y826662D01*
X563269Y826662D01*
X570731Y826662D01*
X570731Y826662D01*
X577938Y828593D01*
X584400Y832324D01*
X589676Y837600D01*
X593407Y844062D01*
X595338Y851269D01*
X595338Y858731D01*
X594534Y861731D01*
X778662Y861731D01*
X778662Y854269D01*
X780593Y847062D01*
X784324Y840600D01*
X789600Y835324D01*
X796062Y831593D01*
X803269Y829662D01*
X803269Y829662D01*
X810731Y829662D01*
X810731Y829662D01*
X817938Y831593D01*
X824400Y835324D01*
X829676Y840600D01*
X833407Y847062D01*
X835338Y854269D01*
X835338Y861731D01*
X938662Y861731D01*
X938662Y854269D01*
X940593Y847062D01*
X944324Y840600D01*
X949600Y835324D01*
X956062Y831593D01*
X963269Y829662D01*
X963269Y829662D01*
X970731Y829662D01*
X970731Y829662D01*
X977938Y831593D01*
X984400Y835324D01*
X989676Y840600D01*
X993407Y847062D01*
X995338Y854269D01*
X995338Y861731D01*
X1098662Y861731D01*
X1098662Y854269D01*
X1100593Y847062D01*
X1104324Y840600D01*
X1109600Y835324D01*
X1116062Y831593D01*
X1123269Y829662D01*
X1123269Y829662D01*
X1130731Y829662D01*
X1130731Y829662D01*
X1137938Y831593D01*
X1144400Y835324D01*
X1149676Y840600D01*
X1153407Y847062D01*
X1155338Y854269D01*
X1155338Y861731D01*
X1338662Y861731D01*
X1338662Y854269D01*
X1340593Y847062D01*
X1344324Y840600D01*
X1349600Y835324D01*
X1356062Y831593D01*
X1363269Y829662D01*
X1363269Y829662D01*
X1370731Y829662D01*
X1370731Y829662D01*
X1377938Y831593D01*
X1384400Y835324D01*
X1389676Y840600D01*
X1393407Y847062D01*
X1395338Y854269D01*
X1395338Y861731D01*
X1498662Y861731D01*
X1498662Y854269D01*
X1500593Y847062D01*
X1504324Y840600D01*
X1509600Y835324D01*
X1516062Y831593D01*
X1523269Y829662D01*
X1523269Y829662D01*
X1530731Y829662D01*
X1530731Y829662D01*
X1537938Y831593D01*
X1544400Y835324D01*
X1549676Y840600D01*
X1553407Y847062D01*
X1555338Y854269D01*
X1555338Y861731D01*
X1818662Y861731D01*
X1818662Y854269D01*
X1820593Y847062D01*
X1824324Y840600D01*
X1829600Y835324D01*
X1836062Y831593D01*
X1843269Y829662D01*
X1843269Y829662D01*
X1850731Y829662D01*
X1850731Y829662D01*
X1857938Y831593D01*
X1864400Y835324D01*
X1869676Y840600D01*
X1873407Y847062D01*
X1875338Y854269D01*
X1875338Y861731D01*
X1873407Y868938D01*
X1869676Y875400D01*
X1864400Y880676D01*
X1857938Y884407D01*
X1850731Y886338D01*
X1843269Y886338D01*
X1838464Y885051D01*
X1836062Y884407D01*
X1829600Y880676D01*
X1829600Y880676D01*
X1824324Y875400D01*
X1824324Y875400D01*
X1820593Y868938D01*
X1820208Y867500D01*
X1818662Y861731D01*
X1555338Y861731D01*
X1553407Y868938D01*
X1549676Y875400D01*
X1544400Y880676D01*
X1537938Y884407D01*
X1530731Y886338D01*
X1523269Y886338D01*
X1518464Y885051D01*
X1516062Y884407D01*
X1509600Y880676D01*
X1509600Y880676D01*
X1504324Y875400D01*
X1504324Y875400D01*
X1500593Y868938D01*
X1500208Y867500D01*
X1498662Y861731D01*
X1395338Y861731D01*
X1393407Y868938D01*
X1389676Y875400D01*
X1384400Y880676D01*
X1377938Y884407D01*
X1370731Y886338D01*
X1363269Y886338D01*
X1358464Y885051D01*
X1356062Y884407D01*
X1349600Y880676D01*
X1349600Y880676D01*
X1344324Y875400D01*
X1344324Y875400D01*
X1340593Y868938D01*
X1340208Y867500D01*
X1338662Y861731D01*
X1155338Y861731D01*
X1153407Y868938D01*
X1149676Y875400D01*
X1144400Y880676D01*
X1137938Y884407D01*
X1130731Y886338D01*
X1123269Y886338D01*
X1118464Y885051D01*
X1116062Y884407D01*
X1109600Y880676D01*
X1109600Y880676D01*
X1104324Y875400D01*
X1104324Y875400D01*
X1100593Y868938D01*
X1100208Y867500D01*
X1098662Y861731D01*
X995338Y861731D01*
X993407Y868938D01*
X989676Y875400D01*
X984400Y880676D01*
X977938Y884407D01*
X970731Y886338D01*
X963269Y886338D01*
X958464Y885051D01*
X956062Y884407D01*
X949600Y880676D01*
X949600Y880676D01*
X944324Y875400D01*
X944324Y875400D01*
X940593Y868938D01*
X940208Y867500D01*
X938662Y861731D01*
X835338Y861731D01*
X833407Y868938D01*
X829676Y875400D01*
X824400Y880676D01*
X817938Y884407D01*
X810731Y886338D01*
X803269Y886338D01*
X798464Y885051D01*
X796062Y884407D01*
X789600Y880676D01*
X789600Y880676D01*
X784324Y875400D01*
X784324Y875400D01*
X780593Y868938D01*
X780208Y867500D01*
X778662Y861731D01*
X594534Y861731D01*
X593407Y865938D01*
X589676Y872400D01*
X584400Y877676D01*
X584400Y877676D01*
X584399Y877676D01*
X577665Y881564D01*
X572844Y886621D01*
X571522Y893482D01*
X574118Y899968D01*
X579250Y903622D01*
X579186Y903777D01*
X579936Y904087D01*
X579936Y904087D01*
X586398Y907818D01*
X591674Y913094D01*
X595405Y919556D01*
X597336Y926763D01*
X597336Y934225D01*
X595405Y941432D01*
X591674Y947894D01*
X586398Y953170D01*
X579936Y956901D01*
X572729Y958832D01*
X565267Y958832D01*
X560463Y957545D01*
X558060Y956901D01*
X551598Y953170D01*
X551598Y953170D01*
X546322Y947894D01*
X546322Y947894D01*
X542591Y941432D01*
X542591Y941432D01*
X540660Y934225D01*
X540660Y926763D01*
X542591Y919556D01*
X546322Y913094D01*
X551598Y907818D01*
X557534Y904391D01*
X558333Y903930D01*
X563154Y898873D01*
X564476Y892013D01*
X561880Y885526D01*
X556749Y881872D01*
X556813Y881718D01*
X556062Y881407D01*
X549600Y877676D01*
X549600Y877676D01*
X544324Y872400D01*
X544324Y872400D01*
X540593Y865938D01*
X540593Y865938D01*
X538662Y858731D01*
X417658Y858731D01*
X418338Y861269D01*
X418338Y868731D01*
X416407Y875938D01*
X412676Y882400D01*
X407400Y887676D01*
X400938Y891407D01*
X393731Y893338D01*
X386269Y893338D01*
X381827Y892148D01*
X379062Y891407D01*
X372600Y887676D01*
X372600Y887676D01*
X367324Y882400D01*
X367324Y882400D01*
X363593Y875938D01*
X363593Y875938D01*
X361662Y868731D01*
X166331Y868731D01*
X164801Y871380D01*
X164801Y871380D01*
X163306Y873162D01*
X159518Y877676D01*
X151834Y886834D01*
X136380Y899801D01*
X136380Y899801D01*
X122493Y907818D01*
X118910Y909887D01*
X118910Y909887D01*
X99953Y916787D01*
X80087Y920290D01*
X80087Y920290D01*
X73041Y920290D01*
X27690Y920290D01*
X20986Y922258D01*
X16411Y927539D01*
X15290Y932690D01*
X15290Y976584D01*
X1957991Y976584D01*
X1957991Y969122D01*
X1959922Y961915D01*
X1963653Y955453D01*
X1968929Y950177D01*
X1975391Y946446D01*
X1982598Y944515D01*
X1982598Y944515D01*
X1990059Y944515D01*
X1990060Y944515D01*
X1997267Y946446D01*
X2003729Y950177D01*
X2009005Y955453D01*
X2012736Y961915D01*
X2014667Y969122D01*
X2014667Y976584D01*
X2013846Y979646D01*
X2014012Y986631D01*
X2017929Y992417D01*
X2024351Y995168D01*
X2029033Y994833D01*
X2032096Y994012D01*
X2032096Y994012D01*
X2039557Y994012D01*
X2039557Y994012D01*
X2046764Y995944D01*
X2053226Y999674D01*
X2058502Y1004950D01*
X2062233Y1011412D01*
X2064164Y1018620D01*
X2064164Y1026081D01*
X2062233Y1033288D01*
X2058502Y1039750D01*
X2053226Y1045026D01*
X2046764Y1048757D01*
X2039557Y1050688D01*
X2032096Y1050688D01*
X2027291Y1049401D01*
X2024888Y1048757D01*
X2018426Y1045026D01*
X2018426Y1045026D01*
X2013151Y1039751D01*
X2013150Y1039750D01*
X2009420Y1033288D01*
X2009420Y1033288D01*
X2008254Y1028938D01*
X2007488Y1026081D01*
X2007488Y1018620D01*
X2008309Y1015557D01*
X2008143Y1008572D01*
X2004226Y1002786D01*
X1997803Y1000035D01*
X1993122Y1000370D01*
X1990060Y1001191D01*
X1982598Y1001191D01*
X1978286Y1000035D01*
X1975391Y999260D01*
X1968929Y995529D01*
X1968929Y995529D01*
X1963653Y990253D01*
X1963653Y990253D01*
X1959922Y983791D01*
X1958956Y980187D01*
X1957991Y976584D01*
X15290Y976584D01*
X15290Y1008731D01*
X346662Y1008731D01*
X346662Y1001269D01*
X348593Y994062D01*
X352324Y987600D01*
X357600Y982324D01*
X364062Y978593D01*
X371269Y976662D01*
X371269Y976662D01*
X378731Y976662D01*
X378731Y976662D01*
X385938Y978593D01*
X392400Y982324D01*
X397676Y987600D01*
X401407Y994062D01*
X403338Y1001269D01*
X403338Y1008731D01*
X401407Y1015938D01*
X397676Y1022400D01*
X392400Y1027676D01*
X385938Y1031407D01*
X385824Y1031437D01*
X458884Y1031437D01*
X458884Y1023976D01*
X460815Y1016768D01*
X464546Y1010306D01*
X469822Y1005030D01*
X476284Y1001300D01*
X483491Y999368D01*
X483491Y999368D01*
X490952Y999368D01*
X490952Y999368D01*
X498160Y1001300D01*
X504621Y1005030D01*
X509898Y1010306D01*
X513628Y1016768D01*
X514958Y1021731D01*
X858662Y1021731D01*
X858662Y1014269D01*
X860593Y1007062D01*
X864324Y1000600D01*
X869600Y995324D01*
X876062Y991593D01*
X883269Y989662D01*
X883269Y989662D01*
X890731Y989662D01*
X890731Y989662D01*
X897938Y991593D01*
X904400Y995324D01*
X909676Y1000600D01*
X913407Y1007062D01*
X915338Y1014269D01*
X915338Y1021731D01*
X1018662Y1021731D01*
X1018662Y1014269D01*
X1020593Y1007062D01*
X1024324Y1000600D01*
X1029600Y995324D01*
X1036062Y991593D01*
X1043269Y989662D01*
X1043269Y989662D01*
X1050731Y989662D01*
X1050731Y989662D01*
X1057938Y991593D01*
X1064400Y995324D01*
X1069676Y1000600D01*
X1073407Y1007062D01*
X1075338Y1014269D01*
X1075338Y1021731D01*
X1258662Y1021731D01*
X1258662Y1014269D01*
X1260593Y1007062D01*
X1264324Y1000600D01*
X1269600Y995324D01*
X1276062Y991593D01*
X1283269Y989662D01*
X1283269Y989662D01*
X1290731Y989662D01*
X1290731Y989662D01*
X1297938Y991593D01*
X1304400Y995324D01*
X1309676Y1000600D01*
X1313407Y1007062D01*
X1315338Y1014269D01*
X1315338Y1021731D01*
X1418662Y1021731D01*
X1418662Y1014269D01*
X1420593Y1007062D01*
X1424324Y1000600D01*
X1429600Y995324D01*
X1436062Y991593D01*
X1443269Y989662D01*
X1443269Y989662D01*
X1450731Y989662D01*
X1450731Y989662D01*
X1457938Y991593D01*
X1464400Y995324D01*
X1469676Y1000600D01*
X1473407Y1007062D01*
X1475338Y1014269D01*
X1475338Y1021731D01*
X1578662Y1021731D01*
X1578662Y1014269D01*
X1580593Y1007062D01*
X1584324Y1000600D01*
X1589600Y995324D01*
X1596062Y991593D01*
X1603269Y989662D01*
X1603269Y989662D01*
X1610731Y989662D01*
X1610731Y989662D01*
X1617938Y991593D01*
X1624400Y995324D01*
X1629676Y1000600D01*
X1633407Y1007062D01*
X1635338Y1014269D01*
X1635338Y1021731D01*
X1635338Y1021731D01*
X1728928Y1021731D01*
X1728928Y1014269D01*
X1730859Y1007062D01*
X1734590Y1000600D01*
X1739866Y995324D01*
X1746328Y991593D01*
X1753535Y989662D01*
X1753536Y989662D01*
X1760997Y989662D01*
X1760997Y989662D01*
X1768204Y991593D01*
X1774666Y995324D01*
X1779942Y1000600D01*
X1783673Y1007062D01*
X1785604Y1014269D01*
X1785604Y1021731D01*
X1783673Y1028938D01*
X1779942Y1035400D01*
X1774666Y1040676D01*
X1768204Y1044407D01*
X1760997Y1046338D01*
X1753535Y1046338D01*
X1748731Y1045051D01*
X1746328Y1044407D01*
X1739866Y1040676D01*
X1739866Y1040676D01*
X1734590Y1035400D01*
X1734590Y1035400D01*
X1730859Y1028938D01*
X1729894Y1025334D01*
X1728928Y1021731D01*
X1635338Y1021731D01*
X1633407Y1028938D01*
X1629676Y1035400D01*
X1624400Y1040676D01*
X1617938Y1044407D01*
X1610731Y1046338D01*
X1603269Y1046338D01*
X1598674Y1045107D01*
X1596062Y1044407D01*
X1589600Y1040676D01*
X1589600Y1040676D01*
X1584324Y1035400D01*
X1584324Y1035400D01*
X1580593Y1028938D01*
X1580593Y1028938D01*
X1578662Y1021731D01*
X1475338Y1021731D01*
X1473407Y1028938D01*
X1469676Y1035400D01*
X1464400Y1040676D01*
X1457938Y1044407D01*
X1450731Y1046338D01*
X1443269Y1046338D01*
X1438674Y1045107D01*
X1436062Y1044407D01*
X1429600Y1040676D01*
X1429600Y1040676D01*
X1424324Y1035400D01*
X1424324Y1035400D01*
X1420593Y1028938D01*
X1420593Y1028938D01*
X1418662Y1021731D01*
X1315338Y1021731D01*
X1313407Y1028938D01*
X1309676Y1035400D01*
X1304400Y1040676D01*
X1297938Y1044407D01*
X1290731Y1046338D01*
X1283269Y1046338D01*
X1278674Y1045107D01*
X1276062Y1044407D01*
X1269600Y1040676D01*
X1269600Y1040676D01*
X1264324Y1035400D01*
X1264324Y1035400D01*
X1260593Y1028938D01*
X1260593Y1028938D01*
X1258662Y1021731D01*
X1075338Y1021731D01*
X1073407Y1028938D01*
X1069676Y1035400D01*
X1064400Y1040676D01*
X1057938Y1044407D01*
X1050731Y1046338D01*
X1043269Y1046338D01*
X1038674Y1045107D01*
X1036062Y1044407D01*
X1029600Y1040676D01*
X1029600Y1040676D01*
X1024324Y1035400D01*
X1024324Y1035400D01*
X1020593Y1028938D01*
X1020593Y1028938D01*
X1018662Y1021731D01*
X915338Y1021731D01*
X913407Y1028938D01*
X909676Y1035400D01*
X904400Y1040676D01*
X897938Y1044407D01*
X890731Y1046338D01*
X883269Y1046338D01*
X878674Y1045107D01*
X876062Y1044407D01*
X869600Y1040676D01*
X869600Y1040676D01*
X864324Y1035400D01*
X864324Y1035400D01*
X860593Y1028938D01*
X860593Y1028938D01*
X858662Y1021731D01*
X514958Y1021731D01*
X515560Y1023976D01*
X515560Y1031437D01*
X513628Y1038644D01*
X509898Y1045106D01*
X504621Y1050382D01*
X498160Y1054113D01*
X490952Y1056044D01*
X483491Y1056044D01*
X478686Y1054757D01*
X476283Y1054113D01*
X469822Y1050382D01*
X469821Y1050382D01*
X464546Y1045107D01*
X464546Y1045106D01*
X460815Y1038644D01*
X460815Y1038644D01*
X458884Y1031437D01*
X385824Y1031437D01*
X378731Y1033338D01*
X371269Y1033338D01*
X366464Y1032051D01*
X364062Y1031407D01*
X357600Y1027676D01*
X357600Y1027676D01*
X352324Y1022400D01*
X352324Y1022400D01*
X348593Y1015938D01*
X348593Y1015938D01*
X346662Y1008731D01*
X15290Y1008731D01*
X15290Y1086231D01*
X199162Y1086231D01*
X199162Y1078769D01*
X201093Y1071562D01*
X204824Y1065100D01*
X210100Y1059824D01*
X216562Y1056093D01*
X223769Y1054162D01*
X223769Y1054162D01*
X231231Y1054162D01*
X231231Y1054162D01*
X238438Y1056093D01*
X244900Y1059824D01*
X250176Y1065100D01*
X253907Y1071562D01*
X255838Y1078769D01*
X255838Y1086231D01*
X253907Y1093438D01*
X253907Y1093438D01*
X253907Y1093438D01*
X253907Y1093438D01*
X252229Y1096344D01*
X252229Y1096344D01*
X250176Y1099899D01*
X250176Y1099900D01*
X250176Y1099900D01*
X248345Y1101731D01*
X538662Y1101731D01*
X538662Y1094269D01*
X540593Y1087062D01*
X544324Y1080600D01*
X549600Y1075324D01*
X556062Y1071593D01*
X563269Y1069662D01*
X563269Y1069662D01*
X570731Y1069662D01*
X570731Y1069662D01*
X577938Y1071593D01*
X584400Y1075324D01*
X589676Y1080600D01*
X593407Y1087062D01*
X595338Y1094269D01*
X595338Y1101731D01*
X778662Y1101731D01*
X778662Y1094269D01*
X780593Y1087062D01*
X784324Y1080600D01*
X789600Y1075324D01*
X796062Y1071593D01*
X803269Y1069662D01*
X803269Y1069662D01*
X810731Y1069662D01*
X810731Y1069662D01*
X817938Y1071593D01*
X824400Y1075324D01*
X829676Y1080600D01*
X833407Y1087062D01*
X835338Y1094269D01*
X835338Y1101731D01*
X938662Y1101731D01*
X938662Y1094269D01*
X940593Y1087062D01*
X944324Y1080600D01*
X949600Y1075324D01*
X956062Y1071593D01*
X963269Y1069662D01*
X963269Y1069662D01*
X970731Y1069662D01*
X970731Y1069662D01*
X977938Y1071593D01*
X984400Y1075324D01*
X989676Y1080600D01*
X993407Y1087062D01*
X995338Y1094269D01*
X995338Y1101731D01*
X1098662Y1101731D01*
X1098662Y1094269D01*
X1100593Y1087062D01*
X1104324Y1080600D01*
X1109600Y1075324D01*
X1116062Y1071593D01*
X1123269Y1069662D01*
X1123269Y1069662D01*
X1130731Y1069662D01*
X1130731Y1069662D01*
X1137938Y1071593D01*
X1144400Y1075324D01*
X1149676Y1080600D01*
X1153407Y1087062D01*
X1155338Y1094269D01*
X1155338Y1101731D01*
X1155338Y1101731D01*
X1188396Y1101731D01*
X1188396Y1094269D01*
X1190327Y1087062D01*
X1194058Y1080600D01*
X1199334Y1075324D01*
X1205796Y1071593D01*
X1213003Y1069662D01*
X1213003Y1069662D01*
X1220464Y1069662D01*
X1220465Y1069662D01*
X1227672Y1071593D01*
X1234134Y1075324D01*
X1239410Y1080600D01*
X1243141Y1087062D01*
X1245072Y1094269D01*
X1245072Y1101731D01*
X1338662Y1101731D01*
X1338662Y1094269D01*
X1340593Y1087062D01*
X1344324Y1080600D01*
X1349600Y1075324D01*
X1356062Y1071593D01*
X1363269Y1069662D01*
X1363269Y1069662D01*
X1370731Y1069662D01*
X1370731Y1069662D01*
X1377938Y1071593D01*
X1384400Y1075324D01*
X1389676Y1080600D01*
X1393407Y1087062D01*
X1395338Y1094269D01*
X1395338Y1101731D01*
X1498662Y1101731D01*
X1498662Y1094269D01*
X1500593Y1087062D01*
X1504324Y1080600D01*
X1509600Y1075324D01*
X1516062Y1071593D01*
X1523269Y1069662D01*
X1523269Y1069662D01*
X1530731Y1069662D01*
X1530731Y1069662D01*
X1537938Y1071593D01*
X1544400Y1075324D01*
X1549676Y1080600D01*
X1553407Y1087062D01*
X1555338Y1094269D01*
X1555338Y1101231D01*
X1819162Y1101231D01*
X1819162Y1093769D01*
X1821093Y1086562D01*
X1824824Y1080100D01*
X1830100Y1074824D01*
X1836562Y1071093D01*
X1843769Y1069162D01*
X1843769Y1069162D01*
X1851231Y1069162D01*
X1851231Y1069162D01*
X1858438Y1071093D01*
X1864900Y1074824D01*
X1870176Y1080100D01*
X1873907Y1086562D01*
X1875838Y1093769D01*
X1875838Y1101231D01*
X1875073Y1104086D01*
X1875073Y1104086D01*
X1874431Y1106482D01*
X1989413Y1106482D01*
X1989413Y1099020D01*
X1991344Y1091813D01*
X1995075Y1085351D01*
X2000351Y1080075D01*
X2006813Y1076344D01*
X2014020Y1074413D01*
X2014021Y1074413D01*
X2021482Y1074413D01*
X2021482Y1074413D01*
X2028689Y1076344D01*
X2035151Y1080075D01*
X2040427Y1085351D01*
X2044158Y1091813D01*
X2046089Y1099020D01*
X2046089Y1106482D01*
X2045268Y1109545D01*
X2045435Y1116530D01*
X2049351Y1122316D01*
X2055774Y1125066D01*
X2060455Y1124732D01*
X2063518Y1123911D01*
X2063518Y1123911D01*
X2070979Y1123911D01*
X2070980Y1123911D01*
X2078187Y1125842D01*
X2084649Y1129573D01*
X2089925Y1134849D01*
X2093656Y1141311D01*
X2095325Y1147541D01*
X2188210Y1147541D01*
X2188210Y1112541D01*
X2188210Y1106459D01*
X2190168Y1101731D01*
X2190538Y1100839D01*
X2194839Y1096538D01*
X2194839Y1096538D01*
X2194839Y1096538D01*
X2200459Y1094210D01*
X2215955Y1094210D01*
X2222659Y1092242D01*
X2227235Y1086961D01*
X2228229Y1080045D01*
X2227933Y1078601D01*
X2226685Y1073945D01*
X2226685Y1073945D01*
X2226685Y1066483D01*
X2228616Y1059276D01*
X2232347Y1052814D01*
X2237623Y1047538D01*
X2244085Y1043807D01*
X2251292Y1041876D01*
X2251292Y1041876D01*
X2258754Y1041876D01*
X2258754Y1041876D01*
X2265961Y1043807D01*
X2272423Y1047538D01*
X2277699Y1052814D01*
X2281430Y1059276D01*
X2283361Y1066483D01*
X2283361Y1073945D01*
X2281430Y1081152D01*
X2277699Y1087614D01*
X2272423Y1092890D01*
X2272423Y1092890D01*
X2272422Y1092890D01*
X2268990Y1094872D01*
X2264168Y1099929D01*
X2262790Y1105610D01*
X2262790Y1147541D01*
X2262790Y1147541D01*
X2260462Y1153161D01*
X2260462Y1153161D01*
X2260462Y1153161D01*
X2256161Y1157462D01*
X2250541Y1159790D01*
X2206541Y1159790D01*
X2200459Y1159790D01*
X2200459Y1159790D01*
X2194839Y1157462D01*
X2190538Y1153161D01*
X2190538Y1153161D01*
X2188210Y1147541D01*
X2095325Y1147541D01*
X2095587Y1148518D01*
X2095587Y1155980D01*
X2093656Y1163187D01*
X2089925Y1169649D01*
X2084649Y1174925D01*
X2078187Y1178656D01*
X2070980Y1180587D01*
X2063518Y1180587D01*
X2058713Y1179299D01*
X2056311Y1178656D01*
X2049849Y1174925D01*
X2049849Y1174925D01*
X2044573Y1169649D01*
X2044573Y1169649D01*
X2040842Y1163187D01*
X2040842Y1163187D01*
X2039271Y1157324D01*
X2038911Y1155980D01*
X2038911Y1148518D01*
X2039731Y1145455D01*
X2039565Y1138470D01*
X2035649Y1132684D01*
X2029226Y1129934D01*
X2024545Y1130269D01*
X2021482Y1131089D01*
X2014020Y1131089D01*
X2009708Y1129934D01*
X2006813Y1129158D01*
X2000351Y1125427D01*
X2000351Y1125427D01*
X1995075Y1120151D01*
X1995075Y1120151D01*
X1991344Y1113689D01*
X1991344Y1113689D01*
X1989413Y1106482D01*
X1874431Y1106482D01*
X1873907Y1108438D01*
X1873907Y1108438D01*
X1873618Y1108938D01*
X1870176Y1114900D01*
X1864900Y1120176D01*
X1858438Y1123907D01*
X1851231Y1125838D01*
X1843769Y1125838D01*
X1839858Y1124790D01*
X1836562Y1123907D01*
X1830100Y1120176D01*
X1830100Y1120176D01*
X1824824Y1114900D01*
X1824824Y1114900D01*
X1821093Y1108438D01*
X1820569Y1106482D01*
X1819162Y1101231D01*
X1555338Y1101231D01*
X1555338Y1101731D01*
X1553407Y1108938D01*
X1549676Y1115400D01*
X1544400Y1120676D01*
X1537938Y1124407D01*
X1530731Y1126338D01*
X1523269Y1126338D01*
X1519869Y1125427D01*
X1516062Y1124407D01*
X1509600Y1120676D01*
X1509600Y1120676D01*
X1504324Y1115400D01*
X1504324Y1115400D01*
X1500593Y1108938D01*
X1499929Y1106459D01*
X1498662Y1101731D01*
X1395338Y1101731D01*
X1393407Y1108938D01*
X1389676Y1115400D01*
X1384400Y1120676D01*
X1377938Y1124407D01*
X1370731Y1126338D01*
X1363269Y1126338D01*
X1359869Y1125427D01*
X1356062Y1124407D01*
X1349600Y1120676D01*
X1349600Y1120676D01*
X1344324Y1115400D01*
X1344324Y1115400D01*
X1340593Y1108938D01*
X1339929Y1106459D01*
X1338662Y1101731D01*
X1245072Y1101731D01*
X1245072Y1101731D01*
X1243141Y1108938D01*
X1239410Y1115400D01*
X1234134Y1120676D01*
X1227672Y1124407D01*
X1220465Y1126338D01*
X1213003Y1126338D01*
X1208256Y1125066D01*
X1205796Y1124407D01*
X1199334Y1120676D01*
X1199334Y1120676D01*
X1194058Y1115400D01*
X1194058Y1115400D01*
X1190327Y1108938D01*
X1189669Y1106482D01*
X1188396Y1101731D01*
X1155338Y1101731D01*
X1153407Y1108938D01*
X1149676Y1115400D01*
X1144400Y1120676D01*
X1137938Y1124407D01*
X1130731Y1126338D01*
X1123269Y1126338D01*
X1119869Y1125427D01*
X1116062Y1124407D01*
X1109600Y1120676D01*
X1109600Y1120676D01*
X1104324Y1115400D01*
X1104324Y1115400D01*
X1100593Y1108938D01*
X1099929Y1106459D01*
X1098662Y1101731D01*
X995338Y1101731D01*
X993407Y1108938D01*
X989676Y1115400D01*
X984400Y1120676D01*
X977938Y1124407D01*
X970731Y1126338D01*
X963269Y1126338D01*
X959869Y1125427D01*
X956062Y1124407D01*
X949600Y1120676D01*
X949600Y1120676D01*
X944324Y1115400D01*
X944324Y1115400D01*
X940593Y1108938D01*
X939929Y1106459D01*
X938662Y1101731D01*
X835338Y1101731D01*
X833407Y1108938D01*
X829676Y1115400D01*
X824400Y1120676D01*
X817938Y1124407D01*
X810731Y1126338D01*
X803269Y1126338D01*
X799869Y1125427D01*
X796062Y1124407D01*
X789600Y1120676D01*
X789600Y1120676D01*
X784324Y1115400D01*
X784324Y1115400D01*
X780593Y1108938D01*
X779929Y1106459D01*
X778662Y1101731D01*
X595338Y1101731D01*
X593407Y1108938D01*
X589676Y1115400D01*
X584400Y1120676D01*
X577938Y1124407D01*
X570731Y1126338D01*
X563269Y1126338D01*
X559869Y1125427D01*
X556062Y1124407D01*
X549600Y1120676D01*
X549600Y1120676D01*
X544324Y1115400D01*
X544324Y1115400D01*
X540593Y1108938D01*
X539929Y1106459D01*
X538662Y1101731D01*
X248345Y1101731D01*
X244900Y1105176D01*
X238438Y1108907D01*
X231231Y1110838D01*
X223769Y1110838D01*
X218964Y1109551D01*
X216562Y1108907D01*
X210100Y1105176D01*
X210100Y1105176D01*
X204824Y1099900D01*
X204824Y1099900D01*
X201093Y1093438D01*
X201093Y1093438D01*
X199162Y1086231D01*
X15290Y1086231D01*
X15290Y1181731D01*
X858662Y1181731D01*
X858662Y1174269D01*
X860593Y1167062D01*
X864324Y1160600D01*
X869600Y1155324D01*
X876062Y1151593D01*
X883269Y1149662D01*
X883269Y1149662D01*
X890731Y1149662D01*
X890731Y1149662D01*
X897938Y1151593D01*
X904400Y1155324D01*
X909676Y1160600D01*
X913407Y1167062D01*
X915338Y1174269D01*
X915338Y1181731D01*
X1018662Y1181731D01*
X1018662Y1174269D01*
X1020593Y1167062D01*
X1024324Y1160600D01*
X1029600Y1155324D01*
X1036062Y1151593D01*
X1043269Y1149662D01*
X1043269Y1149662D01*
X1050731Y1149662D01*
X1050731Y1149662D01*
X1057938Y1151593D01*
X1064400Y1155324D01*
X1069676Y1160600D01*
X1073407Y1167062D01*
X1075338Y1174269D01*
X1075338Y1181731D01*
X1258662Y1181731D01*
X1258662Y1174269D01*
X1260593Y1167062D01*
X1264324Y1160600D01*
X1269600Y1155324D01*
X1276062Y1151593D01*
X1283269Y1149662D01*
X1283269Y1149662D01*
X1290731Y1149662D01*
X1290731Y1149662D01*
X1297938Y1151593D01*
X1304400Y1155324D01*
X1309676Y1160600D01*
X1313407Y1167062D01*
X1315338Y1174269D01*
X1315338Y1181731D01*
X1418662Y1181731D01*
X1418662Y1174269D01*
X1420593Y1167062D01*
X1424324Y1160600D01*
X1429600Y1155324D01*
X1436062Y1151593D01*
X1443269Y1149662D01*
X1443269Y1149662D01*
X1450731Y1149662D01*
X1450731Y1149662D01*
X1457938Y1151593D01*
X1464400Y1155324D01*
X1469676Y1160600D01*
X1473407Y1167062D01*
X1475338Y1174269D01*
X1475338Y1181731D01*
X1578662Y1181731D01*
X1578662Y1174269D01*
X1580593Y1167062D01*
X1584324Y1160600D01*
X1589600Y1155324D01*
X1596062Y1151593D01*
X1603269Y1149662D01*
X1603269Y1149662D01*
X1610731Y1149662D01*
X1610731Y1149662D01*
X1617938Y1151593D01*
X1624400Y1155324D01*
X1629676Y1160600D01*
X1633407Y1167062D01*
X1635338Y1174269D01*
X1635338Y1181731D01*
X1634802Y1183731D01*
X1741662Y1183731D01*
X1741662Y1176269D01*
X1743593Y1169062D01*
X1747324Y1162600D01*
X1752600Y1157324D01*
X1759062Y1153593D01*
X1766269Y1151662D01*
X1766269Y1151662D01*
X1773731Y1151662D01*
X1773731Y1151662D01*
X1780938Y1153593D01*
X1787400Y1157324D01*
X1792676Y1162600D01*
X1796407Y1169062D01*
X1798338Y1176269D01*
X1798338Y1183731D01*
X1796407Y1190938D01*
X1792676Y1197400D01*
X1787400Y1202676D01*
X1782335Y1205600D01*
X1780938Y1206407D01*
X1780938Y1206407D01*
X1778924Y1206947D01*
X1778924Y1206947D01*
X1773731Y1208338D01*
X1766269Y1208338D01*
X1759062Y1206407D01*
X1758815Y1206265D01*
X1758815Y1206264D01*
X1752600Y1202676D01*
X1752600Y1202676D01*
X1747324Y1197400D01*
X1747324Y1197400D01*
X1743593Y1190938D01*
X1743593Y1190938D01*
X1741662Y1183731D01*
X1634802Y1183731D01*
X1633407Y1188938D01*
X1629676Y1195400D01*
X1624400Y1200676D01*
X1617938Y1204407D01*
X1610731Y1206338D01*
X1603269Y1206338D01*
X1598274Y1205000D01*
X1596062Y1204407D01*
X1589600Y1200676D01*
X1589600Y1200676D01*
X1584324Y1195400D01*
X1584324Y1195400D01*
X1580593Y1188938D01*
X1580593Y1188938D01*
X1578662Y1181731D01*
X1475338Y1181731D01*
X1473407Y1188938D01*
X1469676Y1195400D01*
X1464400Y1200676D01*
X1457938Y1204407D01*
X1450731Y1206338D01*
X1443269Y1206338D01*
X1438464Y1205051D01*
X1436062Y1204407D01*
X1429600Y1200676D01*
X1429600Y1200676D01*
X1424324Y1195400D01*
X1424324Y1195400D01*
X1420593Y1188938D01*
X1420593Y1188938D01*
X1418662Y1181731D01*
X1315338Y1181731D01*
X1313407Y1188938D01*
X1309676Y1195400D01*
X1304400Y1200676D01*
X1297938Y1204407D01*
X1290731Y1206338D01*
X1283269Y1206338D01*
X1278464Y1205051D01*
X1276062Y1204407D01*
X1269600Y1200676D01*
X1269600Y1200676D01*
X1264324Y1195400D01*
X1264324Y1195400D01*
X1260593Y1188938D01*
X1260593Y1188938D01*
X1258662Y1181731D01*
X1075338Y1181731D01*
X1073407Y1188938D01*
X1069676Y1195400D01*
X1064400Y1200676D01*
X1057938Y1204407D01*
X1050731Y1206338D01*
X1043269Y1206338D01*
X1038274Y1205000D01*
X1036062Y1204407D01*
X1029600Y1200676D01*
X1029600Y1200676D01*
X1024324Y1195400D01*
X1024324Y1195400D01*
X1020593Y1188938D01*
X1020593Y1188938D01*
X1018662Y1181731D01*
X915338Y1181731D01*
X913407Y1188938D01*
X909676Y1195400D01*
X904400Y1200676D01*
X897938Y1204407D01*
X890731Y1206338D01*
X883269Y1206338D01*
X878274Y1205000D01*
X876062Y1204407D01*
X869600Y1200676D01*
X869600Y1200676D01*
X864324Y1195400D01*
X864324Y1195400D01*
X860593Y1188938D01*
X860593Y1188938D01*
X858662Y1181731D01*
X15290Y1181731D01*
X15290Y1258731D01*
X266662Y1258731D01*
X266662Y1251269D01*
X268593Y1244062D01*
X272324Y1237600D01*
X277600Y1232324D01*
X284062Y1228593D01*
X291269Y1226662D01*
X291269Y1226662D01*
X298731Y1226662D01*
X298731Y1226662D01*
X305938Y1228593D01*
X312400Y1232324D01*
X317676Y1237600D01*
X321407Y1244062D01*
X323338Y1251269D01*
X323338Y1258731D01*
X322534Y1261731D01*
X458662Y1261731D01*
X458662Y1254269D01*
X460593Y1247062D01*
X464324Y1240600D01*
X469600Y1235324D01*
X476062Y1231593D01*
X483269Y1229662D01*
X483269Y1229662D01*
X490731Y1229662D01*
X490731Y1229662D01*
X497938Y1231593D01*
X504400Y1235324D01*
X509676Y1240600D01*
X513407Y1247062D01*
X515338Y1254269D01*
X515338Y1258731D01*
X618662Y1258731D01*
X618662Y1251269D01*
X620593Y1244062D01*
X624324Y1237600D01*
X629600Y1232324D01*
X636062Y1228593D01*
X643269Y1226662D01*
X643269Y1226662D01*
X650731Y1226662D01*
X650731Y1226662D01*
X657938Y1228593D01*
X664400Y1232324D01*
X669676Y1237600D01*
X673407Y1244062D01*
X675338Y1251269D01*
X675338Y1258731D01*
X674534Y1261731D01*
X858662Y1261731D01*
X858662Y1254269D01*
X860593Y1247062D01*
X864324Y1240600D01*
X869600Y1235324D01*
X876062Y1231593D01*
X883269Y1229662D01*
X890731Y1229662D01*
X897938Y1231593D01*
X904400Y1235324D01*
X909676Y1240600D01*
X913407Y1247062D01*
X915338Y1254269D01*
X915338Y1261731D01*
X1018662Y1261731D01*
X1018662Y1254269D01*
X1020593Y1247062D01*
X1024324Y1240600D01*
X1029600Y1235324D01*
X1036062Y1231593D01*
X1043269Y1229662D01*
X1050731Y1229662D01*
X1057938Y1231593D01*
X1064400Y1235324D01*
X1069676Y1240600D01*
X1073407Y1247062D01*
X1075338Y1254269D01*
X1075338Y1261731D01*
X1098662Y1261731D01*
X1098662Y1254269D01*
X1100593Y1247062D01*
X1104324Y1240600D01*
X1109600Y1235324D01*
X1116062Y1231593D01*
X1123269Y1229662D01*
X1123269Y1229662D01*
X1130731Y1229662D01*
X1130731Y1229662D01*
X1137938Y1231593D01*
X1144400Y1235324D01*
X1149676Y1240600D01*
X1153407Y1247062D01*
X1155338Y1254269D01*
X1155338Y1261731D01*
X1338662Y1261731D01*
X1338662Y1254269D01*
X1340593Y1247062D01*
X1344324Y1240600D01*
X1349600Y1235324D01*
X1356062Y1231593D01*
X1363269Y1229662D01*
X1363269Y1229662D01*
X1370731Y1229662D01*
X1370731Y1229662D01*
X1377938Y1231593D01*
X1384400Y1235324D01*
X1389676Y1240600D01*
X1393407Y1247062D01*
X1395338Y1254269D01*
X1395338Y1261731D01*
X1498662Y1261731D01*
X1498662Y1254269D01*
X1500593Y1247062D01*
X1504324Y1240600D01*
X1509600Y1235324D01*
X1516062Y1231593D01*
X1523269Y1229662D01*
X1523269Y1229662D01*
X1530731Y1229662D01*
X1530731Y1229662D01*
X1537938Y1231593D01*
X1544400Y1235324D01*
X1549676Y1240600D01*
X1553407Y1247062D01*
X1555338Y1254269D01*
X1555338Y1261731D01*
X1578662Y1261731D01*
X1578662Y1254269D01*
X1580593Y1247062D01*
X1584324Y1240600D01*
X1589600Y1235324D01*
X1596062Y1231593D01*
X1603269Y1229662D01*
X1610731Y1229662D01*
X1617938Y1231593D01*
X1624400Y1235324D01*
X1629676Y1240600D01*
X1633407Y1247062D01*
X1635338Y1254269D01*
X1635338Y1261731D01*
X1658662Y1261731D01*
X1658662Y1254269D01*
X1660593Y1247062D01*
X1664324Y1240600D01*
X1669600Y1235324D01*
X1676062Y1231593D01*
X1683269Y1229662D01*
X1683269Y1229662D01*
X1690731Y1229662D01*
X1690731Y1229662D01*
X1697938Y1231593D01*
X1704400Y1235324D01*
X1709676Y1240600D01*
X1713407Y1247062D01*
X1715338Y1254269D01*
X1715338Y1261731D01*
X1738662Y1261731D01*
X1738662Y1254269D01*
X1740593Y1247062D01*
X1744324Y1240600D01*
X1749600Y1235324D01*
X1756062Y1231593D01*
X1763269Y1229662D01*
X1770731Y1229662D01*
X1777938Y1231593D01*
X1784400Y1235324D01*
X1789676Y1240600D01*
X1793407Y1247062D01*
X1795338Y1254269D01*
X1795338Y1261731D01*
X1793407Y1268938D01*
X1789676Y1275400D01*
X1784400Y1280676D01*
X1777938Y1284407D01*
X1770731Y1286338D01*
X1763269Y1286338D01*
X1758274Y1285000D01*
X1756062Y1284407D01*
X1749600Y1280676D01*
X1749600Y1280676D01*
X1744324Y1275400D01*
X1744324Y1275400D01*
X1740593Y1268938D01*
X1740593Y1268938D01*
X1738662Y1261731D01*
X1715338Y1261731D01*
X1713407Y1268938D01*
X1709676Y1275400D01*
X1704400Y1280676D01*
X1697938Y1284407D01*
X1690731Y1286338D01*
X1683269Y1286338D01*
X1678464Y1285051D01*
X1676062Y1284407D01*
X1669600Y1280676D01*
X1669600Y1280676D01*
X1664324Y1275400D01*
X1664324Y1275400D01*
X1660593Y1268938D01*
X1660593Y1268938D01*
X1658662Y1261731D01*
X1635338Y1261731D01*
X1633407Y1268938D01*
X1629676Y1275400D01*
X1624400Y1280676D01*
X1617938Y1284407D01*
X1610731Y1286338D01*
X1603269Y1286338D01*
X1598274Y1285000D01*
X1596062Y1284407D01*
X1589600Y1280676D01*
X1589600Y1280676D01*
X1584324Y1275400D01*
X1584324Y1275400D01*
X1580593Y1268938D01*
X1580593Y1268938D01*
X1578662Y1261731D01*
X1555338Y1261731D01*
X1553407Y1268938D01*
X1549676Y1275400D01*
X1544400Y1280676D01*
X1537938Y1284407D01*
X1530731Y1286338D01*
X1523269Y1286338D01*
X1518274Y1285000D01*
X1516062Y1284407D01*
X1509600Y1280676D01*
X1509600Y1280676D01*
X1504324Y1275400D01*
X1504324Y1275400D01*
X1500593Y1268938D01*
X1500593Y1268938D01*
X1498662Y1261731D01*
X1395338Y1261731D01*
X1393407Y1268938D01*
X1389676Y1275400D01*
X1384400Y1280676D01*
X1377938Y1284407D01*
X1370731Y1286338D01*
X1363269Y1286338D01*
X1358274Y1285000D01*
X1356062Y1284407D01*
X1349600Y1280676D01*
X1349600Y1280676D01*
X1344324Y1275400D01*
X1344324Y1275400D01*
X1340593Y1268938D01*
X1340593Y1268938D01*
X1338662Y1261731D01*
X1155338Y1261731D01*
X1153407Y1268938D01*
X1149676Y1275400D01*
X1144400Y1280676D01*
X1137938Y1284407D01*
X1130731Y1286338D01*
X1123269Y1286338D01*
X1118274Y1285000D01*
X1116062Y1284407D01*
X1109600Y1280676D01*
X1109600Y1280676D01*
X1104324Y1275400D01*
X1104324Y1275400D01*
X1100593Y1268938D01*
X1100593Y1268938D01*
X1098662Y1261731D01*
X1075338Y1261731D01*
X1073407Y1268938D01*
X1069676Y1275400D01*
X1064400Y1280676D01*
X1057938Y1284407D01*
X1050731Y1286338D01*
X1043269Y1286338D01*
X1038464Y1285051D01*
X1036062Y1284407D01*
X1029600Y1280676D01*
X1029600Y1280676D01*
X1024324Y1275400D01*
X1024324Y1275400D01*
X1020593Y1268938D01*
X1020593Y1268938D01*
X1018662Y1261731D01*
X915338Y1261731D01*
X913407Y1268938D01*
X909676Y1275400D01*
X904400Y1280676D01*
X897938Y1284407D01*
X890731Y1286338D01*
X883269Y1286338D01*
X878464Y1285051D01*
X876062Y1284407D01*
X869600Y1280676D01*
X869600Y1280676D01*
X864324Y1275400D01*
X864324Y1275400D01*
X860593Y1268938D01*
X860593Y1268938D01*
X858662Y1261731D01*
X674534Y1261731D01*
X673407Y1265938D01*
X669676Y1272400D01*
X664400Y1277676D01*
X660669Y1279830D01*
X657938Y1281407D01*
X657938Y1281407D01*
X653953Y1282475D01*
X653952Y1282475D01*
X650731Y1283338D01*
X643269Y1283338D01*
X639043Y1282206D01*
X639043Y1282206D01*
X636062Y1281407D01*
X629600Y1277676D01*
X629600Y1277676D01*
X624324Y1272400D01*
X624324Y1272400D01*
X620593Y1265938D01*
X620593Y1265938D01*
X618662Y1258731D01*
X515338Y1258731D01*
X515338Y1261731D01*
X513407Y1268938D01*
X509676Y1275400D01*
X504400Y1280676D01*
X497938Y1284407D01*
X490731Y1286338D01*
X483269Y1286338D01*
X478464Y1285051D01*
X476062Y1284407D01*
X469600Y1280676D01*
X469600Y1280676D01*
X464324Y1275400D01*
X464324Y1275400D01*
X460593Y1268938D01*
X460593Y1268938D01*
X458662Y1261731D01*
X322534Y1261731D01*
X321407Y1265938D01*
X317676Y1272400D01*
X312400Y1277676D01*
X305938Y1281407D01*
X298731Y1283338D01*
X291269Y1283338D01*
X288048Y1282475D01*
X284062Y1281407D01*
X277600Y1277676D01*
X277600Y1277676D01*
X272324Y1272400D01*
X272324Y1272400D01*
X268593Y1265938D01*
X268593Y1265938D01*
X266662Y1258731D01*
X15290Y1258731D01*
X15290Y1338211D01*
X617438Y1338211D01*
X617438Y1330750D01*
X619369Y1323542D01*
X623100Y1317081D01*
X628376Y1311804D01*
X634838Y1308074D01*
X642045Y1306142D01*
X649507Y1306142D01*
X656714Y1308074D01*
X663176Y1311804D01*
X668452Y1317081D01*
X672183Y1323542D01*
X674114Y1330750D01*
X674114Y1333731D01*
X696662Y1333731D01*
X696662Y1326269D01*
X698593Y1319062D01*
X702324Y1312600D01*
X707600Y1307324D01*
X714062Y1303593D01*
X721269Y1301662D01*
X721269Y1301662D01*
X728731Y1301662D01*
X728731Y1301662D01*
X735938Y1303593D01*
X742400Y1307324D01*
X747676Y1312600D01*
X751407Y1319062D01*
X753338Y1326269D01*
X753338Y1333731D01*
X751407Y1340938D01*
X751407Y1340938D01*
X751407Y1340938D01*
X751406Y1340939D01*
X748286Y1346343D01*
X748286Y1346343D01*
X747676Y1347400D01*
X743345Y1351731D01*
X778662Y1351731D01*
X778662Y1344269D01*
X780593Y1337062D01*
X784324Y1330600D01*
X789600Y1325324D01*
X796062Y1321593D01*
X803269Y1319662D01*
X803269Y1319662D01*
X810731Y1319662D01*
X810731Y1319662D01*
X817938Y1321593D01*
X824400Y1325324D01*
X829676Y1330600D01*
X833407Y1337062D01*
X834658Y1341731D01*
X938662Y1341731D01*
X938662Y1334269D01*
X940593Y1327062D01*
X944324Y1320600D01*
X949600Y1315324D01*
X956062Y1311593D01*
X963269Y1309662D01*
X963269Y1309662D01*
X970731Y1309662D01*
X970731Y1309662D01*
X977938Y1311593D01*
X984400Y1315324D01*
X989676Y1320600D01*
X993407Y1327062D01*
X995338Y1334269D01*
X995338Y1341731D01*
X1098662Y1341731D01*
X1098662Y1334269D01*
X1100593Y1327062D01*
X1104324Y1320600D01*
X1109600Y1315324D01*
X1116062Y1311593D01*
X1123269Y1309662D01*
X1130731Y1309662D01*
X1137938Y1311593D01*
X1144400Y1315324D01*
X1149676Y1320600D01*
X1153407Y1327062D01*
X1155338Y1334269D01*
X1155338Y1341731D01*
X1338662Y1341731D01*
X1338662Y1334269D01*
X1340593Y1327062D01*
X1344324Y1320600D01*
X1349600Y1315324D01*
X1356062Y1311593D01*
X1363269Y1309662D01*
X1370731Y1309662D01*
X1377938Y1311593D01*
X1384400Y1315324D01*
X1389676Y1320600D01*
X1393407Y1327062D01*
X1395338Y1334269D01*
X1395338Y1341731D01*
X1498662Y1341731D01*
X1498662Y1334269D01*
X1500593Y1327062D01*
X1504324Y1320600D01*
X1509600Y1315324D01*
X1516062Y1311593D01*
X1523269Y1309662D01*
X1530731Y1309662D01*
X1537938Y1311593D01*
X1544400Y1315324D01*
X1549676Y1320600D01*
X1553407Y1327062D01*
X1555023Y1333092D01*
X1557970Y1337929D01*
X1575942Y1337929D01*
X1577269Y1336833D01*
X1578977Y1333092D01*
X1580593Y1327062D01*
X1584324Y1320600D01*
X1589600Y1315324D01*
X1596062Y1311593D01*
X1603269Y1309662D01*
X1610731Y1309662D01*
X1617938Y1311593D01*
X1624400Y1315324D01*
X1629676Y1320600D01*
X1633407Y1327062D01*
X1635338Y1334269D01*
X1635338Y1341731D01*
X1738662Y1341731D01*
X1738662Y1334269D01*
X1740593Y1327062D01*
X1744324Y1320600D01*
X1749600Y1315324D01*
X1756062Y1311593D01*
X1763269Y1309662D01*
X1770731Y1309662D01*
X1777938Y1311593D01*
X1784400Y1315324D01*
X1789676Y1320600D01*
X1793407Y1327062D01*
X1795338Y1334269D01*
X1795338Y1341731D01*
X1793407Y1348938D01*
X1789676Y1355400D01*
X1784400Y1360676D01*
X1777938Y1364407D01*
X1770731Y1366338D01*
X1763269Y1366338D01*
X1756467Y1364515D01*
X1756467Y1364515D01*
X1756062Y1364407D01*
X1749600Y1360676D01*
X1749600Y1360676D01*
X1744324Y1355400D01*
X1744324Y1355400D01*
X1740593Y1348938D01*
X1739898Y1346343D01*
X1738662Y1341731D01*
X1635338Y1341731D01*
X1633407Y1348938D01*
X1629676Y1355400D01*
X1624400Y1360676D01*
X1617938Y1364407D01*
X1610731Y1366338D01*
X1603269Y1366338D01*
X1598464Y1365051D01*
X1596062Y1364407D01*
X1589600Y1360676D01*
X1589600Y1360676D01*
X1584324Y1355400D01*
X1584324Y1355400D01*
X1580593Y1348938D01*
X1579919Y1346423D01*
X1579342Y1344269D01*
X1578977Y1342908D01*
X1575942Y1337929D01*
X1557970Y1337929D01*
X1558058Y1338072D01*
X1556731Y1339167D01*
X1555022Y1342908D01*
X1554658Y1344269D01*
X1553407Y1348938D01*
X1549676Y1355400D01*
X1544400Y1360676D01*
X1537938Y1364407D01*
X1530731Y1366338D01*
X1523269Y1366338D01*
X1518464Y1365051D01*
X1516062Y1364407D01*
X1509600Y1360676D01*
X1509600Y1360676D01*
X1504324Y1355400D01*
X1504324Y1355400D01*
X1500593Y1348938D01*
X1499898Y1346343D01*
X1498662Y1341731D01*
X1395338Y1341731D01*
X1393407Y1348938D01*
X1389676Y1355400D01*
X1384400Y1360676D01*
X1377938Y1364407D01*
X1370731Y1366338D01*
X1363269Y1366338D01*
X1358464Y1365051D01*
X1356062Y1364407D01*
X1349600Y1360676D01*
X1349600Y1360676D01*
X1344324Y1355400D01*
X1344324Y1355400D01*
X1340593Y1348938D01*
X1339898Y1346343D01*
X1338662Y1341731D01*
X1155338Y1341731D01*
X1153407Y1348938D01*
X1149676Y1355400D01*
X1144400Y1360676D01*
X1137938Y1364407D01*
X1130731Y1366338D01*
X1123269Y1366338D01*
X1118464Y1365051D01*
X1116062Y1364407D01*
X1109600Y1360676D01*
X1109600Y1360676D01*
X1104324Y1355400D01*
X1104324Y1355400D01*
X1100593Y1348938D01*
X1099898Y1346343D01*
X1098662Y1341731D01*
X995338Y1341731D01*
X993407Y1348938D01*
X989676Y1355400D01*
X984400Y1360676D01*
X977938Y1364407D01*
X970731Y1366338D01*
X963269Y1366338D01*
X958464Y1365051D01*
X956062Y1364407D01*
X949600Y1360676D01*
X949600Y1360676D01*
X944324Y1355400D01*
X944324Y1355400D01*
X940593Y1348938D01*
X939898Y1346343D01*
X938662Y1341731D01*
X834658Y1341731D01*
X835338Y1344269D01*
X835338Y1351731D01*
X833407Y1358938D01*
X829676Y1365400D01*
X824400Y1370676D01*
X817938Y1374407D01*
X810731Y1376338D01*
X803269Y1376338D01*
X798464Y1375050D01*
X796062Y1374407D01*
X789600Y1370676D01*
X789600Y1370676D01*
X784324Y1365400D01*
X784324Y1365400D01*
X780593Y1358938D01*
X780593Y1358938D01*
X778662Y1351731D01*
X743345Y1351731D01*
X742400Y1352676D01*
X735938Y1356407D01*
X728731Y1358338D01*
X721269Y1358338D01*
X716464Y1357051D01*
X714062Y1356407D01*
X707600Y1352676D01*
X707600Y1352676D01*
X702324Y1347400D01*
X702324Y1347400D01*
X698593Y1340938D01*
X698286Y1339793D01*
X698286Y1339792D01*
X696662Y1333731D01*
X674114Y1333731D01*
X674114Y1338211D01*
X672183Y1345418D01*
X668452Y1351880D01*
X663176Y1357156D01*
X656714Y1360887D01*
X649507Y1362818D01*
X642045Y1362818D01*
X637240Y1361531D01*
X634838Y1360887D01*
X628376Y1357156D01*
X628376Y1357156D01*
X623100Y1351881D01*
X623100Y1351880D01*
X619369Y1345419D01*
X618403Y1341815D01*
X617438Y1338211D01*
X15290Y1338211D01*
X15290Y1419782D01*
X699132Y1419782D01*
X699132Y1412321D01*
X701064Y1405114D01*
X704794Y1398652D01*
X710070Y1393376D01*
X716532Y1389645D01*
X723740Y1387714D01*
X723740Y1387714D01*
X731201Y1387714D01*
X731201Y1387714D01*
X738408Y1389645D01*
X744870Y1393376D01*
X750146Y1398652D01*
X753877Y1405114D01*
X755808Y1412321D01*
X755808Y1419782D01*
X755170Y1422165D01*
X1660645Y1422165D01*
X1660645Y1414704D01*
X1662576Y1407496D01*
X1666307Y1401035D01*
X1671583Y1395759D01*
X1678045Y1392028D01*
X1685252Y1390097D01*
X1685252Y1390097D01*
X1692714Y1390097D01*
X1692714Y1390097D01*
X1699921Y1392028D01*
X1706383Y1395759D01*
X1711659Y1401035D01*
X1715390Y1407496D01*
X1717321Y1414704D01*
X1717321Y1419634D01*
X1738346Y1419634D01*
X1738346Y1412173D01*
X1739939Y1406227D01*
X1739939Y1406226D01*
X1740277Y1404966D01*
X1740277Y1404966D01*
X1740277Y1404966D01*
X1744008Y1398504D01*
X1749284Y1393228D01*
X1755746Y1389497D01*
X1762953Y1387566D01*
X1770414Y1387566D01*
X1777622Y1389497D01*
X1784083Y1393228D01*
X1789360Y1398504D01*
X1793090Y1404966D01*
X1795022Y1412173D01*
X1795022Y1419634D01*
X1794460Y1421731D01*
X1821662Y1421731D01*
X1821662Y1414269D01*
X1823593Y1407062D01*
X1827324Y1400600D01*
X1832600Y1395324D01*
X1839062Y1391593D01*
X1846269Y1389662D01*
X1846269Y1389662D01*
X1853731Y1389662D01*
X1853731Y1389662D01*
X1860938Y1391593D01*
X1867400Y1395324D01*
X1872676Y1400600D01*
X1876407Y1407062D01*
X1878338Y1414269D01*
X1878338Y1421731D01*
X1876998Y1426731D01*
X1922662Y1426731D01*
X1922662Y1419269D01*
X1924593Y1412062D01*
X1928324Y1405600D01*
X1933600Y1400324D01*
X1940062Y1396593D01*
X1947269Y1394662D01*
X1947269Y1394662D01*
X1954731Y1394662D01*
X1954731Y1394662D01*
X1961938Y1396593D01*
X1968400Y1400324D01*
X1973676Y1405600D01*
X1977407Y1412062D01*
X1979338Y1419269D01*
X1979338Y1426731D01*
X1977407Y1433938D01*
X1973676Y1440400D01*
X1968400Y1445676D01*
X1961938Y1449407D01*
X1961938Y1449407D01*
X1961938Y1449407D01*
X1959802Y1449979D01*
X1959801Y1449979D01*
X1954731Y1451338D01*
X1947269Y1451338D01*
X1940172Y1449436D01*
X1940172Y1449436D01*
X1940062Y1449407D01*
X1940062Y1449407D01*
X1933600Y1445676D01*
X1933600Y1445676D01*
X1928324Y1440400D01*
X1928324Y1440400D01*
X1924593Y1433938D01*
X1924423Y1433303D01*
X1922662Y1426731D01*
X1876998Y1426731D01*
X1876407Y1428938D01*
X1872676Y1435400D01*
X1867400Y1440676D01*
X1862833Y1443313D01*
X1860938Y1444407D01*
X1860938Y1444407D01*
X1855783Y1445788D01*
X1855783Y1445788D01*
X1853731Y1446338D01*
X1846269Y1446338D01*
X1839062Y1444407D01*
X1838666Y1444178D01*
X1838666Y1444178D01*
X1832600Y1440676D01*
X1832600Y1440676D01*
X1827324Y1435400D01*
X1827324Y1435400D01*
X1823593Y1428938D01*
X1823002Y1426731D01*
X1821662Y1421731D01*
X1794460Y1421731D01*
X1793090Y1426842D01*
X1789360Y1433303D01*
X1784083Y1438580D01*
X1777622Y1442310D01*
X1770414Y1444242D01*
X1762953Y1444242D01*
X1755746Y1442310D01*
X1755715Y1442293D01*
X1755715Y1442293D01*
X1749284Y1438580D01*
X1749283Y1438579D01*
X1744008Y1433304D01*
X1744008Y1433303D01*
X1740513Y1427252D01*
X1740513Y1427251D01*
X1740277Y1426842D01*
X1738346Y1419634D01*
X1717321Y1419634D01*
X1717321Y1422165D01*
X1715390Y1429372D01*
X1711659Y1435834D01*
X1706383Y1441110D01*
X1699921Y1444841D01*
X1692714Y1446772D01*
X1685252Y1446772D01*
X1679248Y1445164D01*
X1679248Y1445164D01*
X1678045Y1444841D01*
X1671583Y1441110D01*
X1671583Y1441110D01*
X1666307Y1435835D01*
X1666307Y1435834D01*
X1662576Y1429373D01*
X1662576Y1429372D01*
X1660645Y1422165D01*
X755170Y1422165D01*
X753877Y1426990D01*
X750146Y1433451D01*
X744870Y1438728D01*
X738408Y1442458D01*
X731201Y1444390D01*
X723740Y1444390D01*
X719721Y1443313D01*
X716532Y1442458D01*
X710070Y1438728D01*
X710070Y1438727D01*
X704795Y1433452D01*
X704794Y1433451D01*
X701064Y1426990D01*
X700994Y1426731D01*
X699132Y1419782D01*
X15290Y1419782D01*
X15290Y1495161D01*
X236483Y1495161D01*
X236483Y1487700D01*
X238414Y1480493D01*
X242145Y1474031D01*
X247421Y1468755D01*
X253883Y1465024D01*
X261090Y1463093D01*
X261091Y1463093D01*
X268552Y1463093D01*
X268552Y1463093D01*
X275759Y1465024D01*
X282221Y1468755D01*
X287497Y1474031D01*
X291228Y1480493D01*
X293159Y1487700D01*
X293159Y1495161D01*
X292193Y1498769D01*
X292041Y1499334D01*
X292041Y1499334D01*
X291399Y1501731D01*
X458662Y1501731D01*
X458662Y1494269D01*
X460593Y1487062D01*
X464324Y1480600D01*
X469600Y1475324D01*
X476062Y1471593D01*
X483269Y1469662D01*
X483269Y1469662D01*
X490731Y1469662D01*
X490731Y1469662D01*
X497938Y1471593D01*
X504400Y1475324D01*
X509676Y1480600D01*
X513407Y1487062D01*
X515338Y1494269D01*
X515338Y1501731D01*
X618662Y1501731D01*
X618662Y1494269D01*
X620593Y1487062D01*
X624324Y1480600D01*
X629600Y1475324D01*
X636062Y1471593D01*
X643269Y1469662D01*
X643269Y1469662D01*
X650731Y1469662D01*
X650731Y1469662D01*
X657938Y1471593D01*
X664400Y1475324D01*
X669676Y1480600D01*
X673407Y1487062D01*
X675338Y1494269D01*
X675338Y1501731D01*
X778662Y1501731D01*
X778662Y1494269D01*
X780593Y1487062D01*
X784324Y1480600D01*
X789600Y1475324D01*
X796062Y1471593D01*
X803269Y1469662D01*
X803269Y1469662D01*
X810731Y1469662D01*
X810731Y1469662D01*
X817938Y1471593D01*
X824400Y1475324D01*
X829676Y1480600D01*
X833407Y1487062D01*
X835338Y1494269D01*
X835338Y1501731D01*
X858662Y1501731D01*
X858662Y1494269D01*
X860593Y1487062D01*
X864324Y1480600D01*
X869600Y1475324D01*
X876062Y1471593D01*
X883269Y1469662D01*
X883269Y1469662D01*
X890731Y1469662D01*
X890731Y1469662D01*
X897938Y1471593D01*
X904400Y1475324D01*
X909676Y1480600D01*
X913407Y1487062D01*
X915338Y1494269D01*
X915338Y1501731D01*
X938662Y1501731D01*
X938662Y1494269D01*
X940593Y1487062D01*
X944324Y1480600D01*
X949600Y1475324D01*
X956062Y1471593D01*
X963269Y1469662D01*
X963269Y1469662D01*
X970731Y1469662D01*
X970731Y1469662D01*
X977938Y1471593D01*
X984400Y1475324D01*
X989676Y1480600D01*
X993407Y1487062D01*
X995338Y1494269D01*
X995338Y1501731D01*
X994132Y1506231D01*
X1421662Y1506231D01*
X1421662Y1498769D01*
X1423593Y1491562D01*
X1427324Y1485100D01*
X1432600Y1479824D01*
X1439062Y1476093D01*
X1446269Y1474162D01*
X1446269Y1474162D01*
X1453731Y1474162D01*
X1453731Y1474162D01*
X1460938Y1476093D01*
X1467400Y1479824D01*
X1472676Y1485100D01*
X1476407Y1491562D01*
X1478338Y1498769D01*
X1478338Y1501731D01*
X1568928Y1501731D01*
X1568928Y1494269D01*
X1570859Y1487062D01*
X1574590Y1480600D01*
X1579866Y1475324D01*
X1586328Y1471593D01*
X1593535Y1469662D01*
X1593536Y1469662D01*
X1600997Y1469662D01*
X1600997Y1469662D01*
X1608204Y1471593D01*
X1614666Y1475324D01*
X1619942Y1480600D01*
X1623673Y1487062D01*
X1625604Y1494269D01*
X1625604Y1501731D01*
X1625577Y1501831D01*
X1650882Y1501831D01*
X1650882Y1494369D01*
X1652813Y1487162D01*
X1656544Y1480700D01*
X1661820Y1475424D01*
X1668282Y1471693D01*
X1675489Y1469762D01*
X1675489Y1469762D01*
X1676090Y1469762D01*
X1682951Y1469762D01*
X1690158Y1471693D01*
X1696620Y1475424D01*
X1701896Y1480700D01*
X1705627Y1487162D01*
X1707558Y1494369D01*
X1707558Y1498231D01*
X1733846Y1498231D01*
X1733846Y1490769D01*
X1735777Y1483562D01*
X1739508Y1477100D01*
X1744784Y1471824D01*
X1751246Y1468093D01*
X1758453Y1466162D01*
X1765915Y1466162D01*
X1773122Y1468093D01*
X1779584Y1471824D01*
X1784860Y1477100D01*
X1788591Y1483562D01*
X1790522Y1490769D01*
X1790522Y1498231D01*
X1789932Y1500432D01*
X1814262Y1500432D01*
X1814262Y1492971D01*
X1815021Y1490137D01*
X1815021Y1490136D01*
X1816193Y1485764D01*
X1816193Y1485764D01*
X1816576Y1485100D01*
X1819924Y1479302D01*
X1825200Y1474026D01*
X1831662Y1470295D01*
X1838869Y1468364D01*
X1846331Y1468364D01*
X1853538Y1470295D01*
X1860000Y1474026D01*
X1865276Y1479302D01*
X1869007Y1485764D01*
X1870938Y1492971D01*
X1870938Y1500432D01*
X1870545Y1501900D01*
X1870371Y1502549D01*
X1870371Y1502550D01*
X1869852Y1504485D01*
X1869728Y1504946D01*
X1920299Y1504946D01*
X1920299Y1497485D01*
X1922230Y1490278D01*
X1925961Y1483816D01*
X1931237Y1478540D01*
X1937699Y1474809D01*
X1944906Y1472878D01*
X1952368Y1472878D01*
X1959575Y1474809D01*
X1966037Y1478540D01*
X1971313Y1483816D01*
X1975044Y1490278D01*
X1976975Y1497485D01*
X1976975Y1504946D01*
X1975044Y1512154D01*
X1971313Y1518616D01*
X1966037Y1523892D01*
X1959575Y1527622D01*
X1952368Y1529554D01*
X1944906Y1529554D01*
X1940101Y1528266D01*
X1937699Y1527622D01*
X1931237Y1523892D01*
X1931237Y1523891D01*
X1925961Y1518616D01*
X1925961Y1518616D01*
X1922230Y1512154D01*
X1921395Y1509038D01*
X1920299Y1504946D01*
X1869728Y1504946D01*
X1869007Y1507640D01*
X1865276Y1514101D01*
X1860000Y1519378D01*
X1853538Y1523108D01*
X1846331Y1525040D01*
X1838869Y1525040D01*
X1834585Y1523892D01*
X1831662Y1523108D01*
X1825200Y1519378D01*
X1825200Y1519377D01*
X1819924Y1514102D01*
X1819924Y1514101D01*
X1816193Y1507640D01*
X1814637Y1501831D01*
X1814262Y1500432D01*
X1789932Y1500432D01*
X1788591Y1505438D01*
X1784860Y1511900D01*
X1779584Y1517176D01*
X1773122Y1520907D01*
X1765915Y1522838D01*
X1758453Y1522838D01*
X1753648Y1521551D01*
X1751246Y1520907D01*
X1744784Y1517176D01*
X1744784Y1517176D01*
X1739508Y1511900D01*
X1739508Y1511900D01*
X1735777Y1505438D01*
X1735522Y1504485D01*
X1733846Y1498231D01*
X1707558Y1498231D01*
X1707558Y1501831D01*
X1705627Y1509038D01*
X1701896Y1515500D01*
X1696620Y1520776D01*
X1690158Y1524507D01*
X1682951Y1526438D01*
X1675489Y1526438D01*
X1670779Y1525176D01*
X1668282Y1524507D01*
X1661820Y1520776D01*
X1661820Y1520776D01*
X1656544Y1515500D01*
X1656544Y1515500D01*
X1652813Y1509038D01*
X1652786Y1508938D01*
X1650882Y1501831D01*
X1625577Y1501831D01*
X1623673Y1508938D01*
X1619942Y1515400D01*
X1614666Y1520676D01*
X1608204Y1524407D01*
X1600997Y1526338D01*
X1593535Y1526338D01*
X1589199Y1525176D01*
X1586328Y1524407D01*
X1579866Y1520676D01*
X1579866Y1520676D01*
X1574590Y1515400D01*
X1574590Y1515400D01*
X1570859Y1508938D01*
X1570134Y1506231D01*
X1568928Y1501731D01*
X1478338Y1501731D01*
X1478338Y1506231D01*
X1476407Y1513438D01*
X1472676Y1519900D01*
X1467400Y1525176D01*
X1460938Y1528907D01*
X1453731Y1530838D01*
X1446269Y1530838D01*
X1441476Y1529554D01*
X1439062Y1528907D01*
X1432600Y1525176D01*
X1432600Y1525176D01*
X1427324Y1519900D01*
X1427324Y1519900D01*
X1423593Y1513438D01*
X1422999Y1511220D01*
X1421662Y1506231D01*
X994132Y1506231D01*
X993407Y1508938D01*
X989676Y1515400D01*
X984400Y1520676D01*
X977938Y1524407D01*
X970731Y1526338D01*
X963269Y1526338D01*
X958932Y1525176D01*
X956062Y1524407D01*
X949600Y1520676D01*
X949600Y1520676D01*
X944324Y1515400D01*
X944324Y1515400D01*
X940593Y1508938D01*
X940593Y1508938D01*
X938662Y1501731D01*
X915338Y1501731D01*
X913407Y1508938D01*
X909676Y1515400D01*
X904400Y1520676D01*
X897938Y1524407D01*
X890731Y1526338D01*
X883269Y1526338D01*
X878932Y1525176D01*
X876062Y1524407D01*
X869600Y1520676D01*
X869600Y1520676D01*
X864324Y1515400D01*
X864324Y1515400D01*
X860593Y1508938D01*
X860593Y1508938D01*
X858662Y1501731D01*
X835338Y1501731D01*
X833407Y1508938D01*
X829676Y1515400D01*
X824400Y1520676D01*
X817938Y1524407D01*
X810731Y1526338D01*
X803269Y1526338D01*
X798932Y1525176D01*
X796062Y1524407D01*
X789600Y1520676D01*
X789600Y1520676D01*
X784324Y1515400D01*
X784324Y1515400D01*
X780593Y1508938D01*
X780593Y1508938D01*
X778662Y1501731D01*
X675338Y1501731D01*
X673407Y1508938D01*
X669676Y1515400D01*
X664400Y1520676D01*
X657938Y1524407D01*
X650731Y1526338D01*
X643269Y1526338D01*
X638932Y1525176D01*
X636062Y1524407D01*
X629600Y1520676D01*
X629600Y1520676D01*
X624324Y1515400D01*
X624324Y1515400D01*
X620593Y1508938D01*
X620593Y1508938D01*
X618662Y1501731D01*
X515338Y1501731D01*
X513407Y1508938D01*
X509676Y1515400D01*
X504400Y1520676D01*
X497938Y1524407D01*
X490731Y1526338D01*
X483269Y1526338D01*
X478932Y1525176D01*
X476062Y1524407D01*
X469600Y1520676D01*
X469600Y1520676D01*
X464324Y1515400D01*
X464324Y1515400D01*
X460593Y1508938D01*
X460593Y1508938D01*
X458662Y1501731D01*
X291399Y1501731D01*
X291228Y1502368D01*
X291228Y1502369D01*
X289849Y1504758D01*
X287497Y1508831D01*
X282221Y1514107D01*
X275759Y1517837D01*
X268552Y1519769D01*
X261090Y1519769D01*
X256788Y1518616D01*
X253883Y1517837D01*
X247421Y1514107D01*
X247421Y1514106D01*
X242145Y1508831D01*
X242145Y1508831D01*
X238414Y1502369D01*
X237895Y1500432D01*
X236483Y1495161D01*
X15290Y1495161D01*
X15290Y1581731D01*
X618662Y1581731D01*
X618662Y1574269D01*
X620593Y1567062D01*
X624324Y1560600D01*
X629600Y1555324D01*
X636062Y1551593D01*
X643269Y1549662D01*
X650731Y1549662D01*
X657938Y1551593D01*
X664400Y1555324D01*
X669676Y1560600D01*
X673407Y1567062D01*
X675338Y1574269D01*
X675338Y1581731D01*
X938662Y1581731D01*
X938662Y1574269D01*
X940593Y1567062D01*
X944324Y1560600D01*
X949600Y1555324D01*
X956062Y1551593D01*
X963269Y1549662D01*
X970731Y1549662D01*
X977938Y1551593D01*
X984400Y1555324D01*
X989676Y1560600D01*
X993407Y1567062D01*
X995338Y1574269D01*
X995338Y1581731D01*
X1168928Y1581731D01*
X1168928Y1574269D01*
X1170859Y1567062D01*
X1174590Y1560600D01*
X1179866Y1555324D01*
X1186328Y1551593D01*
X1193535Y1549662D01*
X1193536Y1549662D01*
X1200997Y1549662D01*
X1200997Y1549662D01*
X1208204Y1551593D01*
X1214666Y1555324D01*
X1219942Y1560600D01*
X1223673Y1567062D01*
X1225460Y1573731D01*
X1259162Y1573731D01*
X1259162Y1566269D01*
X1261093Y1559062D01*
X1264824Y1552600D01*
X1270100Y1547324D01*
X1276562Y1543593D01*
X1283769Y1541662D01*
X1283769Y1541662D01*
X1291231Y1541662D01*
X1291231Y1541662D01*
X1298438Y1543593D01*
X1304900Y1547324D01*
X1310176Y1552600D01*
X1313907Y1559062D01*
X1315838Y1566269D01*
X1315838Y1573731D01*
X1313907Y1580938D01*
X1312237Y1583831D01*
X2040420Y1583831D01*
X2040420Y1576369D01*
X2042352Y1569162D01*
X2046082Y1562700D01*
X2046083Y1562700D01*
X2051933Y1556849D01*
X2051745Y1556661D01*
X2055090Y1552079D01*
X2055505Y1545105D01*
X2052891Y1540382D01*
X2053125Y1540202D01*
X2052630Y1539558D01*
X2048899Y1533096D01*
X2048899Y1533096D01*
X2046968Y1525888D01*
X2046968Y1518427D01*
X2047752Y1515500D01*
X2048899Y1511219D01*
X2048899Y1511219D01*
X2052794Y1504474D01*
X2054441Y1497684D01*
X2052156Y1491081D01*
X2050824Y1489506D01*
X2050751Y1489433D01*
X2050750Y1489433D01*
X2047019Y1482971D01*
X2047019Y1482971D01*
X2045088Y1475763D01*
X2045088Y1468302D01*
X2047019Y1461095D01*
X2050750Y1454633D01*
X2050750Y1454633D01*
X2052739Y1452644D01*
X2056088Y1446511D01*
X2055589Y1439542D01*
X2054710Y1437676D01*
X2050693Y1430719D01*
X2050693Y1430718D01*
X2049654Y1426842D01*
X2048762Y1423511D01*
X2048762Y1416049D01*
X2050693Y1408842D01*
X2054424Y1402380D01*
X2059700Y1397104D01*
X2066162Y1393373D01*
X2073369Y1391442D01*
X2073369Y1391442D01*
X2080831Y1391442D01*
X2080831Y1391442D01*
X2088038Y1393373D01*
X2094500Y1397104D01*
X2099776Y1402380D01*
X2103507Y1408842D01*
X2105438Y1416049D01*
X2105438Y1423511D01*
X2103507Y1430718D01*
X2099776Y1437180D01*
X2097787Y1439169D01*
X2094438Y1445301D01*
X2094937Y1452271D01*
X2095816Y1454137D01*
X2096102Y1454633D01*
X2096102Y1454633D01*
X2099833Y1461095D01*
X2101764Y1468302D01*
X2101764Y1475763D01*
X2099833Y1482971D01*
X2096102Y1489433D01*
X2096102Y1489433D01*
X2095938Y1489717D01*
X2094291Y1496507D01*
X2096576Y1503109D01*
X2097909Y1504685D01*
X2097982Y1504758D01*
X2101713Y1511220D01*
X2103644Y1518427D01*
X2103644Y1525888D01*
X2101713Y1533096D01*
X2097982Y1539558D01*
X2092706Y1544834D01*
X2092131Y1545408D01*
X2092319Y1545597D01*
X2088974Y1550179D01*
X2088559Y1557154D01*
X2091175Y1561875D01*
X2090940Y1562055D01*
X2091434Y1562699D01*
X2091434Y1562700D01*
X2095165Y1569162D01*
X2097096Y1576369D01*
X2097096Y1583831D01*
X2095165Y1591038D01*
X2091434Y1597500D01*
X2086158Y1602776D01*
X2079696Y1606507D01*
X2072489Y1608438D01*
X2065028Y1608438D01*
X2060223Y1607151D01*
X2057820Y1606507D01*
X2051358Y1602776D01*
X2051358Y1602776D01*
X2046083Y1597500D01*
X2046082Y1597500D01*
X2042352Y1591038D01*
X2042352Y1591038D01*
X2040420Y1583831D01*
X1312237Y1583831D01*
X1310176Y1587400D01*
X1304900Y1592676D01*
X1298438Y1596407D01*
X1291231Y1598338D01*
X1283769Y1598338D01*
X1278964Y1597051D01*
X1276562Y1596407D01*
X1270100Y1592676D01*
X1270100Y1592676D01*
X1264824Y1587400D01*
X1264824Y1587400D01*
X1261093Y1580938D01*
X1261093Y1580938D01*
X1259162Y1573731D01*
X1225460Y1573731D01*
X1225604Y1574269D01*
X1225604Y1581731D01*
X1223673Y1588938D01*
X1219942Y1595400D01*
X1214666Y1600676D01*
X1208204Y1604407D01*
X1200997Y1606338D01*
X1193535Y1606338D01*
X1188731Y1605050D01*
X1186328Y1604407D01*
X1179866Y1600676D01*
X1179866Y1600676D01*
X1174590Y1595400D01*
X1174590Y1595400D01*
X1170859Y1588938D01*
X1170859Y1588938D01*
X1168928Y1581731D01*
X995338Y1581731D01*
X995338Y1581731D01*
X993407Y1588938D01*
X989676Y1595400D01*
X984400Y1600676D01*
X977938Y1604407D01*
X970731Y1606338D01*
X963269Y1606338D01*
X958464Y1605051D01*
X956062Y1604407D01*
X949600Y1600676D01*
X949600Y1600676D01*
X944324Y1595400D01*
X944324Y1595400D01*
X940593Y1588938D01*
X939628Y1585334D01*
X938662Y1581731D01*
X675338Y1581731D01*
X673407Y1588938D01*
X669676Y1595400D01*
X664400Y1600676D01*
X657938Y1604407D01*
X650731Y1606338D01*
X643269Y1606338D01*
X638464Y1605051D01*
X636062Y1604407D01*
X629600Y1600676D01*
X629600Y1600676D01*
X624324Y1595400D01*
X624324Y1595400D01*
X620593Y1588938D01*
X619628Y1585334D01*
X618662Y1581731D01*
X15290Y1581731D01*
X15290Y1661731D01*
X538662Y1661731D01*
X538662Y1654269D01*
X540593Y1647062D01*
X544324Y1640600D01*
X549600Y1635324D01*
X556062Y1631593D01*
X563269Y1629662D01*
X563269Y1629662D01*
X570731Y1629662D01*
X570731Y1629662D01*
X577938Y1631593D01*
X584400Y1635324D01*
X589676Y1640600D01*
X593407Y1647062D01*
X595338Y1654269D01*
X595338Y1661731D01*
X593407Y1668938D01*
X589676Y1675400D01*
X584400Y1680676D01*
X577938Y1684407D01*
X577775Y1684450D01*
X638414Y1684450D01*
X638414Y1676989D01*
X640345Y1669782D01*
X644076Y1663320D01*
X649352Y1658044D01*
X655814Y1654313D01*
X663021Y1652382D01*
X663021Y1652382D01*
X670482Y1652382D01*
X670482Y1652382D01*
X677690Y1654313D01*
X684151Y1658044D01*
X689428Y1663320D01*
X690177Y1664618D01*
X725556Y1664618D01*
X725556Y1657157D01*
X727487Y1649949D01*
X731218Y1643488D01*
X736494Y1638211D01*
X742956Y1634481D01*
X750163Y1632549D01*
X750164Y1632549D01*
X757625Y1632549D01*
X757625Y1632549D01*
X764832Y1634481D01*
X771294Y1638211D01*
X776570Y1643488D01*
X780301Y1649949D01*
X782232Y1657157D01*
X782232Y1664618D01*
X780301Y1671825D01*
X776570Y1678287D01*
X771294Y1683563D01*
X764832Y1687294D01*
X757625Y1689225D01*
X750163Y1689225D01*
X745359Y1687938D01*
X742956Y1687294D01*
X736494Y1683563D01*
X736494Y1683563D01*
X731218Y1678288D01*
X731218Y1678287D01*
X727487Y1671826D01*
X726747Y1669062D01*
X725556Y1664618D01*
X690177Y1664618D01*
X693158Y1669782D01*
X695090Y1676989D01*
X695090Y1684450D01*
X693675Y1689731D01*
X1439662Y1689731D01*
X1439662Y1682269D01*
X1441593Y1675062D01*
X1445324Y1668600D01*
X1450600Y1663324D01*
X1457062Y1659593D01*
X1464269Y1657662D01*
X1464269Y1657662D01*
X1471731Y1657662D01*
X1471731Y1657662D01*
X1478938Y1659593D01*
X1485400Y1663324D01*
X1490676Y1668600D01*
X1494407Y1675062D01*
X1496338Y1682269D01*
X1496338Y1689731D01*
X1496338Y1690544D01*
X1496490Y1690544D01*
X1497426Y1696547D01*
X1498672Y1697951D01*
X1639162Y1697951D01*
X1639162Y1690489D01*
X1641093Y1683282D01*
X1644824Y1676820D01*
X1650100Y1671544D01*
X1656562Y1667813D01*
X1663769Y1665882D01*
X1663769Y1665882D01*
X1671231Y1665882D01*
X1671231Y1665882D01*
X1678438Y1667813D01*
X1684900Y1671544D01*
X1687092Y1673736D01*
X1693224Y1677084D01*
X1700193Y1676586D01*
X1704628Y1673736D01*
X1706820Y1671544D01*
X1713282Y1667813D01*
X1720489Y1665882D01*
X1720489Y1665882D01*
X1727951Y1665882D01*
X1727951Y1665882D01*
X1735158Y1667813D01*
X1741620Y1671544D01*
X1746896Y1676820D01*
X1750627Y1683282D01*
X1750747Y1683731D01*
X1779162Y1683731D01*
X1779162Y1676269D01*
X1781093Y1669062D01*
X1784824Y1662600D01*
X1790100Y1657324D01*
X1796562Y1653593D01*
X1803769Y1651662D01*
X1803769Y1651662D01*
X1811231Y1651662D01*
X1811231Y1651662D01*
X1818438Y1653593D01*
X1824900Y1657324D01*
X1830176Y1662600D01*
X1833907Y1669062D01*
X1835838Y1676269D01*
X1835838Y1683731D01*
X1833907Y1690938D01*
X1830176Y1697400D01*
X1824900Y1702676D01*
X1818438Y1706407D01*
X1811231Y1708338D01*
X1803769Y1708338D01*
X1799985Y1707324D01*
X1796562Y1706407D01*
X1790100Y1702676D01*
X1790100Y1702676D01*
X1784824Y1697400D01*
X1784824Y1697400D01*
X1781093Y1690938D01*
X1780973Y1690489D01*
X1779162Y1683731D01*
X1750747Y1683731D01*
X1752558Y1690489D01*
X1752558Y1697951D01*
X1750627Y1705158D01*
X1746896Y1711620D01*
X1741620Y1716896D01*
X1735158Y1720627D01*
X1727951Y1722558D01*
X1720489Y1722558D01*
X1716366Y1721453D01*
X1713282Y1720627D01*
X1706820Y1716896D01*
X1706820Y1716896D01*
X1704628Y1714704D01*
X1698496Y1711355D01*
X1691527Y1711854D01*
X1687092Y1714704D01*
X1684900Y1716896D01*
X1684900Y1716896D01*
X1678438Y1720627D01*
X1671231Y1722558D01*
X1663769Y1722558D01*
X1659646Y1721453D01*
X1656562Y1720627D01*
X1650100Y1716896D01*
X1650100Y1716896D01*
X1644824Y1711620D01*
X1644824Y1711620D01*
X1641093Y1705158D01*
X1640428Y1702676D01*
X1639162Y1697951D01*
X1498672Y1697951D01*
X1502064Y1701772D01*
X1508643Y1703662D01*
X1516731Y1703662D01*
X1516731Y1703662D01*
X1523938Y1705593D01*
X1530400Y1709324D01*
X1535676Y1714600D01*
X1539407Y1721062D01*
X1541338Y1728269D01*
X1541338Y1734893D01*
X1886770Y1734893D01*
X1886770Y1727432D01*
X1888701Y1720225D01*
X1892432Y1713763D01*
X1897708Y1708487D01*
X1904170Y1704756D01*
X1910658Y1703017D01*
X1916624Y1699381D01*
X1919677Y1693096D01*
X1918954Y1686727D01*
X1918968Y1686723D01*
X1918944Y1686633D01*
X1918905Y1686295D01*
X1918758Y1685939D01*
X1918757Y1685938D01*
X1916826Y1678731D01*
X1916826Y1671269D01*
X1918757Y1664062D01*
X1922488Y1657600D01*
X1927764Y1652324D01*
X1934226Y1648593D01*
X1941433Y1646662D01*
X1941434Y1646662D01*
X1948895Y1646662D01*
X1948895Y1646662D01*
X1956102Y1648593D01*
X1962564Y1652324D01*
X1967840Y1657600D01*
X1971571Y1664062D01*
X1973502Y1671269D01*
X1973502Y1671269D01*
X1973713Y1672054D01*
X1973899Y1672004D01*
X1976298Y1677426D01*
X1982130Y1681274D01*
X1989117Y1681357D01*
X1991966Y1680157D01*
X1992825Y1679661D01*
X2000032Y1677730D01*
X2000033Y1677730D01*
X2007494Y1677730D01*
X2007494Y1677730D01*
X2014701Y1679661D01*
X2021163Y1683392D01*
X2026439Y1688668D01*
X2030170Y1695130D01*
X2030816Y1697541D01*
X2188210Y1697541D01*
X2188210Y1662541D01*
X2188210Y1656459D01*
X2189923Y1652324D01*
X2190538Y1650839D01*
X2194839Y1646538D01*
X2194839Y1646538D01*
X2194839Y1646538D01*
X2200459Y1644210D01*
X2225631Y1644210D01*
X2232335Y1642241D01*
X2236911Y1636961D01*
X2237905Y1630045D01*
X2237609Y1628600D01*
X2237341Y1627601D01*
X2237341Y1627600D01*
X2237341Y1620139D01*
X2239272Y1612931D01*
X2243003Y1606470D01*
X2248279Y1601193D01*
X2254741Y1597463D01*
X2261948Y1595531D01*
X2261948Y1595531D01*
X2269409Y1595531D01*
X2269410Y1595531D01*
X2276617Y1597463D01*
X2283079Y1601193D01*
X2288355Y1606470D01*
X2292086Y1612931D01*
X2294017Y1620139D01*
X2294017Y1627600D01*
X2292086Y1634807D01*
X2288355Y1641269D01*
X2283079Y1646545D01*
X2279348Y1648700D01*
X2276617Y1650276D01*
X2276616Y1650276D01*
X2271981Y1651519D01*
X2266015Y1655155D01*
X2262962Y1661440D01*
X2262790Y1663496D01*
X2262790Y1697541D01*
X2262790Y1697541D01*
X2260462Y1703161D01*
X2260462Y1703161D01*
X2260462Y1703161D01*
X2256161Y1707462D01*
X2255995Y1707531D01*
X2250541Y1709790D01*
X2206541Y1709790D01*
X2200459Y1709790D01*
X2200459Y1709790D01*
X2194839Y1707462D01*
X2190538Y1703161D01*
X2188232Y1697593D01*
X2188210Y1697541D01*
X2030816Y1697541D01*
X2032101Y1702337D01*
X2032101Y1709798D01*
X2030170Y1717006D01*
X2026439Y1723467D01*
X2021163Y1728744D01*
X2014701Y1732474D01*
X2007494Y1734406D01*
X2000032Y1734406D01*
X1995228Y1733118D01*
X1992825Y1732474D01*
X1986363Y1728744D01*
X1986363Y1728743D01*
X1981087Y1723468D01*
X1981087Y1723467D01*
X1977356Y1717006D01*
X1977148Y1716228D01*
X1975549Y1710259D01*
X1975215Y1709013D01*
X1975028Y1709063D01*
X1972628Y1703639D01*
X1966795Y1699793D01*
X1959808Y1699711D01*
X1959212Y1699895D01*
X1958036Y1700290D01*
X1956102Y1701407D01*
X1949241Y1703245D01*
X1948874Y1703369D01*
X1946313Y1705158D01*
X1943648Y1706782D01*
X1943473Y1707141D01*
X1943146Y1707370D01*
X1941959Y1710259D01*
X1940595Y1713067D01*
X1940640Y1713468D01*
X1940490Y1713832D01*
X1940993Y1716573D01*
X1941318Y1719436D01*
X1941304Y1719439D01*
X1941329Y1719531D01*
X1941367Y1719868D01*
X1941514Y1720224D01*
X1941515Y1720225D01*
X1943446Y1727432D01*
X1943446Y1734893D01*
X1941515Y1742101D01*
X1937784Y1748562D01*
X1932508Y1753839D01*
X1926046Y1757569D01*
X1918839Y1759501D01*
X1911377Y1759501D01*
X1907874Y1758562D01*
X1904170Y1757569D01*
X1897708Y1753839D01*
X1897708Y1753838D01*
X1892432Y1748563D01*
X1892432Y1748562D01*
X1888701Y1742101D01*
X1888701Y1742101D01*
X1886770Y1734893D01*
X1541338Y1734893D01*
X1541338Y1735731D01*
X1539407Y1742938D01*
X1535676Y1749400D01*
X1530400Y1754676D01*
X1523938Y1758407D01*
X1516731Y1760338D01*
X1509269Y1760338D01*
X1504464Y1759051D01*
X1502062Y1758407D01*
X1495600Y1754676D01*
X1495600Y1754676D01*
X1490324Y1749400D01*
X1490324Y1749400D01*
X1486593Y1742938D01*
X1484662Y1735731D01*
X1484662Y1727456D01*
X1484510Y1727456D01*
X1483574Y1721453D01*
X1478936Y1716228D01*
X1472357Y1714338D01*
X1471731Y1714338D01*
X1464269Y1714338D01*
X1461021Y1713468D01*
X1457062Y1712407D01*
X1450600Y1708676D01*
X1450600Y1708676D01*
X1445324Y1703400D01*
X1445324Y1703400D01*
X1441593Y1696938D01*
X1441593Y1696938D01*
X1439662Y1689731D01*
X693675Y1689731D01*
X693158Y1691658D01*
X689428Y1698120D01*
X684151Y1703396D01*
X677690Y1707126D01*
X670482Y1709058D01*
X663021Y1709058D01*
X658216Y1707770D01*
X655813Y1707126D01*
X649352Y1703396D01*
X649351Y1703395D01*
X644076Y1698120D01*
X644076Y1698120D01*
X640345Y1691658D01*
X639693Y1689225D01*
X638414Y1684450D01*
X577775Y1684450D01*
X570731Y1686338D01*
X563269Y1686338D01*
X558464Y1685051D01*
X556062Y1684407D01*
X549600Y1680676D01*
X549600Y1680676D01*
X544324Y1675400D01*
X544324Y1675400D01*
X540593Y1668938D01*
X540503Y1668600D01*
X538662Y1661731D01*
X15290Y1661731D01*
X15290Y1727731D01*
X1111662Y1727731D01*
X1111662Y1720269D01*
X1113593Y1713062D01*
X1117324Y1706600D01*
X1122600Y1701324D01*
X1129062Y1697593D01*
X1136269Y1695662D01*
X1136269Y1695662D01*
X1143731Y1695662D01*
X1143731Y1695662D01*
X1150938Y1697593D01*
X1157400Y1701324D01*
X1162676Y1706600D01*
X1166407Y1713062D01*
X1168338Y1720269D01*
X1168338Y1727731D01*
X1166407Y1734938D01*
X1162676Y1741400D01*
X1157400Y1746676D01*
X1150938Y1750407D01*
X1143731Y1752338D01*
X1136269Y1752338D01*
X1131464Y1751051D01*
X1129062Y1750407D01*
X1122600Y1746676D01*
X1122600Y1746676D01*
X1117324Y1741400D01*
X1117324Y1741400D01*
X1113593Y1734938D01*
X1113270Y1733731D01*
X1111662Y1727731D01*
X15290Y1727731D01*
X15290Y1804554D01*
X1069356Y1804554D01*
X1069356Y1797093D01*
X1071288Y1789885D01*
X1075018Y1783424D01*
X1080295Y1778147D01*
X1086756Y1774417D01*
X1093964Y1772485D01*
X1093964Y1772485D01*
X1101425Y1772485D01*
X1101425Y1772485D01*
X1108632Y1774417D01*
X1110729Y1775627D01*
X1175662Y1775627D01*
X1175662Y1768165D01*
X1177593Y1760958D01*
X1181324Y1754496D01*
X1186600Y1749220D01*
X1193062Y1745489D01*
X1200269Y1743558D01*
X1200269Y1743558D01*
X1207731Y1743558D01*
X1207731Y1743558D01*
X1214938Y1745489D01*
X1221400Y1749220D01*
X1226676Y1754496D01*
X1230407Y1760958D01*
X1232338Y1768165D01*
X1232338Y1775627D01*
X1231371Y1779237D01*
X1257212Y1779237D01*
X1257212Y1771775D01*
X1259143Y1764568D01*
X1262874Y1758106D01*
X1268150Y1752830D01*
X1274612Y1749099D01*
X1281819Y1747168D01*
X1281820Y1747168D01*
X1289281Y1747168D01*
X1289281Y1747168D01*
X1296488Y1749099D01*
X1302950Y1752830D01*
X1308226Y1758106D01*
X1311957Y1764568D01*
X1313888Y1771775D01*
X1313888Y1779237D01*
X1311957Y1786444D01*
X1308226Y1792906D01*
X1302950Y1798182D01*
X1296488Y1801913D01*
X1289281Y1803844D01*
X1281819Y1803844D01*
X1277015Y1802556D01*
X1274612Y1801913D01*
X1268150Y1798182D01*
X1268150Y1798182D01*
X1262874Y1792906D01*
X1262874Y1792906D01*
X1259143Y1786444D01*
X1259143Y1786444D01*
X1257212Y1779237D01*
X1231371Y1779237D01*
X1230407Y1782834D01*
X1226676Y1789296D01*
X1221400Y1794572D01*
X1214938Y1798303D01*
X1207731Y1800234D01*
X1200269Y1800234D01*
X1195464Y1798947D01*
X1193062Y1798303D01*
X1186600Y1794572D01*
X1186600Y1794572D01*
X1181324Y1789296D01*
X1181324Y1789296D01*
X1177593Y1782834D01*
X1177530Y1782600D01*
X1175662Y1775627D01*
X1110729Y1775627D01*
X1115094Y1778147D01*
X1120370Y1783424D01*
X1124101Y1789885D01*
X1126032Y1797093D01*
X1126032Y1804554D01*
X1124101Y1811761D01*
X1120370Y1818223D01*
X1117363Y1821231D01*
X1469162Y1821231D01*
X1469162Y1813769D01*
X1471093Y1806562D01*
X1474824Y1800100D01*
X1480100Y1794824D01*
X1486562Y1791093D01*
X1493769Y1789162D01*
X1493769Y1789162D01*
X1501231Y1789162D01*
X1501231Y1789162D01*
X1508438Y1791093D01*
X1514900Y1794824D01*
X1520176Y1800100D01*
X1522272Y1803731D01*
X2092704Y1803731D01*
X2092704Y1796269D01*
X2094635Y1789062D01*
X2098366Y1782600D01*
X2103642Y1777324D01*
X2104481Y1776840D01*
X2106388Y1775739D01*
X2111209Y1770682D01*
X2112532Y1763821D01*
X2109935Y1757335D01*
X2106388Y1754261D01*
X2103642Y1752676D01*
X2103642Y1752676D01*
X2098366Y1747400D01*
X2098366Y1747400D01*
X2094635Y1740938D01*
X2094635Y1740938D01*
X2092704Y1733731D01*
X2092704Y1726269D01*
X2094635Y1719062D01*
X2098366Y1712600D01*
X2103642Y1707324D01*
X2110104Y1703593D01*
X2117311Y1701662D01*
X2117311Y1701662D01*
X2124773Y1701662D01*
X2124773Y1701662D01*
X2131980Y1703593D01*
X2138442Y1707324D01*
X2143718Y1712600D01*
X2147449Y1719062D01*
X2149380Y1726269D01*
X2149380Y1733731D01*
X2149380Y1733731D01*
X2149298Y1734356D01*
X2150374Y1741259D01*
X2155012Y1746485D01*
X2161738Y1748374D01*
X2167791Y1746714D01*
X2167857Y1746676D01*
X2174061Y1743093D01*
X2174062Y1743093D01*
X2174062Y1743093D01*
X2174062Y1743093D01*
X2181269Y1741162D01*
X2181269Y1741162D01*
X2188731Y1741162D01*
X2188731Y1741162D01*
X2195938Y1743093D01*
X2202400Y1746824D01*
X2207676Y1752100D01*
X2209261Y1754846D01*
X2214318Y1759667D01*
X2221179Y1760990D01*
X2227665Y1758393D01*
X2230739Y1754846D01*
X2232324Y1752100D01*
X2237600Y1746824D01*
X2244062Y1743093D01*
X2251269Y1741162D01*
X2251269Y1741162D01*
X2258731Y1741162D01*
X2258731Y1741162D01*
X2265938Y1743093D01*
X2272400Y1746824D01*
X2277676Y1752100D01*
X2281407Y1758562D01*
X2283338Y1765769D01*
X2283338Y1773231D01*
X2281407Y1780438D01*
X2277676Y1786900D01*
X2272400Y1792176D01*
X2265938Y1795907D01*
X2258731Y1797838D01*
X2251269Y1797838D01*
X2248488Y1797093D01*
X2244062Y1795907D01*
X2237600Y1792176D01*
X2237600Y1792176D01*
X2232324Y1786900D01*
X2232324Y1786900D01*
X2230739Y1784154D01*
X2225682Y1779333D01*
X2218821Y1778010D01*
X2212335Y1780607D01*
X2209261Y1784154D01*
X2208656Y1785203D01*
X2207676Y1786900D01*
X2202400Y1792176D01*
X2195938Y1795907D01*
X2188731Y1797838D01*
X2181269Y1797838D01*
X2178488Y1797093D01*
X2174062Y1795907D01*
X2172187Y1794824D01*
X2167980Y1792395D01*
X2161190Y1790748D01*
X2154587Y1793033D01*
X2150268Y1798525D01*
X2149380Y1803134D01*
X2149380Y1803731D01*
X2149350Y1803844D01*
X2147449Y1810938D01*
X2143718Y1817400D01*
X2138442Y1822676D01*
X2131980Y1826407D01*
X2124773Y1828338D01*
X2117311Y1828338D01*
X2113177Y1827230D01*
X2110104Y1826407D01*
X2103642Y1822676D01*
X2103642Y1822676D01*
X2098366Y1817400D01*
X2098366Y1817400D01*
X2094635Y1810938D01*
X2094635Y1810938D01*
X2092704Y1803731D01*
X1522272Y1803731D01*
X1523907Y1806562D01*
X1525838Y1813769D01*
X1525838Y1821231D01*
X1523907Y1828438D01*
X1520176Y1834900D01*
X1514900Y1840176D01*
X1508438Y1843907D01*
X1501231Y1845838D01*
X1493769Y1845838D01*
X1488964Y1844551D01*
X1486562Y1843907D01*
X1480100Y1840176D01*
X1480100Y1840176D01*
X1474824Y1834900D01*
X1474824Y1834900D01*
X1471093Y1828438D01*
X1471093Y1828438D01*
X1469162Y1821231D01*
X1117363Y1821231D01*
X1115094Y1823499D01*
X1108632Y1827230D01*
X1101425Y1829161D01*
X1093964Y1829161D01*
X1089159Y1827874D01*
X1086756Y1827230D01*
X1080295Y1823499D01*
X1080294Y1823499D01*
X1075019Y1818224D01*
X1075018Y1818223D01*
X1071288Y1811762D01*
X1071067Y1810938D01*
X1069356Y1804554D01*
X15290Y1804554D01*
X15290Y1906123D01*
X17259Y1912827D01*
X22539Y1917403D01*
X29455Y1918397D01*
X30899Y1918101D01*
X36269Y1916662D01*
X36269Y1916662D01*
X43731Y1916662D01*
X43731Y1916662D01*
X50938Y1918593D01*
X52233Y1919341D01*
X1233370Y1919341D01*
X1233370Y1911879D01*
X1235301Y1904672D01*
X1239032Y1898210D01*
X1244308Y1892934D01*
X1250770Y1889203D01*
X1257977Y1887272D01*
X1257977Y1887272D01*
X1265438Y1887272D01*
X1265439Y1887272D01*
X1272646Y1889203D01*
X1279108Y1892934D01*
X1284384Y1898210D01*
X1288115Y1904672D01*
X1289202Y1908731D01*
X1911662Y1908731D01*
X1911662Y1901269D01*
X1913593Y1894062D01*
X1917324Y1887600D01*
X1922600Y1882324D01*
X1929062Y1878593D01*
X1936269Y1876662D01*
X1936269Y1876662D01*
X1943731Y1876662D01*
X1943731Y1876662D01*
X1950938Y1878593D01*
X1957400Y1882324D01*
X1962676Y1887600D01*
X1966407Y1894062D01*
X1968338Y1901269D01*
X1968338Y1904262D01*
X1970306Y1910966D01*
X1975587Y1915541D01*
X1980738Y1916662D01*
X1988731Y1916662D01*
X1988731Y1916662D01*
X1995938Y1918593D01*
X2002400Y1922324D01*
X2007676Y1927600D01*
X2011216Y1933731D01*
X2237162Y1933731D01*
X2237162Y1926269D01*
X2239093Y1919062D01*
X2242824Y1912600D01*
X2248100Y1907324D01*
X2254562Y1903593D01*
X2261769Y1901662D01*
X2261769Y1901662D01*
X2269231Y1901662D01*
X2269231Y1901662D01*
X2276438Y1903593D01*
X2282900Y1907324D01*
X2288176Y1912600D01*
X2291907Y1919062D01*
X2293838Y1926269D01*
X2293838Y1933731D01*
X2291907Y1940938D01*
X2288176Y1947400D01*
X2282900Y1952676D01*
X2276438Y1956407D01*
X2269231Y1958338D01*
X2261769Y1958338D01*
X2256964Y1957051D01*
X2254562Y1956407D01*
X2248100Y1952676D01*
X2248100Y1952676D01*
X2242824Y1947400D01*
X2242824Y1947400D01*
X2239093Y1940938D01*
X2239093Y1940938D01*
X2237162Y1933731D01*
X2011216Y1933731D01*
X2011407Y1934062D01*
X2013338Y1941269D01*
X2013338Y1948731D01*
X2011407Y1955938D01*
X2007676Y1962400D01*
X2002400Y1967676D01*
X1995938Y1971407D01*
X1988731Y1973338D01*
X1981269Y1973338D01*
X1977118Y1972226D01*
X1974062Y1971407D01*
X1967600Y1967676D01*
X1967600Y1967676D01*
X1962324Y1962400D01*
X1962324Y1962400D01*
X1958593Y1955938D01*
X1956662Y1948731D01*
X1956662Y1945738D01*
X1954693Y1939034D01*
X1949413Y1934459D01*
X1944262Y1933338D01*
X1943731Y1933338D01*
X1936269Y1933338D01*
X1931464Y1932051D01*
X1929062Y1931407D01*
X1922600Y1927676D01*
X1922600Y1927676D01*
X1917324Y1922400D01*
X1917324Y1922400D01*
X1913593Y1915938D01*
X1913593Y1915938D01*
X1911662Y1908731D01*
X1289202Y1908731D01*
X1290046Y1911879D01*
X1290046Y1919341D01*
X1288115Y1926548D01*
X1284384Y1933010D01*
X1279108Y1938286D01*
X1272646Y1942017D01*
X1265439Y1943948D01*
X1257977Y1943948D01*
X1253172Y1942661D01*
X1250770Y1942017D01*
X1244308Y1938286D01*
X1244308Y1938286D01*
X1239032Y1933010D01*
X1239032Y1933010D01*
X1235301Y1926548D01*
X1234335Y1922944D01*
X1233370Y1919341D01*
X52233Y1919341D01*
X57400Y1922324D01*
X62676Y1927600D01*
X66407Y1934062D01*
X68338Y1941269D01*
X68338Y1948731D01*
X66407Y1955938D01*
X62676Y1962400D01*
X57400Y1967676D01*
X53739Y1969790D01*
X51416Y1972226D01*
X49043Y1974610D01*
X49013Y1974746D01*
X48917Y1974846D01*
X48281Y1978149D01*
X48156Y1978731D01*
X641662Y1978731D01*
X641662Y1971269D01*
X643593Y1964062D01*
X647324Y1957600D01*
X652600Y1952324D01*
X659062Y1948593D01*
X666269Y1946662D01*
X666269Y1946662D01*
X673731Y1946662D01*
X673731Y1946662D01*
X680938Y1948593D01*
X687400Y1952324D01*
X692676Y1957600D01*
X696407Y1964062D01*
X698338Y1971269D01*
X698338Y1978731D01*
X696407Y1985938D01*
X692676Y1992400D01*
X687400Y1997676D01*
X682109Y2000731D01*
X1197030Y2000731D01*
X1197030Y1993269D01*
X1198961Y1986062D01*
X1202692Y1979600D01*
X1207968Y1974324D01*
X1214429Y1970593D01*
X1214430Y1970593D01*
X1214430Y1970593D01*
X1221637Y1968662D01*
X1221637Y1968662D01*
X1229098Y1968662D01*
X1229098Y1968662D01*
X1229355Y1968731D01*
X1411662Y1968731D01*
X1411662Y1961269D01*
X1413593Y1954062D01*
X1417324Y1947600D01*
X1422600Y1942324D01*
X1429062Y1938593D01*
X1436269Y1936662D01*
X1436269Y1936662D01*
X1443731Y1936662D01*
X1443731Y1936662D01*
X1450938Y1938593D01*
X1457400Y1942324D01*
X1462676Y1947600D01*
X1466407Y1954062D01*
X1468338Y1961269D01*
X1468338Y1968731D01*
X1466407Y1975938D01*
X1462676Y1982400D01*
X1457400Y1987676D01*
X1450938Y1991407D01*
X1443731Y1993338D01*
X1436269Y1993338D01*
X1431464Y1992051D01*
X1429062Y1991407D01*
X1422600Y1987676D01*
X1422600Y1987676D01*
X1417324Y1982400D01*
X1417324Y1982400D01*
X1413593Y1975938D01*
X1413593Y1975938D01*
X1411662Y1968731D01*
X1229355Y1968731D01*
X1236306Y1970593D01*
X1242768Y1974324D01*
X1248044Y1979600D01*
X1251774Y1986062D01*
X1253706Y1993269D01*
X1253706Y2000731D01*
X1251774Y2007938D01*
X1248044Y2014400D01*
X1242768Y2019676D01*
X1236306Y2023407D01*
X1229098Y2025338D01*
X1221637Y2025338D01*
X1216832Y2024051D01*
X1214430Y2023407D01*
X1207968Y2019676D01*
X1207967Y2019676D01*
X1202692Y2014400D01*
X1202692Y2014400D01*
X1198961Y2007938D01*
X1198961Y2007938D01*
X1197030Y2000731D01*
X682109Y2000731D01*
X680938Y2001407D01*
X673731Y2003338D01*
X666269Y2003338D01*
X662239Y2002258D01*
X659062Y2001407D01*
X652600Y1997676D01*
X652600Y1997676D01*
X647324Y1992400D01*
X647324Y1992400D01*
X643593Y1985938D01*
X643593Y1985938D01*
X641662Y1978731D01*
X48156Y1978731D01*
X47573Y1981440D01*
X47622Y1981571D01*
X47595Y1981707D01*
X48846Y1984831D01*
X50029Y1987981D01*
X50150Y1988089D01*
X50192Y1988193D01*
X52530Y1990471D01*
X53323Y1991062D01*
X53438Y1991093D01*
X59900Y1994824D01*
X64369Y1999293D01*
X65091Y1999831D01*
X67557Y2000745D01*
X69864Y2002004D01*
X70781Y2001939D01*
X71643Y2002258D01*
X74210Y2001694D01*
X76833Y2001506D01*
X77754Y2000915D01*
X78467Y2000758D01*
X79300Y1999921D01*
X81268Y1998656D01*
X85100Y1994824D01*
X91562Y1991093D01*
X98769Y1989162D01*
X98769Y1989162D01*
X106231Y1989162D01*
X106231Y1989162D01*
X113438Y1991093D01*
X119900Y1994824D01*
X125176Y2000100D01*
X128907Y2006562D01*
X130838Y2013769D01*
X130838Y2021231D01*
X128907Y2028438D01*
X125176Y2034900D01*
X119900Y2040176D01*
X113614Y2043805D01*
X113614Y2043805D01*
X113438Y2043907D01*
X113438Y2043907D01*
X109834Y2044872D01*
X106231Y2045838D01*
X98769Y2045838D01*
X93964Y2044551D01*
X91562Y2043907D01*
X85100Y2040176D01*
X85100Y2040176D01*
X81268Y2036344D01*
X75136Y2032995D01*
X68167Y2033494D01*
X63732Y2036344D01*
X59900Y2040176D01*
X59900Y2040176D01*
X53438Y2043907D01*
X46231Y2045838D01*
X38769Y2045838D01*
X38769Y2045838D01*
X30899Y2043729D01*
X23914Y2043896D01*
X18128Y2047812D01*
X15593Y2053731D01*
X289162Y2053731D01*
X289162Y2046269D01*
X291093Y2039062D01*
X294824Y2032600D01*
X300100Y2027324D01*
X306562Y2023593D01*
X313769Y2021662D01*
X313769Y2021662D01*
X321231Y2021662D01*
X321231Y2021662D01*
X328438Y2023593D01*
X334900Y2027324D01*
X340176Y2032600D01*
X343907Y2039062D01*
X345838Y2046269D01*
X345838Y2053731D01*
X343907Y2060938D01*
X340176Y2067400D01*
X334900Y2072676D01*
X328438Y2076407D01*
X321231Y2078338D01*
X313769Y2078338D01*
X309048Y2077073D01*
X306562Y2076407D01*
X300100Y2072676D01*
X300100Y2072676D01*
X294824Y2067400D01*
X294824Y2067400D01*
X291093Y2060938D01*
X291093Y2060938D01*
X289162Y2053731D01*
X15593Y2053731D01*
X15378Y2054235D01*
X15290Y2055707D01*
X15290Y2078731D01*
X461662Y2078731D01*
X461662Y2071269D01*
X463593Y2064062D01*
X467324Y2057600D01*
X472600Y2052324D01*
X479062Y2048593D01*
X486269Y2046662D01*
X486269Y2046662D01*
X493731Y2046662D01*
X493731Y2046662D01*
X500938Y2048593D01*
X507400Y2052324D01*
X512676Y2057600D01*
X516407Y2064062D01*
X518338Y2071269D01*
X518338Y2073923D01*
X766662Y2073923D01*
X766662Y2066461D01*
X768593Y2059254D01*
X772324Y2052792D01*
X777600Y2047516D01*
X784062Y2043785D01*
X791269Y2041854D01*
X791269Y2041854D01*
X798731Y2041854D01*
X798731Y2041854D01*
X805938Y2043785D01*
X812400Y2047516D01*
X817676Y2052792D01*
X821407Y2059254D01*
X823338Y2066461D01*
X823338Y2073923D01*
X821407Y2081130D01*
X817676Y2087592D01*
X812400Y2092868D01*
X805938Y2096599D01*
X798731Y2098530D01*
X791269Y2098530D01*
X786768Y2097324D01*
X784062Y2096599D01*
X777600Y2092868D01*
X777600Y2092868D01*
X772324Y2087592D01*
X772324Y2087592D01*
X768593Y2081130D01*
X768593Y2081130D01*
X766662Y2073923D01*
X518338Y2073923D01*
X518338Y2078731D01*
X516407Y2085938D01*
X512676Y2092400D01*
X507400Y2097676D01*
X500938Y2101407D01*
X493731Y2103338D01*
X486269Y2103338D01*
X481742Y2102125D01*
X479062Y2101407D01*
X472600Y2097676D01*
X472600Y2097676D01*
X467324Y2092400D01*
X467324Y2092400D01*
X463593Y2085938D01*
X463268Y2084725D01*
X461662Y2078731D01*
X15290Y2078731D01*
X15290Y2143731D01*
X64162Y2143731D01*
X64162Y2136269D01*
X66093Y2129062D01*
X69824Y2122600D01*
X75100Y2117324D01*
X81562Y2113593D01*
X88769Y2111662D01*
X88769Y2111662D01*
X96230Y2111662D01*
X96231Y2111662D01*
X103438Y2113593D01*
X109900Y2117324D01*
X115176Y2122600D01*
X115829Y2123731D01*
X556502Y2123731D01*
X556502Y2116269D01*
X558433Y2109062D01*
X562164Y2102600D01*
X567440Y2097324D01*
X573902Y2093593D01*
X581109Y2091662D01*
X581109Y2091662D01*
X588570Y2091662D01*
X588571Y2091662D01*
X595778Y2093593D01*
X602240Y2097324D01*
X603647Y2098731D01*
X1011662Y2098731D01*
X1011662Y2091269D01*
X1013593Y2084062D01*
X1017324Y2077600D01*
X1022600Y2072324D01*
X1029062Y2068593D01*
X1036269Y2066662D01*
X1036269Y2066662D01*
X1043731Y2066662D01*
X1043731Y2066662D01*
X1050938Y2068593D01*
X1057400Y2072324D01*
X1062594Y2077518D01*
X1412949Y2077518D01*
X1412949Y2070056D01*
X1414880Y2062849D01*
X1418611Y2056387D01*
X1423887Y2051111D01*
X1430349Y2047380D01*
X1437556Y2045449D01*
X1437556Y2045449D01*
X1445017Y2045449D01*
X1445018Y2045449D01*
X1452225Y2047380D01*
X1458687Y2051111D01*
X1463963Y2056387D01*
X1466610Y2060972D01*
X1938087Y2060972D01*
X1938087Y2053510D01*
X1940018Y2046303D01*
X1943749Y2039841D01*
X1949025Y2034565D01*
X1955487Y2030834D01*
X1962694Y2028903D01*
X1962694Y2028903D01*
X1970155Y2028903D01*
X1970155Y2028903D01*
X1977363Y2030834D01*
X1983825Y2034565D01*
X1989101Y2039841D01*
X1992831Y2046303D01*
X1994763Y2053510D01*
X1994763Y2060972D01*
X1992831Y2068179D01*
X1992831Y2068179D01*
X1992831Y2068179D01*
X1992831Y2068180D01*
X1991293Y2070843D01*
X1991293Y2070843D01*
X1989101Y2074641D01*
X1987511Y2076231D01*
X2138662Y2076231D01*
X2138662Y2068769D01*
X2140593Y2061562D01*
X2144324Y2055100D01*
X2149600Y2049824D01*
X2156062Y2046093D01*
X2163269Y2044162D01*
X2163269Y2044162D01*
X2170731Y2044162D01*
X2170731Y2044162D01*
X2177938Y2046093D01*
X2184400Y2049824D01*
X2189676Y2055100D01*
X2193407Y2061562D01*
X2195338Y2068769D01*
X2195338Y2076231D01*
X2193407Y2083438D01*
X2189676Y2089900D01*
X2184400Y2095176D01*
X2177938Y2098907D01*
X2170731Y2100838D01*
X2163269Y2100838D01*
X2158464Y2099551D01*
X2156062Y2098907D01*
X2149600Y2095176D01*
X2149600Y2095176D01*
X2144324Y2089900D01*
X2144324Y2089900D01*
X2140593Y2083438D01*
X2140593Y2083438D01*
X2138662Y2076231D01*
X1987511Y2076231D01*
X1983825Y2079917D01*
X1977363Y2083648D01*
X1970155Y2085579D01*
X1962694Y2085579D01*
X1957889Y2084292D01*
X1955487Y2083648D01*
X1949025Y2079917D01*
X1949024Y2079917D01*
X1943749Y2074641D01*
X1943749Y2074641D01*
X1940018Y2068179D01*
X1940018Y2068179D01*
X1938087Y2060972D01*
X1466610Y2060972D01*
X1467694Y2062849D01*
X1469625Y2070056D01*
X1469625Y2076277D01*
X1469728Y2077073D01*
X1470826Y2079566D01*
X1471593Y2082179D01*
X1472213Y2082716D01*
X1472544Y2083467D01*
X1474815Y2084971D01*
X1476874Y2086755D01*
X1477821Y2086961D01*
X1478370Y2087324D01*
X1479567Y2087341D01*
X1482025Y2087875D01*
X1487444Y2087875D01*
X1487444Y2087875D01*
X1494651Y2089806D01*
X1501113Y2093537D01*
X1506389Y2098813D01*
X1510120Y2105275D01*
X1512051Y2112482D01*
X1512051Y2119944D01*
X1510120Y2127151D01*
X1510120Y2127151D01*
X1510120Y2127152D01*
X1510120Y2127152D01*
X1506688Y2133096D01*
X1505040Y2139886D01*
X1507325Y2146489D01*
X1512817Y2150808D01*
X1516849Y2151683D01*
X1518774Y2151773D01*
X1523300Y2150560D01*
X1530762Y2150560D01*
X1537969Y2152491D01*
X1538299Y2152682D01*
X1540099Y2152765D01*
X1542244Y2152243D01*
X1544451Y2152190D01*
X1545572Y2151432D01*
X1546887Y2151111D01*
X1548409Y2149511D01*
X1550237Y2148274D01*
X1551007Y2146780D01*
X1551703Y2146049D01*
X1551892Y2145065D01*
X1552653Y2143589D01*
X1552985Y2142350D01*
X1552985Y2142350D01*
X1556716Y2135888D01*
X1561992Y2130612D01*
X1568454Y2126881D01*
X1575661Y2124950D01*
X1575661Y2124950D01*
X1583122Y2124950D01*
X1583122Y2124950D01*
X1590330Y2126881D01*
X1596792Y2130612D01*
X1602068Y2135888D01*
X1605798Y2142350D01*
X1607730Y2149557D01*
X1607730Y2157019D01*
X1605798Y2164226D01*
X1602068Y2170688D01*
X1596792Y2175964D01*
X1590330Y2179695D01*
X1588402Y2180211D01*
X1797986Y2180211D01*
X1797986Y2172750D01*
X1799917Y2165543D01*
X1803648Y2159081D01*
X1808924Y2153805D01*
X1815386Y2150074D01*
X1822593Y2148143D01*
X1822594Y2148143D01*
X1830055Y2148143D01*
X1830055Y2148143D01*
X1837262Y2150074D01*
X1842312Y2152989D01*
X1877168Y2152989D01*
X1877168Y2145527D01*
X1879099Y2138320D01*
X1882830Y2131858D01*
X1888106Y2126582D01*
X1894568Y2122851D01*
X1901775Y2120920D01*
X1901775Y2120920D01*
X1909237Y2120920D01*
X1909237Y2120920D01*
X1916444Y2122851D01*
X1922906Y2126582D01*
X1928182Y2131858D01*
X1928182Y2131858D01*
X1928757Y2132433D01*
X1928991Y2132199D01*
X1933387Y2135411D01*
X1940362Y2135828D01*
X1945669Y2132890D01*
X1945736Y2132978D01*
X1946323Y2132528D01*
X1946353Y2132511D01*
X1946381Y2132483D01*
X1952843Y2128752D01*
X1960050Y2126821D01*
X1960050Y2126821D01*
X1967511Y2126821D01*
X1967512Y2126821D01*
X1974719Y2128752D01*
X1981181Y2132483D01*
X1986457Y2137759D01*
X1990188Y2144221D01*
X1992119Y2151428D01*
X1992119Y2158890D01*
X1990188Y2166097D01*
X1986457Y2172559D01*
X1981181Y2177835D01*
X1974719Y2181566D01*
X1967512Y2183497D01*
X1960050Y2183497D01*
X1960050Y2183497D01*
X1956987Y2182677D01*
X1950002Y2182843D01*
X1944216Y2186759D01*
X1941466Y2193182D01*
X1941801Y2197864D01*
X1942621Y2200926D01*
X1942621Y2200926D01*
X1942621Y2208387D01*
X1942604Y2208451D01*
X1940690Y2215595D01*
X1936959Y2222057D01*
X1931683Y2227333D01*
X1925221Y2231064D01*
X1918014Y2232995D01*
X1910552Y2232995D01*
X1905748Y2231707D01*
X1903345Y2231064D01*
X1896883Y2227333D01*
X1896883Y2227333D01*
X1891607Y2222057D01*
X1891607Y2222057D01*
X1887876Y2215595D01*
X1887419Y2213887D01*
X1885945Y2208388D01*
X1885945Y2200926D01*
X1885945Y2200926D01*
X1887876Y2193719D01*
X1887876Y2193718D01*
X1891226Y2187918D01*
X1892873Y2181128D01*
X1890588Y2174525D01*
X1888661Y2172529D01*
X1888681Y2172509D01*
X1882830Y2166658D01*
X1882830Y2166658D01*
X1879099Y2160196D01*
X1878800Y2159081D01*
X1877168Y2152989D01*
X1842312Y2152989D01*
X1843724Y2153805D01*
X1849000Y2159081D01*
X1852731Y2165543D01*
X1854662Y2172750D01*
X1854662Y2180211D01*
X1852731Y2187419D01*
X1849000Y2193880D01*
X1843724Y2199157D01*
X1837262Y2202887D01*
X1830055Y2204819D01*
X1822593Y2204819D01*
X1817789Y2203531D01*
X1815386Y2202887D01*
X1808924Y2199157D01*
X1808924Y2199156D01*
X1803648Y2193881D01*
X1803648Y2193880D01*
X1799917Y2187419D01*
X1799741Y2186759D01*
X1797986Y2180211D01*
X1588402Y2180211D01*
X1583122Y2181626D01*
X1575661Y2181626D01*
X1575661Y2181626D01*
X1568956Y2179830D01*
X1561971Y2179996D01*
X1556185Y2183912D01*
X1553769Y2188598D01*
X1553438Y2189836D01*
X1549707Y2196298D01*
X1544431Y2201574D01*
X1537969Y2205305D01*
X1530762Y2207236D01*
X1523300Y2207236D01*
X1518495Y2205948D01*
X1516093Y2205305D01*
X1509631Y2201574D01*
X1509631Y2201574D01*
X1504355Y2196298D01*
X1504355Y2196298D01*
X1500624Y2189836D01*
X1500624Y2189836D01*
X1498693Y2182629D01*
X1498693Y2175167D01*
X1500624Y2167960D01*
X1503653Y2162713D01*
X1504056Y2162015D01*
X1505704Y2155225D01*
X1503418Y2148622D01*
X1497926Y2144303D01*
X1490971Y2143639D01*
X1490108Y2143837D01*
X1487444Y2144551D01*
X1479982Y2144551D01*
X1479982Y2144551D01*
X1474974Y2143209D01*
X1474973Y2143209D01*
X1472775Y2142620D01*
X1466313Y2138889D01*
X1461037Y2133613D01*
X1460641Y2132927D01*
X1460641Y2132927D01*
X1457306Y2127151D01*
X1455375Y2119944D01*
X1455375Y2114525D01*
X1453407Y2107821D01*
X1448126Y2103245D01*
X1442975Y2102125D01*
X1437556Y2102125D01*
X1432754Y2100838D01*
X1430349Y2100194D01*
X1423887Y2096463D01*
X1423887Y2096463D01*
X1418611Y2091187D01*
X1418611Y2091187D01*
X1414880Y2084725D01*
X1414880Y2084725D01*
X1412949Y2077518D01*
X1062594Y2077518D01*
X1062676Y2077600D01*
X1066407Y2084062D01*
X1068338Y2091269D01*
X1068338Y2098731D01*
X1066407Y2105938D01*
X1062676Y2112400D01*
X1057400Y2117676D01*
X1050938Y2121407D01*
X1043731Y2123338D01*
X1036269Y2123338D01*
X1031464Y2122051D01*
X1029062Y2121407D01*
X1022600Y2117676D01*
X1022600Y2117676D01*
X1017324Y2112400D01*
X1017324Y2112400D01*
X1013593Y2105938D01*
X1013593Y2105938D01*
X1011662Y2098731D01*
X603647Y2098731D01*
X607516Y2102600D01*
X611247Y2109062D01*
X613178Y2116269D01*
X613178Y2123731D01*
X611247Y2130938D01*
X607516Y2137400D01*
X602240Y2142676D01*
X595778Y2146407D01*
X588571Y2148338D01*
X581109Y2148338D01*
X576304Y2147051D01*
X573902Y2146407D01*
X567440Y2142676D01*
X567440Y2142676D01*
X562164Y2137400D01*
X562164Y2137400D01*
X558433Y2130938D01*
X557847Y2128752D01*
X556502Y2123731D01*
X115829Y2123731D01*
X118907Y2129062D01*
X120838Y2136269D01*
X120838Y2143731D01*
X118907Y2150938D01*
X115176Y2157400D01*
X109900Y2162676D01*
X103438Y2166407D01*
X96231Y2168338D01*
X88769Y2168338D01*
X83964Y2167051D01*
X81562Y2166407D01*
X75100Y2162676D01*
X75100Y2162676D01*
X69824Y2157400D01*
X69824Y2157400D01*
X66093Y2150938D01*
X65723Y2149557D01*
X64162Y2143731D01*
X15290Y2143731D01*
X15290Y2183844D01*
X1409162Y2183844D01*
X1409162Y2176382D01*
X1411093Y2169175D01*
X1414824Y2162713D01*
X1420100Y2157437D01*
X1426562Y2153706D01*
X1433769Y2151775D01*
X1433769Y2151775D01*
X1441231Y2151775D01*
X1441231Y2151775D01*
X1448438Y2153706D01*
X1454900Y2157437D01*
X1460176Y2162713D01*
X1463907Y2169175D01*
X1465838Y2176382D01*
X1465838Y2183844D01*
X1463907Y2191051D01*
X1460176Y2197513D01*
X1454900Y2202789D01*
X1448438Y2206520D01*
X1441231Y2208451D01*
X1433769Y2208451D01*
X1429234Y2207236D01*
X1426562Y2206520D01*
X1420100Y2202789D01*
X1420100Y2202789D01*
X1414824Y2197513D01*
X1414824Y2197513D01*
X1411093Y2191051D01*
X1410254Y2187918D01*
X1409162Y2183844D01*
X15290Y2183844D01*
X15290Y2240731D01*
X51662Y2240731D01*
X51662Y2233269D01*
X53593Y2226062D01*
X57324Y2219600D01*
X62600Y2214324D01*
X69062Y2210593D01*
X76269Y2208662D01*
X76269Y2208662D01*
X83730Y2208662D01*
X83731Y2208662D01*
X90938Y2210593D01*
X97400Y2214324D01*
X102676Y2219600D01*
X106407Y2226062D01*
X108338Y2233269D01*
X108338Y2235018D01*
X552949Y2235018D01*
X552949Y2227556D01*
X554880Y2220349D01*
X558611Y2213887D01*
X563887Y2208611D01*
X570349Y2204880D01*
X577556Y2202949D01*
X577556Y2202949D01*
X585017Y2202949D01*
X585018Y2202949D01*
X592225Y2204880D01*
X598687Y2208611D01*
X603963Y2213887D01*
X607694Y2220349D01*
X609625Y2227556D01*
X609625Y2232975D01*
X611593Y2239679D01*
X616874Y2244255D01*
X622025Y2245375D01*
X627444Y2245375D01*
X627444Y2245375D01*
X634651Y2247306D01*
X641113Y2251037D01*
X642594Y2252518D01*
X672949Y2252518D01*
X672949Y2252518D01*
X672949Y2245056D01*
X674880Y2237849D01*
X678611Y2231387D01*
X683887Y2226111D01*
X690349Y2222380D01*
X697556Y2220449D01*
X697556Y2220449D01*
X705017Y2220449D01*
X705018Y2220449D01*
X712225Y2222380D01*
X718687Y2226111D01*
X723963Y2231387D01*
X727694Y2237849D01*
X729625Y2245056D01*
X729625Y2250475D01*
X730240Y2252571D01*
X2111662Y2252571D01*
X2111662Y2245109D01*
X2113593Y2237902D01*
X2117324Y2231440D01*
X2122600Y2226164D01*
X2129062Y2222433D01*
X2136269Y2220502D01*
X2136269Y2220502D01*
X2143731Y2220502D01*
X2143731Y2220502D01*
X2150938Y2222433D01*
X2157400Y2226164D01*
X2162676Y2231440D01*
X2166407Y2237902D01*
X2168338Y2245109D01*
X2168338Y2252571D01*
X2166407Y2259778D01*
X2162676Y2266240D01*
X2157400Y2271516D01*
X2150938Y2275247D01*
X2143731Y2277178D01*
X2136269Y2277178D01*
X2132541Y2276179D01*
X2129062Y2275247D01*
X2122600Y2271516D01*
X2122600Y2271516D01*
X2117324Y2266240D01*
X2117324Y2266240D01*
X2113593Y2259778D01*
X2113566Y2259676D01*
X2111662Y2252571D01*
X730240Y2252571D01*
X731593Y2257179D01*
X736874Y2261755D01*
X742025Y2262875D01*
X747444Y2262875D01*
X747444Y2262875D01*
X754651Y2264806D01*
X761113Y2268537D01*
X766389Y2273813D01*
X770120Y2280275D01*
X772051Y2287482D01*
X772051Y2294944D01*
X770120Y2302151D01*
X766389Y2308613D01*
X761113Y2313889D01*
X754651Y2317620D01*
X747444Y2319551D01*
X739982Y2319551D01*
X735828Y2318438D01*
X732775Y2317620D01*
X726313Y2313889D01*
X726313Y2313889D01*
X721037Y2308613D01*
X721037Y2308613D01*
X717306Y2302151D01*
X717306Y2302151D01*
X715762Y2296389D01*
X715375Y2294944D01*
X715375Y2289525D01*
X713407Y2282821D01*
X708126Y2278245D01*
X702975Y2277125D01*
X697556Y2277125D01*
X694025Y2276179D01*
X690349Y2275194D01*
X683887Y2271463D01*
X683887Y2271463D01*
X678611Y2266187D01*
X678611Y2266187D01*
X675030Y2259984D01*
X675030Y2259984D01*
X674880Y2259725D01*
X673567Y2254826D01*
X673564Y2254816D01*
X672949Y2252518D01*
X642594Y2252518D01*
X646389Y2256313D01*
X650120Y2262775D01*
X652051Y2269982D01*
X652051Y2277444D01*
X650120Y2284651D01*
X646389Y2291113D01*
X641113Y2296389D01*
X634651Y2300120D01*
X627444Y2302051D01*
X619982Y2302051D01*
X616407Y2301093D01*
X612775Y2300120D01*
X606313Y2296389D01*
X606313Y2296389D01*
X601037Y2291113D01*
X601037Y2291113D01*
X597306Y2284651D01*
X597306Y2284651D01*
X595590Y2278245D01*
X595375Y2277444D01*
X595375Y2272025D01*
X593407Y2265321D01*
X588126Y2260745D01*
X582975Y2259625D01*
X577556Y2259625D01*
X572751Y2258337D01*
X570349Y2257694D01*
X563887Y2253963D01*
X563887Y2253963D01*
X558611Y2248687D01*
X558611Y2248687D01*
X554880Y2242225D01*
X554880Y2242225D01*
X552949Y2235018D01*
X108338Y2235018D01*
X108338Y2240731D01*
X106407Y2247938D01*
X102676Y2254400D01*
X97400Y2259676D01*
X90938Y2263407D01*
X83731Y2265338D01*
X76269Y2265338D01*
X71464Y2264051D01*
X69062Y2263407D01*
X62600Y2259676D01*
X62600Y2259676D01*
X57324Y2254400D01*
X57324Y2254400D01*
X53593Y2247938D01*
X53593Y2247938D01*
X51662Y2240731D01*
X15290Y2240731D01*
X15290Y2298527D01*
X17259Y2305231D01*
X22539Y2309806D01*
X29455Y2310801D01*
X30899Y2310504D01*
X34557Y2309524D01*
X34557Y2309524D01*
X42019Y2309524D01*
X42019Y2309524D01*
X49226Y2311455D01*
X55688Y2315186D01*
X60964Y2320462D01*
X64695Y2326924D01*
X66519Y2333731D01*
X171662Y2333731D01*
X171662Y2326269D01*
X173593Y2319062D01*
X177324Y2312600D01*
X182600Y2307324D01*
X189062Y2303593D01*
X196269Y2301662D01*
X196269Y2301662D01*
X203731Y2301662D01*
X203731Y2301662D01*
X210938Y2303593D01*
X217400Y2307324D01*
X222676Y2312600D01*
X226407Y2319062D01*
X228338Y2326269D01*
X228338Y2333731D01*
X226407Y2340938D01*
X226238Y2341231D01*
X371662Y2341231D01*
X371662Y2333769D01*
X373593Y2326562D01*
X377324Y2320100D01*
X382600Y2314824D01*
X389062Y2311093D01*
X396269Y2309162D01*
X396269Y2309162D01*
X403731Y2309162D01*
X403731Y2309162D01*
X410938Y2311093D01*
X417400Y2314824D01*
X422676Y2320100D01*
X426407Y2326562D01*
X427658Y2331231D01*
X801662Y2331231D01*
X801662Y2323769D01*
X803593Y2316562D01*
X807324Y2310100D01*
X812600Y2304824D01*
X819062Y2301093D01*
X826269Y2299162D01*
X826269Y2299162D01*
X833731Y2299162D01*
X833731Y2299162D01*
X840938Y2301093D01*
X847400Y2304824D01*
X852676Y2310100D01*
X856407Y2316562D01*
X858338Y2323769D01*
X858338Y2329923D01*
X1388866Y2329923D01*
X1388866Y2322461D01*
X1390797Y2315254D01*
X1394528Y2308792D01*
X1399804Y2303516D01*
X1406266Y2299785D01*
X1413473Y2297854D01*
X1413473Y2297854D01*
X1420934Y2297854D01*
X1420934Y2297854D01*
X1428142Y2299785D01*
X1434604Y2303516D01*
X1439880Y2308792D01*
X1441288Y2311231D01*
X1799162Y2311231D01*
X1799162Y2303769D01*
X1801093Y2296562D01*
X1804824Y2290100D01*
X1810100Y2284824D01*
X1816562Y2281093D01*
X1823769Y2279162D01*
X1823769Y2279162D01*
X1831231Y2279162D01*
X1831231Y2279162D01*
X1838438Y2281093D01*
X1844900Y2284824D01*
X1850176Y2290100D01*
X1853907Y2296562D01*
X1854220Y2297731D01*
X2011662Y2297731D01*
X2011662Y2290269D01*
X2013593Y2283062D01*
X2017324Y2276600D01*
X2022600Y2271324D01*
X2029062Y2267593D01*
X2036269Y2265662D01*
X2036269Y2265662D01*
X2043731Y2265662D01*
X2043731Y2265662D01*
X2050938Y2267593D01*
X2057400Y2271324D01*
X2062676Y2276600D01*
X2066407Y2283062D01*
X2068338Y2290269D01*
X2068338Y2297731D01*
X2066407Y2304938D01*
X2062676Y2311400D01*
X2060345Y2313731D01*
X2281662Y2313731D01*
X2281662Y2306269D01*
X2283593Y2299062D01*
X2287324Y2292600D01*
X2292600Y2287324D01*
X2294297Y2286344D01*
X2295346Y2285739D01*
X2300167Y2280682D01*
X2301490Y2273821D01*
X2298893Y2267335D01*
X2295346Y2264261D01*
X2292600Y2262676D01*
X2292600Y2262676D01*
X2287324Y2257400D01*
X2287324Y2257400D01*
X2283593Y2250938D01*
X2282789Y2247938D01*
X2281662Y2243731D01*
X2281662Y2236269D01*
X2283593Y2229062D01*
X2287324Y2222600D01*
X2292600Y2217324D01*
X2299062Y2213593D01*
X2306269Y2211662D01*
X2306269Y2211662D01*
X2313731Y2211662D01*
X2313731Y2211662D01*
X2320938Y2213593D01*
X2327400Y2217324D01*
X2332676Y2222600D01*
X2336407Y2229062D01*
X2338338Y2236269D01*
X2338338Y2243731D01*
X2336407Y2250938D01*
X2332676Y2257400D01*
X2327400Y2262676D01*
X2324654Y2264261D01*
X2319833Y2269318D01*
X2318510Y2276179D01*
X2321107Y2282665D01*
X2324654Y2285739D01*
X2324716Y2285774D01*
X2327400Y2287324D01*
X2332676Y2292600D01*
X2336407Y2299062D01*
X2338338Y2306269D01*
X2338338Y2313731D01*
X2336407Y2320938D01*
X2332676Y2327400D01*
X2327400Y2332676D01*
X2320938Y2336407D01*
X2313731Y2338338D01*
X2306269Y2338338D01*
X2301761Y2337130D01*
X2299062Y2336407D01*
X2292600Y2332676D01*
X2292600Y2332676D01*
X2287324Y2327400D01*
X2287324Y2327400D01*
X2283593Y2320938D01*
X2283369Y2320100D01*
X2281662Y2313731D01*
X2060345Y2313731D01*
X2057400Y2316676D01*
X2050938Y2320407D01*
X2043731Y2322338D01*
X2036269Y2322338D01*
X2031464Y2321051D01*
X2029062Y2320407D01*
X2022600Y2316676D01*
X2022600Y2316676D01*
X2017324Y2311400D01*
X2017324Y2311400D01*
X2013593Y2304938D01*
X2013212Y2303516D01*
X2011662Y2297731D01*
X1854220Y2297731D01*
X1855838Y2303769D01*
X1855838Y2311231D01*
X1853907Y2318438D01*
X1850176Y2324900D01*
X1844900Y2330176D01*
X1838438Y2333907D01*
X1831231Y2335838D01*
X1823769Y2335838D01*
X1820888Y2335066D01*
X1817334Y2334114D01*
X1817334Y2334114D01*
X1816562Y2333907D01*
X1810100Y2330176D01*
X1808225Y2328301D01*
X1808224Y2328300D01*
X1804824Y2324900D01*
X1804824Y2324900D01*
X1801093Y2318438D01*
X1801093Y2318438D01*
X1799162Y2311231D01*
X1441288Y2311231D01*
X1443610Y2315254D01*
X1445542Y2322461D01*
X1445542Y2329923D01*
X1444478Y2333894D01*
X1444644Y2340878D01*
X1448560Y2346665D01*
X1450254Y2347841D01*
X1454792Y2350461D01*
X1460068Y2355737D01*
X1461796Y2358731D01*
X1596662Y2358731D01*
X1596662Y2351269D01*
X1598593Y2344062D01*
X1602324Y2337600D01*
X1607600Y2332324D01*
X1614062Y2328593D01*
X1621269Y2326662D01*
X1621269Y2326662D01*
X1628731Y2326662D01*
X1628731Y2326662D01*
X1635938Y2328593D01*
X1642400Y2332324D01*
X1647676Y2337600D01*
X1651407Y2344062D01*
X1653338Y2351269D01*
X1653338Y2358731D01*
X1651407Y2365938D01*
X1647676Y2372400D01*
X1642400Y2377676D01*
X1638841Y2379731D01*
X1756662Y2379731D01*
X1756662Y2372269D01*
X1758593Y2365062D01*
X1762324Y2358600D01*
X1767600Y2353324D01*
X1774062Y2349593D01*
X1781269Y2347662D01*
X1781269Y2347662D01*
X1788731Y2347662D01*
X1788731Y2347662D01*
X1795938Y2349593D01*
X1802400Y2353324D01*
X1803309Y2354234D01*
X1870861Y2354234D01*
X1870861Y2346772D01*
X1872792Y2339565D01*
X1876523Y2333103D01*
X1881799Y2327827D01*
X1888261Y2324096D01*
X1895468Y2322165D01*
X1895469Y2322165D01*
X1902930Y2322165D01*
X1902930Y2322165D01*
X1910137Y2324096D01*
X1916599Y2327827D01*
X1921875Y2333103D01*
X1925606Y2339565D01*
X1927537Y2346772D01*
X1927537Y2354234D01*
X1925606Y2361441D01*
X1921875Y2367903D01*
X1916599Y2373179D01*
X1910137Y2376910D01*
X1902930Y2378841D01*
X1895468Y2378841D01*
X1890664Y2377553D01*
X1888261Y2376910D01*
X1881799Y2373179D01*
X1881799Y2373179D01*
X1876523Y2367903D01*
X1876523Y2367903D01*
X1872792Y2361441D01*
X1872453Y2360176D01*
X1870861Y2354234D01*
X1803309Y2354234D01*
X1807676Y2358600D01*
X1807782Y2358784D01*
X1809204Y2361247D01*
X1811407Y2365062D01*
X1811407Y2365062D01*
X1811549Y2365593D01*
X1813338Y2372269D01*
X1813338Y2379731D01*
X1811407Y2386938D01*
X1807676Y2393400D01*
X1802400Y2398676D01*
X1795938Y2402407D01*
X1788731Y2404338D01*
X1781269Y2404338D01*
X1776464Y2403051D01*
X1774062Y2402407D01*
X1767600Y2398676D01*
X1767600Y2398676D01*
X1762324Y2393400D01*
X1762324Y2393400D01*
X1758593Y2386938D01*
X1757911Y2384391D01*
X1756662Y2379731D01*
X1638841Y2379731D01*
X1635938Y2381407D01*
X1628731Y2383338D01*
X1621269Y2383338D01*
X1616464Y2382051D01*
X1614062Y2381407D01*
X1607600Y2377676D01*
X1607600Y2377676D01*
X1602324Y2372400D01*
X1602324Y2372400D01*
X1598593Y2365938D01*
X1598445Y2365386D01*
X1596662Y2358731D01*
X1461796Y2358731D01*
X1463798Y2362199D01*
X1465730Y2369406D01*
X1465730Y2376868D01*
X1465498Y2377732D01*
X1465722Y2379720D01*
X1466512Y2381599D01*
X1466826Y2383614D01*
X1467839Y2384755D01*
X1468430Y2386161D01*
X1470110Y2387315D01*
X1471464Y2388840D01*
X1473836Y2389873D01*
X1474190Y2390116D01*
X1474410Y2390123D01*
X1474835Y2390308D01*
X1478706Y2391345D01*
X1482588Y2393586D01*
X1489378Y2395233D01*
X1495981Y2392948D01*
X1499527Y2389048D01*
X1501493Y2385642D01*
X1501493Y2385641D01*
X1501493Y2385641D01*
X1506770Y2380365D01*
X1513231Y2376634D01*
X1520439Y2374703D01*
X1520439Y2374703D01*
X1527900Y2374703D01*
X1527900Y2374703D01*
X1535107Y2376634D01*
X1541569Y2380365D01*
X1546845Y2385641D01*
X1550576Y2392103D01*
X1552507Y2399310D01*
X1552507Y2406772D01*
X1550576Y2413979D01*
X1546845Y2420441D01*
X1541569Y2425717D01*
X1535107Y2429448D01*
X1527900Y2431379D01*
X1520439Y2431379D01*
X1516835Y2430413D01*
X1513231Y2429448D01*
X1509349Y2427207D01*
X1502559Y2425559D01*
X1495957Y2427845D01*
X1493733Y2429877D01*
X1492985Y2430750D01*
X1490444Y2435152D01*
X1485168Y2440428D01*
X1481978Y2442270D01*
X1578822Y2442270D01*
X1579316Y2440427D01*
X1580753Y2435062D01*
X1584484Y2428600D01*
X1589760Y2423324D01*
X1596222Y2419593D01*
X1603429Y2417662D01*
X1603430Y2417662D01*
X1610891Y2417662D01*
X1610891Y2417662D01*
X1618098Y2419593D01*
X1624560Y2423324D01*
X1629836Y2428600D01*
X1629912Y2428731D01*
X1674162Y2428731D01*
X1674162Y2421269D01*
X1676093Y2414062D01*
X1679824Y2407600D01*
X1685100Y2402324D01*
X1691562Y2398593D01*
X1698769Y2396662D01*
X1698769Y2396662D01*
X1706231Y2396662D01*
X1706231Y2396662D01*
X1713438Y2398593D01*
X1719900Y2402324D01*
X1725176Y2407600D01*
X1728907Y2414062D01*
X1730838Y2421269D01*
X1730838Y2428731D01*
X1728907Y2435938D01*
X1725176Y2442400D01*
X1719900Y2447676D01*
X1713438Y2451407D01*
X1706231Y2453338D01*
X1698769Y2453338D01*
X1693964Y2452051D01*
X1691562Y2451407D01*
X1685100Y2447676D01*
X1685100Y2447676D01*
X1679824Y2442400D01*
X1679824Y2442400D01*
X1676093Y2435938D01*
X1675308Y2433007D01*
X1674162Y2428731D01*
X1629912Y2428731D01*
X1633567Y2435062D01*
X1635498Y2442269D01*
X1635498Y2449731D01*
X1633567Y2456938D01*
X1629836Y2463400D01*
X1624560Y2468676D01*
X1618098Y2472407D01*
X1610891Y2474338D01*
X1603429Y2474338D01*
X1599231Y2473213D01*
X1596222Y2472407D01*
X1589760Y2468676D01*
X1589760Y2468676D01*
X1584484Y2463400D01*
X1584484Y2463400D01*
X1580753Y2456938D01*
X1579789Y2453338D01*
X1578864Y2449887D01*
X1578822Y2449731D01*
X1578822Y2442270D01*
X1578822Y2442270D01*
X1481978Y2442270D01*
X1478706Y2444158D01*
X1471499Y2446090D01*
X1464037Y2446090D01*
X1459594Y2444899D01*
X1456830Y2444158D01*
X1450368Y2440428D01*
X1450368Y2440427D01*
X1445092Y2435152D01*
X1445092Y2435152D01*
X1441361Y2428690D01*
X1440965Y2427211D01*
X1439603Y2422129D01*
X1439430Y2421482D01*
X1439430Y2413208D01*
X1439258Y2413208D01*
X1438333Y2407273D01*
X1433695Y2402048D01*
X1430325Y2400581D01*
X1426454Y2399544D01*
X1426454Y2399544D01*
X1419992Y2395813D01*
X1419991Y2395813D01*
X1414716Y2390537D01*
X1414716Y2390537D01*
X1410985Y2384075D01*
X1410268Y2381400D01*
X1409054Y2376868D01*
X1409054Y2369406D01*
X1410118Y2365435D01*
X1409951Y2358450D01*
X1406035Y2352664D01*
X1404340Y2351487D01*
X1399804Y2348868D01*
X1399803Y2348868D01*
X1394528Y2343592D01*
X1394528Y2343592D01*
X1390797Y2337130D01*
X1390797Y2337130D01*
X1388866Y2329923D01*
X858338Y2329923D01*
X858338Y2331231D01*
X856407Y2338438D01*
X852676Y2344900D01*
X847400Y2350176D01*
X840938Y2353907D01*
X833731Y2355838D01*
X826269Y2355838D01*
X821464Y2354551D01*
X819062Y2353907D01*
X812600Y2350176D01*
X812600Y2350176D01*
X807324Y2344900D01*
X807324Y2344900D01*
X803593Y2338438D01*
X803367Y2337593D01*
X801662Y2331231D01*
X427658Y2331231D01*
X428338Y2333769D01*
X428338Y2341231D01*
X426407Y2348438D01*
X422676Y2354900D01*
X417400Y2360176D01*
X410938Y2363907D01*
X403731Y2365838D01*
X396269Y2365838D01*
X391464Y2364551D01*
X389062Y2363907D01*
X382600Y2360176D01*
X382600Y2360176D01*
X377324Y2354900D01*
X377324Y2354900D01*
X373593Y2348438D01*
X373101Y2346600D01*
X371662Y2341231D01*
X226238Y2341231D01*
X222676Y2347400D01*
X217400Y2352676D01*
X210938Y2356407D01*
X203731Y2358338D01*
X196269Y2358338D01*
X191464Y2357051D01*
X189062Y2356407D01*
X182600Y2352676D01*
X182600Y2352676D01*
X177324Y2347400D01*
X177324Y2347400D01*
X173593Y2340938D01*
X173299Y2339838D01*
X171662Y2333731D01*
X66519Y2333731D01*
X66626Y2334131D01*
X66626Y2341593D01*
X64695Y2348800D01*
X64685Y2348817D01*
X64574Y2349678D01*
X64997Y2352342D01*
X65061Y2355038D01*
X65537Y2355740D01*
X65670Y2356578D01*
X67466Y2358591D01*
X68978Y2360824D01*
X69758Y2361158D01*
X70323Y2361791D01*
X72922Y2362513D01*
X75401Y2363574D01*
X76873Y2363662D01*
X83731Y2363662D01*
X83731Y2363662D01*
X90938Y2365593D01*
X97400Y2369324D01*
X102676Y2374600D01*
X106407Y2381062D01*
X108338Y2388269D01*
X108338Y2395731D01*
X106407Y2402938D01*
X102676Y2409400D01*
X97400Y2414676D01*
X90938Y2418407D01*
X83731Y2420338D01*
X76269Y2420338D01*
X71464Y2419051D01*
X69062Y2418407D01*
X62600Y2414676D01*
X62600Y2414676D01*
X57324Y2409400D01*
X57324Y2409400D01*
X53593Y2402938D01*
X53429Y2402324D01*
X51662Y2395731D01*
X51662Y2388269D01*
X53393Y2381810D01*
X53348Y2379923D01*
X53805Y2378092D01*
X53266Y2376503D01*
X53227Y2374825D01*
X52169Y2373262D01*
X51564Y2371475D01*
X50251Y2370429D01*
X49310Y2369038D01*
X47576Y2368296D01*
X46100Y2367119D01*
X43754Y2366659D01*
X42888Y2366288D01*
X42676Y2366264D01*
X42027Y2366198D01*
X42019Y2366200D01*
X34557Y2366200D01*
X29939Y2364963D01*
X28951Y2364862D01*
X26453Y2365326D01*
X23914Y2365386D01*
X23076Y2365954D01*
X22081Y2366139D01*
X20232Y2367879D01*
X18128Y2369303D01*
X17730Y2370233D01*
X16993Y2370927D01*
X16377Y2373391D01*
X15378Y2375726D01*
X15290Y2377198D01*
X15290Y2384391D01*
X15350Y2385606D01*
X15353Y2385641D01*
X16798Y2400312D01*
X17272Y2402694D01*
X21384Y2416250D01*
X22314Y2418494D01*
X28991Y2430986D01*
X30340Y2433006D01*
X39327Y2443956D01*
X41045Y2445673D01*
X51994Y2454660D01*
X54014Y2456009D01*
X66506Y2462686D01*
X68750Y2463616D01*
X82306Y2467728D01*
X84689Y2468202D01*
X99394Y2469650D01*
X100609Y2469710D01*
X103490Y2469710D01*
X427554Y2469710D01*
X434257Y2467742D01*
X438833Y2462461D01*
X439827Y2455545D01*
X439531Y2454101D01*
X438360Y2449731D01*
X438238Y2449275D01*
X438238Y2441813D01*
X440169Y2434606D01*
X443900Y2428144D01*
X449176Y2422868D01*
X455638Y2419137D01*
X462845Y2417206D01*
X462845Y2417206D01*
X470307Y2417206D01*
X470307Y2417206D01*
X477514Y2419137D01*
X483976Y2422868D01*
X489252Y2428144D01*
X492983Y2434606D01*
X494914Y2441813D01*
X494914Y2449275D01*
X492983Y2456482D01*
X492483Y2457348D01*
X1078546Y2457348D01*
X1078546Y2449886D01*
X1080478Y2442679D01*
X1084208Y2436217D01*
X1089485Y2430941D01*
X1095946Y2427210D01*
X1103154Y2425279D01*
X1103154Y2425279D01*
X1108573Y2425279D01*
X1115277Y2423311D01*
X1119852Y2418030D01*
X1120973Y2412879D01*
X1120973Y2407460D01*
X1122904Y2400253D01*
X1126635Y2393791D01*
X1131911Y2388515D01*
X1138373Y2384784D01*
X1145580Y2382853D01*
X1145580Y2382853D01*
X1153041Y2382853D01*
X1153042Y2382853D01*
X1160249Y2384784D01*
X1166711Y2388515D01*
X1171987Y2393791D01*
X1175718Y2400253D01*
X1177649Y2407460D01*
X1177649Y2414922D01*
X1175718Y2422129D01*
X1175594Y2422343D01*
X1175594Y2422344D01*
X1175594Y2422344D01*
X1172483Y2427731D01*
X1309662Y2427731D01*
X1309662Y2420269D01*
X1311593Y2413062D01*
X1315324Y2406600D01*
X1315324Y2406600D01*
X1319156Y2402768D01*
X1322505Y2396636D01*
X1322006Y2389667D01*
X1319156Y2385232D01*
X1315324Y2381400D01*
X1315324Y2381400D01*
X1311593Y2374938D01*
X1310913Y2372400D01*
X1309662Y2367731D01*
X1309662Y2360269D01*
X1311593Y2353062D01*
X1315324Y2346600D01*
X1320600Y2341324D01*
X1327062Y2337593D01*
X1334269Y2335662D01*
X1334269Y2335662D01*
X1341731Y2335662D01*
X1341731Y2335662D01*
X1348938Y2337593D01*
X1355400Y2341324D01*
X1360676Y2346600D01*
X1364407Y2353062D01*
X1366338Y2360269D01*
X1366338Y2367731D01*
X1364407Y2374938D01*
X1360676Y2381400D01*
X1356844Y2385232D01*
X1353496Y2391364D01*
X1353994Y2398333D01*
X1356844Y2402768D01*
X1358414Y2404338D01*
X1360676Y2406600D01*
X1364407Y2413062D01*
X1366338Y2420269D01*
X1366338Y2427731D01*
X1364407Y2434938D01*
X1360676Y2441400D01*
X1355400Y2446676D01*
X1348938Y2450407D01*
X1341731Y2452338D01*
X1334269Y2452338D01*
X1329464Y2451051D01*
X1327062Y2450407D01*
X1320600Y2446676D01*
X1320600Y2446676D01*
X1315324Y2441400D01*
X1315324Y2441400D01*
X1311593Y2434938D01*
X1311306Y2433867D01*
X1309662Y2427731D01*
X1172483Y2427731D01*
X1171987Y2428590D01*
X1171987Y2428591D01*
X1166711Y2433867D01*
X1166711Y2433867D01*
X1160249Y2437598D01*
X1153042Y2439529D01*
X1147622Y2439529D01*
X1140919Y2441497D01*
X1136343Y2446778D01*
X1135222Y2451929D01*
X1135222Y2457348D01*
X1135222Y2457348D01*
X1133291Y2464555D01*
X1129560Y2471017D01*
X1124284Y2476293D01*
X1117822Y2480024D01*
X1110615Y2481955D01*
X1103154Y2481955D01*
X1098349Y2480668D01*
X1095946Y2480024D01*
X1089485Y2476293D01*
X1089484Y2476293D01*
X1084209Y2471017D01*
X1084208Y2471017D01*
X1080478Y2464555D01*
X1080478Y2464555D01*
X1078546Y2457348D01*
X492483Y2457348D01*
X491494Y2459060D01*
X491204Y2459737D01*
X490873Y2462503D01*
X490216Y2465211D01*
X490463Y2465925D01*
X490373Y2466674D01*
X491590Y2469180D01*
X492501Y2471814D01*
X493095Y2472280D01*
X493424Y2472960D01*
X495803Y2474410D01*
X497993Y2476133D01*
X498359Y2476273D01*
X508910Y2480113D01*
X526380Y2490199D01*
X541834Y2503166D01*
X554801Y2518620D01*
X564887Y2536090D01*
X571787Y2555047D01*
X575290Y2574913D01*
X575290Y2585000D01*
X575290Y2588490D01*
X575290Y2674188D01*
X575396Y2675806D01*
X576260Y2682365D01*
X576260Y2682365D01*
X577097Y2685492D01*
X579316Y2690847D01*
X580934Y2693650D01*
X584463Y2698249D01*
X586751Y2700537D01*
X591350Y2704066D01*
X594153Y2705684D01*
X599509Y2707903D01*
X602635Y2708740D01*
X609194Y2709604D01*
X610813Y2709710D01*
X613490Y2709710D01*
X676510Y2709710D01*
X679187Y2709710D01*
X680806Y2709604D01*
G37*
%TD.AperFunction*%
%TA.AperFunction,Conductor*%
G36*
X2284806Y199161D02*
G01*
X2281000Y189973D01*
X2281000Y180027D01*
X2284806Y170839D01*
X2285645Y170000D01*
X2226355Y170000D01*
X2227194Y170839D01*
X2231000Y180027D01*
X2231000Y189973D01*
X2227194Y199161D01*
X2226355Y200000D01*
X2285645Y200000D01*
X2284806Y199161D01*
G37*
%TD.AperFunction*%
%TD*%
M02*
