%TF.GenerationSoftware,KiCad,Pcbnew,9.0.0*%
%TF.CreationDate,2025-03-28T20:31:48-04:00*%
%TF.ProjectId,Expansion_Card_Retrofit,45787061-6e73-4696-9f6e-5f436172645f,X1*%
%TF.SameCoordinates,Original*%
%TF.FileFunction,Legend,Bot*%
%TF.FilePolarity,Positive*%
%FSLAX45Y45*%
G04 Gerber Fmt 4.5, Leading zero omitted, Abs format (unit mm)*
G04 Created by KiCad (PCBNEW 9.0.0) date 2025-03-28 20:31:48*
%MOMM*%
%LPD*%
G01*
G04 APERTURE LIST*
%ADD10C,0.075000*%
%ADD11C,0.101600*%
%ADD12C,0.150000*%
%ADD13C,0.120000*%
%ADD14C,0.100000*%
%ADD15C,0.200000*%
%ADD16C,0.140357*%
G04 APERTURE END LIST*
D10*
G36*
X1488004Y22825D02*
G01*
X1489949Y21852D01*
X1490517Y21284D01*
X1491277Y19763D01*
X1491277Y18677D01*
X1490517Y17156D01*
X1489949Y16588D01*
X1488004Y15615D01*
X1483137Y14398D01*
X1476918Y14398D01*
X1472051Y15615D01*
X1470106Y16588D01*
X1469538Y17156D01*
X1468777Y18677D01*
X1468777Y19763D01*
X1469538Y21284D01*
X1470106Y21852D01*
X1472051Y22825D01*
X1476918Y24041D01*
X1483137Y24041D01*
X1488004Y22825D01*
G37*
G36*
X1921260Y24253D02*
G01*
X1923205Y23281D01*
X1925006Y21480D01*
X1925962Y18611D01*
X1925962Y15827D01*
X1903462Y15827D01*
X1903462Y18611D01*
X1904418Y21480D01*
X1906219Y23281D01*
X1908164Y24253D01*
X1913031Y25470D01*
X1916393Y25470D01*
X1921260Y24253D01*
G37*
G36*
X1937212Y720D02*
G01*
X491561Y720D01*
X491561Y22077D01*
X495311Y22077D01*
X495311Y14934D01*
X495348Y14750D01*
X495321Y14668D01*
X495479Y14089D01*
X495597Y13499D01*
X495658Y13438D01*
X495707Y13257D01*
X497136Y10400D01*
X497504Y9925D01*
X497838Y9426D01*
X499267Y7997D01*
X500483Y7184D01*
X503353Y7184D01*
X505383Y9213D01*
X505383Y12083D01*
X504570Y13300D01*
X503572Y14298D01*
X502811Y15820D01*
X502811Y21192D01*
X503572Y22713D01*
X504140Y23281D01*
X505661Y24041D01*
X511033Y24041D01*
X512554Y23281D01*
X513122Y22713D01*
X513883Y21192D01*
X513883Y15820D01*
X513122Y14298D01*
X512124Y13300D01*
X511311Y12083D01*
X511311Y11885D01*
X511186Y11732D01*
X511311Y10476D01*
X511311Y9213D01*
X511451Y9073D01*
X511471Y8876D01*
X512448Y8076D01*
X513341Y7184D01*
X513539Y7184D01*
X513692Y7058D01*
X515149Y6917D01*
X529435Y8346D01*
X530310Y8613D01*
X530497Y8613D01*
X530579Y8695D01*
X530834Y8773D01*
X531634Y9750D01*
X532526Y10642D01*
X532578Y10904D01*
X532652Y10994D01*
X532633Y11180D01*
X532811Y12077D01*
X532811Y26363D01*
X532810Y26369D01*
X688790Y26369D01*
X688790Y23499D01*
X690820Y21470D01*
X692255Y21184D01*
X698505Y21184D01*
X698505Y10649D01*
X698790Y9213D01*
X699226Y8777D01*
X699422Y8191D01*
X700202Y7801D01*
X700819Y7184D01*
X701437Y7184D01*
X701989Y6908D01*
X703440Y7091D01*
X724869Y14234D01*
X726140Y14958D01*
X727424Y17526D01*
X726516Y20248D01*
X723949Y21532D01*
X722497Y21349D01*
X706005Y15851D01*
X706005Y21184D01*
X712255Y21184D01*
X713690Y21470D01*
X714297Y22077D01*
X881698Y22077D01*
X881698Y13506D01*
X881734Y13321D01*
X881707Y13240D01*
X881866Y12660D01*
X881983Y12071D01*
X882044Y12010D01*
X882094Y11829D01*
X883522Y8972D01*
X883890Y8497D01*
X884225Y7997D01*
X885653Y6568D01*
X886870Y5755D01*
X889740Y5755D01*
X891769Y7785D01*
X891769Y10655D01*
X890956Y11872D01*
X889958Y12870D01*
X889198Y14391D01*
X889198Y21192D01*
X889958Y22713D01*
X890526Y23281D01*
X892047Y24041D01*
X897420Y24041D01*
X898941Y23281D01*
X899508Y22713D01*
X900269Y21192D01*
X900269Y17791D01*
X900477Y16746D01*
X900467Y16590D01*
X900520Y16529D01*
X900555Y16356D01*
X901488Y15423D01*
X902357Y14430D01*
X902490Y14421D01*
X902584Y14327D01*
X903903Y14327D01*
X905221Y14239D01*
X905373Y14327D01*
X905454Y14327D01*
X905564Y14437D01*
X906489Y14969D01*
X911698Y19527D01*
X911698Y9220D01*
X911983Y7785D01*
X914013Y5755D01*
X916883Y5755D01*
X918912Y7785D01*
X919198Y9220D01*
X919198Y27791D01*
X1074891Y27791D01*
X1074891Y9220D01*
X1075177Y7785D01*
X1077206Y5755D01*
X1077206Y5755D01*
X1080076Y5755D01*
X1080076Y5755D01*
X1080076Y5756D01*
X1081293Y6568D01*
X1097809Y23085D01*
X1100678Y24041D01*
X1102041Y24041D01*
X1103562Y23281D01*
X1104130Y22713D01*
X1104891Y21192D01*
X1104891Y15820D01*
X1104130Y14298D01*
X1103132Y13300D01*
X1102319Y12083D01*
X1102319Y9214D01*
X1104349Y7184D01*
X1107219Y7184D01*
X1108436Y7997D01*
X1109864Y9425D01*
X1110198Y9925D01*
X1110567Y10400D01*
X1111995Y13257D01*
X1112045Y13438D01*
X1112106Y13499D01*
X1112223Y14088D01*
X1112382Y14668D01*
X1112354Y14750D01*
X1112391Y14934D01*
X1112391Y22077D01*
X1112354Y22261D01*
X1112382Y22343D01*
X1112223Y22923D01*
X1112106Y23512D01*
X1112045Y23573D01*
X1111995Y23754D01*
X1110567Y26611D01*
X1110198Y27086D01*
X1109864Y27586D01*
X1109659Y27791D01*
X1268084Y27791D01*
X1268084Y10649D01*
X1268370Y9213D01*
X1270399Y7184D01*
X1273269Y7184D01*
X1275299Y9213D01*
X1275584Y10649D01*
X1275584Y15470D01*
X1291560Y15470D01*
X1291337Y15183D01*
X1289909Y12325D01*
X1289522Y10914D01*
X1290430Y8191D01*
X1292997Y6908D01*
X1295720Y7816D01*
X1296617Y8972D01*
X1297773Y11284D01*
X1299937Y13448D01*
X1303914Y16100D01*
X1304950Y17133D01*
X1305026Y17512D01*
X1305299Y17785D01*
X1305299Y18877D01*
X1305513Y19948D01*
X1305299Y20269D01*
X1305299Y20649D01*
X1461277Y20649D01*
X1461277Y17791D01*
X1461314Y17607D01*
X1461287Y17526D01*
X1461445Y16946D01*
X1461563Y16356D01*
X1461624Y16296D01*
X1461673Y16114D01*
X1463102Y13257D01*
X1463470Y12783D01*
X1463804Y12282D01*
X1465233Y10854D01*
X1465732Y10521D01*
X1466207Y10152D01*
X1469065Y8723D01*
X1469461Y8615D01*
X1469832Y8439D01*
X1475546Y7010D01*
X1476005Y6988D01*
X1476456Y6898D01*
X1483599Y6898D01*
X1484050Y6988D01*
X1484508Y7010D01*
X1490223Y8439D01*
X1490594Y8615D01*
X1490990Y8723D01*
X1493847Y10152D01*
X1494322Y10520D01*
X1494822Y10854D01*
X1496250Y12282D01*
X1496584Y12782D01*
X1496953Y13257D01*
X1497080Y13512D01*
X1654756Y13512D01*
X1654756Y10642D01*
X1656785Y8613D01*
X1658221Y8327D01*
X1688221Y8327D01*
X1689656Y8613D01*
X1691685Y10642D01*
X1691685Y10642D01*
X1691971Y12077D01*
X1691971Y26363D01*
X1691715Y27648D01*
X1692799Y27648D01*
X1692799Y7934D01*
X1693085Y6499D01*
X1695114Y4470D01*
X1697984Y4470D01*
X1700014Y6499D01*
X1700299Y7934D01*
X1700299Y19220D01*
X1895962Y19220D01*
X1895962Y12077D01*
X1896248Y10642D01*
X1896248Y10642D01*
X1898277Y8613D01*
X1899712Y8327D01*
X1929712Y8327D01*
X1931147Y8613D01*
X1933177Y10642D01*
X1933177Y10642D01*
X1933462Y12077D01*
X1933462Y19220D01*
X1933345Y19810D01*
X1933270Y20406D01*
X1931841Y24692D01*
X1931748Y24855D01*
X1931748Y24941D01*
X1931414Y25440D01*
X1931116Y25963D01*
X1931039Y26001D01*
X1930935Y26157D01*
X1928078Y29014D01*
X1927578Y29349D01*
X1927103Y29717D01*
X1924246Y31145D01*
X1923850Y31254D01*
X1923479Y31429D01*
X1917764Y32858D01*
X1917306Y32880D01*
X1916855Y32970D01*
X1912569Y32970D01*
X1912118Y32880D01*
X1911660Y32858D01*
X1905945Y31429D01*
X1905574Y31254D01*
X1905178Y31145D01*
X1902321Y29717D01*
X1901845Y29348D01*
X1901346Y29014D01*
X1898489Y26157D01*
X1898384Y26001D01*
X1898308Y25963D01*
X1898010Y25441D01*
X1897676Y24941D01*
X1897676Y24855D01*
X1897583Y24691D01*
X1896154Y20406D01*
X1896079Y19809D01*
X1895962Y19220D01*
X1700299Y19220D01*
X1700299Y27648D01*
X1700014Y29084D01*
X1697984Y31113D01*
X1695114Y31113D01*
X1693085Y29084D01*
X1692799Y27648D01*
X1691715Y27648D01*
X1691685Y27798D01*
X1689656Y29827D01*
X1686785Y29827D01*
X1684756Y27798D01*
X1684471Y26363D01*
X1684471Y15827D01*
X1677685Y15827D01*
X1677685Y22077D01*
X1677399Y23512D01*
X1675370Y25542D01*
X1672500Y25542D01*
X1670470Y23512D01*
X1670185Y22077D01*
X1670185Y15827D01*
X1658221Y15827D01*
X1656785Y15542D01*
X1654756Y13512D01*
X1497080Y13512D01*
X1498381Y16114D01*
X1498431Y16296D01*
X1498492Y16356D01*
X1498609Y16946D01*
X1498768Y17526D01*
X1498741Y17607D01*
X1498777Y17791D01*
X1498777Y20649D01*
X1498741Y20833D01*
X1498768Y20914D01*
X1498609Y21494D01*
X1498492Y22084D01*
X1498431Y22144D01*
X1498381Y22326D01*
X1496953Y25183D01*
X1496584Y25658D01*
X1496250Y26157D01*
X1494822Y27586D01*
X1494322Y27920D01*
X1493847Y28288D01*
X1490990Y29717D01*
X1490594Y29825D01*
X1490223Y30001D01*
X1484508Y31429D01*
X1484050Y31452D01*
X1483599Y31541D01*
X1476456Y31541D01*
X1476005Y31452D01*
X1475546Y31429D01*
X1469832Y30001D01*
X1469461Y29825D01*
X1469065Y29717D01*
X1466207Y28288D01*
X1465732Y27919D01*
X1465233Y27586D01*
X1463804Y26157D01*
X1463470Y25657D01*
X1463102Y25183D01*
X1461673Y22326D01*
X1461624Y22144D01*
X1461563Y22084D01*
X1461445Y21494D01*
X1461287Y20914D01*
X1461314Y20833D01*
X1461277Y20649D01*
X1305299Y20649D01*
X1305299Y20655D01*
X1304526Y21428D01*
X1303921Y22336D01*
X1303542Y22412D01*
X1303269Y22684D01*
X1301834Y22970D01*
X1275584Y22970D01*
X1275584Y27791D01*
X1275299Y29226D01*
X1273269Y31256D01*
X1270399Y31256D01*
X1268370Y29226D01*
X1268084Y27791D01*
X1109659Y27791D01*
X1108436Y29014D01*
X1107936Y29349D01*
X1107461Y29717D01*
X1104604Y31145D01*
X1104423Y31195D01*
X1104362Y31256D01*
X1103772Y31373D01*
X1103193Y31532D01*
X1103111Y31505D01*
X1102927Y31541D01*
X1100070Y31541D01*
X1099480Y31424D01*
X1098884Y31349D01*
X1094598Y29920D01*
X1094435Y29827D01*
X1094349Y29827D01*
X1093849Y29493D01*
X1093327Y29196D01*
X1093288Y29119D01*
X1093132Y29014D01*
X1082391Y18273D01*
X1082391Y27791D01*
X1082106Y29226D01*
X1080076Y31256D01*
X1077206Y31256D01*
X1075177Y29226D01*
X1074891Y27791D01*
X919198Y27791D01*
X918990Y28837D01*
X919000Y28993D01*
X918947Y29054D01*
X918912Y29226D01*
X917978Y30160D01*
X917110Y31153D01*
X916977Y31162D01*
X916883Y31256D01*
X915563Y31256D01*
X914246Y31344D01*
X914094Y31256D01*
X914013Y31256D01*
X913902Y31146D01*
X912978Y30613D01*
X906693Y25114D01*
X905945Y26611D01*
X905576Y27086D01*
X905242Y27586D01*
X903814Y29014D01*
X903314Y29349D01*
X902839Y29717D01*
X899982Y31145D01*
X899801Y31195D01*
X899740Y31256D01*
X899150Y31373D01*
X898571Y31532D01*
X898489Y31505D01*
X898305Y31541D01*
X891162Y31541D01*
X890978Y31505D01*
X890896Y31532D01*
X890317Y31373D01*
X889727Y31256D01*
X889666Y31195D01*
X889485Y31145D01*
X886628Y29717D01*
X886153Y29348D01*
X885653Y29014D01*
X884225Y27586D01*
X883891Y27086D01*
X883522Y26611D01*
X882094Y23754D01*
X882044Y23573D01*
X881983Y23512D01*
X881866Y22922D01*
X881707Y22343D01*
X881734Y22261D01*
X881698Y22077D01*
X714297Y22077D01*
X715719Y23499D01*
X715719Y26369D01*
X713690Y28399D01*
X712255Y28684D01*
X706005Y28684D01*
X706005Y29220D01*
X705719Y30655D01*
X703690Y32684D01*
X700819Y32684D01*
X698790Y30655D01*
X698505Y29220D01*
X698505Y28684D01*
X692255Y28684D01*
X690820Y28399D01*
X688790Y26369D01*
X532810Y26369D01*
X532526Y27798D01*
X530497Y29827D01*
X527626Y29827D01*
X525597Y27798D01*
X525311Y26363D01*
X525311Y15471D01*
X521383Y15078D01*
X521383Y22077D01*
X521346Y22261D01*
X521373Y22343D01*
X521214Y22923D01*
X521097Y23512D01*
X521036Y23573D01*
X520987Y23754D01*
X519558Y26611D01*
X519190Y27086D01*
X518856Y27586D01*
X517427Y29014D01*
X516927Y29349D01*
X516453Y29717D01*
X513596Y31145D01*
X513414Y31195D01*
X513354Y31256D01*
X512764Y31373D01*
X512184Y31532D01*
X512103Y31505D01*
X511918Y31541D01*
X504776Y31541D01*
X504591Y31505D01*
X504510Y31532D01*
X503930Y31373D01*
X503341Y31256D01*
X503280Y31195D01*
X503099Y31145D01*
X500241Y29717D01*
X499766Y29348D01*
X499267Y29014D01*
X497838Y27586D01*
X497504Y27086D01*
X497136Y26611D01*
X495707Y23754D01*
X495658Y23573D01*
X495597Y23512D01*
X495479Y22922D01*
X495321Y22343D01*
X495348Y22261D01*
X495311Y22077D01*
X491561Y22077D01*
X491561Y36720D01*
X1937212Y36720D01*
X1937212Y720D01*
G37*
D11*
X1720000Y155000D02*
X1416000Y154000D01*
X1745000Y255000D02*
X1720953Y155003D01*
G36*
X1783893Y254868D02*
G01*
X1702336Y254868D01*
X1702336Y301766D01*
X1709209Y301766D01*
X1709209Y297878D01*
X1711958Y295128D01*
X1713902Y294742D01*
X1759995Y294742D01*
X1763749Y292865D01*
X1765365Y291249D01*
X1767242Y287495D01*
X1767242Y278766D01*
X1765365Y275012D01*
X1763749Y273396D01*
X1759995Y271519D01*
X1713902Y271519D01*
X1711958Y271132D01*
X1709209Y268383D01*
X1709209Y264495D01*
X1711958Y261745D01*
X1713902Y261359D01*
X1761194Y261359D01*
X1761444Y261408D01*
X1761554Y261372D01*
X1762340Y261587D01*
X1763138Y261745D01*
X1763221Y261828D01*
X1763466Y261895D01*
X1769030Y264677D01*
X1769673Y265176D01*
X1770350Y265629D01*
X1773132Y268411D01*
X1773585Y269088D01*
X1774084Y269731D01*
X1776866Y275295D01*
X1776933Y275540D01*
X1777015Y275622D01*
X1777174Y276421D01*
X1777389Y277206D01*
X1777352Y277317D01*
X1777402Y277566D01*
X1777402Y288694D01*
X1777352Y288944D01*
X1777389Y289054D01*
X1777174Y289840D01*
X1777015Y290638D01*
X1776933Y290720D01*
X1776866Y290966D01*
X1774084Y296530D01*
X1773585Y297173D01*
X1773132Y297850D01*
X1770350Y300632D01*
X1769673Y301084D01*
X1769030Y301583D01*
X1763466Y304365D01*
X1763221Y304433D01*
X1763138Y304515D01*
X1762340Y304674D01*
X1761554Y304889D01*
X1761444Y304852D01*
X1761194Y304902D01*
X1713902Y304902D01*
X1711958Y304515D01*
X1709209Y301766D01*
X1702336Y301766D01*
X1702336Y366810D01*
X1708827Y366810D01*
X1709209Y365761D01*
X1709209Y364643D01*
X1709847Y364005D01*
X1710156Y363156D01*
X1711754Y361984D01*
X1743618Y347114D01*
X1711754Y332244D01*
X1710156Y331072D01*
X1709847Y330223D01*
X1709209Y329585D01*
X1709209Y328468D01*
X1708827Y327418D01*
X1709209Y326600D01*
X1709209Y325697D01*
X1709999Y324907D01*
X1710471Y323894D01*
X1711320Y323586D01*
X1711958Y322947D01*
X1713902Y322561D01*
X1772322Y322561D01*
X1774266Y322947D01*
X1777015Y325697D01*
X1777015Y329585D01*
X1774266Y332334D01*
X1772322Y332721D01*
X1736800Y332721D01*
X1757779Y342511D01*
X1758834Y343285D01*
X1759061Y343368D01*
X1759121Y343496D01*
X1759377Y343683D01*
X1759971Y345316D01*
X1760706Y346891D01*
X1760624Y347114D01*
X1760706Y347337D01*
X1759971Y348912D01*
X1759377Y350545D01*
X1759121Y350733D01*
X1759061Y350860D01*
X1758834Y350943D01*
X1757779Y351717D01*
X1736800Y361507D01*
X1772322Y361507D01*
X1774266Y361894D01*
X1777015Y364643D01*
X1777015Y368531D01*
X1774266Y371281D01*
X1772322Y371667D01*
X1713902Y371667D01*
X1711958Y371281D01*
X1711320Y370642D01*
X1710471Y370334D01*
X1709999Y369321D01*
X1709209Y368531D01*
X1709209Y367629D01*
X1708827Y366810D01*
X1702336Y366810D01*
X1702336Y396350D01*
X1709209Y396350D01*
X1709209Y392462D01*
X1711958Y389713D01*
X1713902Y389326D01*
X1772322Y389326D01*
X1774266Y389713D01*
X1777015Y392462D01*
X1777015Y396350D01*
X1774266Y399100D01*
X1772322Y399486D01*
X1713902Y399486D01*
X1711958Y399100D01*
X1709209Y396350D01*
X1702336Y396350D01*
X1702336Y405977D01*
X1783893Y405977D01*
X1783893Y254868D01*
G37*
D12*
X2338333Y1793397D02*
X2298333Y1793397D01*
X2318333Y1723397D02*
X2318333Y1793397D01*
X2275000Y1723397D02*
X2275000Y1793397D01*
X2275000Y1793397D02*
X2248333Y1793397D01*
X2248333Y1793397D02*
X2241667Y1790063D01*
X2241667Y1790063D02*
X2238333Y1786730D01*
X2238333Y1786730D02*
X2235000Y1780063D01*
X2235000Y1780063D02*
X2235000Y1770063D01*
X2235000Y1770063D02*
X2238333Y1763397D01*
X2238333Y1763397D02*
X2241667Y1760063D01*
X2241667Y1760063D02*
X2248333Y1756730D01*
X2248333Y1756730D02*
X2275000Y1756730D01*
X2175000Y1793397D02*
X2188333Y1793397D01*
X2188333Y1793397D02*
X2195000Y1790063D01*
X2195000Y1790063D02*
X2198333Y1786730D01*
X2198333Y1786730D02*
X2205000Y1776730D01*
X2205000Y1776730D02*
X2208333Y1763397D01*
X2208333Y1763397D02*
X2208333Y1736730D01*
X2208333Y1736730D02*
X2205000Y1730063D01*
X2205000Y1730063D02*
X2201667Y1726730D01*
X2201667Y1726730D02*
X2195000Y1723397D01*
X2195000Y1723397D02*
X2181667Y1723397D01*
X2181667Y1723397D02*
X2175000Y1726730D01*
X2175000Y1726730D02*
X2171667Y1730063D01*
X2171667Y1730063D02*
X2168333Y1736730D01*
X2168333Y1736730D02*
X2168333Y1753397D01*
X2168333Y1753397D02*
X2171667Y1760063D01*
X2171667Y1760063D02*
X2175000Y1763397D01*
X2175000Y1763397D02*
X2181667Y1766730D01*
X2181667Y1766730D02*
X2195000Y1766730D01*
X2195000Y1766730D02*
X2201667Y1763397D01*
X2201667Y1763397D02*
X2205000Y1760063D01*
X2205000Y1760063D02*
X2208333Y1753397D01*
G36*
X401944Y438119D02*
G01*
X184866Y438119D01*
X184866Y454860D01*
X192644Y454860D01*
X192644Y451933D01*
X193764Y449230D01*
X195833Y447161D01*
X198537Y446041D01*
X200000Y445897D01*
X240000Y445897D01*
X241463Y446041D01*
X244167Y447161D01*
X246236Y449230D01*
X247356Y451933D01*
X247356Y453805D01*
X259178Y453805D01*
X259592Y450908D01*
X261082Y448390D01*
X263424Y446634D01*
X266258Y445908D01*
X269155Y446322D01*
X271673Y447813D01*
X272667Y448897D01*
X297478Y481979D01*
X299167Y480290D01*
X299167Y453397D01*
X299311Y451933D01*
X300431Y449230D01*
X302500Y447161D01*
X305203Y446041D01*
X308130Y446041D01*
X310833Y447161D01*
X312903Y449230D01*
X314023Y451933D01*
X314167Y453397D01*
X314167Y523397D01*
X332500Y523397D01*
X332500Y453397D01*
X332644Y451933D01*
X333764Y449230D01*
X335833Y447161D01*
X338537Y446041D01*
X341463Y446041D01*
X344167Y447161D01*
X346236Y449230D01*
X347356Y451933D01*
X347500Y453397D01*
X347500Y489590D01*
X356537Y470225D01*
X356854Y469689D01*
X356920Y469508D01*
X357038Y469379D01*
X357286Y468960D01*
X358127Y468190D01*
X358897Y467350D01*
X359199Y467209D01*
X359444Y466984D01*
X360515Y466594D01*
X361548Y466112D01*
X361882Y466097D01*
X362194Y465984D01*
X363333Y466034D01*
X364472Y465984D01*
X364785Y466098D01*
X365118Y466112D01*
X366151Y466594D01*
X367222Y466984D01*
X367468Y467209D01*
X367770Y467350D01*
X368540Y468190D01*
X369380Y468960D01*
X369629Y469379D01*
X369746Y469508D01*
X369812Y469689D01*
X370130Y470225D01*
X379167Y489590D01*
X379167Y453397D01*
X379311Y451933D01*
X380431Y449230D01*
X382500Y447161D01*
X385203Y446041D01*
X388130Y446041D01*
X390833Y447161D01*
X392903Y449230D01*
X394022Y451933D01*
X394167Y453397D01*
X394167Y523397D01*
X394072Y524359D01*
X394080Y524536D01*
X394045Y524630D01*
X394022Y524860D01*
X393524Y526063D01*
X393080Y527286D01*
X392967Y527409D01*
X392903Y527564D01*
X391983Y528484D01*
X391103Y529444D01*
X390951Y529515D01*
X390833Y529633D01*
X389632Y530130D01*
X388451Y530681D01*
X388284Y530689D01*
X388130Y530753D01*
X386829Y530753D01*
X385528Y530810D01*
X385370Y530753D01*
X385203Y530753D01*
X384001Y530255D01*
X382778Y529810D01*
X382654Y529697D01*
X382500Y529633D01*
X381580Y528713D01*
X380620Y527833D01*
X380502Y527635D01*
X380431Y527564D01*
X380363Y527400D01*
X379870Y526568D01*
X363333Y491132D01*
X346796Y526568D01*
X346304Y527400D01*
X346236Y527564D01*
X346164Y527635D01*
X346047Y527833D01*
X345087Y528712D01*
X344167Y529633D01*
X344012Y529697D01*
X343889Y529810D01*
X342666Y530255D01*
X341463Y530753D01*
X341296Y530753D01*
X341139Y530810D01*
X339839Y530753D01*
X338537Y530753D01*
X338382Y530689D01*
X338215Y530681D01*
X337035Y530131D01*
X335833Y529633D01*
X335715Y529515D01*
X335563Y529444D01*
X334684Y528484D01*
X333764Y527564D01*
X333700Y527409D01*
X333587Y527286D01*
X333142Y526063D01*
X332644Y524860D01*
X332621Y524630D01*
X332587Y524536D01*
X332595Y524359D01*
X332500Y523397D01*
X314167Y523397D01*
X314023Y524860D01*
X312903Y527564D01*
X310833Y529633D01*
X308130Y530753D01*
X305203Y530753D01*
X302500Y529633D01*
X300431Y527564D01*
X299311Y524860D01*
X299167Y523397D01*
X299167Y501503D01*
X271970Y528700D01*
X270833Y529633D01*
X268130Y530753D01*
X265204Y530753D01*
X262500Y529633D01*
X260431Y527564D01*
X259311Y524860D01*
X259311Y521934D01*
X260431Y519230D01*
X261363Y518093D01*
X286764Y492693D01*
X260667Y457897D01*
X259904Y456640D01*
X259178Y453805D01*
X247356Y453805D01*
X247356Y454860D01*
X246236Y457563D01*
X244167Y459633D01*
X241463Y460753D01*
X240000Y460897D01*
X227500Y460897D01*
X227500Y501957D01*
X228030Y501427D01*
X228605Y500955D01*
X228735Y500805D01*
X228961Y500663D01*
X229166Y500494D01*
X229349Y500418D01*
X229979Y500022D01*
X236646Y496688D01*
X238019Y496163D01*
X240938Y495956D01*
X243714Y496881D01*
X245925Y498798D01*
X247234Y501416D01*
X247441Y504335D01*
X246516Y507111D01*
X244598Y509322D01*
X243354Y510105D01*
X237776Y512894D01*
X232495Y518175D01*
X226240Y527557D01*
X226237Y527561D01*
X226236Y527564D01*
X226231Y527569D01*
X225309Y528695D01*
X224692Y529108D01*
X224167Y529633D01*
X223488Y529914D01*
X222877Y530323D01*
X222149Y530469D01*
X221463Y530753D01*
X220728Y530753D01*
X220008Y530897D01*
X219279Y530753D01*
X218537Y530753D01*
X217858Y530471D01*
X217137Y530329D01*
X216519Y529917D01*
X215833Y529633D01*
X215313Y529113D01*
X214702Y528706D01*
X214289Y528089D01*
X213764Y527564D01*
X213483Y526885D01*
X213074Y526274D01*
X212928Y525546D01*
X212644Y524860D01*
X212501Y523412D01*
X212500Y523405D01*
X212500Y523402D01*
X212500Y523397D01*
X212500Y460897D01*
X200000Y460897D01*
X198537Y460753D01*
X195833Y459633D01*
X193764Y457563D01*
X192644Y454860D01*
X184866Y454860D01*
X184866Y538675D01*
X401944Y538675D01*
X401944Y438119D01*
G37*
X423270Y1898333D02*
X456603Y1898333D01*
X386603Y1921667D02*
X423270Y1898333D01*
X423270Y1898333D02*
X386603Y1875000D01*
X456603Y1815000D02*
X456603Y1855000D01*
X456603Y1835000D02*
X386603Y1835000D01*
X386603Y1835000D02*
X396603Y1841667D01*
X396603Y1841667D02*
X403270Y1848333D01*
X403270Y1848333D02*
X406603Y1855000D01*
X998333Y2103397D02*
X998333Y2046730D01*
X998333Y2046730D02*
X995000Y2040063D01*
X995000Y2040063D02*
X991667Y2036730D01*
X991667Y2036730D02*
X985000Y2033397D01*
X985000Y2033397D02*
X971667Y2033397D01*
X971667Y2033397D02*
X965000Y2036730D01*
X965000Y2036730D02*
X961667Y2040063D01*
X961667Y2040063D02*
X958333Y2046730D01*
X958333Y2046730D02*
X958333Y2103397D01*
X895000Y2080063D02*
X895000Y2033397D01*
X911667Y2106730D02*
X928333Y2056730D01*
X928333Y2056730D02*
X885000Y2056730D01*
X333333Y2433397D02*
X333333Y2376730D01*
X333333Y2376730D02*
X330000Y2370063D01*
X330000Y2370063D02*
X326667Y2366730D01*
X326667Y2366730D02*
X320000Y2363397D01*
X320000Y2363397D02*
X306667Y2363397D01*
X306667Y2363397D02*
X300000Y2366730D01*
X300000Y2366730D02*
X296667Y2370063D01*
X296667Y2370063D02*
X293333Y2376730D01*
X293333Y2376730D02*
X293333Y2433397D01*
X250000Y2403397D02*
X256667Y2406730D01*
X256667Y2406730D02*
X260000Y2410063D01*
X260000Y2410063D02*
X263333Y2416730D01*
X263333Y2416730D02*
X263333Y2420063D01*
X263333Y2420063D02*
X260000Y2426730D01*
X260000Y2426730D02*
X256667Y2430063D01*
X256667Y2430063D02*
X250000Y2433397D01*
X250000Y2433397D02*
X236667Y2433397D01*
X236667Y2433397D02*
X230000Y2430063D01*
X230000Y2430063D02*
X226667Y2426730D01*
X226667Y2426730D02*
X223333Y2420063D01*
X223333Y2420063D02*
X223333Y2416730D01*
X223333Y2416730D02*
X226667Y2410063D01*
X226667Y2410063D02*
X230000Y2406730D01*
X230000Y2406730D02*
X236667Y2403397D01*
X236667Y2403397D02*
X250000Y2403397D01*
X250000Y2403397D02*
X256667Y2400063D01*
X256667Y2400063D02*
X260000Y2396730D01*
X260000Y2396730D02*
X263333Y2390063D01*
X263333Y2390063D02*
X263333Y2376730D01*
X263333Y2376730D02*
X260000Y2370063D01*
X260000Y2370063D02*
X256667Y2366730D01*
X256667Y2366730D02*
X250000Y2363397D01*
X250000Y2363397D02*
X236667Y2363397D01*
X236667Y2363397D02*
X230000Y2366730D01*
X230000Y2366730D02*
X226667Y2370063D01*
X226667Y2370063D02*
X223333Y2376730D01*
X223333Y2376730D02*
X223333Y2390063D01*
X223333Y2390063D02*
X226667Y2396730D01*
X226667Y2396730D02*
X230000Y2400063D01*
X230000Y2400063D02*
X236667Y2403397D01*
X1803333Y2448397D02*
X1803333Y2391730D01*
X1803333Y2391730D02*
X1800000Y2385063D01*
X1800000Y2385063D02*
X1796667Y2381730D01*
X1796667Y2381730D02*
X1790000Y2378397D01*
X1790000Y2378397D02*
X1776667Y2378397D01*
X1776667Y2378397D02*
X1770000Y2381730D01*
X1770000Y2381730D02*
X1766667Y2385063D01*
X1766667Y2385063D02*
X1763333Y2391730D01*
X1763333Y2391730D02*
X1763333Y2448397D01*
X1693333Y2378397D02*
X1733333Y2378397D01*
X1713333Y2378397D02*
X1713333Y2448397D01*
X1713333Y2448397D02*
X1720000Y2438397D01*
X1720000Y2438397D02*
X1726667Y2431730D01*
X1726667Y2431730D02*
X1733333Y2428397D01*
X2201603Y500000D02*
X2131603Y500000D01*
X2131603Y500000D02*
X2131603Y483333D01*
X2131603Y483333D02*
X2134937Y473333D01*
X2134937Y473333D02*
X2141603Y466667D01*
X2141603Y466667D02*
X2148270Y463333D01*
X2148270Y463333D02*
X2161603Y460000D01*
X2161603Y460000D02*
X2171603Y460000D01*
X2171603Y460000D02*
X2184937Y463333D01*
X2184937Y463333D02*
X2191603Y466667D01*
X2191603Y466667D02*
X2198270Y473333D01*
X2198270Y473333D02*
X2201603Y483333D01*
X2201603Y483333D02*
X2201603Y500000D01*
X2201603Y393333D02*
X2201603Y433333D01*
X2201603Y413333D02*
X2131603Y413333D01*
X2131603Y413333D02*
X2141603Y420000D01*
X2141603Y420000D02*
X2148270Y426667D01*
X2148270Y426667D02*
X2151603Y433333D01*
X2131603Y330000D02*
X2131603Y363333D01*
X2131603Y363333D02*
X2164937Y366667D01*
X2164937Y366667D02*
X2161603Y363333D01*
X2161603Y363333D02*
X2158270Y356667D01*
X2158270Y356667D02*
X2158270Y340000D01*
X2158270Y340000D02*
X2161603Y333333D01*
X2161603Y333333D02*
X2164937Y330000D01*
X2164937Y330000D02*
X2171603Y326667D01*
X2171603Y326667D02*
X2188270Y326667D01*
X2188270Y326667D02*
X2194937Y330000D01*
X2194937Y330000D02*
X2198270Y333333D01*
X2198270Y333333D02*
X2201603Y340000D01*
X2201603Y340000D02*
X2201603Y356667D01*
X2201603Y356667D02*
X2198270Y363333D01*
X2198270Y363333D02*
X2194937Y366667D01*
X1045000Y2405063D02*
X1048333Y2401730D01*
X1048333Y2401730D02*
X1058333Y2398397D01*
X1058333Y2398397D02*
X1065000Y2398397D01*
X1065000Y2398397D02*
X1075000Y2401730D01*
X1075000Y2401730D02*
X1081667Y2408397D01*
X1081667Y2408397D02*
X1085000Y2415063D01*
X1085000Y2415063D02*
X1088333Y2428397D01*
X1088333Y2428397D02*
X1088333Y2438397D01*
X1088333Y2438397D02*
X1085000Y2451730D01*
X1085000Y2451730D02*
X1081667Y2458397D01*
X1081667Y2458397D02*
X1075000Y2465063D01*
X1075000Y2465063D02*
X1065000Y2468397D01*
X1065000Y2468397D02*
X1058333Y2468397D01*
X1058333Y2468397D02*
X1048333Y2465063D01*
X1048333Y2465063D02*
X1045000Y2461730D01*
X985000Y2445063D02*
X985000Y2398397D01*
X1001667Y2471730D02*
X1018333Y2421730D01*
X1018333Y2421730D02*
X975000Y2421730D01*
X918333Y2468397D02*
X931667Y2468397D01*
X931667Y2468397D02*
X938333Y2465063D01*
X938333Y2465063D02*
X941667Y2461730D01*
X941667Y2461730D02*
X948333Y2451730D01*
X948333Y2451730D02*
X951667Y2438397D01*
X951667Y2438397D02*
X951667Y2411730D01*
X951667Y2411730D02*
X948333Y2405063D01*
X948333Y2405063D02*
X945000Y2401730D01*
X945000Y2401730D02*
X938333Y2398397D01*
X938333Y2398397D02*
X925000Y2398397D01*
X925000Y2398397D02*
X918333Y2401730D01*
X918333Y2401730D02*
X915000Y2405063D01*
X915000Y2405063D02*
X911667Y2411730D01*
X911667Y2411730D02*
X911667Y2428397D01*
X911667Y2428397D02*
X915000Y2435063D01*
X915000Y2435063D02*
X918333Y2438397D01*
X918333Y2438397D02*
X925000Y2441730D01*
X925000Y2441730D02*
X938333Y2441730D01*
X938333Y2441730D02*
X945000Y2438397D01*
X945000Y2438397D02*
X948333Y2435063D01*
X948333Y2435063D02*
X951667Y2428397D01*
X936603Y356667D02*
X993270Y356667D01*
X993270Y356667D02*
X999937Y353333D01*
X999937Y353333D02*
X1003270Y350000D01*
X1003270Y350000D02*
X1006603Y343333D01*
X1006603Y343333D02*
X1006603Y330000D01*
X1006603Y330000D02*
X1003270Y323333D01*
X1003270Y323333D02*
X999937Y320000D01*
X999937Y320000D02*
X993270Y316667D01*
X993270Y316667D02*
X936603Y316667D01*
X1006603Y246667D02*
X1006603Y286667D01*
X1006603Y266667D02*
X936603Y266667D01*
X936603Y266667D02*
X946603Y273333D01*
X946603Y273333D02*
X953270Y280000D01*
X953270Y280000D02*
X956603Y286667D01*
X936603Y203333D02*
X936603Y196667D01*
X936603Y196667D02*
X939937Y190000D01*
X939937Y190000D02*
X943270Y186667D01*
X943270Y186667D02*
X949937Y183333D01*
X949937Y183333D02*
X963270Y180000D01*
X963270Y180000D02*
X979937Y180000D01*
X979937Y180000D02*
X993270Y183333D01*
X993270Y183333D02*
X999937Y186667D01*
X999937Y186667D02*
X1003270Y190000D01*
X1003270Y190000D02*
X1006603Y196667D01*
X1006603Y196667D02*
X1006603Y203333D01*
X1006603Y203333D02*
X1003270Y210000D01*
X1003270Y210000D02*
X999937Y213333D01*
X999937Y213333D02*
X993270Y216667D01*
X993270Y216667D02*
X979937Y220000D01*
X979937Y220000D02*
X963270Y220000D01*
X963270Y220000D02*
X949937Y216667D01*
X949937Y216667D02*
X943270Y213333D01*
X943270Y213333D02*
X939937Y210000D01*
X939937Y210000D02*
X936603Y203333D01*
X2284937Y2415000D02*
X2288270Y2418333D01*
X2288270Y2418333D02*
X2291603Y2428333D01*
X2291603Y2428333D02*
X2291603Y2435000D01*
X2291603Y2435000D02*
X2288270Y2445000D01*
X2288270Y2445000D02*
X2281603Y2451667D01*
X2281603Y2451667D02*
X2274937Y2455000D01*
X2274937Y2455000D02*
X2261603Y2458333D01*
X2261603Y2458333D02*
X2251603Y2458333D01*
X2251603Y2458333D02*
X2238270Y2455000D01*
X2238270Y2455000D02*
X2231603Y2451667D01*
X2231603Y2451667D02*
X2224937Y2445000D01*
X2224937Y2445000D02*
X2221603Y2435000D01*
X2221603Y2435000D02*
X2221603Y2428333D01*
X2221603Y2428333D02*
X2224937Y2418333D01*
X2224937Y2418333D02*
X2228270Y2415000D01*
X2221603Y2351667D02*
X2221603Y2385000D01*
X2221603Y2385000D02*
X2254937Y2388333D01*
X2254937Y2388333D02*
X2251603Y2385000D01*
X2251603Y2385000D02*
X2248270Y2378333D01*
X2248270Y2378333D02*
X2248270Y2361667D01*
X2248270Y2361667D02*
X2251603Y2355000D01*
X2251603Y2355000D02*
X2254937Y2351667D01*
X2254937Y2351667D02*
X2261603Y2348333D01*
X2261603Y2348333D02*
X2278270Y2348333D01*
X2278270Y2348333D02*
X2284937Y2351667D01*
X2284937Y2351667D02*
X2288270Y2355000D01*
X2288270Y2355000D02*
X2291603Y2361667D01*
X2291603Y2361667D02*
X2291603Y2378333D01*
X2291603Y2378333D02*
X2288270Y2385000D01*
X2288270Y2385000D02*
X2284937Y2388333D01*
X2221603Y2325000D02*
X2221603Y2278333D01*
X2221603Y2278333D02*
X2291603Y2308333D01*
X682937Y2436000D02*
X686270Y2439333D01*
X686270Y2439333D02*
X689603Y2449333D01*
X689603Y2449333D02*
X689603Y2456000D01*
X689603Y2456000D02*
X686270Y2466000D01*
X686270Y2466000D02*
X679603Y2472667D01*
X679603Y2472667D02*
X672937Y2476000D01*
X672937Y2476000D02*
X659603Y2479333D01*
X659603Y2479333D02*
X649603Y2479333D01*
X649603Y2479333D02*
X636270Y2476000D01*
X636270Y2476000D02*
X629603Y2472667D01*
X629603Y2472667D02*
X622937Y2466000D01*
X622937Y2466000D02*
X619603Y2456000D01*
X619603Y2456000D02*
X619603Y2449333D01*
X619603Y2449333D02*
X622937Y2439333D01*
X622937Y2439333D02*
X626270Y2436000D01*
X642937Y2376000D02*
X689603Y2376000D01*
X616270Y2392667D02*
X666270Y2409333D01*
X666270Y2409333D02*
X666270Y2366000D01*
X619603Y2346000D02*
X619603Y2299333D01*
X619603Y2299333D02*
X689603Y2329333D01*
X2181603Y698000D02*
X2111603Y698000D01*
X2111603Y698000D02*
X2111603Y681333D01*
X2111603Y681333D02*
X2114937Y671333D01*
X2114937Y671333D02*
X2121603Y664667D01*
X2121603Y664667D02*
X2128270Y661333D01*
X2128270Y661333D02*
X2141603Y658000D01*
X2141603Y658000D02*
X2151603Y658000D01*
X2151603Y658000D02*
X2164937Y661333D01*
X2164937Y661333D02*
X2171603Y664667D01*
X2171603Y664667D02*
X2178270Y671333D01*
X2178270Y671333D02*
X2181603Y681333D01*
X2181603Y681333D02*
X2181603Y698000D01*
X2181603Y591333D02*
X2181603Y631333D01*
X2181603Y611333D02*
X2111603Y611333D01*
X2111603Y611333D02*
X2121603Y618000D01*
X2121603Y618000D02*
X2128270Y624667D01*
X2128270Y624667D02*
X2131603Y631333D01*
X2111603Y531333D02*
X2111603Y544667D01*
X2111603Y544667D02*
X2114937Y551333D01*
X2114937Y551333D02*
X2118270Y554667D01*
X2118270Y554667D02*
X2128270Y561333D01*
X2128270Y561333D02*
X2141603Y564667D01*
X2141603Y564667D02*
X2168270Y564667D01*
X2168270Y564667D02*
X2174937Y561333D01*
X2174937Y561333D02*
X2178270Y558000D01*
X2178270Y558000D02*
X2181603Y551333D01*
X2181603Y551333D02*
X2181603Y538000D01*
X2181603Y538000D02*
X2178270Y531333D01*
X2178270Y531333D02*
X2174937Y528000D01*
X2174937Y528000D02*
X2168270Y524667D01*
X2168270Y524667D02*
X2151603Y524667D01*
X2151603Y524667D02*
X2144937Y528000D01*
X2144937Y528000D02*
X2141603Y531333D01*
X2141603Y531333D02*
X2138270Y538000D01*
X2138270Y538000D02*
X2138270Y551333D01*
X2138270Y551333D02*
X2141603Y558000D01*
X2141603Y558000D02*
X2144937Y561333D01*
X2144937Y561333D02*
X2151603Y564667D01*
X1446603Y478333D02*
X1503270Y478333D01*
X1503270Y478333D02*
X1509937Y475000D01*
X1509937Y475000D02*
X1513270Y471667D01*
X1513270Y471667D02*
X1516603Y465000D01*
X1516603Y465000D02*
X1516603Y451667D01*
X1516603Y451667D02*
X1513270Y445000D01*
X1513270Y445000D02*
X1509937Y441667D01*
X1509937Y441667D02*
X1503270Y438333D01*
X1503270Y438333D02*
X1446603Y438333D01*
X1516603Y401667D02*
X1516603Y388333D01*
X1516603Y388333D02*
X1513270Y381667D01*
X1513270Y381667D02*
X1509937Y378333D01*
X1509937Y378333D02*
X1499937Y371667D01*
X1499937Y371667D02*
X1486603Y368333D01*
X1486603Y368333D02*
X1459937Y368333D01*
X1459937Y368333D02*
X1453270Y371667D01*
X1453270Y371667D02*
X1449937Y375000D01*
X1449937Y375000D02*
X1446603Y381667D01*
X1446603Y381667D02*
X1446603Y395000D01*
X1446603Y395000D02*
X1449937Y401667D01*
X1449937Y401667D02*
X1453270Y405000D01*
X1453270Y405000D02*
X1459937Y408333D01*
X1459937Y408333D02*
X1476603Y408333D01*
X1476603Y408333D02*
X1483270Y405000D01*
X1483270Y405000D02*
X1486603Y401667D01*
X1486603Y401667D02*
X1489937Y395000D01*
X1489937Y395000D02*
X1489937Y381667D01*
X1489937Y381667D02*
X1486603Y375000D01*
X1486603Y375000D02*
X1483270Y371667D01*
X1483270Y371667D02*
X1476603Y368333D01*
X2388333Y2253397D02*
X2348333Y2253397D01*
X2368333Y2183397D02*
X2368333Y2253397D01*
X2325000Y2183397D02*
X2325000Y2253397D01*
X2325000Y2253397D02*
X2298333Y2253397D01*
X2298333Y2253397D02*
X2291667Y2250063D01*
X2291667Y2250063D02*
X2288333Y2246730D01*
X2288333Y2246730D02*
X2285000Y2240063D01*
X2285000Y2240063D02*
X2285000Y2230063D01*
X2285000Y2230063D02*
X2288333Y2223397D01*
X2288333Y2223397D02*
X2291667Y2220063D01*
X2291667Y2220063D02*
X2298333Y2216730D01*
X2298333Y2216730D02*
X2325000Y2216730D01*
X2221667Y2253397D02*
X2255000Y2253397D01*
X2255000Y2253397D02*
X2258333Y2220063D01*
X2258333Y2220063D02*
X2255000Y2223397D01*
X2255000Y2223397D02*
X2248333Y2226730D01*
X2248333Y2226730D02*
X2231667Y2226730D01*
X2231667Y2226730D02*
X2225000Y2223397D01*
X2225000Y2223397D02*
X2221667Y2220063D01*
X2221667Y2220063D02*
X2218333Y2213397D01*
X2218333Y2213397D02*
X2218333Y2196730D01*
X2218333Y2196730D02*
X2221667Y2190063D01*
X2221667Y2190063D02*
X2225000Y2186730D01*
X2225000Y2186730D02*
X2231667Y2183397D01*
X2231667Y2183397D02*
X2248333Y2183397D01*
X2248333Y2183397D02*
X2255000Y2186730D01*
X2255000Y2186730D02*
X2258333Y2190063D01*
D13*
%TO.C,C22*%
X1516000Y265784D02*
X1516000Y244216D01*
X1444000Y265784D02*
X1444000Y244216D01*
%TO.C,TP2*%
X550000Y2720000D02*
X550000Y2530000D01*
X550000Y2530000D02*
X740000Y2530000D01*
X740000Y2720000D02*
X550000Y2720000D01*
X740000Y2530000D02*
X740000Y2720000D01*
%TO.C,TP4*%
X1660000Y2720000D02*
X1660000Y2530000D01*
X1660000Y2530000D02*
X1850000Y2530000D01*
X1850000Y2720000D02*
X1660000Y2720000D01*
X1850000Y2530000D02*
X1850000Y2720000D01*
%TO.C,C66*%
X1881716Y1138500D02*
X1903284Y1138500D01*
X1881716Y1066500D02*
X1903284Y1066500D01*
%TO.C,C21*%
X1629216Y241000D02*
X1650784Y241000D01*
X1629216Y169000D02*
X1650784Y169000D01*
D14*
%TO.C,D10*%
X1564000Y85000D02*
G75*
G02*
X1554000Y85000I-5000J0D01*
G01*
X1554000Y85000D02*
G75*
G02*
X1564000Y85000I5000J0D01*
G01*
D13*
%TO.C,TP6*%
X2470000Y1875000D02*
G75*
G02*
X2330000Y1875000I-70000J0D01*
G01*
X2330000Y1875000D02*
G75*
G02*
X2470000Y1875000I70000J0D01*
G01*
%TO.C,MK1*%
X350000Y1045000D02*
X350000Y545000D01*
X350000Y1045000D02*
X720000Y1045000D01*
X350000Y545000D02*
X750000Y545000D01*
X750000Y1015000D02*
X750000Y545000D01*
X778000Y1045000D02*
X750000Y1045000D01*
X750000Y1073000D01*
X778000Y1045000D01*
G36*
X778000Y1045000D02*
G01*
X750000Y1045000D01*
X750000Y1073000D01*
X778000Y1045000D01*
G37*
%TO.C,C106*%
X1099784Y1122000D02*
X1078216Y1122000D01*
X1099784Y1050000D02*
X1078216Y1050000D01*
%TO.C,C103*%
X1079216Y826000D02*
X1100784Y826000D01*
X1079216Y754000D02*
X1100784Y754000D01*
D15*
%TO.C,Y1*%
X150000Y1520000D02*
G75*
G02*
X130000Y1520000I-10000J0D01*
G01*
X130000Y1520000D02*
G75*
G02*
X150000Y1520000I10000J0D01*
G01*
D14*
%TO.C,D5*%
X845500Y85000D02*
G75*
G02*
X835500Y85000I-5000J0D01*
G01*
X835500Y85000D02*
G75*
G02*
X845500Y85000I5000J0D01*
G01*
D13*
%TO.C,U4*%
X1190250Y2348750D02*
X890250Y2348750D01*
X1190250Y2121750D02*
X890250Y2121750D01*
X1273250Y2340250D02*
X1245250Y2340250D01*
X1245250Y2368250D01*
X1273250Y2340250D01*
G36*
X1273250Y2340250D02*
G01*
X1245250Y2340250D01*
X1245250Y2368250D01*
X1273250Y2340250D01*
G37*
%TO.C,C90*%
X538284Y1796000D02*
X516716Y1796000D01*
X538284Y1724000D02*
X516716Y1724000D01*
%TO.C,C86*%
X209216Y2043000D02*
X230784Y2043000D01*
X209216Y1971000D02*
X230784Y1971000D01*
%TO.C,C18*%
X854000Y245784D02*
X854000Y224216D01*
X926000Y245784D02*
X926000Y224216D01*
D12*
%TO.C,U8*%
X122500Y2345000D02*
X122500Y2342500D01*
X122500Y2345000D02*
X332500Y2345000D01*
X122500Y2042500D02*
X122500Y2040000D01*
X122500Y2040000D02*
X332500Y2040000D01*
X332500Y2345000D02*
X332500Y2342500D01*
X332500Y2042500D02*
X332500Y2040000D01*
D13*
X102500Y2064500D02*
X74500Y2092500D01*
X102500Y2092500D01*
X102500Y2064500D01*
G36*
X102500Y2064500D02*
G01*
X74500Y2092500D01*
X102500Y2092500D01*
X102500Y2064500D01*
G37*
%TO.C,U1*%
X1346500Y2261000D02*
X1346500Y2306000D01*
X1346500Y1629000D02*
X1346500Y1584000D01*
X1346500Y1584000D02*
X1391500Y1584000D01*
X2068500Y2306000D02*
X2023500Y2306000D01*
X2068500Y2261000D02*
X2068500Y2306000D01*
X2068500Y1629000D02*
X2068500Y1584000D01*
X2068500Y1584000D02*
X2023500Y1584000D01*
%TO.C,C34*%
X449000Y258284D02*
X449000Y236716D01*
X521000Y258284D02*
X521000Y236716D01*
%TO.C,D15*%
X1970000Y502500D02*
X2092000Y502500D01*
X1970000Y321000D02*
X1970000Y502500D01*
X2092000Y502500D02*
X2092000Y321000D01*
%TO.C,C12*%
X258284Y1456000D02*
X236716Y1456000D01*
X258284Y1384000D02*
X236716Y1384000D01*
%TO.C,C73*%
X1863216Y417000D02*
X1884784Y417000D01*
X1863216Y345000D02*
X1884784Y345000D01*
%TO.C,C74*%
X1881216Y241000D02*
X1902784Y241000D01*
X1881216Y169000D02*
X1902784Y169000D01*
%TO.C,C14*%
X1120784Y1972000D02*
X1099216Y1972000D01*
X1120784Y1900000D02*
X1099216Y1900000D01*
%TO.C,C26*%
X536784Y1138000D02*
X515216Y1138000D01*
X536784Y1066000D02*
X515216Y1066000D01*
%TO.C,C17*%
X1024000Y275784D02*
X1024000Y254216D01*
X1096000Y275784D02*
X1096000Y254216D01*
D14*
%TO.C,D2*%
X1407750Y85000D02*
G75*
G02*
X1397750Y85000I-5000J0D01*
G01*
X1397750Y85000D02*
G75*
G02*
X1407750Y85000I5000J0D01*
G01*
D13*
%TO.C,C107*%
X1217000Y953784D02*
X1217000Y932216D01*
X1289000Y953784D02*
X1289000Y932216D01*
%TO.C,U10*%
X1060000Y505000D02*
X980000Y505000D01*
X1060000Y373000D02*
X980000Y373000D01*
D16*
X1118053Y494000D02*
G75*
G02*
X1104018Y494000I-7018J0D01*
G01*
X1104018Y494000D02*
G75*
G02*
X1118053Y494000I7018J0D01*
G01*
D13*
%TO.C,C40*%
X1014000Y1308716D02*
X1014000Y1330284D01*
X1086000Y1308716D02*
X1086000Y1330284D01*
%TO.C,C8*%
X2225216Y1997000D02*
X2246784Y1997000D01*
X2225216Y1925000D02*
X2246784Y1925000D01*
%TO.C,C13*%
X257784Y1363500D02*
X236216Y1363500D01*
X257784Y1291500D02*
X236216Y1291500D01*
%TO.C,C35*%
X613284Y428500D02*
X591716Y428500D01*
X613284Y356500D02*
X591716Y356500D01*
%TO.C,C57*%
X2134000Y2366716D02*
X2134000Y2388284D01*
X2206000Y2366716D02*
X2206000Y2388284D01*
%TO.C,C109*%
X1115000Y932216D02*
X1115000Y953784D01*
X1187000Y932216D02*
X1187000Y953784D01*
%TO.C,C110*%
X1015000Y953784D02*
X1015000Y932216D01*
X1087000Y953784D02*
X1087000Y932216D01*
%TO.C,C108*%
X1322000Y932216D02*
X1322000Y953784D01*
X1394000Y932216D02*
X1394000Y953784D01*
%TO.C,C15*%
X1099216Y1878500D02*
X1120784Y1878500D01*
X1099216Y1806500D02*
X1120784Y1806500D01*
%TO.C,C52*%
X598784Y1888500D02*
X577216Y1888500D01*
X598784Y1816500D02*
X577216Y1816500D01*
%TO.C,C65*%
X1579000Y980784D02*
X1579000Y959216D01*
X1651000Y980784D02*
X1651000Y959216D01*
%TO.C,C47*%
X714000Y2392216D02*
X714000Y2413784D01*
X786000Y2392216D02*
X786000Y2413784D01*
%TO.C,D16*%
X1971000Y509500D02*
X1971000Y691000D01*
X2093000Y691000D02*
X2093000Y509500D01*
X2093000Y509500D02*
X1971000Y509500D01*
%TO.C,C101*%
X1329784Y745000D02*
X1308216Y745000D01*
X1329784Y673000D02*
X1308216Y673000D01*
%TO.C,C42*%
X1030784Y1711000D02*
X1009216Y1711000D01*
X1030784Y1639000D02*
X1009216Y1639000D01*
D14*
%TO.C,D4*%
X1032750Y85000D02*
G75*
G02*
X1022750Y85000I-5000J0D01*
G01*
X1022750Y85000D02*
G75*
G02*
X1032750Y85000I5000J0D01*
G01*
D13*
%TO.C,R3*%
X1119500Y1541636D02*
X1119500Y1572364D01*
X1195500Y1541636D02*
X1195500Y1572364D01*
%TO.C,U9*%
X1144000Y408500D02*
X1144000Y446000D01*
X1144000Y221500D02*
X1144000Y154000D01*
X1144000Y154000D02*
X1161500Y154000D01*
X1416000Y476000D02*
X1398500Y476000D01*
X1416000Y408500D02*
X1416000Y476000D01*
X1416000Y221500D02*
X1416000Y154000D01*
X1416000Y154000D02*
X1398500Y154000D01*
X1144000Y476000D02*
X1125000Y462000D01*
X1125000Y490000D01*
X1144000Y476000D01*
G36*
X1144000Y476000D02*
G01*
X1125000Y462000D01*
X1125000Y490000D01*
X1144000Y476000D01*
G37*
%TO.C,C105*%
X1329784Y1295000D02*
X1308216Y1295000D01*
X1329784Y1223000D02*
X1308216Y1223000D01*
%TO.C,TP5*%
X2470000Y2075000D02*
G75*
G02*
X2330000Y2075000I-70000J0D01*
G01*
X2330000Y2075000D02*
G75*
G02*
X2470000Y2075000I70000J0D01*
G01*
%TO.C,C104*%
X1308216Y653000D02*
X1329784Y653000D01*
X1308216Y581000D02*
X1329784Y581000D01*
%TO.C,C102*%
X1308216Y1203000D02*
X1329784Y1203000D01*
X1308216Y1131000D02*
X1329784Y1131000D01*
%TO.C,C89*%
X538284Y1701000D02*
X516716Y1701000D01*
X538284Y1629000D02*
X516716Y1629000D01*
D14*
%TO.C,D11*%
X1751500Y85000D02*
G75*
G02*
X1741500Y85000I-5000J0D01*
G01*
X1741500Y85000D02*
G75*
G02*
X1751500Y85000I5000J0D01*
G01*
%TO.C,D1*%
X1595250Y85000D02*
G75*
G02*
X1585250Y85000I-5000J0D01*
G01*
X1585250Y85000D02*
G75*
G02*
X1595250Y85000I5000J0D01*
G01*
D13*
%TO.C,C27*%
X773000Y932216D02*
X773000Y953784D01*
X845000Y932216D02*
X845000Y953784D01*
%TO.C,C100*%
X1100784Y734000D02*
X1079216Y734000D01*
X1100784Y662000D02*
X1079216Y662000D01*
D14*
%TO.C,D6*%
X658000Y85000D02*
G75*
G02*
X648000Y85000I-5000J0D01*
G01*
X648000Y85000D02*
G75*
G02*
X658000Y85000I5000J0D01*
G01*
D13*
%TO.C,C41*%
X1382216Y1403500D02*
X1403784Y1403500D01*
X1382216Y1331500D02*
X1403784Y1331500D01*
%TO.C,C99*%
X1078216Y1213500D02*
X1099784Y1213500D01*
X1078216Y1141500D02*
X1099784Y1141500D01*
%TO.C,C7*%
X2225784Y2108500D02*
X2204216Y2108500D01*
X2225784Y2036500D02*
X2204216Y2036500D01*
%TO.C,C88*%
X351500Y2173284D02*
X351500Y2151716D01*
X423500Y2173284D02*
X423500Y2151716D01*
D14*
%TO.C,D3*%
X1220250Y85000D02*
G75*
G02*
X1210250Y85000I-5000J0D01*
G01*
X1210250Y85000D02*
G75*
G02*
X1220250Y85000I5000J0D01*
G01*
D13*
%TO.C,C39*%
X1191716Y1403500D02*
X1213284Y1403500D01*
X1191716Y1331500D02*
X1213284Y1331500D01*
%TO.C,C6*%
X1286216Y1516000D02*
X1307784Y1516000D01*
X1286216Y1444000D02*
X1307784Y1444000D01*
%TD*%
M02*
