%TF.GenerationSoftware,KiCad,Pcbnew,9.0.0*%
%TF.CreationDate,2025-04-07T10:45:09-04:00*%
%TF.ProjectId,Expansion_Card_Retrofit,45787061-6e73-4696-9f6e-5f436172645f,X1*%
%TF.SameCoordinates,Original*%
%TF.FileFunction,Copper,L1,Top*%
%TF.FilePolarity,Positive*%
%FSLAX45Y45*%
G04 Gerber Fmt 4.5, Leading zero omitted, Abs format (unit mm)*
G04 Created by KiCad (PCBNEW 9.0.0) date 2025-04-07 10:45:09*
%MOMM*%
%LPD*%
G01*
G04 APERTURE LIST*
G04 Aperture macros list*
%AMRoundRect*
0 Rectangle with rounded corners*
0 $1 Rounding radius*
0 $2 $3 $4 $5 $6 $7 $8 $9 X,Y pos of 4 corners*
0 Add a 4 corners polygon primitive as box body*
4,1,4,$2,$3,$4,$5,$6,$7,$8,$9,$2,$3,0*
0 Add four circle primitives for the rounded corners*
1,1,$1+$1,$2,$3*
1,1,$1+$1,$4,$5*
1,1,$1+$1,$6,$7*
1,1,$1+$1,$8,$9*
0 Add four rect primitives between the rounded corners*
20,1,$1+$1,$2,$3,$4,$5,0*
20,1,$1+$1,$4,$5,$6,$7,0*
20,1,$1+$1,$6,$7,$8,$9,0*
20,1,$1+$1,$8,$9,$2,$3,0*%
%AMFreePoly0*
4,1,13,-0.500000,0.250000,-0.480970,0.345671,-0.426777,0.426777,-0.345671,0.480970,-0.250000,0.500000,0.500000,0.500000,0.500000,-0.500000,-0.250000,-0.500000,-0.345671,-0.480970,-0.426777,-0.426777,-0.480970,-0.345671,-0.500000,-0.250000,-0.500000,0.250000,-0.500000,0.250000,$1*%
%AMFreePoly1*
4,1,6,0.230000,0.054289,0.020711,-0.155000,-0.230000,-0.155000,-0.230000,0.155000,0.230000,0.155000,0.230000,0.054289,0.230000,0.054289,$1*%
%AMFreePoly2*
4,1,6,0.230000,-0.054289,0.230000,-0.155000,-0.230000,-0.155000,-0.230000,0.155000,0.020711,0.155000,0.230000,-0.054289,0.230000,-0.054289,$1*%
%AMFreePoly3*
4,1,6,0.230000,-0.155000,-0.230000,-0.155000,-0.230000,-0.054289,-0.020711,0.155000,0.230000,0.155000,0.230000,-0.155000,0.230000,-0.155000,$1*%
%AMFreePoly4*
4,1,6,0.230000,-0.155000,-0.020711,-0.155000,-0.230000,0.054289,-0.230000,0.155000,0.230000,0.155000,0.230000,-0.155000,0.230000,-0.155000,$1*%
G04 Aperture macros list end*
%TA.AperFunction,SMDPad,CuDef*%
%ADD10R,0.380000X1.000000*%
%TD*%
%TA.AperFunction,SMDPad,CuDef*%
%ADD11R,0.700000X1.150000*%
%TD*%
%TA.AperFunction,SMDPad,CuDef*%
%ADD12R,1.500000X1.500000*%
%TD*%
%TA.AperFunction,SMDPad,CuDef*%
%ADD13RoundRect,0.100000X-0.130000X-0.100000X0.130000X-0.100000X0.130000X0.100000X-0.130000X0.100000X0*%
%TD*%
%TA.AperFunction,SMDPad,CuDef*%
%ADD14RoundRect,0.100000X0.130000X0.100000X-0.130000X0.100000X-0.130000X-0.100000X0.130000X-0.100000X0*%
%TD*%
%TA.AperFunction,SMDPad,CuDef*%
%ADD15RoundRect,0.100000X0.100000X-0.130000X0.100000X0.130000X-0.100000X0.130000X-0.100000X-0.130000X0*%
%TD*%
%TA.AperFunction,SMDPad,CuDef*%
%ADD16RoundRect,0.140000X0.170000X-0.140000X0.170000X0.140000X-0.170000X0.140000X-0.170000X-0.140000X0*%
%TD*%
%TA.AperFunction,ComponentPad*%
%ADD17R,0.850000X0.850000*%
%TD*%
%TA.AperFunction,ComponentPad*%
%ADD18O,0.850000X0.850000*%
%TD*%
%TA.AperFunction,SMDPad,CuDef*%
%ADD19FreePoly0,270.000000*%
%TD*%
%TA.AperFunction,SMDPad,CuDef*%
%ADD20FreePoly0,90.000000*%
%TD*%
%TA.AperFunction,SMDPad,CuDef*%
%ADD21RoundRect,0.140000X-0.170000X0.140000X-0.170000X-0.140000X0.170000X-0.140000X0.170000X0.140000X0*%
%TD*%
%TA.AperFunction,SMDPad,CuDef*%
%ADD22RoundRect,0.100000X-0.100000X0.130000X-0.100000X-0.130000X0.100000X-0.130000X0.100000X0.130000X0*%
%TD*%
%TA.AperFunction,SMDPad,CuDef*%
%ADD23R,0.660000X0.220000*%
%TD*%
%TA.AperFunction,SMDPad,CuDef*%
%ADD24R,1.200000X1.400000*%
%TD*%
%TA.AperFunction,SMDPad,CuDef*%
%ADD25RoundRect,0.140000X-0.140000X-0.170000X0.140000X-0.170000X0.140000X0.170000X-0.140000X0.170000X0*%
%TD*%
%TA.AperFunction,SMDPad,CuDef*%
%ADD26RoundRect,0.093750X0.093750X0.106250X-0.093750X0.106250X-0.093750X-0.106250X0.093750X-0.106250X0*%
%TD*%
%TA.AperFunction,HeatsinkPad*%
%ADD27R,1.000000X1.600000*%
%TD*%
%TA.AperFunction,BGAPad,CuDef*%
%ADD28C,0.400000*%
%TD*%
%TA.AperFunction,SMDPad,CuDef*%
%ADD29R,0.650001X0.249999*%
%TD*%
%TA.AperFunction,SMDPad,CuDef*%
%ADD30RoundRect,0.140000X0.140000X0.170000X-0.140000X0.170000X-0.140000X-0.170000X0.140000X-0.170000X0*%
%TD*%
%TA.AperFunction,BGAPad,CuDef*%
%ADD31C,0.300000*%
%TD*%
%TA.AperFunction,SMDPad,CuDef*%
%ADD32RoundRect,0.225000X0.225000X0.250000X-0.225000X0.250000X-0.225000X-0.250000X0.225000X-0.250000X0*%
%TD*%
%TA.AperFunction,SMDPad,CuDef*%
%ADD33C,0.500000*%
%TD*%
%TA.AperFunction,SMDPad,CuDef*%
%ADD34RoundRect,0.050000X-0.350000X-0.050000X0.350000X-0.050000X0.350000X0.050000X-0.350000X0.050000X0*%
%TD*%
%TA.AperFunction,SMDPad,CuDef*%
%ADD35RoundRect,0.050000X-0.050000X-0.325000X0.050000X-0.325000X0.050000X0.325000X-0.050000X0.325000X0*%
%TD*%
%TA.AperFunction,SMDPad,CuDef*%
%ADD36R,0.200000X0.600000*%
%TD*%
%TA.AperFunction,SMDPad,CuDef*%
%ADD37FreePoly1,0.000000*%
%TD*%
%TA.AperFunction,SMDPad,CuDef*%
%ADD38FreePoly2,0.000000*%
%TD*%
%TA.AperFunction,SMDPad,CuDef*%
%ADD39FreePoly3,0.000000*%
%TD*%
%TA.AperFunction,SMDPad,CuDef*%
%ADD40FreePoly4,0.000000*%
%TD*%
%TA.AperFunction,SMDPad,CuDef*%
%ADD41RoundRect,0.145000X0.000000X-0.205061X0.205061X0.000000X0.000000X0.205061X-0.205061X0.000000X0*%
%TD*%
%TA.AperFunction,ComponentPad*%
%ADD42C,0.600000*%
%TD*%
%TA.AperFunction,ComponentPad*%
%ADD43C,0.500000*%
%TD*%
%TA.AperFunction,ViaPad*%
%ADD44C,0.400000*%
%TD*%
%TA.AperFunction,ViaPad*%
%ADD45C,0.800000*%
%TD*%
%TA.AperFunction,ViaPad*%
%ADD46C,0.500000*%
%TD*%
%TA.AperFunction,Conductor*%
%ADD47C,0.152400*%
%TD*%
%TA.AperFunction,Conductor*%
%ADD48C,0.254000*%
%TD*%
%TA.AperFunction,Conductor*%
%ADD49C,0.250000*%
%TD*%
G04 APERTURE END LIST*
D10*
%TO.P,P1,A1,GND*%
%TO.N,GND*%
X925000Y2551000D03*
%TO.P,P1,A2,TX1+*%
%TO.N,/TX1_P*%
X975000Y2551000D03*
%TO.P,P1,A3,TX1-*%
%TO.N,/TX1_N*%
X1025000Y2551000D03*
%TO.P,P1,A4,VBUS*%
%TO.N,Net-(P1-VBUS-PadA4)*%
X1075000Y2551000D03*
%TO.P,P1,A5,CC*%
%TO.N,Net-(P1-CC)*%
X1125000Y2551000D03*
%TO.P,P1,A6,D+*%
%TO.N,/C_USB_DP*%
X1175000Y2551000D03*
%TO.P,P1,A7,D-*%
%TO.N,/C_USB_DN*%
X1225000Y2551000D03*
%TO.P,P1,A8,SBU1*%
%TO.N,unconnected-(P1-SBU1-PadA8)*%
X1275000Y2551000D03*
%TO.P,P1,A9,VBUS*%
%TO.N,Net-(P1-VBUS-PadA4)*%
X1325000Y2551000D03*
%TO.P,P1,A10,RX2-*%
%TO.N,/RX2_N*%
X1375000Y2551000D03*
%TO.P,P1,A11,RX2+*%
%TO.N,/RX2_P*%
X1425000Y2551000D03*
%TO.P,P1,A12,GND*%
%TO.N,GND*%
X1475000Y2551000D03*
D11*
%TO.P,P1,S1,SHIELD*%
%TO.N,Net-(P1-SHIELD)*%
X858000Y2467000D03*
%TD*%
D12*
%TO.P,TP3,1,1*%
%TO.N,GND*%
X1755000Y2625000D03*
%TD*%
%TO.P,TP1,1,1*%
%TO.N,GND*%
X645000Y2625000D03*
%TD*%
D13*
%TO.P,R32,1*%
%TO.N,/RX2_N*%
X231500Y1537500D03*
%TO.P,R32,2*%
%TO.N,/R_TX2_P*%
X295500Y1537500D03*
%TD*%
D14*
%TO.P,R13,1*%
%TO.N,Net-(U2B-IO_WA_A2{slash}~{CFG_FAILED})*%
X1683500Y50000D03*
%TO.P,R13,2*%
%TO.N,Net-(D10-K)*%
X1619500Y50000D03*
%TD*%
D13*
%TO.P,C80,1*%
%TO.N,+3V3*%
X1595500Y2017500D03*
%TO.P,C80,2*%
%TO.N,GND*%
X1659500Y2017500D03*
%TD*%
D15*
%TO.P,C56,1*%
%TO.N,+1V1*%
X2000000Y1941000D03*
%TO.P,C56,2*%
%TO.N,GND*%
X2000000Y2005000D03*
%TD*%
%TO.P,C85,1*%
%TO.N,+2V5*%
X455000Y2125500D03*
%TO.P,C85,2*%
%TO.N,Net-(U7-FB)*%
X455000Y2189500D03*
%TD*%
D16*
%TO.P,C78,1*%
%TO.N,+2V5*%
X1780000Y1868000D03*
%TO.P,C78,2*%
%TO.N,GND*%
X1780000Y1964000D03*
%TD*%
D17*
%TO.P,J4,1,Pin_1*%
%TO.N,/IO_P*%
X2306000Y285000D03*
D18*
%TO.P,J4,2,Pin_2*%
%TO.N,GND*%
X2306000Y185000D03*
%TO.P,J4,3,Pin_3*%
%TO.N,/IO_N*%
X2206000Y285000D03*
%TO.P,J4,4,Pin_4*%
%TO.N,GND*%
X2206000Y185000D03*
%TD*%
D19*
%TO.P,JP1,1,A*%
%TO.N,Net-(JP1-A)*%
X384000Y871000D03*
D20*
%TO.P,JP1,2,B*%
%TO.N,/MIC_DOUT*%
X384000Y751000D03*
%TD*%
D21*
%TO.P,C2,1*%
%TO.N,/TX1_N*%
X892500Y1933500D03*
%TO.P,C2,2*%
%TO.N,/C_TX1_N*%
X892500Y1837500D03*
%TD*%
D22*
%TO.P,R1,1*%
%TO.N,Net-(P1-CC)*%
X1110000Y2280000D03*
%TO.P,R1,2*%
%TO.N,GND*%
X1110000Y2216000D03*
%TD*%
D14*
%TO.P,C59,1*%
%TO.N,+2V5*%
X2004000Y1824000D03*
%TO.P,C59,2*%
%TO.N,GND*%
X1940000Y1824000D03*
%TD*%
D13*
%TO.P,R23,1*%
%TO.N,/CC_CFG_CTRL_EN*%
X1981000Y51000D03*
%TO.P,R23,2*%
%TO.N,GND*%
X2045000Y51000D03*
%TD*%
D23*
%TO.P,J3,1,Pin_1*%
%TO.N,+2V5*%
X2140000Y1222000D03*
%TO.P,J3,2,Pin_2*%
%TO.N,GND*%
X2311000Y1222000D03*
%TO.P,J3,3,Pin_3*%
%TO.N,Net-(J3-Pin_3)*%
X2140000Y1262000D03*
%TO.P,J3,4,Pin_4*%
%TO.N,GND*%
X2311000Y1262000D03*
%TO.P,J3,5,Pin_5*%
%TO.N,Net-(J3-Pin_5)*%
X2140000Y1302000D03*
%TO.P,J3,6,Pin_6*%
%TO.N,GND*%
X2311000Y1302000D03*
%TO.P,J3,7,Pin_7*%
%TO.N,Net-(J3-Pin_7)*%
X2140000Y1342000D03*
%TO.P,J3,8,Pin_8*%
%TO.N,GND*%
X2311000Y1342000D03*
%TO.P,J3,9,Pin_9*%
%TO.N,Net-(J3-Pin_9)*%
X2140000Y1382000D03*
%TO.P,J3,10,Pin_10*%
%TO.N,GND*%
X2311000Y1382000D03*
%TO.P,J3,11,Pin_11*%
%TO.N,Net-(J3-Pin_11)*%
X2140000Y1422000D03*
%TO.P,J3,12,Pin_12*%
%TO.N,GND*%
X2311000Y1422000D03*
%TO.P,J3,13,Pin_13*%
%TO.N,Net-(J3-Pin_13)*%
X2140000Y1462000D03*
%TO.P,J3,14,Pin_14*%
%TO.N,GND*%
X2311000Y1462000D03*
%TO.P,J3,15,Pin_15*%
%TO.N,/CFG_MD2{slash}IO_WA_A1*%
X2140000Y1502000D03*
%TO.P,J3,16,Pin_16*%
%TO.N,GND*%
X2311000Y1502000D03*
%TO.P,J3,17,Pin_17*%
%TO.N,/CFG_MD3{slash}IO_WA_B1*%
X2140000Y1542000D03*
%TO.P,J3,18,Pin_18*%
%TO.N,GND*%
X2311000Y1542000D03*
%TO.P,J3,19,Pin_19*%
X2140000Y1582000D03*
%TO.P,J3,20,Pin_20*%
X2311000Y1582000D03*
%TD*%
D13*
%TO.P,R8,1*%
%TO.N,/LED3*%
X903500Y50000D03*
%TO.P,R8,2*%
%TO.N,/K3*%
X967500Y50000D03*
%TD*%
D24*
%TO.P,Y2,1,1*%
%TO.N,Net-(U1-XIN)*%
X2131000Y2133000D03*
%TO.P,Y2,2,2*%
%TO.N,GND*%
X2131000Y1913000D03*
%TO.P,Y2,3,3*%
%TO.N,Net-(U1-XOUT)*%
X2301000Y1913000D03*
%TO.P,Y2,4,4*%
%TO.N,GND*%
X2301000Y2133000D03*
%TD*%
D13*
%TO.P,R33,1*%
%TO.N,/RX2_P*%
X231500Y1615000D03*
%TO.P,R33,2*%
%TO.N,/R_TX2_N*%
X295500Y1615000D03*
%TD*%
D25*
%TO.P,C10,1*%
%TO.N,/TX2_N*%
X217000Y1352500D03*
%TO.P,C10,2*%
%TO.N,/C_TX2_P*%
X313000Y1352500D03*
%TD*%
D26*
%TO.P,U3,1,GND*%
%TO.N,GND*%
X2217500Y2294000D03*
%TO.P,U3,2,GND*%
X2217500Y2359000D03*
%TO.P,U3,3,GND*%
X2217500Y2424000D03*
%TO.P,U3,4,IN*%
%TO.N,VBUS*%
X2040000Y2424000D03*
%TO.P,U3,5,IN*%
X2040000Y2359000D03*
%TO.P,U3,6,IN*%
X2040000Y2294000D03*
D27*
%TO.P,U3,7,GND*%
%TO.N,GND*%
X2128750Y2359000D03*
%TD*%
D13*
%TO.P,R18,1*%
%TO.N,+2V5*%
X1308000Y1835000D03*
%TO.P,R18,2*%
%TO.N,/D_EN*%
X1372000Y1835000D03*
%TD*%
D21*
%TO.P,C81,1*%
%TO.N,+3V3*%
X1505000Y1988000D03*
%TO.P,C81,2*%
%TO.N,GND*%
X1505000Y1892000D03*
%TD*%
D28*
%TO.P,U2,A1,GND*%
%TO.N,GND*%
X1887000Y258000D03*
%TO.P,U2,A2,VDD_WC*%
%TO.N,+2V5*%
X1807000Y258000D03*
%TO.P,U2,A3,IO_NA_A0*%
%TO.N,unconnected-(U2C-IO_NA_A0-PadA3)*%
X1727000Y258000D03*
%TO.P,U2,A4,IO_NA_A1*%
%TO.N,unconnected-(U2C-IO_NA_A1-PadA4)*%
X1647000Y258000D03*
%TO.P,U2,A5,VDD_NA*%
%TO.N,+2V5*%
X1567000Y258000D03*
%TO.P,U2,A6,IO_NA_A4*%
%TO.N,unconnected-(U2C-IO_NA_A4-PadA6)*%
X1487000Y258000D03*
%TO.P,U2,A7,GND*%
%TO.N,GND*%
X1407000Y258000D03*
%TO.P,U2,A8,IO_NA_A7*%
%TO.N,/LED0*%
X1327000Y258000D03*
%TO.P,U2,A9,IO_NB_B0*%
%TO.N,/LED1*%
X1247000Y258000D03*
%TO.P,U2,A10,GND*%
%TO.N,GND*%
X1167000Y258000D03*
%TO.P,U2,A11,IO_NB_B2*%
%TO.N,unconnected-(U2C-IO_NB_B2-PadA11)*%
X1087000Y258000D03*
%TO.P,U2,A12,IO_NB_B4*%
%TO.N,/LED2*%
X1007000Y258000D03*
%TO.P,U2,A13,GND*%
%TO.N,GND*%
X927000Y258000D03*
%TO.P,U2,A14,IO_NB_B7*%
%TO.N,/LED4*%
X847000Y258000D03*
%TO.P,U2,A15,IO_EB_B8*%
%TO.N,unconnected-(U2D-IO_EB_B8-PadA15)*%
X767000Y258000D03*
%TO.P,U2,A16,VDD_EB*%
%TO.N,+2V5*%
X687000Y258000D03*
%TO.P,U2,A17,IO_EB_B5*%
%TO.N,unconnected-(U2D-IO_EB_B5-PadA17)*%
X607000Y258000D03*
%TO.P,U2,A18,GND*%
%TO.N,GND*%
X527000Y258000D03*
%TO.P,U2,B1,IO_WC_A8*%
%TO.N,/CC_CFG_CTRL_EN*%
X1887000Y338000D03*
%TO.P,U2,B2,IO_WC_B8*%
%TO.N,/CC_CFG_CTRL_CLK*%
X1807000Y338000D03*
%TO.P,U2,B3,IO_NA_B0*%
%TO.N,unconnected-(U2C-IO_NA_B0-PadB3)*%
X1727000Y338000D03*
%TO.P,U2,B4,IO_NA_B1*%
%TO.N,unconnected-(U2C-IO_NA_B1-PadB4)*%
X1647000Y338000D03*
%TO.P,U2,B5,IO_NA_A2*%
%TO.N,unconnected-(U2C-IO_NA_A2-PadB5)*%
X1567000Y338000D03*
%TO.P,U2,B6,IO_NA_B4*%
%TO.N,unconnected-(U2C-IO_NA_B4-PadB6)*%
X1487000Y338000D03*
%TO.P,U2,B7,VDD_NA*%
%TO.N,+2V5*%
X1407000Y338000D03*
%TO.P,U2,B8,IO_NA_B7*%
%TO.N,/IMU_INT2*%
X1327000Y338000D03*
%TO.P,U2,B9,IO_NB_A0*%
%TO.N,unconnected-(U2C-IO_NB_A0-PadB9)*%
X1247000Y338000D03*
%TO.P,U2,B10,VDD_NB*%
%TO.N,+2V5*%
X1167000Y338000D03*
%TO.P,U2,B11,IO_NB_A2*%
%TO.N,unconnected-(U2C-IO_NB_A2-PadB11)*%
X1087000Y338000D03*
%TO.P,U2,B12,IO_NB_A4*%
%TO.N,/LED3*%
X1007000Y338000D03*
%TO.P,U2,B13,VDD_NB*%
%TO.N,+2V5*%
X927000Y338000D03*
%TO.P,U2,B14,IO_NB_A7*%
%TO.N,/LED5*%
X847000Y338000D03*
%TO.P,U2,B15,IO_EB_A8*%
%TO.N,unconnected-(U2D-IO_EB_A8-PadB15)*%
X767000Y338000D03*
%TO.P,U2,B16,GND*%
%TO.N,GND*%
X687000Y338000D03*
%TO.P,U2,B17,IO_EB_A5*%
%TO.N,unconnected-(U2D-IO_EB_A5-PadB17)*%
X607000Y338000D03*
%TO.P,U2,B18,VDD_EB*%
%TO.N,+2V5*%
X527000Y338000D03*
%TO.P,U2,C1,GND*%
%TO.N,GND*%
X1887000Y418000D03*
%TO.P,U2,C2,VDD_WC*%
%TO.N,+2V5*%
X1807000Y418000D03*
%TO.P,U2,C3,IO_WC_A7*%
%TO.N,unconnected-(U2F-IO_WC_A7-PadC3)*%
X1727000Y418000D03*
%TO.P,U2,C4,IO_WC_B7*%
%TO.N,unconnected-(U2F-IO_WC_B7-PadC4)*%
X1647000Y418000D03*
%TO.P,U2,C5,IO_NA_B2*%
%TO.N,/IMU_INT1*%
X1567000Y418000D03*
%TO.P,U2,C6,IO_NA_A3*%
%TO.N,/SDA0*%
X1487000Y418000D03*
%TO.P,U2,C7,IO_NA_A5*%
%TO.N,unconnected-(U2C-IO_NA_A5-PadC7)*%
X1407000Y418000D03*
%TO.P,U2,C8,IO_NA_A6*%
%TO.N,unconnected-(U2C-IO_NA_A6-PadC8)*%
X1327000Y418000D03*
%TO.P,U2,C9,IO_NA_A8*%
%TO.N,unconnected-(U2C-IO_NA_A8-PadC9)*%
X1247000Y418000D03*
%TO.P,U2,C10,IO_NB_B1*%
%TO.N,unconnected-(U2C-IO_NB_B1-PadC10)*%
X1167000Y418000D03*
%TO.P,U2,C11,IO_NB_B3*%
%TO.N,unconnected-(U2C-IO_NB_B3-PadC11)*%
X1087000Y418000D03*
%TO.P,U2,C12,IO_NB_B5*%
%TO.N,unconnected-(U2C-IO_NB_B5-PadC12)*%
X1007000Y418000D03*
%TO.P,U2,C13,IO_NB_B6*%
%TO.N,/SDA2*%
X927000Y418000D03*
%TO.P,U2,C14,IO_NB_B8*%
%TO.N,/SCL2*%
X847000Y418000D03*
%TO.P,U2,C15,IO_EB_B7*%
%TO.N,unconnected-(U2D-IO_EB_B7-PadC15)*%
X767000Y418000D03*
%TO.P,U2,C16,IO_EB_B6*%
%TO.N,unconnected-(U2D-IO_EB_B6-PadC16)*%
X687000Y418000D03*
%TO.P,U2,C17,IO_EB_B4*%
%TO.N,/RX1*%
X607000Y418000D03*
%TO.P,U2,C18,IO_EB_A4*%
%TO.N,/RX0*%
X527000Y418000D03*
%TO.P,U2,D1,IO_WC_A5*%
%TO.N,unconnected-(U2F-IO_WC_A5-PadD1)*%
X1887000Y498000D03*
%TO.P,U2,D2,IO_WC_B5*%
%TO.N,/CC_CFG_CTRL_VALID*%
X1807000Y498000D03*
%TO.P,U2,D3,IO_WC_A6*%
%TO.N,unconnected-(U2F-IO_WC_A6-PadD3)*%
X1727000Y498000D03*
%TO.P,U2,D4,IO_WC_B6*%
%TO.N,unconnected-(U2F-IO_WC_B6-PadD4)*%
X1647000Y498000D03*
%TO.P,U2,D5,VDD_WC*%
%TO.N,+2V5*%
X1567000Y498000D03*
%TO.P,U2,D6,IO_NA_B3*%
%TO.N,/SCL0*%
X1487000Y498000D03*
%TO.P,U2,D7,IO_NA_B5*%
%TO.N,unconnected-(U2C-IO_NA_B5-PadD7)*%
X1407000Y498000D03*
%TO.P,U2,D8,IO_NA_B6*%
%TO.N,unconnected-(U2C-IO_NA_B6-PadD8)*%
X1327000Y498000D03*
%TO.P,U2,D9,IO_NA_B8*%
%TO.N,unconnected-(U2C-IO_NA_B8-PadD9)*%
X1247000Y498000D03*
%TO.P,U2,D10,IO_NB_A1*%
%TO.N,unconnected-(U2C-IO_NB_A1-PadD10)*%
X1167000Y498000D03*
%TO.P,U2,D11,IO_NB_A3*%
%TO.N,unconnected-(U2C-IO_NB_A3-PadD11)*%
X1087000Y498000D03*
%TO.P,U2,D12,IO_NB_A5*%
%TO.N,unconnected-(U2C-IO_NB_A5-PadD12)*%
X1007000Y498000D03*
%TO.P,U2,D13,IO_NB_A6*%
%TO.N,unconnected-(U2C-IO_NB_A6-PadD13)*%
X927000Y498000D03*
%TO.P,U2,D14,IO_NB_A8*%
%TO.N,unconnected-(U2C-IO_NB_A8-PadD14)*%
X847000Y498000D03*
%TO.P,U2,D15,IO_EB_A7*%
%TO.N,unconnected-(U2D-IO_EB_A7-PadD15)*%
X767000Y498000D03*
%TO.P,U2,D16,IO_EB_A6*%
%TO.N,unconnected-(U2D-IO_EB_A6-PadD16)*%
X687000Y498000D03*
%TO.P,U2,D17,IO_EB_B2*%
%TO.N,/TX1*%
X607000Y498000D03*
%TO.P,U2,D18,IO_EB_A2*%
%TO.N,/TX0*%
X527000Y498000D03*
%TO.P,U2,E1,IO_WC_A3*%
%TO.N,unconnected-(U2F-IO_WC_A3-PadE1)*%
X1887000Y578000D03*
%TO.P,U2,E2,IO_WC_B3*%
%TO.N,unconnected-(U2F-IO_WC_B3-PadE2)*%
X1807000Y578000D03*
%TO.P,U2,E3,IO_WC_A4*%
%TO.N,/IO_P*%
X1727000Y578000D03*
%TO.P,U2,E4,IO_WC_B4*%
%TO.N,/IO_N*%
X1647000Y578000D03*
%TO.P,U2,E5,GND*%
%TO.N,GND*%
X1567000Y578000D03*
%TO.P,U2,E6,VDD_NA*%
%TO.N,+2V5*%
X1487000Y578000D03*
%TO.P,U2,E7,GND*%
%TO.N,GND*%
X1407000Y578000D03*
%TO.P,U2,E8,VDD_NA*%
%TO.N,+2V5*%
X1327000Y578000D03*
%TO.P,U2,E9,GND*%
%TO.N,GND*%
X1247000Y578000D03*
%TO.P,U2,E10,VDD_NB*%
%TO.N,+2V5*%
X1167000Y578000D03*
%TO.P,U2,E11,GND*%
%TO.N,GND*%
X1087000Y578000D03*
%TO.P,U2,E12,VDD_NB*%
%TO.N,+2V5*%
X1007000Y578000D03*
%TO.P,U2,E13,GND*%
%TO.N,GND*%
X927000Y578000D03*
%TO.P,U2,E14,VDD_EB*%
%TO.N,+2V5*%
X847000Y578000D03*
%TO.P,U2,E15,IO_EB_B3*%
%TO.N,unconnected-(U2D-IO_EB_B3-PadE15)*%
X767000Y578000D03*
%TO.P,U2,E16,IO_EB_A3*%
%TO.N,unconnected-(U2D-IO_EB_A3-PadE16)*%
X687000Y578000D03*
%TO.P,U2,E17,VDD_EB*%
%TO.N,+2V5*%
X607000Y578000D03*
%TO.P,U2,E18,GND*%
%TO.N,GND*%
X527000Y578000D03*
%TO.P,U2,F1,GND*%
X1887000Y658000D03*
%TO.P,U2,F2,VDD_WC*%
%TO.N,+2V5*%
X1807000Y658000D03*
%TO.P,U2,F3,IO_WC_A2*%
%TO.N,unconnected-(U2F-IO_WC_A2-PadF3)*%
X1727000Y658000D03*
%TO.P,U2,F4,IO_WC_B2*%
%TO.N,unconnected-(U2F-IO_WC_B2-PadF4)*%
X1647000Y658000D03*
%TO.P,U2,F5,VDD_WC*%
%TO.N,+2V5*%
X1567000Y658000D03*
%TO.P,U2,F6,GND*%
%TO.N,GND*%
X1487000Y658000D03*
%TO.P,U2,F7,VDD_NA*%
%TO.N,+2V5*%
X1407000Y658000D03*
%TO.P,U2,F8,GND*%
%TO.N,GND*%
X1327000Y658000D03*
%TO.P,U2,F9,VDD*%
%TO.N,+1V1*%
X1247000Y658000D03*
%TO.P,U2,F10,GND*%
%TO.N,GND*%
X1167000Y658000D03*
%TO.P,U2,F11,VDD_NB*%
%TO.N,+2V5*%
X1087000Y658000D03*
%TO.P,U2,F12,GND*%
%TO.N,GND*%
X1007000Y658000D03*
%TO.P,U2,F13,VDD_EB*%
%TO.N,+2V5*%
X927000Y658000D03*
%TO.P,U2,F14,GND*%
%TO.N,GND*%
X847000Y658000D03*
%TO.P,U2,F15,IO_EB_B1*%
%TO.N,unconnected-(U2D-IO_EB_B1-PadF15)*%
X767000Y658000D03*
%TO.P,U2,F16,IO_EB_A1*%
%TO.N,unconnected-(U2D-IO_EB_A1-PadF16)*%
X687000Y658000D03*
%TO.P,U2,F17,IO_EB_B0*%
%TO.N,unconnected-(U2D-IO_EB_B0-PadF17)*%
X607000Y658000D03*
%TO.P,U2,F18,IO_EB_A0*%
%TO.N,/MIC_CLK*%
X527000Y658000D03*
%TO.P,U2,G1,IO_WC_A0*%
%TO.N,unconnected-(U2F-IO_WC_A0-PadG1)*%
X1887000Y738000D03*
%TO.P,U2,G2,IO_WC_B0*%
%TO.N,unconnected-(U2F-IO_WC_B0-PadG2)*%
X1807000Y738000D03*
%TO.P,U2,G3,IO_WC_A1*%
%TO.N,unconnected-(U2F-IO_WC_A1-PadG3)*%
X1727000Y738000D03*
%TO.P,U2,G4,IO_WC_B1*%
%TO.N,unconnected-(U2F-IO_WC_B1-PadG4)*%
X1647000Y738000D03*
%TO.P,U2,G5,GND*%
%TO.N,GND*%
X1567000Y738000D03*
%TO.P,U2,G6,VDD*%
%TO.N,+1V1*%
X1487000Y738000D03*
%TO.P,U2,G7,GND*%
%TO.N,GND*%
X1407000Y738000D03*
%TO.P,U2,G8,VDD*%
%TO.N,+1V1*%
X1327000Y738000D03*
%TO.P,U2,G9,GND*%
%TO.N,GND*%
X1247000Y738000D03*
%TO.P,U2,G10,VDD*%
%TO.N,+1V1*%
X1167000Y738000D03*
%TO.P,U2,G11,GND*%
%TO.N,GND*%
X1087000Y738000D03*
%TO.P,U2,G12,VDD*%
%TO.N,+1V1*%
X1007000Y738000D03*
%TO.P,U2,G13,GND*%
%TO.N,GND*%
X927000Y738000D03*
%TO.P,U2,G14,VDD_EA*%
%TO.N,+2V5*%
X847000Y738000D03*
%TO.P,U2,G15,IO_EA_B8*%
%TO.N,unconnected-(U2D-IO_EA_B8-PadG15)*%
X767000Y738000D03*
%TO.P,U2,G16,IO_EA_A8*%
%TO.N,unconnected-(U2D-IO_EA_A8-PadG16)*%
X687000Y738000D03*
%TO.P,U2,G17,IO_EA_B7*%
%TO.N,/MIC_LR*%
X607000Y738000D03*
%TO.P,U2,G18,IO_EA_A7*%
%TO.N,/MIC_DOUT*%
X527000Y738000D03*
%TO.P,U2,H1,IO_WB_A7*%
%TO.N,/HSTX_1_P*%
X1887000Y818000D03*
%TO.P,U2,H2,IO_WB_B7*%
%TO.N,/HSTX_1_N*%
X1807000Y818000D03*
%TO.P,U2,H3,IO_WB_A8*%
%TO.N,unconnected-(U2F-IO_WB_A8-PadH3)*%
X1727000Y818000D03*
%TO.P,U2,H4,IO_WB_B8*%
%TO.N,unconnected-(U2F-IO_WB_B8-PadH4)*%
X1647000Y818000D03*
%TO.P,U2,H5,VDD_WB*%
%TO.N,+2V5*%
X1567000Y818000D03*
%TO.P,U2,H6,GND*%
%TO.N,GND*%
X1487000Y818000D03*
%TO.P,U2,H7,VDD*%
%TO.N,+1V1*%
X1407000Y818000D03*
%TO.P,U2,H8,GND*%
%TO.N,GND*%
X1327000Y818000D03*
%TO.P,U2,H9,VDD*%
%TO.N,+1V1*%
X1247000Y818000D03*
%TO.P,U2,H10,GND*%
%TO.N,GND*%
X1167000Y818000D03*
%TO.P,U2,H11,VDD*%
%TO.N,+1V1*%
X1087000Y818000D03*
%TO.P,U2,H12,GND*%
%TO.N,GND*%
X1007000Y818000D03*
%TO.P,U2,H13,VDD*%
%TO.N,+1V1*%
X927000Y818000D03*
%TO.P,U2,H14,GND*%
%TO.N,GND*%
X847000Y818000D03*
%TO.P,U2,H15,IO_EA_B6*%
%TO.N,unconnected-(U2D-IO_EA_B6-PadH15)*%
X767000Y818000D03*
%TO.P,U2,H16,IO_EA_A6*%
%TO.N,unconnected-(U2D-IO_EA_A6-PadH16)*%
X687000Y818000D03*
%TO.P,U2,H17,VDD_EA*%
%TO.N,+2V5*%
X607000Y818000D03*
%TO.P,U2,H18,GND*%
%TO.N,GND*%
X527000Y818000D03*
%TO.P,U2,J1,GND*%
X1887000Y898000D03*
%TO.P,U2,J2,VDD_WB*%
%TO.N,+2V5*%
X1807000Y898000D03*
%TO.P,U2,J3,IO_WB_A6*%
%TO.N,unconnected-(U2F-IO_WB_A6-PadJ3)*%
X1727000Y898000D03*
%TO.P,U2,J4,IO_WB_B6*%
%TO.N,unconnected-(U2F-IO_WB_B6-PadJ4)*%
X1647000Y898000D03*
%TO.P,U2,J5,GND*%
%TO.N,GND*%
X1567000Y898000D03*
%TO.P,U2,J6,VDD*%
%TO.N,+1V1*%
X1487000Y898000D03*
%TO.P,U2,J7,GND*%
%TO.N,GND*%
X1407000Y898000D03*
%TO.P,U2,J8,VDD*%
%TO.N,+1V1*%
X1327000Y898000D03*
%TO.P,U2,J9,GND*%
%TO.N,GND*%
X1247000Y898000D03*
%TO.P,U2,J10,VDD*%
%TO.N,+1V1*%
X1167000Y898000D03*
%TO.P,U2,J11,GND*%
%TO.N,GND*%
X1087000Y898000D03*
%TO.P,U2,J12,VDD*%
%TO.N,+1V1*%
X1007000Y898000D03*
%TO.P,U2,J13,GND*%
%TO.N,GND*%
X927000Y898000D03*
%TO.P,U2,J14,VDD_EA*%
%TO.N,+2V5*%
X847000Y898000D03*
%TO.P,U2,J15,IO_EA_B5*%
%TO.N,unconnected-(U2D-IO_EA_B5-PadJ15)*%
X767000Y898000D03*
%TO.P,U2,J16,IO_EA_A5*%
%TO.N,unconnected-(U2D-IO_EA_A5-PadJ16)*%
X687000Y898000D03*
%TO.P,U2,J17,IO_EA_B4*%
%TO.N,unconnected-(U2D-IO_EA_B4-PadJ17)*%
X607000Y898000D03*
%TO.P,U2,J18,IO_EA_A4*%
%TO.N,unconnected-(U2D-IO_EA_A4-PadJ18)*%
X527000Y898000D03*
%TO.P,U2,K1,IO_WB_A5*%
%TO.N,/HSTX_2_P*%
X1887000Y978000D03*
%TO.P,U2,K2,IO_WB_B5*%
%TO.N,/HSTX_2_N*%
X1807000Y978000D03*
%TO.P,U2,K3,IO_WB_A4*%
%TO.N,unconnected-(U2F-IO_WB_A4-PadK3)*%
X1727000Y978000D03*
%TO.P,U2,K4,IO_WB_B4*%
%TO.N,unconnected-(U2F-IO_WB_B4-PadK4)*%
X1647000Y978000D03*
%TO.P,U2,K5,VDD_WB*%
%TO.N,+2V5*%
X1567000Y978000D03*
%TO.P,U2,K6,GND*%
%TO.N,GND*%
X1487000Y978000D03*
%TO.P,U2,K7,VDD*%
%TO.N,+1V1*%
X1407000Y978000D03*
%TO.P,U2,K8,GND*%
%TO.N,GND*%
X1327000Y978000D03*
%TO.P,U2,K9,VDD*%
%TO.N,+1V1*%
X1247000Y978000D03*
%TO.P,U2,K10,GND*%
%TO.N,GND*%
X1167000Y978000D03*
%TO.P,U2,K11,VDD*%
%TO.N,+1V1*%
X1087000Y978000D03*
%TO.P,U2,K12,GND*%
%TO.N,GND*%
X1007000Y978000D03*
%TO.P,U2,K13,VDD*%
%TO.N,+1V1*%
X927000Y978000D03*
%TO.P,U2,K14,GND*%
%TO.N,GND*%
X847000Y978000D03*
%TO.P,U2,K15,IO_EA_B3*%
%TO.N,unconnected-(U2D-IO_EA_B3-PadK15)*%
X767000Y978000D03*
%TO.P,U2,K16,IO_EA_A3*%
%TO.N,unconnected-(U2D-IO_EA_A3-PadK16)*%
X687000Y978000D03*
%TO.P,U2,K17,IO_EA_B2*%
%TO.N,/SDA1*%
X607000Y978000D03*
%TO.P,U2,K18,IO_EA_A2*%
%TO.N,/SCL1*%
X527000Y978000D03*
%TO.P,U2,L1,IO_WB_A3*%
%TO.N,/HSTX_0_P*%
X1887000Y1058000D03*
%TO.P,U2,L2,IO_WB_B3*%
%TO.N,/HSTX_0_N*%
X1807000Y1058000D03*
%TO.P,U2,L3,IO_WB_A2*%
%TO.N,unconnected-(U2F-IO_WB_A2-PadL3)*%
X1727000Y1058000D03*
%TO.P,U2,L4,IO_WB_B2*%
%TO.N,unconnected-(U2F-IO_WB_B2-PadL4)*%
X1647000Y1058000D03*
%TO.P,U2,L5,GND*%
%TO.N,GND*%
X1567000Y1058000D03*
%TO.P,U2,L6,VDD*%
%TO.N,+1V1*%
X1487000Y1058000D03*
%TO.P,U2,L7,GND*%
%TO.N,GND*%
X1407000Y1058000D03*
%TO.P,U2,L8,VDD*%
%TO.N,+1V1*%
X1327000Y1058000D03*
%TO.P,U2,L9,GND*%
%TO.N,GND*%
X1247000Y1058000D03*
%TO.P,U2,L10,VDD*%
%TO.N,+1V1*%
X1167000Y1058000D03*
%TO.P,U2,L11,GND*%
%TO.N,GND*%
X1087000Y1058000D03*
%TO.P,U2,L12,VDD*%
%TO.N,+1V1*%
X1007000Y1058000D03*
%TO.P,U2,L13,GND*%
%TO.N,GND*%
X927000Y1058000D03*
%TO.P,U2,L14,VDD_EA*%
%TO.N,+2V5*%
X847000Y1058000D03*
%TO.P,U2,L15,IO_EA_B1*%
%TO.N,unconnected-(U2D-IO_EA_B1-PadL15)*%
X767000Y1058000D03*
%TO.P,U2,L16,IO_EA_A1*%
%TO.N,unconnected-(U2D-IO_EA_A1-PadL16)*%
X687000Y1058000D03*
%TO.P,U2,L17,VDD_EA*%
%TO.N,+2V5*%
X607000Y1058000D03*
%TO.P,U2,L18,GND*%
%TO.N,GND*%
X527000Y1058000D03*
%TO.P,U2,M1,GND*%
X1887000Y1138000D03*
%TO.P,U2,M2,VDD_WB*%
%TO.N,+2V5*%
X1807000Y1138000D03*
%TO.P,U2,M3,IO_WB_A1*%
%TO.N,unconnected-(U2F-IO_WB_A1-PadM3)*%
X1727000Y1138000D03*
%TO.P,U2,M4,IO_WB_B1*%
%TO.N,unconnected-(U2F-IO_WB_B1-PadM4)*%
X1647000Y1138000D03*
%TO.P,U2,M5,VDD_WB*%
%TO.N,+2V5*%
X1567000Y1138000D03*
%TO.P,U2,M6,GND*%
%TO.N,GND*%
X1487000Y1138000D03*
%TO.P,U2,M7,VDD*%
%TO.N,+1V1*%
X1407000Y1138000D03*
%TO.P,U2,M8,GND*%
%TO.N,GND*%
X1327000Y1138000D03*
%TO.P,U2,M9,VDD*%
%TO.N,+1V1*%
X1247000Y1138000D03*
%TO.P,U2,M10,GND*%
%TO.N,GND*%
X1167000Y1138000D03*
%TO.P,U2,M11,VDD*%
%TO.N,+1V1*%
X1087000Y1138000D03*
%TO.P,U2,M12,GND*%
%TO.N,GND*%
X1007000Y1138000D03*
%TO.P,U2,M13,VDD*%
%TO.N,+1V1*%
X927000Y1138000D03*
%TO.P,U2,M14,IO_EA_B0*%
%TO.N,unconnected-(U2D-IO_EA_B0-PadM14)*%
X847000Y1138000D03*
%TO.P,U2,M15,IO_EA_A0*%
%TO.N,unconnected-(U2D-IO_EA_A0-PadM15)*%
X767000Y1138000D03*
%TO.P,U2,M16,GND*%
%TO.N,GND*%
X687000Y1138000D03*
%TO.P,U2,M17,IO_SB_A3/SER_TX3_P*%
%TO.N,unconnected-(U2E-IO_SB_A3{slash}SER_TX3_P-PadM17)*%
X607000Y1138000D03*
%TO.P,U2,M18,IO_SB_B3/SER_TX3_N*%
%TO.N,unconnected-(U2E-IO_SB_B3{slash}SER_TX3_N-PadM18)*%
X527000Y1138000D03*
%TO.P,U2,N1,IO_WB_A0*%
%TO.N,/HSTX_3_P*%
X1887000Y1218000D03*
%TO.P,U2,N2,IO_WB_B0*%
%TO.N,/HSTX_3_N*%
X1807000Y1218000D03*
%TO.P,U2,N3,IO_WA_A8/~{SPI_CS}*%
%TO.N,Net-(J3-Pin_11)*%
X1727000Y1218000D03*
%TO.P,U2,N4,IO_WA_B8/SPI_CLK*%
%TO.N,Net-(J3-Pin_13)*%
X1647000Y1218000D03*
%TO.P,U2,N5,VDD_WA*%
%TO.N,+2V5*%
X1567000Y1218000D03*
%TO.P,U2,N6,VDD*%
%TO.N,+1V1*%
X1487000Y1218000D03*
%TO.P,U2,N7,GND*%
%TO.N,GND*%
X1407000Y1218000D03*
%TO.P,U2,N8,VDD*%
%TO.N,+1V1*%
X1327000Y1218000D03*
%TO.P,U2,N9,GND*%
%TO.N,GND*%
X1247000Y1218000D03*
%TO.P,U2,N10,VDD*%
%TO.N,+1V1*%
X1167000Y1218000D03*
%TO.P,U2,N11,VDD_SB*%
%TO.N,+2V5*%
X1087000Y1218000D03*
%TO.P,U2,N12,GND*%
%TO.N,GND*%
X1007000Y1218000D03*
%TO.P,U2,N13,VDD_SB*%
%TO.N,+2V5*%
X927000Y1218000D03*
%TO.P,U2,N14,CLK0/IO_SB_A8*%
%TO.N,unconnected-(U2E-CLK0{slash}IO_SB_A8-PadN14)*%
X847000Y1218000D03*
%TO.P,U2,N15,IO_SB_B8*%
%TO.N,unconnected-(U2E-IO_SB_B8-PadN15)*%
X767000Y1218000D03*
%TO.P,U2,N16,NC/VDD_SER*%
%TO.N,Net-(U2G-NC{slash}VDD_SER)*%
X687000Y1218000D03*
%TO.P,U2,N17,GND*%
%TO.N,GND*%
X607000Y1218000D03*
%TO.P,U2,N18,VDD_SB/SER_TERM3*%
%TO.N,Net-(R27-Pad2)*%
X527000Y1218000D03*
%TO.P,U2,P1,IO_WA_A7/SPI_D1*%
%TO.N,Net-(J3-Pin_5)*%
X1887000Y1298000D03*
%TO.P,U2,P2,IO_WA_B7/SPI_D0*%
%TO.N,Net-(J3-Pin_3)*%
X1807000Y1298000D03*
%TO.P,U2,P3,VDD_WA*%
%TO.N,+2V5*%
X1727000Y1298000D03*
%TO.P,U2,P4,GND*%
%TO.N,GND*%
X1647000Y1298000D03*
%TO.P,U2,P5,VDD_WA*%
%TO.N,+2V5*%
X1567000Y1298000D03*
%TO.P,U2,P6,VDD_SA*%
X1487000Y1298000D03*
%TO.P,U2,P7,GND*%
%TO.N,GND*%
X1407000Y1298000D03*
%TO.P,U2,P8,VDD_SA*%
%TO.N,+2V5*%
X1327000Y1298000D03*
%TO.P,U2,P9,GND*%
%TO.N,GND*%
X1247000Y1298000D03*
%TO.P,U2,P10,VDD_SA*%
%TO.N,+2V5*%
X1167000Y1298000D03*
%TO.P,U2,P11,IO_SB_A4*%
%TO.N,unconnected-(U2E-IO_SB_A4-PadP11)*%
X1087000Y1298000D03*
%TO.P,U2,P12,CLK1/IO_SB_A7*%
%TO.N,/GPIO23_GPOUT1*%
X1007000Y1298000D03*
%TO.P,U2,P13,IO_SB_B7*%
%TO.N,unconnected-(U2E-IO_SB_B7-PadP13)*%
X927000Y1298000D03*
%TO.P,U2,P14,CLK2/IO_SB_A6*%
%TO.N,unconnected-(U2E-CLK2{slash}IO_SB_A6-PadP14)*%
X847000Y1298000D03*
%TO.P,U2,P15,IO_SB_B6*%
%TO.N,unconnected-(U2E-IO_SB_B6-PadP15)*%
X767000Y1298000D03*
%TO.P,U2,P16,VDD_PLL*%
%TO.N,+1V1*%
X687000Y1298000D03*
%TO.P,U2,P17,IO_SB_A2/SER_RX3_P*%
%TO.N,unconnected-(U2E-IO_SB_A2{slash}SER_RX3_P-PadP17)*%
X607000Y1298000D03*
%TO.P,U2,P18,IO_SB_B2/SER_RX3_N*%
%TO.N,unconnected-(U2E-IO_SB_B2{slash}SER_RX3_N-PadP18)*%
X527000Y1298000D03*
%TO.P,U2,R1,IO_WA_A6/SPI_D3*%
%TO.N,Net-(J3-Pin_9)*%
X1887000Y1378000D03*
%TO.P,U2,R2,IO_WA_B6/SPI_D2*%
%TO.N,Net-(J3-Pin_7)*%
X1807000Y1378000D03*
%TO.P,U2,R3,JTAG_TCK/IO_WA_A5*%
%TO.N,/TCK*%
X1727000Y1378000D03*
%TO.P,U2,R4,IO_WA_B5/SPI_FWD*%
%TO.N,unconnected-(U2B-IO_WA_B5{slash}SPI_FWD-PadR4)*%
X1647000Y1378000D03*
%TO.P,U2,R5,CFG_MD0/IO_WA_A0*%
%TO.N,GND*%
X1567000Y1378000D03*
%TO.P,U2,R6,IO_SA_A1*%
%TO.N,unconnected-(U2E-IO_SA_A1-PadR6)*%
X1487000Y1378000D03*
%TO.P,U2,R7,IO_SA_A2*%
%TO.N,unconnected-(U2E-IO_SA_A2-PadR7)*%
X1407000Y1378000D03*
%TO.P,U2,R8,IO_SA_A4*%
%TO.N,unconnected-(U2E-IO_SA_A4-PadR8)*%
X1327000Y1378000D03*
%TO.P,U2,R9,IO_SA_A6*%
%TO.N,unconnected-(U2E-IO_SA_A6-PadR9)*%
X1247000Y1378000D03*
%TO.P,U2,R10,IO_SA_A7*%
%TO.N,unconnected-(U2E-IO_SA_A7-PadR10)*%
X1167000Y1378000D03*
%TO.P,U2,R11,IO_SB_B4*%
%TO.N,unconnected-(U2E-IO_SB_B4-PadR11)*%
X1087000Y1378000D03*
%TO.P,U2,R12,GND*%
%TO.N,GND*%
X1007000Y1378000D03*
%TO.P,U2,R13,CLK3/IO_SB_A5*%
%TO.N,unconnected-(U2E-CLK3{slash}IO_SB_A5-PadR13)*%
X927000Y1378000D03*
%TO.P,U2,R14,IO_SB_B5*%
%TO.N,unconnected-(U2E-IO_SB_B5-PadR14)*%
X847000Y1378000D03*
%TO.P,U2,R15,VDD_SB*%
%TO.N,+2V5*%
X767000Y1378000D03*
%TO.P,U2,R16,GND*%
%TO.N,GND*%
X687000Y1378000D03*
%TO.P,U2,R17,IO_SB_A1/SER_TX2_P*%
%TO.N,/C_TX2_N*%
X607000Y1378000D03*
%TO.P,U2,R18,IO_SB_B1/SER_TX2_N*%
%TO.N,/C_TX2_P*%
X527000Y1378000D03*
%TO.P,U2,T1,VDD_WA*%
%TO.N,+2V5*%
X1887000Y1458000D03*
%TO.P,U2,T2,JTAG_TDI/IO_WA_A4*%
%TO.N,/TDI*%
X1807000Y1458000D03*
%TO.P,U2,T3,JTAG_TMS/IO_WA_B4*%
%TO.N,/TMS*%
X1727000Y1458000D03*
%TO.P,U2,T4,GND*%
%TO.N,GND*%
X1647000Y1458000D03*
%TO.P,U2,T5,CFG_MD1/IO_WA_B0*%
X1567000Y1458000D03*
%TO.P,U2,T6,IO_SA_B1*%
%TO.N,unconnected-(U2E-IO_SA_B1-PadT6)*%
X1487000Y1458000D03*
%TO.P,U2,T7,IO_SA_B2*%
%TO.N,unconnected-(U2E-IO_SA_B2-PadT7)*%
X1407000Y1458000D03*
%TO.P,U2,T8,IO_SA_B4*%
%TO.N,unconnected-(U2E-IO_SA_B4-PadT8)*%
X1327000Y1458000D03*
%TO.P,U2,T9,IO_SA_B6*%
%TO.N,unconnected-(U2E-IO_SA_B6-PadT9)*%
X1247000Y1458000D03*
%TO.P,U2,T10,IO_SA_B7*%
%TO.N,unconnected-(U2E-IO_SA_B7-PadT10)*%
X1167000Y1458000D03*
%TO.P,U2,T11,GND*%
%TO.N,GND*%
X1087000Y1458000D03*
%TO.P,U2,T12,SER_CLK*%
%TO.N,/SER_CLK_P*%
X1007000Y1458000D03*
%TO.P,U2,T13,SER_CLK_N*%
%TO.N,/SER_CLK_N*%
X927000Y1458000D03*
%TO.P,U2,T14,VDD_CLK*%
%TO.N,+1V1*%
X847000Y1458000D03*
%TO.P,U2,T15,~{RESET}*%
%TO.N,/~{RST}*%
X767000Y1458000D03*
%TO.P,U2,T16,VDD_SER_PLL*%
%TO.N,+1V1*%
X687000Y1458000D03*
%TO.P,U2,T17,GND*%
%TO.N,GND*%
X607000Y1458000D03*
%TO.P,U2,T18,VDD_SB/SER_TERM3*%
%TO.N,Net-(R25-Pad2)*%
X527000Y1458000D03*
%TO.P,U2,U1,POR_EN/IO_WA_A3*%
%TO.N,/POR_EN*%
X1887000Y1538000D03*
%TO.P,U2,U2,JTAG_TDO/IO_WA_B3*%
%TO.N,/TDO*%
X1807000Y1538000D03*
%TO.P,U2,U3,VDD_WA*%
%TO.N,+2V5*%
X1727000Y1538000D03*
%TO.P,U2,U4,CFG_MD2/IO_WA_A1*%
%TO.N,/CFG_MD2{slash}IO_WA_A1*%
X1647000Y1538000D03*
%TO.P,U2,U5,IO_SA_A0*%
%TO.N,unconnected-(U2E-IO_SA_A0-PadU5)*%
X1567000Y1538000D03*
%TO.P,U2,U6,VDD_SA*%
%TO.N,+2V5*%
X1487000Y1538000D03*
%TO.P,U2,U7,IO_SA_A3*%
%TO.N,unconnected-(U2E-IO_SA_A3-PadU7)*%
X1407000Y1538000D03*
%TO.P,U2,U8,IO_SA_A5*%
%TO.N,unconnected-(U2E-IO_SA_A5-PadU8)*%
X1327000Y1538000D03*
%TO.P,U2,U9,VDD_SA*%
%TO.N,+2V5*%
X1247000Y1538000D03*
%TO.P,U2,U10,IO_SA_A8*%
%TO.N,unconnected-(U2E-IO_SA_A8-PadU10)*%
X1167000Y1538000D03*
%TO.P,U2,U11,SER_RX_P*%
%TO.N,/RX1_N*%
X1087000Y1538000D03*
%TO.P,U2,U12,VDD_SER*%
%TO.N,+1V1*%
X1007000Y1538000D03*
%TO.P,U2,U13,SER_TX_P*%
%TO.N,/C_TX1_P*%
X927000Y1538000D03*
%TO.P,U2,U14,GND/SER_RX1_P*%
%TO.N,GND*%
X847000Y1538000D03*
%TO.P,U2,U15,GND*%
X767000Y1538000D03*
%TO.P,U2,U16,GND/SER_TX1_P*%
%TO.N,Net-(U2A-GND{slash}SER_TX1_P)*%
X687000Y1538000D03*
%TO.P,U2,U17,IO_SB_A0/SER_RX2_P*%
%TO.N,/R_TX2_N*%
X607000Y1538000D03*
%TO.P,U2,U18,IO_SB_B0/SER_RX2_N*%
%TO.N,/R_TX2_P*%
X527000Y1538000D03*
%TO.P,U2,V1,GND*%
%TO.N,GND*%
X1887000Y1618000D03*
%TO.P,U2,V2,IO_WA_A2/~{CFG_FAILED}*%
%TO.N,Net-(U2B-IO_WA_A2{slash}~{CFG_FAILED})*%
X1807000Y1618000D03*
%TO.P,U2,V3,IO_WA_B2/CFG_DONE*%
%TO.N,Net-(U2B-IO_WA_B2{slash}CFG_DONE)*%
X1727000Y1618000D03*
%TO.P,U2,V4,CFG_MD3/IO_WA_B1*%
%TO.N,/CFG_MD3{slash}IO_WA_B1*%
X1647000Y1618000D03*
%TO.P,U2,V5,IO_SA_B0*%
%TO.N,/CC_CFG_CTRL_RECFG*%
X1567000Y1618000D03*
%TO.P,U2,V6,GND*%
%TO.N,GND*%
X1487000Y1618000D03*
%TO.P,U2,V7,IO_SA_B3*%
%TO.N,/D_EN*%
X1407000Y1618000D03*
%TO.P,U2,V8,IO_SA_B5*%
%TO.N,unconnected-(U2E-IO_SA_B5-PadV8)*%
X1327000Y1618000D03*
%TO.P,U2,V9,GND*%
%TO.N,GND*%
X1247000Y1618000D03*
%TO.P,U2,V10,IO_SA_B8*%
%TO.N,unconnected-(U2E-IO_SA_B8-PadV10)*%
X1167000Y1618000D03*
%TO.P,U2,V11,SER_RX_N*%
%TO.N,/RX1_P*%
X1087000Y1618000D03*
%TO.P,U2,V12,SER_RTERM*%
%TO.N,Net-(U2A-SER_RTERM)*%
X1007000Y1618000D03*
%TO.P,U2,V13,SER_TX_N*%
%TO.N,/C_TX1_N*%
X927000Y1618000D03*
%TO.P,U2,V14,GND/SER_RX1_N*%
%TO.N,GND*%
X847000Y1618000D03*
%TO.P,U2,V15,POR_ADJ*%
%TO.N,Net-(U2H-POR_ADJ)*%
X767000Y1618000D03*
%TO.P,U2,V16,GND/SER_TX1_N*%
%TO.N,Net-(U2A-GND{slash}SER_TX1_N)*%
X687000Y1618000D03*
%TO.P,U2,V17,VDD_SER*%
%TO.N,+1V1*%
X607000Y1618000D03*
%TO.P,U2,V18,GND*%
%TO.N,GND*%
X527000Y1618000D03*
%TD*%
D21*
%TO.P,C54,1*%
%TO.N,+1V1*%
X1637000Y2309000D03*
%TO.P,C54,2*%
%TO.N,GND*%
X1637000Y2213000D03*
%TD*%
D29*
%TO.P,U7,1,VIN*%
%TO.N,VBUS*%
X152500Y2290000D03*
%TO.P,U7,2,VIN*%
X152500Y2240000D03*
%TO.P,U7,3,EN*%
%TO.N,/power_supply/PG_1V1*%
X152500Y2190000D03*
%TO.P,U7,4,PG*%
%TO.N,/power_supply/PG_2V5*%
X152500Y2140000D03*
%TO.P,U7,5,VOUT*%
%TO.N,+2V5*%
X152500Y2090000D03*
%TO.P,U7,6,VOUT*%
X277500Y2090000D03*
%TO.P,U7,7,VOUT*%
X277500Y2140000D03*
%TO.P,U7,8,FB*%
%TO.N,Net-(U7-FB)*%
X277500Y2190000D03*
%TO.P,U7,9,GND*%
%TO.N,GND*%
X277500Y2240000D03*
%TO.P,U7,10,GND*%
X277500Y2290000D03*
%TD*%
D13*
%TO.P,C62,1*%
%TO.N,+2V5*%
X1466000Y2324000D03*
%TO.P,C62,2*%
%TO.N,GND*%
X1530000Y2324000D03*
%TD*%
D30*
%TO.P,C1,1*%
%TO.N,Net-(P1-SHIELD)*%
X692000Y2356000D03*
%TO.P,C1,2*%
%TO.N,GND*%
X596000Y2356000D03*
%TD*%
D21*
%TO.P,C58,1*%
%TO.N,+2V5*%
X1746000Y2305000D03*
%TO.P,C58,2*%
%TO.N,GND*%
X1746000Y2209000D03*
%TD*%
D16*
%TO.P,C55,1*%
%TO.N,+1V1*%
X1640000Y1842000D03*
%TO.P,C55,2*%
%TO.N,GND*%
X1640000Y1938000D03*
%TD*%
D22*
%TO.P,C61,1*%
%TO.N,+2V5*%
X1829000Y2304000D03*
%TO.P,C61,2*%
%TO.N,GND*%
X1829000Y2240000D03*
%TD*%
D13*
%TO.P,R5,1*%
%TO.N,/LED0*%
X1465500Y50000D03*
%TO.P,R5,2*%
%TO.N,/K0*%
X1529500Y50000D03*
%TD*%
D31*
%TO.P,U11,A1,VSA*%
%TO.N,GND*%
X152500Y1182500D03*
%TO.P,U11,A2,SCL*%
%TO.N,/SCL1*%
X192500Y1182500D03*
%TO.P,U11,B1,VDD*%
%TO.N,+2V5*%
X152500Y1142500D03*
%TO.P,U11,B2,SDA*%
%TO.N,/SDA1*%
X192500Y1142500D03*
%TD*%
D32*
%TO.P,TH1,1*%
%TO.N,VBUS*%
X1857500Y2425000D03*
%TO.P,TH1,2*%
%TO.N,Net-(P1-VBUS-PadA4)*%
X1702500Y2425000D03*
%TD*%
D13*
%TO.P,R37,1*%
%TO.N,/LED5*%
X528000Y50000D03*
%TO.P,R37,2*%
%TO.N,/K5*%
X592000Y50000D03*
%TD*%
D33*
%TO.P,FID5,*%
%TO.N,*%
X2316000Y615000D03*
%TD*%
D13*
%TO.P,R36,1*%
%TO.N,/LED4*%
X715500Y50000D03*
%TO.P,R36,2*%
%TO.N,/K4*%
X779500Y50000D03*
%TD*%
D34*
%TO.P,U5,1,DM_1*%
%TO.N,unconnected-(U5-DM_1-Pad1)*%
X1210000Y2172000D03*
%TO.P,U5,2,DP_1*%
%TO.N,unconnected-(U5-DP_1-Pad2)*%
X1210000Y2132000D03*
D35*
%TO.P,U5,3,OE_N*%
%TO.N,GND*%
X1230000Y2064500D03*
%TO.P,U5,4,S*%
%TO.N,/D_EN*%
X1270000Y2064500D03*
%TO.P,U5,5,VDD*%
%TO.N,+3V3*%
X1310000Y2064500D03*
D34*
%TO.P,U5,6,DP_2*%
%TO.N,/USB_DP*%
X1330000Y2132000D03*
%TO.P,U5,7,DM_2*%
%TO.N,/USB_DN*%
X1330000Y2172000D03*
D35*
%TO.P,U5,8,GND*%
%TO.N,GND*%
X1310000Y2239500D03*
%TO.P,U5,9,DM*%
%TO.N,/C_USB_DN*%
X1270000Y2239500D03*
%TO.P,U5,10,DP*%
%TO.N,/C_USB_DP*%
X1230000Y2239500D03*
%TD*%
D33*
%TO.P,FID6,*%
%TO.N,*%
X264500Y475000D03*
%TD*%
D13*
%TO.P,R14,1*%
%TO.N,Net-(U2B-IO_WA_B2{slash}CFG_DONE)*%
X1840000Y50000D03*
%TO.P,R14,2*%
%TO.N,Net-(D11-A)*%
X1904000Y50000D03*
%TD*%
%TO.P,R6,1*%
%TO.N,/LED1*%
X1278500Y50000D03*
%TO.P,R6,2*%
%TO.N,/K1*%
X1342500Y50000D03*
%TD*%
D14*
%TO.P,R10,1*%
%TO.N,Net-(U7-FB)*%
X432000Y2290000D03*
%TO.P,R10,2*%
%TO.N,GND*%
X368000Y2290000D03*
%TD*%
D17*
%TO.P,J1,1,Pin_1*%
%TO.N,/RUN*%
X242000Y285000D03*
D18*
%TO.P,J1,2,Pin_2*%
%TO.N,/~{FLASH_CS}*%
X242000Y185000D03*
%TO.P,J1,3,Pin_3*%
%TO.N,GND*%
X142000Y285000D03*
%TO.P,J1,4,Pin_4*%
X142000Y185000D03*
%TD*%
D14*
%TO.P,R2,1*%
%TO.N,Net-(P1-SHIELD)*%
X731000Y2437000D03*
%TO.P,R2,2*%
%TO.N,GND*%
X667000Y2437000D03*
%TD*%
%TO.P,C60,1*%
%TO.N,+2V5*%
X1985000Y2091000D03*
%TO.P,C60,2*%
%TO.N,GND*%
X1921000Y2091000D03*
%TD*%
D13*
%TO.P,R7,1*%
%TO.N,/LED2*%
X1091000Y50000D03*
%TO.P,R7,2*%
%TO.N,/K2*%
X1155000Y50000D03*
%TD*%
D16*
%TO.P,C84,1*%
%TO.N,+2V5*%
X372500Y2117000D03*
%TO.P,C84,2*%
%TO.N,GND*%
X372500Y2213000D03*
%TD*%
D25*
%TO.P,C83,1*%
%TO.N,VBUS*%
X150000Y2405000D03*
%TO.P,C83,2*%
%TO.N,GND*%
X246000Y2405000D03*
%TD*%
D36*
%TO.P,D9,1,K1*%
%TO.N,/RX1_N*%
X965000Y2145000D03*
%TO.P,D9,2,K2*%
%TO.N,/TX1_N*%
X875000Y2145000D03*
%TO.P,D9,3,A*%
%TO.N,GND*%
X795000Y2145000D03*
%TO.P,D9,4,K3*%
%TO.N,/RX2_N*%
X715000Y2145000D03*
%TO.P,D9,5,K4*%
%TO.N,/TX2_N*%
X625000Y2145000D03*
%TO.P,D9,6,K5*%
%TO.N,/TX2_P*%
X665000Y2050000D03*
%TO.P,D9,7,K6*%
%TO.N,/RX2_P*%
X755000Y2050000D03*
%TO.P,D9,8,K7*%
%TO.N,/TX1_P*%
X835000Y2050000D03*
%TO.P,D9,9,K8*%
%TO.N,/RX1_P*%
X925000Y2050000D03*
%TD*%
D37*
%TO.P,U6,1,OUT*%
%TO.N,+3V3*%
X1127000Y1947500D03*
D38*
%TO.P,U6,2,GND*%
%TO.N,GND*%
X1127000Y1882500D03*
D39*
%TO.P,U6,3,EN*%
%TO.N,/power_supply/PG_2V5*%
X1213000Y1882500D03*
D40*
%TO.P,U6,4,IN*%
%TO.N,VBUS*%
X1213000Y1947500D03*
D41*
%TO.P,U6,5,Pad*%
%TO.N,GND*%
X1170000Y1915000D03*
%TD*%
D21*
%TO.P,C3,1*%
%TO.N,/TX1_P*%
X797500Y1933500D03*
%TO.P,C3,2*%
%TO.N,/C_TX1_P*%
X797500Y1837500D03*
%TD*%
D33*
%TO.P,FID4,*%
%TO.N,*%
X280000Y1725000D03*
%TD*%
D25*
%TO.P,C9,1*%
%TO.N,/TX2_P*%
X216500Y1445000D03*
%TO.P,C9,2*%
%TO.N,/C_TX2_N*%
X312500Y1445000D03*
%TD*%
D15*
%TO.P,R9,1*%
%TO.N,+2V5*%
X527500Y2125000D03*
%TO.P,R9,2*%
%TO.N,Net-(U7-FB)*%
X527500Y2189000D03*
%TD*%
%TO.P,R11,1*%
%TO.N,+2V5*%
X70000Y2078000D03*
%TO.P,R11,2*%
%TO.N,/power_supply/PG_2V5*%
X70000Y2142000D03*
%TD*%
D25*
%TO.P,C79,1*%
%TO.N,+2V5*%
X1452000Y2243000D03*
%TO.P,C79,2*%
%TO.N,GND*%
X1548000Y2243000D03*
%TD*%
D15*
%TO.P,R21,1*%
%TO.N,Net-(U2A-SER_RTERM)*%
X975000Y1840500D03*
%TO.P,R21,2*%
%TO.N,GND*%
X975000Y1904500D03*
%TD*%
D42*
%TO.P,U1,61,GND*%
%TO.N,GND*%
X1845000Y2082500D03*
D43*
X1707500Y2082500D03*
X1570000Y2082500D03*
D42*
X1845000Y1945000D03*
X1707500Y1945000D03*
X1570000Y1945000D03*
X1845000Y1807500D03*
X1707500Y1807500D03*
X1570000Y1807500D03*
%TD*%
D44*
%TO.N,GND*%
X1709268Y2156085D03*
X487000Y1098000D03*
X487000Y1658000D03*
X727000Y1578000D03*
X2270000Y1715000D03*
X565000Y782500D03*
X373000Y2035000D03*
X2342000Y1232000D03*
X1367500Y1502500D03*
X1324000Y2316000D03*
X2342000Y1319000D03*
X887000Y858000D03*
X1287000Y1098000D03*
D45*
X225000Y705000D03*
D44*
X380000Y2440000D03*
X1927000Y378000D03*
X1287000Y698000D03*
D45*
X75000Y980000D03*
D44*
X967000Y618000D03*
X792780Y2253709D03*
X1056000Y2442000D03*
X1047000Y538000D03*
X567000Y1498000D03*
X2031000Y341000D03*
D45*
X225000Y905000D03*
D44*
X1367000Y1018000D03*
X887000Y1098000D03*
X1447000Y218000D03*
X1447000Y858000D03*
X1287000Y538000D03*
X1687000Y1338000D03*
X1250000Y1658000D03*
X1607500Y1415000D03*
X1607000Y538000D03*
X1786840Y40003D03*
X569119Y1182301D03*
X967000Y1418000D03*
X887000Y218000D03*
X1047000Y858000D03*
X1447000Y1098000D03*
X1127000Y778000D03*
X1506928Y1677979D03*
X807000Y1658000D03*
X1927000Y218000D03*
X561151Y301261D03*
D45*
X75000Y630000D03*
D44*
X487000Y538000D03*
X1127000Y1018000D03*
X2117500Y622500D03*
X630000Y2329000D03*
D46*
X1798650Y2672450D03*
D44*
X567000Y1258000D03*
X887000Y538000D03*
D46*
X598500Y2672450D03*
D44*
X1127000Y218000D03*
X1285771Y1691968D03*
X2360000Y2205000D03*
X807000Y618000D03*
X1367000Y618000D03*
X1137278Y2121722D03*
X925000Y2551000D03*
X325000Y2440000D03*
X1287000Y858000D03*
X1367000Y778000D03*
X967000Y1258000D03*
X1447000Y538000D03*
X1668000Y193000D03*
X2090000Y785000D03*
X2050000Y1225000D03*
X830960Y808083D03*
X1527000Y778000D03*
X887000Y698000D03*
X1367000Y1178000D03*
X1527000Y1018000D03*
X1920000Y865000D03*
X568000Y1338000D03*
X1447000Y698000D03*
X1047000Y1098000D03*
X1127000Y618000D03*
X1915624Y1099191D03*
X1287000Y1258000D03*
X975000Y1952500D03*
X1142092Y2359000D03*
X647000Y298000D03*
X1300000Y2460000D03*
X580000Y2178000D03*
X2159000Y584000D03*
X1610000Y932500D03*
X1287000Y1338000D03*
X1075000Y2160250D03*
X1200000Y1833080D03*
X1883160Y1675000D03*
X807000Y1168266D03*
X2290000Y2425000D03*
X487000Y218000D03*
D46*
X693750Y2672450D03*
D44*
X1127000Y1178000D03*
X1607000Y1098000D03*
D46*
X1709750Y2672450D03*
D44*
X1047000Y698000D03*
X385000Y1260000D03*
X1955070Y1782620D03*
X1527000Y1178000D03*
X2263000Y2072500D03*
X676000Y1789000D03*
X2173296Y1720725D03*
X2342000Y1401000D03*
X2045000Y51000D03*
X117120Y1512120D03*
X1927000Y618000D03*
X679207Y2417000D03*
X2210379Y1972100D03*
X807000Y1578000D03*
X1607000Y858000D03*
X725000Y618000D03*
X967000Y1018000D03*
X642847Y1423962D03*
X2330000Y2367000D03*
X1475000Y2551000D03*
X1447000Y1258000D03*
X967000Y1178000D03*
X967000Y778000D03*
X197500Y1255000D03*
X807000Y1018000D03*
X1447000Y1338000D03*
X1527000Y618000D03*
X1047000Y1498000D03*
X1607000Y698000D03*
%TO.N,VBUS*%
X80000Y2392000D03*
X2040000Y2294000D03*
X38288Y2337862D03*
X1225368Y1997000D03*
X2040000Y2424000D03*
X1975000Y2420000D03*
%TO.N,/USB_DP*%
X1441287Y2073787D03*
%TO.N,Net-(D10-K)*%
X1619500Y50000D03*
%TO.N,/SCL1*%
X487222Y1027706D03*
%TO.N,Net-(U1-XIN)*%
X2167000Y2072500D03*
%TO.N,Net-(U1-XOUT)*%
X2265500Y1930000D03*
%TO.N,/CC_CFG_CTRL_RECFG*%
X1565000Y1683000D03*
%TO.N,/K0*%
X1529500Y50000D03*
%TO.N,/K1*%
X1342500Y50000D03*
%TO.N,/K2*%
X1155000Y50000D03*
%TO.N,/K3*%
X967500Y50000D03*
%TO.N,/GPIO23_GPOUT1*%
X967000Y1338000D03*
%TO.N,Net-(P1-VBUS-PadA4)*%
X1702500Y2425000D03*
X1075000Y2551000D03*
X1325000Y2551000D03*
%TO.N,/CC_CFG_CTRL_EN*%
X1597266Y1498000D03*
X1960000Y127500D03*
%TO.N,/TX2_P*%
X1338000Y2364000D03*
X623713Y2273713D03*
%TO.N,/CC_CFG_CTRL_CLK*%
X1847000Y298000D03*
X1757266Y1018000D03*
%TO.N,/CC_CFG_CTRL_VALID*%
X1847500Y457500D03*
X1688983Y1418434D03*
%TO.N,Net-(D11-A)*%
X1904000Y50000D03*
%TO.N,Net-(U2H-POR_ADJ)*%
X753894Y1660887D03*
%TO.N,/power_supply/PG_2V5*%
X795000Y2070192D03*
X92500Y2140000D03*
X1204000Y1771896D03*
%TO.N,/TX2_N*%
X581287Y2231287D03*
X1338000Y2424000D03*
%TO.N,/RUN*%
X1513000Y1732000D03*
%TO.N,+1V1*%
X967000Y698000D03*
X1447000Y778000D03*
X887000Y778000D03*
X807000Y1498000D03*
X1447000Y1178000D03*
X1625000Y2355000D03*
X645776Y1334480D03*
X1287000Y778000D03*
X1367000Y858000D03*
X1497500Y1817500D03*
X1527000Y1258000D03*
X1047000Y1018000D03*
X647000Y1498000D03*
X1527000Y1098000D03*
X1527000Y698000D03*
X1047000Y1178000D03*
X1367000Y1098000D03*
X1287000Y618000D03*
X1287000Y1178000D03*
X1127000Y858000D03*
X1985000Y1945000D03*
X1367000Y698000D03*
X1447000Y1018000D03*
X1367000Y1258000D03*
X1047000Y778000D03*
X725000Y1330000D03*
X887000Y1178000D03*
X200000Y2330000D03*
X1127000Y1258000D03*
X567000Y1658000D03*
X1287000Y1018000D03*
X967000Y1098000D03*
X967000Y1578000D03*
X887000Y1018000D03*
X1127000Y698000D03*
X1527000Y858000D03*
X1127000Y1098000D03*
X967000Y858000D03*
X400000Y2337500D03*
X1667500Y1694220D03*
%TO.N,/RX2_P*%
X1467768Y2417752D03*
X743713Y2291213D03*
%TO.N,/USB_DN*%
X1483713Y2116213D03*
%TO.N,/RX1_N*%
X1149311Y2411191D03*
%TO.N,Net-(P1-SHIELD)*%
X1524169Y2403041D03*
X466576Y2445544D03*
%TO.N,/RX2_N*%
X1437392Y2373137D03*
X701287Y2248787D03*
%TO.N,Net-(U2B-IO_WA_A2{slash}~{CFG_FAILED})*%
X1690000Y297500D03*
X1770000Y1180000D03*
X1807500Y1680000D03*
X1687500Y700000D03*
%TO.N,+3V3*%
X1097694Y1800823D03*
X1197266Y1578000D03*
X1449839Y1689742D03*
X1040000Y2095000D03*
X1440000Y1965000D03*
%TO.N,/TDI*%
X1905506Y2149258D03*
X1850000Y1418000D03*
%TO.N,/TX1*%
X1607160Y2446000D03*
X649000Y534000D03*
%TO.N,/TMS*%
X1899199Y2350503D03*
X1762184Y1494500D03*
%TO.N,/RX1*%
X720000Y459000D03*
X1579392Y2153288D03*
%TO.N,/~{RST}*%
X807000Y1348000D03*
X1940000Y1905000D03*
X1990123Y2362514D03*
%TO.N,/TX0*%
X1437500Y2180113D03*
X430000Y415000D03*
%TO.N,/HSTX_3_N*%
X1945164Y1675000D03*
X2017751Y1102751D03*
%TO.N,/HSTX_0_N*%
X1963781Y2155159D03*
X2185000Y1769500D03*
X1986329Y972853D03*
%TO.N,/HSTX_1_N*%
X2310000Y2240000D03*
X1980970Y727426D03*
%TO.N,/HSTX_1_P*%
X2310000Y2310000D03*
X2030467Y776924D03*
%TO.N,/HSTX_0_P*%
X2255000Y1769500D03*
X1914283Y2204657D03*
X2035826Y1022350D03*
%TO.N,/HSTX_2_P*%
X2066407Y914824D03*
X2121042Y1800000D03*
%TO.N,/HSTX_2_N*%
X2121042Y1730000D03*
X2066407Y844824D03*
%TO.N,/RX0*%
X490000Y385000D03*
X1527031Y2178898D03*
%TO.N,/HSTX_3_P*%
X2003763Y1706068D03*
X2067249Y1152249D03*
%TO.N,/TDO*%
X1842600Y1496702D03*
X1785000Y2376000D03*
%TO.N,/TCK*%
X1826324Y2176481D03*
X1766684Y1415904D03*
%TO.N,+2V5*%
X807000Y698000D03*
X1607000Y1018000D03*
X1207694Y459220D03*
X1607000Y1178000D03*
X567000Y855000D03*
X1032500Y55000D03*
X1447000Y618000D03*
X887000Y298000D03*
X567000Y1098000D03*
X2140000Y2248840D03*
X392500Y327500D03*
X317500Y2050000D03*
X1610000Y460000D03*
X647000Y218000D03*
X1827500Y2307500D03*
X102500Y2017500D03*
X1767000Y1338000D03*
X295000Y1255000D03*
X227500Y1082500D03*
X1764780Y212500D03*
X1527000Y538000D03*
X670000Y1975000D03*
X1127000Y538000D03*
X830000Y2327500D03*
X1285550Y1775506D03*
X487000Y298000D03*
X1450000Y1502500D03*
X1261708Y1915610D03*
X1127000Y1338000D03*
X42500Y2017500D03*
X1572000Y193000D03*
X2265679Y1623869D03*
X490000Y2075000D03*
X264821Y1491431D03*
X1140000Y1724000D03*
X1047000Y618000D03*
X1951000Y1423000D03*
X1679220Y1498100D03*
X1847000Y218000D03*
X2255023Y1070214D03*
X1724220Y1694220D03*
X1607000Y618000D03*
X1367000Y1338000D03*
X727470Y1416052D03*
X807000Y538000D03*
X1915108Y1731163D03*
X1527000Y1338000D03*
X567000Y538000D03*
X807000Y1098000D03*
X1427720Y92491D03*
X1607000Y1338000D03*
X437000Y71000D03*
X1847000Y618000D03*
X807000Y858000D03*
X1047000Y1258000D03*
X1607000Y1258000D03*
X1447000Y298000D03*
X887000Y1258000D03*
X1966425Y2057241D03*
X727000Y307734D03*
X1127000Y298000D03*
X1287500Y1570000D03*
X1607000Y778000D03*
X1847000Y858000D03*
X865720Y92156D03*
X674512Y89070D03*
X887000Y618000D03*
X1847000Y378000D03*
X375000Y1005000D03*
X967000Y538000D03*
X1367000Y538000D03*
X1847500Y1097500D03*
X1240720Y92156D03*
X1417204Y2326192D03*
%TO.N,/POR_EN*%
X1948637Y1501216D03*
%TO.N,Net-(U2B-IO_WA_B2{slash}CFG_DONE)*%
X1860187Y139209D03*
X1216734Y1098000D03*
%TO.N,/~{FLASH_CS}*%
X40000Y1945000D03*
X584840Y2120000D03*
%TO.N,/SER_CLK_P*%
X967000Y1498000D03*
%TO.N,/SER_CLK_N*%
X887000Y1498000D03*
%TO.N,/RX1_P*%
X1106884Y2453617D03*
%TO.N,Net-(U2A-GND{slash}SER_TX1_N)*%
X666752Y1680720D03*
%TO.N,Net-(R25-Pad2)*%
X487000Y1498000D03*
%TO.N,Net-(R27-Pad2)*%
X487000Y1258000D03*
%TO.N,Net-(U2A-GND{slash}SER_TX1_P)*%
X647000Y1578000D03*
%TO.N,Net-(U2G-NC{slash}VDD_SER)*%
X647000Y1255000D03*
%TO.N,/power_supply/PG_1V1*%
X80000Y2237000D03*
%TO.N,/K4*%
X779500Y50000D03*
%TO.N,/CFG_MD2{slash}IO_WA_A1*%
X2075306Y1522158D03*
%TO.N,/CFG_MD3{slash}IO_WA_B1*%
X2068758Y1580100D03*
%TO.N,Net-(J3-Pin_13)*%
X1687000Y1258000D03*
X2073426Y1472033D03*
%TO.N,Net-(J3-Pin_11)*%
X2077100Y1419780D03*
X1767000Y1258000D03*
%TO.N,/IO_N*%
X1687000Y538000D03*
%TO.N,/IO_P*%
X1767000Y538000D03*
%TO.N,/SDA0*%
X1444880Y375880D03*
X1288837Y370552D03*
%TO.N,/SCL0*%
X1530000Y458000D03*
%TO.N,/IMU_INT2*%
X1290000Y295000D03*
%TO.N,/IMU_INT1*%
X1535000Y378203D03*
%TO.N,/MIC_CLK*%
X487500Y627500D03*
%TO.N,Net-(JP1-A)*%
X390000Y865000D03*
%TO.N,/MIC_LR*%
X578962Y713962D03*
%TO.N,/SDA1*%
X568998Y930494D03*
%TO.N,/SDA2*%
X890000Y375000D03*
%TO.N,/SCL2*%
X810000Y377500D03*
%TO.N,/K5*%
X592000Y50000D03*
%TD*%
D47*
%TO.N,GND*%
X1886332Y1671828D02*
X1886332Y1625168D01*
X2372280Y1542000D02*
X2372280Y1501000D01*
X1746000Y2209000D02*
X1641000Y2209000D01*
X1547000Y2244000D02*
X1547000Y2307000D01*
X847000Y1538000D02*
X807000Y1578000D01*
X2370280Y1302000D02*
X2372280Y1300000D01*
X1708500Y1946000D02*
X1707500Y1945000D01*
X1853500Y2091000D02*
X1845000Y2082500D01*
X1604000Y1415000D02*
X1567000Y1378000D01*
X1567000Y1378000D02*
X1564000Y1375000D01*
X642847Y1422153D02*
X642847Y1423962D01*
X1487000Y1658050D02*
X1506928Y1677979D01*
X1007000Y1218000D02*
X967000Y1258000D01*
X1563908Y2227092D02*
X1548000Y2243000D01*
X1087000Y578000D02*
X1047000Y538000D01*
X687000Y1378000D02*
X642847Y1422153D01*
X2140000Y1582000D02*
X2311000Y1582000D01*
X1407000Y1058000D02*
X1447000Y1098000D01*
X2372280Y1353000D02*
X2372280Y1342000D01*
X1576000Y2213000D02*
X1548000Y2241000D01*
D48*
X1689500Y1927000D02*
X1707500Y1945000D01*
D47*
X1007000Y1138000D02*
X967000Y1178000D01*
X1921000Y2049095D02*
X1921000Y2091000D01*
X2311000Y1382000D02*
X2371280Y1382000D01*
X1110000Y2216000D02*
X1110000Y2195250D01*
X927000Y1058000D02*
X887000Y1098000D01*
X2311000Y1462000D02*
X2372280Y1462000D01*
X1487000Y978000D02*
X1527000Y1018000D01*
X527000Y578000D02*
X487000Y538000D01*
X847000Y818000D02*
X837083Y808083D01*
X1517000Y1892000D02*
X1570000Y1945000D01*
X1965095Y2005000D02*
X1921000Y2049095D01*
X1247000Y1058000D02*
X1287000Y1098000D01*
X1007000Y978000D02*
X967000Y1018000D01*
X927000Y738000D02*
X887000Y698000D01*
X767000Y1538000D02*
X727000Y1578000D01*
X2372280Y1262000D02*
X2372280Y1229000D01*
X687000Y1138000D02*
X642699Y1182301D01*
X2372280Y1300000D02*
X2372280Y1275000D01*
X1007000Y818000D02*
X967000Y778000D01*
X1955070Y1782620D02*
X1955070Y1792564D01*
X2311000Y1342000D02*
X2372280Y1342000D01*
X927000Y258000D02*
X887000Y218000D01*
X2372280Y1501000D02*
X2372280Y1462000D01*
X2311000Y1422000D02*
X2371280Y1422000D01*
X2372280Y1398000D02*
X2372280Y1383000D01*
X1407000Y1298000D02*
X1447000Y1338000D01*
X1007000Y1378000D02*
X967000Y1418000D01*
X1921000Y2091000D02*
X1853500Y2091000D01*
D48*
X1651000Y1927000D02*
X1689500Y1927000D01*
D47*
X2371280Y1502000D02*
X2372280Y1501000D01*
X1407000Y1218000D02*
X1447000Y1258000D01*
X2311000Y1542000D02*
X2372280Y1542000D01*
X2128750Y2393750D02*
X2159000Y2424000D01*
X1641000Y2209000D02*
X1637000Y2213000D01*
X607000Y1458000D02*
X567000Y1498000D01*
X1247000Y1655000D02*
X1250000Y1658000D01*
X1007000Y658000D02*
X967000Y618000D01*
X1799000Y1945000D02*
X1780000Y1964000D01*
X1167000Y658000D02*
X1127000Y618000D01*
X1176420Y1833080D02*
X1200000Y1833080D01*
X1230000Y2064500D02*
X1194500Y2064500D01*
X1575500Y898000D02*
X1610000Y932500D01*
X1547000Y2307000D02*
X1530000Y2324000D01*
X596000Y2363000D02*
X630000Y2329000D01*
X596000Y2366000D02*
X596000Y2363000D01*
D48*
X1659500Y2017500D02*
X1659500Y2034500D01*
D47*
X1247000Y738000D02*
X1287000Y698000D01*
X1247000Y1618000D02*
X1247000Y1655000D01*
X1327000Y978000D02*
X1367000Y1018000D01*
X2372280Y1462000D02*
X2372280Y1423000D01*
X2311000Y1302000D02*
X2370280Y1302000D01*
X2372280Y1423000D02*
X2372280Y1398000D01*
X1159500Y1915000D02*
X1127000Y1882500D01*
X527000Y818000D02*
X562500Y782500D01*
X1407000Y578000D02*
X1447000Y538000D01*
X1247000Y898000D02*
X1287000Y858000D01*
X2372280Y1275000D02*
X2372280Y1262000D01*
X1487000Y658000D02*
X1527000Y618000D01*
X927000Y578000D02*
X887000Y538000D01*
X562500Y782500D02*
X565000Y782500D01*
X1746000Y2209000D02*
X1746000Y2161000D01*
X1505000Y1892000D02*
X1517000Y1892000D01*
X2372280Y1568960D02*
X2372280Y1542000D01*
X1167000Y258000D02*
X1127000Y218000D01*
X2161000Y2294000D02*
X2217500Y2294000D01*
X1407000Y258000D02*
X1447000Y218000D01*
X1736235Y2151235D02*
X1714118Y2151235D01*
X1487000Y1138000D02*
X1527000Y1178000D01*
X1548000Y2241000D02*
X1548000Y2243000D01*
X847000Y978000D02*
X807000Y1018000D01*
X1327000Y1138000D02*
X1367000Y1178000D01*
X667000Y2437000D02*
X596000Y2366000D01*
X1829000Y2240000D02*
X1777000Y2240000D01*
X2128750Y2359000D02*
X2128750Y2393750D01*
X527000Y258000D02*
X487000Y218000D01*
X1407000Y738000D02*
X1447000Y698000D01*
X1777000Y2240000D02*
X1746000Y2209000D01*
X1567000Y898000D02*
X1575500Y898000D01*
X642699Y1182301D02*
X569119Y1182301D01*
X1883160Y1675000D02*
X1886332Y1671828D01*
X1607500Y1415000D02*
X1607500Y1418500D01*
D48*
X1640000Y1938000D02*
X1629000Y1927000D01*
D47*
X1327000Y818000D02*
X1367000Y778000D01*
X1567000Y578000D02*
X1607000Y538000D01*
X607000Y1218000D02*
X567000Y1258000D01*
X2311000Y1262000D02*
X2372280Y1262000D01*
X1327000Y658000D02*
X1367000Y618000D01*
X1746000Y2161000D02*
X1736235Y2151235D01*
X1637000Y2213000D02*
X1576000Y2213000D01*
X152500Y1182500D02*
X152500Y1210000D01*
X2217500Y2294000D02*
X2217500Y2359000D01*
X1167000Y1138000D02*
X1127000Y1178000D01*
X1845000Y1945000D02*
X1799000Y1945000D01*
X1087000Y738000D02*
X1047000Y698000D01*
X1714118Y2151235D02*
X1709268Y2156085D01*
X1607500Y1415000D02*
X1604000Y1415000D01*
X795000Y2251489D02*
X795000Y2145000D01*
X2150000Y2305000D02*
X2161000Y2294000D01*
X2217500Y2359000D02*
X2322000Y2359000D01*
X975000Y1952500D02*
X975000Y1904500D01*
X1607500Y1418500D02*
X1647000Y1458000D01*
X1167000Y978000D02*
X1127000Y1018000D01*
X1887000Y418000D02*
X1927000Y378000D01*
X1247000Y578000D02*
X1287000Y538000D01*
X1567000Y898000D02*
X1607000Y858000D01*
X927000Y898000D02*
X887000Y858000D01*
X1709268Y2145732D02*
X1709268Y2156085D01*
X792780Y2253709D02*
X795000Y2251489D01*
X2150000Y2337750D02*
X2150000Y2305000D01*
X2128750Y2359000D02*
X2217500Y2359000D01*
X1170000Y1915000D02*
X1159500Y1915000D01*
X152500Y1210000D02*
X197500Y1255000D01*
X1110000Y2195250D02*
X1075000Y2160250D01*
X2368280Y1222000D02*
X2311000Y1222000D01*
X1607500Y1415000D02*
X1607500Y1417500D01*
X2000000Y2005000D02*
X1965095Y2005000D01*
X1487000Y1618000D02*
X1487000Y1658050D01*
X1720000Y2095000D02*
X1720000Y2135000D01*
X1955070Y1792564D02*
X1940000Y1807634D01*
X1087000Y1058000D02*
X1047000Y1098000D01*
D48*
X1659500Y2034500D02*
X1707500Y2082500D01*
D47*
X527000Y1618000D02*
X487000Y1658000D01*
X1087000Y1458000D02*
X1047000Y1498000D01*
X1087000Y898000D02*
X1047000Y858000D01*
X1647000Y1298000D02*
X1687000Y1338000D01*
X2372280Y1229000D02*
X2372280Y1226000D01*
X2217500Y2424000D02*
X2289000Y2424000D01*
D48*
X1629000Y1927000D02*
X1588000Y1927000D01*
D47*
X1887000Y898000D02*
X1920000Y865000D01*
X837083Y808083D02*
X830960Y808083D01*
X1310000Y2239500D02*
X1310000Y2302000D01*
X1915624Y1099191D02*
X1911093Y1103723D01*
X1548000Y2243000D02*
X1547000Y2244000D01*
X1911093Y1113907D02*
X1887000Y1138000D01*
X1310000Y2302000D02*
X1324000Y2316000D01*
X2371280Y1422000D02*
X2372280Y1423000D01*
X1940000Y1807634D02*
X1940000Y1824000D01*
D48*
X1588000Y1927000D02*
X1570000Y1945000D01*
X1640000Y1938000D02*
X1651000Y1927000D01*
D47*
X1720000Y2135000D02*
X1709268Y2145732D01*
X1887000Y258000D02*
X1927000Y218000D01*
X1567000Y1058000D02*
X1607000Y1098000D01*
X1194500Y2064500D02*
X1137278Y2121722D01*
X1127000Y1882500D02*
X1176420Y1833080D01*
X2289000Y2424000D02*
X2290000Y2425000D01*
X1247000Y1298000D02*
X1287000Y1338000D01*
X847000Y1618000D02*
X807000Y1658000D01*
X2311000Y1502000D02*
X2371280Y1502000D01*
X1167000Y818000D02*
X1127000Y778000D01*
X527000Y1058000D02*
X487000Y1098000D01*
X2372280Y1342000D02*
X2372280Y1316000D01*
X1887000Y1624500D02*
X1887000Y1618000D01*
X2372280Y1226000D02*
X2368280Y1222000D01*
X847000Y658000D02*
X807000Y618000D01*
X1911093Y1103723D02*
X1911093Y1113907D01*
X1762000Y1946000D02*
X1708500Y1946000D01*
X2128750Y2359000D02*
X2150000Y2337750D01*
X2371280Y1382000D02*
X2372280Y1383000D01*
X1247000Y1218000D02*
X1287000Y1258000D01*
X2359240Y1582000D02*
X2372280Y1568960D01*
X2311000Y1582000D02*
X2359240Y1582000D01*
X1707500Y2082500D02*
X1720000Y2095000D01*
X687000Y338000D02*
X647000Y298000D01*
X1407000Y898000D02*
X1447000Y858000D01*
X1567000Y738000D02*
X1607000Y698000D01*
X2322000Y2359000D02*
X2330000Y2367000D01*
X1886332Y1625168D02*
X1887000Y1624500D01*
X1780000Y1964000D02*
X1762000Y1946000D01*
X2372280Y1383000D02*
X2372280Y1353000D01*
X2372280Y1316000D02*
X2372280Y1300000D01*
X2159000Y2424000D02*
X2217500Y2424000D01*
X1487000Y818000D02*
X1527000Y778000D01*
X1887000Y658000D02*
X1927000Y618000D01*
X1607500Y1417500D02*
X1567000Y1458000D01*
%TO.N,VBUS*%
X1213000Y1947500D02*
X1213000Y1984632D01*
X1213000Y1984632D02*
X1225368Y1997000D01*
%TO.N,/USB_DP*%
X1382628Y2132000D02*
X1407373Y2107255D01*
X1366752Y2134380D02*
X1362380Y2134380D01*
X1330000Y2132000D02*
X1382628Y2132000D01*
X1425327Y2107255D02*
X1441287Y2091295D01*
X1407373Y2107255D02*
X1425327Y2107255D01*
X1362380Y2134380D02*
X1360000Y2132000D01*
X1441287Y2091295D02*
X1441287Y2073787D01*
%TO.N,/C_TX1_N*%
X927000Y1680419D02*
X862620Y1744799D01*
X862620Y1744799D02*
X862620Y1761120D01*
X927000Y1618000D02*
X927000Y1679714D01*
X892500Y1791000D02*
X892500Y1837500D01*
X862620Y1761120D02*
X892500Y1791000D01*
%TO.N,/SCL1*%
X517499Y982500D02*
X522500Y982500D01*
X487222Y1027706D02*
X487222Y1017778D01*
X487222Y1017778D02*
X527000Y978000D01*
X522500Y982500D02*
X527000Y978000D01*
X332428Y1182500D02*
X487222Y1027706D01*
X192500Y1182500D02*
X332428Y1182500D01*
%TO.N,/CC_CFG_CTRL_RECFG*%
X1565000Y1683000D02*
X1565000Y1620000D01*
X1565000Y1620000D02*
X1567000Y1618000D01*
%TO.N,/GPIO23_GPOUT1*%
X1007000Y1298000D02*
X967000Y1338000D01*
%TO.N,/TX1_N*%
X870240Y2230321D02*
X870240Y2149760D01*
X1017620Y2377701D02*
X870240Y2230321D01*
X870240Y2149760D02*
X875000Y2145000D01*
X892500Y2057418D02*
X892500Y1933500D01*
X1017620Y2468620D02*
X1017620Y2377701D01*
X1025000Y2551000D02*
X1025000Y2476000D01*
X1025000Y2476000D02*
X1017620Y2468620D01*
X875000Y2145000D02*
X875000Y2074918D01*
X875000Y2074918D02*
X892500Y2057418D01*
%TO.N,/C_TX1_P*%
X891760Y1636330D02*
X891760Y1665117D01*
X797500Y1791000D02*
X797500Y1837500D01*
X891760Y1665117D02*
X891240Y1665636D01*
X889120Y1633690D02*
X891760Y1636330D01*
X827380Y1730201D02*
X827380Y1761120D01*
X827380Y1761120D02*
X797500Y1791000D01*
X891760Y1665821D02*
X827380Y1730201D01*
X891760Y1599669D02*
X889120Y1602309D01*
X889120Y1602309D02*
X889120Y1633690D01*
X927000Y1538000D02*
X891760Y1573240D01*
X891760Y1573240D02*
X891760Y1599669D01*
%TO.N,/TX1_P*%
X850081Y2050000D02*
X857260Y2042821D01*
X835000Y2160615D02*
X835000Y2230003D01*
X975000Y2551000D02*
X975000Y2476000D01*
X835000Y2050000D02*
X835000Y2160615D01*
X835000Y2050000D02*
X850081Y2050000D01*
X857260Y2042821D02*
X857260Y1993260D01*
X982380Y2392299D02*
X835000Y2244919D01*
X835000Y2244919D02*
X835000Y2230003D01*
X982380Y2468620D02*
X982380Y2392299D01*
X975000Y2476000D02*
X982380Y2468620D01*
X857260Y1993260D02*
X797500Y1933500D01*
%TO.N,/CC_CFG_CTRL_EN*%
X1964880Y233690D02*
X1942690Y255880D01*
X1965000Y202189D02*
X1964880Y202309D01*
X1942690Y255880D02*
X1942500Y255880D01*
X1960000Y127500D02*
X1965000Y132500D01*
X1942500Y282500D02*
X1887000Y338000D01*
X1965000Y132500D02*
X1965000Y202189D01*
X1964880Y202309D02*
X1964880Y233690D01*
X1960000Y127500D02*
X1960000Y72000D01*
X1960000Y72000D02*
X1981000Y51000D01*
X1942500Y255880D02*
X1942500Y282500D01*
%TO.N,/TX2_P*%
X73620Y1856201D02*
X119799Y1902380D01*
X665000Y2050000D02*
X665000Y2214919D01*
X660240Y2030321D02*
X660240Y2045240D01*
X119799Y1902380D02*
X532299Y1902380D01*
X623713Y2256205D02*
X623713Y2273713D01*
X73620Y1464299D02*
X73620Y1856201D01*
X216500Y1445000D02*
X188120Y1416620D01*
X660240Y2045240D02*
X665000Y2050000D01*
X665000Y2214919D02*
X623713Y2256205D01*
X532299Y1902380D02*
X660240Y2030321D01*
X121299Y1416620D02*
X73620Y1464299D01*
X188120Y1416620D02*
X121299Y1416620D01*
%TO.N,/CC_CFG_CTRL_CLK*%
X1807000Y338000D02*
X1847000Y298000D01*
%TO.N,/CC_CFG_CTRL_VALID*%
X1807500Y497500D02*
X1847500Y457500D01*
%TO.N,/C_TX2_N*%
X607000Y1378000D02*
X571760Y1413240D01*
X508669Y1413240D02*
X450679Y1413240D01*
X511309Y1415880D02*
X508669Y1413240D01*
X450679Y1413240D02*
X418919Y1445000D01*
X545331Y1413240D02*
X542691Y1415880D01*
X542691Y1415880D02*
X511309Y1415880D01*
X418919Y1445000D02*
X312500Y1445000D01*
X571760Y1413240D02*
X545331Y1413240D01*
%TO.N,/C_TX2_P*%
X527000Y1378000D02*
X436081Y1378000D01*
X436081Y1378000D02*
X404321Y1409760D01*
X370260Y1409760D02*
X313000Y1352500D01*
X404321Y1409760D02*
X370260Y1409760D01*
%TO.N,/LED0*%
X1465500Y119500D02*
X1465500Y50000D01*
X1327000Y258000D02*
X1327000Y150500D01*
X1327000Y150500D02*
X1340000Y137500D01*
X1340000Y137500D02*
X1447500Y137500D01*
X1447500Y137500D02*
X1465500Y119500D01*
%TO.N,Net-(U2H-POR_ADJ)*%
X750000Y1635000D02*
X750000Y1656993D01*
X750000Y1656993D02*
X753894Y1660887D01*
X767000Y1618000D02*
X750000Y1635000D01*
%TO.N,/power_supply/PG_2V5*%
X1213000Y1882500D02*
X1247620Y1847880D01*
X61227Y2140000D02*
X63113Y2141887D01*
X63113Y2141887D02*
X90613Y2141887D01*
X1247620Y1815516D02*
X1204000Y1771896D01*
X90613Y2141887D02*
X92500Y2140000D01*
X152500Y2140000D02*
X92500Y2140000D01*
X1247620Y1847880D02*
X1247620Y1815516D01*
%TO.N,/TX2_N*%
X517701Y1937620D02*
X625000Y2044919D01*
X625000Y2044919D02*
X625000Y2145000D01*
X38380Y1449701D02*
X38380Y1870799D01*
X38380Y1870799D02*
X105201Y1937620D01*
X217000Y1352500D02*
X188120Y1381380D01*
X105201Y1937620D02*
X517701Y1937620D01*
X188120Y1381380D02*
X106701Y1381380D01*
X629760Y2149760D02*
X629760Y2200322D01*
X598795Y2231287D02*
X581287Y2231287D01*
X106701Y1381380D02*
X38380Y1449701D01*
X629760Y2200322D02*
X598795Y2231287D01*
X625000Y2145000D02*
X629760Y2149760D01*
%TO.N,/LED2*%
X1091000Y101500D02*
X1007000Y185500D01*
X1091000Y50000D02*
X1091000Y101500D01*
X1007000Y185500D02*
X1007000Y258000D01*
%TO.N,Net-(U2A-SER_RTERM)*%
X987000Y1638000D02*
X987000Y1828500D01*
X1007000Y1618000D02*
X987000Y1638000D01*
X987000Y1828500D02*
X975000Y1840500D01*
%TO.N,+1V1*%
X1167000Y898000D02*
X1127000Y858000D01*
D49*
X1667500Y1694220D02*
X1667500Y1727500D01*
D47*
X1487000Y738000D02*
X1527000Y698000D01*
X927000Y1138000D02*
X887000Y1178000D01*
X1487000Y898000D02*
X1527000Y858000D01*
D49*
X1635000Y1830000D02*
X1640000Y1835000D01*
D47*
X687000Y1458000D02*
X647000Y1498000D01*
X1407000Y1138000D02*
X1447000Y1178000D01*
X927000Y978000D02*
X887000Y1018000D01*
X1487000Y1058000D02*
X1527000Y1098000D01*
X607000Y1618000D02*
X567000Y1658000D01*
X1007000Y1058000D02*
X967000Y1098000D01*
X1327000Y738000D02*
X1367000Y698000D01*
X927000Y818000D02*
X887000Y778000D01*
X687000Y1298000D02*
X650520Y1334480D01*
X847000Y1458000D02*
X807000Y1498000D01*
X1087000Y1138000D02*
X1047000Y1178000D01*
X1407000Y818000D02*
X1447000Y778000D01*
X1167000Y738000D02*
X1127000Y698000D01*
X1327000Y898000D02*
X1367000Y858000D01*
D49*
X1640000Y1835000D02*
X1640000Y1842000D01*
D47*
X1247000Y1138000D02*
X1287000Y1178000D01*
X1087000Y978000D02*
X1047000Y1018000D01*
D49*
X1667500Y1727500D02*
X1635000Y1760000D01*
D47*
X1327000Y1218000D02*
X1367000Y1258000D01*
X1247000Y818000D02*
X1287000Y778000D01*
X650520Y1334480D02*
X645776Y1334480D01*
X1167000Y1218000D02*
X1127000Y1258000D01*
X1007000Y1538000D02*
X967000Y1578000D01*
D49*
X1635000Y1760000D02*
X1635000Y1830000D01*
D47*
X1487000Y1218000D02*
X1527000Y1258000D01*
X1247000Y978000D02*
X1287000Y1018000D01*
X1407000Y978000D02*
X1447000Y1018000D01*
X1007000Y738000D02*
X967000Y698000D01*
X1167000Y1058000D02*
X1127000Y1098000D01*
X1007000Y898000D02*
X967000Y858000D01*
X1327000Y1058000D02*
X1367000Y1098000D01*
X1247000Y658000D02*
X1287000Y618000D01*
X1087000Y818000D02*
X1047000Y778000D01*
%TO.N,/RX2_P*%
X175870Y1593870D02*
X197000Y1615000D01*
X743713Y2273705D02*
X743713Y2291213D01*
X1425000Y2476000D02*
X1425000Y2551000D01*
X755000Y2050000D02*
X750240Y2045240D01*
X1462310Y2417752D02*
X1417620Y2462442D01*
X755000Y2262419D02*
X743713Y2273705D01*
X1417620Y2468620D02*
X1425000Y2476000D01*
X750240Y2045240D02*
X750240Y1962713D01*
X627299Y1807380D02*
X157299Y1807380D01*
X147620Y1797701D02*
X147620Y1612299D01*
X750240Y1962713D02*
X748620Y1961093D01*
X755000Y2050000D02*
X755000Y2262419D01*
X748620Y1961093D02*
X748620Y1928701D01*
X1417620Y2462442D02*
X1417620Y2468620D01*
X147620Y1612299D02*
X166049Y1593870D01*
X748620Y1928701D02*
X627299Y1807380D01*
X166049Y1593870D02*
X175870Y1593870D01*
X197000Y1615000D02*
X231500Y1615000D01*
X1467768Y2417752D02*
X1462310Y2417752D01*
X157299Y1807380D02*
X147620Y1797701D01*
%TO.N,/USB_DN*%
X1439926Y2142493D02*
X1466205Y2116213D01*
X1390000Y2172000D02*
X1419507Y2142493D01*
X1362380Y2169620D02*
X1360000Y2172000D01*
X1360000Y2172000D02*
X1330000Y2172000D01*
X1330000Y2172000D02*
X1390000Y2172000D01*
X1466205Y2116213D02*
X1483713Y2116213D01*
X1419507Y2142493D02*
X1439926Y2142493D01*
%TO.N,/RX1_N*%
X1096184Y2343265D02*
X965000Y2212081D01*
X1129359Y2411191D02*
X1096184Y2378016D01*
X965000Y2212081D02*
X965000Y2145000D01*
X1057620Y1742299D02*
X1122240Y1677679D01*
X965000Y2145000D02*
X965000Y2074918D01*
X1122240Y1636104D02*
X1124720Y1633624D01*
X1057620Y1982299D02*
X1057620Y1742299D01*
X1124720Y1633624D02*
X1124720Y1602376D01*
X1122240Y1677679D02*
X1122240Y1636104D01*
X1122240Y1573240D02*
X1087000Y1538000D01*
X1124720Y1602376D02*
X1122240Y1599896D01*
X1122240Y1599896D02*
X1122240Y1573240D01*
X965000Y2074918D02*
X1057620Y1982299D01*
X1149311Y2411191D02*
X1129359Y2411191D01*
X1096184Y2378016D02*
X1096184Y2343265D01*
%TO.N,Net-(P1-SHIELD)*%
X532087Y2477115D02*
X500516Y2445544D01*
X731000Y2437000D02*
X690885Y2477115D01*
X731000Y2395000D02*
X692000Y2356000D01*
X858000Y2467000D02*
X761000Y2467000D01*
X690885Y2477115D02*
X532087Y2477115D01*
X731000Y2437000D02*
X731000Y2395000D01*
X761000Y2467000D02*
X731000Y2437000D01*
X500516Y2445544D02*
X466576Y2445544D01*
%TO.N,Net-(P1-CC)*%
X1125000Y2551000D02*
X1125000Y2495917D01*
X1188000Y2319768D02*
X1148232Y2280000D01*
X1188000Y2425846D02*
X1188000Y2319768D01*
X1148232Y2280000D02*
X1110000Y2280000D01*
X1150000Y2470917D02*
X1150000Y2463846D01*
X1125000Y2495917D02*
X1150000Y2470917D01*
X1150000Y2463846D02*
X1188000Y2425846D01*
%TO.N,/RX2_N*%
X719760Y2149760D02*
X719760Y2247822D01*
X1437392Y2383222D02*
X1437392Y2373137D01*
X715000Y2145000D02*
X719760Y2149760D01*
X715000Y2145000D02*
X715000Y1977307D01*
X718795Y2248787D02*
X701287Y2248787D01*
X1382380Y2447845D02*
X1382380Y2468620D01*
X715000Y1977307D02*
X713382Y1975689D01*
X142701Y1842620D02*
X112380Y1812299D01*
X151451Y1558630D02*
X175870Y1558630D01*
X713382Y1975689D02*
X713382Y1943301D01*
X1375000Y2476000D02*
X1375000Y2551000D01*
X612701Y1842620D02*
X142701Y1842620D01*
X1437392Y2392833D02*
X1382380Y2447845D01*
X713382Y1943301D02*
X612701Y1842620D01*
X112380Y1597701D02*
X151451Y1558630D01*
X719760Y2247822D02*
X718795Y2248787D01*
X1382380Y2468620D02*
X1375000Y2476000D01*
X175870Y1558630D02*
X197000Y1537500D01*
X112380Y1812299D02*
X112380Y1597701D01*
X1437392Y2373137D02*
X1437392Y2392833D01*
X197000Y1537500D02*
X231500Y1537500D01*
%TO.N,Net-(U2B-IO_WA_A2{slash}~{CFG_FAILED})*%
X1770000Y1180000D02*
X1764880Y1174880D01*
X1710000Y205715D02*
X1710000Y155000D01*
X1670000Y63500D02*
X1683500Y50000D01*
X1689120Y226595D02*
X1710000Y205715D01*
X1764880Y1174880D02*
X1764880Y1122310D01*
X1670000Y115000D02*
X1670000Y63500D01*
X1711309Y1095880D02*
X1687500Y1072071D01*
X1689120Y284386D02*
X1689120Y226595D01*
X1690000Y297500D02*
X1690000Y285266D01*
X1690000Y285266D02*
X1689120Y284386D01*
X1807000Y1618000D02*
X1807000Y1679500D01*
X1807000Y1679500D02*
X1807500Y1680000D01*
X1687500Y1072071D02*
X1687500Y700000D01*
X1710000Y155000D02*
X1670000Y115000D01*
X1738450Y1095880D02*
X1711309Y1095880D01*
X1764880Y1122310D02*
X1738450Y1095880D01*
%TO.N,+3V3*%
X1505000Y2003000D02*
X1505000Y1988000D01*
X1096000Y2039000D02*
X1040000Y2095000D01*
X1595500Y2017500D02*
X1595500Y2022500D01*
X1127000Y1947500D02*
X1127000Y2008000D01*
X1473273Y1783470D02*
X1473273Y1713175D01*
X1455000Y1801743D02*
X1473273Y1783470D01*
X1595500Y2022500D02*
X1588000Y2030000D01*
X1127000Y2008000D02*
X1096000Y2039000D01*
X1474000Y1988000D02*
X1455000Y1969000D01*
X1127000Y1947500D02*
X1085780Y1906280D01*
X1085780Y1812738D02*
X1097694Y1800823D01*
X1473273Y1713175D02*
X1449839Y1689742D01*
X1505000Y1988000D02*
X1474000Y1988000D01*
X1085780Y1906280D02*
X1085780Y1812738D01*
X1532000Y2030000D02*
X1505000Y2003000D01*
X1588000Y2030000D02*
X1532000Y2030000D01*
X1455000Y1969000D02*
X1455000Y1801743D01*
%TO.N,/TDI*%
X1807000Y1458000D02*
X1847000Y1418000D01*
X1847000Y1418000D02*
X1850000Y1418000D01*
%TO.N,/TX1*%
X649000Y534000D02*
X643000Y534000D01*
X643000Y534000D02*
X607000Y498000D01*
%TO.N,/TMS*%
X1762184Y1494500D02*
X1754780Y1487096D01*
X1754780Y1485780D02*
X1727000Y1458000D01*
X1754780Y1487096D02*
X1754780Y1485780D01*
%TO.N,/RX1*%
X720000Y459000D02*
X719000Y458000D01*
X647000Y458000D02*
X607000Y418000D01*
X719000Y458000D02*
X647000Y458000D01*
%TO.N,/~{RST}*%
X2050000Y2225196D02*
X2050000Y1925000D01*
X1974859Y2300337D02*
X2050000Y2225196D01*
X1974859Y2347250D02*
X1974859Y2300337D01*
X2025120Y1900120D02*
X1944880Y1900120D01*
X1990123Y2362514D02*
X1974859Y2347250D01*
X1944880Y1900120D02*
X1940000Y1905000D01*
X807000Y1418000D02*
X767000Y1458000D01*
X2050000Y1925000D02*
X2025120Y1900120D01*
X807000Y1348000D02*
X807000Y1418000D01*
%TO.N,/TX0*%
X522000Y493000D02*
X527000Y498000D01*
X440000Y415000D02*
X518000Y493000D01*
X518000Y493000D02*
X522000Y493000D01*
X430000Y415000D02*
X440000Y415000D01*
%TO.N,/HSTX_3_N*%
X1807000Y1218000D02*
X1860215Y1164785D01*
X1860215Y1164785D02*
X1871309Y1175880D01*
X1871309Y1175880D02*
X1902690Y1175880D01*
X2017751Y1120259D02*
X2017751Y1102751D01*
X1982234Y1155776D02*
X2017751Y1120259D01*
X1902690Y1175880D02*
X1922794Y1155776D01*
X1922794Y1155776D02*
X1982234Y1155776D01*
%TO.N,/HSTX_0_N*%
X1807000Y1058000D02*
X1860215Y1004785D01*
X1871309Y1015880D02*
X1960810Y1015880D01*
X1960810Y1015880D02*
X1986329Y990361D01*
X1986329Y990361D02*
X1986329Y972853D01*
X1860215Y1004785D02*
X1871309Y1015880D01*
%TO.N,/HSTX_1_N*%
X1860215Y764785D02*
X1871309Y775880D01*
X1902690Y775880D02*
X1922268Y756302D01*
X1807000Y818000D02*
X1860215Y764785D01*
X1969602Y756302D02*
X1980970Y744934D01*
X1980970Y744934D02*
X1980970Y727426D01*
X1922268Y756302D02*
X1969602Y756302D01*
X1871309Y775880D02*
X1902690Y775880D01*
%TO.N,/HSTX_1_P*%
X1984225Y805658D02*
X2012959Y776924D01*
X2012959Y776924D02*
X2030467Y776924D01*
X1937171Y805658D02*
X1984225Y805658D01*
X1921511Y821318D02*
X1937171Y805658D01*
X1887000Y821318D02*
X1921511Y821318D01*
%TO.N,/HSTX_0_P*%
X1979351Y1061318D02*
X2018318Y1022350D01*
X1887000Y1061318D02*
X1979351Y1061318D01*
X2018318Y1022350D02*
X2035826Y1022350D01*
%TO.N,/HSTX_2_P*%
X1923171Y981318D02*
X2002046Y902444D01*
X2002046Y902444D02*
X2054027Y902444D01*
X1921511Y981318D02*
X1887000Y981318D01*
X2054027Y902444D02*
X2066407Y914824D01*
X1887000Y981318D02*
X1923171Y981318D01*
%TO.N,/HSTX_2_N*%
X1983307Y857204D02*
X2054027Y857204D01*
X2054027Y857204D02*
X2066407Y844824D01*
X1904630Y935880D02*
X1983307Y857204D01*
X1807000Y978000D02*
X1860215Y924785D01*
X1860215Y924785D02*
X1871309Y935880D01*
X1871309Y935880D02*
X1904630Y935880D01*
%TO.N,/RX0*%
X490000Y385000D02*
X523000Y418000D01*
X523000Y418000D02*
X527000Y418000D01*
%TO.N,/HSTX_3_P*%
X1887000Y1221318D02*
X1921511Y1221318D01*
X2049741Y1152249D02*
X2067249Y1152249D01*
X1996369Y1205621D02*
X2049741Y1152249D01*
X1937209Y1205621D02*
X1996369Y1205621D01*
X1921511Y1221318D02*
X1937209Y1205621D01*
%TO.N,/TDO*%
X1842600Y1502400D02*
X1807000Y1538000D01*
X1842600Y1496702D02*
X1842600Y1502400D01*
%TO.N,/TCK*%
X1727000Y1378000D02*
X1764904Y1415904D01*
X1764904Y1415904D02*
X1766684Y1415904D01*
%TO.N,+2V5*%
X1007000Y578000D02*
X967000Y538000D01*
D49*
X1417204Y2326192D02*
X1419396Y2324000D01*
D47*
X1487000Y1298000D02*
X1527000Y1338000D01*
X1807000Y658000D02*
X1847000Y618000D01*
X1308000Y1797956D02*
X1285550Y1775506D01*
D49*
X1451000Y2309000D02*
X1466000Y2324000D01*
D47*
X152500Y1142500D02*
X152500Y1124822D01*
D49*
X2227900Y1177100D02*
X2261003Y1177100D01*
D47*
X1087000Y658000D02*
X1047000Y618000D01*
X194822Y1082500D02*
X227500Y1082500D01*
D49*
X1451000Y2244000D02*
X1451000Y2309000D01*
D47*
X1807000Y418000D02*
X1847000Y378000D01*
X1827500Y2307500D02*
X1829000Y2306000D01*
X1724220Y1694220D02*
X1729220Y1694220D01*
X927000Y1218000D02*
X887000Y1258000D01*
X847000Y738000D02*
X807000Y698000D01*
X527000Y338000D02*
X487000Y298000D01*
X1746000Y2305000D02*
X1828000Y2305000D01*
X1407000Y658000D02*
X1447000Y618000D01*
X1407000Y338000D02*
X1447000Y298000D01*
X1780000Y1745000D02*
X1780000Y1868000D01*
X1967500Y1732500D02*
X1916445Y1732500D01*
X2004000Y1824000D02*
X2004000Y1769000D01*
X927000Y658000D02*
X887000Y618000D01*
X1807000Y258000D02*
X1847000Y218000D01*
D49*
X1419396Y2324000D02*
X1466000Y2324000D01*
D47*
X1679820Y1498100D02*
X1719720Y1538000D01*
X1916000Y1458000D02*
X1951000Y1423000D01*
X1567000Y1298000D02*
X1607000Y1338000D01*
X570000Y855000D02*
X567000Y855000D01*
X1567000Y818000D02*
X1607000Y778000D01*
X607000Y818000D02*
X570000Y855000D01*
X1572000Y193000D02*
X1567000Y198000D01*
X728948Y1416052D02*
X727470Y1416052D01*
X1167000Y1298000D02*
X1127000Y1338000D01*
X1451500Y1502500D02*
X1450000Y1502500D01*
X1829000Y2306000D02*
X1829000Y2304000D01*
X1327000Y1298000D02*
X1367000Y1338000D01*
X1605000Y460000D02*
X1610000Y460000D01*
D49*
X2280100Y1158003D02*
X2280100Y1095291D01*
D47*
X1327000Y578000D02*
X1367000Y538000D01*
X1087000Y1218000D02*
X1047000Y1258000D01*
X1567000Y498000D02*
X1605000Y460000D01*
X1567000Y1218000D02*
X1607000Y1258000D01*
D49*
X2261003Y1177100D02*
X2280100Y1158003D01*
D47*
X1719720Y1538000D02*
X1727000Y1538000D01*
X1887000Y1458000D02*
X1916000Y1458000D01*
D49*
X1452000Y2243000D02*
X1451000Y2244000D01*
D47*
X1916445Y1732500D02*
X1915108Y1731163D01*
X847000Y898000D02*
X807000Y858000D01*
X1567000Y198000D02*
X1567000Y258000D01*
X687000Y258000D02*
X647000Y218000D01*
X1729220Y1694220D02*
X1780000Y1745000D01*
X847000Y578000D02*
X807000Y538000D01*
X1279000Y1570000D02*
X1287500Y1570000D01*
X847000Y1058000D02*
X807000Y1098000D01*
X1167000Y578000D02*
X1127000Y538000D01*
X2004000Y1769000D02*
X1967500Y1732500D01*
X1807500Y1137500D02*
X1847500Y1097500D01*
X607000Y578000D02*
X567000Y538000D01*
D49*
X2183000Y1222000D02*
X2227900Y1177100D01*
X2280100Y1095291D02*
X2255023Y1070214D01*
D47*
X1679220Y1498100D02*
X1679820Y1498100D01*
X1807000Y898000D02*
X1847000Y858000D01*
X152500Y1124822D02*
X194822Y1082500D01*
X767000Y1378000D02*
X728948Y1416052D01*
X607000Y1058000D02*
X567000Y1098000D01*
X1308000Y1835000D02*
X1308000Y1797956D01*
X1727000Y1298000D02*
X1767000Y1338000D01*
D49*
X2140000Y1222000D02*
X2183000Y1222000D01*
D47*
X1487000Y578000D02*
X1527000Y538000D01*
X1567000Y658000D02*
X1607000Y618000D01*
X1487000Y1538000D02*
X1451500Y1502500D01*
X1567000Y978000D02*
X1607000Y1018000D01*
X927000Y338000D02*
X887000Y298000D01*
X1247000Y1538000D02*
X1279000Y1570000D01*
X1567000Y1138000D02*
X1607000Y1178000D01*
X1828000Y2305000D02*
X1829000Y2304000D01*
X1167000Y338000D02*
X1127000Y298000D01*
%TO.N,/POR_EN*%
X1948637Y1501216D02*
X1946784Y1501216D01*
X1910000Y1538000D02*
X1887000Y1538000D01*
X1946784Y1501216D02*
X1910000Y1538000D01*
%TO.N,Net-(U2B-IO_WA_B2{slash}CFG_DONE)*%
X1550880Y1575880D02*
X1658450Y1575880D01*
X1524880Y1438069D02*
X1524880Y1549880D01*
X1840000Y50000D02*
X1840000Y119022D01*
X1205000Y1390000D02*
X1230880Y1415880D01*
X1524880Y1549880D02*
X1550880Y1575880D01*
X1230880Y1415880D02*
X1502690Y1415880D01*
X1205000Y1109734D02*
X1205000Y1390000D01*
X1216734Y1098000D02*
X1205000Y1109734D01*
X1700570Y1618000D02*
X1727000Y1618000D01*
X1502690Y1415880D02*
X1524880Y1438069D01*
X1840000Y119022D02*
X1860187Y139209D01*
X1658450Y1575880D02*
X1700570Y1618000D01*
%TO.N,/~{FLASH_CS}*%
X40000Y1955000D02*
X55000Y1970000D01*
X461500Y1970000D02*
X570160Y2078660D01*
X570160Y2078660D02*
X570160Y2105320D01*
X570160Y2105320D02*
X584840Y2120000D01*
X55000Y1970000D02*
X461500Y1970000D01*
X40000Y1945000D02*
X40000Y1955000D01*
%TO.N,/SER_CLK_P*%
X1007000Y1458000D02*
X967000Y1498000D01*
%TO.N,/SER_CLK_N*%
X927000Y1458000D02*
X887000Y1498000D01*
%TO.N,/RX1_P*%
X1022380Y1967701D02*
X1022380Y1727701D01*
X1070744Y2374299D02*
X1070744Y2367663D01*
X1070944Y2367863D02*
X925000Y2221919D01*
X925000Y2221919D02*
X925000Y2050000D01*
X1106884Y2436109D02*
X1077380Y2406605D01*
X1022380Y1727701D02*
X1087000Y1663081D01*
X1087000Y1663081D02*
X1087000Y1618000D01*
X925000Y2050000D02*
X940081Y2050000D01*
X940081Y2050000D02*
X1022380Y1967701D01*
X1070744Y2367663D02*
X925000Y2221919D01*
X1106884Y2453617D02*
X1106884Y2436109D01*
X1070744Y2399969D02*
X1070744Y2374299D01*
X1070944Y2400169D02*
X1070944Y2367863D01*
X1106884Y2453617D02*
X1106884Y2436109D01*
X1077380Y2406605D02*
X1070744Y2399969D01*
X925000Y2221919D02*
X925000Y2050000D01*
X1106884Y2436109D02*
X1077380Y2406605D01*
X1077380Y2406605D02*
X1070944Y2400169D01*
%TO.N,/R_TX2_N*%
X330000Y1615000D02*
X295500Y1615000D01*
X571760Y1573240D02*
X545331Y1573240D01*
X457440Y1593870D02*
X351130Y1593870D01*
X511309Y1575880D02*
X508669Y1573240D01*
X508669Y1573240D02*
X478070Y1573240D01*
X351130Y1593870D02*
X330000Y1615000D01*
X478070Y1573240D02*
X457440Y1593870D01*
X545331Y1573240D02*
X542691Y1575880D01*
X542691Y1575880D02*
X511309Y1575880D01*
X607000Y1538000D02*
X571760Y1573240D01*
%TO.N,/R_TX2_P*%
X527000Y1538000D02*
X527000Y1545042D01*
X330000Y1537500D02*
X295500Y1537500D01*
X463473Y1538000D02*
X442843Y1558630D01*
X351130Y1558630D02*
X330000Y1537500D01*
X527000Y1538000D02*
X463473Y1538000D01*
X442843Y1558630D02*
X351130Y1558630D01*
%TO.N,Net-(U2A-GND{slash}SER_TX1_N)*%
X687000Y1660471D02*
X666752Y1680720D01*
X687000Y1618000D02*
X687000Y1660471D01*
%TO.N,Net-(R25-Pad2)*%
X527000Y1458000D02*
X487000Y1498000D01*
%TO.N,Net-(R27-Pad2)*%
X527000Y1218000D02*
X487000Y1258000D01*
%TO.N,Net-(U2A-GND{slash}SER_TX1_P)*%
X687000Y1538000D02*
X647000Y1578000D01*
%TO.N,Net-(U2G-NC{slash}VDD_SER)*%
X687000Y1218000D02*
X650000Y1255000D01*
X650000Y1255000D02*
X647000Y1255000D01*
%TO.N,/power_supply/PG_1V1*%
X152500Y2190000D02*
X112500Y2190000D01*
X112500Y2190000D02*
X85500Y2217000D01*
X85500Y2217000D02*
X85500Y2231500D01*
X85500Y2231500D02*
X80000Y2237000D01*
%TO.N,Net-(U7-FB)*%
X422000Y2280000D02*
X422000Y2248000D01*
X428120Y2167120D02*
X450500Y2189500D01*
X432000Y2290000D02*
X422000Y2280000D01*
X450500Y2189500D02*
X455000Y2189500D01*
X297287Y2195000D02*
X325167Y2167120D01*
X455500Y2189000D02*
X455000Y2189500D01*
X450000Y2194500D02*
X455000Y2189500D01*
X527500Y2189000D02*
X455500Y2189000D01*
X325167Y2167120D02*
X428120Y2167120D01*
X282500Y2195000D02*
X297287Y2195000D01*
X422000Y2248000D02*
X450000Y2220000D01*
X277500Y2190000D02*
X282500Y2195000D01*
X450000Y2220000D02*
X450000Y2194500D01*
%TO.N,/LED1*%
X1278500Y113000D02*
X1247000Y144500D01*
X1278500Y50000D02*
X1278500Y113000D01*
X1247000Y144500D02*
X1247000Y258000D01*
%TO.N,/LED3*%
X969120Y171620D02*
X903500Y106000D01*
X903500Y106000D02*
X903500Y50000D01*
X969120Y300120D02*
X969120Y171620D01*
X1007000Y338000D02*
X969120Y300120D01*
%TO.N,/LED4*%
X842500Y212500D02*
X715500Y85500D01*
X847000Y258000D02*
X842500Y253500D01*
X842500Y253500D02*
X842500Y212500D01*
X715500Y85500D02*
X715500Y50000D01*
%TO.N,/LED5*%
X804880Y295880D02*
X804880Y224880D01*
X625000Y147500D02*
X625000Y147000D01*
X847000Y338000D02*
X804880Y295880D01*
X625000Y147000D02*
X528000Y50000D01*
X727500Y147500D02*
X625000Y147500D01*
X804880Y224880D02*
X727500Y147500D01*
%TO.N,/CFG_MD2{slash}IO_WA_A1*%
X2089117Y1509913D02*
X2097029Y1502000D01*
X2075306Y1522158D02*
X2073272Y1522158D01*
X1712500Y1577500D02*
X1673000Y1538000D01*
X2073272Y1522158D02*
X2017929Y1577500D01*
X2097029Y1502000D02*
X2140000Y1502000D01*
X1673000Y1538000D02*
X1647000Y1538000D01*
X2017929Y1577500D02*
X1712500Y1577500D01*
X2075306Y1522158D02*
X2087551Y1509913D01*
X2087551Y1509913D02*
X2089117Y1509913D01*
%TO.N,/CFG_MD3{slash}IO_WA_B1*%
X2109034Y1542000D02*
X2140000Y1542000D01*
X1892880Y1787667D02*
X1864833Y1759620D01*
X1892880Y1839585D02*
X1892880Y1787667D01*
X1805687Y1734437D02*
X1805500Y1734437D01*
X2068758Y1580100D02*
X2088821Y1560038D01*
X2028825Y1861880D02*
X1915175Y1861880D01*
X1805500Y1734438D02*
X1805500Y1734437D01*
X1830870Y1759620D02*
X1805687Y1734437D01*
X2070000Y1585000D02*
X2070000Y1626230D01*
X1915175Y1861880D02*
X1892880Y1839585D01*
X1685340Y1656340D02*
X1739910Y1656340D01*
X1762100Y1691038D02*
X1805500Y1734437D01*
X2050000Y1646230D02*
X2050000Y1815000D01*
X1762100Y1691038D02*
X1762100Y1678529D01*
X2044880Y1820120D02*
X2044880Y1845825D01*
X2088821Y1560038D02*
X2090996Y1560038D01*
X1762100Y1678529D02*
X1739910Y1656340D01*
X1685340Y1656340D02*
X1647000Y1618000D01*
X2044880Y1845825D02*
X2028825Y1861880D01*
X2068758Y1583758D02*
X2070000Y1585000D01*
X2070000Y1626230D02*
X2050000Y1646230D01*
X2050000Y1815000D02*
X2044880Y1820120D01*
X2068758Y1580100D02*
X2068758Y1583758D01*
X2090996Y1560038D02*
X2109034Y1542000D01*
X1864833Y1759620D02*
X1830870Y1759620D01*
%TO.N,Net-(J3-Pin_7)*%
X1844880Y1340120D02*
X1955120Y1340120D01*
X1957000Y1342000D02*
X2140000Y1342000D01*
X1955120Y1340120D02*
X1957000Y1342000D01*
X1807000Y1378000D02*
X1844880Y1340120D01*
%TO.N,Net-(J3-Pin_5)*%
X2045000Y1298000D02*
X2049000Y1302000D01*
X1887000Y1298000D02*
X2045000Y1298000D01*
X2049000Y1302000D02*
X2140000Y1302000D01*
%TO.N,Net-(J3-Pin_3)*%
X1902690Y1260120D02*
X1915070Y1272500D01*
X1820000Y1285000D02*
X1849120Y1285000D01*
X1807000Y1298000D02*
X1820000Y1285000D01*
X2034437Y1272500D02*
X2055562Y1272500D01*
X1915070Y1272500D02*
X2034437Y1272500D01*
X2128880Y1273120D02*
X2140000Y1262000D01*
X2089120Y1276500D02*
X2089120Y1273120D01*
X1849120Y1282310D02*
X1871309Y1260120D01*
X2059562Y1276500D02*
X2089120Y1276500D01*
X2089120Y1273120D02*
X2128880Y1273120D01*
X2055562Y1272500D02*
X2059562Y1276500D01*
X1871309Y1260120D02*
X1902690Y1260120D01*
X1849120Y1285000D02*
X1849120Y1282310D01*
%TO.N,Net-(J3-Pin_13)*%
X2138000Y1460000D02*
X2140000Y1462000D01*
X1647000Y1218000D02*
X1687000Y1258000D01*
X2099850Y1460000D02*
X2138000Y1460000D01*
X2073426Y1472033D02*
X2087817Y1472033D01*
X2087817Y1472033D02*
X2099850Y1460000D01*
%TO.N,Net-(J3-Pin_11)*%
X1727000Y1218000D02*
X1767000Y1258000D01*
X2077100Y1419780D02*
X2079320Y1422000D01*
X2079320Y1422000D02*
X2140000Y1422000D01*
%TO.N,Net-(J3-Pin_9)*%
X1887000Y1378000D02*
X1967000Y1378000D01*
X1967500Y1377500D02*
X1967000Y1378000D01*
X1967500Y1377500D02*
X1972000Y1382000D01*
X1972000Y1382000D02*
X2140000Y1382000D01*
%TO.N,/IO_N*%
X1647000Y578000D02*
X1687000Y538000D01*
%TO.N,/IO_P*%
X1767000Y538000D02*
X1727000Y578000D01*
%TO.N,/C_USB_DP*%
X1182380Y2512620D02*
X1175000Y2520000D01*
X1230000Y2239500D02*
X1230000Y2295750D01*
X1232380Y2298130D02*
X1232380Y2420701D01*
X1230000Y2295750D02*
X1232380Y2298130D01*
X1182380Y2470701D02*
X1182380Y2512620D01*
X1232380Y2420701D02*
X1182380Y2470701D01*
X1175000Y2520000D02*
X1175000Y2551000D01*
%TO.N,/C_USB_DN*%
X1270000Y2295750D02*
X1267620Y2298130D01*
X1267620Y2435299D02*
X1217620Y2485299D01*
X1225000Y2520000D02*
X1225000Y2551000D01*
X1217620Y2485299D02*
X1217620Y2512620D01*
X1217620Y2512620D02*
X1225000Y2520000D01*
X1270000Y2239500D02*
X1270000Y2295750D01*
X1267620Y2298130D02*
X1267620Y2435299D01*
%TO.N,/D_EN*%
X1372000Y1762000D02*
X1379000Y1755000D01*
X1372000Y1835000D02*
X1372000Y1762000D01*
X1379000Y1683000D02*
X1407000Y1655000D01*
X1407000Y1655000D02*
X1407000Y1618000D01*
X1355521Y1851479D02*
X1372000Y1835000D01*
X1270000Y1960521D02*
X1355521Y1875000D01*
X1270000Y2064500D02*
X1270000Y1960521D01*
X1379000Y1755000D02*
X1379000Y1683000D01*
X1355521Y1875000D02*
X1355521Y1851479D01*
%TO.N,/SDA0*%
X1444880Y375880D02*
X1294165Y375880D01*
X1467000Y398000D02*
X1444880Y375880D01*
X1487000Y418000D02*
X1444880Y375880D01*
X1487000Y418000D02*
X1467000Y398000D01*
X1294165Y375880D02*
X1288837Y370552D01*
X1288837Y370552D02*
X1283510Y375880D01*
%TO.N,/SCL0*%
X1487000Y498000D02*
X1527000Y458000D01*
X1527000Y458000D02*
X1530000Y458000D01*
%TO.N,/IMU_INT2*%
X1290000Y295000D02*
X1290000Y301000D01*
X1290000Y301000D02*
X1327000Y338000D01*
%TO.N,/IMU_INT1*%
X1543628Y386830D02*
X1543628Y394628D01*
X1543628Y394628D02*
X1567000Y418000D01*
X1535000Y378203D02*
X1543628Y386830D01*
%TO.N,/MIC_CLK*%
X487500Y627500D02*
X496500Y627500D01*
X496500Y627500D02*
X527000Y658000D01*
%TO.N,/MIC_DOUT*%
X390000Y751000D02*
X514000Y751000D01*
X524000Y735000D02*
X527000Y738000D01*
X514000Y751000D02*
X527000Y738000D01*
%TO.N,/MIC_LR*%
X582962Y713962D02*
X578962Y713962D01*
X607000Y738000D02*
X582962Y713962D01*
%TO.N,/SDA1*%
X568998Y930494D02*
X568998Y939998D01*
X563772Y935720D02*
X568998Y930494D01*
X192500Y1142500D02*
X309156Y1142500D01*
X309156Y1142500D02*
X515936Y935720D01*
X568998Y939998D02*
X607000Y978000D01*
X515936Y935720D02*
X563772Y935720D01*
%TO.N,/SDA2*%
X927000Y418000D02*
X927000Y412000D01*
X927000Y412000D02*
X890000Y375000D01*
%TO.N,/SCL2*%
X847000Y414500D02*
X810000Y377500D01*
X847000Y418000D02*
X847000Y414500D01*
%TD*%
%TA.AperFunction,Conductor*%
%TO.N,+3V3*%
G36*
X1530286Y2103032D02*
G01*
X1534862Y2097751D01*
X1535856Y2090835D01*
X1535560Y2089392D01*
X1534950Y2087114D01*
X1534950Y2077886D01*
X1537108Y2069831D01*
X1537339Y2068971D01*
X1537339Y2068971D01*
X1541953Y2060979D01*
X1541953Y2060979D01*
X1541953Y2060979D01*
X1548479Y2054453D01*
X1548479Y2054453D01*
X1548479Y2054453D01*
X1556471Y2049839D01*
X1556471Y2049839D01*
X1556471Y2049839D01*
X1565386Y2047450D01*
X1565386Y2047450D01*
X1574614Y2047450D01*
X1574614Y2047450D01*
X1583529Y2049839D01*
X1583529Y2049839D01*
X1584314Y2050049D01*
X1584401Y2049724D01*
X1586110Y2049909D01*
X1589365Y2050377D01*
X1589568Y2050284D01*
X1589790Y2050308D01*
X1592730Y2048840D01*
X1595720Y2047475D01*
X1595841Y2047287D01*
X1596041Y2047187D01*
X1597721Y2044362D01*
X1599498Y2041597D01*
X1599540Y2041302D01*
X1599612Y2041182D01*
X1600000Y2038103D01*
X1600000Y2031221D01*
X1599762Y2028802D01*
X1598578Y2022852D01*
X1596727Y2018382D01*
X1594048Y2014373D01*
X1590627Y2010952D01*
X1587197Y2008661D01*
X1586618Y2008273D01*
X1582148Y2006422D01*
X1575217Y2005043D01*
X1574784Y2004965D01*
X1559911Y2002552D01*
X1559911Y2002551D01*
X1546371Y1995457D01*
X1535770Y1984445D01*
X1527500Y1972500D01*
X1515083Y1950173D01*
X1511372Y1938649D01*
X1507443Y1932871D01*
X1501015Y1930135D01*
X1499569Y1930050D01*
X1485631Y1930050D01*
X1478616Y1928655D01*
X1478616Y1928655D01*
X1470661Y1923339D01*
X1465345Y1915384D01*
X1465345Y1915383D01*
X1463950Y1908369D01*
X1463950Y1875631D01*
X1465345Y1868617D01*
X1465345Y1868616D01*
X1465345Y1868616D01*
X1470661Y1860661D01*
X1474585Y1858039D01*
X1479065Y1852678D01*
X1479936Y1845746D01*
X1476920Y1839443D01*
X1476464Y1838961D01*
X1473454Y1835951D01*
X1473453Y1835950D01*
X1469498Y1829100D01*
X1469498Y1829099D01*
X1468569Y1825631D01*
X1467450Y1821456D01*
X1467450Y1813544D01*
X1468222Y1810661D01*
X1469498Y1805901D01*
X1469498Y1805900D01*
X1473453Y1799050D01*
X1473454Y1799049D01*
X1473454Y1799049D01*
X1479049Y1793454D01*
X1479049Y1793454D01*
X1479049Y1793454D01*
X1485900Y1789498D01*
X1485901Y1789498D01*
X1492924Y1787616D01*
X1495391Y1786113D01*
X1497998Y1784866D01*
X1498338Y1784316D01*
X1498890Y1783980D01*
X1500152Y1781381D01*
X1501671Y1778923D01*
X1501785Y1778019D01*
X1501943Y1777695D01*
X1502112Y1775421D01*
X1501970Y1767273D01*
X1499884Y1760605D01*
X1495772Y1756752D01*
X1494549Y1756046D01*
X1494549Y1756046D01*
X1488954Y1750451D01*
X1488953Y1750450D01*
X1484998Y1743600D01*
X1484998Y1743599D01*
X1484107Y1740274D01*
X1482950Y1735956D01*
X1482950Y1728044D01*
X1484298Y1723015D01*
X1484998Y1720401D01*
X1484998Y1720400D01*
X1488953Y1713550D01*
X1488954Y1713549D01*
X1491104Y1711399D01*
X1494453Y1705266D01*
X1494046Y1698552D01*
X1493641Y1697388D01*
X1493610Y1697357D01*
X1489654Y1690505D01*
X1487606Y1682862D01*
X1487606Y1680063D01*
X1486916Y1678082D01*
X1486055Y1676878D01*
X1485638Y1675457D01*
X1483974Y1673393D01*
X1476991Y1666409D01*
X1471156Y1660575D01*
X1470984Y1660747D01*
X1469740Y1659707D01*
X1467265Y1657507D01*
X1467016Y1657431D01*
X1466921Y1657351D01*
X1463891Y1656470D01*
X1456429Y1655302D01*
X1452571Y1655305D01*
X1442380Y1656920D01*
X1438690Y1658118D01*
X1429505Y1662798D01*
X1426367Y1665079D01*
X1419078Y1672367D01*
X1416798Y1675506D01*
X1412118Y1684690D01*
X1410920Y1688380D01*
X1409153Y1699536D01*
X1409000Y1701476D01*
X1409000Y1887000D01*
X1407143Y1901105D01*
X1407143Y1901106D01*
X1401699Y1914250D01*
X1401699Y1914250D01*
X1394724Y1923339D01*
X1393037Y1925537D01*
X1381750Y1934198D01*
X1381750Y1934198D01*
X1381750Y1934199D01*
X1368606Y1939643D01*
X1368605Y1939643D01*
X1354500Y1941500D01*
X1352641Y1941745D01*
X1342013Y1943144D01*
X1338886Y1943982D01*
X1328758Y1948177D01*
X1325955Y1949795D01*
X1317258Y1956469D01*
X1314969Y1958758D01*
X1308295Y1967455D01*
X1306677Y1970258D01*
X1302482Y1980386D01*
X1301644Y1983513D01*
X1300106Y1995194D01*
X1300000Y1996813D01*
X1300000Y2022554D01*
X1300078Y2023942D01*
X1301674Y2038103D01*
X1301893Y2040053D01*
X1302511Y2042759D01*
X1307635Y2057402D01*
X1308839Y2059902D01*
X1317092Y2073038D01*
X1318823Y2075208D01*
X1329792Y2086177D01*
X1331962Y2087908D01*
X1345098Y2096161D01*
X1347598Y2097366D01*
X1362241Y2102489D01*
X1364947Y2103107D01*
X1378413Y2104624D01*
X1385295Y2103419D01*
X1388569Y2101070D01*
X1391687Y2097953D01*
X1391687Y2097952D01*
X1392394Y2097246D01*
X1397364Y2092275D01*
X1403582Y2089699D01*
X1409022Y2085315D01*
X1411229Y2078686D01*
X1411237Y2078243D01*
X1411237Y2077743D01*
X1411237Y2069831D01*
X1412602Y2064735D01*
X1413285Y2062188D01*
X1413285Y2062187D01*
X1417240Y2055336D01*
X1417241Y2055336D01*
X1417241Y2055336D01*
X1422836Y2049741D01*
X1422836Y2049741D01*
X1422836Y2049740D01*
X1429687Y2045785D01*
X1429688Y2045785D01*
X1437331Y2043737D01*
X1437331Y2043737D01*
X1445243Y2043737D01*
X1445243Y2043737D01*
X1452886Y2045785D01*
X1459738Y2049741D01*
X1465333Y2055336D01*
X1469289Y2062188D01*
X1471337Y2069831D01*
X1471337Y2073763D01*
X1473305Y2080467D01*
X1478586Y2085043D01*
X1483737Y2086163D01*
X1487669Y2086163D01*
X1487669Y2086163D01*
X1495312Y2088211D01*
X1502164Y2092167D01*
X1507759Y2097762D01*
X1507869Y2097953D01*
X1508359Y2098800D01*
X1509227Y2099628D01*
X1509726Y2100720D01*
X1511709Y2101995D01*
X1513415Y2103622D01*
X1514741Y2103943D01*
X1515604Y2104498D01*
X1519097Y2105000D01*
X1523582Y2105000D01*
X1530286Y2103032D01*
G37*
%TD.AperFunction*%
%TD*%
%TA.AperFunction,Conductor*%
%TO.N,GND*%
G36*
X1582429Y2349372D02*
G01*
X1584652Y2349208D01*
X1585716Y2348407D01*
X1586994Y2348032D01*
X1588453Y2346347D01*
X1590235Y2345007D01*
X1591275Y2343091D01*
X1591569Y2342751D01*
X1591785Y2342152D01*
X1591798Y2342127D01*
X1591804Y2342129D01*
X1591826Y2342075D01*
X1591919Y2341905D01*
X1592185Y2341187D01*
X1592197Y2341004D01*
X1592268Y2340808D01*
X1592326Y2340592D01*
X1592228Y2340566D01*
X1592410Y2337927D01*
X1592759Y2334679D01*
X1592649Y2334461D01*
X1592666Y2334216D01*
X1591900Y2331873D01*
X1590994Y2329822D01*
X1590710Y2327374D01*
X1590710Y2290627D01*
X1590994Y2288178D01*
X1590994Y2288178D01*
X1594105Y2281132D01*
X1595417Y2278160D01*
X1603160Y2270417D01*
X1613178Y2265994D01*
X1615627Y2265710D01*
X1615627Y2265710D01*
X1658373Y2265710D01*
X1658373Y2265710D01*
X1660822Y2265994D01*
X1670840Y2270417D01*
X1678583Y2278160D01*
X1679273Y2279725D01*
X1683782Y2285062D01*
X1690460Y2287115D01*
X1697189Y2285231D01*
X1701830Y2280009D01*
X1701960Y2279725D01*
X1702651Y2278160D01*
X1704417Y2274160D01*
X1712160Y2266417D01*
X1722178Y2261994D01*
X1724627Y2261710D01*
X1724627Y2261710D01*
X1767373Y2261710D01*
X1767373Y2261710D01*
X1769822Y2261994D01*
X1779840Y2266417D01*
X1784832Y2271410D01*
X1790965Y2274759D01*
X1797934Y2274260D01*
X1800490Y2272952D01*
X1800767Y2272767D01*
X1800767Y2272767D01*
X1809132Y2267177D01*
X1809133Y2267177D01*
X1809133Y2267177D01*
X1810916Y2266822D01*
X1816509Y2265710D01*
X1841491Y2265710D01*
X1848868Y2267177D01*
X1857233Y2272767D01*
X1862823Y2281132D01*
X1864290Y2288509D01*
X1864290Y2308431D01*
X1866258Y2315135D01*
X1871539Y2319710D01*
X1878454Y2320705D01*
X1882889Y2319170D01*
X1885578Y2317618D01*
X1894553Y2315213D01*
X1894553Y2315213D01*
X1903845Y2315213D01*
X1903845Y2315213D01*
X1912821Y2317618D01*
X1920868Y2322264D01*
X1927438Y2328834D01*
X1928810Y2331211D01*
X1933867Y2336033D01*
X1940728Y2337355D01*
X1947214Y2334758D01*
X1951267Y2329067D01*
X1951949Y2325011D01*
X1951949Y2295779D01*
X1951954Y2295767D01*
X1952223Y2295118D01*
X1952792Y2293745D01*
X1955437Y2287359D01*
X1955437Y2287359D01*
X1990075Y2252721D01*
X2023458Y2219338D01*
X2026807Y2213206D01*
X2027090Y2210570D01*
X2027090Y2135178D01*
X2025121Y2128474D01*
X2019841Y2123898D01*
X2012925Y2122904D01*
X2010635Y2123459D01*
X2009127Y2123981D01*
X2007868Y2124823D01*
X2005109Y2125372D01*
X2004305Y2125650D01*
X2002123Y2127203D01*
X1999750Y2128445D01*
X1999320Y2129199D01*
X1998614Y2129702D01*
X1997618Y2132189D01*
X1996292Y2134516D01*
X1996339Y2135383D01*
X1996016Y2136188D01*
X1996523Y2138819D01*
X1996624Y2140708D01*
X1996455Y2140753D01*
X1996666Y2141538D01*
X1996666Y2141538D01*
X1999071Y2150513D01*
X1999071Y2159805D01*
X1996666Y2168781D01*
X1992020Y2176828D01*
X1985449Y2183398D01*
X1977402Y2188044D01*
X1977402Y2188044D01*
X1974410Y2188846D01*
X1968427Y2190449D01*
X1961973Y2190449D01*
X1955269Y2192418D01*
X1950694Y2197698D01*
X1949573Y2202849D01*
X1949573Y2209303D01*
X1949573Y2209303D01*
X1947168Y2218278D01*
X1942522Y2226325D01*
X1935952Y2232896D01*
X1927905Y2237542D01*
X1927905Y2237542D01*
X1924913Y2238343D01*
X1918929Y2239947D01*
X1909637Y2239947D01*
X1903654Y2238343D01*
X1900662Y2237542D01*
X1892615Y2232896D01*
X1892614Y2232896D01*
X1886044Y2226326D01*
X1886044Y2226325D01*
X1881398Y2218278D01*
X1881398Y2218278D01*
X1879010Y2209366D01*
X1878993Y2209303D01*
X1878993Y2202113D01*
X1877025Y2195409D01*
X1871744Y2190833D01*
X1864828Y2189839D01*
X1858473Y2192741D01*
X1855854Y2195913D01*
X1854563Y2198149D01*
X1847993Y2204720D01*
X1839946Y2209366D01*
X1839946Y2209366D01*
X1836954Y2210167D01*
X1830970Y2211771D01*
X1821678Y2211771D01*
X1815695Y2210167D01*
X1812703Y2209366D01*
X1804656Y2204720D01*
X1804655Y2204719D01*
X1798085Y2198149D01*
X1798085Y2198149D01*
X1793439Y2190102D01*
X1792955Y2188294D01*
X1791034Y2181127D01*
X1791034Y2171835D01*
X1793439Y2162859D01*
X1798085Y2154812D01*
X1804656Y2148242D01*
X1812703Y2143596D01*
X1821678Y2141191D01*
X1821678Y2141191D01*
X1830970Y2141191D01*
X1830970Y2141191D01*
X1839946Y2143596D01*
X1847993Y2148242D01*
X1849566Y2149815D01*
X1855698Y2153163D01*
X1862667Y2152665D01*
X1868261Y2148478D01*
X1870311Y2144256D01*
X1872621Y2135637D01*
X1877267Y2127590D01*
X1883837Y2121019D01*
X1891885Y2116373D01*
X1900860Y2113968D01*
X1900860Y2113968D01*
X1910152Y2113968D01*
X1910152Y2113968D01*
X1919127Y2116373D01*
X1927175Y2121019D01*
X1927175Y2121020D01*
X1927819Y2121514D01*
X1927937Y2121360D01*
X1929346Y2122129D01*
X1931485Y2123719D01*
X1932365Y2123778D01*
X1933139Y2124201D01*
X1935797Y2124011D01*
X1938456Y2124192D01*
X1939228Y2123766D01*
X1940108Y2123704D01*
X1942242Y2122107D01*
X1944576Y2120821D01*
X1944996Y2120046D01*
X1945702Y2119517D01*
X1946634Y2117020D01*
X1947902Y2114677D01*
X1947910Y2113600D01*
X1948145Y2112971D01*
X1948141Y2111156D01*
X1948085Y2110404D01*
X1946710Y2103491D01*
X1946710Y2092105D01*
X1946675Y2091641D01*
X1945600Y2088789D01*
X1944741Y2085866D01*
X1944283Y2085297D01*
X1944210Y2085103D01*
X1944003Y2084949D01*
X1943078Y2083802D01*
X1938186Y2078910D01*
X1938186Y2078909D01*
X1933540Y2070862D01*
X1933540Y2070862D01*
X1931135Y2061887D01*
X1931135Y2052595D01*
X1933540Y2043620D01*
X1938186Y2035572D01*
X1944756Y2029002D01*
X1952803Y2024356D01*
X1961779Y2021951D01*
X1961779Y2021951D01*
X1971070Y2021951D01*
X1971071Y2021951D01*
X1980046Y2024356D01*
X1988093Y2029002D01*
X1994664Y2035572D01*
X1999310Y2043620D01*
X2000745Y2048976D01*
X2002438Y2051753D01*
X2004018Y2054598D01*
X2004276Y2054769D01*
X2004381Y2054942D01*
X2006859Y2056693D01*
X2007700Y2057144D01*
X2007868Y2057177D01*
X2008299Y2057465D01*
X2008827Y2057749D01*
X2011683Y2058348D01*
X2014468Y2059220D01*
X2015062Y2059058D01*
X2015665Y2059184D01*
X2018391Y2058144D01*
X2021206Y2057372D01*
X2021617Y2056914D01*
X2022193Y2056695D01*
X2023925Y2054346D01*
X2025875Y2052175D01*
X2026031Y2051490D01*
X2026339Y2051071D01*
X2026424Y2049758D01*
X2027090Y2046822D01*
X2027090Y1991496D01*
X2025121Y1984792D01*
X2019841Y1980216D01*
X2013099Y1979247D01*
X2013098Y1979230D01*
X2013030Y1979237D01*
X2012925Y1979222D01*
X2012575Y1979282D01*
X2012491Y1979290D01*
X2012491Y1979290D01*
X1995010Y1979290D01*
X1991801Y1979712D01*
X1989646Y1980290D01*
X1989646Y1980290D01*
X1980354Y1980290D01*
X1974370Y1978687D01*
X1971378Y1977885D01*
X1963331Y1973239D01*
X1963331Y1973239D01*
X1956761Y1966669D01*
X1956761Y1966669D01*
X1952115Y1958621D01*
X1951724Y1957160D01*
X1949666Y1949480D01*
X1946029Y1943514D01*
X1939744Y1940462D01*
X1937688Y1940290D01*
X1935354Y1940290D01*
X1929370Y1938687D01*
X1926378Y1937885D01*
X1918331Y1933239D01*
X1918331Y1933239D01*
X1911761Y1926669D01*
X1911761Y1926668D01*
X1907115Y1918621D01*
X1906307Y1915606D01*
X1904710Y1909646D01*
X1904710Y1900354D01*
X1906358Y1894202D01*
X1906192Y1887217D01*
X1902889Y1882337D01*
X1903061Y1882166D01*
X1873458Y1852563D01*
X1873458Y1852563D01*
X1870991Y1846608D01*
X1869970Y1844143D01*
X1869970Y1802293D01*
X1869105Y1799349D01*
X1868453Y1796351D01*
X1868078Y1795849D01*
X1868001Y1795589D01*
X1866338Y1793525D01*
X1858975Y1786162D01*
X1852842Y1782813D01*
X1850207Y1782530D01*
X1826313Y1782530D01*
X1823247Y1781260D01*
X1820182Y1779990D01*
X1820180Y1779990D01*
X1820180Y1779990D01*
X1820054Y1779937D01*
X1813106Y1779191D01*
X1806859Y1782320D01*
X1803295Y1788329D01*
X1802910Y1791394D01*
X1802910Y1816511D01*
X1804878Y1823215D01*
X1810159Y1827791D01*
X1810301Y1827855D01*
X1810579Y1827977D01*
X1813840Y1829417D01*
X1821583Y1837160D01*
X1826006Y1847178D01*
X1826290Y1849627D01*
X1826290Y1886373D01*
X1826006Y1888822D01*
X1821583Y1898840D01*
X1813840Y1906583D01*
X1813839Y1906583D01*
X1813839Y1906583D01*
X1803822Y1911006D01*
X1801373Y1911290D01*
X1801373Y1911290D01*
X1758627Y1911290D01*
X1758626Y1911290D01*
X1756178Y1911006D01*
X1756178Y1911006D01*
X1746161Y1906583D01*
X1746160Y1906583D01*
X1738417Y1898840D01*
X1738417Y1898839D01*
X1733994Y1888822D01*
X1733994Y1888822D01*
X1733710Y1886374D01*
X1733710Y1849626D01*
X1733994Y1847178D01*
X1733994Y1847178D01*
X1735334Y1844142D01*
X1738417Y1837160D01*
X1746160Y1829417D01*
X1746160Y1829417D01*
X1746161Y1829417D01*
X1749698Y1827855D01*
X1755036Y1823346D01*
X1757089Y1816668D01*
X1757090Y1816511D01*
X1757090Y1767400D01*
X1755121Y1760696D01*
X1749841Y1756121D01*
X1744690Y1755000D01*
X1684437Y1755000D01*
X1681493Y1755864D01*
X1678494Y1756517D01*
X1677993Y1756892D01*
X1677733Y1756968D01*
X1675669Y1758632D01*
X1666422Y1767879D01*
X1663073Y1774011D01*
X1662790Y1776647D01*
X1662790Y1790458D01*
X1664758Y1797162D01*
X1670039Y1801738D01*
X1670181Y1801802D01*
X1670690Y1802026D01*
X1673840Y1803417D01*
X1681583Y1811160D01*
X1686006Y1821178D01*
X1686290Y1823627D01*
X1686290Y1860373D01*
X1686006Y1862822D01*
X1681583Y1872840D01*
X1673840Y1880583D01*
X1673839Y1880583D01*
X1673839Y1880583D01*
X1663822Y1885006D01*
X1661373Y1885290D01*
X1661373Y1885290D01*
X1618627Y1885290D01*
X1618626Y1885290D01*
X1616178Y1885006D01*
X1616178Y1885006D01*
X1606161Y1880583D01*
X1606160Y1880583D01*
X1598417Y1872840D01*
X1598417Y1872839D01*
X1593994Y1862822D01*
X1593994Y1862822D01*
X1593710Y1860374D01*
X1593710Y1823626D01*
X1593994Y1821178D01*
X1593994Y1821178D01*
X1598417Y1811161D01*
X1598417Y1811160D01*
X1603578Y1805999D01*
X1606927Y1799867D01*
X1607210Y1797231D01*
X1607210Y1767400D01*
X1605241Y1760696D01*
X1599961Y1756121D01*
X1594810Y1755000D01*
X1545044Y1755000D01*
X1538398Y1756931D01*
X1537243Y1757664D01*
X1534669Y1760239D01*
X1526621Y1764885D01*
X1525318Y1765234D01*
X1523716Y1766251D01*
X1522613Y1767510D01*
X1521185Y1768380D01*
X1520358Y1770083D01*
X1519111Y1771506D01*
X1518863Y1773161D01*
X1518133Y1774665D01*
X1518058Y1775172D01*
X1517868Y1776680D01*
X1517806Y1777303D01*
X1517689Y1778871D01*
X1517688Y1778872D01*
X1517612Y1779320D01*
X1517401Y1780392D01*
X1517365Y1780678D01*
X1518482Y1787575D01*
X1520900Y1790993D01*
X1522198Y1792290D01*
X1525739Y1795831D01*
X1530385Y1803879D01*
X1532790Y1812854D01*
X1532790Y1822146D01*
X1530385Y1831121D01*
X1525739Y1839169D01*
X1519169Y1845739D01*
X1511121Y1850385D01*
X1511121Y1850385D01*
X1507447Y1851370D01*
X1502146Y1852790D01*
X1502146Y1852790D01*
X1501361Y1853000D01*
X1501396Y1853131D01*
X1495786Y1855613D01*
X1494035Y1857430D01*
X1493150Y1858559D01*
X1491181Y1862804D01*
X1486701Y1868165D01*
X1483357Y1871168D01*
X1483166Y1871296D01*
X1482381Y1872297D01*
X1481472Y1874578D01*
X1480182Y1876666D01*
X1479948Y1878401D01*
X1479794Y1878787D01*
X1479854Y1879097D01*
X1479740Y1879947D01*
X1479740Y1901860D01*
X1481708Y1908564D01*
X1486989Y1913139D01*
X1492140Y1914260D01*
X1499569Y1914260D01*
X1499569Y1914260D01*
X1500491Y1914287D01*
X1500740Y1914302D01*
X1501936Y1914371D01*
X1501937Y1914372D01*
X1501937Y1914372D01*
X1501937Y1914372D01*
X1501938Y1914372D01*
X1507199Y1915606D01*
X1507199Y1915606D01*
X1510665Y1917082D01*
X1513628Y1918343D01*
X1514312Y1918653D01*
X1520501Y1923993D01*
X1524429Y1929771D01*
X1526402Y1933809D01*
X1528494Y1940307D01*
X1532423Y1946085D01*
X1535289Y1947849D01*
X1538840Y1949417D01*
X1546583Y1957160D01*
X1551006Y1967178D01*
X1551290Y1969627D01*
X1551290Y1972706D01*
X1551699Y1974100D01*
X1551620Y1975550D01*
X1552664Y1977385D01*
X1553258Y1979410D01*
X1554419Y1980473D01*
X1555074Y1981624D01*
X1557935Y1983690D01*
X1558355Y1983910D01*
X1559640Y1984583D01*
X1566492Y1985951D01*
X1572284Y1983910D01*
X1572632Y1983677D01*
X1572632Y1983677D01*
X1577539Y1982701D01*
X1580009Y1982210D01*
X1610991Y1982210D01*
X1618368Y1983677D01*
X1626733Y1989267D01*
X1632323Y1997632D01*
X1633790Y2005009D01*
X1633790Y2029991D01*
X1632323Y2037368D01*
X1632323Y2037368D01*
X1632322Y2037368D01*
X1628181Y2043567D01*
X1626733Y2045733D01*
X1618368Y2051323D01*
X1616259Y2051742D01*
X1614143Y2052849D01*
X1611860Y2053547D01*
X1610492Y2054759D01*
X1610068Y2054981D01*
X1609218Y2055887D01*
X1609002Y2056143D01*
X1608867Y2056320D01*
X1608583Y2056634D01*
X1605778Y2058949D01*
X1605576Y2059116D01*
X1603096Y2061313D01*
X1602897Y2061413D01*
X1602867Y2061353D01*
X1602280Y2061838D01*
X1602158Y2061893D01*
X1602158Y2061893D01*
X1599747Y2062995D01*
X1599358Y2063180D01*
X1598314Y2063702D01*
X1598304Y2063706D01*
X1596842Y2064436D01*
X1596168Y2064753D01*
X1595850Y2064850D01*
X1595638Y2064928D01*
X1595233Y2065036D01*
X1595233Y2065036D01*
X1595233Y2065036D01*
X1591942Y2065430D01*
X1591622Y2065468D01*
X1591620Y2065468D01*
X1591365Y2065499D01*
X1588092Y2066007D01*
X1587870Y2065983D01*
X1587877Y2065916D01*
X1587117Y2066006D01*
X1586986Y2065988D01*
X1586986Y2065988D01*
X1584384Y2065614D01*
X1583953Y2065559D01*
X1582787Y2065433D01*
X1582771Y2065430D01*
X1582253Y2065373D01*
X1580914Y2065301D01*
X1580227Y2065301D01*
X1580224Y2065300D01*
X1580224Y2065300D01*
X1579341Y2065064D01*
X1579340Y2065063D01*
X1578544Y2064850D01*
X1574259Y2063702D01*
X1574112Y2063662D01*
X1570903Y2063240D01*
X1569097Y2063240D01*
X1565888Y2063663D01*
X1564142Y2064130D01*
X1561152Y2065369D01*
X1559588Y2066272D01*
X1557020Y2068242D01*
X1555742Y2069520D01*
X1553772Y2072088D01*
X1552869Y2073652D01*
X1551630Y2076643D01*
X1551162Y2078388D01*
X1550740Y2081597D01*
X1550740Y2083556D01*
X1550993Y2086048D01*
X1551324Y2087662D01*
X1551443Y2091641D01*
X1551486Y2093083D01*
X1550491Y2099998D01*
X1550448Y2100253D01*
X1550367Y2100739D01*
X1550367Y2100739D01*
X1548759Y2104048D01*
X1547600Y2110939D01*
X1550351Y2117362D01*
X1556137Y2121278D01*
X1563122Y2121444D01*
X1564999Y2120666D01*
X1565019Y2120714D01*
X1565770Y2120403D01*
X1565770Y2120403D01*
X1574746Y2117998D01*
X1574746Y2117998D01*
X1584037Y2117998D01*
X1584038Y2117998D01*
X1593013Y2120403D01*
X1601060Y2125049D01*
X1607631Y2131619D01*
X1612277Y2139667D01*
X1614682Y2148642D01*
X1614682Y2157934D01*
X1612277Y2166909D01*
X1607631Y2174957D01*
X1601060Y2181527D01*
X1593013Y2186173D01*
X1593013Y2186173D01*
X1590021Y2186975D01*
X1584038Y2188578D01*
X1574746Y2188578D01*
X1574745Y2188578D01*
X1573063Y2188127D01*
X1566078Y2188294D01*
X1560292Y2192210D01*
X1559116Y2193905D01*
X1555270Y2200566D01*
X1548699Y2207137D01*
X1540652Y2211783D01*
X1540652Y2211783D01*
X1537234Y2212699D01*
X1531677Y2214188D01*
X1522385Y2214188D01*
X1518720Y2213206D01*
X1513409Y2211783D01*
X1512658Y2211472D01*
X1512549Y2211735D01*
X1507099Y2210413D01*
X1500496Y2212699D01*
X1496178Y2218191D01*
X1495290Y2222799D01*
X1495290Y2264373D01*
X1495290Y2264373D01*
X1495006Y2266822D01*
X1494849Y2267177D01*
X1490119Y2277891D01*
X1490355Y2277995D01*
X1488701Y2283069D01*
X1490471Y2289828D01*
X1494206Y2293745D01*
X1497233Y2295767D01*
X1502823Y2304132D01*
X1504290Y2311509D01*
X1504290Y2335983D01*
X1506258Y2342687D01*
X1511539Y2347262D01*
X1515474Y2348323D01*
X1531894Y2349940D01*
X1533109Y2350000D01*
X1580290Y2350000D01*
X1582429Y2349372D01*
G37*
%TD.AperFunction*%
%TA.AperFunction,Conductor*%
G36*
X1960014Y1837001D02*
G01*
X1964589Y1831721D01*
X1965710Y1826570D01*
X1965710Y1811509D01*
X1967177Y1804132D01*
X1967177Y1804132D01*
X1972767Y1795767D01*
X1972767Y1795767D01*
X1972767Y1795767D01*
X1975550Y1793907D01*
X1976901Y1792290D01*
X1978588Y1791028D01*
X1979097Y1789663D01*
X1980031Y1788546D01*
X1980293Y1786456D01*
X1981029Y1784482D01*
X1980720Y1783058D01*
X1980901Y1781613D01*
X1979992Y1779713D01*
X1979544Y1777654D01*
X1978056Y1775666D01*
X1977886Y1775311D01*
X1977429Y1774829D01*
X1962660Y1760060D01*
X1956528Y1756712D01*
X1955108Y1756488D01*
X1946909Y1755680D01*
X1940044Y1756982D01*
X1936925Y1759253D01*
X1936776Y1759401D01*
X1936776Y1759402D01*
X1928729Y1764048D01*
X1928729Y1764048D01*
X1925604Y1764885D01*
X1923633Y1765413D01*
X1917667Y1769050D01*
X1914614Y1775334D01*
X1915386Y1782136D01*
X1915790Y1783110D01*
X1915790Y1824959D01*
X1916654Y1827904D01*
X1917307Y1830902D01*
X1917682Y1831404D01*
X1917758Y1831663D01*
X1919422Y1833728D01*
X1921032Y1835338D01*
X1927165Y1838687D01*
X1929800Y1838970D01*
X1953310Y1838970D01*
X1960014Y1837001D01*
G37*
%TD.AperFunction*%
%TD*%
%TA.AperFunction,Conductor*%
%TO.N,VBUS*%
G36*
X1858171Y2503032D02*
G01*
X1859437Y2502100D01*
X1873620Y2490199D01*
X1887893Y2481959D01*
X1891090Y2480113D01*
X1891090Y2480113D01*
X1891090Y2480113D01*
X1891090Y2480113D01*
X1910047Y2473213D01*
X1929913Y2469710D01*
X1936959Y2469710D01*
X2052050Y2469710D01*
X2058754Y2467742D01*
X2063329Y2462461D01*
X2064450Y2457310D01*
X2064450Y2267400D01*
X2064195Y2266532D01*
X2064324Y2265635D01*
X2063226Y2263231D01*
X2062481Y2260696D01*
X2061797Y2260103D01*
X2061421Y2259280D01*
X2059198Y2257851D01*
X2057201Y2256121D01*
X2056150Y2255892D01*
X2055543Y2255502D01*
X2052050Y2255000D01*
X2050321Y2255000D01*
X2043617Y2256969D01*
X2041553Y2258632D01*
X2003632Y2296553D01*
X2000283Y2302685D01*
X2000000Y2305321D01*
X2000000Y2326359D01*
X2001968Y2333062D01*
X2006200Y2337097D01*
X2006984Y2337550D01*
X2008574Y2338468D01*
X2014169Y2344063D01*
X2018125Y2350915D01*
X2020173Y2358558D01*
X2020173Y2366470D01*
X2018125Y2374113D01*
X2018125Y2374114D01*
X2014170Y2380965D01*
X2014169Y2380965D01*
X2008575Y2386560D01*
X2008574Y2386561D01*
X2001723Y2390516D01*
X2001722Y2390516D01*
X1999175Y2391199D01*
X1994080Y2392564D01*
X1986167Y2392564D01*
X1982346Y2391540D01*
X1978524Y2390516D01*
X1978524Y2390516D01*
X1971673Y2386561D01*
X1971672Y2386560D01*
X1966077Y2380965D01*
X1966077Y2380965D01*
X1962122Y2374114D01*
X1962121Y2374113D01*
X1960073Y2366470D01*
X1959983Y2365781D01*
X1959952Y2365711D01*
X1959963Y2365635D01*
X1958541Y2362523D01*
X1957156Y2359392D01*
X1957092Y2359350D01*
X1957060Y2359280D01*
X1954180Y2357429D01*
X1951323Y2355545D01*
X1951225Y2355530D01*
X1951182Y2355502D01*
X1947689Y2355000D01*
X1938428Y2355000D01*
X1931724Y2356969D01*
X1927793Y2361505D01*
X1927608Y2361398D01*
X1923246Y2368953D01*
X1923245Y2368954D01*
X1917650Y2374549D01*
X1917650Y2374549D01*
X1910799Y2378505D01*
X1910798Y2378505D01*
X1908250Y2379188D01*
X1903155Y2380553D01*
X1895243Y2380553D01*
X1891422Y2379529D01*
X1887600Y2378505D01*
X1887600Y2378505D01*
X1880749Y2374549D01*
X1880748Y2374549D01*
X1875153Y2368954D01*
X1875153Y2368953D01*
X1870791Y2361398D01*
X1870533Y2361547D01*
X1867043Y2357215D01*
X1860414Y2355008D01*
X1859970Y2355000D01*
X1826643Y2355000D01*
X1819939Y2356969D01*
X1815364Y2362249D01*
X1814369Y2369165D01*
X1814666Y2370609D01*
X1815050Y2372044D01*
X1815050Y2379956D01*
X1813002Y2387599D01*
X1810135Y2392564D01*
X1809046Y2394451D01*
X1809046Y2394451D01*
X1803451Y2400046D01*
X1803450Y2400047D01*
X1796599Y2404002D01*
X1796599Y2404002D01*
X1794051Y2404685D01*
X1788956Y2406050D01*
X1787400Y2406050D01*
X1780696Y2408019D01*
X1776121Y2413299D01*
X1775000Y2418450D01*
X1775000Y2492600D01*
X1776968Y2499304D01*
X1782249Y2503879D01*
X1787400Y2505000D01*
X1851468Y2505000D01*
X1858171Y2503032D01*
G37*
%TD.AperFunction*%
%TD*%
%TA.AperFunction,Conductor*%
%TO.N,VBUS*%
G36*
X182847Y2467742D02*
G01*
X187192Y2462939D01*
X189943Y2457541D01*
X191232Y2450674D01*
X191056Y2449493D01*
X190836Y2448386D01*
X190836Y2448384D01*
X189451Y2437866D01*
X189350Y2436841D01*
X189244Y2435221D01*
X189210Y2434186D01*
X189210Y2374710D01*
X189265Y2373397D01*
X189315Y2372794D01*
X187910Y2365949D01*
X183158Y2361026D01*
X178332Y2358240D01*
X178331Y2358239D01*
X171761Y2351669D01*
X171761Y2351669D01*
X167115Y2343622D01*
X167115Y2343621D01*
X164710Y2334646D01*
X164710Y2325354D01*
X167115Y2316379D01*
X171761Y2308331D01*
X178331Y2301761D01*
X183294Y2298896D01*
X188116Y2293839D01*
X189438Y2286978D01*
X189368Y2286393D01*
X189210Y2285290D01*
X189210Y2247894D01*
X188566Y2245700D01*
X188376Y2243422D01*
X187372Y2241636D01*
X187241Y2241190D01*
X186647Y2240345D01*
X181349Y2233440D01*
X179060Y2231151D01*
X171295Y2225193D01*
X168492Y2223574D01*
X159449Y2219829D01*
X156322Y2218991D01*
X148008Y2217896D01*
X146390Y2217790D01*
X127512Y2217790D01*
X120808Y2219759D01*
X116232Y2225039D01*
X115218Y2231809D01*
X115290Y2232355D01*
X115290Y2241646D01*
X114203Y2245700D01*
X112885Y2250622D01*
X108239Y2258669D01*
X101668Y2265239D01*
X93621Y2269885D01*
X93621Y2269885D01*
X90629Y2270687D01*
X84646Y2272290D01*
X75354Y2272290D01*
X69370Y2270687D01*
X66378Y2269885D01*
X58331Y2265239D01*
X58331Y2265239D01*
X51761Y2258669D01*
X51761Y2258669D01*
X47115Y2250622D01*
X44710Y2241646D01*
X44710Y2234593D01*
X43785Y2231445D01*
X42974Y2228265D01*
X42806Y2228109D01*
X42741Y2227889D01*
X40262Y2225741D01*
X37860Y2223504D01*
X37634Y2223463D01*
X37461Y2223313D01*
X34213Y2222846D01*
X30984Y2222264D01*
X30688Y2222339D01*
X30545Y2222319D01*
X27564Y2223137D01*
X26508Y2223574D01*
X23705Y2225193D01*
X22990Y2225741D01*
X20141Y2227927D01*
X16021Y2233570D01*
X15290Y2237765D01*
X15290Y2384391D01*
X15350Y2385606D01*
X16798Y2400312D01*
X17272Y2402694D01*
X21384Y2416250D01*
X22314Y2418494D01*
X28991Y2430986D01*
X30340Y2433006D01*
X39327Y2443956D01*
X41045Y2445673D01*
X51994Y2454660D01*
X54014Y2456009D01*
X66506Y2462686D01*
X68750Y2463616D01*
X82306Y2467728D01*
X84689Y2468202D01*
X99394Y2469650D01*
X100609Y2469710D01*
X103490Y2469710D01*
X176144Y2469710D01*
X182847Y2467742D01*
G37*
%TD.AperFunction*%
%TD*%
%TA.AperFunction,Conductor*%
%TO.N,+2V5*%
G36*
X301478Y2154493D02*
G01*
X303278Y2154488D01*
X306422Y2153041D01*
X306455Y2153032D01*
X306470Y2153019D01*
X306484Y2153013D01*
X307589Y2152298D01*
X312189Y2147698D01*
X318143Y2145231D01*
X319184Y2144800D01*
X319185Y2144800D01*
X320609Y2144210D01*
X320610Y2144210D01*
X320610Y2144210D01*
X320610Y2144210D01*
X432677Y2144210D01*
X432677Y2144210D01*
X432677Y2144210D01*
X435143Y2145231D01*
X441097Y2147698D01*
X442362Y2148963D01*
X444106Y2149853D01*
X445693Y2150153D01*
X447110Y2150927D01*
X449746Y2151210D01*
X467491Y2151210D01*
X467491Y2151210D01*
X474868Y2152677D01*
X474868Y2152678D01*
X475593Y2152978D01*
X477022Y2153190D01*
X478028Y2153705D01*
X481553Y2153862D01*
X488294Y2153198D01*
X490677Y2152724D01*
X507100Y2147742D01*
X509345Y2146812D01*
X524480Y2138723D01*
X526501Y2137372D01*
X539767Y2126486D01*
X541485Y2124767D01*
X544789Y2120742D01*
X547520Y2114311D01*
X547365Y2110457D01*
X547250Y2109878D01*
X547250Y2093286D01*
X545282Y2086582D01*
X543618Y2084518D01*
X455642Y1996542D01*
X449510Y1993193D01*
X446874Y1992910D01*
X410714Y1992910D01*
X404010Y1994878D01*
X399434Y2000159D01*
X398440Y2007075D01*
X400876Y2012859D01*
X401239Y2013331D01*
X401239Y2013331D01*
X405885Y2021379D01*
X408290Y2030354D01*
X408290Y2039646D01*
X405885Y2048621D01*
X401239Y2056669D01*
X394669Y2063239D01*
X386621Y2067885D01*
X386621Y2067885D01*
X383630Y2068687D01*
X377646Y2070290D01*
X368354Y2070290D01*
X362370Y2068687D01*
X359378Y2067885D01*
X351331Y2063239D01*
X351331Y2063239D01*
X344761Y2056669D01*
X344761Y2056668D01*
X340115Y2048621D01*
X340115Y2048621D01*
X337710Y2039646D01*
X337710Y2030354D01*
X338940Y2025764D01*
X340115Y2021379D01*
X344761Y2013331D01*
X345124Y2012859D01*
X347643Y2006342D01*
X346240Y1999497D01*
X341358Y1994498D01*
X335286Y1992910D01*
X49222Y1992910D01*
X49222Y1993067D01*
X47907Y1992719D01*
X45851Y1993383D01*
X43699Y1993576D01*
X42458Y1994479D01*
X41258Y1994867D01*
X38654Y1997248D01*
X37627Y1998500D01*
X36277Y2000520D01*
X33165Y2006342D01*
X28187Y2015655D01*
X27257Y2017900D01*
X22276Y2034323D01*
X21802Y2036706D01*
X20120Y2053785D01*
X20120Y2056215D01*
X20164Y2056669D01*
X21802Y2073294D01*
X22276Y2075677D01*
X27258Y2092101D01*
X28187Y2094345D01*
X31780Y2101066D01*
X36676Y2106050D01*
X43490Y2107596D01*
X49604Y2105530D01*
X50132Y2105177D01*
X50132Y2105177D01*
X50133Y2105177D01*
X52288Y2104748D01*
X57509Y2103710D01*
X82491Y2103710D01*
X82491Y2103710D01*
X84911Y2104191D01*
X86320Y2104472D01*
X88739Y2104710D01*
X97146Y2104710D01*
X97146Y2104710D01*
X106121Y2107115D01*
X112069Y2110549D01*
X118269Y2112210D01*
X118494Y2112210D01*
X118494Y2112210D01*
X186506Y2112210D01*
X190966Y2113097D01*
X196023Y2116477D01*
X199403Y2121534D01*
X200290Y2125994D01*
X200290Y2142600D01*
X202258Y2149304D01*
X207539Y2153879D01*
X212690Y2155000D01*
X299751Y2155000D01*
X301478Y2154493D01*
G37*
%TD.AperFunction*%
%TD*%
%TA.AperFunction,Conductor*%
%TO.N,GND*%
G36*
X391439Y2467742D02*
G01*
X394573Y2464859D01*
X397307Y2461295D01*
X398926Y2458492D01*
X402671Y2449449D01*
X403509Y2446323D01*
X404894Y2435806D01*
X405000Y2434188D01*
X405000Y2384890D01*
X403031Y2378186D01*
X397751Y2373610D01*
X395809Y2372912D01*
X395354Y2372790D01*
X395354Y2372790D01*
X391117Y2371655D01*
X386378Y2370385D01*
X378331Y2365739D01*
X378331Y2365739D01*
X371761Y2359169D01*
X371761Y2359169D01*
X367115Y2351122D01*
X367115Y2351121D01*
X364710Y2342146D01*
X364710Y2332854D01*
X367115Y2323879D01*
X371761Y2315831D01*
X378331Y2309261D01*
X386379Y2304615D01*
X386379Y2304615D01*
X387082Y2304209D01*
X386969Y2304012D01*
X391494Y2300367D01*
X393702Y2293737D01*
X393710Y2293293D01*
X393710Y2277509D01*
X395177Y2270132D01*
X397000Y2267404D01*
X399088Y2260736D01*
X399090Y2260515D01*
X399090Y2243443D01*
X402578Y2235023D01*
X402910Y2234526D01*
X403475Y2232721D01*
X404498Y2231130D01*
X404943Y2228035D01*
X404998Y2227858D01*
X405000Y2227636D01*
X405000Y2205813D01*
X404894Y2204194D01*
X404797Y2203457D01*
X404591Y2201897D01*
X404449Y2200812D01*
X401622Y2194422D01*
X395790Y2190575D01*
X392155Y2190030D01*
X339793Y2190030D01*
X333089Y2191998D01*
X331025Y2193662D01*
X328922Y2195764D01*
X325573Y2201897D01*
X325411Y2203406D01*
X325350Y2203399D01*
X325290Y2204005D01*
X325290Y2204006D01*
X324403Y2208466D01*
X324403Y2208466D01*
X324403Y2208466D01*
X321024Y2213523D01*
X315966Y2216903D01*
X315966Y2216903D01*
X315966Y2216903D01*
X315966Y2216903D01*
X315966Y2216903D01*
X311506Y2217790D01*
X311506Y2217790D01*
X303668Y2217790D01*
X302451Y2217910D01*
X301844Y2217910D01*
X277943Y2217910D01*
X277337Y2217910D01*
X276119Y2217790D01*
X243494Y2217790D01*
X239034Y2216903D01*
X239034Y2216903D01*
X233976Y2213524D01*
X230597Y2208466D01*
X230597Y2208466D01*
X229591Y2203408D01*
X229345Y2203457D01*
X228960Y2202504D01*
X228632Y2200405D01*
X227677Y2199329D01*
X227138Y2197995D01*
X225404Y2196769D01*
X223994Y2195180D01*
X222608Y2194792D01*
X221434Y2193961D01*
X219312Y2193867D01*
X217267Y2193293D01*
X215891Y2193715D01*
X214454Y2193651D01*
X212617Y2194719D01*
X210587Y2195342D01*
X209658Y2196440D01*
X208414Y2197164D01*
X207447Y2199055D01*
X206075Y2200677D01*
X205416Y2203025D01*
X205232Y2203384D01*
X205122Y2204075D01*
X205106Y2204196D01*
X205000Y2205813D01*
X205000Y2285290D01*
X206968Y2291994D01*
X212249Y2296570D01*
X212875Y2296795D01*
X212871Y2296804D01*
X213621Y2297115D01*
X213621Y2297115D01*
X221669Y2301761D01*
X228239Y2308331D01*
X232885Y2316379D01*
X235290Y2325354D01*
X235290Y2334646D01*
X232885Y2343621D01*
X228239Y2351669D01*
X221669Y2358239D01*
X213621Y2362885D01*
X212870Y2363196D01*
X212983Y2363468D01*
X208223Y2366371D01*
X205171Y2372656D01*
X205000Y2374710D01*
X205000Y2434188D01*
X205106Y2435806D01*
X206491Y2446322D01*
X206491Y2446323D01*
X207328Y2449449D01*
X211074Y2458492D01*
X212692Y2461295D01*
X215427Y2464859D01*
X221070Y2468979D01*
X225264Y2469710D01*
X384735Y2469710D01*
X391439Y2467742D01*
G37*
%TD.AperFunction*%
%TD*%
%TA.AperFunction,Conductor*%
%TO.N,GND*%
G36*
X2225044Y1628031D02*
G01*
X2229619Y1622751D01*
X2230399Y1620035D01*
X2230419Y1620040D01*
X2230629Y1619255D01*
X2230629Y1619255D01*
X2231276Y1616840D01*
X2233018Y1610340D01*
X2233018Y1610340D01*
X2237631Y1602349D01*
X2237632Y1602349D01*
X2237632Y1602348D01*
X2244158Y1595823D01*
X2244158Y1595822D01*
X2244158Y1595822D01*
X2252149Y1591208D01*
X2252150Y1591208D01*
X2252150Y1591208D01*
X2261064Y1588819D01*
X2261065Y1588819D01*
X2270293Y1588819D01*
X2270293Y1588819D01*
X2279208Y1591208D01*
X2287200Y1595823D01*
X2293726Y1602348D01*
X2298340Y1610341D01*
X2300729Y1619255D01*
X2300729Y1619255D01*
X2300939Y1620040D01*
X2301072Y1620005D01*
X2303551Y1625609D01*
X2309384Y1629455D01*
X2313018Y1630000D01*
X2372310Y1630000D01*
X2379014Y1628031D01*
X2383589Y1622751D01*
X2384710Y1617600D01*
X2384710Y1192400D01*
X2382742Y1185696D01*
X2377461Y1181121D01*
X2372310Y1180000D01*
X2302201Y1180000D01*
X2295497Y1181969D01*
X2293433Y1183632D01*
X2276609Y1200456D01*
X2276609Y1200456D01*
X2266483Y1204650D01*
X2244448Y1204650D01*
X2237744Y1206619D01*
X2235680Y1208282D01*
X2198606Y1245356D01*
X2198606Y1245356D01*
X2195705Y1246558D01*
X2194394Y1247613D01*
X2192830Y1248232D01*
X2191730Y1249760D01*
X2190264Y1250942D01*
X2189705Y1252577D01*
X2188751Y1253904D01*
X2188253Y1256822D01*
X2188067Y1257367D01*
X2188050Y1257691D01*
X2188050Y1274482D01*
X2187177Y1278872D01*
X2186924Y1279250D01*
X2186814Y1281353D01*
X2187036Y1282285D01*
X2187036Y1284419D01*
X2187177Y1285128D01*
X2187177Y1285128D01*
X2188050Y1289518D01*
X2188050Y1314482D01*
X2187177Y1318872D01*
X2187177Y1318872D01*
X2187036Y1319581D01*
X2187036Y1324419D01*
X2187177Y1325128D01*
X2187177Y1325128D01*
X2188050Y1329518D01*
X2188050Y1354482D01*
X2187177Y1358872D01*
X2187177Y1358872D01*
X2187036Y1359581D01*
X2187036Y1364419D01*
X2187177Y1365128D01*
X2187177Y1365128D01*
X2188050Y1369518D01*
X2188050Y1394482D01*
X2187177Y1398872D01*
X2187177Y1398872D01*
X2187036Y1399581D01*
X2187036Y1404419D01*
X2187177Y1405128D01*
X2187177Y1405128D01*
X2188050Y1409518D01*
X2188050Y1434482D01*
X2187177Y1438872D01*
X2187177Y1438872D01*
X2187036Y1439581D01*
X2187036Y1444419D01*
X2187177Y1445128D01*
X2187177Y1445128D01*
X2188050Y1449518D01*
X2188050Y1474482D01*
X2187177Y1478872D01*
X2187177Y1478872D01*
X2187036Y1479581D01*
X2187036Y1484419D01*
X2187177Y1485128D01*
X2187177Y1485128D01*
X2188050Y1489518D01*
X2188050Y1514482D01*
X2187177Y1518872D01*
X2187177Y1518872D01*
X2187036Y1519581D01*
X2187036Y1524419D01*
X2187177Y1525128D01*
X2187177Y1525128D01*
X2188050Y1529518D01*
X2188050Y1554482D01*
X2188050Y1554482D01*
X2187177Y1558872D01*
X2187177Y1558872D01*
X2187177Y1558872D01*
X2183850Y1563850D01*
X2183850Y1563850D01*
X2178872Y1567177D01*
X2178872Y1567177D01*
X2174482Y1568050D01*
X2174482Y1568050D01*
X2120181Y1568050D01*
X2117237Y1568914D01*
X2114238Y1569567D01*
X2113736Y1569942D01*
X2113477Y1570018D01*
X2111413Y1571682D01*
X2107440Y1575654D01*
X2104092Y1581786D01*
X2103808Y1584422D01*
X2103808Y1584714D01*
X2103808Y1584714D01*
X2101420Y1593629D01*
X2101419Y1593629D01*
X2101109Y1594380D01*
X2101324Y1594469D01*
X2100000Y1599411D01*
X2100000Y1617600D01*
X2101969Y1624304D01*
X2107249Y1628879D01*
X2112400Y1630000D01*
X2218340Y1630000D01*
X2225044Y1628031D01*
G37*
%TD.AperFunction*%
%TD*%
%TA.AperFunction,Conductor*%
%TO.N,GND*%
G36*
X2300606Y2469650D02*
G01*
X2313815Y2468349D01*
X2320294Y2465733D01*
X2324330Y2460030D01*
X2325000Y2456009D01*
X2325000Y2352450D01*
X2323032Y2345746D01*
X2317751Y2341171D01*
X2312600Y2340050D01*
X2306044Y2340050D01*
X2302222Y2339026D01*
X2298401Y2338002D01*
X2298400Y2338002D01*
X2291550Y2334047D01*
X2291549Y2334046D01*
X2285954Y2328451D01*
X2285954Y2328451D01*
X2281998Y2321600D01*
X2281998Y2321599D01*
X2281202Y2318630D01*
X2279950Y2313956D01*
X2279950Y2306044D01*
X2280538Y2303851D01*
X2281998Y2298401D01*
X2281998Y2298401D01*
X2285954Y2291550D01*
X2285954Y2291549D01*
X2285954Y2291549D01*
X2291549Y2285954D01*
X2291549Y2285954D01*
X2291549Y2285954D01*
X2291922Y2285739D01*
X2292173Y2285475D01*
X2292194Y2285459D01*
X2292192Y2285456D01*
X2296743Y2280682D01*
X2298066Y2273821D01*
X2295469Y2267335D01*
X2294066Y2265827D01*
X2293078Y2264929D01*
X2291549Y2264046D01*
X2285954Y2258451D01*
X2285951Y2258446D01*
X2285711Y2258227D01*
X2282821Y2256822D01*
X2280003Y2255283D01*
X2279557Y2255236D01*
X2279427Y2255172D01*
X2279210Y2255198D01*
X2277367Y2255000D01*
X2178301Y2255000D01*
X2171597Y2256969D01*
X2167563Y2261200D01*
X2164046Y2267291D01*
X2164046Y2267291D01*
X2158451Y2272886D01*
X2158450Y2272886D01*
X2151600Y2276842D01*
X2151599Y2276842D01*
X2149051Y2277525D01*
X2143956Y2278890D01*
X2136044Y2278890D01*
X2132222Y2277866D01*
X2128401Y2276842D01*
X2128400Y2276842D01*
X2121550Y2272886D01*
X2121549Y2272886D01*
X2115954Y2267291D01*
X2115954Y2267291D01*
X2112437Y2261200D01*
X2111569Y2260372D01*
X2111070Y2259280D01*
X2109087Y2258005D01*
X2107381Y2256379D01*
X2106055Y2256057D01*
X2105192Y2255502D01*
X2101699Y2255000D01*
X2087400Y2255000D01*
X2080696Y2256969D01*
X2076121Y2262249D01*
X2075000Y2267400D01*
X2075000Y2457310D01*
X2076968Y2464014D01*
X2082249Y2468589D01*
X2087400Y2469710D01*
X2296510Y2469710D01*
X2299391Y2469710D01*
X2300606Y2469650D01*
G37*
%TD.AperFunction*%
%TD*%
%TA.AperFunction,Conductor*%
%TO.N,GND*%
G36*
X157985Y1049962D02*
G01*
X181166Y1048137D01*
X183087Y1047833D01*
X205222Y1042519D01*
X207071Y1041918D01*
X222180Y1035660D01*
X228101Y1033207D01*
X229835Y1032324D01*
X249244Y1020430D01*
X250818Y1019287D01*
X262913Y1008957D01*
X268127Y1004503D01*
X269503Y1003127D01*
X284286Y985818D01*
X285430Y984244D01*
X297324Y964835D01*
X298207Y963102D01*
X306918Y942072D01*
X307519Y940221D01*
X312833Y918087D01*
X313137Y916166D01*
X314962Y892985D01*
X315000Y892012D01*
X315000Y717988D01*
X314962Y717015D01*
X313137Y693834D01*
X312833Y691913D01*
X307519Y669779D01*
X306918Y667928D01*
X298207Y646899D01*
X297324Y645165D01*
X285430Y625756D01*
X284286Y624181D01*
X269503Y606873D01*
X268127Y605497D01*
X250819Y590714D01*
X249244Y589570D01*
X229835Y577676D01*
X228101Y576793D01*
X207072Y568082D01*
X205221Y567481D01*
X183087Y562167D01*
X181166Y561863D01*
X157985Y560038D01*
X157013Y560000D01*
X73196Y560000D01*
X71808Y560078D01*
X66361Y560692D01*
X57755Y561661D01*
X55048Y562279D01*
X42362Y566718D01*
X39861Y567923D01*
X28480Y575074D01*
X26309Y576805D01*
X18922Y584192D01*
X15573Y590325D01*
X15290Y592960D01*
X15290Y677310D01*
X17259Y684014D01*
X22539Y688589D01*
X27690Y689710D01*
X80086Y689710D01*
X80087Y689710D01*
X99953Y693213D01*
X118910Y700113D01*
X136380Y710199D01*
X151834Y723166D01*
X164801Y738620D01*
X174887Y756090D01*
X181787Y775047D01*
X185290Y794913D01*
X185290Y815087D01*
X181787Y834953D01*
X174887Y853910D01*
X164801Y871380D01*
X155566Y882386D01*
X151834Y886834D01*
X136380Y899801D01*
X136380Y899801D01*
X125685Y905976D01*
X118910Y909887D01*
X118910Y909887D01*
X99953Y916787D01*
X80087Y920290D01*
X80087Y920290D01*
X73041Y920290D01*
X27690Y920290D01*
X20986Y922258D01*
X16411Y927539D01*
X15290Y932690D01*
X15290Y1017040D01*
X16154Y1019983D01*
X16807Y1022982D01*
X17182Y1023484D01*
X17259Y1023743D01*
X18921Y1025807D01*
X26310Y1033195D01*
X28479Y1034926D01*
X39861Y1042077D01*
X42362Y1043281D01*
X55049Y1047721D01*
X57755Y1048339D01*
X71808Y1049922D01*
X73196Y1050000D01*
X157013Y1050000D01*
X157985Y1049962D01*
G37*
%TD.AperFunction*%
%TD*%
M02*
