%TF.GenerationSoftware,KiCad,Pcbnew,9.0.1*%
%TF.CreationDate,2025-06-03T21:11:28-04:00*%
%TF.ProjectId,Expansion_Card_Retrofit,45787061-6e73-4696-9f6e-5f436172645f,X1*%
%TF.SameCoordinates,Original*%
%TF.FileFunction,Copper,L8,Bot*%
%TF.FilePolarity,Positive*%
%FSLAX45Y45*%
G04 Gerber Fmt 4.5, Leading zero omitted, Abs format (unit mm)*
G04 Created by KiCad (PCBNEW 9.0.1) date 2025-06-03 21:11:28*
%MOMM*%
%LPD*%
G01*
G04 APERTURE LIST*
G04 Aperture macros list*
%AMRoundRect*
0 Rectangle with rounded corners*
0 $1 Rounding radius*
0 $2 $3 $4 $5 $6 $7 $8 $9 X,Y pos of 4 corners*
0 Add a 4 corners polygon primitive as box body*
4,1,4,$2,$3,$4,$5,$6,$7,$8,$9,$2,$3,0*
0 Add four circle primitives for the rounded corners*
1,1,$1+$1,$2,$3*
1,1,$1+$1,$4,$5*
1,1,$1+$1,$6,$7*
1,1,$1+$1,$8,$9*
0 Add four rect primitives between the rounded corners*
20,1,$1+$1,$2,$3,$4,$5,0*
20,1,$1+$1,$4,$5,$6,$7,0*
20,1,$1+$1,$6,$7,$8,$9,0*
20,1,$1+$1,$8,$9,$2,$3,0*%
%AMHorizOval*
0 Thick line with rounded ends*
0 $1 width*
0 $2 $3 position (X,Y) of the first rounded end (center of the circle)*
0 $4 $5 position (X,Y) of the second rounded end (center of the circle)*
0 Add line between two ends*
20,1,$1,$2,$3,$4,$5,0*
0 Add two circle primitives to create the rounded ends*
1,1,$1,$2,$3*
1,1,$1,$4,$5*%
%AMFreePoly0*
4,1,12,0.260000,-0.029000,0.260000,-0.160000,-0.160000,-0.160000,-0.210000,-0.147000,-0.247000,-0.110000,-0.260000,-0.060000,-0.260000,0.060000,-0.247000,0.110000,-0.210000,0.147000,-0.160000,0.160000,0.071000,0.160000,0.260000,-0.029000,0.260000,-0.029000,$1*%
%AMFreePoly1*
4,1,12,0.260000,0.029000,0.071000,-0.160000,-0.160000,-0.160000,-0.210000,-0.147000,-0.247000,-0.110000,-0.260000,-0.060000,-0.260000,0.060000,-0.247000,0.110000,-0.210000,0.147000,-0.160000,0.160000,0.260000,0.160000,0.260000,0.029000,0.260000,0.029000,$1*%
%AMFreePoly2*
4,1,12,0.210000,0.147000,0.247000,0.110000,0.260000,0.060000,0.260000,-0.060000,0.247000,-0.110000,0.210000,-0.147000,0.160000,-0.160000,-0.071000,-0.160000,-0.260000,0.029000,-0.260000,0.160000,0.160000,0.160000,0.210000,0.147000,0.210000,0.147000,$1*%
%AMFreePoly3*
4,1,12,0.210000,0.147000,0.247000,0.110000,0.260000,0.060000,0.260000,-0.060000,0.247000,-0.110000,0.210000,-0.147000,0.160000,-0.160000,-0.260000,-0.160000,-0.260000,-0.029000,-0.071000,0.160000,0.160000,0.160000,0.210000,0.147000,0.210000,0.147000,$1*%
G04 Aperture macros list end*
%TA.AperFunction,SMDPad,CuDef*%
%ADD10RoundRect,0.100000X-0.100000X0.130000X-0.100000X-0.130000X0.100000X-0.130000X0.100000X0.130000X0*%
%TD*%
%TA.AperFunction,SMDPad,CuDef*%
%ADD11RoundRect,0.100000X-0.130000X-0.100000X0.130000X-0.100000X0.130000X0.100000X-0.130000X0.100000X0*%
%TD*%
%TA.AperFunction,SMDPad,CuDef*%
%ADD12R,0.380000X1.000000*%
%TD*%
%TA.AperFunction,SMDPad,CuDef*%
%ADD13R,0.700000X1.150000*%
%TD*%
%TA.AperFunction,ComponentPad*%
%ADD14R,0.850000X0.850000*%
%TD*%
%TA.AperFunction,ComponentPad*%
%ADD15O,0.850000X0.850000*%
%TD*%
%TA.AperFunction,SMDPad,CuDef*%
%ADD16R,1.500000X1.500000*%
%TD*%
%TA.AperFunction,SMDPad,CuDef*%
%ADD17RoundRect,0.140000X-0.140000X-0.170000X0.140000X-0.170000X0.140000X0.170000X-0.140000X0.170000X0*%
%TD*%
%TA.AperFunction,SMDPad,CuDef*%
%ADD18RoundRect,0.100000X0.130000X0.100000X-0.130000X0.100000X-0.130000X-0.100000X0.130000X-0.100000X0*%
%TD*%
%TA.AperFunction,SMDPad,CuDef*%
%ADD19RoundRect,0.147500X0.147500X0.172500X-0.147500X0.172500X-0.147500X-0.172500X0.147500X-0.172500X0*%
%TD*%
%TA.AperFunction,SMDPad,CuDef*%
%ADD20RoundRect,0.100000X0.100000X-0.130000X0.100000X0.130000X-0.100000X0.130000X-0.100000X-0.130000X0*%
%TD*%
%TA.AperFunction,SMDPad,CuDef*%
%ADD21C,0.910000*%
%TD*%
%TA.AperFunction,SMDPad,CuDef*%
%ADD22HorizOval,0.910000X-0.100000X0.100000X0.100000X-0.100000X0*%
%TD*%
%TA.AperFunction,SMDPad,CuDef*%
%ADD23RoundRect,0.140000X0.140000X0.170000X-0.140000X0.170000X-0.140000X-0.170000X0.140000X-0.170000X0*%
%TD*%
%TA.AperFunction,SMDPad,CuDef*%
%ADD24R,1.000000X0.700000*%
%TD*%
%TA.AperFunction,SMDPad,CuDef*%
%ADD25RoundRect,0.140000X-0.170000X0.140000X-0.170000X-0.140000X0.170000X-0.140000X0.170000X0.140000X0*%
%TD*%
%TA.AperFunction,SMDPad,CuDef*%
%ADD26R,0.650001X0.249999*%
%TD*%
%TA.AperFunction,SMDPad,CuDef*%
%ADD27RoundRect,0.140000X0.170000X-0.140000X0.170000X0.140000X-0.170000X0.140000X-0.170000X-0.140000X0*%
%TD*%
%TA.AperFunction,SMDPad,CuDef*%
%ADD28C,0.500000*%
%TD*%
%TA.AperFunction,SMDPad,CuDef*%
%ADD29RoundRect,0.075000X-0.275000X0.390000X-0.275000X-0.390000X0.275000X-0.390000X0.275000X0.390000X0*%
%TD*%
%TA.AperFunction,SMDPad,CuDef*%
%ADD30RoundRect,0.075000X-0.275000X0.075000X-0.275000X-0.075000X0.275000X-0.075000X0.275000X0.075000X0*%
%TD*%
%TA.AperFunction,SMDPad,CuDef*%
%ADD31RoundRect,0.100000X0.025000X-0.075000X0.025000X0.075000X-0.025000X0.075000X-0.025000X-0.075000X0*%
%TD*%
%TA.AperFunction,SMDPad,CuDef*%
%ADD32RoundRect,0.100000X0.200000X-0.025000X0.200000X0.025000X-0.200000X0.025000X-0.200000X-0.025000X0*%
%TD*%
%TA.AperFunction,SMDPad,CuDef*%
%ADD33R,1.500000X0.550000*%
%TD*%
%TA.AperFunction,SMDPad,CuDef*%
%ADD34FreePoly0,180.000000*%
%TD*%
%TA.AperFunction,SMDPad,CuDef*%
%ADD35FreePoly1,180.000000*%
%TD*%
%TA.AperFunction,SMDPad,CuDef*%
%ADD36RoundRect,0.100000X0.106066X0.000000X0.000000X0.106066X-0.106066X0.000000X0.000000X-0.106066X0*%
%TD*%
%TA.AperFunction,SMDPad,CuDef*%
%ADD37FreePoly2,180.000000*%
%TD*%
%TA.AperFunction,SMDPad,CuDef*%
%ADD38FreePoly3,180.000000*%
%TD*%
%TA.AperFunction,SMDPad,CuDef*%
%ADD39RoundRect,0.147500X-0.147500X-0.172500X0.147500X-0.172500X0.147500X0.172500X-0.147500X0.172500X0*%
%TD*%
%TA.AperFunction,SMDPad,CuDef*%
%ADD40RoundRect,0.225000X-0.225000X-0.250000X0.225000X-0.250000X0.225000X0.250000X-0.225000X0.250000X0*%
%TD*%
%TA.AperFunction,SMDPad,CuDef*%
%ADD41C,1.000000*%
%TD*%
%TA.AperFunction,SMDPad,CuDef*%
%ADD42RoundRect,0.075000X0.275000X-0.390000X0.275000X0.390000X-0.275000X0.390000X-0.275000X-0.390000X0*%
%TD*%
%TA.AperFunction,SMDPad,CuDef*%
%ADD43RoundRect,0.075000X0.275000X-0.075000X0.275000X0.075000X-0.275000X0.075000X-0.275000X-0.075000X0*%
%TD*%
%TA.AperFunction,SMDPad,CuDef*%
%ADD44RoundRect,0.087500X-0.087500X0.225000X-0.087500X-0.225000X0.087500X-0.225000X0.087500X0.225000X0*%
%TD*%
%TA.AperFunction,SMDPad,CuDef*%
%ADD45RoundRect,0.087500X-0.225000X0.087500X-0.225000X-0.087500X0.225000X-0.087500X0.225000X0.087500X0*%
%TD*%
%TA.AperFunction,SMDPad,CuDef*%
%ADD46RoundRect,0.075000X-0.390000X-0.275000X0.390000X-0.275000X0.390000X0.275000X-0.390000X0.275000X0*%
%TD*%
%TA.AperFunction,SMDPad,CuDef*%
%ADD47RoundRect,0.075000X-0.075000X-0.275000X0.075000X-0.275000X0.075000X0.275000X-0.075000X0.275000X0*%
%TD*%
%TA.AperFunction,ViaPad*%
%ADD48C,0.400000*%
%TD*%
%TA.AperFunction,ViaPad*%
%ADD49C,0.800000*%
%TD*%
%TA.AperFunction,ViaPad*%
%ADD50C,0.500000*%
%TD*%
%TA.AperFunction,Conductor*%
%ADD51C,0.152400*%
%TD*%
%TA.AperFunction,Conductor*%
%ADD52C,0.250000*%
%TD*%
%TA.AperFunction,Conductor*%
%ADD53C,0.090000*%
%TD*%
%TA.AperFunction,Conductor*%
%ADD54C,0.254000*%
%TD*%
G04 APERTURE END LIST*
D10*
%TO.P,C5,1*%
%TO.N,+2V5*%
X2257500Y2314500D03*
%TO.P,C5,2*%
%TO.N,GND*%
X2257500Y2250500D03*
%TD*%
D11*
%TO.P,R4,2*%
%TO.N,/~{RST}*%
X2224500Y1737500D03*
%TO.P,R4,1*%
%TO.N,+2V5*%
X2160500Y1737500D03*
%TD*%
D12*
%TO.P,P1,B1,GND*%
%TO.N,GND*%
X1475000Y2551000D03*
%TO.P,P1,B2,TX2+*%
%TO.N,/TX2_P*%
X1425000Y2551000D03*
%TO.P,P1,B3,TX2-*%
%TO.N,/TX2_N*%
X1375000Y2551000D03*
%TO.P,P1,B4,VBUS*%
%TO.N,/VBUS_UNPROTECTED*%
X1325000Y2551000D03*
%TO.P,P1,B5,VCONN*%
%TO.N,unconnected-(P1-VCONN-PadB5)*%
X1275000Y2551000D03*
%TO.P,P1,B8,SBU2*%
%TO.N,unconnected-(P1-SBU2-PadB8)*%
X1125000Y2551000D03*
%TO.P,P1,B9,VBUS*%
%TO.N,/VBUS_UNPROTECTED*%
X1075000Y2551000D03*
%TO.P,P1,B10,RX1-*%
%TO.N,/RX1_P*%
X1025000Y2551000D03*
%TO.P,P1,B11,RX1+*%
%TO.N,/RX1_N*%
X975000Y2551000D03*
%TO.P,P1,B12,GND*%
%TO.N,GND*%
X925000Y2551000D03*
D13*
%TO.P,P1,S1,SHIELD*%
%TO.N,Net-(P1-SHIELD)*%
X1542000Y2467000D03*
%TD*%
D14*
%TO.P,J1,1,Pin_1*%
%TO.N,/IO_P*%
X2306000Y285000D03*
D15*
%TO.P,J1,2,Pin_2*%
%TO.N,GND*%
X2306000Y185000D03*
%TO.P,J1,3,Pin_3*%
%TO.N,/IO_N*%
X2206000Y285000D03*
%TO.P,J1,4,Pin_4*%
%TO.N,GND*%
X2206000Y185000D03*
%TD*%
D16*
%TO.P,TP6,1,1*%
%TO.N,GND*%
X645000Y2625000D03*
%TD*%
%TO.P,TP8,1,1*%
%TO.N,GND*%
X1755000Y2625000D03*
%TD*%
D10*
%TO.P,R30,1*%
%TO.N,+2V5*%
X887500Y464500D03*
%TO.P,R30,2*%
%TO.N,/SDA2*%
X887500Y400500D03*
%TD*%
D17*
%TO.P,C20,1*%
%TO.N,+2V5*%
X1844500Y1102500D03*
%TO.P,C20,2*%
%TO.N,GND*%
X1940500Y1102500D03*
%TD*%
D11*
%TO.P,C98,1*%
%TO.N,+1V1*%
X1296000Y790000D03*
%TO.P,C98,2*%
%TO.N,GND*%
X1360000Y790000D03*
%TD*%
D10*
%TO.P,R15,1*%
%TO.N,+2V5*%
X1930000Y759500D03*
%TO.P,R15,2*%
%TO.N,/MCU_SCL*%
X1930000Y695500D03*
%TD*%
D17*
%TO.P,C45,1*%
%TO.N,+2V5*%
X1592000Y205000D03*
%TO.P,C45,2*%
%TO.N,GND*%
X1688000Y205000D03*
%TD*%
D18*
%TO.P,C80,1*%
%TO.N,+2V5*%
X262000Y1505000D03*
%TO.P,C80,2*%
%TO.N,GND*%
X198000Y1505000D03*
%TD*%
D19*
%TO.P,D2,1,K*%
%TO.N,Net-(D2-K)*%
X1718500Y85000D03*
%TO.P,D2,2,A*%
%TO.N,+2V5*%
X1621500Y85000D03*
%TD*%
D20*
%TO.P,C9,1*%
%TO.N,+2V5*%
X1607500Y1338500D03*
%TO.P,C9,2*%
%TO.N,GND*%
X1607500Y1402500D03*
%TD*%
D10*
%TO.P,R36,1*%
%TO.N,Net-(Q1-G)*%
X1347000Y1669000D03*
%TO.P,R36,2*%
%TO.N,+2V5*%
X1347000Y1605000D03*
%TD*%
D20*
%TO.P,C25,1*%
%TO.N,+2V5*%
X1607500Y626000D03*
%TO.P,C25,2*%
%TO.N,GND*%
X1607500Y690000D03*
%TD*%
D21*
%TO.P,MK1,1,GND*%
%TO.N,GND*%
X667000Y960000D03*
%TO.P,MK1,2,LR*%
%TO.N,/MIC_LR*%
X667000Y795000D03*
%TO.P,MK1,3,GND*%
%TO.N,GND*%
X667000Y630000D03*
%TO.P,MK1,4,CLK*%
%TO.N,/MIC_CLK*%
X433000Y630000D03*
%TO.P,MK1,5,DOUT*%
%TO.N,Net-(JP1-A)*%
X433000Y795000D03*
D22*
%TO.P,MK1,6,VDD*%
%TO.N,+2V5*%
X443000Y950000D03*
%TD*%
D23*
%TO.P,C1,1*%
%TO.N,+2V5*%
X2319000Y2404000D03*
%TO.P,C1,2*%
%TO.N,GND*%
X2223000Y2404000D03*
%TD*%
%TO.P,C75,1*%
%TO.N,+1V1*%
X1137000Y1086000D03*
%TO.P,C75,2*%
%TO.N,GND*%
X1041000Y1086000D03*
%TD*%
D20*
%TO.P,C83,1*%
%TO.N,+1V1*%
X807500Y1505500D03*
%TO.P,C83,2*%
%TO.N,GND*%
X807500Y1569500D03*
%TD*%
D10*
%TO.P,R29,1*%
%TO.N,GND*%
X486000Y1564000D03*
%TO.P,R29,2*%
%TO.N,Net-(R21-Pad2)*%
X486000Y1500000D03*
%TD*%
D17*
%TO.P,C72,1*%
%TO.N,+1V1*%
X1042000Y790000D03*
%TO.P,C72,2*%
%TO.N,GND*%
X1138000Y790000D03*
%TD*%
D20*
%TO.P,C56,1*%
%TO.N,+2V5*%
X1525000Y1340500D03*
%TO.P,C56,2*%
%TO.N,GND*%
X1525000Y1404500D03*
%TD*%
D24*
%TO.P,Y1,1,ENABLE/DISABLE*%
%TO.N,Net-(Y1-ENABLE{slash}DISABLE)*%
X140000Y1610000D03*
%TO.P,Y1,2,NC*%
%TO.N,unconnected-(Y1-NC-Pad2)*%
X140000Y1730000D03*
%TO.P,Y1,3,GND*%
%TO.N,GND*%
X140000Y1850000D03*
%TO.P,Y1,4,CLK+*%
%TO.N,/SER_CLK_P*%
X300000Y1850000D03*
%TO.P,Y1,5,CLK-*%
%TO.N,/SER_CLK_N*%
X300000Y1730000D03*
%TO.P,Y1,6,VDD*%
%TO.N,+2V5*%
X300000Y1610000D03*
%TD*%
D19*
%TO.P,D12,1,K*%
%TO.N,/K4*%
X780000Y85000D03*
%TO.P,D12,2,A*%
%TO.N,+2V5*%
X683000Y85000D03*
%TD*%
D20*
%TO.P,C53,1*%
%TO.N,+2V5*%
X648000Y226000D03*
%TO.P,C53,2*%
%TO.N,GND*%
X648000Y290000D03*
%TD*%
D11*
%TO.P,R42,1*%
%TO.N,+2V5*%
X343000Y1505000D03*
%TO.P,R42,2*%
%TO.N,Net-(Y1-ENABLE{slash}DISABLE)*%
X407000Y1505000D03*
%TD*%
D23*
%TO.P,C65,1*%
%TO.N,+1V1*%
X575500Y1760000D03*
%TO.P,C65,2*%
%TO.N,GND*%
X479500Y1760000D03*
%TD*%
D17*
%TO.P,C106,1*%
%TO.N,VBUS*%
X172000Y2007000D03*
%TO.P,C106,2*%
%TO.N,GND*%
X268000Y2007000D03*
%TD*%
D18*
%TO.P,C67,1*%
%TO.N,+1V1*%
X644500Y1337500D03*
%TO.P,C67,2*%
%TO.N,GND*%
X580500Y1337500D03*
%TD*%
D11*
%TO.P,C84,1*%
%TO.N,+1V1*%
X895500Y1177500D03*
%TO.P,C84,2*%
%TO.N,GND*%
X959500Y1177500D03*
%TD*%
D25*
%TO.P,C36,1*%
%TO.N,+2V5*%
X890000Y283000D03*
%TO.P,C36,2*%
%TO.N,GND*%
X890000Y187000D03*
%TD*%
D18*
%TO.P,C49,1*%
%TO.N,+2V5*%
X562000Y475000D03*
%TO.P,C49,2*%
%TO.N,GND*%
X498000Y475000D03*
%TD*%
D26*
%TO.P,U11,1,VIN*%
%TO.N,VBUS*%
X165000Y2092500D03*
%TO.P,U11,2,VIN*%
X165000Y2142500D03*
%TO.P,U11,3,EN*%
X165000Y2192500D03*
%TO.P,U11,4,PG*%
%TO.N,/power_supply/PG_1V1*%
X165000Y2242500D03*
%TO.P,U11,5,VOUT*%
%TO.N,+1V1*%
X165000Y2292500D03*
%TO.P,U11,6,VOUT*%
X290000Y2292500D03*
%TO.P,U11,7,VOUT*%
X290000Y2242500D03*
%TO.P,U11,8,FB*%
%TO.N,Net-(U11-FB)*%
X290000Y2192500D03*
%TO.P,U11,9,GND*%
%TO.N,GND*%
X290000Y2142500D03*
%TO.P,U11,10,GND*%
X290000Y2092500D03*
%TD*%
D10*
%TO.P,R52,1*%
%TO.N,+1V1*%
X80000Y2297000D03*
%TO.P,R52,2*%
%TO.N,/power_supply/PG_1V1*%
X80000Y2233000D03*
%TD*%
D27*
%TO.P,C10,1*%
%TO.N,+2V5*%
X2022000Y1440000D03*
%TO.P,C10,2*%
%TO.N,GND*%
X2022000Y1536000D03*
%TD*%
D10*
%TO.P,R27,1*%
%TO.N,GND*%
X340000Y1202500D03*
%TO.P,R27,2*%
%TO.N,Net-(R22-Pad2)*%
X340000Y1138500D03*
%TD*%
D20*
%TO.P,C48,1*%
%TO.N,+2V5*%
X808000Y1096000D03*
%TO.P,C48,2*%
%TO.N,GND*%
X808000Y1160000D03*
%TD*%
%TO.P,C50,1*%
%TO.N,+2V5*%
X807000Y707000D03*
%TO.P,C50,2*%
%TO.N,GND*%
X807000Y771000D03*
%TD*%
%TO.P,R44,1*%
%TO.N,+2V5*%
X727500Y1436000D03*
%TO.P,R44,2*%
%TO.N,/~{FPGA_RST}*%
X727500Y1500000D03*
%TD*%
D10*
%TO.P,R11,1*%
%TO.N,/CFG_MD1{slash}IO_WA_B0*%
X1820000Y1824167D03*
%TO.P,R11,2*%
%TO.N,GND*%
X1820000Y1760167D03*
%TD*%
D18*
%TO.P,R19,1*%
%TO.N,Net-(U3A-GND{slash}SER_TX1_P)*%
X642000Y1577500D03*
%TO.P,R19,2*%
%TO.N,GND*%
X578000Y1577500D03*
%TD*%
%TO.P,R24,1*%
%TO.N,+2V5*%
X1637000Y310000D03*
%TO.P,R24,2*%
%TO.N,/SDA0*%
X1573000Y310000D03*
%TD*%
D20*
%TO.P,R46,1*%
%TO.N,Net-(U3H-POR_ADJ)*%
X727500Y1655500D03*
%TO.P,R46,2*%
%TO.N,GND*%
X727500Y1719500D03*
%TD*%
D11*
%TO.P,C87,1*%
%TO.N,+1V1*%
X1455000Y778000D03*
%TO.P,C87,2*%
%TO.N,GND*%
X1519000Y778000D03*
%TD*%
D25*
%TO.P,C54,1*%
%TO.N,+2V5*%
X485000Y295500D03*
%TO.P,C54,2*%
%TO.N,GND*%
X485000Y199500D03*
%TD*%
D18*
%TO.P,C90,1*%
%TO.N,+1V1*%
X1519000Y698000D03*
%TO.P,C90,2*%
%TO.N,GND*%
X1455000Y698000D03*
%TD*%
D28*
%TO.P,FID1,*%
%TO.N,*%
X1759000Y996000D03*
%TD*%
D29*
%TO.P,D5,1,K*%
%TO.N,/IO_N*%
X2031000Y429500D03*
D30*
%TO.P,D5,2,A*%
%TO.N,GND*%
X2031000Y341000D03*
%TD*%
D23*
%TO.P,C81,1*%
%TO.N,+2V5*%
X295500Y1420000D03*
%TO.P,C81,2*%
%TO.N,GND*%
X199500Y1420000D03*
%TD*%
D17*
%TO.P,C30,1*%
%TO.N,+2V5*%
X1471000Y1911000D03*
%TO.P,C30,2*%
%TO.N,GND*%
X1567000Y1911000D03*
%TD*%
D11*
%TO.P,C91,1*%
%TO.N,+1V1*%
X1454500Y1178000D03*
%TO.P,C91,2*%
%TO.N,GND*%
X1518500Y1178000D03*
%TD*%
%TO.P,C105,1*%
%TO.N,+1V1*%
X463000Y2292500D03*
%TO.P,C105,2*%
%TO.N,Net-(U11-FB)*%
X527000Y2292500D03*
%TD*%
D17*
%TO.P,C27,1*%
%TO.N,+2V5*%
X1826000Y381000D03*
%TO.P,C27,2*%
%TO.N,GND*%
X1922000Y381000D03*
%TD*%
D11*
%TO.P,C33,1*%
%TO.N,+2V5*%
X815500Y1417500D03*
%TO.P,C33,2*%
%TO.N,GND*%
X879500Y1417500D03*
%TD*%
D31*
%TO.P,Q1,1,G*%
%TO.N,Net-(Q1-G)*%
X1384500Y1745500D03*
%TO.P,Q1,2,S*%
%TO.N,+3V3*%
X1349500Y1745500D03*
D32*
%TO.P,Q1,3,D*%
%TO.N,Net-(Q1-D)*%
X1367000Y1785500D03*
%TD*%
D17*
%TO.P,C28,1*%
%TO.N,+2V5*%
X1844000Y205000D03*
%TO.P,C28,2*%
%TO.N,GND*%
X1940000Y205000D03*
%TD*%
%TO.P,C15,1*%
%TO.N,+2V5*%
X2116000Y1601000D03*
%TO.P,C15,2*%
%TO.N,GND*%
X2212000Y1601000D03*
%TD*%
D18*
%TO.P,C66,1*%
%TO.N,+1V1*%
X639500Y1497500D03*
%TO.P,C66,2*%
%TO.N,GND*%
X575500Y1497500D03*
%TD*%
D33*
%TO.P,SW2,1,1*%
%TO.N,GND*%
X232000Y55000D03*
%TO.P,SW2,2,2*%
%TO.N,/~{FPGA_RST}*%
X232000Y380000D03*
%TD*%
D20*
%TO.P,R21,1*%
%TO.N,+2V5*%
X415000Y1360000D03*
%TO.P,R21,2*%
%TO.N,Net-(R21-Pad2)*%
X415000Y1424000D03*
%TD*%
D11*
%TO.P,C63,1*%
%TO.N,+1V1*%
X968000Y1577500D03*
%TO.P,C63,2*%
%TO.N,GND*%
X1032000Y1577500D03*
%TD*%
D18*
%TO.P,C85,1*%
%TO.N,+1V1*%
X1519000Y1258000D03*
%TO.P,C85,2*%
%TO.N,GND*%
X1455000Y1258000D03*
%TD*%
D27*
%TO.P,C101,1*%
%TO.N,VBUS*%
X1159000Y1800000D03*
%TO.P,C101,2*%
%TO.N,GND*%
X1159000Y1896000D03*
%TD*%
D11*
%TO.P,C22,1*%
%TO.N,+2V5*%
X1853000Y857500D03*
%TO.P,C22,2*%
%TO.N,GND*%
X1917000Y857500D03*
%TD*%
D23*
%TO.P,C46,1*%
%TO.N,+2V5*%
X574000Y1102000D03*
%TO.P,C46,2*%
%TO.N,GND*%
X478000Y1102000D03*
%TD*%
D25*
%TO.P,C37,1*%
%TO.N,+2V5*%
X1060000Y313000D03*
%TO.P,C37,2*%
%TO.N,GND*%
X1060000Y217000D03*
%TD*%
D11*
%TO.P,C92,1*%
%TO.N,+1V1*%
X895000Y1018000D03*
%TO.P,C92,2*%
%TO.N,GND*%
X959000Y1018000D03*
%TD*%
D20*
%TO.P,C8,1*%
%TO.N,+2V5*%
X1682500Y1100500D03*
%TO.P,C8,2*%
%TO.N,GND*%
X1682500Y1164500D03*
%TD*%
D18*
%TO.P,R25,1*%
%TO.N,+2V5*%
X1652000Y385000D03*
%TO.P,R25,2*%
%TO.N,/SCL0*%
X1588000Y385000D03*
%TD*%
%TO.P,C93,1*%
%TO.N,+1V1*%
X960000Y858000D03*
%TO.P,C93,2*%
%TO.N,GND*%
X896000Y858000D03*
%TD*%
D19*
%TO.P,D9,1,K*%
%TO.N,/K1*%
X1342250Y85000D03*
%TO.P,D9,2,A*%
%TO.N,+2V5*%
X1245250Y85000D03*
%TD*%
D11*
%TO.P,R43,1*%
%TO.N,+2V5*%
X553500Y1937500D03*
%TO.P,R43,2*%
%TO.N,Net-(U3H-POR_ADJ)*%
X617500Y1937500D03*
%TD*%
%TO.P,C89,1*%
%TO.N,+1V1*%
X896000Y779000D03*
%TO.P,C89,2*%
%TO.N,GND*%
X960000Y779000D03*
%TD*%
D18*
%TO.P,C7,1*%
%TO.N,+2V5*%
X1757000Y1337500D03*
%TO.P,C7,2*%
%TO.N,GND*%
X1693000Y1337500D03*
%TD*%
D27*
%TO.P,C100,1*%
%TO.N,+3V3*%
X1253000Y1816000D03*
%TO.P,C100,2*%
%TO.N,GND*%
X1253000Y1912000D03*
%TD*%
D11*
%TO.P,R16,1*%
%TO.N,+2V5*%
X1785500Y697500D03*
%TO.P,R16,2*%
%TO.N,/MCU_SDA*%
X1849500Y697500D03*
%TD*%
D25*
%TO.P,C76,1*%
%TO.N,+1V1*%
X1253000Y991000D03*
%TO.P,C76,2*%
%TO.N,GND*%
X1253000Y895000D03*
%TD*%
D34*
%TO.P,U7,1,GND*%
%TO.N,GND*%
X1059000Y463000D03*
D35*
%TO.P,U7,2,SCL*%
%TO.N,/SCL2*%
X1059000Y415000D03*
D36*
%TO.P,U7,3,ADD0*%
%TO.N,GND*%
X1020000Y439000D03*
D37*
%TO.P,U7,4,SDA*%
%TO.N,/SDA2*%
X981000Y415000D03*
D38*
%TO.P,U7,5,V+*%
%TO.N,+2V5*%
X981000Y463000D03*
%TD*%
D27*
%TO.P,C31,1*%
%TO.N,+2V5*%
X1050000Y1271500D03*
%TO.P,C31,2*%
%TO.N,GND*%
X1050000Y1367500D03*
%TD*%
D39*
%TO.P,D7,1,K*%
%TO.N,Net-(D7-K)*%
X1901500Y2435000D03*
%TO.P,D7,2,A*%
%TO.N,/~{FPGA_RST}*%
X1998500Y2435000D03*
%TD*%
D11*
%TO.P,R20,1*%
%TO.N,GND*%
X1748000Y2445000D03*
%TO.P,R20,2*%
%TO.N,Net-(D7-K)*%
X1812000Y2445000D03*
%TD*%
D23*
%TO.P,C82,1*%
%TO.N,+2V5*%
X295000Y1327500D03*
%TO.P,C82,2*%
%TO.N,GND*%
X199000Y1327500D03*
%TD*%
D10*
%TO.P,R10,1*%
%TO.N,/CFG_MD0{slash}IO_WA_A0*%
X1750000Y1824167D03*
%TO.P,R10,2*%
%TO.N,GND*%
X1750000Y1760167D03*
%TD*%
%TO.P,R31,1*%
%TO.N,+2V5*%
X817500Y444500D03*
%TO.P,R31,2*%
%TO.N,/SCL2*%
X817500Y380500D03*
%TD*%
D23*
%TO.P,C55,1*%
%TO.N,+2V5*%
X650500Y392500D03*
%TO.P,C55,2*%
%TO.N,GND*%
X554500Y392500D03*
%TD*%
D40*
%TO.P,TH1,1*%
%TO.N,VBUS*%
X913500Y2144000D03*
%TO.P,TH1,2*%
%TO.N,/VBUS_UNPROTECTED*%
X1068500Y2144000D03*
%TD*%
D10*
%TO.P,C6,1*%
%TO.N,+3V3*%
X1998000Y2159000D03*
%TO.P,C6,2*%
%TO.N,GND*%
X1998000Y2095000D03*
%TD*%
D18*
%TO.P,C52,1*%
%TO.N,+2V5*%
X879000Y618000D03*
%TO.P,C52,2*%
%TO.N,GND*%
X815000Y618000D03*
%TD*%
D28*
%TO.P,FID2,*%
%TO.N,*%
X2061000Y221000D03*
%TD*%
D18*
%TO.P,C86,1*%
%TO.N,+1V1*%
X960500Y698000D03*
%TO.P,C86,2*%
%TO.N,GND*%
X896500Y698000D03*
%TD*%
D20*
%TO.P,C24,1*%
%TO.N,+2V5*%
X1607500Y465500D03*
%TO.P,C24,2*%
%TO.N,GND*%
X1607500Y529500D03*
%TD*%
D11*
%TO.P,C51,1*%
%TO.N,+2V5*%
X815000Y539000D03*
%TO.P,C51,2*%
%TO.N,GND*%
X879000Y539000D03*
%TD*%
D27*
%TO.P,C78,1*%
%TO.N,+1V1*%
X1151000Y895000D03*
%TO.P,C78,2*%
%TO.N,GND*%
X1151000Y991000D03*
%TD*%
D41*
%TO.P,TP3,1,1*%
%TO.N,/SWDIO*%
X1800000Y1964000D03*
%TD*%
D20*
%TO.P,C39,1*%
%TO.N,+2V5*%
X1127000Y546000D03*
%TO.P,C39,2*%
%TO.N,GND*%
X1127000Y610000D03*
%TD*%
D25*
%TO.P,C79,1*%
%TO.N,+1V1*%
X1051000Y991000D03*
%TO.P,C79,2*%
%TO.N,GND*%
X1051000Y895000D03*
%TD*%
D27*
%TO.P,C77,1*%
%TO.N,+1V1*%
X1358000Y895000D03*
%TO.P,C77,2*%
%TO.N,GND*%
X1358000Y991000D03*
%TD*%
D18*
%TO.P,C3,1*%
%TO.N,+2V5*%
X1925000Y2183000D03*
%TO.P,C3,2*%
%TO.N,GND*%
X1861000Y2183000D03*
%TD*%
D20*
%TO.P,C23,1*%
%TO.N,+2V5*%
X1607500Y773000D03*
%TO.P,C23,2*%
%TO.N,GND*%
X1607500Y837000D03*
%TD*%
D23*
%TO.P,C99,1*%
%TO.N,Net-(U3H-POR_ADJ)*%
X636000Y1852500D03*
%TO.P,C99,2*%
%TO.N,GND*%
X540000Y1852500D03*
%TD*%
D11*
%TO.P,R41,1*%
%TO.N,Net-(Q1-D)*%
X1451000Y1802000D03*
%TO.P,R41,2*%
%TO.N,/2V5_FPGA_USB_DP*%
X1515000Y1802000D03*
%TD*%
D23*
%TO.P,C29,1*%
%TO.N,+3V3*%
X1585000Y2003000D03*
%TO.P,C29,2*%
%TO.N,GND*%
X1489000Y2003000D03*
%TD*%
D25*
%TO.P,C19,1*%
%TO.N,+2V5*%
X1615000Y1018000D03*
%TO.P,C19,2*%
%TO.N,GND*%
X1615000Y922000D03*
%TD*%
D18*
%TO.P,R40,1*%
%TO.N,+2V5*%
X724500Y1092500D03*
%TO.P,R40,2*%
%TO.N,/SDA1*%
X660500Y1092500D03*
%TD*%
D10*
%TO.P,R12,1*%
%TO.N,/CFG_MD2{slash}IO_WA_A1*%
X1890000Y1824167D03*
%TO.P,R12,2*%
%TO.N,GND*%
X1890000Y1760167D03*
%TD*%
D42*
%TO.P,D4,1,K*%
%TO.N,/IO_P*%
X2032000Y582500D03*
D43*
%TO.P,D4,2,A*%
%TO.N,GND*%
X2032000Y671000D03*
%TD*%
D20*
%TO.P,R22,1*%
%TO.N,+2V5*%
X270000Y1070500D03*
%TO.P,R22,2*%
%TO.N,Net-(R22-Pad2)*%
X270000Y1134500D03*
%TD*%
D18*
%TO.P,C43,1*%
%TO.N,+2V5*%
X1518500Y538000D03*
%TO.P,C43,2*%
%TO.N,GND*%
X1454500Y538000D03*
%TD*%
D23*
%TO.P,C70,1*%
%TO.N,+1V1*%
X1367000Y709000D03*
%TO.P,C70,2*%
%TO.N,GND*%
X1271000Y709000D03*
%TD*%
%TO.P,C59,1*%
%TO.N,+2V5*%
X1068000Y1675000D03*
%TO.P,C59,2*%
%TO.N,GND*%
X972000Y1675000D03*
%TD*%
D19*
%TO.P,D11,1,K*%
%TO.N,/K3*%
X967250Y85000D03*
%TO.P,D11,2,A*%
%TO.N,+2V5*%
X870250Y85000D03*
%TD*%
D18*
%TO.P,C97,1*%
%TO.N,+1V1*%
X1359500Y1080000D03*
%TO.P,C97,2*%
%TO.N,GND*%
X1295500Y1080000D03*
%TD*%
D11*
%TO.P,C38,1*%
%TO.N,+2V5*%
X975000Y539000D03*
%TO.P,C38,2*%
%TO.N,GND*%
X1039000Y539000D03*
%TD*%
D44*
%TO.P,U8,1,SDO/SA0*%
%TO.N,+2V5*%
X1205000Y431250D03*
%TO.P,U8,2,SDx*%
%TO.N,unconnected-(U8-SDx-Pad2)*%
X1255000Y431250D03*
%TO.P,U8,3,SCx*%
%TO.N,unconnected-(U8-SCx-Pad3)*%
X1305000Y431250D03*
%TO.P,U8,4,INT1*%
%TO.N,/IMU_INT1*%
X1355000Y431250D03*
D45*
%TO.P,U8,5,VDDIO*%
%TO.N,+2V5*%
X1371250Y365000D03*
%TO.P,U8,6,GND*%
%TO.N,GND*%
X1371250Y315000D03*
%TO.P,U8,7,GND*%
X1371250Y265000D03*
D44*
%TO.P,U8,8,VDD*%
%TO.N,+2V5*%
X1355000Y198750D03*
%TO.P,U8,9,INT2*%
%TO.N,/IMU_INT2*%
X1305000Y198750D03*
%TO.P,U8,10,OCS_AUX*%
%TO.N,unconnected-(U8-OCS_AUX-Pad10)*%
X1255000Y198750D03*
%TO.P,U8,11,SDO_AUX*%
%TO.N,unconnected-(U8-SDO_AUX-Pad11)*%
X1205000Y198750D03*
D45*
%TO.P,U8,12,CS*%
%TO.N,+2V5*%
X1188750Y265000D03*
%TO.P,U8,13,SCL*%
%TO.N,/SCL0*%
X1188750Y315000D03*
%TO.P,U8,14,SDA*%
%TO.N,/SDA0*%
X1188750Y365000D03*
%TD*%
D18*
%TO.P,R39,1*%
%TO.N,+2V5*%
X724500Y1167500D03*
%TO.P,R39,2*%
%TO.N,/SCL1*%
X660500Y1167500D03*
%TD*%
D11*
%TO.P,C57,1*%
%TO.N,+2V5*%
X1453000Y1497500D03*
%TO.P,C57,2*%
%TO.N,GND*%
X1517000Y1497500D03*
%TD*%
D23*
%TO.P,C74,1*%
%TO.N,+1V1*%
X1367000Y1259000D03*
%TO.P,C74,2*%
%TO.N,GND*%
X1271000Y1259000D03*
%TD*%
D11*
%TO.P,C26,1*%
%TO.N,+2V5*%
X1853500Y617500D03*
%TO.P,C26,2*%
%TO.N,GND*%
X1917500Y617500D03*
%TD*%
D18*
%TO.P,R47,1*%
%TO.N,/~{FPGA_RST}*%
X278000Y537000D03*
%TO.P,R47,2*%
%TO.N,GND*%
X214000Y537000D03*
%TD*%
D20*
%TO.P,C58,1*%
%TO.N,+2V5*%
X1252500Y1570500D03*
%TO.P,C58,2*%
%TO.N,GND*%
X1252500Y1634500D03*
%TD*%
D18*
%TO.P,C88,1*%
%TO.N,+1V1*%
X959500Y1098000D03*
%TO.P,C88,2*%
%TO.N,GND*%
X895500Y1098000D03*
%TD*%
D25*
%TO.P,C44,1*%
%TO.N,+2V5*%
X1480000Y303000D03*
%TO.P,C44,2*%
%TO.N,GND*%
X1480000Y207000D03*
%TD*%
D18*
%TO.P,R53,1*%
%TO.N,Net-(U11-FB)*%
X442000Y2035000D03*
%TO.P,R53,2*%
%TO.N,GND*%
X378000Y2035000D03*
%TD*%
D17*
%TO.P,C73,1*%
%TO.N,+1V1*%
X1271000Y617000D03*
%TO.P,C73,2*%
%TO.N,GND*%
X1367000Y617000D03*
%TD*%
%TO.P,C71,1*%
%TO.N,+1V1*%
X1271000Y1167000D03*
%TO.P,C71,2*%
%TO.N,GND*%
X1367000Y1167000D03*
%TD*%
D18*
%TO.P,R38,1*%
%TO.N,/USB_PU*%
X1515000Y1732000D03*
%TO.P,R38,2*%
%TO.N,Net-(Q1-G)*%
X1451000Y1732000D03*
%TD*%
D23*
%TO.P,C64,1*%
%TO.N,+1V1*%
X575500Y1665000D03*
%TO.P,C64,2*%
%TO.N,GND*%
X479500Y1665000D03*
%TD*%
D10*
%TO.P,C2,1*%
%TO.N,+2V5*%
X2185000Y2125000D03*
%TO.P,C2,2*%
%TO.N,GND*%
X2185000Y2061000D03*
%TD*%
D11*
%TO.P,C34,1*%
%TO.N,+2V5*%
X895500Y1257500D03*
%TO.P,C34,2*%
%TO.N,GND*%
X959500Y1257500D03*
%TD*%
D41*
%TO.P,TP4,1,1*%
%TO.N,/SWCLK*%
X1666000Y2274000D03*
%TD*%
D10*
%TO.P,C4,1*%
%TO.N,+2V5*%
X2077000Y2161000D03*
%TO.P,C4,2*%
%TO.N,GND*%
X2077000Y2097000D03*
%TD*%
D19*
%TO.P,D3,1,K*%
%TO.N,GND*%
X1904000Y85000D03*
%TO.P,D3,2,A*%
%TO.N,Net-(D3-A)*%
X1807000Y85000D03*
%TD*%
D41*
%TO.P,TP1,1,1*%
%TO.N,/~{RST}*%
X2205000Y1921000D03*
%TD*%
D28*
%TO.P,FID4,*%
%TO.N,*%
X743000Y2155000D03*
%TD*%
D20*
%TO.P,C35,1*%
%TO.N,+2V5*%
X487500Y1360500D03*
%TO.P,C35,2*%
%TO.N,GND*%
X487500Y1424500D03*
%TD*%
D19*
%TO.P,D8,1,K*%
%TO.N,/K0*%
X1529750Y85000D03*
%TO.P,D8,2,A*%
%TO.N,+2V5*%
X1432750Y85000D03*
%TD*%
D27*
%TO.P,C47,1*%
%TO.N,+2V5*%
X809000Y895000D03*
%TO.P,C47,2*%
%TO.N,GND*%
X809000Y991000D03*
%TD*%
D10*
%TO.P,C21,1*%
%TO.N,+2V5*%
X1607500Y1170000D03*
%TO.P,C21,2*%
%TO.N,GND*%
X1607500Y1106000D03*
%TD*%
%TO.P,R13,1*%
%TO.N,/CFG_MD3{slash}IO_WA_B1*%
X1960000Y1820000D03*
%TO.P,R13,2*%
%TO.N,GND*%
X1960000Y1756000D03*
%TD*%
D20*
%TO.P,R8,1*%
%TO.N,+2V5*%
X2102500Y1015500D03*
%TO.P,R8,2*%
%TO.N,/~{FLASH_CS}*%
X2102500Y1079500D03*
%TD*%
%TO.P,R18,1*%
%TO.N,Net-(U3A-GND{slash}SER_TX1_N)*%
X655000Y1678000D03*
%TO.P,R18,2*%
%TO.N,GND*%
X655000Y1742000D03*
%TD*%
D23*
%TO.P,C69,1*%
%TO.N,+1V1*%
X1138000Y698000D03*
%TO.P,C69,2*%
%TO.N,GND*%
X1042000Y698000D03*
%TD*%
D18*
%TO.P,C41,1*%
%TO.N,+2V5*%
X1363000Y536000D03*
%TO.P,C41,2*%
%TO.N,GND*%
X1299000Y536000D03*
%TD*%
D19*
%TO.P,D13,1,K*%
%TO.N,/K5*%
X592500Y85000D03*
%TO.P,D13,2,A*%
%TO.N,+2V5*%
X495500Y85000D03*
%TD*%
D11*
%TO.P,C42,1*%
%TO.N,+2V5*%
X1454500Y619000D03*
%TO.P,C42,2*%
%TO.N,GND*%
X1518500Y619000D03*
%TD*%
D23*
%TO.P,C12,1*%
%TO.N,+3V3*%
X1335000Y2126000D03*
%TO.P,C12,2*%
%TO.N,GND*%
X1239000Y2126000D03*
%TD*%
D11*
%TO.P,R9,1*%
%TO.N,/CLOCK_SYS*%
X1830000Y2112000D03*
%TO.P,R9,2*%
%TO.N,/RCC_MCO*%
X1894000Y2112000D03*
%TD*%
D17*
%TO.P,C60,1*%
%TO.N,+2V5*%
X1345000Y1367500D03*
%TO.P,C60,2*%
%TO.N,GND*%
X1441000Y1367500D03*
%TD*%
D11*
%TO.P,C95,1*%
%TO.N,+1V1*%
X1454500Y1019000D03*
%TO.P,C95,2*%
%TO.N,GND*%
X1518500Y1019000D03*
%TD*%
D17*
%TO.P,C68,1*%
%TO.N,+1V1*%
X1041000Y1177500D03*
%TO.P,C68,2*%
%TO.N,GND*%
X1137000Y1177500D03*
%TD*%
D10*
%TO.P,R51,1*%
%TO.N,+1V1*%
X470000Y2217000D03*
%TO.P,R51,2*%
%TO.N,Net-(U11-FB)*%
X470000Y2153000D03*
%TD*%
D18*
%TO.P,C40,1*%
%TO.N,+2V5*%
X1039000Y617000D03*
%TO.P,C40,2*%
%TO.N,GND*%
X975000Y617000D03*
%TD*%
%TO.P,C96,1*%
%TO.N,+1V1*%
X1519500Y858000D03*
%TO.P,C96,2*%
%TO.N,GND*%
X1455500Y858000D03*
%TD*%
D23*
%TO.P,C11,1*%
%TO.N,+2V5*%
X1718000Y1549000D03*
%TO.P,C11,2*%
%TO.N,GND*%
X1622000Y1549000D03*
%TD*%
D46*
%TO.P,D1,1,K*%
%TO.N,/VBUS_UNPROTECTED*%
X1252500Y2277000D03*
D47*
%TO.P,D1,2,A*%
%TO.N,GND*%
X1341000Y2277000D03*
%TD*%
D25*
%TO.P,C107,1*%
%TO.N,+1V1*%
X387500Y2210500D03*
%TO.P,C107,2*%
%TO.N,GND*%
X387500Y2114500D03*
%TD*%
D19*
%TO.P,D10,1,K*%
%TO.N,/K2*%
X1154750Y85000D03*
%TO.P,D10,2,A*%
%TO.N,+2V5*%
X1057750Y85000D03*
%TD*%
D41*
%TO.P,TP2,1,1*%
%TO.N,/BOOT0*%
X2009000Y1957000D03*
%TD*%
D17*
%TO.P,C32,1*%
%TO.N,+2V5*%
X1154500Y1367500D03*
%TO.P,C32,2*%
%TO.N,GND*%
X1250500Y1367500D03*
%TD*%
D10*
%TO.P,R45,1*%
%TO.N,+1V1*%
X717000Y1305000D03*
%TO.P,R45,2*%
%TO.N,Net-(U3G-NC{slash}VDD_SER)*%
X717000Y1241000D03*
%TD*%
D18*
%TO.P,C94,1*%
%TO.N,+1V1*%
X1519000Y1098000D03*
%TO.P,C94,2*%
%TO.N,GND*%
X1455000Y1098000D03*
%TD*%
D48*
%TO.N,+2V5*%
X2275000Y2317000D03*
%TO.N,GND*%
X2021000Y1536000D03*
X2222915Y1673731D03*
X2179000Y1608000D03*
X1948000Y2113000D03*
X487000Y1098000D03*
X487000Y1658000D03*
X727000Y1578000D03*
X565000Y782500D03*
X598000Y2281000D03*
X373000Y2035000D03*
X1097000Y2412000D03*
X1155000Y2025000D03*
X887000Y858000D03*
X1287000Y1098000D03*
X2286000Y2253000D03*
D49*
X225000Y705000D03*
D48*
X380000Y2440000D03*
X1927000Y378000D03*
X1287000Y698000D03*
D49*
X75000Y980000D03*
D48*
X967000Y618000D03*
X2148000Y2063000D03*
X799704Y2204783D03*
X1047000Y538000D03*
X1654000Y1804000D03*
X567000Y1498000D03*
X2031000Y341000D03*
D49*
X225000Y905000D03*
D48*
X1367000Y1018000D03*
X887000Y1098000D03*
X1447000Y218000D03*
X1447000Y858000D03*
X1287000Y538000D03*
X1687000Y1338000D03*
X1248749Y1664672D03*
X1604359Y1422742D03*
X1607000Y538000D03*
X569119Y1182301D03*
X967000Y1418000D03*
X887000Y218000D03*
X1047000Y858000D03*
X1447000Y1098000D03*
X1127000Y778000D03*
X1487000Y1618000D03*
X1400000Y2095000D03*
X807000Y1658000D03*
X1927000Y218000D03*
X561151Y292100D03*
D49*
X75000Y630000D03*
D48*
X487000Y538000D03*
X1127000Y1018000D03*
X2117500Y622500D03*
X650000Y2340000D03*
X1852000Y538000D03*
D50*
X1755000Y2625000D03*
D48*
X567000Y1258000D03*
X1564000Y2379500D03*
X887000Y538000D03*
X1127000Y218000D03*
X2047000Y2113000D03*
X807000Y618000D03*
X1607000Y1494000D03*
X1367000Y618000D03*
X925000Y2551000D03*
X1765000Y2184000D03*
X325000Y2440000D03*
X1287000Y858000D03*
X1456000Y2000674D03*
X1250000Y1907000D03*
X1367000Y778000D03*
X967000Y1258000D03*
X1748000Y2502000D03*
X1239041Y2044552D03*
X1447000Y538000D03*
X1524000Y2263000D03*
X1668000Y193000D03*
X1557492Y2111222D03*
X806000Y777000D03*
X1527000Y778000D03*
X887000Y698000D03*
X1367000Y1178000D03*
X1527000Y1018000D03*
X1920000Y865000D03*
X568000Y1338000D03*
X1447000Y698000D03*
X1047000Y1098000D03*
X1127000Y618000D03*
X1915624Y1099191D03*
X1287000Y1258000D03*
X975000Y1952500D03*
X1120000Y2307000D03*
X647000Y298000D03*
X1475000Y2551000D03*
X580000Y2178000D03*
X1610000Y936000D03*
X2288000Y1064000D03*
X1287000Y1338000D03*
X1931600Y1624400D03*
X807000Y1168266D03*
X487000Y218000D03*
D50*
X645000Y2625000D03*
D48*
X1127000Y1178000D03*
X1334780Y2311947D03*
X1607000Y1098000D03*
X232000Y55000D03*
X1047000Y698000D03*
X385000Y1260000D03*
X2223000Y2404000D03*
X1527000Y1178000D03*
X676000Y1789000D03*
X1206000Y1874500D03*
X117120Y1512120D03*
X1927000Y618000D03*
X679207Y2417000D03*
X807000Y1578000D03*
X2268000Y1226000D03*
X1607000Y858000D03*
X1477000Y2468000D03*
X214000Y537000D03*
X827000Y2369000D03*
X736400Y618000D03*
X967000Y1018000D03*
X648000Y1414000D03*
X1447000Y1258000D03*
X1264000Y2467000D03*
X967000Y1178000D03*
X967000Y778000D03*
X197500Y1255000D03*
X807000Y1018000D03*
X1447000Y1338000D03*
X1527000Y618000D03*
X1617666Y1924372D03*
X1047000Y1498000D03*
X2013000Y1702000D03*
X1607000Y698000D03*
%TO.N,VBUS*%
X80000Y2392000D03*
X1159000Y1800000D03*
X38288Y2337862D03*
%TO.N,/SCL1*%
X487222Y1027706D03*
%TO.N,/K0*%
X1529500Y50000D03*
%TO.N,/K1*%
X1342500Y50000D03*
%TO.N,/K2*%
X1155000Y50000D03*
%TO.N,/K3*%
X967500Y50000D03*
%TO.N,/TX2_P*%
X655883Y2280799D03*
X1502251Y2379249D03*
%TO.N,/power_supply/PG_2V5*%
X102500Y2140000D03*
X1135000Y1979000D03*
%TO.N,/TX2_N*%
X1551749Y2329751D03*
X606386Y2231302D03*
%TO.N,+1V1*%
X967000Y698000D03*
X1447000Y778000D03*
X887000Y778000D03*
X807000Y1498000D03*
X1447000Y1178000D03*
X645776Y1334480D03*
X1287000Y778000D03*
X1367000Y858000D03*
X1527000Y1258000D03*
X1047000Y1018000D03*
X647000Y1498000D03*
X1527000Y1098000D03*
X1527000Y698000D03*
X1047000Y1178000D03*
X1367000Y1098000D03*
X1287000Y618000D03*
X1287000Y1178000D03*
X1127000Y858000D03*
X1367000Y698000D03*
X1447000Y1018000D03*
X1367000Y1258000D03*
X1047000Y778000D03*
X725000Y1330000D03*
X887000Y1178000D03*
X200000Y2330000D03*
X1127000Y1258000D03*
X567000Y1658000D03*
X1287000Y1018000D03*
X967000Y1098000D03*
X967000Y1578000D03*
X887000Y1018000D03*
X1127000Y698000D03*
X1527000Y858000D03*
X1127000Y1098000D03*
X967000Y858000D03*
X405336Y2337787D03*
%TO.N,/RX2_P*%
X1360749Y2397251D03*
X784000Y2314000D03*
%TO.N,/RX1_N*%
X1084749Y2360251D03*
%TO.N,Net-(P1-SHIELD)*%
X1542500Y2467500D03*
X466576Y2445544D03*
%TO.N,/RX2_N*%
X714000Y2314000D03*
X1311251Y2446749D03*
%TO.N,+3V3*%
X1998000Y2163000D03*
X1598000Y2005000D03*
X1350000Y2055000D03*
X1303000Y1713000D03*
X1275000Y1838000D03*
%TO.N,/RCC_MCO*%
X1898000Y2113000D03*
%TO.N,/BOOT0*%
X376000Y274000D03*
X2048000Y2013000D03*
%TO.N,/~{RST}*%
X2232000Y1739000D03*
%TO.N,/TX0*%
X397000Y527000D03*
X1898000Y2367600D03*
%TO.N,/RX0*%
X449002Y433325D03*
X1898000Y2263000D03*
%TO.N,/FPGA_TMS*%
X1765946Y1498659D03*
X2100000Y1795000D03*
%TO.N,+2V5*%
X807000Y698000D03*
X2319000Y2404000D03*
X2097500Y1007500D03*
X1607000Y1018000D03*
X1207694Y459220D03*
X1607000Y1178000D03*
X567000Y855000D03*
X2100000Y1670000D03*
X1050236Y89061D03*
X1447000Y618000D03*
X887000Y298000D03*
X567000Y1098000D03*
X211000Y467000D03*
X317500Y2050000D03*
X1610000Y460000D03*
X647000Y218000D03*
X452000Y1360500D03*
X110000Y2015000D03*
X1767000Y1338000D03*
X295000Y1255000D03*
X2109000Y1573000D03*
X257581Y1073239D03*
X889000Y456000D03*
X2148000Y2113000D03*
X1527000Y538000D03*
X1452000Y1903000D03*
X1127000Y538000D03*
X487000Y298000D03*
X1450000Y1502500D03*
X1127000Y1338000D03*
X42500Y2017500D03*
X1572000Y193000D03*
X490000Y2075000D03*
X264821Y1491431D03*
X1037549Y1667642D03*
X1047000Y618000D03*
X2013000Y1448000D03*
X1847000Y218000D03*
X2148000Y2013000D03*
X1607000Y618000D03*
X1367000Y1338000D03*
X727470Y1416052D03*
X807000Y538000D03*
X1376136Y1925832D03*
X1527000Y1338000D03*
X1771000Y620000D03*
X567000Y538000D03*
X807000Y1098000D03*
X1427720Y92491D03*
X2152380Y1737204D03*
X1722000Y1561000D03*
X2121750Y1497000D03*
X1607000Y1338000D03*
X437000Y71000D03*
X1847000Y618000D03*
X807000Y858000D03*
X1047000Y1258000D03*
X1607000Y1258000D03*
X1934000Y772000D03*
X1447000Y298000D03*
X887000Y1258000D03*
X1948000Y2163000D03*
X727000Y307734D03*
X1127000Y298000D03*
X1275090Y1566927D03*
X1607000Y778000D03*
X1847000Y858000D03*
X865720Y92156D03*
X674512Y89070D03*
X887000Y618000D03*
X1847000Y378000D03*
X1688516Y378187D03*
X375000Y1005000D03*
X967000Y538000D03*
X725000Y1852500D03*
X1367000Y538000D03*
X810000Y455000D03*
X2048000Y2163000D03*
X1847500Y1097500D03*
X1240720Y92156D03*
%TO.N,/~{FLASH_CS}*%
X1762368Y1255491D03*
X2098000Y2213000D03*
X2104151Y1076280D03*
%TO.N,/FLASH_S1*%
X2165000Y1035000D03*
X1998000Y2213000D03*
%TO.N,/FLASH_CLK*%
X1691000Y1255934D03*
X2098000Y2263000D03*
X2222000Y1350000D03*
%TO.N,/FLASH_S2*%
X2230000Y1060000D03*
X2056877Y2401000D03*
%TO.N,/FLASH_S3*%
X2048000Y2263000D03*
X2226000Y1505000D03*
%TO.N,/SER_CLK_P*%
X967000Y1498000D03*
%TO.N,/SER_CLK_N*%
X887000Y1498000D03*
%TO.N,/RX1_P*%
X1035251Y2409749D03*
%TO.N,/power_supply/PG_1V1*%
X80000Y2237000D03*
%TO.N,/FLASH_S0*%
X2292000Y1522000D03*
X1998000Y2263000D03*
%TO.N,/K4*%
X779500Y50000D03*
%TO.N,/CFG_MD2{slash}IO_WA_A1*%
X1890000Y1824167D03*
%TO.N,/CFG_MD3{slash}IO_WA_B1*%
X1960000Y1824167D03*
%TO.N,/IO_N*%
X1687000Y538000D03*
%TO.N,/IO_P*%
X1767000Y538000D03*
%TO.N,/D_EN*%
X1359000Y1848000D03*
X1409000Y1661000D03*
%TO.N,/SDA0*%
X1444880Y375880D03*
X1288837Y370552D03*
%TO.N,/SCL0*%
X1530000Y458000D03*
%TO.N,/IMU_INT2*%
X1288000Y292000D03*
%TO.N,/IMU_INT1*%
X1535000Y378203D03*
%TO.N,/MIC_CLK*%
X487500Y627500D03*
%TO.N,Net-(JP1-A)*%
X390000Y865000D03*
%TO.N,/MIC_LR*%
X568000Y697000D03*
%TO.N,/SDA1*%
X568998Y930494D03*
%TO.N,/SDA2*%
X895000Y380000D03*
%TO.N,/SCL2*%
X812000Y380000D03*
%TO.N,/K5*%
X592000Y50000D03*
%TO.N,/VBUS_UNPROTECTED*%
X1075000Y2551000D03*
X1049615Y2138924D03*
X1325000Y2551000D03*
%TO.N,/CLOCK_SYS*%
X967000Y1338000D03*
X1781000Y2132000D03*
%TO.N,/FPGA_USB_DP*%
X1453251Y2084251D03*
X1187000Y2063472D03*
%TO.N,/FPGA_USB_DN*%
X1117000Y2063472D03*
X1502749Y2133749D03*
%TO.N,/SWCLK*%
X1687500Y1852500D03*
%TO.N,/~{FPGA_RST}*%
X277000Y537000D03*
X728000Y1498000D03*
X2124000Y2444000D03*
%TO.N,/2V5_FPGA_USB_DP*%
X1516000Y1802000D03*
%TO.N,/FPGA_TCK*%
X2048053Y1862255D03*
X1766684Y1415904D03*
%TO.N,/FPGA_TDI*%
X2210000Y1827000D03*
X1849000Y1498000D03*
%TO.N,/FPGA_TDO*%
X1853000Y1579000D03*
X2242780Y2072353D03*
%TO.N,/SWDIO*%
X1741000Y1964000D03*
%TO.N,/CFG_MD0{slash}IO_WA_A0*%
X1750000Y1825000D03*
%TO.N,/CFG_MD1{slash}IO_WA_B0*%
X1820000Y1824167D03*
%TO.N,/USB_PU*%
X1514000Y1732000D03*
X1800500Y2370500D03*
%TO.N,/MCU_SCL*%
X1930000Y696000D03*
X1849000Y1416000D03*
X1750000Y2305000D03*
%TO.N,/MCU_SDA*%
X1797691Y2232258D03*
X1848000Y697000D03*
X1932000Y1417000D03*
%TO.N,Net-(U3H-POR_ADJ)*%
X728000Y1657000D03*
%TO.N,Net-(D2-K)*%
X1702000Y50000D03*
%TO.N,Net-(D3-A)*%
X1840000Y50000D03*
%TO.N,Net-(U3B-IO_WA_A2{slash}~{CFG_FAILED})*%
X1690000Y297500D03*
X1848285Y1709185D03*
X1687500Y700000D03*
X1766000Y1175000D03*
%TO.N,Net-(U3B-IO_WA_B2{slash}CFG_DONE)*%
X1722101Y1625306D03*
X1855500Y132007D03*
%TO.N,Net-(U3A-GND{slash}SER_TX1_N)*%
X655000Y1676000D03*
%TO.N,Net-(U3A-GND{slash}SER_TX1_P)*%
X647000Y1578000D03*
%TO.N,Net-(R21-Pad2)*%
X487000Y1498000D03*
%TO.N,Net-(R22-Pad2)*%
X487000Y1258000D03*
%TO.N,Net-(U3G-NC{slash}VDD_SER)*%
X647000Y1255000D03*
%TD*%
D51*
%TO.N,/FLASH_S2*%
X2056877Y2401000D02*
X2109000Y2401000D01*
X2364000Y2081521D02*
X2364000Y1221000D01*
X2109000Y2401000D02*
X2192500Y2317500D01*
X2192500Y2317500D02*
X2192500Y2253021D01*
X2192500Y2253021D02*
X2364000Y2081521D01*
X2364000Y1221000D02*
X2230000Y1087000D01*
X2230000Y1087000D02*
X2230000Y1060000D01*
%TO.N,/FLASH_S0*%
X2292000Y1522000D02*
X2292000Y2080479D01*
X2292000Y2080479D02*
X2142020Y2230459D01*
X2142020Y2230459D02*
X2142020Y2272324D01*
X2142020Y2272324D02*
X2113624Y2300720D01*
X2113624Y2300720D02*
X2015921Y2300720D01*
X2015921Y2300720D02*
X1998000Y2282799D01*
X1998000Y2282799D02*
X1998000Y2263000D01*
%TO.N,/FLASH_S1*%
X2165000Y1204000D02*
X2330000Y1369000D01*
X2167260Y2242283D02*
X2167260Y2291740D01*
X1980000Y2342000D02*
X1943000Y2305000D01*
X2330000Y2079543D02*
X2167260Y2242283D01*
X2165000Y1035000D02*
X2165000Y1204000D01*
X1943000Y2305000D02*
X1943000Y2248201D01*
X1943000Y2248201D02*
X1978201Y2213000D01*
X2330000Y1369000D02*
X2330000Y2079543D01*
X2167260Y2291740D02*
X2117000Y2342000D01*
X2117000Y2342000D02*
X1980000Y2342000D01*
X1978201Y2213000D02*
X1998000Y2213000D01*
%TO.N,GND*%
X199000Y1256500D02*
X197500Y1255000D01*
X972000Y1675000D02*
X982720Y1685720D01*
X731347Y630000D02*
X736400Y624947D01*
X72120Y1557120D02*
X72120Y1782880D01*
D52*
X2069000Y671000D02*
X2117500Y622500D01*
D51*
X540000Y1852500D02*
X540000Y1820500D01*
X567000Y1577500D02*
X479500Y1665000D01*
X990000Y1615220D02*
X990000Y1657000D01*
X1184500Y1896000D02*
X1206000Y1874500D01*
X139240Y1850000D02*
X140000Y1850000D01*
X992759Y1615220D02*
X990000Y1615220D01*
X479500Y1665500D02*
X487000Y1658000D01*
X1217500Y1874500D02*
X1250000Y1907000D01*
X1604294Y1911000D02*
X1617666Y1924372D01*
X1206000Y1874500D02*
X1217500Y1874500D01*
X1032000Y1513000D02*
X1047000Y1498000D01*
D52*
X685000Y1780000D02*
X676000Y1789000D01*
D51*
X215000Y1488000D02*
X215000Y1435500D01*
X879500Y1417500D02*
X966500Y1417500D01*
X219500Y1202500D02*
X197500Y1224500D01*
D52*
X1371250Y265000D02*
X1400000Y265000D01*
D51*
X385000Y1247500D02*
X385000Y1260000D01*
X493500Y1424500D02*
X567000Y1498000D01*
X340000Y1202500D02*
X385000Y1247500D01*
X1027500Y1577500D02*
X1008720Y1596280D01*
X1998000Y2099000D02*
X2070000Y2099000D01*
X140000Y1850000D02*
X268000Y1978000D01*
X1059000Y463000D02*
X1059000Y526000D01*
X1697833Y1760167D02*
X1654000Y1804000D01*
X1517000Y1497500D02*
X1605083Y1497500D01*
X340000Y1202500D02*
X219500Y1202500D01*
X578000Y1577500D02*
X567000Y1577500D01*
X1904000Y85000D02*
X1904000Y195000D01*
X487000Y1658000D02*
X486000Y1657000D01*
X1960000Y1737167D02*
X1995167Y1702000D01*
X667000Y630000D02*
X731347Y630000D01*
X1962000Y2099000D02*
X1948000Y2113000D01*
D52*
X2032000Y671000D02*
X2069000Y671000D01*
D51*
X479500Y1760000D02*
X479500Y1665500D01*
X778000Y960000D02*
X809000Y991000D01*
D52*
X685000Y1742000D02*
X685000Y1780000D01*
D51*
X1032000Y1577500D02*
X1027500Y1577500D01*
X645000Y2561000D02*
X645000Y2625000D01*
X72120Y1782880D02*
X139240Y1850000D01*
X1032000Y1577500D02*
X1032000Y1513000D01*
X1621000Y1106000D02*
X1607500Y1106000D01*
X199500Y1420000D02*
X199500Y1328000D01*
X1622000Y1549000D02*
X1622000Y1509000D01*
X215000Y1435500D02*
X199500Y1420000D01*
X1252500Y1634500D02*
X1252500Y1660921D01*
X1050000Y1348000D02*
X959500Y1257500D01*
X124240Y1505000D02*
X117120Y1512120D01*
X1750000Y1760167D02*
X1960000Y1760167D01*
X140000Y1850000D02*
X140000Y1849793D01*
X1008720Y1596280D02*
X1008720Y1599259D01*
X1607500Y1402500D02*
X1604359Y1405641D01*
X1059000Y526000D02*
X1047000Y538000D01*
X1126000Y217000D02*
X1127000Y218000D01*
D52*
X685000Y1742000D02*
X655000Y1742000D01*
D51*
X2148000Y2063000D02*
X2183000Y2063000D01*
X1622000Y1509000D02*
X1607000Y1494000D01*
X1239000Y2126000D02*
X1239000Y2044593D01*
X795000Y630000D02*
X807000Y618000D01*
X808000Y1167266D02*
X808000Y1160000D01*
X498000Y475000D02*
X498000Y527000D01*
X1682500Y1164500D02*
X1679500Y1164500D01*
X554500Y418500D02*
X498000Y475000D01*
X117120Y1512120D02*
X72120Y1557120D01*
X199000Y1327500D02*
X199000Y1256500D01*
X554500Y298751D02*
X561151Y292100D01*
D52*
X1400000Y265000D02*
X1447000Y218000D01*
D51*
X667000Y960000D02*
X778000Y960000D01*
D52*
X727500Y1719500D02*
X705000Y1742000D01*
D51*
X1020000Y439000D02*
X1044000Y463000D01*
X1766000Y2183000D02*
X1765000Y2184000D01*
X982720Y1944780D02*
X975000Y1952500D01*
D52*
X705000Y1742000D02*
X685000Y1742000D01*
D51*
X199500Y1328000D02*
X199000Y1327500D01*
X1960000Y1760167D02*
X1960000Y1737167D01*
X554500Y392500D02*
X554500Y298751D01*
X990000Y1657000D02*
X972000Y1675000D01*
X1861000Y2183000D02*
X1766000Y2183000D01*
X807000Y1168266D02*
X808000Y1167266D01*
X1008720Y1599259D02*
X992759Y1615220D01*
X2022000Y1536000D02*
X2021000Y1536000D01*
X540000Y1820500D02*
X479500Y1760000D01*
X1050000Y1367500D02*
X1050000Y1348000D01*
X1748000Y2445000D02*
X1748000Y2502000D01*
X487500Y1424500D02*
X493500Y1424500D01*
X1904000Y195000D02*
X1927000Y218000D01*
X486000Y1657000D02*
X486000Y1564000D01*
X268000Y1978000D02*
X268000Y2007000D01*
X966500Y1417500D02*
X967000Y1418000D01*
X1605500Y1404500D02*
X1607500Y1402500D01*
X198000Y1505000D02*
X215000Y1488000D01*
X1239000Y2044593D02*
X1239041Y2044552D01*
X1679500Y1164500D02*
X1621000Y1106000D01*
X1567000Y1911000D02*
X1604294Y1911000D01*
X198000Y1505000D02*
X124240Y1505000D01*
X1525000Y1404500D02*
X1605500Y1404500D01*
X1750000Y1760167D02*
X1697833Y1760167D01*
X1159000Y1896000D02*
X1184500Y1896000D01*
X2183000Y2063000D02*
X2185000Y2061000D01*
X554500Y392500D02*
X554500Y418500D01*
X1605083Y1497500D02*
X1606990Y1495593D01*
X1060000Y217000D02*
X1126000Y217000D01*
X1044000Y463000D02*
X1059000Y463000D01*
X498000Y527000D02*
X487000Y538000D01*
D52*
X1371250Y315000D02*
X1371250Y293750D01*
D51*
X1604359Y1405641D02*
X1604359Y1422742D01*
X1998000Y2099000D02*
X1962000Y2099000D01*
D52*
X1371250Y293750D02*
X1447000Y218000D01*
D51*
X1252500Y1660921D02*
X1248749Y1664672D01*
X197500Y1224500D02*
X197500Y1255000D01*
X736400Y624947D02*
X736400Y618000D01*
X1995167Y1702000D02*
X2013000Y1702000D01*
%TO.N,/SCL1*%
X524720Y1065205D02*
X487222Y1027706D01*
X607979Y1220021D02*
X550021Y1220021D01*
X550021Y1220021D02*
X524720Y1194720D01*
X524720Y1194720D02*
X524720Y1065205D01*
X660500Y1167500D02*
X607979Y1220021D01*
D53*
%TO.N,/TX2_P*%
X1414500Y2462006D02*
X1439500Y2437006D01*
X1502251Y2350257D02*
X1502251Y2379249D01*
X1493494Y2341500D02*
X1502251Y2350257D01*
X1439500Y2437006D02*
X1439500Y2373006D01*
X1414500Y2465500D02*
X1414500Y2462006D01*
X1439500Y2373006D02*
X1471006Y2341500D01*
X1471006Y2341500D02*
X1493494Y2341500D01*
X1425000Y2476000D02*
X1414500Y2465500D01*
X1425000Y2551000D02*
X1425000Y2476000D01*
%TO.N,/TX2_N*%
X1551749Y2329751D02*
X1522757Y2329751D01*
X1410500Y2424994D02*
X1385500Y2449994D01*
X1410500Y2360994D02*
X1410500Y2424994D01*
X1458994Y2312500D02*
X1410500Y2360994D01*
X1522757Y2329751D02*
X1505506Y2312500D01*
X1505506Y2312500D02*
X1458994Y2312500D01*
X1375000Y2476000D02*
X1375000Y2551000D01*
X1385500Y2449994D02*
X1385500Y2465500D01*
X1385500Y2465500D02*
X1375000Y2476000D01*
D51*
%TO.N,+1V1*%
X717874Y1330000D02*
X725000Y1330000D01*
X717000Y1305000D02*
X717000Y1329126D01*
X675256Y1305000D02*
X645776Y1334480D01*
X567000Y1751500D02*
X575500Y1760000D01*
X567000Y1658000D02*
X567000Y1751500D01*
X717000Y1329126D02*
X717874Y1330000D01*
X717000Y1305000D02*
X675256Y1305000D01*
D53*
%TO.N,/RX1_N*%
X985500Y2490006D02*
X934500Y2439006D01*
X973994Y2339500D02*
X1035006Y2339500D01*
X975000Y2551000D02*
X975000Y2520000D01*
X975000Y2520000D02*
X985500Y2509500D01*
X1055757Y2360251D02*
X1084749Y2360251D01*
X1035006Y2339500D02*
X1055757Y2360251D01*
X934500Y2378994D02*
X973994Y2339500D01*
X985500Y2509500D02*
X985500Y2490006D01*
X934500Y2439006D02*
X934500Y2378994D01*
D51*
%TO.N,+3V3*%
X1318000Y1745500D02*
X1303000Y1730500D01*
X1335000Y2126000D02*
X1335000Y2070000D01*
X1335000Y2070000D02*
X1350000Y2055000D01*
X1303000Y1730500D02*
X1303000Y1713000D01*
X1349500Y1745500D02*
X1318000Y1745500D01*
%TO.N,/BOOT0*%
X2004000Y1969000D02*
X2004000Y1961000D01*
X2048000Y2013000D02*
X2004000Y1969000D01*
%TO.N,/~{RST}*%
X2256000Y1870000D02*
X2205000Y1921000D01*
X2256000Y1763000D02*
X2256000Y1870000D01*
X2232000Y1739000D02*
X2256000Y1763000D01*
%TO.N,+2V5*%
X281500Y1505000D02*
X262000Y1505000D01*
X1677181Y378187D02*
X1688516Y378187D01*
X1637000Y330000D02*
X1685187Y378187D01*
X562000Y533000D02*
X567000Y538000D01*
X562000Y475000D02*
X562000Y533000D01*
X2148000Y2113000D02*
X2173000Y2113000D01*
X343000Y1505000D02*
X262000Y1505000D01*
X1658813Y378187D02*
X1652000Y385000D01*
X452000Y1360500D02*
X415500Y1360500D01*
X1652000Y418000D02*
X1610000Y460000D01*
X295500Y1420000D02*
X295500Y1328000D01*
X1682500Y1085500D02*
X1615000Y1018000D01*
X300000Y1523500D02*
X281500Y1505000D01*
X1313163Y1605000D02*
X1275090Y1566927D01*
X262000Y1505000D02*
X279000Y1488000D01*
D52*
X1207694Y452960D02*
X1205000Y450266D01*
D51*
X270000Y1070500D02*
X267261Y1073239D01*
X650500Y384234D02*
X727000Y307734D01*
X1688516Y378187D02*
X1658813Y378187D01*
X265277Y1491887D02*
X265277Y1513277D01*
D54*
X702500Y1972500D02*
X702500Y1922500D01*
D51*
X890000Y301000D02*
X887000Y298000D01*
X650500Y392500D02*
X650500Y384234D01*
X1347000Y1605000D02*
X1313163Y1605000D01*
X420000Y960000D02*
X375000Y1005000D01*
D54*
X1160000Y265000D02*
X1127000Y298000D01*
D51*
X1948000Y2163000D02*
X1945000Y2163000D01*
X1637000Y310000D02*
X1637000Y250000D01*
D52*
X1060642Y1667642D02*
X1037549Y1667642D01*
D51*
X1677181Y378187D02*
X1688516Y378187D01*
X1782000Y694000D02*
X1782000Y631000D01*
D54*
X588500Y1992500D02*
X682500Y1992500D01*
D52*
X1068000Y1675000D02*
X1060642Y1667642D01*
D54*
X1188750Y265000D02*
X1160000Y265000D01*
D51*
X1652000Y385000D02*
X1652000Y418000D01*
X1637000Y310000D02*
X1637000Y330000D01*
D54*
X682500Y1992500D02*
X702500Y1972500D01*
D51*
X265277Y1513277D02*
X300000Y1548000D01*
X433000Y960000D02*
X420000Y960000D01*
D52*
X495500Y85000D02*
X451000Y85000D01*
D51*
X415500Y1360500D02*
X415000Y1360000D01*
D54*
X553500Y1937500D02*
X553500Y1957500D01*
D51*
X415000Y1360000D02*
X327500Y1360000D01*
X815500Y1417500D02*
X728919Y1417500D01*
X1447000Y320500D02*
X1447000Y298000D01*
X279000Y1488000D02*
X279000Y1436500D01*
X728919Y1417500D02*
X727470Y1416052D01*
X279000Y1436500D02*
X295500Y1420000D01*
X300000Y1610000D02*
X300000Y1523500D01*
X1402500Y365000D02*
X1447000Y320500D01*
X817500Y444500D02*
X867500Y444500D01*
X264821Y1491431D02*
X265277Y1491887D01*
D52*
X1207694Y459220D02*
X1207694Y452960D01*
D51*
X644500Y392500D02*
X562000Y475000D01*
X1682500Y1100500D02*
X1682500Y1085500D01*
X650500Y392500D02*
X644500Y392500D01*
X1127000Y1338000D02*
X1138500Y1338000D01*
X1675390Y379979D02*
X1677181Y378187D01*
X1667451Y379979D02*
X1662430Y385000D01*
X981000Y524000D02*
X967000Y538000D01*
X1112000Y313000D02*
X1127000Y298000D01*
D52*
X1205000Y450266D02*
X1205000Y431250D01*
D51*
X1060000Y313000D02*
X1112000Y313000D01*
X267261Y1073239D02*
X257581Y1073239D01*
X1637000Y250000D02*
X1592000Y205000D01*
X1621500Y85000D02*
X1621500Y143500D01*
D54*
X553500Y1957500D02*
X588500Y1992500D01*
D51*
X981000Y463000D02*
X981000Y524000D01*
X1675390Y379979D02*
X1677181Y378187D01*
X1667451Y379979D02*
X1675390Y379979D01*
X1138500Y1338000D02*
X1165500Y1365000D01*
X487500Y1360500D02*
X452000Y1360500D01*
X433000Y960000D02*
X462000Y960000D01*
X1782000Y631000D02*
X1771000Y620000D01*
D52*
X451000Y85000D02*
X437000Y71000D01*
D51*
X2017000Y1452000D02*
X2013000Y1448000D01*
X2173000Y2113000D02*
X2185000Y2125000D01*
X1945000Y2163000D02*
X1925000Y2183000D01*
X889000Y463000D02*
X887500Y464500D01*
X867500Y444500D02*
X887500Y464500D01*
X1371250Y365000D02*
X1402500Y365000D01*
X1685187Y378187D02*
X1688516Y378187D01*
X327500Y1360000D02*
X295000Y1327500D01*
X981000Y463000D02*
X889000Y463000D01*
X295500Y1328000D02*
X295000Y1327500D01*
X295000Y1327500D02*
X295000Y1255000D01*
X1662430Y385000D02*
X1652000Y385000D01*
X1355000Y198750D02*
X1355000Y165211D01*
X1621500Y143500D02*
X1572000Y193000D01*
X1355000Y165211D02*
X1427720Y92491D01*
X1667451Y379979D02*
X1675390Y379979D01*
X300000Y1548000D02*
X300000Y1610000D01*
D54*
X725000Y1900000D02*
X725000Y1852500D01*
X702500Y1922500D02*
X725000Y1900000D01*
D51*
X1785500Y697500D02*
X1782000Y694000D01*
%TO.N,/~{FLASH_CS}*%
X1936000Y1255000D02*
X2104151Y1086849D01*
X1762368Y1255491D02*
X1762859Y1255000D01*
X1762859Y1255000D02*
X1936000Y1255000D01*
X2104151Y1086849D02*
X2104151Y1076280D01*
%TO.N,/FLASH_CLK*%
X2222000Y1350000D02*
X2171780Y1299780D01*
X1734846Y1299780D02*
X1691000Y1255934D01*
X2171780Y1299780D02*
X1734846Y1299780D01*
D53*
%TO.N,/SER_CLK_P*%
X558994Y2065500D02*
X435500Y1942006D01*
X368994Y1804500D02*
X360500Y1804500D01*
X740006Y2065500D02*
X558994Y2065500D01*
X360500Y1804500D02*
X315000Y1850000D01*
X315000Y1850000D02*
X300000Y1850000D01*
X901500Y1699006D02*
X826500Y1774006D01*
X941500Y1523500D02*
X941500Y1545933D01*
X967000Y1498000D02*
X941500Y1523500D01*
X826500Y1774006D02*
X826500Y1979006D01*
X941500Y1545933D02*
X929400Y1558033D01*
X435500Y1942006D02*
X435500Y1871006D01*
X929400Y1558035D02*
X901500Y1585935D01*
X435500Y1871006D02*
X368994Y1804500D01*
X929400Y1558033D02*
X929400Y1558035D01*
X901500Y1585935D02*
X901500Y1699006D01*
X826500Y1979006D02*
X740006Y2065500D01*
%TO.N,/SER_CLK_N*%
X887000Y1498000D02*
X912500Y1523500D01*
X900400Y1546022D02*
X872500Y1573922D01*
X464500Y1929994D02*
X464500Y1858994D01*
X872500Y1686994D02*
X797500Y1761994D01*
X360500Y1775500D02*
X315000Y1730000D01*
X912500Y1533924D02*
X900402Y1546022D01*
X900402Y1546022D02*
X900400Y1546022D01*
X797500Y1761994D02*
X797500Y1966994D01*
X381006Y1775500D02*
X360500Y1775500D01*
X797500Y1966994D02*
X727994Y2036500D01*
X872500Y1573922D02*
X872500Y1686994D01*
X464500Y1858994D02*
X381006Y1775500D01*
X727994Y2036500D02*
X571006Y2036500D01*
X315000Y1730000D02*
X300000Y1730000D01*
X912500Y1523500D02*
X912500Y1533924D01*
X571006Y2036500D02*
X464500Y1929994D01*
%TO.N,/RX1_P*%
X986006Y2368500D02*
X963500Y2391006D01*
X1025000Y2520000D02*
X1025000Y2551000D01*
X963500Y2391006D02*
X963500Y2426994D01*
X963500Y2426994D02*
X1014500Y2477994D01*
X1035251Y2409749D02*
X1035251Y2380757D01*
X1014500Y2477994D02*
X1014500Y2509500D01*
X1022994Y2368500D02*
X986006Y2368500D01*
X1035251Y2380757D02*
X1022994Y2368500D01*
X1014500Y2509500D02*
X1025000Y2520000D01*
D51*
%TO.N,/power_supply/PG_1V1*%
X85500Y2242500D02*
X80000Y2237000D01*
X165000Y2242500D02*
X85500Y2242500D01*
%TO.N,Net-(Y1-ENABLE{slash}DISABLE)*%
X407000Y1623760D02*
X367880Y1662880D01*
X407000Y1505000D02*
X407000Y1623760D01*
X367880Y1662880D02*
X192880Y1662880D01*
X192880Y1662880D02*
X140000Y1610000D01*
X140000Y1610000D02*
X140000Y1585000D01*
D53*
%TO.N,/IO_N*%
X2031000Y429500D02*
X2093500Y492000D01*
X1969500Y491000D02*
X1924506Y491000D01*
X2172500Y377488D02*
X2206000Y343988D01*
X2206000Y343988D02*
X2206000Y285000D01*
X2031000Y429500D02*
X1969500Y491000D01*
X1771500Y453500D02*
X1687000Y538000D01*
X2172500Y466994D02*
X2172500Y377488D01*
X1924506Y491000D02*
X1887006Y453500D01*
X1887006Y453500D02*
X1771500Y453500D01*
X2147494Y492000D02*
X2172500Y466994D01*
X2093500Y492000D02*
X2147494Y492000D01*
%TO.N,/IO_P*%
X1969500Y520000D02*
X1912494Y520000D01*
X1874994Y482500D02*
X1783512Y482500D01*
X2093500Y521000D02*
X2159506Y521000D01*
X2032000Y582500D02*
X1969500Y520000D01*
X1912494Y520000D02*
X1874994Y482500D01*
X2159506Y521000D02*
X2201500Y479006D01*
X1783512Y482500D02*
X1767000Y499012D01*
X2032000Y582500D02*
X2093500Y521000D01*
X2201500Y389500D02*
X2306000Y285000D01*
X2201500Y479006D02*
X2201500Y389500D01*
X1767000Y499012D02*
X1767000Y538000D01*
D51*
%TO.N,/D_EN*%
X1555720Y1710241D02*
X1523800Y1678321D01*
X1523800Y1678321D02*
X1426321Y1678321D01*
X1555720Y1823759D02*
X1555720Y1710241D01*
X1426321Y1678321D02*
X1409000Y1661000D01*
X1359000Y1848000D02*
X1531479Y1848000D01*
X1531479Y1848000D02*
X1555720Y1823759D01*
%TO.N,/SDA0*%
X1573000Y310000D02*
X1550000Y310000D01*
X1194302Y370552D02*
X1188750Y365000D01*
X1288837Y370552D02*
X1194302Y370552D01*
X1550000Y310000D02*
X1484120Y375880D01*
X1484120Y375880D02*
X1444880Y375880D01*
%TO.N,/SCL0*%
X1132500Y346071D02*
X1132500Y438500D01*
X1132500Y438500D02*
X1191000Y497000D01*
X1535000Y458000D02*
X1530000Y458000D01*
X1491000Y497000D02*
X1530000Y458000D01*
X1188750Y315000D02*
X1163571Y315000D01*
X1163571Y315000D02*
X1132500Y346071D01*
X1588000Y405000D02*
X1535000Y458000D01*
X1588000Y385000D02*
X1588000Y405000D01*
X1191000Y497000D02*
X1491000Y497000D01*
%TO.N,/IMU_INT2*%
X1305000Y275000D02*
X1288000Y292000D01*
X1305000Y198750D02*
X1305000Y275000D01*
%TO.N,/IMU_INT1*%
X1535000Y378203D02*
X1535000Y393509D01*
X1535000Y393509D02*
X1497259Y431250D01*
X1497259Y431250D02*
X1355000Y431250D01*
%TO.N,/MIC_CLK*%
X439991Y637500D02*
X439991Y663991D01*
X477500Y637500D02*
X439991Y637500D01*
X433000Y657000D02*
X433000Y630000D01*
X439991Y663991D02*
X433000Y657000D01*
X487500Y627500D02*
X477500Y637500D01*
%TO.N,Net-(JP1-A)*%
X433000Y822000D02*
X390000Y865000D01*
X433000Y795000D02*
X433000Y822000D01*
X395000Y870000D02*
X390000Y865000D01*
%TO.N,/MIC_LR*%
X667000Y795000D02*
X569000Y697000D01*
X569000Y697000D02*
X568000Y697000D01*
%TO.N,/SDA1*%
X568998Y1000998D02*
X568998Y930494D01*
X660500Y1092500D02*
X568998Y1000998D01*
%TO.N,/SDA2*%
X887500Y400500D02*
X966500Y400500D01*
X966500Y400500D02*
X981000Y415000D01*
%TO.N,/SCL2*%
X981280Y337280D02*
X854720Y337280D01*
X854720Y337280D02*
X812000Y380000D01*
X1059000Y415000D02*
X981280Y337280D01*
%TO.N,/CLOCK_SYS*%
X1801000Y2112000D02*
X1781000Y2132000D01*
X1830000Y2112000D02*
X1801000Y2112000D01*
D53*
%TO.N,/FPGA_USB_DP*%
X1187000Y2063472D02*
X1166500Y2083972D01*
X1195006Y2187500D02*
X1284000Y2187500D01*
X1166500Y2083972D02*
X1166500Y2158994D01*
X1453251Y2113243D02*
X1378994Y2187500D01*
X1378994Y2187500D02*
X1283000Y2187500D01*
X1453251Y2084251D02*
X1453251Y2113243D01*
X1166500Y2158994D02*
X1195006Y2187500D01*
%TO.N,/FPGA_USB_DN*%
X1117000Y2063472D02*
X1137500Y2083972D01*
X1137500Y2171006D02*
X1182994Y2216500D01*
X1473757Y2133749D02*
X1391006Y2216500D01*
X1137500Y2083972D02*
X1137500Y2171006D01*
X1391006Y2216500D02*
X1283000Y2216500D01*
X1502749Y2133749D02*
X1473757Y2133749D01*
X1182994Y2216500D02*
X1284000Y2216500D01*
D51*
%TO.N,/SWCLK*%
X1697000Y1862000D02*
X1687500Y1852500D01*
X1661000Y2118000D02*
X1697000Y2082000D01*
X1666000Y2274000D02*
X1661000Y2269000D01*
X1697000Y2082000D02*
X1697000Y1862000D01*
X1661000Y2269000D02*
X1661000Y2118000D01*
%TO.N,/~{FPGA_RST}*%
X2021000Y2444000D02*
X2124000Y2444000D01*
X232000Y380000D02*
X232000Y424000D01*
X232000Y424000D02*
X277000Y469000D01*
X2020000Y2445000D02*
X2021000Y2444000D01*
X277000Y469000D02*
X277000Y537000D01*
%TO.N,/SWDIO*%
X1741000Y1964000D02*
X1800000Y1964000D01*
%TO.N,Net-(Q1-D)*%
X1434500Y1785500D02*
X1451000Y1802000D01*
X1367000Y1785500D02*
X1434500Y1785500D01*
%TO.N,Net-(Q1-G)*%
X1384500Y1745500D02*
X1437500Y1745500D01*
X1347000Y1669000D02*
X1384500Y1706500D01*
X1437500Y1745500D02*
X1451000Y1732000D01*
X1384500Y1706500D02*
X1384500Y1745500D01*
%TO.N,/MCU_SCL*%
X1670000Y1902000D02*
X1670000Y2061000D01*
X1670000Y2061000D02*
X1593280Y2137720D01*
X1610000Y1842000D02*
X1670000Y1902000D01*
X1611720Y2348720D02*
X1706280Y2348720D01*
X1754000Y1694000D02*
X1673000Y1694000D01*
X1593280Y2137720D02*
X1593280Y2330280D01*
X1811000Y1637000D02*
X1754000Y1694000D01*
X1593280Y2330280D02*
X1611720Y2348720D01*
X1673000Y1694000D02*
X1610000Y1757000D01*
X1610000Y1757000D02*
X1610000Y1842000D01*
X1706280Y2348720D02*
X1750000Y2305000D01*
X1849000Y1416000D02*
X1811000Y1454000D01*
X1811000Y1454000D02*
X1811000Y1637000D01*
%TO.N,/MCU_SDA*%
X1797691Y2232258D02*
X1745258Y2232258D01*
X1849000Y2046000D02*
X1902000Y1993000D01*
X1745258Y2232258D02*
X1716000Y2203000D01*
X2060000Y1786646D02*
X2060000Y1689000D01*
X1716000Y2132000D02*
X1802000Y2046000D01*
X1716000Y2203000D02*
X1716000Y2132000D01*
X1902000Y1993000D02*
X1902000Y1944646D01*
X1932000Y1561000D02*
X1932000Y1417000D01*
X1902000Y1944646D02*
X2060000Y1786646D01*
X2060000Y1689000D02*
X1932000Y1561000D01*
X1802000Y2046000D02*
X1849000Y2046000D01*
%TO.N,Net-(U3H-POR_ADJ)*%
X765380Y1694380D02*
X728000Y1657000D01*
X636000Y1852500D02*
X636000Y1919000D01*
X636000Y1852500D02*
X666519Y1852500D01*
X765380Y1753639D02*
X765380Y1694380D01*
X636000Y1919000D02*
X617500Y1937500D01*
X666519Y1852500D02*
X765380Y1753639D01*
%TO.N,Net-(U11-FB)*%
X442000Y2040000D02*
X442000Y2035000D01*
X470000Y2153000D02*
X450000Y2153000D01*
X445000Y2043000D02*
X442000Y2040000D01*
X470000Y2153000D02*
X470000Y2152500D01*
X260000Y2195000D02*
X310000Y2195000D01*
X337720Y2167280D02*
X342120Y2162880D01*
X505000Y2152500D02*
X527500Y2175000D01*
X342120Y2162880D02*
X435120Y2162880D01*
X445000Y2153000D02*
X470000Y2153000D01*
X318780Y2185473D02*
X336973Y2167280D01*
X470000Y2152500D02*
X505000Y2152500D01*
X435120Y2162880D02*
X445000Y2153000D01*
X450000Y2153000D02*
X445000Y2148000D01*
X527500Y2175000D02*
X527500Y2292000D01*
X310000Y2195000D02*
X318780Y2186220D01*
X527500Y2292000D02*
X527000Y2292500D01*
X336973Y2167280D02*
X337720Y2167280D01*
X445000Y2148000D02*
X445000Y2043000D01*
X318780Y2186220D02*
X318780Y2185473D01*
%TO.N,Net-(D2-K)*%
X1715500Y50000D02*
X1702000Y50000D01*
X1718500Y85000D02*
X1718500Y53000D01*
X1718500Y53000D02*
X1715500Y50000D01*
%TO.N,Net-(D3-A)*%
X1807000Y85000D02*
X1807000Y83000D01*
X1807000Y83000D02*
X1840000Y50000D01*
%TO.N,Net-(R21-Pad2)*%
X415000Y1435000D02*
X415000Y1424000D01*
X480000Y1500000D02*
X415000Y1435000D01*
X486000Y1500000D02*
X480000Y1500000D01*
%TO.N,Net-(R22-Pad2)*%
X487000Y1258000D02*
X487000Y1240500D01*
X385000Y1138500D02*
X340000Y1138500D01*
X340000Y1138500D02*
X274000Y1138500D01*
X274000Y1138500D02*
X270000Y1134500D01*
X487000Y1240500D02*
X385000Y1138500D01*
%TO.N,Net-(U3G-NC{slash}VDD_SER)*%
X717000Y1241000D02*
X661000Y1241000D01*
X661000Y1241000D02*
X647000Y1255000D01*
%TO.N,Net-(D7-K)*%
X1822000Y2435000D02*
X1812000Y2445000D01*
X1901500Y2435000D02*
X1822000Y2435000D01*
%TD*%
%TA.AperFunction,Conductor*%
%TO.N,GND*%
G36*
X159485Y1049962D02*
G01*
X182901Y1048119D01*
X184822Y1047815D01*
X207185Y1042446D01*
X209035Y1041845D01*
X224263Y1035537D01*
X230282Y1033044D01*
X232016Y1032160D01*
X251626Y1020143D01*
X253200Y1019000D01*
X264959Y1008957D01*
X270688Y1004064D01*
X272064Y1002688D01*
X287000Y985200D01*
X288143Y983626D01*
X300160Y964016D01*
X301044Y962283D01*
X309845Y941035D01*
X310446Y939185D01*
X315815Y916822D01*
X316119Y914900D01*
X317962Y891485D01*
X318000Y890512D01*
X318000Y719488D01*
X317962Y718515D01*
X316119Y695100D01*
X315815Y693178D01*
X310446Y670815D01*
X309845Y668965D01*
X301044Y647718D01*
X300160Y645984D01*
X288143Y626374D01*
X287000Y624800D01*
X272064Y607312D01*
X270688Y605936D01*
X253200Y591000D01*
X251626Y589857D01*
X232016Y577840D01*
X230282Y576957D01*
X209035Y568156D01*
X207185Y567554D01*
X184822Y562186D01*
X182900Y561881D01*
X159485Y560038D01*
X158513Y560000D01*
X73196Y560000D01*
X71808Y560078D01*
X66361Y560692D01*
X57755Y561661D01*
X55048Y562279D01*
X42362Y566718D01*
X39861Y567923D01*
X28480Y575074D01*
X26309Y576805D01*
X18922Y584192D01*
X15573Y590325D01*
X15290Y592960D01*
X15290Y677310D01*
X17259Y684014D01*
X22539Y688589D01*
X27690Y689710D01*
X80086Y689710D01*
X80087Y689710D01*
X99953Y693213D01*
X118910Y700113D01*
X136380Y710199D01*
X151834Y723166D01*
X164801Y738620D01*
X174887Y756090D01*
X181787Y775047D01*
X185290Y794913D01*
X185290Y815087D01*
X181787Y834953D01*
X174887Y853910D01*
X164801Y871380D01*
X155566Y882386D01*
X151834Y886834D01*
X136380Y899801D01*
X136380Y899801D01*
X130557Y903163D01*
X118910Y909887D01*
X118910Y909887D01*
X99953Y916787D01*
X80087Y920290D01*
X80087Y920290D01*
X73041Y920290D01*
X27690Y920290D01*
X20986Y922258D01*
X16411Y927539D01*
X15290Y932690D01*
X15290Y1017040D01*
X16154Y1019983D01*
X16807Y1022982D01*
X17182Y1023484D01*
X17259Y1023743D01*
X18921Y1025807D01*
X26310Y1033195D01*
X28479Y1034926D01*
X39861Y1042077D01*
X42362Y1043281D01*
X55049Y1047721D01*
X57755Y1048339D01*
X71808Y1049922D01*
X73196Y1050000D01*
X158513Y1050000D01*
X159485Y1049962D01*
G37*
%TD.AperFunction*%
%TD*%
%TA.AperFunction,Conductor*%
%TO.N,+2V5*%
G36*
X360057Y1638241D02*
G01*
X362122Y1636578D01*
X366275Y1632424D01*
X366738Y1631731D01*
X367162Y1631437D01*
X368963Y1628401D01*
X372671Y1619449D01*
X373509Y1616322D01*
X374894Y1605806D01*
X375000Y1604187D01*
X375000Y1535415D01*
X373031Y1528711D01*
X372910Y1528526D01*
X370403Y1524774D01*
X368950Y1517468D01*
X368950Y1492532D01*
X370403Y1485226D01*
X372910Y1481474D01*
X374998Y1474806D01*
X375000Y1474585D01*
X375000Y1442167D01*
X376711Y1429199D01*
X379002Y1423681D01*
X379950Y1418926D01*
X379950Y1408532D01*
X381403Y1401226D01*
X381403Y1401226D01*
X381403Y1401226D01*
X386940Y1392940D01*
X394478Y1387903D01*
X395226Y1387403D01*
X395226Y1387403D01*
X402532Y1385950D01*
X402532Y1385950D01*
X402533Y1385950D01*
X427468Y1385950D01*
X427468Y1385950D01*
X434773Y1387403D01*
X434774Y1387403D01*
X434774Y1387403D01*
X434774Y1387403D01*
X438879Y1390146D01*
X440664Y1390705D01*
X442235Y1391722D01*
X445398Y1392188D01*
X445546Y1392234D01*
X445716Y1392236D01*
X457381Y1392275D01*
X464091Y1390329D01*
X464311Y1390186D01*
X467726Y1387903D01*
X469553Y1387540D01*
X475032Y1386450D01*
X475033Y1386450D01*
X499967Y1386450D01*
X502161Y1386886D01*
X503530Y1387159D01*
X506573Y1386886D01*
X509630Y1386838D01*
X510213Y1386561D01*
X510489Y1386536D01*
X512817Y1385322D01*
X513782Y1384680D01*
X517217Y1381257D01*
X521243Y1375247D01*
X523102Y1370769D01*
X524517Y1363672D01*
X524518Y1358828D01*
X523102Y1351710D01*
X521251Y1347240D01*
X517217Y1341204D01*
X516628Y1340614D01*
X516422Y1340141D01*
X513796Y1337783D01*
X507760Y1333749D01*
X503290Y1331898D01*
X499780Y1331200D01*
X494948Y1330238D01*
X492529Y1330000D01*
X375000Y1330000D01*
X374999Y1330000D01*
X374999Y1330000D01*
X362059Y1328296D01*
X362059Y1328296D01*
X350000Y1323302D01*
X350000Y1323302D01*
X339645Y1315355D01*
X331698Y1305000D01*
X331698Y1305000D01*
X326704Y1292941D01*
X326704Y1292941D01*
X325000Y1280000D01*
X325000Y1280000D01*
X323509Y1268678D01*
X322672Y1265551D01*
X318926Y1256508D01*
X317307Y1253705D01*
X311349Y1245940D01*
X309060Y1243651D01*
X301295Y1237693D01*
X298492Y1236074D01*
X289449Y1232329D01*
X286322Y1231491D01*
X276619Y1230213D01*
X273381Y1230213D01*
X263678Y1231491D01*
X260551Y1232329D01*
X251508Y1236074D01*
X248705Y1237693D01*
X240940Y1243651D01*
X238651Y1245940D01*
X235112Y1250551D01*
X232593Y1257068D01*
X232550Y1258100D01*
X232550Y1259614D01*
X232550Y1259614D01*
X230161Y1268529D01*
X228312Y1271732D01*
X226665Y1278522D01*
X228950Y1285124D01*
X230282Y1286699D01*
X237381Y1293798D01*
X241768Y1303734D01*
X242050Y1306163D01*
X242050Y1348837D01*
X241768Y1351266D01*
X237381Y1361202D01*
X233851Y1364732D01*
X230502Y1370864D01*
X231001Y1377833D01*
X233851Y1382268D01*
X237881Y1386298D01*
X242268Y1396234D01*
X242550Y1398663D01*
X242550Y1441337D01*
X242454Y1442167D01*
X242268Y1443766D01*
X238726Y1451787D01*
X237670Y1456796D01*
X237670Y1492509D01*
X237670Y1492509D01*
X237669Y1492512D01*
X237660Y1492533D01*
X236994Y1494142D01*
X236050Y1498887D01*
X236050Y1517468D01*
X236050Y1517468D01*
X234597Y1524774D01*
X234597Y1524774D01*
X234597Y1524774D01*
X229060Y1533060D01*
X229060Y1533060D01*
X228632Y1533488D01*
X225283Y1539621D01*
X225000Y1542256D01*
X225000Y1604187D01*
X225106Y1605806D01*
X226491Y1616322D01*
X226491Y1616322D01*
X227328Y1619449D01*
X231074Y1628492D01*
X232693Y1631295D01*
X233559Y1632424D01*
X235811Y1635359D01*
X241453Y1639479D01*
X245648Y1640210D01*
X353353Y1640210D01*
X360057Y1638241D01*
G37*
%TD.AperFunction*%
%TD*%
%TA.AperFunction,Conductor*%
%TO.N,+2V5*%
G36*
X745964Y1204847D02*
G01*
X748358Y1204468D01*
X753876Y1203594D01*
X757565Y1202396D01*
X763823Y1199207D01*
X764013Y1199069D01*
X764136Y1199042D01*
X766961Y1196927D01*
X770830Y1193058D01*
X774179Y1186926D01*
X774224Y1181871D01*
X773966Y1180577D01*
X773914Y1180312D01*
X773729Y1179523D01*
X771950Y1172881D01*
X771950Y1163652D01*
X772527Y1161496D01*
X772950Y1158287D01*
X772950Y1144532D01*
X774403Y1137227D01*
X774403Y1137226D01*
X774403Y1137226D01*
X779940Y1128940D01*
X786731Y1124402D01*
X788226Y1123403D01*
X788226Y1123403D01*
X795532Y1121950D01*
X795532Y1121950D01*
X795533Y1121950D01*
X820468Y1121950D01*
X820468Y1121950D01*
X824999Y1122852D01*
X827774Y1123403D01*
X827774Y1123403D01*
X827774Y1123403D01*
X827774Y1123404D01*
X828825Y1123839D01*
X829235Y1123883D01*
X829572Y1124120D01*
X832680Y1124254D01*
X835772Y1124586D01*
X836141Y1124402D01*
X836552Y1124420D01*
X839239Y1122852D01*
X842020Y1121459D01*
X842332Y1121046D01*
X842586Y1120897D01*
X844620Y1118013D01*
X847395Y1112565D01*
X848594Y1108876D01*
X849847Y1100964D01*
X850000Y1099024D01*
X850000Y1095976D01*
X849847Y1094036D01*
X848349Y1084579D01*
X848277Y1084355D01*
X848289Y1084230D01*
X847151Y1080890D01*
X843252Y1073238D01*
X840972Y1070100D01*
X834900Y1064028D01*
X831762Y1061748D01*
X824110Y1057849D01*
X820421Y1056651D01*
X812442Y1055387D01*
X810964Y1055153D01*
X809024Y1055000D01*
X742535Y1055000D01*
X740614Y1055150D01*
X728187Y1057098D01*
X724530Y1058274D01*
X714169Y1063492D01*
X711047Y1065730D01*
X706609Y1070100D01*
X702780Y1073869D01*
X700493Y1076956D01*
X699963Y1077969D01*
X698550Y1083718D01*
X698550Y1104968D01*
X698550Y1104968D01*
X697097Y1112274D01*
X697097Y1112274D01*
X697097Y1112274D01*
X693345Y1117889D01*
X692808Y1119603D01*
X691813Y1121099D01*
X691265Y1124532D01*
X691257Y1124557D01*
X691097Y1134790D01*
X692961Y1141523D01*
X693185Y1141872D01*
X697097Y1147726D01*
X698550Y1155033D01*
X698550Y1179967D01*
X698550Y1180577D01*
X698690Y1180577D01*
X699248Y1183242D01*
X699878Y1186564D01*
X699970Y1186692D01*
X699987Y1186773D01*
X702080Y1189614D01*
X707345Y1194962D01*
X710500Y1197285D01*
X718818Y1201572D01*
X724499Y1202950D01*
X729468Y1202950D01*
X737972Y1204642D01*
X738006Y1204468D01*
X740681Y1205000D01*
X744024Y1205000D01*
X745964Y1204847D01*
G37*
%TD.AperFunction*%
%TD*%
%TA.AperFunction,Conductor*%
%TO.N,VBUS*%
G36*
X850323Y2504958D02*
G01*
X862291Y2503382D01*
X863547Y2503045D01*
X874394Y2498552D01*
X875520Y2497902D01*
X884835Y2490754D01*
X885754Y2489835D01*
X892902Y2480520D01*
X893552Y2479394D01*
X898045Y2468547D01*
X898382Y2467291D01*
X899957Y2455324D01*
X900000Y2454674D01*
X900000Y2369710D01*
X901629Y2357340D01*
X901704Y2356770D01*
X904321Y2350451D01*
X906699Y2344711D01*
X914644Y2334356D01*
X914645Y2334355D01*
X971125Y2277875D01*
X971554Y2277386D01*
X978902Y2267810D01*
X979552Y2266684D01*
X984045Y2255836D01*
X984382Y2254580D01*
X985957Y2242613D01*
X986000Y2241963D01*
X986000Y2132999D01*
X987704Y2120060D01*
X987704Y2120059D01*
X989457Y2115826D01*
X992699Y2108000D01*
X992699Y2108000D01*
X1000645Y2097645D01*
X1011000Y2089699D01*
X1023059Y2084704D01*
X1036000Y2083000D01*
X1039674Y2083000D01*
X1040323Y2082957D01*
X1052291Y2081382D01*
X1053547Y2081045D01*
X1064394Y2076552D01*
X1065520Y2075902D01*
X1074835Y2068754D01*
X1075754Y2067835D01*
X1082902Y2058520D01*
X1083552Y2057394D01*
X1088045Y2046547D01*
X1088382Y2045291D01*
X1089957Y2033324D01*
X1090000Y2032674D01*
X1090000Y1904999D01*
X1091704Y1892059D01*
X1091704Y1892059D01*
X1094201Y1886029D01*
X1096699Y1880000D01*
X1096699Y1880000D01*
X1104645Y1869645D01*
X1115000Y1861699D01*
X1127059Y1856704D01*
X1140000Y1855000D01*
X1149674Y1855000D01*
X1150324Y1854957D01*
X1162291Y1853382D01*
X1163547Y1853045D01*
X1174394Y1848552D01*
X1175520Y1847902D01*
X1184835Y1840754D01*
X1185754Y1839835D01*
X1192902Y1830520D01*
X1193552Y1829394D01*
X1198045Y1818547D01*
X1198382Y1817291D01*
X1199914Y1805650D01*
X1199914Y1804350D01*
X1198382Y1792709D01*
X1198045Y1791453D01*
X1193552Y1780606D01*
X1192902Y1779480D01*
X1185754Y1770165D01*
X1184835Y1769246D01*
X1175520Y1762098D01*
X1174394Y1761448D01*
X1163547Y1756955D01*
X1162291Y1756618D01*
X1152415Y1755318D01*
X1150323Y1755043D01*
X1149674Y1755000D01*
X1051490Y1755000D01*
X1050519Y1755096D01*
X1048661Y1755465D01*
X1043657Y1756461D01*
X1041861Y1757204D01*
X1036044Y1761092D01*
X1035289Y1761711D01*
X872875Y1924125D01*
X872446Y1924614D01*
X865098Y1934191D01*
X864448Y1935316D01*
X859955Y1946164D01*
X859618Y1947420D01*
X858468Y1956154D01*
X858426Y1956477D01*
X944790Y1956477D01*
X944790Y1956477D01*
X944790Y1948523D01*
X946849Y1940839D01*
X946849Y1940839D01*
X948885Y1937313D01*
X950826Y1933951D01*
X956451Y1928326D01*
X963339Y1924349D01*
X971023Y1922290D01*
X978977Y1922290D01*
X986661Y1924349D01*
X993549Y1928326D01*
X999174Y1933951D01*
X1003151Y1940839D01*
X1005210Y1948523D01*
X1005210Y1956477D01*
X1003151Y1964161D01*
X999174Y1971049D01*
X993549Y1976674D01*
X993549Y1976674D01*
X988689Y1979480D01*
X986661Y1980651D01*
X981880Y1981932D01*
X978977Y1982710D01*
X978977Y1982710D01*
X971023Y1982710D01*
X971023Y1982710D01*
X966680Y1981546D01*
X963339Y1980651D01*
X963339Y1980651D01*
X963339Y1980651D01*
X956451Y1976674D01*
X950826Y1971049D01*
X948131Y1966382D01*
X946849Y1964161D01*
X946849Y1964160D01*
X944790Y1956477D01*
X858426Y1956477D01*
X858043Y1959387D01*
X858000Y1960037D01*
X858000Y2313000D01*
X858000Y2313001D01*
X856477Y2324571D01*
X856296Y2325941D01*
X851301Y2338000D01*
X848499Y2341652D01*
X847512Y2345334D01*
X848928Y2348205D01*
X851174Y2350451D01*
X855151Y2357339D01*
X857210Y2365023D01*
X857210Y2372977D01*
X855151Y2380661D01*
X851174Y2387549D01*
X845549Y2393174D01*
X845549Y2393174D01*
X841333Y2395608D01*
X838661Y2397151D01*
X833811Y2398451D01*
X830977Y2399210D01*
X830977Y2399210D01*
X823023Y2399210D01*
X823023Y2399210D01*
X816247Y2397395D01*
X815339Y2397151D01*
X815339Y2397151D01*
X815339Y2397151D01*
X808451Y2393174D01*
X802826Y2387549D01*
X798849Y2380661D01*
X798849Y2380661D01*
X798849Y2380660D01*
X796790Y2372977D01*
X796790Y2367980D01*
X795331Y2364459D01*
X791810Y2363000D01*
X671770Y2363000D01*
X668738Y2364029D01*
X668550Y2364174D01*
X661957Y2367980D01*
X661661Y2368151D01*
X655843Y2369710D01*
X653977Y2370210D01*
X653977Y2370210D01*
X646023Y2370210D01*
X646023Y2370210D01*
X639247Y2368395D01*
X638339Y2368151D01*
X638339Y2368151D01*
X638339Y2368151D01*
X631450Y2364174D01*
X631262Y2364029D01*
X628230Y2363000D01*
X423420Y2363000D01*
X420930Y2363667D01*
X416997Y2365938D01*
X416997Y2365938D01*
X416997Y2365938D01*
X412701Y2367089D01*
X409313Y2367997D01*
X409313Y2367997D01*
X401359Y2367997D01*
X401359Y2367997D01*
X395858Y2366523D01*
X393675Y2365938D01*
X393675Y2365938D01*
X393675Y2365938D01*
X389742Y2363667D01*
X387252Y2363000D01*
X119999Y2363000D01*
X107059Y2361296D01*
X107059Y2361296D01*
X107059Y2361296D01*
X107059Y2361296D01*
X95000Y2356301D01*
X84645Y2348355D01*
X76699Y2338000D01*
X74745Y2333284D01*
X72050Y2330589D01*
X70145Y2330210D01*
X68009Y2330210D01*
X62114Y2329038D01*
X62114Y2329037D01*
X55429Y2324571D01*
X55429Y2324571D01*
X50963Y2317886D01*
X50962Y2317886D01*
X49790Y2311991D01*
X49790Y2282009D01*
X50962Y2276115D01*
X50963Y2276114D01*
X55429Y2269430D01*
X55429Y2269429D01*
X55861Y2269141D01*
X57979Y2265972D01*
X57235Y2262233D01*
X55861Y2260859D01*
X55429Y2260571D01*
X55429Y2260571D01*
X50963Y2253886D01*
X50962Y2253886D01*
X49790Y2247991D01*
X49790Y2247990D01*
X49790Y2240978D01*
X49790Y2240977D01*
X49790Y2233023D01*
X49790Y2233022D01*
X49790Y2218009D01*
X50962Y2212115D01*
X50963Y2212114D01*
X55429Y2205430D01*
X55429Y2205429D01*
X62114Y2200963D01*
X62114Y2200963D01*
X68010Y2199790D01*
X68010Y2199790D01*
X91990Y2199790D01*
X91990Y2199790D01*
X97885Y2200963D01*
X104571Y2205429D01*
X109037Y2212115D01*
X110210Y2218010D01*
X110210Y2219690D01*
X111669Y2223211D01*
X115190Y2224670D01*
X121120Y2224670D01*
X124641Y2223211D01*
X124984Y2222794D01*
X125139Y2222639D01*
X125139Y2222639D01*
X125139Y2222639D01*
X128516Y2220382D01*
X131494Y2219790D01*
X193685Y2219790D01*
X197207Y2218331D01*
X198623Y2215460D01*
X199957Y2205324D01*
X200000Y2204674D01*
X200000Y2005326D01*
X199957Y2004676D01*
X198382Y1992709D01*
X198045Y1991453D01*
X193552Y1980606D01*
X192902Y1979480D01*
X185754Y1970165D01*
X184835Y1969246D01*
X175520Y1962098D01*
X174394Y1961448D01*
X163547Y1956955D01*
X162291Y1956618D01*
X152415Y1955318D01*
X150323Y1955043D01*
X149674Y1955000D01*
X50326Y1955000D01*
X49676Y1955043D01*
X37709Y1956618D01*
X36453Y1956955D01*
X25606Y1961448D01*
X24480Y1962098D01*
X17238Y1967655D01*
X15333Y1970955D01*
X15290Y1971605D01*
X15290Y1989964D01*
X16749Y1993485D01*
X20270Y1994944D01*
X23791Y1993485D01*
X23951Y1993326D01*
X30839Y1989349D01*
X38523Y1987290D01*
X46477Y1987290D01*
X54161Y1989349D01*
X61049Y1993326D01*
X66674Y1998951D01*
X70651Y2005839D01*
X71105Y2007532D01*
X73425Y2010556D01*
X77204Y2011053D01*
X80228Y2008733D01*
X80725Y2007532D01*
X81849Y2003340D01*
X81849Y2003339D01*
X85596Y1996849D01*
X85826Y1996451D01*
X91451Y1990826D01*
X98339Y1986849D01*
X106023Y1984790D01*
X113977Y1984790D01*
X121661Y1986849D01*
X128549Y1990826D01*
X134174Y1996451D01*
X138151Y2003339D01*
X140210Y2011023D01*
X140210Y2018977D01*
X138151Y2026661D01*
X134174Y2033549D01*
X128549Y2039174D01*
X128549Y2039174D01*
X124219Y2041674D01*
X121661Y2043151D01*
X117365Y2044302D01*
X113977Y2045210D01*
X113977Y2045210D01*
X106023Y2045210D01*
X106023Y2045210D01*
X99247Y2043395D01*
X98339Y2043151D01*
X98339Y2043151D01*
X98339Y2043151D01*
X91451Y2039174D01*
X85826Y2033549D01*
X81849Y2026661D01*
X81849Y2026660D01*
X81395Y2024968D01*
X79075Y2021944D01*
X75296Y2021447D01*
X72272Y2023767D01*
X71775Y2024968D01*
X70651Y2029161D01*
X66674Y2036049D01*
X61049Y2041674D01*
X61049Y2041674D01*
X55423Y2044922D01*
X54161Y2045651D01*
X49163Y2046990D01*
X46477Y2047710D01*
X46477Y2047710D01*
X38523Y2047710D01*
X38523Y2047710D01*
X31747Y2045895D01*
X30839Y2045651D01*
X30839Y2045651D01*
X30839Y2045651D01*
X23951Y2041674D01*
X23791Y2041515D01*
X20270Y2040056D01*
X16749Y2041515D01*
X15290Y2045036D01*
X15290Y2143978D01*
X72290Y2143978D01*
X72290Y2143977D01*
X72290Y2136023D01*
X74349Y2128340D01*
X74349Y2128339D01*
X77640Y2122639D01*
X78326Y2121451D01*
X83950Y2115826D01*
X90839Y2111849D01*
X98523Y2109790D01*
X106477Y2109790D01*
X114160Y2111849D01*
X121049Y2115826D01*
X126674Y2121451D01*
X130651Y2128340D01*
X132710Y2136023D01*
X132710Y2143977D01*
X130651Y2151661D01*
X126674Y2158550D01*
X121049Y2164174D01*
X121049Y2164174D01*
X114161Y2168151D01*
X114161Y2168151D01*
X114160Y2168151D01*
X108045Y2169790D01*
X106477Y2170210D01*
X106477Y2170210D01*
X98523Y2170210D01*
X98522Y2170210D01*
X91747Y2168395D01*
X90839Y2168151D01*
X90839Y2168151D01*
X90839Y2168151D01*
X83950Y2164174D01*
X78326Y2158550D01*
X74349Y2151661D01*
X74349Y2151661D01*
X74348Y2151660D01*
X72290Y2143978D01*
X15290Y2143978D01*
X15290Y2384756D01*
X15314Y2385244D01*
X15568Y2387826D01*
X16870Y2401039D01*
X17060Y2401994D01*
X21596Y2416949D01*
X21969Y2417849D01*
X29335Y2431630D01*
X29877Y2432442D01*
X31060Y2433883D01*
X39790Y2444520D01*
X40480Y2445210D01*
X52559Y2455123D01*
X53370Y2455665D01*
X67151Y2463031D01*
X68051Y2463404D01*
X83006Y2467940D01*
X83961Y2468130D01*
X99756Y2469686D01*
X100244Y2469710D01*
X103490Y2469710D01*
X299964Y2469710D01*
X303485Y2468251D01*
X304944Y2464730D01*
X303485Y2461209D01*
X300826Y2458549D01*
X297500Y2452789D01*
X296849Y2451661D01*
X296849Y2451660D01*
X294790Y2443977D01*
X294790Y2436023D01*
X295363Y2433884D01*
X296849Y2428339D01*
X300826Y2421451D01*
X306451Y2415826D01*
X313339Y2411849D01*
X321023Y2409790D01*
X328977Y2409790D01*
X336661Y2411849D01*
X343549Y2415826D01*
X348979Y2421255D01*
X352500Y2422714D01*
X356021Y2421255D01*
X361451Y2415826D01*
X368339Y2411849D01*
X376023Y2409790D01*
X383977Y2409790D01*
X391661Y2411849D01*
X398549Y2415826D01*
X404174Y2421451D01*
X408151Y2428339D01*
X410210Y2436023D01*
X410210Y2443977D01*
X408151Y2451661D01*
X404174Y2458549D01*
X401515Y2461209D01*
X400056Y2464730D01*
X401515Y2468251D01*
X405036Y2469710D01*
X437019Y2469710D01*
X440540Y2468251D01*
X441999Y2464730D01*
X441332Y2462240D01*
X438425Y2457205D01*
X438425Y2457204D01*
X436366Y2449521D01*
X436366Y2449521D01*
X436366Y2441567D01*
X438425Y2433883D01*
X438425Y2433883D01*
X441649Y2428298D01*
X442402Y2426995D01*
X448027Y2421370D01*
X454915Y2417393D01*
X462599Y2415334D01*
X470553Y2415334D01*
X478237Y2417393D01*
X484445Y2420977D01*
X648997Y2420977D01*
X648997Y2413023D01*
X649863Y2409790D01*
X651055Y2405339D01*
X651055Y2405339D01*
X653539Y2401038D01*
X655033Y2398451D01*
X660657Y2392826D01*
X667546Y2388849D01*
X675229Y2386790D01*
X683184Y2386790D01*
X690867Y2388849D01*
X697756Y2392826D01*
X703380Y2398451D01*
X707358Y2405339D01*
X709416Y2413023D01*
X709416Y2420977D01*
X707358Y2428661D01*
X703380Y2435549D01*
X697756Y2441174D01*
X697756Y2441174D01*
X692901Y2443977D01*
X690867Y2445151D01*
X686572Y2446302D01*
X683184Y2447210D01*
X683184Y2447210D01*
X675229Y2447210D01*
X675229Y2447210D01*
X668454Y2445395D01*
X667546Y2445151D01*
X667546Y2445151D01*
X667546Y2445151D01*
X660657Y2441174D01*
X655032Y2435549D01*
X651055Y2428661D01*
X651055Y2428661D01*
X651055Y2428660D01*
X648997Y2420977D01*
X484445Y2420977D01*
X485125Y2421370D01*
X490750Y2426995D01*
X494727Y2433883D01*
X496786Y2441567D01*
X496786Y2449521D01*
X494727Y2457205D01*
X490750Y2464093D01*
X489379Y2465465D01*
X487920Y2468986D01*
X489379Y2472508D01*
X491196Y2473666D01*
X508910Y2480113D01*
X526380Y2490199D01*
X541834Y2503166D01*
X541834Y2503167D01*
X541880Y2503221D01*
X541898Y2503231D01*
X541988Y2503321D01*
X542016Y2503292D01*
X545261Y2504981D01*
X545695Y2505000D01*
X849674Y2505000D01*
X850323Y2504958D01*
G37*
%TD.AperFunction*%
%TD*%
%TA.AperFunction,Conductor*%
%TO.N,/VBUS_UNPROTECTED*%
G36*
X1331916Y2634251D02*
G01*
X1332345Y2633762D01*
X1335972Y2629036D01*
X1337902Y2626520D01*
X1338552Y2625394D01*
X1343045Y2614547D01*
X1343382Y2613291D01*
X1344957Y2601324D01*
X1345000Y2600674D01*
X1345000Y2523537D01*
X1344957Y2522887D01*
X1343382Y2510920D01*
X1343045Y2509664D01*
X1338552Y2498816D01*
X1337902Y2497691D01*
X1330554Y2488115D01*
X1330125Y2487625D01*
X1320598Y2478098D01*
X1317076Y2476639D01*
X1315788Y2476809D01*
X1315229Y2476959D01*
X1315228Y2476959D01*
X1307274Y2476959D01*
X1307274Y2476959D01*
X1301290Y2475355D01*
X1299591Y2474900D01*
X1299590Y2474900D01*
X1299289Y2474775D01*
X1299247Y2474877D01*
X1295861Y2474432D01*
X1292838Y2476753D01*
X1292725Y2476960D01*
X1292480Y2477436D01*
X1292151Y2478661D01*
X1289310Y2483583D01*
X1289255Y2483688D01*
X1289106Y2485478D01*
X1288871Y2487259D01*
X1288948Y2487360D01*
X1288938Y2487486D01*
X1290098Y2488857D01*
X1291192Y2490283D01*
X1291336Y2490322D01*
X1291399Y2490396D01*
X1291712Y2490422D01*
X1293682Y2490950D01*
X1294990Y2490950D01*
X1294990Y2490950D01*
X1294990Y2490950D01*
X1294991Y2490950D01*
X1297921Y2491533D01*
X1297921Y2491533D01*
X1297921Y2491533D01*
X1301246Y2493754D01*
X1303467Y2497079D01*
X1304050Y2500010D01*
X1304050Y2601990D01*
X1304050Y2601990D01*
X1304050Y2601991D01*
X1303467Y2604921D01*
X1301246Y2608246D01*
X1301246Y2608246D01*
X1301246Y2608246D01*
X1301246Y2608246D01*
X1297921Y2610467D01*
X1297921Y2610467D01*
X1295573Y2610934D01*
X1294990Y2611050D01*
X1294990Y2611050D01*
X1255010Y2611050D01*
X1255009Y2611050D01*
X1252079Y2610467D01*
X1248754Y2608246D01*
X1248754Y2608246D01*
X1246533Y2604921D01*
X1246533Y2604921D01*
X1245950Y2601990D01*
X1245950Y2500010D01*
X1245950Y2500009D01*
X1246533Y2497079D01*
X1246672Y2496743D01*
X1246672Y2492932D01*
X1245593Y2491316D01*
X1239826Y2485549D01*
X1238528Y2483301D01*
X1235849Y2478661D01*
X1235849Y2478660D01*
X1233790Y2470977D01*
X1233790Y2470977D01*
X1233790Y2463023D01*
X1235849Y2455339D01*
X1239826Y2448451D01*
X1245451Y2442826D01*
X1252339Y2438849D01*
X1260023Y2436790D01*
X1267977Y2436790D01*
X1275661Y2438849D01*
X1275661Y2438849D01*
X1275963Y2438974D01*
X1276005Y2438871D01*
X1279388Y2439317D01*
X1282412Y2436998D01*
X1282910Y2435796D01*
X1283100Y2435089D01*
X1283100Y2435089D01*
X1283100Y2435088D01*
X1283100Y2435088D01*
X1287020Y2428298D01*
X1287077Y2428199D01*
X1292702Y2422575D01*
X1297510Y2419799D01*
X1299830Y2416775D01*
X1300000Y2415486D01*
X1300000Y2293327D01*
X1299957Y2292677D01*
X1298382Y2280709D01*
X1298045Y2279453D01*
X1293552Y2268606D01*
X1292902Y2267480D01*
X1285754Y2258165D01*
X1284835Y2257246D01*
X1275520Y2250098D01*
X1274394Y2249448D01*
X1263547Y2244955D01*
X1262291Y2244618D01*
X1252415Y2243318D01*
X1250323Y2243043D01*
X1249674Y2243000D01*
X1186710Y2243000D01*
X1173770Y2241296D01*
X1173770Y2241296D01*
X1173770Y2241296D01*
X1173770Y2241296D01*
X1161711Y2236301D01*
X1151356Y2228356D01*
X1151355Y2228355D01*
X1084375Y2161375D01*
X1083886Y2160946D01*
X1074309Y2153598D01*
X1073184Y2152948D01*
X1062336Y2148455D01*
X1061080Y2148118D01*
X1051205Y2146818D01*
X1049113Y2146543D01*
X1048463Y2146500D01*
X1046740Y2146500D01*
X1045769Y2146596D01*
X1044224Y2146903D01*
X1038324Y2148077D01*
X1036529Y2148820D01*
X1030633Y2152760D01*
X1029259Y2154134D01*
X1025320Y2160029D01*
X1024576Y2161824D01*
X1023096Y2169269D01*
X1023000Y2170240D01*
X1023000Y2260674D01*
X1023043Y2261324D01*
X1023853Y2267480D01*
X1024618Y2273291D01*
X1024955Y2274547D01*
X1026987Y2279453D01*
X1029448Y2285394D01*
X1030097Y2286520D01*
X1037246Y2295835D01*
X1038165Y2296754D01*
X1047480Y2303903D01*
X1048606Y2304552D01*
X1059453Y2309045D01*
X1060709Y2309382D01*
X1072676Y2310958D01*
X1073326Y2311000D01*
X1084810Y2311000D01*
X1088332Y2309541D01*
X1089790Y2306020D01*
X1089790Y2303023D01*
X1091849Y2295340D01*
X1095826Y2288451D01*
X1101451Y2282826D01*
X1108340Y2278849D01*
X1116023Y2276790D01*
X1123977Y2276790D01*
X1131661Y2278849D01*
X1138550Y2282826D01*
X1144174Y2288451D01*
X1148152Y2295340D01*
X1150210Y2303023D01*
X1150210Y2310977D01*
X1149542Y2313472D01*
X1150039Y2317251D01*
X1151320Y2318712D01*
X1160355Y2325645D01*
X1168301Y2336000D01*
X1173296Y2348059D01*
X1175000Y2361000D01*
X1175000Y2440000D01*
X1173296Y2452941D01*
X1168301Y2465000D01*
X1160355Y2475355D01*
X1150000Y2483301D01*
X1150000Y2483301D01*
X1149719Y2483418D01*
X1147024Y2486113D01*
X1147024Y2489924D01*
X1148858Y2492159D01*
X1151246Y2493754D01*
X1153467Y2497079D01*
X1154050Y2500010D01*
X1154050Y2601990D01*
X1154050Y2601990D01*
X1154050Y2601991D01*
X1153467Y2604921D01*
X1151246Y2608246D01*
X1151246Y2608246D01*
X1151246Y2608246D01*
X1151246Y2608246D01*
X1147921Y2610467D01*
X1147921Y2610467D01*
X1145573Y2610934D01*
X1144990Y2611050D01*
X1144990Y2611050D01*
X1105010Y2611050D01*
X1105009Y2611050D01*
X1102079Y2610467D01*
X1098754Y2608246D01*
X1098754Y2608246D01*
X1096533Y2604921D01*
X1096533Y2604921D01*
X1095950Y2601990D01*
X1095950Y2500010D01*
X1095950Y2500009D01*
X1096530Y2497094D01*
X1096367Y2496278D01*
X1096583Y2495473D01*
X1096010Y2494480D01*
X1095786Y2493356D01*
X1095094Y2492893D01*
X1094677Y2492172D01*
X1093570Y2491875D01*
X1092617Y2491239D01*
X1090996Y2491186D01*
X1087709Y2491618D01*
X1086453Y2491955D01*
X1075606Y2496448D01*
X1074480Y2497098D01*
X1065165Y2504246D01*
X1064246Y2505165D01*
X1057098Y2514480D01*
X1056448Y2515606D01*
X1054429Y2520480D01*
X1054050Y2522385D01*
X1054050Y2601990D01*
X1054050Y2601990D01*
X1054050Y2601991D01*
X1053467Y2604921D01*
X1052043Y2607052D01*
X1051247Y2610469D01*
X1051618Y2613291D01*
X1051955Y2614547D01*
X1056448Y2625395D01*
X1057097Y2626520D01*
X1062655Y2633762D01*
X1065955Y2635667D01*
X1066605Y2635710D01*
X1328395Y2635710D01*
X1331916Y2634251D01*
G37*
%TD.AperFunction*%
%TD*%
%TA.AperFunction,Conductor*%
%TO.N,GND*%
G36*
X75520Y1568354D02*
G01*
X77710Y1565872D01*
X78977Y1563977D01*
X84034Y1560597D01*
X84034Y1560597D01*
X84035Y1560597D01*
X86264Y1560154D01*
X88494Y1559710D01*
X191506Y1559710D01*
X194391Y1560284D01*
X201350Y1559661D01*
X206868Y1555375D01*
X209192Y1548786D01*
X209210Y1548122D01*
X209210Y1542257D01*
X209300Y1540570D01*
X209301Y1540565D01*
X209584Y1537933D01*
X209584Y1537932D01*
X211425Y1532054D01*
X211425Y1532053D01*
X213704Y1527878D01*
X214741Y1525980D01*
X214741Y1525980D01*
X214773Y1525921D01*
X215193Y1525360D01*
X215576Y1524819D01*
X218170Y1520937D01*
X220258Y1514269D01*
X220260Y1514048D01*
X220260Y1498887D01*
X220563Y1495808D01*
X220563Y1495807D01*
X221507Y1491062D01*
X221508Y1491057D01*
X221509Y1491053D01*
X221567Y1490763D01*
X221545Y1490759D01*
X221880Y1488044D01*
X221880Y1456796D01*
X222220Y1453537D01*
X222220Y1453536D01*
X222220Y1453536D01*
X223276Y1448529D01*
X223277Y1448528D01*
X224281Y1445411D01*
X224282Y1445410D01*
X224282Y1445409D01*
X225703Y1442190D01*
X226760Y1437182D01*
X226760Y1402819D01*
X226555Y1401846D01*
X226655Y1401207D01*
X225703Y1397808D01*
X225564Y1397495D01*
X222990Y1393738D01*
X222687Y1393435D01*
X222686Y1393433D01*
X220568Y1390805D01*
X220567Y1390804D01*
X217718Y1386371D01*
X215251Y1378959D01*
X214753Y1371991D01*
X214717Y1371240D01*
X214717Y1371240D01*
X216644Y1363297D01*
X216644Y1363297D01*
X219992Y1357165D01*
X219993Y1357164D01*
X222685Y1353568D01*
X222976Y1353232D01*
X222916Y1353180D01*
X223195Y1352996D01*
X225065Y1350003D01*
X225203Y1349690D01*
X226260Y1344682D01*
X226260Y1310319D01*
X225203Y1305308D01*
X225064Y1304995D01*
X222490Y1301237D01*
X219117Y1297865D01*
X218225Y1296895D01*
X216894Y1295322D01*
X216894Y1295321D01*
X214028Y1290288D01*
X211743Y1283686D01*
X211514Y1282970D01*
X211320Y1274799D01*
X211320Y1274798D01*
X212967Y1268009D01*
X212967Y1268009D01*
X214638Y1263836D01*
X214638Y1263836D01*
X214831Y1263438D01*
X214806Y1263426D01*
X215870Y1260857D01*
X216417Y1258816D01*
X216709Y1256909D01*
X216754Y1256914D01*
X216817Y1256411D01*
X216817Y1256411D01*
X217865Y1251375D01*
X217865Y1251374D01*
X220307Y1245057D01*
X220385Y1244858D01*
X222585Y1240939D01*
X224430Y1238534D01*
X226122Y1236329D01*
X226124Y1236327D01*
X227486Y1234774D01*
X229775Y1232486D01*
X231327Y1231124D01*
X231328Y1231124D01*
X237013Y1226761D01*
X239092Y1225166D01*
X240810Y1224018D01*
X243613Y1222400D01*
X245465Y1221486D01*
X254508Y1217740D01*
X256464Y1217077D01*
X256464Y1217076D01*
X256465Y1217076D01*
X258683Y1216482D01*
X259591Y1216239D01*
X261616Y1215836D01*
X271320Y1214558D01*
X273381Y1214423D01*
X273382Y1214423D01*
X276618Y1214423D01*
X276619Y1214423D01*
X278680Y1214558D01*
X288384Y1215836D01*
X290409Y1216239D01*
X292074Y1216685D01*
X293535Y1217076D01*
X293535Y1217076D01*
X293536Y1217077D01*
X295492Y1217740D01*
X300596Y1219855D01*
X300713Y1219867D01*
X300806Y1219940D01*
X302131Y1220376D01*
X308621Y1222115D01*
X316669Y1226761D01*
X323239Y1233331D01*
X327884Y1241376D01*
X328785Y1242725D01*
X329834Y1244093D01*
X330982Y1245810D01*
X332600Y1248613D01*
X333514Y1250466D01*
X337260Y1259508D01*
X337924Y1261464D01*
X337924Y1261465D01*
X337924Y1261465D01*
X338445Y1263410D01*
X338761Y1264591D01*
X339164Y1266617D01*
X340655Y1277939D01*
X340655Y1277939D01*
X341874Y1287201D01*
X342712Y1290327D01*
X344866Y1295529D01*
X346484Y1298332D01*
X349913Y1302799D01*
X352201Y1305087D01*
X356669Y1308516D01*
X359471Y1310134D01*
X364673Y1312288D01*
X367799Y1313126D01*
X375228Y1314104D01*
X376847Y1314210D01*
X407600Y1314210D01*
X414304Y1312242D01*
X418879Y1306961D01*
X420000Y1301810D01*
X420000Y1225813D01*
X419894Y1224194D01*
X419894Y1224194D01*
X418509Y1213678D01*
X417671Y1210551D01*
X413926Y1201508D01*
X412307Y1198705D01*
X411161Y1197211D01*
X410092Y1195992D01*
X399009Y1184909D01*
X397789Y1183839D01*
X396295Y1182693D01*
X393491Y1181074D01*
X384449Y1177329D01*
X381322Y1176491D01*
X371940Y1175255D01*
X370806Y1175106D01*
X369187Y1175000D01*
X362711Y1175000D01*
X360292Y1175238D01*
X352491Y1176790D01*
X327509Y1176790D01*
X323857Y1176064D01*
X320132Y1175323D01*
X320132Y1175323D01*
X319708Y1175238D01*
X317289Y1175000D01*
X105813Y1175000D01*
X104194Y1175106D01*
X102892Y1175278D01*
X93677Y1176491D01*
X90551Y1177329D01*
X81508Y1181074D01*
X78705Y1182693D01*
X70940Y1188651D01*
X68651Y1190940D01*
X62692Y1198705D01*
X61074Y1201508D01*
X57328Y1210551D01*
X56491Y1213678D01*
X55106Y1224194D01*
X55000Y1225813D01*
X55000Y1558983D01*
X56968Y1565687D01*
X62249Y1570262D01*
X69165Y1571257D01*
X75520Y1568354D01*
G37*
%TD.AperFunction*%
%TA.AperFunction,Conductor*%
G36*
X236585Y2174776D02*
G01*
X237369Y2174903D01*
X239890Y2173806D01*
X242528Y2173032D01*
X243211Y2172361D01*
X243775Y2172115D01*
X246134Y2169489D01*
X246476Y2168977D01*
X251534Y2165597D01*
X251534Y2165597D01*
X251534Y2165597D01*
X253764Y2165154D01*
X255994Y2164710D01*
X302007Y2164710D01*
X304816Y2163885D01*
X307692Y2163330D01*
X308354Y2162847D01*
X308711Y2162742D01*
X310566Y2161282D01*
X310673Y2161181D01*
X323996Y2147858D01*
X325131Y2147388D01*
X326806Y2145789D01*
X326867Y2145684D01*
X327015Y2145585D01*
X329142Y2143458D01*
X329142Y2143458D01*
X329143Y2143458D01*
X337563Y2139970D01*
X407155Y2139970D01*
X407228Y2139948D01*
X407302Y2139969D01*
X410575Y2138966D01*
X413859Y2138002D01*
X413909Y2137944D01*
X413982Y2137921D01*
X416196Y2135304D01*
X418434Y2132721D01*
X418461Y2132626D01*
X418495Y2132587D01*
X419449Y2129189D01*
X419894Y2125806D01*
X420000Y2124188D01*
X420000Y2076030D01*
X418031Y2069326D01*
X414489Y2065720D01*
X410767Y2063233D01*
X405177Y2054868D01*
X405177Y2054867D01*
X403710Y2047491D01*
X403710Y2022509D01*
X405177Y2015132D01*
X405177Y2015132D01*
X406700Y2012854D01*
X410767Y2006767D01*
X414489Y2004280D01*
X418969Y1998919D01*
X420000Y1993970D01*
X420000Y1958766D01*
X419837Y1957949D01*
X419929Y1957441D01*
X419056Y1954021D01*
X417640Y1950602D01*
X417640Y1950602D01*
X415710Y1945943D01*
X415710Y1884340D01*
X413741Y1877636D01*
X412078Y1875572D01*
X386458Y1849952D01*
X380326Y1846603D01*
X373356Y1847101D01*
X367763Y1851289D01*
X365321Y1857835D01*
X365290Y1858720D01*
X365290Y1886505D01*
X365000Y1887963D01*
X364403Y1890966D01*
X364403Y1890966D01*
X364403Y1890966D01*
X361023Y1896023D01*
X355966Y1899403D01*
X355966Y1899403D01*
X355966Y1899403D01*
X355966Y1899403D01*
X355965Y1899403D01*
X351506Y1900290D01*
X248494Y1900290D01*
X244034Y1899403D01*
X244034Y1899403D01*
X238977Y1896023D01*
X235597Y1890966D01*
X235597Y1890965D01*
X234710Y1886506D01*
X234710Y1813494D01*
X234874Y1812668D01*
X235112Y1810171D01*
X235080Y1805000D01*
X235000Y1805000D01*
X235000Y1792353D01*
X235000Y1792322D01*
X234003Y1789004D01*
X233031Y1785696D01*
X233001Y1785669D01*
X232989Y1785630D01*
X230357Y1783379D01*
X227751Y1781121D01*
X227706Y1781111D01*
X227680Y1781088D01*
X227470Y1781060D01*
X222600Y1780000D01*
X194864Y1780000D01*
X194864Y1780148D01*
X192332Y1780126D01*
X191506Y1780290D01*
X88494Y1780290D01*
X84034Y1779403D01*
X84034Y1779403D01*
X78977Y1776024D01*
X77710Y1774128D01*
X72349Y1769648D01*
X65416Y1768777D01*
X59114Y1771792D01*
X55442Y1777737D01*
X55000Y1781017D01*
X55000Y1926810D01*
X56968Y1933514D01*
X62249Y1938089D01*
X67400Y1939210D01*
X149672Y1939210D01*
X149674Y1939210D01*
X150707Y1939244D01*
X151261Y1939280D01*
X151358Y1939286D01*
X152384Y1939388D01*
X152384Y1939388D01*
X152385Y1939388D01*
X164352Y1940963D01*
X166379Y1941366D01*
X167634Y1941703D01*
X169589Y1942367D01*
X176813Y1945359D01*
X180436Y1946859D01*
X180436Y1946859D01*
X180436Y1946860D01*
X182288Y1947773D01*
X183414Y1948423D01*
X185132Y1949571D01*
X194448Y1956719D01*
X196000Y1958080D01*
X196919Y1959000D01*
X198281Y1960552D01*
X199897Y1962659D01*
X202728Y1965341D01*
X202839Y1965417D01*
X202840Y1965417D01*
X210583Y1973160D01*
X215006Y1983178D01*
X215290Y1985626D01*
X215290Y1999355D01*
X215396Y2000973D01*
X215612Y2002615D01*
X215714Y2003644D01*
X215756Y2004294D01*
X215790Y2005326D01*
X215790Y2054646D01*
X282210Y2054646D01*
X282210Y2045354D01*
X284615Y2036379D01*
X289261Y2028331D01*
X295831Y2021761D01*
X303879Y2017115D01*
X312854Y2014710D01*
X312854Y2014710D01*
X322146Y2014710D01*
X322146Y2014710D01*
X331121Y2017115D01*
X339169Y2021761D01*
X345739Y2028331D01*
X350385Y2036379D01*
X352790Y2045354D01*
X352790Y2054646D01*
X350385Y2063621D01*
X345739Y2071669D01*
X339169Y2078239D01*
X331121Y2082885D01*
X331122Y2082885D01*
X328130Y2083687D01*
X322146Y2085290D01*
X312854Y2085290D01*
X306870Y2083687D01*
X303879Y2082885D01*
X295832Y2078239D01*
X295831Y2078239D01*
X289261Y2071669D01*
X289261Y2071668D01*
X284615Y2063621D01*
X284064Y2061563D01*
X282210Y2054646D01*
X215790Y2054646D01*
X215790Y2162600D01*
X217758Y2169304D01*
X223039Y2173879D01*
X228190Y2175000D01*
X235824Y2175000D01*
X236585Y2174776D01*
G37*
%TD.AperFunction*%
%TD*%
%TA.AperFunction,Conductor*%
%TO.N,+1V1*%
G36*
X415296Y2349056D02*
G01*
X416843Y2348415D01*
X417370Y2348274D01*
X419334Y2347748D01*
X422945Y2347273D01*
X423420Y2347210D01*
X494515Y2347210D01*
X501219Y2345242D01*
X505794Y2339961D01*
X506789Y2333045D01*
X503886Y2326690D01*
X501404Y2324500D01*
X497841Y2322119D01*
X495767Y2320733D01*
X490177Y2312368D01*
X490177Y2312367D01*
X488710Y2304992D01*
X488710Y2280009D01*
X490177Y2272632D01*
X490177Y2272632D01*
X495767Y2264267D01*
X495767Y2264267D01*
X499079Y2262054D01*
X503560Y2256693D01*
X504590Y2251744D01*
X504590Y2202004D01*
X502621Y2195300D01*
X497341Y2190724D01*
X490425Y2189730D01*
X489771Y2189842D01*
X485251Y2190741D01*
X482491Y2191290D01*
X482491Y2191290D01*
X457509Y2191290D01*
X450132Y2189823D01*
X449363Y2189309D01*
X447224Y2187880D01*
X440557Y2185792D01*
X440335Y2185790D01*
X355999Y2185790D01*
X353055Y2186655D01*
X350056Y2187307D01*
X349555Y2187682D01*
X349295Y2187759D01*
X347231Y2189422D01*
X341422Y2195231D01*
X338073Y2201363D01*
X337790Y2203999D01*
X337790Y2206506D01*
X337790Y2206506D01*
X336903Y2210966D01*
X336903Y2210966D01*
X336903Y2210966D01*
X333524Y2216023D01*
X328466Y2219403D01*
X328466Y2219403D01*
X328466Y2219403D01*
X328466Y2219403D01*
X328466Y2219403D01*
X324006Y2220290D01*
X255994Y2220290D01*
X251534Y2219403D01*
X251534Y2219403D01*
X246476Y2216024D01*
X243005Y2210828D01*
X242377Y2209777D01*
X240578Y2207977D01*
X238938Y2204018D01*
X238474Y2203241D01*
X236547Y2201457D01*
X234900Y2199413D01*
X234024Y2199122D01*
X233346Y2198495D01*
X230761Y2198036D01*
X228270Y2197207D01*
X227376Y2197435D01*
X226467Y2197274D01*
X224044Y2198285D01*
X221500Y2198935D01*
X220871Y2199610D01*
X220019Y2199966D01*
X218528Y2202127D01*
X216739Y2204049D01*
X216369Y2205256D01*
X216051Y2205717D01*
X216030Y2206363D01*
X215534Y2207980D01*
X214278Y2217520D01*
X214278Y2217521D01*
X214278Y2217521D01*
X212962Y2221857D01*
X212667Y2227876D01*
X212790Y2228494D01*
X212790Y2256506D01*
X211903Y2260966D01*
X211903Y2260966D01*
X211903Y2260966D01*
X208523Y2266023D01*
X207159Y2266935D01*
X203466Y2269403D01*
X203466Y2269403D01*
X203466Y2269403D01*
X203465Y2269403D01*
X199006Y2270290D01*
X130994Y2270290D01*
X126534Y2269403D01*
X126534Y2269403D01*
X123686Y2267500D01*
X121881Y2266935D01*
X120290Y2265912D01*
X117194Y2265467D01*
X117018Y2265412D01*
X116797Y2265410D01*
X110233Y2265410D01*
X103529Y2267378D01*
X103347Y2267498D01*
X100511Y2269393D01*
X96030Y2274754D01*
X95000Y2279703D01*
X95000Y2299188D01*
X95106Y2300806D01*
X96491Y2311322D01*
X97328Y2314449D01*
X101074Y2323492D01*
X102692Y2326295D01*
X108651Y2334061D01*
X110939Y2336349D01*
X118705Y2342308D01*
X121508Y2343926D01*
X127158Y2346266D01*
X131903Y2347210D01*
X387252Y2347210D01*
X387677Y2347266D01*
X391338Y2347748D01*
X393828Y2348415D01*
X394557Y2348717D01*
X395375Y2349056D01*
X396193Y2349219D01*
X396627Y2349498D01*
X400121Y2350000D01*
X410551Y2350000D01*
X415296Y2349056D01*
G37*
%TD.AperFunction*%
%TD*%
M02*
