%TF.GenerationSoftware,KiCad,Pcbnew,9.0.0*%
%TF.CreationDate,2025-03-28T20:31:48-04:00*%
%TF.ProjectId,Expansion_Card_Retrofit,45787061-6e73-4696-9f6e-5f436172645f,X1*%
%TF.SameCoordinates,Original*%
%TF.FileFunction,Paste,Top*%
%TF.FilePolarity,Positive*%
%FSLAX45Y45*%
G04 Gerber Fmt 4.5, Leading zero omitted, Abs format (unit mm)*
G04 Created by KiCad (PCBNEW 9.0.0) date 2025-03-28 20:31:48*
%MOMM*%
%LPD*%
G01*
G04 APERTURE LIST*
G04 Aperture macros list*
%AMRoundRect*
0 Rectangle with rounded corners*
0 $1 Rounding radius*
0 $2 $3 $4 $5 $6 $7 $8 $9 X,Y pos of 4 corners*
0 Add a 4 corners polygon primitive as box body*
4,1,4,$2,$3,$4,$5,$6,$7,$8,$9,$2,$3,0*
0 Add four circle primitives for the rounded corners*
1,1,$1+$1,$2,$3*
1,1,$1+$1,$4,$5*
1,1,$1+$1,$6,$7*
1,1,$1+$1,$8,$9*
0 Add four rect primitives between the rounded corners*
20,1,$1+$1,$2,$3,$4,$5,0*
20,1,$1+$1,$4,$5,$6,$7,0*
20,1,$1+$1,$6,$7,$8,$9,0*
20,1,$1+$1,$8,$9,$2,$3,0*%
%AMFreePoly0*
4,1,6,0.180000,0.075000,0.000000,-0.105000,-0.220000,-0.105000,-0.220000,0.105000,0.180000,0.105000,0.180000,0.075000,0.180000,0.075000,$1*%
%AMFreePoly1*
4,1,6,0.180000,-0.075000,0.180000,-0.105000,-0.220000,-0.105000,-0.220000,0.105000,0.000000,0.105000,0.180000,-0.075000,0.180000,-0.075000,$1*%
%AMFreePoly2*
4,1,6,0.220000,-0.105000,0.000000,-0.105000,-0.180000,0.075000,-0.180000,0.105000,0.220000,0.105000,0.220000,-0.105000,0.220000,-0.105000,$1*%
%AMFreePoly3*
4,1,6,0.220000,-0.105000,-0.180000,-0.105000,-0.180000,-0.075000,0.000000,0.105000,0.220000,0.105000,0.220000,-0.105000,0.220000,-0.105000,$1*%
G04 Aperture macros list end*
%ADD10C,0.250000*%
%ADD11R,0.380000X1.000000*%
%ADD12R,0.700000X1.150000*%
%ADD13RoundRect,0.079500X-0.079500X-0.100500X0.079500X-0.100500X0.079500X0.100500X-0.079500X0.100500X0*%
%ADD14RoundRect,0.079500X0.079500X0.100500X-0.079500X0.100500X-0.079500X-0.100500X0.079500X-0.100500X0*%
%ADD15RoundRect,0.079500X0.100500X-0.079500X0.100500X0.079500X-0.100500X0.079500X-0.100500X-0.079500X0*%
%ADD16RoundRect,0.140000X0.170000X-0.140000X0.170000X0.140000X-0.170000X0.140000X-0.170000X-0.140000X0*%
%ADD17RoundRect,0.140000X-0.170000X0.140000X-0.170000X-0.140000X0.170000X-0.140000X0.170000X0.140000X0*%
%ADD18RoundRect,0.079500X-0.100500X0.079500X-0.100500X-0.079500X0.100500X-0.079500X0.100500X0.079500X0*%
%ADD19R,0.660000X0.220000*%
%ADD20R,1.200000X1.400000*%
%ADD21RoundRect,0.140000X-0.140000X-0.170000X0.140000X-0.170000X0.140000X0.170000X-0.140000X0.170000X0*%
%ADD22RoundRect,0.160000X0.245000X0.160000X-0.245000X0.160000X-0.245000X-0.160000X0.245000X-0.160000X0*%
%ADD23RoundRect,0.093750X0.093750X0.106250X-0.093750X0.106250X-0.093750X-0.106250X0.093750X-0.106250X0*%
%ADD24C,0.400000*%
%ADD25R,0.650001X0.249999*%
%ADD26RoundRect,0.140000X0.140000X0.170000X-0.140000X0.170000X-0.140000X-0.170000X0.140000X-0.170000X0*%
%ADD27RoundRect,0.225000X0.225000X0.250000X-0.225000X0.250000X-0.225000X-0.250000X0.225000X-0.250000X0*%
%ADD28RoundRect,0.050000X-0.350000X-0.050000X0.350000X-0.050000X0.350000X0.050000X-0.350000X0.050000X0*%
%ADD29RoundRect,0.050000X-0.050000X-0.325000X0.050000X-0.325000X0.050000X0.325000X-0.050000X0.325000X0*%
%ADD30R,0.200000X0.600000*%
%ADD31FreePoly0,0.000000*%
%ADD32FreePoly1,0.000000*%
%ADD33FreePoly2,0.000000*%
%ADD34FreePoly3,0.000000*%
%ADD35RoundRect,0.112500X0.000000X-0.159099X0.159099X0.000000X0.000000X0.159099X-0.159099X0.000000X0*%
G04 APERTURE END LIST*
D10*
%TO.C,U11*%
X192500Y1142500D03*
X152500Y1142500D03*
X192500Y1182500D03*
X152500Y1182500D03*
%TD*%
D11*
%TO.C,P1*%
X925000Y2551000D03*
X975000Y2551000D03*
X1025000Y2551000D03*
X1075000Y2551000D03*
X1125000Y2551000D03*
X1175000Y2551000D03*
X1225000Y2551000D03*
X1275000Y2551000D03*
X1325000Y2551000D03*
X1375000Y2551000D03*
X1425000Y2551000D03*
X1475000Y2551000D03*
D12*
X858000Y2467000D03*
%TD*%
D13*
%TO.C,R32*%
X229000Y1537500D03*
X298000Y1537500D03*
%TD*%
D14*
%TO.C,R13*%
X1686000Y50000D03*
X1617000Y50000D03*
%TD*%
D13*
%TO.C,C80*%
X1593000Y2017500D03*
X1662000Y2017500D03*
%TD*%
D15*
%TO.C,C56*%
X2000000Y1938500D03*
X2000000Y2007500D03*
%TD*%
%TO.C,C85*%
X455000Y2123000D03*
X455000Y2192000D03*
%TD*%
D16*
%TO.C,C78*%
X1780000Y1868000D03*
X1780000Y1964000D03*
%TD*%
D17*
%TO.C,C2*%
X892500Y1933500D03*
X892500Y1837500D03*
%TD*%
D18*
%TO.C,R1*%
X1110000Y2282500D03*
X1110000Y2213500D03*
%TD*%
D14*
%TO.C,C59*%
X2006500Y1824000D03*
X1937500Y1824000D03*
%TD*%
D13*
%TO.C,R23*%
X1978500Y51000D03*
X2047500Y51000D03*
%TD*%
D19*
%TO.C,J3*%
X2140000Y1222000D03*
X2311000Y1222000D03*
X2140000Y1262000D03*
X2311000Y1262000D03*
X2140000Y1302000D03*
X2311000Y1302000D03*
X2140000Y1342000D03*
X2311000Y1342000D03*
X2140000Y1382000D03*
X2311000Y1382000D03*
X2140000Y1422000D03*
X2311000Y1422000D03*
X2140000Y1462000D03*
X2311000Y1462000D03*
X2140000Y1502000D03*
X2311000Y1502000D03*
X2140000Y1542000D03*
X2311000Y1542000D03*
X2140000Y1582000D03*
X2311000Y1582000D03*
%TD*%
D13*
%TO.C,R8*%
X901000Y50000D03*
X970000Y50000D03*
%TD*%
D20*
%TO.C,Y2*%
X2131000Y2133000D03*
X2131000Y1913000D03*
X2301000Y1913000D03*
X2301000Y2133000D03*
%TD*%
D13*
%TO.C,R33*%
X229000Y1615000D03*
X298000Y1615000D03*
%TD*%
D21*
%TO.C,C10*%
X217000Y1352500D03*
X313000Y1352500D03*
%TD*%
D22*
%TO.C,U3*%
X2128750Y2319000D03*
X2128750Y2399000D03*
D23*
X2217500Y2294000D03*
X2217500Y2359000D03*
X2217500Y2424000D03*
X2040000Y2424000D03*
X2040000Y2359000D03*
X2040000Y2294000D03*
%TD*%
D13*
%TO.C,R18*%
X1305500Y1835000D03*
X1374500Y1835000D03*
%TD*%
D17*
%TO.C,C81*%
X1505000Y1988000D03*
X1505000Y1892000D03*
%TD*%
D24*
%TO.C,U2*%
X1887000Y258000D03*
X1807000Y258000D03*
X1727000Y258000D03*
X1647000Y258000D03*
X1567000Y258000D03*
X1487000Y258000D03*
X1407000Y258000D03*
X1327000Y258000D03*
X1247000Y258000D03*
X1167000Y258000D03*
X1087000Y258000D03*
X1007000Y258000D03*
X927000Y258000D03*
X847000Y258000D03*
X767000Y258000D03*
X687000Y258000D03*
X607000Y258000D03*
X527000Y258000D03*
X1887000Y338000D03*
X1807000Y338000D03*
X1727000Y338000D03*
X1647000Y338000D03*
X1567000Y338000D03*
X1487000Y338000D03*
X1407000Y338000D03*
X1327000Y338000D03*
X1247000Y338000D03*
X1167000Y338000D03*
X1087000Y338000D03*
X1007000Y338000D03*
X927000Y338000D03*
X847000Y338000D03*
X767000Y338000D03*
X687000Y338000D03*
X607000Y338000D03*
X527000Y338000D03*
X1887000Y418000D03*
X1807000Y418000D03*
X1727000Y418000D03*
X1647000Y418000D03*
X1567000Y418000D03*
X1487000Y418000D03*
X1407000Y418000D03*
X1327000Y418000D03*
X1247000Y418000D03*
X1167000Y418000D03*
X1087000Y418000D03*
X1007000Y418000D03*
X927000Y418000D03*
X847000Y418000D03*
X767000Y418000D03*
X687000Y418000D03*
X607000Y418000D03*
X527000Y418000D03*
X1887000Y498000D03*
X1807000Y498000D03*
X1727000Y498000D03*
X1647000Y498000D03*
X1567000Y498000D03*
X1487000Y498000D03*
X1407000Y498000D03*
X1327000Y498000D03*
X1247000Y498000D03*
X1167000Y498000D03*
X1087000Y498000D03*
X1007000Y498000D03*
X927000Y498000D03*
X847000Y498000D03*
X767000Y498000D03*
X687000Y498000D03*
X607000Y498000D03*
X527000Y498000D03*
X1887000Y578000D03*
X1807000Y578000D03*
X1727000Y578000D03*
X1647000Y578000D03*
X1567000Y578000D03*
X1487000Y578000D03*
X1407000Y578000D03*
X1327000Y578000D03*
X1247000Y578000D03*
X1167000Y578000D03*
X1087000Y578000D03*
X1007000Y578000D03*
X927000Y578000D03*
X847000Y578000D03*
X767000Y578000D03*
X687000Y578000D03*
X607000Y578000D03*
X527000Y578000D03*
X1887000Y658000D03*
X1807000Y658000D03*
X1727000Y658000D03*
X1647000Y658000D03*
X1567000Y658000D03*
X1487000Y658000D03*
X1407000Y658000D03*
X1327000Y658000D03*
X1247000Y658000D03*
X1167000Y658000D03*
X1087000Y658000D03*
X1007000Y658000D03*
X927000Y658000D03*
X847000Y658000D03*
X767000Y658000D03*
X687000Y658000D03*
X607000Y658000D03*
X527000Y658000D03*
X1887000Y738000D03*
X1807000Y738000D03*
X1727000Y738000D03*
X1647000Y738000D03*
X1567000Y738000D03*
X1487000Y738000D03*
X1407000Y738000D03*
X1327000Y738000D03*
X1247000Y738000D03*
X1167000Y738000D03*
X1087000Y738000D03*
X1007000Y738000D03*
X927000Y738000D03*
X847000Y738000D03*
X767000Y738000D03*
X687000Y738000D03*
X607000Y738000D03*
X527000Y738000D03*
X1887000Y818000D03*
X1807000Y818000D03*
X1727000Y818000D03*
X1647000Y818000D03*
X1567000Y818000D03*
X1487000Y818000D03*
X1407000Y818000D03*
X1327000Y818000D03*
X1247000Y818000D03*
X1167000Y818000D03*
X1087000Y818000D03*
X1007000Y818000D03*
X927000Y818000D03*
X847000Y818000D03*
X767000Y818000D03*
X687000Y818000D03*
X607000Y818000D03*
X527000Y818000D03*
X1887000Y898000D03*
X1807000Y898000D03*
X1727000Y898000D03*
X1647000Y898000D03*
X1567000Y898000D03*
X1487000Y898000D03*
X1407000Y898000D03*
X1327000Y898000D03*
X1247000Y898000D03*
X1167000Y898000D03*
X1087000Y898000D03*
X1007000Y898000D03*
X927000Y898000D03*
X847000Y898000D03*
X767000Y898000D03*
X687000Y898000D03*
X607000Y898000D03*
X527000Y898000D03*
X1887000Y978000D03*
X1807000Y978000D03*
X1727000Y978000D03*
X1647000Y978000D03*
X1567000Y978000D03*
X1487000Y978000D03*
X1407000Y978000D03*
X1327000Y978000D03*
X1247000Y978000D03*
X1167000Y978000D03*
X1087000Y978000D03*
X1007000Y978000D03*
X927000Y978000D03*
X847000Y978000D03*
X767000Y978000D03*
X687000Y978000D03*
X607000Y978000D03*
X527000Y978000D03*
X1887000Y1058000D03*
X1807000Y1058000D03*
X1727000Y1058000D03*
X1647000Y1058000D03*
X1567000Y1058000D03*
X1487000Y1058000D03*
X1407000Y1058000D03*
X1327000Y1058000D03*
X1247000Y1058000D03*
X1167000Y1058000D03*
X1087000Y1058000D03*
X1007000Y1058000D03*
X927000Y1058000D03*
X847000Y1058000D03*
X767000Y1058000D03*
X687000Y1058000D03*
X607000Y1058000D03*
X527000Y1058000D03*
X1887000Y1138000D03*
X1807000Y1138000D03*
X1727000Y1138000D03*
X1647000Y1138000D03*
X1567000Y1138000D03*
X1487000Y1138000D03*
X1407000Y1138000D03*
X1327000Y1138000D03*
X1247000Y1138000D03*
X1167000Y1138000D03*
X1087000Y1138000D03*
X1007000Y1138000D03*
X927000Y1138000D03*
X847000Y1138000D03*
X767000Y1138000D03*
X687000Y1138000D03*
X607000Y1138000D03*
X527000Y1138000D03*
X1887000Y1218000D03*
X1807000Y1218000D03*
X1727000Y1218000D03*
X1647000Y1218000D03*
X1567000Y1218000D03*
X1487000Y1218000D03*
X1407000Y1218000D03*
X1327000Y1218000D03*
X1247000Y1218000D03*
X1167000Y1218000D03*
X1087000Y1218000D03*
X1007000Y1218000D03*
X927000Y1218000D03*
X847000Y1218000D03*
X767000Y1218000D03*
X687000Y1218000D03*
X607000Y1218000D03*
X527000Y1218000D03*
X1887000Y1298000D03*
X1807000Y1298000D03*
X1727000Y1298000D03*
X1647000Y1298000D03*
X1567000Y1298000D03*
X1487000Y1298000D03*
X1407000Y1298000D03*
X1327000Y1298000D03*
X1247000Y1298000D03*
X1167000Y1298000D03*
X1087000Y1298000D03*
X1007000Y1298000D03*
X927000Y1298000D03*
X847000Y1298000D03*
X767000Y1298000D03*
X687000Y1298000D03*
X607000Y1298000D03*
X527000Y1298000D03*
X1887000Y1378000D03*
X1807000Y1378000D03*
X1727000Y1378000D03*
X1647000Y1378000D03*
X1567000Y1378000D03*
X1487000Y1378000D03*
X1407000Y1378000D03*
X1327000Y1378000D03*
X1247000Y1378000D03*
X1167000Y1378000D03*
X1087000Y1378000D03*
X1007000Y1378000D03*
X927000Y1378000D03*
X847000Y1378000D03*
X767000Y1378000D03*
X687000Y1378000D03*
X607000Y1378000D03*
X527000Y1378000D03*
X1887000Y1458000D03*
X1807000Y1458000D03*
X1727000Y1458000D03*
X1647000Y1458000D03*
X1567000Y1458000D03*
X1487000Y1458000D03*
X1407000Y1458000D03*
X1327000Y1458000D03*
X1247000Y1458000D03*
X1167000Y1458000D03*
X1087000Y1458000D03*
X1007000Y1458000D03*
X927000Y1458000D03*
X847000Y1458000D03*
X767000Y1458000D03*
X687000Y1458000D03*
X607000Y1458000D03*
X527000Y1458000D03*
X1887000Y1538000D03*
X1807000Y1538000D03*
X1727000Y1538000D03*
X1647000Y1538000D03*
X1567000Y1538000D03*
X1487000Y1538000D03*
X1407000Y1538000D03*
X1327000Y1538000D03*
X1247000Y1538000D03*
X1167000Y1538000D03*
X1087000Y1538000D03*
X1007000Y1538000D03*
X927000Y1538000D03*
X847000Y1538000D03*
X767000Y1538000D03*
X687000Y1538000D03*
X607000Y1538000D03*
X527000Y1538000D03*
X1887000Y1618000D03*
X1807000Y1618000D03*
X1727000Y1618000D03*
X1647000Y1618000D03*
X1567000Y1618000D03*
X1487000Y1618000D03*
X1407000Y1618000D03*
X1327000Y1618000D03*
X1247000Y1618000D03*
X1167000Y1618000D03*
X1087000Y1618000D03*
X1007000Y1618000D03*
X927000Y1618000D03*
X847000Y1618000D03*
X767000Y1618000D03*
X687000Y1618000D03*
X607000Y1618000D03*
X527000Y1618000D03*
%TD*%
D17*
%TO.C,C54*%
X1637000Y2309000D03*
X1637000Y2213000D03*
%TD*%
D25*
%TO.C,U7*%
X152500Y2290000D03*
X152500Y2240000D03*
X152500Y2190000D03*
X152500Y2140000D03*
X152500Y2090000D03*
X277500Y2090000D03*
X277500Y2140000D03*
X277500Y2190000D03*
X277500Y2240000D03*
X277500Y2290000D03*
%TD*%
D13*
%TO.C,C62*%
X1463500Y2324000D03*
X1532500Y2324000D03*
%TD*%
D26*
%TO.C,C1*%
X692000Y2356000D03*
X596000Y2356000D03*
%TD*%
D17*
%TO.C,C58*%
X1746000Y2305000D03*
X1746000Y2209000D03*
%TD*%
D16*
%TO.C,C55*%
X1640000Y1842000D03*
X1640000Y1938000D03*
%TD*%
D18*
%TO.C,C61*%
X1829000Y2306500D03*
X1829000Y2237500D03*
%TD*%
D13*
%TO.C,R5*%
X1463000Y50000D03*
X1532000Y50000D03*
%TD*%
D27*
%TO.C,TH1*%
X1857500Y2425000D03*
X1702500Y2425000D03*
%TD*%
D13*
%TO.C,R37*%
X525500Y50000D03*
X594500Y50000D03*
%TD*%
%TO.C,R36*%
X713000Y50000D03*
X782000Y50000D03*
%TD*%
D28*
%TO.C,U5*%
X1210000Y2172000D03*
X1210000Y2132000D03*
D29*
X1230000Y2064500D03*
X1270000Y2064500D03*
X1310000Y2064500D03*
D28*
X1330000Y2132000D03*
X1330000Y2172000D03*
D29*
X1310000Y2239500D03*
X1270000Y2239500D03*
X1230000Y2239500D03*
%TD*%
D13*
%TO.C,R14*%
X1837500Y50000D03*
X1906500Y50000D03*
%TD*%
%TO.C,R6*%
X1276000Y50000D03*
X1345000Y50000D03*
%TD*%
D14*
%TO.C,R10*%
X434500Y2290000D03*
X365500Y2290000D03*
%TD*%
%TO.C,R2*%
X733500Y2437000D03*
X664500Y2437000D03*
%TD*%
%TO.C,C60*%
X1987500Y2091000D03*
X1918500Y2091000D03*
%TD*%
D13*
%TO.C,R7*%
X1088500Y50000D03*
X1157500Y50000D03*
%TD*%
D16*
%TO.C,C84*%
X372500Y2117000D03*
X372500Y2213000D03*
%TD*%
D21*
%TO.C,C83*%
X150000Y2405000D03*
X246000Y2405000D03*
%TD*%
D30*
%TO.C,D9*%
X965000Y2145000D03*
X875000Y2145000D03*
X795000Y2145000D03*
X715000Y2145000D03*
X625000Y2145000D03*
X665000Y2050000D03*
X755000Y2050000D03*
X835000Y2050000D03*
X925000Y2050000D03*
%TD*%
D31*
%TO.C,U6*%
X1127000Y1947500D03*
D32*
X1127000Y1882500D03*
D33*
X1213000Y1947500D03*
D34*
X1213000Y1882500D03*
D35*
X1170000Y1915000D03*
%TD*%
D17*
%TO.C,C3*%
X797500Y1933500D03*
X797500Y1837500D03*
%TD*%
D21*
%TO.C,C9*%
X216500Y1445000D03*
X312500Y1445000D03*
%TD*%
D15*
%TO.C,R9*%
X527500Y2122500D03*
X527500Y2191500D03*
%TD*%
%TO.C,R11*%
X70000Y2075500D03*
X70000Y2144500D03*
%TD*%
D21*
%TO.C,C79*%
X1452000Y2243000D03*
X1548000Y2243000D03*
%TD*%
D15*
%TO.C,R21*%
X975000Y1838000D03*
X975000Y1907000D03*
%TD*%
M02*
