%TF.GenerationSoftware,KiCad,Pcbnew,9.0.0*%
%TF.CreationDate,2025-03-28T20:31:48-04:00*%
%TF.ProjectId,Expansion_Card_Retrofit,45787061-6e73-4696-9f6e-5f436172645f,X1*%
%TF.SameCoordinates,Original*%
%TF.FileFunction,Legend,Top*%
%TF.FilePolarity,Positive*%
%FSLAX45Y45*%
G04 Gerber Fmt 4.5, Leading zero omitted, Abs format (unit mm)*
G04 Created by KiCad (PCBNEW 9.0.0) date 2025-03-28 20:31:48*
%MOMM*%
%LPD*%
G01*
G04 APERTURE LIST*
%ADD10C,0.175000*%
%ADD11C,0.101600*%
%ADD12C,0.150000*%
%ADD13C,0.120000*%
%ADD14C,0.140357*%
G04 APERTURE END LIST*
D10*
G36*
X2207706Y1018227D02*
G01*
X2198653Y1018227D01*
X2203180Y1031807D01*
X2207706Y1018227D01*
G37*
G36*
X2374013Y971977D02*
G01*
X2055680Y971977D01*
X2055680Y1059477D01*
X2064430Y1059477D01*
X2064430Y989477D01*
X2064598Y987770D01*
X2065904Y984615D01*
X2068318Y982201D01*
X2071473Y980895D01*
X2074887Y980895D01*
X2078041Y982201D01*
X2080455Y984615D01*
X2081762Y987770D01*
X2081930Y989477D01*
X2081930Y1017393D01*
X2096513Y1017393D01*
X2098220Y1017561D01*
X2101374Y1018868D01*
X2103789Y1021282D01*
X2105095Y1024436D01*
X2105095Y1027850D01*
X2103789Y1031005D01*
X2101374Y1033419D01*
X2098220Y1034725D01*
X2096513Y1034893D01*
X2081930Y1034893D01*
X2081930Y1050727D01*
X2106513Y1050727D01*
X2108220Y1050895D01*
X2111374Y1052201D01*
X2113789Y1054616D01*
X2115095Y1057770D01*
X2115095Y1059477D01*
X2124430Y1059477D01*
X2124430Y989477D01*
X2124598Y987770D01*
X2125904Y984615D01*
X2128319Y982201D01*
X2131473Y980895D01*
X2133180Y980727D01*
X2166513Y980727D01*
X2168220Y980895D01*
X2171374Y982201D01*
X2173122Y983949D01*
X2175513Y981875D01*
X2178752Y980795D01*
X2182157Y981037D01*
X2185211Y982564D01*
X2187448Y985143D01*
X2188147Y986710D01*
X2192820Y1000727D01*
X2213540Y1000727D01*
X2218212Y986710D01*
X2218911Y985143D01*
X2221148Y982564D01*
X2224202Y981037D01*
X2227608Y980795D01*
X2230846Y981875D01*
X2233426Y984112D01*
X2234952Y987166D01*
X2235194Y990571D01*
X2234814Y992244D01*
X2216848Y1046143D01*
X2237763Y1046143D01*
X2237763Y1039477D01*
X2237931Y1037770D01*
X2238052Y1037479D01*
X2238074Y1037166D01*
X2238687Y1035564D01*
X2242020Y1028897D01*
X2242483Y1028162D01*
X2242571Y1027949D01*
X2242768Y1027708D01*
X2242934Y1027445D01*
X2243108Y1027294D01*
X2243659Y1026623D01*
X2246993Y1023289D01*
X2247664Y1022739D01*
X2247815Y1022564D01*
X2248078Y1022399D01*
X2248319Y1022201D01*
X2248532Y1022113D01*
X2249267Y1021650D01*
X2255933Y1018317D01*
X2256058Y1018269D01*
X2256109Y1018232D01*
X2256824Y1017976D01*
X2257535Y1017704D01*
X2257599Y1017700D01*
X2257724Y1017655D01*
X2270126Y1014554D01*
X2274663Y1012286D01*
X2275989Y1010960D01*
X2277763Y1007411D01*
X2277763Y1004875D01*
X2275989Y1001327D01*
X2274663Y1000001D01*
X2271114Y998227D01*
X2257933Y998227D01*
X2249280Y1001111D01*
X2247608Y1001491D01*
X2244202Y1001249D01*
X2241148Y999722D01*
X2238911Y997143D01*
X2237832Y993904D01*
X2238074Y990499D01*
X2239601Y987445D01*
X2242180Y985208D01*
X2243746Y984509D01*
X2253746Y981176D01*
X2254593Y980983D01*
X2254806Y980895D01*
X2255116Y980864D01*
X2255419Y980795D01*
X2255649Y980812D01*
X2256513Y980727D01*
X2273180Y980727D01*
X2274887Y980895D01*
X2275177Y981015D01*
X2275491Y981037D01*
X2277093Y981650D01*
X2283760Y984984D01*
X2284494Y985446D01*
X2284708Y985535D01*
X2284948Y985732D01*
X2285211Y985897D01*
X2285362Y986072D01*
X2286034Y986623D01*
X2289367Y989956D01*
X2289918Y990627D01*
X2290092Y990779D01*
X2290258Y991042D01*
X2290455Y991282D01*
X2290544Y991496D01*
X2291006Y992230D01*
X2294339Y998897D01*
X2294952Y1000499D01*
X2294975Y1000813D01*
X2295095Y1001103D01*
X2295263Y1002810D01*
X2295263Y1009477D01*
X2295095Y1011184D01*
X2294975Y1011474D01*
X2294952Y1011788D01*
X2294339Y1013390D01*
X2291006Y1020056D01*
X2290544Y1020791D01*
X2290455Y1021005D01*
X2290258Y1021245D01*
X2290092Y1021508D01*
X2289918Y1021659D01*
X2289367Y1022331D01*
X2286034Y1025664D01*
X2285362Y1026215D01*
X2285211Y1026389D01*
X2284948Y1026555D01*
X2284708Y1026752D01*
X2284494Y1026841D01*
X2283760Y1027303D01*
X2277093Y1030636D01*
X2276968Y1030684D01*
X2276917Y1030722D01*
X2276203Y1030977D01*
X2275491Y1031249D01*
X2275428Y1031254D01*
X2275302Y1031299D01*
X2262900Y1034399D01*
X2258363Y1036668D01*
X2257038Y1037993D01*
X2255263Y1041542D01*
X2255263Y1044078D01*
X2257038Y1047627D01*
X2258363Y1048952D01*
X2261912Y1050727D01*
X2275093Y1050727D01*
X2283746Y1047842D01*
X2285419Y1047462D01*
X2288824Y1047704D01*
X2291878Y1049231D01*
X2294115Y1051810D01*
X2295194Y1055049D01*
X2294952Y1058455D01*
X2294441Y1059477D01*
X2307763Y1059477D01*
X2307763Y989477D01*
X2307931Y987770D01*
X2309238Y984615D01*
X2311652Y982201D01*
X2314806Y980895D01*
X2318220Y980895D01*
X2321374Y982201D01*
X2323789Y984615D01*
X2325095Y987770D01*
X2325263Y989477D01*
X2325263Y1017393D01*
X2347763Y1017393D01*
X2347763Y989477D01*
X2347931Y987770D01*
X2349238Y984615D01*
X2351652Y982201D01*
X2354806Y980895D01*
X2358220Y980895D01*
X2361374Y982201D01*
X2363789Y984615D01*
X2365095Y987770D01*
X2365263Y989477D01*
X2365263Y1059477D01*
X2365095Y1061184D01*
X2363789Y1064338D01*
X2361374Y1066752D01*
X2358220Y1068059D01*
X2354806Y1068059D01*
X2351652Y1066752D01*
X2349238Y1064338D01*
X2347931Y1061184D01*
X2347763Y1059477D01*
X2347763Y1034893D01*
X2325263Y1034893D01*
X2325263Y1059477D01*
X2325095Y1061184D01*
X2323789Y1064338D01*
X2321374Y1066752D01*
X2318220Y1068059D01*
X2314806Y1068059D01*
X2311652Y1066752D01*
X2309238Y1064338D01*
X2307931Y1061184D01*
X2307763Y1059477D01*
X2294441Y1059477D01*
X2293426Y1061508D01*
X2290846Y1063745D01*
X2289280Y1064444D01*
X2279280Y1067778D01*
X2278434Y1067970D01*
X2278220Y1068059D01*
X2277911Y1068089D01*
X2277608Y1068158D01*
X2277377Y1068142D01*
X2276513Y1068227D01*
X2259846Y1068227D01*
X2258139Y1068059D01*
X2257849Y1067938D01*
X2257535Y1067916D01*
X2255933Y1067303D01*
X2249267Y1063970D01*
X2248532Y1063507D01*
X2248319Y1063419D01*
X2248078Y1063222D01*
X2247815Y1063056D01*
X2247664Y1062881D01*
X2246993Y1062331D01*
X2243659Y1058997D01*
X2243108Y1058326D01*
X2242934Y1058175D01*
X2242769Y1057912D01*
X2242571Y1057671D01*
X2242482Y1057458D01*
X2242020Y1056723D01*
X2238687Y1050057D01*
X2238074Y1048455D01*
X2238052Y1048141D01*
X2237931Y1047850D01*
X2237763Y1046143D01*
X2216848Y1046143D01*
X2211481Y1062244D01*
X2210782Y1063810D01*
X2210372Y1064282D01*
X2210092Y1064842D01*
X2209263Y1065560D01*
X2208545Y1066389D01*
X2207985Y1066669D01*
X2207513Y1067078D01*
X2206472Y1067425D01*
X2205491Y1067916D01*
X2204867Y1067960D01*
X2204274Y1068158D01*
X2203180Y1068080D01*
X2202085Y1068158D01*
X2201492Y1067960D01*
X2200869Y1067916D01*
X2199888Y1067425D01*
X2198847Y1067078D01*
X2198374Y1066669D01*
X2197815Y1066389D01*
X2197096Y1065560D01*
X2196267Y1064842D01*
X2195988Y1064282D01*
X2195578Y1063810D01*
X2194879Y1062244D01*
X2172630Y995497D01*
X2171374Y996752D01*
X2168220Y998059D01*
X2166513Y998227D01*
X2141930Y998227D01*
X2141930Y1059477D01*
X2141762Y1061184D01*
X2140455Y1064338D01*
X2138041Y1066752D01*
X2134887Y1068059D01*
X2131473Y1068059D01*
X2128319Y1066752D01*
X2125904Y1064338D01*
X2124598Y1061184D01*
X2124430Y1059477D01*
X2115095Y1059477D01*
X2115095Y1061184D01*
X2113789Y1064338D01*
X2111374Y1066752D01*
X2108220Y1068059D01*
X2106513Y1068227D01*
X2073180Y1068227D01*
X2071473Y1068059D01*
X2068318Y1066752D01*
X2065904Y1064338D01*
X2064598Y1061184D01*
X2064430Y1059477D01*
X2055680Y1059477D01*
X2055680Y1076977D01*
X2374013Y1076977D01*
X2374013Y971977D01*
G37*
G36*
X291773Y1151987D02*
G01*
X278193Y1156513D01*
X291773Y1161040D01*
X291773Y1151987D01*
G37*
G36*
X338023Y1045680D02*
G01*
X233023Y1045680D01*
X233023Y1108518D01*
X241875Y1108518D01*
X241941Y1108335D01*
X241941Y1108140D01*
X242522Y1106737D01*
X243041Y1105309D01*
X243173Y1105166D01*
X243248Y1104985D01*
X244322Y1103912D01*
X245347Y1102792D01*
X245579Y1102655D01*
X245662Y1102571D01*
X245853Y1102492D01*
X246823Y1101917D01*
X279832Y1086513D01*
X246823Y1071109D01*
X245853Y1070534D01*
X245662Y1070455D01*
X245579Y1070372D01*
X245347Y1070235D01*
X244322Y1069115D01*
X243248Y1068041D01*
X243173Y1067861D01*
X243041Y1067717D01*
X242522Y1066290D01*
X241941Y1064887D01*
X241941Y1064692D01*
X241875Y1064508D01*
X241941Y1062992D01*
X241941Y1061473D01*
X242016Y1061292D01*
X242025Y1061098D01*
X242667Y1059722D01*
X243248Y1058319D01*
X243386Y1058181D01*
X243468Y1058004D01*
X244588Y1056978D01*
X245662Y1055904D01*
X245842Y1055830D01*
X245986Y1055698D01*
X247413Y1055179D01*
X248816Y1054598D01*
X249084Y1054572D01*
X249195Y1054531D01*
X249401Y1054540D01*
X250523Y1054430D01*
X320523Y1054430D01*
X322230Y1054598D01*
X325385Y1055904D01*
X327799Y1058319D01*
X329105Y1061473D01*
X329105Y1064887D01*
X327799Y1068041D01*
X325385Y1070455D01*
X322230Y1071762D01*
X320523Y1071930D01*
X289965Y1071930D01*
X304224Y1078584D01*
X304849Y1078954D01*
X305060Y1079031D01*
X305210Y1079169D01*
X305699Y1079458D01*
X306597Y1080439D01*
X307578Y1081337D01*
X307743Y1081689D01*
X308005Y1081976D01*
X308460Y1083226D01*
X309022Y1084431D01*
X309039Y1084819D01*
X309172Y1085185D01*
X309113Y1086514D01*
X309172Y1087842D01*
X309039Y1088207D01*
X309022Y1088595D01*
X308459Y1089801D01*
X308005Y1091050D01*
X307743Y1091337D01*
X307578Y1091689D01*
X306597Y1092587D01*
X305699Y1093568D01*
X305210Y1093858D01*
X305060Y1093995D01*
X304849Y1094072D01*
X304224Y1094442D01*
X289964Y1101097D01*
X320523Y1101097D01*
X322230Y1101265D01*
X325385Y1102571D01*
X327799Y1104985D01*
X329105Y1108140D01*
X329105Y1111554D01*
X327799Y1114708D01*
X325385Y1117122D01*
X322230Y1118428D01*
X320523Y1118597D01*
X250523Y1118597D01*
X249401Y1118486D01*
X249195Y1118495D01*
X249084Y1118455D01*
X248816Y1118428D01*
X247413Y1117847D01*
X245986Y1117328D01*
X245842Y1117197D01*
X245662Y1117122D01*
X244588Y1116048D01*
X243468Y1115023D01*
X243386Y1114846D01*
X243248Y1114708D01*
X242667Y1113305D01*
X242025Y1111929D01*
X242016Y1111734D01*
X241941Y1111554D01*
X241941Y1110035D01*
X241875Y1108518D01*
X233023Y1108518D01*
X233023Y1157608D01*
X241842Y1157608D01*
X241920Y1156513D01*
X241842Y1155419D01*
X242040Y1154826D01*
X242084Y1154202D01*
X242575Y1153221D01*
X242922Y1152180D01*
X243331Y1151708D01*
X243611Y1151148D01*
X244440Y1150430D01*
X245158Y1149601D01*
X245718Y1149321D01*
X246190Y1148911D01*
X247756Y1148212D01*
X317756Y1124879D01*
X319429Y1124499D01*
X322834Y1124741D01*
X325888Y1126267D01*
X328125Y1128847D01*
X329205Y1132085D01*
X328963Y1135491D01*
X327436Y1138545D01*
X324857Y1140782D01*
X323290Y1141481D01*
X309273Y1146153D01*
X309273Y1166873D01*
X323290Y1171546D01*
X324857Y1172245D01*
X327436Y1174482D01*
X328963Y1177536D01*
X329205Y1180941D01*
X328125Y1184180D01*
X325888Y1186759D01*
X322834Y1188286D01*
X319429Y1188528D01*
X317756Y1188148D01*
X247756Y1164814D01*
X246190Y1164115D01*
X245718Y1163705D01*
X245158Y1163426D01*
X244440Y1162597D01*
X243611Y1161878D01*
X243331Y1161319D01*
X242922Y1160846D01*
X242575Y1159805D01*
X242084Y1158824D01*
X242040Y1158201D01*
X241842Y1157608D01*
X233023Y1157608D01*
X233023Y1233180D01*
X241773Y1233180D01*
X241773Y1223180D01*
X241858Y1222316D01*
X241842Y1222085D01*
X241911Y1221782D01*
X241941Y1221473D01*
X242030Y1221259D01*
X242222Y1220413D01*
X245556Y1210413D01*
X246255Y1208847D01*
X246461Y1208609D01*
X246581Y1208319D01*
X247669Y1206993D01*
X254336Y1200326D01*
X255007Y1199775D01*
X255159Y1199601D01*
X255422Y1199435D01*
X255662Y1199238D01*
X255875Y1199150D01*
X256610Y1198687D01*
X263277Y1195354D01*
X263402Y1195306D01*
X263453Y1195268D01*
X264170Y1195012D01*
X264879Y1194741D01*
X264942Y1194736D01*
X265068Y1194691D01*
X278401Y1191358D01*
X278697Y1191314D01*
X278816Y1191265D01*
X279459Y1191201D01*
X280098Y1191107D01*
X280226Y1191126D01*
X280523Y1191097D01*
X290523Y1191097D01*
X290821Y1191126D01*
X290949Y1191107D01*
X291588Y1191201D01*
X292230Y1191265D01*
X292349Y1191314D01*
X292646Y1191358D01*
X305979Y1194691D01*
X306105Y1194736D01*
X306168Y1194741D01*
X306878Y1195012D01*
X307594Y1195268D01*
X307645Y1195306D01*
X307770Y1195354D01*
X314436Y1198687D01*
X315171Y1199149D01*
X315385Y1199238D01*
X315625Y1199435D01*
X315888Y1199601D01*
X316039Y1199775D01*
X316711Y1200326D01*
X323377Y1206993D01*
X324465Y1208319D01*
X324586Y1208609D01*
X324792Y1208847D01*
X325491Y1210413D01*
X328824Y1220413D01*
X329017Y1221259D01*
X329105Y1221473D01*
X329136Y1221782D01*
X329205Y1222085D01*
X329188Y1222316D01*
X329273Y1223180D01*
X329273Y1229847D01*
X329188Y1230711D01*
X329205Y1230941D01*
X329136Y1231244D01*
X329105Y1231554D01*
X329017Y1231767D01*
X328824Y1232614D01*
X325491Y1242614D01*
X324792Y1244180D01*
X324586Y1244417D01*
X324465Y1244708D01*
X323377Y1246034D01*
X320044Y1249367D01*
X318718Y1250455D01*
X315564Y1251762D01*
X313857Y1251930D01*
X290523Y1251930D01*
X288816Y1251762D01*
X285662Y1250455D01*
X283248Y1248041D01*
X281941Y1244887D01*
X281773Y1243180D01*
X281773Y1229847D01*
X281941Y1228140D01*
X283248Y1224985D01*
X285662Y1222571D01*
X288816Y1221265D01*
X292230Y1221265D01*
X295385Y1222571D01*
X297799Y1224985D01*
X299105Y1228140D01*
X299273Y1229847D01*
X299273Y1234430D01*
X309772Y1234430D01*
X311773Y1228427D01*
X311773Y1224600D01*
X309542Y1217906D01*
X305340Y1213704D01*
X300802Y1211436D01*
X289446Y1208597D01*
X281601Y1208597D01*
X270244Y1211436D01*
X265706Y1213705D01*
X261504Y1217906D01*
X259273Y1224600D01*
X259273Y1231114D01*
X261683Y1235934D01*
X262296Y1237535D01*
X262538Y1240941D01*
X261458Y1244180D01*
X259221Y1246759D01*
X256168Y1248286D01*
X252762Y1248528D01*
X249523Y1247448D01*
X246944Y1245211D01*
X246030Y1243760D01*
X242697Y1237093D01*
X242084Y1235491D01*
X242062Y1235177D01*
X241941Y1234887D01*
X241773Y1233180D01*
X233023Y1233180D01*
X233023Y1260680D01*
X338023Y1260680D01*
X338023Y1045680D01*
G37*
D11*
X395000Y1708000D02*
X330000Y1643000D01*
D12*
X21603Y1053333D02*
X78270Y1053333D01*
X78270Y1053333D02*
X84937Y1056667D01*
X84937Y1056667D02*
X88270Y1060000D01*
X88270Y1060000D02*
X91603Y1066667D01*
X91603Y1066667D02*
X91603Y1080000D01*
X91603Y1080000D02*
X88270Y1086667D01*
X88270Y1086667D02*
X84937Y1090000D01*
X84937Y1090000D02*
X78270Y1093333D01*
X78270Y1093333D02*
X21603Y1093333D01*
X91603Y1163333D02*
X91603Y1123333D01*
X91603Y1143333D02*
X21603Y1143333D01*
X21603Y1143333D02*
X31603Y1136667D01*
X31603Y1136667D02*
X38270Y1130000D01*
X38270Y1130000D02*
X41603Y1123333D01*
X91603Y1230000D02*
X91603Y1190000D01*
X91603Y1210000D02*
X21603Y1210000D01*
X21603Y1210000D02*
X31603Y1203333D01*
X31603Y1203333D02*
X38270Y1196667D01*
X38270Y1196667D02*
X41603Y1190000D01*
X156603Y1560000D02*
X123270Y1536667D01*
X156603Y1520000D02*
X86603Y1520000D01*
X86603Y1520000D02*
X86603Y1546667D01*
X86603Y1546667D02*
X89937Y1553333D01*
X89937Y1553333D02*
X93270Y1556667D01*
X93270Y1556667D02*
X99937Y1560000D01*
X99937Y1560000D02*
X109937Y1560000D01*
X109937Y1560000D02*
X116603Y1556667D01*
X116603Y1556667D02*
X119937Y1553333D01*
X119937Y1553333D02*
X123270Y1546667D01*
X123270Y1546667D02*
X123270Y1520000D01*
X86603Y1583333D02*
X86603Y1626667D01*
X86603Y1626667D02*
X113270Y1603333D01*
X113270Y1603333D02*
X113270Y1613333D01*
X113270Y1613333D02*
X116603Y1620000D01*
X116603Y1620000D02*
X119937Y1623333D01*
X119937Y1623333D02*
X126603Y1626667D01*
X126603Y1626667D02*
X143270Y1626667D01*
X143270Y1626667D02*
X149937Y1623333D01*
X149937Y1623333D02*
X153270Y1620000D01*
X153270Y1620000D02*
X156603Y1613333D01*
X156603Y1613333D02*
X156603Y1593333D01*
X156603Y1593333D02*
X153270Y1586667D01*
X153270Y1586667D02*
X149937Y1583333D01*
X93270Y1653333D02*
X89937Y1656667D01*
X89937Y1656667D02*
X86603Y1663333D01*
X86603Y1663333D02*
X86603Y1680000D01*
X86603Y1680000D02*
X89937Y1686667D01*
X89937Y1686667D02*
X93270Y1690000D01*
X93270Y1690000D02*
X99937Y1693333D01*
X99937Y1693333D02*
X106603Y1693333D01*
X106603Y1693333D02*
X116603Y1690000D01*
X116603Y1690000D02*
X156603Y1650000D01*
X156603Y1650000D02*
X156603Y1693333D01*
X1625000Y98397D02*
X1601667Y131730D01*
X1585000Y98397D02*
X1585000Y168397D01*
X1585000Y168397D02*
X1611667Y168397D01*
X1611667Y168397D02*
X1618333Y165063D01*
X1618333Y165063D02*
X1621667Y161730D01*
X1621667Y161730D02*
X1625000Y155063D01*
X1625000Y155063D02*
X1625000Y145063D01*
X1625000Y145063D02*
X1621667Y138397D01*
X1621667Y138397D02*
X1618333Y135063D01*
X1618333Y135063D02*
X1611667Y131730D01*
X1611667Y131730D02*
X1585000Y131730D01*
X1691667Y98397D02*
X1651667Y98397D01*
X1671667Y98397D02*
X1671667Y168397D01*
X1671667Y168397D02*
X1665000Y158397D01*
X1665000Y158397D02*
X1658333Y151730D01*
X1658333Y151730D02*
X1651667Y148397D01*
X1715000Y168397D02*
X1758333Y168397D01*
X1758333Y168397D02*
X1735000Y141730D01*
X1735000Y141730D02*
X1745000Y141730D01*
X1745000Y141730D02*
X1751667Y138397D01*
X1751667Y138397D02*
X1755000Y135063D01*
X1755000Y135063D02*
X1758333Y128397D01*
X1758333Y128397D02*
X1758333Y111730D01*
X1758333Y111730D02*
X1755000Y105063D01*
X1755000Y105063D02*
X1751667Y101730D01*
X1751667Y101730D02*
X1745000Y98397D01*
X1745000Y98397D02*
X1725000Y98397D01*
X1725000Y98397D02*
X1718333Y101730D01*
X1718333Y101730D02*
X1715000Y105063D01*
X1730000Y2002563D02*
X1726667Y1999230D01*
X1726667Y1999230D02*
X1716667Y1995897D01*
X1716667Y1995897D02*
X1710000Y1995897D01*
X1710000Y1995897D02*
X1700000Y1999230D01*
X1700000Y1999230D02*
X1693333Y2005897D01*
X1693333Y2005897D02*
X1690000Y2012563D01*
X1690000Y2012563D02*
X1686667Y2025897D01*
X1686667Y2025897D02*
X1686667Y2035897D01*
X1686667Y2035897D02*
X1690000Y2049230D01*
X1690000Y2049230D02*
X1693333Y2055897D01*
X1693333Y2055897D02*
X1700000Y2062563D01*
X1700000Y2062563D02*
X1710000Y2065897D01*
X1710000Y2065897D02*
X1716667Y2065897D01*
X1716667Y2065897D02*
X1726667Y2062563D01*
X1726667Y2062563D02*
X1730000Y2059230D01*
X1770000Y2035897D02*
X1763333Y2039230D01*
X1763333Y2039230D02*
X1760000Y2042563D01*
X1760000Y2042563D02*
X1756667Y2049230D01*
X1756667Y2049230D02*
X1756667Y2052563D01*
X1756667Y2052563D02*
X1760000Y2059230D01*
X1760000Y2059230D02*
X1763333Y2062563D01*
X1763333Y2062563D02*
X1770000Y2065897D01*
X1770000Y2065897D02*
X1783333Y2065897D01*
X1783333Y2065897D02*
X1790000Y2062563D01*
X1790000Y2062563D02*
X1793333Y2059230D01*
X1793333Y2059230D02*
X1796667Y2052563D01*
X1796667Y2052563D02*
X1796667Y2049230D01*
X1796667Y2049230D02*
X1793333Y2042563D01*
X1793333Y2042563D02*
X1790000Y2039230D01*
X1790000Y2039230D02*
X1783333Y2035897D01*
X1783333Y2035897D02*
X1770000Y2035897D01*
X1770000Y2035897D02*
X1763333Y2032563D01*
X1763333Y2032563D02*
X1760000Y2029230D01*
X1760000Y2029230D02*
X1756667Y2022563D01*
X1756667Y2022563D02*
X1756667Y2009230D01*
X1756667Y2009230D02*
X1760000Y2002563D01*
X1760000Y2002563D02*
X1763333Y1999230D01*
X1763333Y1999230D02*
X1770000Y1995897D01*
X1770000Y1995897D02*
X1783333Y1995897D01*
X1783333Y1995897D02*
X1790000Y1999230D01*
X1790000Y1999230D02*
X1793333Y2002563D01*
X1793333Y2002563D02*
X1796667Y2009230D01*
X1796667Y2009230D02*
X1796667Y2022563D01*
X1796667Y2022563D02*
X1793333Y2029230D01*
X1793333Y2029230D02*
X1790000Y2032563D01*
X1790000Y2032563D02*
X1783333Y2035897D01*
X1840000Y2065897D02*
X1846667Y2065897D01*
X1846667Y2065897D02*
X1853333Y2062563D01*
X1853333Y2062563D02*
X1856667Y2059230D01*
X1856667Y2059230D02*
X1860000Y2052563D01*
X1860000Y2052563D02*
X1863333Y2039230D01*
X1863333Y2039230D02*
X1863333Y2022563D01*
X1863333Y2022563D02*
X1860000Y2009230D01*
X1860000Y2009230D02*
X1856667Y2002563D01*
X1856667Y2002563D02*
X1853333Y1999230D01*
X1853333Y1999230D02*
X1846667Y1995897D01*
X1846667Y1995897D02*
X1840000Y1995897D01*
X1840000Y1995897D02*
X1833333Y1999230D01*
X1833333Y1999230D02*
X1830000Y2002563D01*
X1830000Y2002563D02*
X1826667Y2009230D01*
X1826667Y2009230D02*
X1823333Y2022563D01*
X1823333Y2022563D02*
X1823333Y2039230D01*
X1823333Y2039230D02*
X1826667Y2052563D01*
X1826667Y2052563D02*
X1830000Y2059230D01*
X1830000Y2059230D02*
X1833333Y2062563D01*
X1833333Y2062563D02*
X1840000Y2065897D01*
X1944937Y1910000D02*
X1948270Y1906667D01*
X1948270Y1906667D02*
X1951603Y1896667D01*
X1951603Y1896667D02*
X1951603Y1890000D01*
X1951603Y1890000D02*
X1948270Y1880000D01*
X1948270Y1880000D02*
X1941603Y1873333D01*
X1941603Y1873333D02*
X1934937Y1870000D01*
X1934937Y1870000D02*
X1921603Y1866667D01*
X1921603Y1866667D02*
X1911603Y1866667D01*
X1911603Y1866667D02*
X1898270Y1870000D01*
X1898270Y1870000D02*
X1891603Y1873333D01*
X1891603Y1873333D02*
X1884937Y1880000D01*
X1884937Y1880000D02*
X1881603Y1890000D01*
X1881603Y1890000D02*
X1881603Y1896667D01*
X1881603Y1896667D02*
X1884937Y1906667D01*
X1884937Y1906667D02*
X1888270Y1910000D01*
X1881603Y1973333D02*
X1881603Y1940000D01*
X1881603Y1940000D02*
X1914937Y1936667D01*
X1914937Y1936667D02*
X1911603Y1940000D01*
X1911603Y1940000D02*
X1908270Y1946667D01*
X1908270Y1946667D02*
X1908270Y1963333D01*
X1908270Y1963333D02*
X1911603Y1970000D01*
X1911603Y1970000D02*
X1914937Y1973333D01*
X1914937Y1973333D02*
X1921603Y1976667D01*
X1921603Y1976667D02*
X1938270Y1976667D01*
X1938270Y1976667D02*
X1944937Y1973333D01*
X1944937Y1973333D02*
X1948270Y1970000D01*
X1948270Y1970000D02*
X1951603Y1963333D01*
X1951603Y1963333D02*
X1951603Y1946667D01*
X1951603Y1946667D02*
X1948270Y1940000D01*
X1948270Y1940000D02*
X1944937Y1936667D01*
X1881603Y2036667D02*
X1881603Y2023333D01*
X1881603Y2023333D02*
X1884937Y2016667D01*
X1884937Y2016667D02*
X1888270Y2013333D01*
X1888270Y2013333D02*
X1898270Y2006667D01*
X1898270Y2006667D02*
X1911603Y2003333D01*
X1911603Y2003333D02*
X1938270Y2003333D01*
X1938270Y2003333D02*
X1944937Y2006667D01*
X1944937Y2006667D02*
X1948270Y2010000D01*
X1948270Y2010000D02*
X1951603Y2016667D01*
X1951603Y2016667D02*
X1951603Y2030000D01*
X1951603Y2030000D02*
X1948270Y2036667D01*
X1948270Y2036667D02*
X1944937Y2040000D01*
X1944937Y2040000D02*
X1938270Y2043333D01*
X1938270Y2043333D02*
X1921603Y2043333D01*
X1921603Y2043333D02*
X1914937Y2040000D01*
X1914937Y2040000D02*
X1911603Y2036667D01*
X1911603Y2036667D02*
X1908270Y2030000D01*
X1908270Y2030000D02*
X1908270Y2016667D01*
X1908270Y2016667D02*
X1911603Y2010000D01*
X1911603Y2010000D02*
X1914937Y2006667D01*
X1914937Y2006667D02*
X1921603Y2003333D01*
X499937Y1910000D02*
X503270Y1906667D01*
X503270Y1906667D02*
X506603Y1896667D01*
X506603Y1896667D02*
X506603Y1890000D01*
X506603Y1890000D02*
X503270Y1880000D01*
X503270Y1880000D02*
X496603Y1873333D01*
X496603Y1873333D02*
X489937Y1870000D01*
X489937Y1870000D02*
X476603Y1866667D01*
X476603Y1866667D02*
X466603Y1866667D01*
X466603Y1866667D02*
X453270Y1870000D01*
X453270Y1870000D02*
X446603Y1873333D01*
X446603Y1873333D02*
X439937Y1880000D01*
X439937Y1880000D02*
X436603Y1890000D01*
X436603Y1890000D02*
X436603Y1896667D01*
X436603Y1896667D02*
X439937Y1906667D01*
X439937Y1906667D02*
X443270Y1910000D01*
X466603Y1950000D02*
X463270Y1943333D01*
X463270Y1943333D02*
X459937Y1940000D01*
X459937Y1940000D02*
X453270Y1936667D01*
X453270Y1936667D02*
X449937Y1936667D01*
X449937Y1936667D02*
X443270Y1940000D01*
X443270Y1940000D02*
X439937Y1943333D01*
X439937Y1943333D02*
X436603Y1950000D01*
X436603Y1950000D02*
X436603Y1963333D01*
X436603Y1963333D02*
X439937Y1970000D01*
X439937Y1970000D02*
X443270Y1973333D01*
X443270Y1973333D02*
X449937Y1976667D01*
X449937Y1976667D02*
X453270Y1976667D01*
X453270Y1976667D02*
X459937Y1973333D01*
X459937Y1973333D02*
X463270Y1970000D01*
X463270Y1970000D02*
X466603Y1963333D01*
X466603Y1963333D02*
X466603Y1950000D01*
X466603Y1950000D02*
X469937Y1943333D01*
X469937Y1943333D02*
X473270Y1940000D01*
X473270Y1940000D02*
X479937Y1936667D01*
X479937Y1936667D02*
X493270Y1936667D01*
X493270Y1936667D02*
X499937Y1940000D01*
X499937Y1940000D02*
X503270Y1943333D01*
X503270Y1943333D02*
X506603Y1950000D01*
X506603Y1950000D02*
X506603Y1963333D01*
X506603Y1963333D02*
X503270Y1970000D01*
X503270Y1970000D02*
X499937Y1973333D01*
X499937Y1973333D02*
X493270Y1976667D01*
X493270Y1976667D02*
X479937Y1976667D01*
X479937Y1976667D02*
X473270Y1973333D01*
X473270Y1973333D02*
X469937Y1970000D01*
X469937Y1970000D02*
X466603Y1963333D01*
X436603Y2040000D02*
X436603Y2006667D01*
X436603Y2006667D02*
X469937Y2003333D01*
X469937Y2003333D02*
X466603Y2006667D01*
X466603Y2006667D02*
X463270Y2013333D01*
X463270Y2013333D02*
X463270Y2030000D01*
X463270Y2030000D02*
X466603Y2036667D01*
X466603Y2036667D02*
X469937Y2040000D01*
X469937Y2040000D02*
X476603Y2043333D01*
X476603Y2043333D02*
X493270Y2043333D01*
X493270Y2043333D02*
X499937Y2040000D01*
X499937Y2040000D02*
X503270Y2036667D01*
X503270Y2036667D02*
X506603Y2030000D01*
X506603Y2030000D02*
X506603Y2013333D01*
X506603Y2013333D02*
X503270Y2006667D01*
X503270Y2006667D02*
X499937Y2003333D01*
X1715000Y1720063D02*
X1711667Y1716730D01*
X1711667Y1716730D02*
X1701667Y1713397D01*
X1701667Y1713397D02*
X1695000Y1713397D01*
X1695000Y1713397D02*
X1685000Y1716730D01*
X1685000Y1716730D02*
X1678333Y1723397D01*
X1678333Y1723397D02*
X1675000Y1730063D01*
X1675000Y1730063D02*
X1671667Y1743397D01*
X1671667Y1743397D02*
X1671667Y1753397D01*
X1671667Y1753397D02*
X1675000Y1766730D01*
X1675000Y1766730D02*
X1678333Y1773397D01*
X1678333Y1773397D02*
X1685000Y1780063D01*
X1685000Y1780063D02*
X1695000Y1783397D01*
X1695000Y1783397D02*
X1701667Y1783397D01*
X1701667Y1783397D02*
X1711667Y1780063D01*
X1711667Y1780063D02*
X1715000Y1776730D01*
X1738333Y1783397D02*
X1785000Y1783397D01*
X1785000Y1783397D02*
X1755000Y1713397D01*
X1821667Y1753397D02*
X1815000Y1756730D01*
X1815000Y1756730D02*
X1811667Y1760063D01*
X1811667Y1760063D02*
X1808333Y1766730D01*
X1808333Y1766730D02*
X1808333Y1770063D01*
X1808333Y1770063D02*
X1811667Y1776730D01*
X1811667Y1776730D02*
X1815000Y1780063D01*
X1815000Y1780063D02*
X1821667Y1783397D01*
X1821667Y1783397D02*
X1835000Y1783397D01*
X1835000Y1783397D02*
X1841667Y1780063D01*
X1841667Y1780063D02*
X1845000Y1776730D01*
X1845000Y1776730D02*
X1848333Y1770063D01*
X1848333Y1770063D02*
X1848333Y1766730D01*
X1848333Y1766730D02*
X1845000Y1760063D01*
X1845000Y1760063D02*
X1841667Y1756730D01*
X1841667Y1756730D02*
X1835000Y1753397D01*
X1835000Y1753397D02*
X1821667Y1753397D01*
X1821667Y1753397D02*
X1815000Y1750063D01*
X1815000Y1750063D02*
X1811667Y1746730D01*
X1811667Y1746730D02*
X1808333Y1740063D01*
X1808333Y1740063D02*
X1808333Y1726730D01*
X1808333Y1726730D02*
X1811667Y1720063D01*
X1811667Y1720063D02*
X1815000Y1716730D01*
X1815000Y1716730D02*
X1821667Y1713397D01*
X1821667Y1713397D02*
X1835000Y1713397D01*
X1835000Y1713397D02*
X1841667Y1716730D01*
X1841667Y1716730D02*
X1845000Y1720063D01*
X1845000Y1720063D02*
X1848333Y1726730D01*
X1848333Y1726730D02*
X1848333Y1740063D01*
X1848333Y1740063D02*
X1845000Y1746730D01*
X1845000Y1746730D02*
X1841667Y1750063D01*
X1841667Y1750063D02*
X1835000Y1753397D01*
X2417603Y31667D02*
X2467603Y31667D01*
X2467603Y31667D02*
X2477603Y28333D01*
X2477603Y28333D02*
X2484270Y21667D01*
X2484270Y21667D02*
X2487603Y11667D01*
X2487603Y11667D02*
X2487603Y5000D01*
X2440937Y95000D02*
X2487603Y95000D01*
X2414270Y78333D02*
X2464270Y61667D01*
X2464270Y61667D02*
X2464270Y105000D01*
X356603Y511667D02*
X406603Y511667D01*
X406603Y511667D02*
X416603Y508333D01*
X416603Y508333D02*
X423270Y501667D01*
X423270Y501667D02*
X426603Y491667D01*
X426603Y491667D02*
X426603Y485000D01*
X426603Y545000D02*
X356603Y545000D01*
X356603Y545000D02*
X356603Y571667D01*
X356603Y571667D02*
X359937Y578333D01*
X359937Y578333D02*
X363270Y581667D01*
X363270Y581667D02*
X369937Y585000D01*
X369937Y585000D02*
X379937Y585000D01*
X379937Y585000D02*
X386603Y581667D01*
X386603Y581667D02*
X389937Y578333D01*
X389937Y578333D02*
X393270Y571667D01*
X393270Y571667D02*
X393270Y545000D01*
X426603Y651667D02*
X426603Y611667D01*
X426603Y631667D02*
X356603Y631667D01*
X356603Y631667D02*
X366603Y625000D01*
X366603Y625000D02*
X373270Y618333D01*
X373270Y618333D02*
X376603Y611667D01*
X793333Y1730063D02*
X790000Y1726730D01*
X790000Y1726730D02*
X780000Y1723397D01*
X780000Y1723397D02*
X773333Y1723397D01*
X773333Y1723397D02*
X763333Y1726730D01*
X763333Y1726730D02*
X756667Y1733397D01*
X756667Y1733397D02*
X753333Y1740063D01*
X753333Y1740063D02*
X750000Y1753397D01*
X750000Y1753397D02*
X750000Y1763397D01*
X750000Y1763397D02*
X753333Y1776730D01*
X753333Y1776730D02*
X756667Y1783397D01*
X756667Y1783397D02*
X763333Y1790063D01*
X763333Y1790063D02*
X773333Y1793397D01*
X773333Y1793397D02*
X780000Y1793397D01*
X780000Y1793397D02*
X790000Y1790063D01*
X790000Y1790063D02*
X793333Y1786730D01*
X820000Y1786730D02*
X823333Y1790063D01*
X823333Y1790063D02*
X830000Y1793397D01*
X830000Y1793397D02*
X846667Y1793397D01*
X846667Y1793397D02*
X853333Y1790063D01*
X853333Y1790063D02*
X856667Y1786730D01*
X856667Y1786730D02*
X860000Y1780063D01*
X860000Y1780063D02*
X860000Y1773397D01*
X860000Y1773397D02*
X856667Y1763397D01*
X856667Y1763397D02*
X816667Y1723397D01*
X816667Y1723397D02*
X860000Y1723397D01*
X1061603Y2274333D02*
X1028270Y2251000D01*
X1061603Y2234333D02*
X991603Y2234333D01*
X991603Y2234333D02*
X991603Y2261000D01*
X991603Y2261000D02*
X994937Y2267667D01*
X994937Y2267667D02*
X998270Y2271000D01*
X998270Y2271000D02*
X1004937Y2274333D01*
X1004937Y2274333D02*
X1014937Y2274333D01*
X1014937Y2274333D02*
X1021603Y2271000D01*
X1021603Y2271000D02*
X1024937Y2267667D01*
X1024937Y2267667D02*
X1028270Y2261000D01*
X1028270Y2261000D02*
X1028270Y2234333D01*
X1061603Y2341000D02*
X1061603Y2301000D01*
X1061603Y2321000D02*
X991603Y2321000D01*
X991603Y2321000D02*
X1001603Y2314333D01*
X1001603Y2314333D02*
X1008270Y2307667D01*
X1008270Y2307667D02*
X1011603Y2301000D01*
X1910000Y1720063D02*
X1906667Y1716730D01*
X1906667Y1716730D02*
X1896667Y1713397D01*
X1896667Y1713397D02*
X1890000Y1713397D01*
X1890000Y1713397D02*
X1880000Y1716730D01*
X1880000Y1716730D02*
X1873333Y1723397D01*
X1873333Y1723397D02*
X1870000Y1730063D01*
X1870000Y1730063D02*
X1866667Y1743397D01*
X1866667Y1743397D02*
X1866667Y1753397D01*
X1866667Y1753397D02*
X1870000Y1766730D01*
X1870000Y1766730D02*
X1873333Y1773397D01*
X1873333Y1773397D02*
X1880000Y1780063D01*
X1880000Y1780063D02*
X1890000Y1783397D01*
X1890000Y1783397D02*
X1896667Y1783397D01*
X1896667Y1783397D02*
X1906667Y1780063D01*
X1906667Y1780063D02*
X1910000Y1776730D01*
X1973333Y1783397D02*
X1940000Y1783397D01*
X1940000Y1783397D02*
X1936667Y1750063D01*
X1936667Y1750063D02*
X1940000Y1753397D01*
X1940000Y1753397D02*
X1946667Y1756730D01*
X1946667Y1756730D02*
X1963333Y1756730D01*
X1963333Y1756730D02*
X1970000Y1753397D01*
X1970000Y1753397D02*
X1973333Y1750063D01*
X1973333Y1750063D02*
X1976667Y1743397D01*
X1976667Y1743397D02*
X1976667Y1726730D01*
X1976667Y1726730D02*
X1973333Y1720063D01*
X1973333Y1720063D02*
X1970000Y1716730D01*
X1970000Y1716730D02*
X1963333Y1713397D01*
X1963333Y1713397D02*
X1946667Y1713397D01*
X1946667Y1713397D02*
X1940000Y1716730D01*
X1940000Y1716730D02*
X1936667Y1720063D01*
X2010000Y1713397D02*
X2023333Y1713397D01*
X2023333Y1713397D02*
X2030000Y1716730D01*
X2030000Y1716730D02*
X2033333Y1720063D01*
X2033333Y1720063D02*
X2040000Y1730063D01*
X2040000Y1730063D02*
X2043333Y1743397D01*
X2043333Y1743397D02*
X2043333Y1770063D01*
X2043333Y1770063D02*
X2040000Y1776730D01*
X2040000Y1776730D02*
X2036667Y1780063D01*
X2036667Y1780063D02*
X2030000Y1783397D01*
X2030000Y1783397D02*
X2016667Y1783397D01*
X2016667Y1783397D02*
X2010000Y1780063D01*
X2010000Y1780063D02*
X2006667Y1776730D01*
X2006667Y1776730D02*
X2003333Y1770063D01*
X2003333Y1770063D02*
X2003333Y1753397D01*
X2003333Y1753397D02*
X2006667Y1746730D01*
X2006667Y1746730D02*
X2010000Y1743397D01*
X2010000Y1743397D02*
X2016667Y1740063D01*
X2016667Y1740063D02*
X2030000Y1740063D01*
X2030000Y1740063D02*
X2036667Y1743397D01*
X2036667Y1743397D02*
X2040000Y1746730D01*
X2040000Y1746730D02*
X2043333Y1753397D01*
X2106603Y155000D02*
X2073270Y131667D01*
X2106603Y115000D02*
X2036603Y115000D01*
X2036603Y115000D02*
X2036603Y141667D01*
X2036603Y141667D02*
X2039937Y148333D01*
X2039937Y148333D02*
X2043270Y151667D01*
X2043270Y151667D02*
X2049937Y155000D01*
X2049937Y155000D02*
X2059937Y155000D01*
X2059937Y155000D02*
X2066603Y151667D01*
X2066603Y151667D02*
X2069937Y148333D01*
X2069937Y148333D02*
X2073270Y141667D01*
X2073270Y141667D02*
X2073270Y115000D01*
X2043270Y181667D02*
X2039937Y185000D01*
X2039937Y185000D02*
X2036603Y191667D01*
X2036603Y191667D02*
X2036603Y208333D01*
X2036603Y208333D02*
X2039937Y215000D01*
X2039937Y215000D02*
X2043270Y218333D01*
X2043270Y218333D02*
X2049937Y221667D01*
X2049937Y221667D02*
X2056603Y221667D01*
X2056603Y221667D02*
X2066603Y218333D01*
X2066603Y218333D02*
X2106603Y178333D01*
X2106603Y178333D02*
X2106603Y221667D01*
X2036603Y245000D02*
X2036603Y288333D01*
X2036603Y288333D02*
X2063270Y265000D01*
X2063270Y265000D02*
X2063270Y275000D01*
X2063270Y275000D02*
X2066603Y281667D01*
X2066603Y281667D02*
X2069937Y285000D01*
X2069937Y285000D02*
X2076603Y288333D01*
X2076603Y288333D02*
X2093270Y288333D01*
X2093270Y288333D02*
X2099937Y285000D01*
X2099937Y285000D02*
X2103270Y281667D01*
X2103270Y281667D02*
X2106603Y275000D01*
X2106603Y275000D02*
X2106603Y255000D01*
X2106603Y255000D02*
X2103270Y248333D01*
X2103270Y248333D02*
X2099937Y245000D01*
X2036603Y1296667D02*
X2086603Y1296667D01*
X2086603Y1296667D02*
X2096603Y1293333D01*
X2096603Y1293333D02*
X2103270Y1286667D01*
X2103270Y1286667D02*
X2106603Y1276667D01*
X2106603Y1276667D02*
X2106603Y1270000D01*
X2036603Y1323333D02*
X2036603Y1366667D01*
X2036603Y1366667D02*
X2063270Y1343333D01*
X2063270Y1343333D02*
X2063270Y1353333D01*
X2063270Y1353333D02*
X2066603Y1360000D01*
X2066603Y1360000D02*
X2069937Y1363333D01*
X2069937Y1363333D02*
X2076603Y1366667D01*
X2076603Y1366667D02*
X2093270Y1366667D01*
X2093270Y1366667D02*
X2099937Y1363333D01*
X2099937Y1363333D02*
X2103270Y1360000D01*
X2103270Y1360000D02*
X2106603Y1353333D01*
X2106603Y1353333D02*
X2106603Y1333333D01*
X2106603Y1333333D02*
X2103270Y1326667D01*
X2103270Y1326667D02*
X2099937Y1323333D01*
X918333Y93397D02*
X895000Y126730D01*
X878333Y93397D02*
X878333Y163397D01*
X878333Y163397D02*
X905000Y163397D01*
X905000Y163397D02*
X911667Y160063D01*
X911667Y160063D02*
X915000Y156730D01*
X915000Y156730D02*
X918333Y150063D01*
X918333Y150063D02*
X918333Y140063D01*
X918333Y140063D02*
X915000Y133397D01*
X915000Y133397D02*
X911667Y130063D01*
X911667Y130063D02*
X905000Y126730D01*
X905000Y126730D02*
X878333Y126730D01*
X958333Y133397D02*
X951667Y136730D01*
X951667Y136730D02*
X948333Y140063D01*
X948333Y140063D02*
X945000Y146730D01*
X945000Y146730D02*
X945000Y150063D01*
X945000Y150063D02*
X948333Y156730D01*
X948333Y156730D02*
X951667Y160063D01*
X951667Y160063D02*
X958333Y163397D01*
X958333Y163397D02*
X971667Y163397D01*
X971667Y163397D02*
X978333Y160063D01*
X978333Y160063D02*
X981667Y156730D01*
X981667Y156730D02*
X985000Y150063D01*
X985000Y150063D02*
X985000Y146730D01*
X985000Y146730D02*
X981667Y140063D01*
X981667Y140063D02*
X978333Y136730D01*
X978333Y136730D02*
X971667Y133397D01*
X971667Y133397D02*
X958333Y133397D01*
X958333Y133397D02*
X951667Y130063D01*
X951667Y130063D02*
X948333Y126730D01*
X948333Y126730D02*
X945000Y120063D01*
X945000Y120063D02*
X945000Y106730D01*
X945000Y106730D02*
X948333Y100063D01*
X948333Y100063D02*
X951667Y96730D01*
X951667Y96730D02*
X958333Y93397D01*
X958333Y93397D02*
X971667Y93397D01*
X971667Y93397D02*
X978333Y96730D01*
X978333Y96730D02*
X981667Y100063D01*
X981667Y100063D02*
X985000Y106730D01*
X985000Y106730D02*
X985000Y120063D01*
X985000Y120063D02*
X981667Y126730D01*
X981667Y126730D02*
X978333Y130063D01*
X978333Y130063D02*
X971667Y133397D01*
X2311667Y1771730D02*
X2311667Y1738397D01*
X2288333Y1808397D02*
X2311667Y1771730D01*
X2311667Y1771730D02*
X2335000Y1808397D01*
X2355000Y1801730D02*
X2358333Y1805063D01*
X2358333Y1805063D02*
X2365000Y1808397D01*
X2365000Y1808397D02*
X2381667Y1808397D01*
X2381667Y1808397D02*
X2388333Y1805063D01*
X2388333Y1805063D02*
X2391667Y1801730D01*
X2391667Y1801730D02*
X2395000Y1795063D01*
X2395000Y1795063D02*
X2395000Y1788397D01*
X2395000Y1788397D02*
X2391667Y1778397D01*
X2391667Y1778397D02*
X2351667Y1738397D01*
X2351667Y1738397D02*
X2395000Y1738397D01*
X433000Y1722397D02*
X409667Y1755730D01*
X393000Y1722397D02*
X393000Y1792397D01*
X393000Y1792397D02*
X419667Y1792397D01*
X419667Y1792397D02*
X426333Y1789063D01*
X426333Y1789063D02*
X429667Y1785730D01*
X429667Y1785730D02*
X433000Y1779063D01*
X433000Y1779063D02*
X433000Y1769063D01*
X433000Y1769063D02*
X429667Y1762397D01*
X429667Y1762397D02*
X426333Y1759063D01*
X426333Y1759063D02*
X419667Y1755730D01*
X419667Y1755730D02*
X393000Y1755730D01*
X456333Y1792397D02*
X499667Y1792397D01*
X499667Y1792397D02*
X476333Y1765730D01*
X476333Y1765730D02*
X486333Y1765730D01*
X486333Y1765730D02*
X493000Y1762397D01*
X493000Y1762397D02*
X496333Y1759063D01*
X496333Y1759063D02*
X499667Y1752397D01*
X499667Y1752397D02*
X499667Y1735730D01*
X499667Y1735730D02*
X496333Y1729063D01*
X496333Y1729063D02*
X493000Y1725730D01*
X493000Y1725730D02*
X486333Y1722397D01*
X486333Y1722397D02*
X466333Y1722397D01*
X466333Y1722397D02*
X459667Y1725730D01*
X459667Y1725730D02*
X456333Y1729063D01*
X523000Y1792397D02*
X566333Y1792397D01*
X566333Y1792397D02*
X543000Y1765730D01*
X543000Y1765730D02*
X553000Y1765730D01*
X553000Y1765730D02*
X559667Y1762397D01*
X559667Y1762397D02*
X563000Y1759063D01*
X563000Y1759063D02*
X566333Y1752397D01*
X566333Y1752397D02*
X566333Y1735730D01*
X566333Y1735730D02*
X563000Y1729063D01*
X563000Y1729063D02*
X559667Y1725730D01*
X559667Y1725730D02*
X553000Y1722397D01*
X553000Y1722397D02*
X533000Y1722397D01*
X533000Y1722397D02*
X526333Y1725730D01*
X526333Y1725730D02*
X523000Y1729063D01*
X422437Y1260000D02*
X425770Y1256667D01*
X425770Y1256667D02*
X429103Y1246667D01*
X429103Y1246667D02*
X429103Y1240000D01*
X429103Y1240000D02*
X425770Y1230000D01*
X425770Y1230000D02*
X419103Y1223333D01*
X419103Y1223333D02*
X412437Y1220000D01*
X412437Y1220000D02*
X399103Y1216667D01*
X399103Y1216667D02*
X389103Y1216667D01*
X389103Y1216667D02*
X375770Y1220000D01*
X375770Y1220000D02*
X369103Y1223333D01*
X369103Y1223333D02*
X362437Y1230000D01*
X362437Y1230000D02*
X359103Y1240000D01*
X359103Y1240000D02*
X359103Y1246667D01*
X359103Y1246667D02*
X362437Y1256667D01*
X362437Y1256667D02*
X365770Y1260000D01*
X429103Y1326667D02*
X429103Y1286667D01*
X429103Y1306667D02*
X359103Y1306667D01*
X359103Y1306667D02*
X369103Y1300000D01*
X369103Y1300000D02*
X375770Y1293333D01*
X375770Y1293333D02*
X379103Y1286667D01*
X359103Y1370000D02*
X359103Y1376667D01*
X359103Y1376667D02*
X362437Y1383333D01*
X362437Y1383333D02*
X365770Y1386667D01*
X365770Y1386667D02*
X372437Y1390000D01*
X372437Y1390000D02*
X385770Y1393333D01*
X385770Y1393333D02*
X402437Y1393333D01*
X402437Y1393333D02*
X415770Y1390000D01*
X415770Y1390000D02*
X422437Y1386667D01*
X422437Y1386667D02*
X425770Y1383333D01*
X425770Y1383333D02*
X429103Y1376667D01*
X429103Y1376667D02*
X429103Y1370000D01*
X429103Y1370000D02*
X425770Y1363333D01*
X425770Y1363333D02*
X422437Y1360000D01*
X422437Y1360000D02*
X415770Y1356667D01*
X415770Y1356667D02*
X402437Y1353333D01*
X402437Y1353333D02*
X385770Y1353333D01*
X385770Y1353333D02*
X372437Y1356667D01*
X372437Y1356667D02*
X365770Y1360000D01*
X365770Y1360000D02*
X362437Y1363333D01*
X362437Y1363333D02*
X359103Y1370000D01*
X2286603Y2306667D02*
X2343270Y2306667D01*
X2343270Y2306667D02*
X2349937Y2310000D01*
X2349937Y2310000D02*
X2353270Y2313333D01*
X2353270Y2313333D02*
X2356603Y2320000D01*
X2356603Y2320000D02*
X2356603Y2333333D01*
X2356603Y2333333D02*
X2353270Y2340000D01*
X2353270Y2340000D02*
X2349937Y2343333D01*
X2349937Y2343333D02*
X2343270Y2346667D01*
X2343270Y2346667D02*
X2286603Y2346667D01*
X2286603Y2373333D02*
X2286603Y2416667D01*
X2286603Y2416667D02*
X2313270Y2393333D01*
X2313270Y2393333D02*
X2313270Y2403333D01*
X2313270Y2403333D02*
X2316603Y2410000D01*
X2316603Y2410000D02*
X2319937Y2413333D01*
X2319937Y2413333D02*
X2326603Y2416667D01*
X2326603Y2416667D02*
X2343270Y2416667D01*
X2343270Y2416667D02*
X2349937Y2413333D01*
X2349937Y2413333D02*
X2353270Y2410000D01*
X2353270Y2410000D02*
X2356603Y2403333D01*
X2356603Y2403333D02*
X2356603Y2383333D01*
X2356603Y2383333D02*
X2353270Y2376667D01*
X2353270Y2376667D02*
X2349937Y2373333D01*
X1441603Y1925000D02*
X1408270Y1901667D01*
X1441603Y1885000D02*
X1371603Y1885000D01*
X1371603Y1885000D02*
X1371603Y1911667D01*
X1371603Y1911667D02*
X1374937Y1918333D01*
X1374937Y1918333D02*
X1378270Y1921667D01*
X1378270Y1921667D02*
X1384937Y1925000D01*
X1384937Y1925000D02*
X1394937Y1925000D01*
X1394937Y1925000D02*
X1401603Y1921667D01*
X1401603Y1921667D02*
X1404937Y1918333D01*
X1404937Y1918333D02*
X1408270Y1911667D01*
X1408270Y1911667D02*
X1408270Y1885000D01*
X1441603Y1991667D02*
X1441603Y1951667D01*
X1441603Y1971667D02*
X1371603Y1971667D01*
X1371603Y1971667D02*
X1381603Y1965000D01*
X1381603Y1965000D02*
X1388270Y1958333D01*
X1388270Y1958333D02*
X1391603Y1951667D01*
X1401603Y2031667D02*
X1398270Y2025000D01*
X1398270Y2025000D02*
X1394937Y2021667D01*
X1394937Y2021667D02*
X1388270Y2018333D01*
X1388270Y2018333D02*
X1384937Y2018333D01*
X1384937Y2018333D02*
X1378270Y2021667D01*
X1378270Y2021667D02*
X1374937Y2025000D01*
X1374937Y2025000D02*
X1371603Y2031667D01*
X1371603Y2031667D02*
X1371603Y2045000D01*
X1371603Y2045000D02*
X1374937Y2051667D01*
X1374937Y2051667D02*
X1378270Y2055000D01*
X1378270Y2055000D02*
X1384937Y2058333D01*
X1384937Y2058333D02*
X1388270Y2058333D01*
X1388270Y2058333D02*
X1394937Y2055000D01*
X1394937Y2055000D02*
X1398270Y2051667D01*
X1398270Y2051667D02*
X1401603Y2045000D01*
X1401603Y2045000D02*
X1401603Y2031667D01*
X1401603Y2031667D02*
X1404937Y2025000D01*
X1404937Y2025000D02*
X1408270Y2021667D01*
X1408270Y2021667D02*
X1414937Y2018333D01*
X1414937Y2018333D02*
X1428270Y2018333D01*
X1428270Y2018333D02*
X1434937Y2021667D01*
X1434937Y2021667D02*
X1438270Y2025000D01*
X1438270Y2025000D02*
X1441603Y2031667D01*
X1441603Y2031667D02*
X1441603Y2045000D01*
X1441603Y2045000D02*
X1438270Y2051667D01*
X1438270Y2051667D02*
X1434937Y2055000D01*
X1434937Y2055000D02*
X1428270Y2058333D01*
X1428270Y2058333D02*
X1414937Y2058333D01*
X1414937Y2058333D02*
X1408270Y2055000D01*
X1408270Y2055000D02*
X1404937Y2051667D01*
X1404937Y2051667D02*
X1401603Y2045000D01*
X1465000Y1770063D02*
X1461667Y1766730D01*
X1461667Y1766730D02*
X1451667Y1763397D01*
X1451667Y1763397D02*
X1445000Y1763397D01*
X1445000Y1763397D02*
X1435000Y1766730D01*
X1435000Y1766730D02*
X1428333Y1773397D01*
X1428333Y1773397D02*
X1425000Y1780063D01*
X1425000Y1780063D02*
X1421667Y1793397D01*
X1421667Y1793397D02*
X1421667Y1803397D01*
X1421667Y1803397D02*
X1425000Y1816730D01*
X1425000Y1816730D02*
X1428333Y1823397D01*
X1428333Y1823397D02*
X1435000Y1830063D01*
X1435000Y1830063D02*
X1445000Y1833397D01*
X1445000Y1833397D02*
X1451667Y1833397D01*
X1451667Y1833397D02*
X1461667Y1830063D01*
X1461667Y1830063D02*
X1465000Y1826730D01*
X1505000Y1803397D02*
X1498333Y1806730D01*
X1498333Y1806730D02*
X1495000Y1810063D01*
X1495000Y1810063D02*
X1491667Y1816730D01*
X1491667Y1816730D02*
X1491667Y1820063D01*
X1491667Y1820063D02*
X1495000Y1826730D01*
X1495000Y1826730D02*
X1498333Y1830063D01*
X1498333Y1830063D02*
X1505000Y1833397D01*
X1505000Y1833397D02*
X1518333Y1833397D01*
X1518333Y1833397D02*
X1525000Y1830063D01*
X1525000Y1830063D02*
X1528333Y1826730D01*
X1528333Y1826730D02*
X1531667Y1820063D01*
X1531667Y1820063D02*
X1531667Y1816730D01*
X1531667Y1816730D02*
X1528333Y1810063D01*
X1528333Y1810063D02*
X1525000Y1806730D01*
X1525000Y1806730D02*
X1518333Y1803397D01*
X1518333Y1803397D02*
X1505000Y1803397D01*
X1505000Y1803397D02*
X1498333Y1800063D01*
X1498333Y1800063D02*
X1495000Y1796730D01*
X1495000Y1796730D02*
X1491667Y1790063D01*
X1491667Y1790063D02*
X1491667Y1776730D01*
X1491667Y1776730D02*
X1495000Y1770063D01*
X1495000Y1770063D02*
X1498333Y1766730D01*
X1498333Y1766730D02*
X1505000Y1763397D01*
X1505000Y1763397D02*
X1518333Y1763397D01*
X1518333Y1763397D02*
X1525000Y1766730D01*
X1525000Y1766730D02*
X1528333Y1770063D01*
X1528333Y1770063D02*
X1531667Y1776730D01*
X1531667Y1776730D02*
X1531667Y1790063D01*
X1531667Y1790063D02*
X1528333Y1796730D01*
X1528333Y1796730D02*
X1525000Y1800063D01*
X1525000Y1800063D02*
X1518333Y1803397D01*
X1598333Y1763397D02*
X1558333Y1763397D01*
X1578333Y1763397D02*
X1578333Y1833397D01*
X1578333Y1833397D02*
X1571667Y1823397D01*
X1571667Y1823397D02*
X1565000Y1816730D01*
X1565000Y1816730D02*
X1558333Y1813397D01*
X2011603Y561667D02*
X2068270Y561667D01*
X2068270Y561667D02*
X2074937Y565000D01*
X2074937Y565000D02*
X2078270Y568333D01*
X2078270Y568333D02*
X2081603Y575000D01*
X2081603Y575000D02*
X2081603Y588333D01*
X2081603Y588333D02*
X2078270Y595000D01*
X2078270Y595000D02*
X2074937Y598333D01*
X2074937Y598333D02*
X2068270Y601667D01*
X2068270Y601667D02*
X2011603Y601667D01*
X2018270Y631667D02*
X2014937Y635000D01*
X2014937Y635000D02*
X2011603Y641667D01*
X2011603Y641667D02*
X2011603Y658333D01*
X2011603Y658333D02*
X2014937Y665000D01*
X2014937Y665000D02*
X2018270Y668333D01*
X2018270Y668333D02*
X2024937Y671667D01*
X2024937Y671667D02*
X2031603Y671667D01*
X2031603Y671667D02*
X2041603Y668333D01*
X2041603Y668333D02*
X2081603Y628333D01*
X2081603Y628333D02*
X2081603Y671667D01*
X1649937Y2120000D02*
X1653270Y2116667D01*
X1653270Y2116667D02*
X1656603Y2106667D01*
X1656603Y2106667D02*
X1656603Y2100000D01*
X1656603Y2100000D02*
X1653270Y2090000D01*
X1653270Y2090000D02*
X1646603Y2083333D01*
X1646603Y2083333D02*
X1639937Y2080000D01*
X1639937Y2080000D02*
X1626603Y2076667D01*
X1626603Y2076667D02*
X1616603Y2076667D01*
X1616603Y2076667D02*
X1603270Y2080000D01*
X1603270Y2080000D02*
X1596603Y2083333D01*
X1596603Y2083333D02*
X1589937Y2090000D01*
X1589937Y2090000D02*
X1586603Y2100000D01*
X1586603Y2100000D02*
X1586603Y2106667D01*
X1586603Y2106667D02*
X1589937Y2116667D01*
X1589937Y2116667D02*
X1593270Y2120000D01*
X1586603Y2183333D02*
X1586603Y2150000D01*
X1586603Y2150000D02*
X1619937Y2146667D01*
X1619937Y2146667D02*
X1616603Y2150000D01*
X1616603Y2150000D02*
X1613270Y2156667D01*
X1613270Y2156667D02*
X1613270Y2173333D01*
X1613270Y2173333D02*
X1616603Y2180000D01*
X1616603Y2180000D02*
X1619937Y2183333D01*
X1619937Y2183333D02*
X1626603Y2186667D01*
X1626603Y2186667D02*
X1643270Y2186667D01*
X1643270Y2186667D02*
X1649937Y2183333D01*
X1649937Y2183333D02*
X1653270Y2180000D01*
X1653270Y2180000D02*
X1656603Y2173333D01*
X1656603Y2173333D02*
X1656603Y2156667D01*
X1656603Y2156667D02*
X1653270Y2150000D01*
X1653270Y2150000D02*
X1649937Y2146667D01*
X1609937Y2246667D02*
X1656603Y2246667D01*
X1583270Y2230000D02*
X1633270Y2213333D01*
X1633270Y2213333D02*
X1633270Y2256667D01*
X146667Y2018397D02*
X146667Y1961730D01*
X146667Y1961730D02*
X150000Y1955063D01*
X150000Y1955063D02*
X153333Y1951730D01*
X153333Y1951730D02*
X160000Y1948397D01*
X160000Y1948397D02*
X173333Y1948397D01*
X173333Y1948397D02*
X180000Y1951730D01*
X180000Y1951730D02*
X183333Y1955063D01*
X183333Y1955063D02*
X186667Y1961730D01*
X186667Y1961730D02*
X186667Y2018397D01*
X213333Y2018397D02*
X260000Y2018397D01*
X260000Y2018397D02*
X230000Y1948397D01*
X1455000Y2385063D02*
X1451667Y2381730D01*
X1451667Y2381730D02*
X1441667Y2378397D01*
X1441667Y2378397D02*
X1435000Y2378397D01*
X1435000Y2378397D02*
X1425000Y2381730D01*
X1425000Y2381730D02*
X1418333Y2388397D01*
X1418333Y2388397D02*
X1415000Y2395063D01*
X1415000Y2395063D02*
X1411667Y2408397D01*
X1411667Y2408397D02*
X1411667Y2418397D01*
X1411667Y2418397D02*
X1415000Y2431730D01*
X1415000Y2431730D02*
X1418333Y2438397D01*
X1418333Y2438397D02*
X1425000Y2445063D01*
X1425000Y2445063D02*
X1435000Y2448397D01*
X1435000Y2448397D02*
X1441667Y2448397D01*
X1441667Y2448397D02*
X1451667Y2445063D01*
X1451667Y2445063D02*
X1455000Y2441730D01*
X1515000Y2448397D02*
X1501667Y2448397D01*
X1501667Y2448397D02*
X1495000Y2445063D01*
X1495000Y2445063D02*
X1491667Y2441730D01*
X1491667Y2441730D02*
X1485000Y2431730D01*
X1485000Y2431730D02*
X1481667Y2418397D01*
X1481667Y2418397D02*
X1481667Y2391730D01*
X1481667Y2391730D02*
X1485000Y2385063D01*
X1485000Y2385063D02*
X1488333Y2381730D01*
X1488333Y2381730D02*
X1495000Y2378397D01*
X1495000Y2378397D02*
X1508333Y2378397D01*
X1508333Y2378397D02*
X1515000Y2381730D01*
X1515000Y2381730D02*
X1518333Y2385063D01*
X1518333Y2385063D02*
X1521667Y2391730D01*
X1521667Y2391730D02*
X1521667Y2408397D01*
X1521667Y2408397D02*
X1518333Y2415063D01*
X1518333Y2415063D02*
X1515000Y2418397D01*
X1515000Y2418397D02*
X1508333Y2421730D01*
X1508333Y2421730D02*
X1495000Y2421730D01*
X1495000Y2421730D02*
X1488333Y2418397D01*
X1488333Y2418397D02*
X1485000Y2415063D01*
X1485000Y2415063D02*
X1481667Y2408397D01*
X1548333Y2441730D02*
X1551667Y2445063D01*
X1551667Y2445063D02*
X1558333Y2448397D01*
X1558333Y2448397D02*
X1575000Y2448397D01*
X1575000Y2448397D02*
X1581667Y2445063D01*
X1581667Y2445063D02*
X1585000Y2441730D01*
X1585000Y2441730D02*
X1588333Y2435063D01*
X1588333Y2435063D02*
X1588333Y2428397D01*
X1588333Y2428397D02*
X1585000Y2418397D01*
X1585000Y2418397D02*
X1545000Y2378397D01*
X1545000Y2378397D02*
X1588333Y2378397D01*
X632333Y2215063D02*
X629000Y2211730D01*
X629000Y2211730D02*
X619000Y2208397D01*
X619000Y2208397D02*
X612333Y2208397D01*
X612333Y2208397D02*
X602333Y2211730D01*
X602333Y2211730D02*
X595667Y2218397D01*
X595667Y2218397D02*
X592333Y2225063D01*
X592333Y2225063D02*
X589000Y2238397D01*
X589000Y2238397D02*
X589000Y2248397D01*
X589000Y2248397D02*
X592333Y2261730D01*
X592333Y2261730D02*
X595667Y2268397D01*
X595667Y2268397D02*
X602333Y2275063D01*
X602333Y2275063D02*
X612333Y2278397D01*
X612333Y2278397D02*
X619000Y2278397D01*
X619000Y2278397D02*
X629000Y2275063D01*
X629000Y2275063D02*
X632333Y2271730D01*
X699000Y2208397D02*
X659000Y2208397D01*
X679000Y2208397D02*
X679000Y2278397D01*
X679000Y2278397D02*
X672333Y2268397D01*
X672333Y2268397D02*
X665667Y2261730D01*
X665667Y2261730D02*
X659000Y2258397D01*
X1700000Y2180063D02*
X1696667Y2176730D01*
X1696667Y2176730D02*
X1686667Y2173397D01*
X1686667Y2173397D02*
X1680000Y2173397D01*
X1680000Y2173397D02*
X1670000Y2176730D01*
X1670000Y2176730D02*
X1663333Y2183397D01*
X1663333Y2183397D02*
X1660000Y2190063D01*
X1660000Y2190063D02*
X1656667Y2203397D01*
X1656667Y2203397D02*
X1656667Y2213397D01*
X1656667Y2213397D02*
X1660000Y2226730D01*
X1660000Y2226730D02*
X1663333Y2233397D01*
X1663333Y2233397D02*
X1670000Y2240063D01*
X1670000Y2240063D02*
X1680000Y2243397D01*
X1680000Y2243397D02*
X1686667Y2243397D01*
X1686667Y2243397D02*
X1696667Y2240063D01*
X1696667Y2240063D02*
X1700000Y2236730D01*
X1763333Y2243397D02*
X1730000Y2243397D01*
X1730000Y2243397D02*
X1726667Y2210063D01*
X1726667Y2210063D02*
X1730000Y2213397D01*
X1730000Y2213397D02*
X1736667Y2216730D01*
X1736667Y2216730D02*
X1753333Y2216730D01*
X1753333Y2216730D02*
X1760000Y2213397D01*
X1760000Y2213397D02*
X1763333Y2210063D01*
X1763333Y2210063D02*
X1766667Y2203397D01*
X1766667Y2203397D02*
X1766667Y2186730D01*
X1766667Y2186730D02*
X1763333Y2180063D01*
X1763333Y2180063D02*
X1760000Y2176730D01*
X1760000Y2176730D02*
X1753333Y2173397D01*
X1753333Y2173397D02*
X1736667Y2173397D01*
X1736667Y2173397D02*
X1730000Y2176730D01*
X1730000Y2176730D02*
X1726667Y2180063D01*
X1806667Y2213397D02*
X1800000Y2216730D01*
X1800000Y2216730D02*
X1796667Y2220063D01*
X1796667Y2220063D02*
X1793333Y2226730D01*
X1793333Y2226730D02*
X1793333Y2230063D01*
X1793333Y2230063D02*
X1796667Y2236730D01*
X1796667Y2236730D02*
X1800000Y2240063D01*
X1800000Y2240063D02*
X1806667Y2243397D01*
X1806667Y2243397D02*
X1820000Y2243397D01*
X1820000Y2243397D02*
X1826667Y2240063D01*
X1826667Y2240063D02*
X1830000Y2236730D01*
X1830000Y2236730D02*
X1833333Y2230063D01*
X1833333Y2230063D02*
X1833333Y2226730D01*
X1833333Y2226730D02*
X1830000Y2220063D01*
X1830000Y2220063D02*
X1826667Y2216730D01*
X1826667Y2216730D02*
X1820000Y2213397D01*
X1820000Y2213397D02*
X1806667Y2213397D01*
X1806667Y2213397D02*
X1800000Y2210063D01*
X1800000Y2210063D02*
X1796667Y2206730D01*
X1796667Y2206730D02*
X1793333Y2200063D01*
X1793333Y2200063D02*
X1793333Y2186730D01*
X1793333Y2186730D02*
X1796667Y2180063D01*
X1796667Y2180063D02*
X1800000Y2176730D01*
X1800000Y2176730D02*
X1806667Y2173397D01*
X1806667Y2173397D02*
X1820000Y2173397D01*
X1820000Y2173397D02*
X1826667Y2176730D01*
X1826667Y2176730D02*
X1830000Y2180063D01*
X1830000Y2180063D02*
X1833333Y2186730D01*
X1833333Y2186730D02*
X1833333Y2200063D01*
X1833333Y2200063D02*
X1830000Y2206730D01*
X1830000Y2206730D02*
X1826667Y2210063D01*
X1826667Y2210063D02*
X1820000Y2213397D01*
X1745937Y1871000D02*
X1749270Y1867667D01*
X1749270Y1867667D02*
X1752603Y1857667D01*
X1752603Y1857667D02*
X1752603Y1851000D01*
X1752603Y1851000D02*
X1749270Y1841000D01*
X1749270Y1841000D02*
X1742603Y1834333D01*
X1742603Y1834333D02*
X1735937Y1831000D01*
X1735937Y1831000D02*
X1722603Y1827667D01*
X1722603Y1827667D02*
X1712603Y1827667D01*
X1712603Y1827667D02*
X1699270Y1831000D01*
X1699270Y1831000D02*
X1692603Y1834333D01*
X1692603Y1834333D02*
X1685937Y1841000D01*
X1685937Y1841000D02*
X1682603Y1851000D01*
X1682603Y1851000D02*
X1682603Y1857667D01*
X1682603Y1857667D02*
X1685937Y1867667D01*
X1685937Y1867667D02*
X1689270Y1871000D01*
X1682603Y1934333D02*
X1682603Y1901000D01*
X1682603Y1901000D02*
X1715937Y1897667D01*
X1715937Y1897667D02*
X1712603Y1901000D01*
X1712603Y1901000D02*
X1709270Y1907667D01*
X1709270Y1907667D02*
X1709270Y1924333D01*
X1709270Y1924333D02*
X1712603Y1931000D01*
X1712603Y1931000D02*
X1715937Y1934333D01*
X1715937Y1934333D02*
X1722603Y1937667D01*
X1722603Y1937667D02*
X1739270Y1937667D01*
X1739270Y1937667D02*
X1745937Y1934333D01*
X1745937Y1934333D02*
X1749270Y1931000D01*
X1749270Y1931000D02*
X1752603Y1924333D01*
X1752603Y1924333D02*
X1752603Y1907667D01*
X1752603Y1907667D02*
X1749270Y1901000D01*
X1749270Y1901000D02*
X1745937Y1897667D01*
X1682603Y2001000D02*
X1682603Y1967667D01*
X1682603Y1967667D02*
X1715937Y1964333D01*
X1715937Y1964333D02*
X1712603Y1967667D01*
X1712603Y1967667D02*
X1709270Y1974333D01*
X1709270Y1974333D02*
X1709270Y1991000D01*
X1709270Y1991000D02*
X1712603Y1997667D01*
X1712603Y1997667D02*
X1715937Y2001000D01*
X1715937Y2001000D02*
X1722603Y2004333D01*
X1722603Y2004333D02*
X1739270Y2004333D01*
X1739270Y2004333D02*
X1745937Y2001000D01*
X1745937Y2001000D02*
X1749270Y1997667D01*
X1749270Y1997667D02*
X1752603Y1991000D01*
X1752603Y1991000D02*
X1752603Y1974333D01*
X1752603Y1974333D02*
X1749270Y1967667D01*
X1749270Y1967667D02*
X1745937Y1964333D01*
X1905000Y2200063D02*
X1901667Y2196730D01*
X1901667Y2196730D02*
X1891667Y2193397D01*
X1891667Y2193397D02*
X1885000Y2193397D01*
X1885000Y2193397D02*
X1875000Y2196730D01*
X1875000Y2196730D02*
X1868333Y2203397D01*
X1868333Y2203397D02*
X1865000Y2210063D01*
X1865000Y2210063D02*
X1861667Y2223397D01*
X1861667Y2223397D02*
X1861667Y2233397D01*
X1861667Y2233397D02*
X1865000Y2246730D01*
X1865000Y2246730D02*
X1868333Y2253397D01*
X1868333Y2253397D02*
X1875000Y2260063D01*
X1875000Y2260063D02*
X1885000Y2263397D01*
X1885000Y2263397D02*
X1891667Y2263397D01*
X1891667Y2263397D02*
X1901667Y2260063D01*
X1901667Y2260063D02*
X1905000Y2256730D01*
X1965000Y2263397D02*
X1951667Y2263397D01*
X1951667Y2263397D02*
X1945000Y2260063D01*
X1945000Y2260063D02*
X1941667Y2256730D01*
X1941667Y2256730D02*
X1935000Y2246730D01*
X1935000Y2246730D02*
X1931667Y2233397D01*
X1931667Y2233397D02*
X1931667Y2206730D01*
X1931667Y2206730D02*
X1935000Y2200063D01*
X1935000Y2200063D02*
X1938333Y2196730D01*
X1938333Y2196730D02*
X1945000Y2193397D01*
X1945000Y2193397D02*
X1958333Y2193397D01*
X1958333Y2193397D02*
X1965000Y2196730D01*
X1965000Y2196730D02*
X1968333Y2200063D01*
X1968333Y2200063D02*
X1971667Y2206730D01*
X1971667Y2206730D02*
X1971667Y2223397D01*
X1971667Y2223397D02*
X1968333Y2230063D01*
X1968333Y2230063D02*
X1965000Y2233397D01*
X1965000Y2233397D02*
X1958333Y2236730D01*
X1958333Y2236730D02*
X1945000Y2236730D01*
X1945000Y2236730D02*
X1938333Y2233397D01*
X1938333Y2233397D02*
X1935000Y2230063D01*
X1935000Y2230063D02*
X1931667Y2223397D01*
X2038333Y2193397D02*
X1998333Y2193397D01*
X2018333Y2193397D02*
X2018333Y2263397D01*
X2018333Y2263397D02*
X2011667Y2253397D01*
X2011667Y2253397D02*
X2005000Y2246730D01*
X2005000Y2246730D02*
X1998333Y2243397D01*
X1488333Y93397D02*
X1465000Y126730D01*
X1448333Y93397D02*
X1448333Y163397D01*
X1448333Y163397D02*
X1475000Y163397D01*
X1475000Y163397D02*
X1481667Y160063D01*
X1481667Y160063D02*
X1485000Y156730D01*
X1485000Y156730D02*
X1488333Y150063D01*
X1488333Y150063D02*
X1488333Y140063D01*
X1488333Y140063D02*
X1485000Y133397D01*
X1485000Y133397D02*
X1481667Y130063D01*
X1481667Y130063D02*
X1475000Y126730D01*
X1475000Y126730D02*
X1448333Y126730D01*
X1551667Y163397D02*
X1518333Y163397D01*
X1518333Y163397D02*
X1515000Y130063D01*
X1515000Y130063D02*
X1518333Y133397D01*
X1518333Y133397D02*
X1525000Y136730D01*
X1525000Y136730D02*
X1541667Y136730D01*
X1541667Y136730D02*
X1548333Y133397D01*
X1548333Y133397D02*
X1551667Y130063D01*
X1551667Y130063D02*
X1555000Y123397D01*
X1555000Y123397D02*
X1555000Y106730D01*
X1555000Y106730D02*
X1551667Y100063D01*
X1551667Y100063D02*
X1548333Y96730D01*
X1548333Y96730D02*
X1541667Y93397D01*
X1541667Y93397D02*
X1525000Y93397D01*
X1525000Y93397D02*
X1518333Y96730D01*
X1518333Y96730D02*
X1515000Y100063D01*
X1921603Y2310000D02*
X1921603Y2350000D01*
X1991603Y2330000D02*
X1921603Y2330000D01*
X1991603Y2373333D02*
X1921603Y2373333D01*
X1954937Y2373333D02*
X1954937Y2413333D01*
X1991603Y2413333D02*
X1921603Y2413333D01*
X1991603Y2483333D02*
X1991603Y2443333D01*
X1991603Y2463333D02*
X1921603Y2463333D01*
X1921603Y2463333D02*
X1931603Y2456667D01*
X1931603Y2456667D02*
X1938270Y2450000D01*
X1938270Y2450000D02*
X1941603Y2443333D01*
X510000Y88397D02*
X486667Y121730D01*
X470000Y88397D02*
X470000Y158397D01*
X470000Y158397D02*
X496667Y158397D01*
X496667Y158397D02*
X503333Y155063D01*
X503333Y155063D02*
X506667Y151730D01*
X506667Y151730D02*
X510000Y145063D01*
X510000Y145063D02*
X510000Y135063D01*
X510000Y135063D02*
X506667Y128397D01*
X506667Y128397D02*
X503333Y125063D01*
X503333Y125063D02*
X496667Y121730D01*
X496667Y121730D02*
X470000Y121730D01*
X533333Y158397D02*
X576667Y158397D01*
X576667Y158397D02*
X553333Y131730D01*
X553333Y131730D02*
X563333Y131730D01*
X563333Y131730D02*
X570000Y128397D01*
X570000Y128397D02*
X573333Y125063D01*
X573333Y125063D02*
X576667Y118397D01*
X576667Y118397D02*
X576667Y101730D01*
X576667Y101730D02*
X573333Y95063D01*
X573333Y95063D02*
X570000Y91730D01*
X570000Y91730D02*
X563333Y88397D01*
X563333Y88397D02*
X543333Y88397D01*
X543333Y88397D02*
X536667Y91730D01*
X536667Y91730D02*
X533333Y95063D01*
X600000Y158397D02*
X646667Y158397D01*
X646667Y158397D02*
X616667Y88397D01*
X710000Y88397D02*
X686667Y121730D01*
X670000Y88397D02*
X670000Y158397D01*
X670000Y158397D02*
X696667Y158397D01*
X696667Y158397D02*
X703333Y155063D01*
X703333Y155063D02*
X706667Y151730D01*
X706667Y151730D02*
X710000Y145063D01*
X710000Y145063D02*
X710000Y135063D01*
X710000Y135063D02*
X706667Y128397D01*
X706667Y128397D02*
X703333Y125063D01*
X703333Y125063D02*
X696667Y121730D01*
X696667Y121730D02*
X670000Y121730D01*
X733333Y158397D02*
X776667Y158397D01*
X776667Y158397D02*
X753333Y131730D01*
X753333Y131730D02*
X763333Y131730D01*
X763333Y131730D02*
X770000Y128397D01*
X770000Y128397D02*
X773333Y125063D01*
X773333Y125063D02*
X776667Y118397D01*
X776667Y118397D02*
X776667Y101730D01*
X776667Y101730D02*
X773333Y95063D01*
X773333Y95063D02*
X770000Y91730D01*
X770000Y91730D02*
X763333Y88397D01*
X763333Y88397D02*
X743333Y88397D01*
X743333Y88397D02*
X736667Y91730D01*
X736667Y91730D02*
X733333Y95063D01*
X836667Y158397D02*
X823333Y158397D01*
X823333Y158397D02*
X816667Y155063D01*
X816667Y155063D02*
X813333Y151730D01*
X813333Y151730D02*
X806667Y141730D01*
X806667Y141730D02*
X803333Y128397D01*
X803333Y128397D02*
X803333Y101730D01*
X803333Y101730D02*
X806667Y95063D01*
X806667Y95063D02*
X810000Y91730D01*
X810000Y91730D02*
X816667Y88397D01*
X816667Y88397D02*
X830000Y88397D01*
X830000Y88397D02*
X836667Y91730D01*
X836667Y91730D02*
X840000Y95063D01*
X840000Y95063D02*
X843333Y101730D01*
X843333Y101730D02*
X843333Y118397D01*
X843333Y118397D02*
X840000Y125063D01*
X840000Y125063D02*
X836667Y128397D01*
X836667Y128397D02*
X830000Y131730D01*
X830000Y131730D02*
X816667Y131730D01*
X816667Y131730D02*
X810000Y128397D01*
X810000Y128397D02*
X806667Y125063D01*
X806667Y125063D02*
X803333Y118397D01*
X1216667Y2383397D02*
X1216667Y2326730D01*
X1216667Y2326730D02*
X1220000Y2320063D01*
X1220000Y2320063D02*
X1223333Y2316730D01*
X1223333Y2316730D02*
X1230000Y2313397D01*
X1230000Y2313397D02*
X1243333Y2313397D01*
X1243333Y2313397D02*
X1250000Y2316730D01*
X1250000Y2316730D02*
X1253333Y2320063D01*
X1253333Y2320063D02*
X1256667Y2326730D01*
X1256667Y2326730D02*
X1256667Y2383397D01*
X1323333Y2383397D02*
X1290000Y2383397D01*
X1290000Y2383397D02*
X1286667Y2350063D01*
X1286667Y2350063D02*
X1290000Y2353397D01*
X1290000Y2353397D02*
X1296667Y2356730D01*
X1296667Y2356730D02*
X1313333Y2356730D01*
X1313333Y2356730D02*
X1320000Y2353397D01*
X1320000Y2353397D02*
X1323333Y2350063D01*
X1323333Y2350063D02*
X1326667Y2343397D01*
X1326667Y2343397D02*
X1326667Y2326730D01*
X1326667Y2326730D02*
X1323333Y2320063D01*
X1323333Y2320063D02*
X1320000Y2316730D01*
X1320000Y2316730D02*
X1313333Y2313397D01*
X1313333Y2313397D02*
X1296667Y2313397D01*
X1296667Y2313397D02*
X1290000Y2316730D01*
X1290000Y2316730D02*
X1286667Y2320063D01*
X1820000Y93397D02*
X1796667Y126730D01*
X1780000Y93397D02*
X1780000Y163397D01*
X1780000Y163397D02*
X1806667Y163397D01*
X1806667Y163397D02*
X1813333Y160063D01*
X1813333Y160063D02*
X1816667Y156730D01*
X1816667Y156730D02*
X1820000Y150063D01*
X1820000Y150063D02*
X1820000Y140063D01*
X1820000Y140063D02*
X1816667Y133397D01*
X1816667Y133397D02*
X1813333Y130063D01*
X1813333Y130063D02*
X1806667Y126730D01*
X1806667Y126730D02*
X1780000Y126730D01*
X1886667Y93397D02*
X1846667Y93397D01*
X1866667Y93397D02*
X1866667Y163397D01*
X1866667Y163397D02*
X1860000Y153397D01*
X1860000Y153397D02*
X1853333Y146730D01*
X1853333Y146730D02*
X1846667Y143397D01*
X1946667Y140063D02*
X1946667Y93397D01*
X1930000Y166730D02*
X1913333Y116730D01*
X1913333Y116730D02*
X1956667Y116730D01*
X1303333Y93397D02*
X1280000Y126730D01*
X1263333Y93397D02*
X1263333Y163397D01*
X1263333Y163397D02*
X1290000Y163397D01*
X1290000Y163397D02*
X1296667Y160063D01*
X1296667Y160063D02*
X1300000Y156730D01*
X1300000Y156730D02*
X1303333Y150063D01*
X1303333Y150063D02*
X1303333Y140063D01*
X1303333Y140063D02*
X1300000Y133397D01*
X1300000Y133397D02*
X1296667Y130063D01*
X1296667Y130063D02*
X1290000Y126730D01*
X1290000Y126730D02*
X1263333Y126730D01*
X1363333Y163397D02*
X1350000Y163397D01*
X1350000Y163397D02*
X1343333Y160063D01*
X1343333Y160063D02*
X1340000Y156730D01*
X1340000Y156730D02*
X1333333Y146730D01*
X1333333Y146730D02*
X1330000Y133397D01*
X1330000Y133397D02*
X1330000Y106730D01*
X1330000Y106730D02*
X1333333Y100063D01*
X1333333Y100063D02*
X1336667Y96730D01*
X1336667Y96730D02*
X1343333Y93397D01*
X1343333Y93397D02*
X1356667Y93397D01*
X1356667Y93397D02*
X1363333Y96730D01*
X1363333Y96730D02*
X1366667Y100063D01*
X1366667Y100063D02*
X1370000Y106730D01*
X1370000Y106730D02*
X1370000Y123397D01*
X1370000Y123397D02*
X1366667Y130063D01*
X1366667Y130063D02*
X1363333Y133397D01*
X1363333Y133397D02*
X1356667Y136730D01*
X1356667Y136730D02*
X1343333Y136730D01*
X1343333Y136730D02*
X1336667Y133397D01*
X1336667Y133397D02*
X1333333Y130063D01*
X1333333Y130063D02*
X1330000Y123397D01*
X430000Y2323397D02*
X406667Y2356730D01*
X390000Y2323397D02*
X390000Y2393397D01*
X390000Y2393397D02*
X416667Y2393397D01*
X416667Y2393397D02*
X423333Y2390063D01*
X423333Y2390063D02*
X426667Y2386730D01*
X426667Y2386730D02*
X430000Y2380063D01*
X430000Y2380063D02*
X430000Y2370063D01*
X430000Y2370063D02*
X426667Y2363397D01*
X426667Y2363397D02*
X423333Y2360063D01*
X423333Y2360063D02*
X416667Y2356730D01*
X416667Y2356730D02*
X390000Y2356730D01*
X496667Y2323397D02*
X456667Y2323397D01*
X476667Y2323397D02*
X476667Y2393397D01*
X476667Y2393397D02*
X470000Y2383397D01*
X470000Y2383397D02*
X463333Y2376730D01*
X463333Y2376730D02*
X456667Y2373397D01*
X540000Y2393397D02*
X546667Y2393397D01*
X546667Y2393397D02*
X553333Y2390063D01*
X553333Y2390063D02*
X556667Y2386730D01*
X556667Y2386730D02*
X560000Y2380063D01*
X560000Y2380063D02*
X563333Y2366730D01*
X563333Y2366730D02*
X563333Y2350063D01*
X563333Y2350063D02*
X560000Y2336730D01*
X560000Y2336730D02*
X556667Y2330063D01*
X556667Y2330063D02*
X553333Y2326730D01*
X553333Y2326730D02*
X546667Y2323397D01*
X546667Y2323397D02*
X540000Y2323397D01*
X540000Y2323397D02*
X533333Y2326730D01*
X533333Y2326730D02*
X530000Y2330063D01*
X530000Y2330063D02*
X526667Y2336730D01*
X526667Y2336730D02*
X523333Y2350063D01*
X523333Y2350063D02*
X523333Y2366730D01*
X523333Y2366730D02*
X526667Y2380063D01*
X526667Y2380063D02*
X530000Y2386730D01*
X530000Y2386730D02*
X533333Y2390063D01*
X533333Y2390063D02*
X540000Y2393397D01*
X353603Y31667D02*
X403603Y31667D01*
X403603Y31667D02*
X413603Y28333D01*
X413603Y28333D02*
X420270Y21667D01*
X420270Y21667D02*
X423603Y11667D01*
X423603Y11667D02*
X423603Y5000D01*
X423603Y101667D02*
X423603Y61667D01*
X423603Y81667D02*
X353603Y81667D01*
X353603Y81667D02*
X363603Y75000D01*
X363603Y75000D02*
X370270Y68333D01*
X370270Y68333D02*
X373603Y61667D01*
X563333Y2398397D02*
X540000Y2431730D01*
X523333Y2398397D02*
X523333Y2468397D01*
X523333Y2468397D02*
X550000Y2468397D01*
X550000Y2468397D02*
X556667Y2465063D01*
X556667Y2465063D02*
X560000Y2461730D01*
X560000Y2461730D02*
X563333Y2455063D01*
X563333Y2455063D02*
X563333Y2445063D01*
X563333Y2445063D02*
X560000Y2438397D01*
X560000Y2438397D02*
X556667Y2435063D01*
X556667Y2435063D02*
X550000Y2431730D01*
X550000Y2431730D02*
X523333Y2431730D01*
X590000Y2461730D02*
X593333Y2465063D01*
X593333Y2465063D02*
X600000Y2468397D01*
X600000Y2468397D02*
X616667Y2468397D01*
X616667Y2468397D02*
X623333Y2465063D01*
X623333Y2465063D02*
X626667Y2461730D01*
X626667Y2461730D02*
X630000Y2455063D01*
X630000Y2455063D02*
X630000Y2448397D01*
X630000Y2448397D02*
X626667Y2438397D01*
X626667Y2438397D02*
X586667Y2398397D01*
X586667Y2398397D02*
X630000Y2398397D01*
X1745000Y2100063D02*
X1741667Y2096730D01*
X1741667Y2096730D02*
X1731667Y2093397D01*
X1731667Y2093397D02*
X1725000Y2093397D01*
X1725000Y2093397D02*
X1715000Y2096730D01*
X1715000Y2096730D02*
X1708333Y2103397D01*
X1708333Y2103397D02*
X1705000Y2110063D01*
X1705000Y2110063D02*
X1701667Y2123397D01*
X1701667Y2123397D02*
X1701667Y2133397D01*
X1701667Y2133397D02*
X1705000Y2146730D01*
X1705000Y2146730D02*
X1708333Y2153397D01*
X1708333Y2153397D02*
X1715000Y2160063D01*
X1715000Y2160063D02*
X1725000Y2163397D01*
X1725000Y2163397D02*
X1731667Y2163397D01*
X1731667Y2163397D02*
X1741667Y2160063D01*
X1741667Y2160063D02*
X1745000Y2156730D01*
X1805000Y2163397D02*
X1791667Y2163397D01*
X1791667Y2163397D02*
X1785000Y2160063D01*
X1785000Y2160063D02*
X1781667Y2156730D01*
X1781667Y2156730D02*
X1775000Y2146730D01*
X1775000Y2146730D02*
X1771667Y2133397D01*
X1771667Y2133397D02*
X1771667Y2106730D01*
X1771667Y2106730D02*
X1775000Y2100063D01*
X1775000Y2100063D02*
X1778333Y2096730D01*
X1778333Y2096730D02*
X1785000Y2093397D01*
X1785000Y2093397D02*
X1798333Y2093397D01*
X1798333Y2093397D02*
X1805000Y2096730D01*
X1805000Y2096730D02*
X1808333Y2100063D01*
X1808333Y2100063D02*
X1811667Y2106730D01*
X1811667Y2106730D02*
X1811667Y2123397D01*
X1811667Y2123397D02*
X1808333Y2130063D01*
X1808333Y2130063D02*
X1805000Y2133397D01*
X1805000Y2133397D02*
X1798333Y2136730D01*
X1798333Y2136730D02*
X1785000Y2136730D01*
X1785000Y2136730D02*
X1778333Y2133397D01*
X1778333Y2133397D02*
X1775000Y2130063D01*
X1775000Y2130063D02*
X1771667Y2123397D01*
X1855000Y2163397D02*
X1861667Y2163397D01*
X1861667Y2163397D02*
X1868333Y2160063D01*
X1868333Y2160063D02*
X1871667Y2156730D01*
X1871667Y2156730D02*
X1875000Y2150063D01*
X1875000Y2150063D02*
X1878333Y2136730D01*
X1878333Y2136730D02*
X1878333Y2120063D01*
X1878333Y2120063D02*
X1875000Y2106730D01*
X1875000Y2106730D02*
X1871667Y2100063D01*
X1871667Y2100063D02*
X1868333Y2096730D01*
X1868333Y2096730D02*
X1861667Y2093397D01*
X1861667Y2093397D02*
X1855000Y2093397D01*
X1855000Y2093397D02*
X1848333Y2096730D01*
X1848333Y2096730D02*
X1845000Y2100063D01*
X1845000Y2100063D02*
X1841667Y2106730D01*
X1841667Y2106730D02*
X1838333Y2120063D01*
X1838333Y2120063D02*
X1838333Y2136730D01*
X1838333Y2136730D02*
X1841667Y2150063D01*
X1841667Y2150063D02*
X1845000Y2156730D01*
X1845000Y2156730D02*
X1848333Y2160063D01*
X1848333Y2160063D02*
X1855000Y2163397D01*
X1113333Y93397D02*
X1090000Y126730D01*
X1073333Y93397D02*
X1073333Y163397D01*
X1073333Y163397D02*
X1100000Y163397D01*
X1100000Y163397D02*
X1106667Y160063D01*
X1106667Y160063D02*
X1110000Y156730D01*
X1110000Y156730D02*
X1113333Y150063D01*
X1113333Y150063D02*
X1113333Y140063D01*
X1113333Y140063D02*
X1110000Y133397D01*
X1110000Y133397D02*
X1106667Y130063D01*
X1106667Y130063D02*
X1100000Y126730D01*
X1100000Y126730D02*
X1073333Y126730D01*
X1136667Y163397D02*
X1183333Y163397D01*
X1183333Y163397D02*
X1153333Y93397D01*
X399937Y1945000D02*
X403270Y1941667D01*
X403270Y1941667D02*
X406603Y1931667D01*
X406603Y1931667D02*
X406603Y1925000D01*
X406603Y1925000D02*
X403270Y1915000D01*
X403270Y1915000D02*
X396603Y1908333D01*
X396603Y1908333D02*
X389937Y1905000D01*
X389937Y1905000D02*
X376603Y1901667D01*
X376603Y1901667D02*
X366603Y1901667D01*
X366603Y1901667D02*
X353270Y1905000D01*
X353270Y1905000D02*
X346603Y1908333D01*
X346603Y1908333D02*
X339937Y1915000D01*
X339937Y1915000D02*
X336603Y1925000D01*
X336603Y1925000D02*
X336603Y1931667D01*
X336603Y1931667D02*
X339937Y1941667D01*
X339937Y1941667D02*
X343270Y1945000D01*
X366603Y1985000D02*
X363270Y1978333D01*
X363270Y1978333D02*
X359937Y1975000D01*
X359937Y1975000D02*
X353270Y1971667D01*
X353270Y1971667D02*
X349937Y1971667D01*
X349937Y1971667D02*
X343270Y1975000D01*
X343270Y1975000D02*
X339937Y1978333D01*
X339937Y1978333D02*
X336603Y1985000D01*
X336603Y1985000D02*
X336603Y1998333D01*
X336603Y1998333D02*
X339937Y2005000D01*
X339937Y2005000D02*
X343270Y2008333D01*
X343270Y2008333D02*
X349937Y2011667D01*
X349937Y2011667D02*
X353270Y2011667D01*
X353270Y2011667D02*
X359937Y2008333D01*
X359937Y2008333D02*
X363270Y2005000D01*
X363270Y2005000D02*
X366603Y1998333D01*
X366603Y1998333D02*
X366603Y1985000D01*
X366603Y1985000D02*
X369937Y1978333D01*
X369937Y1978333D02*
X373270Y1975000D01*
X373270Y1975000D02*
X379937Y1971667D01*
X379937Y1971667D02*
X393270Y1971667D01*
X393270Y1971667D02*
X399937Y1975000D01*
X399937Y1975000D02*
X403270Y1978333D01*
X403270Y1978333D02*
X406603Y1985000D01*
X406603Y1985000D02*
X406603Y1998333D01*
X406603Y1998333D02*
X403270Y2005000D01*
X403270Y2005000D02*
X399937Y2008333D01*
X399937Y2008333D02*
X393270Y2011667D01*
X393270Y2011667D02*
X379937Y2011667D01*
X379937Y2011667D02*
X373270Y2008333D01*
X373270Y2008333D02*
X369937Y2005000D01*
X369937Y2005000D02*
X366603Y1998333D01*
X359937Y2071667D02*
X406603Y2071667D01*
X333270Y2055000D02*
X383270Y2038333D01*
X383270Y2038333D02*
X383270Y2081667D01*
X330000Y2405063D02*
X326667Y2401730D01*
X326667Y2401730D02*
X316667Y2398397D01*
X316667Y2398397D02*
X310000Y2398397D01*
X310000Y2398397D02*
X300000Y2401730D01*
X300000Y2401730D02*
X293333Y2408397D01*
X293333Y2408397D02*
X290000Y2415063D01*
X290000Y2415063D02*
X286667Y2428397D01*
X286667Y2428397D02*
X286667Y2438397D01*
X286667Y2438397D02*
X290000Y2451730D01*
X290000Y2451730D02*
X293333Y2458397D01*
X293333Y2458397D02*
X300000Y2465063D01*
X300000Y2465063D02*
X310000Y2468397D01*
X310000Y2468397D02*
X316667Y2468397D01*
X316667Y2468397D02*
X326667Y2465063D01*
X326667Y2465063D02*
X330000Y2461730D01*
X370000Y2438397D02*
X363333Y2441730D01*
X363333Y2441730D02*
X360000Y2445063D01*
X360000Y2445063D02*
X356667Y2451730D01*
X356667Y2451730D02*
X356667Y2455063D01*
X356667Y2455063D02*
X360000Y2461730D01*
X360000Y2461730D02*
X363333Y2465063D01*
X363333Y2465063D02*
X370000Y2468397D01*
X370000Y2468397D02*
X383333Y2468397D01*
X383333Y2468397D02*
X390000Y2465063D01*
X390000Y2465063D02*
X393333Y2461730D01*
X393333Y2461730D02*
X396667Y2455063D01*
X396667Y2455063D02*
X396667Y2451730D01*
X396667Y2451730D02*
X393333Y2445063D01*
X393333Y2445063D02*
X390000Y2441730D01*
X390000Y2441730D02*
X383333Y2438397D01*
X383333Y2438397D02*
X370000Y2438397D01*
X370000Y2438397D02*
X363333Y2435063D01*
X363333Y2435063D02*
X360000Y2431730D01*
X360000Y2431730D02*
X356667Y2425063D01*
X356667Y2425063D02*
X356667Y2411730D01*
X356667Y2411730D02*
X360000Y2405063D01*
X360000Y2405063D02*
X363333Y2401730D01*
X363333Y2401730D02*
X370000Y2398397D01*
X370000Y2398397D02*
X383333Y2398397D01*
X383333Y2398397D02*
X390000Y2401730D01*
X390000Y2401730D02*
X393333Y2405063D01*
X393333Y2405063D02*
X396667Y2411730D01*
X396667Y2411730D02*
X396667Y2425063D01*
X396667Y2425063D02*
X393333Y2431730D01*
X393333Y2431730D02*
X390000Y2435063D01*
X390000Y2435063D02*
X383333Y2438397D01*
X420000Y2468397D02*
X463333Y2468397D01*
X463333Y2468397D02*
X440000Y2441730D01*
X440000Y2441730D02*
X450000Y2441730D01*
X450000Y2441730D02*
X456667Y2438397D01*
X456667Y2438397D02*
X460000Y2435063D01*
X460000Y2435063D02*
X463333Y2428397D01*
X463333Y2428397D02*
X463333Y2411730D01*
X463333Y2411730D02*
X460000Y2405063D01*
X460000Y2405063D02*
X456667Y2401730D01*
X456667Y2401730D02*
X450000Y2398397D01*
X450000Y2398397D02*
X430000Y2398397D01*
X430000Y2398397D02*
X423333Y2401730D01*
X423333Y2401730D02*
X420000Y2405063D01*
X718333Y2208397D02*
X718333Y2278397D01*
X718333Y2278397D02*
X735000Y2278397D01*
X735000Y2278397D02*
X745000Y2275063D01*
X745000Y2275063D02*
X751667Y2268397D01*
X751667Y2268397D02*
X755000Y2261730D01*
X755000Y2261730D02*
X758333Y2248397D01*
X758333Y2248397D02*
X758333Y2238397D01*
X758333Y2238397D02*
X755000Y2225063D01*
X755000Y2225063D02*
X751667Y2218397D01*
X751667Y2218397D02*
X745000Y2211730D01*
X745000Y2211730D02*
X735000Y2208397D01*
X735000Y2208397D02*
X718333Y2208397D01*
X791667Y2208397D02*
X805000Y2208397D01*
X805000Y2208397D02*
X811667Y2211730D01*
X811667Y2211730D02*
X815000Y2215063D01*
X815000Y2215063D02*
X821667Y2225063D01*
X821667Y2225063D02*
X825000Y2238397D01*
X825000Y2238397D02*
X825000Y2265063D01*
X825000Y2265063D02*
X821667Y2271730D01*
X821667Y2271730D02*
X818333Y2275063D01*
X818333Y2275063D02*
X811667Y2278397D01*
X811667Y2278397D02*
X798333Y2278397D01*
X798333Y2278397D02*
X791667Y2275063D01*
X791667Y2275063D02*
X788333Y2271730D01*
X788333Y2271730D02*
X785000Y2265063D01*
X785000Y2265063D02*
X785000Y2248397D01*
X785000Y2248397D02*
X788333Y2241730D01*
X788333Y2241730D02*
X791667Y2238397D01*
X791667Y2238397D02*
X798333Y2235063D01*
X798333Y2235063D02*
X811667Y2235063D01*
X811667Y2235063D02*
X818333Y2238397D01*
X818333Y2238397D02*
X821667Y2241730D01*
X821667Y2241730D02*
X825000Y2248397D01*
X1261603Y1884167D02*
X1318270Y1884167D01*
X1318270Y1884167D02*
X1324937Y1887500D01*
X1324937Y1887500D02*
X1328270Y1890833D01*
X1328270Y1890833D02*
X1331603Y1897500D01*
X1331603Y1897500D02*
X1331603Y1910833D01*
X1331603Y1910833D02*
X1328270Y1917500D01*
X1328270Y1917500D02*
X1324937Y1920833D01*
X1324937Y1920833D02*
X1318270Y1924167D01*
X1318270Y1924167D02*
X1261603Y1924167D01*
X1261603Y1987500D02*
X1261603Y1974167D01*
X1261603Y1974167D02*
X1264937Y1967500D01*
X1264937Y1967500D02*
X1268270Y1964167D01*
X1268270Y1964167D02*
X1278270Y1957500D01*
X1278270Y1957500D02*
X1291603Y1954167D01*
X1291603Y1954167D02*
X1318270Y1954167D01*
X1318270Y1954167D02*
X1324937Y1957500D01*
X1324937Y1957500D02*
X1328270Y1960833D01*
X1328270Y1960833D02*
X1331603Y1967500D01*
X1331603Y1967500D02*
X1331603Y1980833D01*
X1331603Y1980833D02*
X1328270Y1987500D01*
X1328270Y1987500D02*
X1324937Y1990833D01*
X1324937Y1990833D02*
X1318270Y1994167D01*
X1318270Y1994167D02*
X1301603Y1994167D01*
X1301603Y1994167D02*
X1294937Y1990833D01*
X1294937Y1990833D02*
X1291603Y1987500D01*
X1291603Y1987500D02*
X1288270Y1980833D01*
X1288270Y1980833D02*
X1288270Y1967500D01*
X1288270Y1967500D02*
X1291603Y1960833D01*
X1291603Y1960833D02*
X1294937Y1957500D01*
X1294937Y1957500D02*
X1301603Y1954167D01*
X739937Y1868333D02*
X743270Y1865000D01*
X743270Y1865000D02*
X746603Y1855000D01*
X746603Y1855000D02*
X746603Y1848333D01*
X746603Y1848333D02*
X743270Y1838333D01*
X743270Y1838333D02*
X736603Y1831667D01*
X736603Y1831667D02*
X729937Y1828333D01*
X729937Y1828333D02*
X716603Y1825000D01*
X716603Y1825000D02*
X706603Y1825000D01*
X706603Y1825000D02*
X693270Y1828333D01*
X693270Y1828333D02*
X686603Y1831667D01*
X686603Y1831667D02*
X679937Y1838333D01*
X679937Y1838333D02*
X676603Y1848333D01*
X676603Y1848333D02*
X676603Y1855000D01*
X676603Y1855000D02*
X679937Y1865000D01*
X679937Y1865000D02*
X683270Y1868333D01*
X676603Y1891667D02*
X676603Y1935000D01*
X676603Y1935000D02*
X703270Y1911667D01*
X703270Y1911667D02*
X703270Y1921667D01*
X703270Y1921667D02*
X706603Y1928333D01*
X706603Y1928333D02*
X709937Y1931667D01*
X709937Y1931667D02*
X716603Y1935000D01*
X716603Y1935000D02*
X733270Y1935000D01*
X733270Y1935000D02*
X739937Y1931667D01*
X739937Y1931667D02*
X743270Y1928333D01*
X743270Y1928333D02*
X746603Y1921667D01*
X746603Y1921667D02*
X746603Y1901667D01*
X746603Y1901667D02*
X743270Y1895000D01*
X743270Y1895000D02*
X739937Y1891667D01*
X149937Y1418333D02*
X153270Y1415000D01*
X153270Y1415000D02*
X156603Y1405000D01*
X156603Y1405000D02*
X156603Y1398333D01*
X156603Y1398333D02*
X153270Y1388333D01*
X153270Y1388333D02*
X146603Y1381667D01*
X146603Y1381667D02*
X139937Y1378333D01*
X139937Y1378333D02*
X126603Y1375000D01*
X126603Y1375000D02*
X116603Y1375000D01*
X116603Y1375000D02*
X103270Y1378333D01*
X103270Y1378333D02*
X96603Y1381667D01*
X96603Y1381667D02*
X89937Y1388333D01*
X89937Y1388333D02*
X86603Y1398333D01*
X86603Y1398333D02*
X86603Y1405000D01*
X86603Y1405000D02*
X89937Y1415000D01*
X89937Y1415000D02*
X93270Y1418333D01*
X156603Y1451667D02*
X156603Y1465000D01*
X156603Y1465000D02*
X153270Y1471667D01*
X153270Y1471667D02*
X149937Y1475000D01*
X149937Y1475000D02*
X139937Y1481667D01*
X139937Y1481667D02*
X126603Y1485000D01*
X126603Y1485000D02*
X99937Y1485000D01*
X99937Y1485000D02*
X93270Y1481667D01*
X93270Y1481667D02*
X89937Y1478333D01*
X89937Y1478333D02*
X86603Y1471667D01*
X86603Y1471667D02*
X86603Y1458333D01*
X86603Y1458333D02*
X89937Y1451667D01*
X89937Y1451667D02*
X93270Y1448333D01*
X93270Y1448333D02*
X99937Y1445000D01*
X99937Y1445000D02*
X116603Y1445000D01*
X116603Y1445000D02*
X123270Y1448333D01*
X123270Y1448333D02*
X126603Y1451667D01*
X126603Y1451667D02*
X129937Y1458333D01*
X129937Y1458333D02*
X129937Y1471667D01*
X129937Y1471667D02*
X126603Y1478333D01*
X126603Y1478333D02*
X123270Y1481667D01*
X123270Y1481667D02*
X116603Y1485000D01*
X606603Y1943333D02*
X573270Y1920000D01*
X606603Y1903333D02*
X536603Y1903333D01*
X536603Y1903333D02*
X536603Y1930000D01*
X536603Y1930000D02*
X539937Y1936667D01*
X539937Y1936667D02*
X543270Y1940000D01*
X543270Y1940000D02*
X549937Y1943333D01*
X549937Y1943333D02*
X559937Y1943333D01*
X559937Y1943333D02*
X566603Y1940000D01*
X566603Y1940000D02*
X569937Y1936667D01*
X569937Y1936667D02*
X573270Y1930000D01*
X573270Y1930000D02*
X573270Y1903333D01*
X606603Y1976667D02*
X606603Y1990000D01*
X606603Y1990000D02*
X603270Y1996667D01*
X603270Y1996667D02*
X599937Y2000000D01*
X599937Y2000000D02*
X589937Y2006667D01*
X589937Y2006667D02*
X576603Y2010000D01*
X576603Y2010000D02*
X549937Y2010000D01*
X549937Y2010000D02*
X543270Y2006667D01*
X543270Y2006667D02*
X539937Y2003333D01*
X539937Y2003333D02*
X536603Y1996667D01*
X536603Y1996667D02*
X536603Y1983333D01*
X536603Y1983333D02*
X539937Y1976667D01*
X539937Y1976667D02*
X543270Y1973333D01*
X543270Y1973333D02*
X549937Y1970000D01*
X549937Y1970000D02*
X566603Y1970000D01*
X566603Y1970000D02*
X573270Y1973333D01*
X573270Y1973333D02*
X576603Y1976667D01*
X576603Y1976667D02*
X579937Y1983333D01*
X579937Y1983333D02*
X579937Y1996667D01*
X579937Y1996667D02*
X576603Y2003333D01*
X576603Y2003333D02*
X573270Y2006667D01*
X573270Y2006667D02*
X566603Y2010000D01*
X81603Y1885000D02*
X48270Y1861667D01*
X81603Y1845000D02*
X11603Y1845000D01*
X11603Y1845000D02*
X11603Y1871667D01*
X11603Y1871667D02*
X14937Y1878333D01*
X14937Y1878333D02*
X18270Y1881667D01*
X18270Y1881667D02*
X24937Y1885000D01*
X24937Y1885000D02*
X34937Y1885000D01*
X34937Y1885000D02*
X41603Y1881667D01*
X41603Y1881667D02*
X44937Y1878333D01*
X44937Y1878333D02*
X48270Y1871667D01*
X48270Y1871667D02*
X48270Y1845000D01*
X81603Y1951667D02*
X81603Y1911667D01*
X81603Y1931667D02*
X11603Y1931667D01*
X11603Y1931667D02*
X21603Y1925000D01*
X21603Y1925000D02*
X28270Y1918333D01*
X28270Y1918333D02*
X31603Y1911667D01*
X81603Y2018333D02*
X81603Y1978333D01*
X81603Y1998333D02*
X11603Y1998333D01*
X11603Y1998333D02*
X21603Y1991667D01*
X21603Y1991667D02*
X28270Y1985000D01*
X28270Y1985000D02*
X31603Y1978333D01*
X1450000Y2120063D02*
X1446667Y2116730D01*
X1446667Y2116730D02*
X1436667Y2113397D01*
X1436667Y2113397D02*
X1430000Y2113397D01*
X1430000Y2113397D02*
X1420000Y2116730D01*
X1420000Y2116730D02*
X1413333Y2123397D01*
X1413333Y2123397D02*
X1410000Y2130063D01*
X1410000Y2130063D02*
X1406667Y2143397D01*
X1406667Y2143397D02*
X1406667Y2153397D01*
X1406667Y2153397D02*
X1410000Y2166730D01*
X1410000Y2166730D02*
X1413333Y2173397D01*
X1413333Y2173397D02*
X1420000Y2180063D01*
X1420000Y2180063D02*
X1430000Y2183397D01*
X1430000Y2183397D02*
X1436667Y2183397D01*
X1436667Y2183397D02*
X1446667Y2180063D01*
X1446667Y2180063D02*
X1450000Y2176730D01*
X1473333Y2183397D02*
X1520000Y2183397D01*
X1520000Y2183397D02*
X1490000Y2113397D01*
X1550000Y2113397D02*
X1563333Y2113397D01*
X1563333Y2113397D02*
X1570000Y2116730D01*
X1570000Y2116730D02*
X1573333Y2120063D01*
X1573333Y2120063D02*
X1580000Y2130063D01*
X1580000Y2130063D02*
X1583333Y2143397D01*
X1583333Y2143397D02*
X1583333Y2170063D01*
X1583333Y2170063D02*
X1580000Y2176730D01*
X1580000Y2176730D02*
X1576667Y2180063D01*
X1576667Y2180063D02*
X1570000Y2183397D01*
X1570000Y2183397D02*
X1556667Y2183397D01*
X1556667Y2183397D02*
X1550000Y2180063D01*
X1550000Y2180063D02*
X1546667Y2176730D01*
X1546667Y2176730D02*
X1543333Y2170063D01*
X1543333Y2170063D02*
X1543333Y2153397D01*
X1543333Y2153397D02*
X1546667Y2146730D01*
X1546667Y2146730D02*
X1550000Y2143397D01*
X1550000Y2143397D02*
X1556667Y2140063D01*
X1556667Y2140063D02*
X1570000Y2140063D01*
X1570000Y2140063D02*
X1576667Y2143397D01*
X1576667Y2143397D02*
X1580000Y2146730D01*
X1580000Y2146730D02*
X1583333Y2153397D01*
X925000Y1723397D02*
X901667Y1756730D01*
X885000Y1723397D02*
X885000Y1793397D01*
X885000Y1793397D02*
X911667Y1793397D01*
X911667Y1793397D02*
X918333Y1790063D01*
X918333Y1790063D02*
X921667Y1786730D01*
X921667Y1786730D02*
X925000Y1780063D01*
X925000Y1780063D02*
X925000Y1770063D01*
X925000Y1770063D02*
X921667Y1763397D01*
X921667Y1763397D02*
X918333Y1760063D01*
X918333Y1760063D02*
X911667Y1756730D01*
X911667Y1756730D02*
X885000Y1756730D01*
X951667Y1786730D02*
X955000Y1790063D01*
X955000Y1790063D02*
X961667Y1793397D01*
X961667Y1793397D02*
X978333Y1793397D01*
X978333Y1793397D02*
X985000Y1790063D01*
X985000Y1790063D02*
X988333Y1786730D01*
X988333Y1786730D02*
X991667Y1780063D01*
X991667Y1780063D02*
X991667Y1773397D01*
X991667Y1773397D02*
X988333Y1763397D01*
X988333Y1763397D02*
X948333Y1723397D01*
X948333Y1723397D02*
X991667Y1723397D01*
X1058333Y1723397D02*
X1018333Y1723397D01*
X1038333Y1723397D02*
X1038333Y1793397D01*
X1038333Y1793397D02*
X1031667Y1783397D01*
X1031667Y1783397D02*
X1025000Y1776730D01*
X1025000Y1776730D02*
X1018333Y1773397D01*
D13*
%TO.C,U11*%
X118500Y1216500D02*
X68500Y1216500D01*
X118500Y1266500D01*
X118500Y1216500D01*
G36*
X118500Y1216500D02*
G01*
X68500Y1216500D01*
X118500Y1266500D01*
X118500Y1216500D01*
G37*
X226500Y1108500D02*
X226500Y1216500D01*
X150500Y1216500D02*
X226500Y1216500D01*
X118500Y1108500D02*
X226500Y1108500D01*
X118500Y1184500D02*
X118500Y1108500D01*
%TO.C,TP3*%
X1660000Y2720000D02*
X1850000Y2720000D01*
X1660000Y2530000D02*
X1660000Y2720000D01*
X1850000Y2720000D02*
X1850000Y2530000D01*
X1850000Y2530000D02*
X1660000Y2530000D01*
%TO.C,TP1*%
X550000Y2720000D02*
X740000Y2720000D01*
X550000Y2530000D02*
X550000Y2720000D01*
X740000Y2720000D02*
X740000Y2530000D01*
X740000Y2530000D02*
X550000Y2530000D01*
%TO.C,C78*%
X1744000Y1905216D02*
X1744000Y1926784D01*
X1816000Y1905216D02*
X1816000Y1926784D01*
%TO.C,J4*%
X2150000Y101000D02*
X2150000Y-31000D01*
X2150000Y-31000D02*
X2362000Y-31000D01*
X2185000Y119798D02*
X2185000Y101000D01*
X2185000Y-231000D02*
X2185000Y-31000D01*
X2227000Y119798D02*
X2227000Y101000D01*
X2227000Y-31000D02*
X2227000Y-231000D01*
X2227000Y-231000D02*
X2185000Y-231000D01*
X2256000Y101000D02*
X2256000Y-31000D01*
X2285000Y119798D02*
X2285000Y101000D01*
X2285000Y-231000D02*
X2285000Y-31000D01*
X2297000Y-31000D02*
X2297000Y-231000D01*
X2306000Y353500D02*
X2374500Y353500D01*
X2309000Y-31000D02*
X2309000Y-231000D01*
X2321000Y-31000D02*
X2321000Y-231000D01*
X2327000Y119798D02*
X2327000Y101000D01*
X2327000Y-31000D02*
X2327000Y-231000D01*
X2327000Y-231000D02*
X2285000Y-231000D01*
X2362000Y101000D02*
X2150000Y101000D01*
X2362000Y-31000D02*
X2362000Y101000D01*
X2374500Y353500D02*
X2374500Y285000D01*
%TO.C,JP1*%
X310000Y735000D02*
X310000Y875000D01*
X380000Y945000D02*
X440000Y945000D01*
X440000Y665000D02*
X380000Y665000D01*
X510000Y875000D02*
X510000Y735000D01*
X310000Y875000D02*
G75*
G02*
X380000Y945000I70000J0D01*
G01*
X380000Y665000D02*
G75*
G02*
X310000Y735000I0J70000D01*
G01*
X440000Y945000D02*
G75*
G02*
X510000Y875000I0J-70000D01*
G01*
X510000Y735000D02*
G75*
G02*
X440000Y665000I-70000J0D01*
G01*
%TO.C,C2*%
X856500Y1896284D02*
X856500Y1874716D01*
X928500Y1896284D02*
X928500Y1874716D01*
%TO.C,J3*%
X2137500Y1726000D02*
X2137500Y1619000D01*
X2137500Y1185000D02*
X2113500Y1185000D01*
X2137500Y1078000D02*
X2137500Y1185000D01*
X2313500Y1726000D02*
X2137500Y1726000D01*
X2313500Y1619000D02*
X2313500Y1726000D01*
X2313500Y1185000D02*
X2313500Y1078000D01*
X2313500Y1078000D02*
X2137500Y1078000D01*
%TO.C,Y2*%
X2051000Y2223000D02*
X2051000Y1823000D01*
X2381000Y2223000D02*
X2051000Y2223000D01*
%TO.C,C10*%
X254216Y1388500D02*
X275784Y1388500D01*
X254216Y1316500D02*
X275784Y1316500D01*
%TO.C,U3*%
X2228750Y2470000D02*
X2028750Y2470000D01*
X2228750Y2248000D02*
X2028750Y2248000D01*
X2252750Y2230000D02*
X2252750Y2258000D01*
X2280750Y2258000D01*
X2252750Y2230000D01*
G36*
X2252750Y2230000D02*
G01*
X2252750Y2258000D01*
X2280750Y2258000D01*
X2252750Y2230000D01*
G37*
%TO.C,C81*%
X1469000Y1950784D02*
X1469000Y1929216D01*
X1541000Y1950784D02*
X1541000Y1929216D01*
%TO.C,U2*%
X446000Y1699000D02*
X1968000Y1699000D01*
X446000Y177000D02*
X446000Y1699000D01*
X1868000Y177000D02*
X446000Y177000D01*
X1968000Y1699000D02*
X1968000Y277000D01*
X1968000Y127000D02*
X1968000Y177000D01*
X2018000Y177000D01*
X1968000Y127000D01*
G36*
X1968000Y127000D02*
G01*
X1968000Y177000D01*
X2018000Y177000D01*
X1968000Y127000D01*
G37*
%TO.C,C54*%
X1601000Y2271784D02*
X1601000Y2250216D01*
X1673000Y2271784D02*
X1673000Y2250216D01*
D12*
%TO.C,U7*%
X110000Y2342500D02*
X320000Y2342500D01*
X110000Y2340000D02*
X110000Y2342500D01*
X110000Y2037500D02*
X110000Y2040000D01*
X110000Y2037500D02*
X320000Y2037500D01*
X320000Y2340000D02*
X320000Y2342500D01*
X320000Y2037500D02*
X320000Y2040000D01*
D13*
X90000Y2290000D02*
X62000Y2290000D01*
X90000Y2318000D01*
X90000Y2290000D01*
G36*
X90000Y2290000D02*
G01*
X62000Y2290000D01*
X90000Y2318000D01*
X90000Y2290000D01*
G37*
%TO.C,C1*%
X654784Y2392000D02*
X633216Y2392000D01*
X654784Y2320000D02*
X633216Y2320000D01*
%TO.C,C58*%
X1710000Y2267784D02*
X1710000Y2246216D01*
X1782000Y2267784D02*
X1782000Y2246216D01*
%TO.C,C55*%
X1604000Y1879216D02*
X1604000Y1900784D01*
X1676000Y1879216D02*
X1676000Y1900784D01*
%TO.C,TH1*%
X1794058Y2476000D02*
X1765942Y2476000D01*
X1794058Y2374000D02*
X1765942Y2374000D01*
%TO.C,U5*%
X1170000Y2208000D02*
X1170000Y2229000D01*
X1194000Y2051000D02*
X1194000Y2096000D01*
X1346000Y2253000D02*
X1346000Y2208000D01*
X1346000Y2051000D02*
X1346000Y2096000D01*
X1170000Y2253000D02*
X1146000Y2286000D01*
X1194000Y2286000D01*
X1170000Y2253000D01*
G36*
X1170000Y2253000D02*
G01*
X1146000Y2286000D01*
X1194000Y2286000D01*
X1170000Y2253000D01*
G37*
%TO.C,J1*%
X86000Y101000D02*
X86000Y-31000D01*
X86000Y-31000D02*
X298000Y-31000D01*
X121000Y119798D02*
X121000Y101000D01*
X121000Y-231000D02*
X121000Y-31000D01*
X163000Y119798D02*
X163000Y101000D01*
X163000Y-31000D02*
X163000Y-231000D01*
X163000Y-231000D02*
X121000Y-231000D01*
X192000Y101000D02*
X192000Y-31000D01*
X221000Y119798D02*
X221000Y101000D01*
X221000Y-231000D02*
X221000Y-31000D01*
X233000Y-31000D02*
X233000Y-231000D01*
X242000Y353500D02*
X310500Y353500D01*
X245000Y-31000D02*
X245000Y-231000D01*
X257000Y-31000D02*
X257000Y-231000D01*
X263000Y119798D02*
X263000Y101000D01*
X263000Y-31000D02*
X263000Y-231000D01*
X263000Y-231000D02*
X221000Y-231000D01*
X298000Y101000D02*
X86000Y101000D01*
X298000Y-31000D02*
X298000Y101000D01*
X310500Y353500D02*
X310500Y285000D01*
%TO.C,C84*%
X336500Y2154216D02*
X336500Y2175783D01*
X408500Y2154216D02*
X408500Y2175783D01*
%TO.C,C83*%
X187216Y2441000D02*
X208784Y2441000D01*
X187216Y2369000D02*
X208784Y2369000D01*
%TO.C,D9*%
X589000Y2032500D02*
X589000Y2152500D01*
X629000Y2032500D02*
X589000Y2032500D01*
X679000Y2162500D02*
X661000Y2162500D01*
X719000Y2032500D02*
X701000Y2032500D01*
X759000Y2162500D02*
X751000Y2162500D01*
X799000Y2032500D02*
X791000Y2032500D01*
X839000Y2162500D02*
X831000Y2162500D01*
X889000Y2032500D02*
X871000Y2032500D01*
X961000Y2032500D02*
X1001000Y2032500D01*
X1001000Y2032500D02*
X1001000Y2152500D01*
X1022000Y2193500D02*
X994000Y2193500D01*
X994000Y2221500D01*
X1022000Y2193500D01*
G36*
X1022000Y2193500D02*
G01*
X994000Y2193500D01*
X994000Y2221500D01*
X1022000Y2193500D01*
G37*
%TO.C,U6*%
X1120000Y1989000D02*
X1220000Y1989000D01*
X1120000Y1841000D02*
X1220000Y1841000D01*
D14*
X1077018Y1960000D02*
G75*
G02*
X1062982Y1960000I-7018J0D01*
G01*
X1062982Y1960000D02*
G75*
G02*
X1077018Y1960000I7018J0D01*
G01*
D13*
%TO.C,C3*%
X761500Y1896284D02*
X761500Y1874716D01*
X833500Y1896284D02*
X833500Y1874716D01*
%TO.C,C9*%
X253716Y1481000D02*
X275284Y1481000D01*
X253716Y1409000D02*
X275284Y1409000D01*
%TO.C,C79*%
X1489216Y2279000D02*
X1510784Y2279000D01*
X1489216Y2207000D02*
X1510784Y2207000D01*
%TD*%
M02*
