%TF.GenerationSoftware,KiCad,Pcbnew,9.0.1*%
%TF.CreationDate,2025-05-16T18:32:17-04:00*%
%TF.ProjectId,Expansion_Card_Retrofit,45787061-6e73-4696-9f6e-5f436172645f,X1*%
%TF.SameCoordinates,Original*%
%TF.FileFunction,Paste,Bot*%
%TF.FilePolarity,Positive*%
%FSLAX45Y45*%
G04 Gerber Fmt 4.5, Leading zero omitted, Abs format (unit mm)*
G04 Created by KiCad (PCBNEW 9.0.1) date 2025-05-16 18:32:17*
%MOMM*%
%LPD*%
G01*
G04 APERTURE LIST*
G04 Aperture macros list*
%AMRoundRect*
0 Rectangle with rounded corners*
0 $1 Rounding radius*
0 $2 $3 $4 $5 $6 $7 $8 $9 X,Y pos of 4 corners*
0 Add a 4 corners polygon primitive as box body*
4,1,4,$2,$3,$4,$5,$6,$7,$8,$9,$2,$3,0*
0 Add four circle primitives for the rounded corners*
1,1,$1+$1,$2,$3*
1,1,$1+$1,$4,$5*
1,1,$1+$1,$6,$7*
1,1,$1+$1,$8,$9*
0 Add four rect primitives between the rounded corners*
20,1,$1+$1,$2,$3,$4,$5,0*
20,1,$1+$1,$4,$5,$6,$7,0*
20,1,$1+$1,$6,$7,$8,$9,0*
20,1,$1+$1,$8,$9,$2,$3,0*%
%AMHorizOval*
0 Thick line with rounded ends*
0 $1 width*
0 $2 $3 position (X,Y) of the first rounded end (center of the circle)*
0 $4 $5 position (X,Y) of the second rounded end (center of the circle)*
0 Add line between two ends*
20,1,$1,$2,$3,$4,$5,0*
0 Add two circle primitives to create the rounded ends*
1,1,$1,$2,$3*
1,1,$1,$4,$5*%
%AMFreePoly0*
4,1,10,0.210000,0.050000,0.050000,-0.110000,-0.160000,-0.110000,-0.195000,-0.095000,-0.210000,-0.060000,-0.210000,0.060000,-0.195000,0.095000,-0.160000,0.110000,0.210000,0.110000,0.210000,0.050000,0.210000,0.050000,$1*%
%AMFreePoly1*
4,1,10,0.210000,-0.050000,0.210000,-0.110000,-0.160000,-0.110000,-0.195000,-0.095000,-0.210000,-0.060000,-0.210000,0.060000,-0.195000,0.095000,-0.160000,0.110000,0.050000,0.110000,0.210000,-0.050000,0.210000,-0.050000,$1*%
%AMFreePoly2*
4,1,10,0.195000,0.095000,0.210000,0.060000,0.210000,-0.060000,0.195000,-0.095000,0.160000,-0.110000,-0.050000,-0.110000,-0.210000,0.050000,-0.210000,0.110000,0.160000,0.110000,0.195000,0.095000,0.195000,0.095000,$1*%
%AMFreePoly3*
4,1,10,0.195000,0.095000,0.210000,0.060000,0.210000,-0.060000,0.195000,-0.095000,0.160000,-0.110000,-0.210000,-0.110000,-0.210000,-0.050000,-0.050000,0.110000,0.160000,0.110000,0.195000,0.095000,0.195000,0.095000,$1*%
G04 Aperture macros list end*
%ADD10RoundRect,0.079500X0.100500X-0.079500X0.100500X0.079500X-0.100500X0.079500X-0.100500X-0.079500X0*%
%ADD11R,0.380000X1.000000*%
%ADD12R,0.700000X1.150000*%
%ADD13RoundRect,0.079500X-0.100500X0.079500X-0.100500X-0.079500X0.100500X-0.079500X0.100500X0.079500X0*%
%ADD14RoundRect,0.140000X-0.140000X-0.170000X0.140000X-0.170000X0.140000X0.170000X-0.140000X0.170000X0*%
%ADD15RoundRect,0.079500X-0.079500X-0.100500X0.079500X-0.100500X0.079500X0.100500X-0.079500X0.100500X0*%
%ADD16RoundRect,0.079500X0.079500X0.100500X-0.079500X0.100500X-0.079500X-0.100500X0.079500X-0.100500X0*%
%ADD17RoundRect,0.147500X0.147500X0.172500X-0.147500X0.172500X-0.147500X-0.172500X0.147500X-0.172500X0*%
%ADD18C,0.910000*%
%ADD19HorizOval,0.910000X-0.100000X0.100000X0.100000X-0.100000X0*%
%ADD20RoundRect,0.140000X0.140000X0.170000X-0.140000X0.170000X-0.140000X-0.170000X0.140000X-0.170000X0*%
%ADD21R,1.000000X0.700000*%
%ADD22RoundRect,0.140000X-0.170000X0.140000X-0.170000X-0.140000X0.170000X-0.140000X0.170000X0.140000X0*%
%ADD23R,0.650001X0.249999*%
%ADD24RoundRect,0.140000X0.170000X-0.140000X0.170000X0.140000X-0.170000X0.140000X-0.170000X-0.140000X0*%
%ADD25RoundRect,0.075000X-0.275000X0.390000X-0.275000X-0.390000X0.275000X-0.390000X0.275000X0.390000X0*%
%ADD26RoundRect,0.075000X-0.275000X0.075000X-0.275000X-0.075000X0.275000X-0.075000X0.275000X0.075000X0*%
%ADD27RoundRect,0.050000X0.050000X-0.075000X0.050000X0.075000X-0.050000X0.075000X-0.050000X-0.075000X0*%
%ADD28RoundRect,0.060000X0.190000X-0.015000X0.190000X0.015000X-0.190000X0.015000X-0.190000X-0.015000X0*%
%ADD29R,1.500000X0.550000*%
%ADD30FreePoly0,180.000000*%
%ADD31FreePoly1,180.000000*%
%ADD32FreePoly2,180.000000*%
%ADD33FreePoly3,180.000000*%
%ADD34RoundRect,0.068571X0.072732X0.000000X0.000000X0.072732X-0.072732X0.000000X0.000000X-0.072732X0*%
%ADD35RoundRect,0.147500X-0.147500X-0.172500X0.147500X-0.172500X0.147500X0.172500X-0.147500X0.172500X0*%
%ADD36RoundRect,0.225000X-0.225000X-0.250000X0.225000X-0.250000X0.225000X0.250000X-0.225000X0.250000X0*%
%ADD37RoundRect,0.075000X0.275000X-0.390000X0.275000X0.390000X-0.275000X0.390000X-0.275000X-0.390000X0*%
%ADD38RoundRect,0.075000X0.275000X-0.075000X0.275000X0.075000X-0.275000X0.075000X-0.275000X-0.075000X0*%
%ADD39RoundRect,0.087500X-0.087500X0.225000X-0.087500X-0.225000X0.087500X-0.225000X0.087500X0.225000X0*%
%ADD40RoundRect,0.087500X-0.225000X0.087500X-0.225000X-0.087500X0.225000X-0.087500X0.225000X0.087500X0*%
%ADD41RoundRect,0.075000X-0.390000X-0.275000X0.390000X-0.275000X0.390000X0.275000X-0.390000X0.275000X0*%
%ADD42RoundRect,0.075000X-0.075000X-0.275000X0.075000X-0.275000X0.075000X0.275000X-0.075000X0.275000X0*%
G04 APERTURE END LIST*
D10*
%TO.C,R44*%
X727500Y1502500D03*
X727500Y1433500D03*
%TD*%
D11*
%TO.C,P1*%
X1475000Y2551000D03*
X1425000Y2551000D03*
X1375000Y2551000D03*
X1325000Y2551000D03*
X1275000Y2551000D03*
X1125000Y2551000D03*
X1075000Y2551000D03*
X1025000Y2551000D03*
X975000Y2551000D03*
X925000Y2551000D03*
D12*
X1542000Y2467000D03*
%TD*%
D13*
%TO.C,R30*%
X887500Y467000D03*
X887500Y398000D03*
%TD*%
D14*
%TO.C,C20*%
X1844500Y1102500D03*
X1940500Y1102500D03*
%TD*%
D15*
%TO.C,C98*%
X1293500Y790000D03*
X1362500Y790000D03*
%TD*%
D13*
%TO.C,R15*%
X1930000Y762000D03*
X1930000Y693000D03*
%TD*%
D14*
%TO.C,C45*%
X1592000Y205000D03*
X1688000Y205000D03*
%TD*%
D16*
%TO.C,C80*%
X264500Y1505000D03*
X195500Y1505000D03*
%TD*%
D17*
%TO.C,D2*%
X1718500Y85000D03*
X1621500Y85000D03*
%TD*%
D10*
%TO.C,C9*%
X1607500Y1336000D03*
X1607500Y1405000D03*
%TD*%
D13*
%TO.C,R36*%
X1347000Y1671500D03*
X1347000Y1602500D03*
%TD*%
D10*
%TO.C,C25*%
X1607500Y623500D03*
X1607500Y692500D03*
%TD*%
D18*
%TO.C,MK1*%
X667000Y960000D03*
X667000Y795000D03*
X667000Y630000D03*
X433000Y630000D03*
X433000Y795000D03*
D19*
X443000Y950000D03*
%TD*%
D20*
%TO.C,C1*%
X2319000Y2404000D03*
X2223000Y2404000D03*
%TD*%
%TO.C,C75*%
X1137000Y1086000D03*
X1041000Y1086000D03*
%TD*%
D10*
%TO.C,C83*%
X807500Y1503000D03*
X807500Y1572000D03*
%TD*%
D13*
%TO.C,R29*%
X486000Y1566500D03*
X486000Y1497500D03*
%TD*%
D14*
%TO.C,C72*%
X1042000Y790000D03*
X1138000Y790000D03*
%TD*%
D10*
%TO.C,C56*%
X1525000Y1338000D03*
X1525000Y1407000D03*
%TD*%
D21*
%TO.C,Y1*%
X140000Y1610000D03*
X140000Y1730000D03*
X140000Y1850000D03*
X300000Y1850000D03*
X300000Y1730000D03*
X300000Y1610000D03*
%TD*%
D17*
%TO.C,D12*%
X780000Y85000D03*
X683000Y85000D03*
%TD*%
D10*
%TO.C,C53*%
X648000Y223500D03*
X648000Y292500D03*
%TD*%
D15*
%TO.C,R42*%
X340500Y1505000D03*
X409500Y1505000D03*
%TD*%
D20*
%TO.C,C65*%
X575500Y1760000D03*
X479500Y1760000D03*
%TD*%
D14*
%TO.C,C106*%
X172000Y2007000D03*
X268000Y2007000D03*
%TD*%
D16*
%TO.C,C67*%
X647000Y1337500D03*
X578000Y1337500D03*
%TD*%
D15*
%TO.C,C84*%
X893000Y1177500D03*
X962000Y1177500D03*
%TD*%
D22*
%TO.C,C36*%
X890000Y283000D03*
X890000Y187000D03*
%TD*%
D16*
%TO.C,C49*%
X564500Y475000D03*
X495500Y475000D03*
%TD*%
D23*
%TO.C,U11*%
X165000Y2092500D03*
X165000Y2142500D03*
X165000Y2192500D03*
X165000Y2242500D03*
X165000Y2292500D03*
X290000Y2292500D03*
X290000Y2242500D03*
X290000Y2192500D03*
X290000Y2142500D03*
X290000Y2092500D03*
%TD*%
D13*
%TO.C,R52*%
X80000Y2299500D03*
X80000Y2230500D03*
%TD*%
D24*
%TO.C,C10*%
X2022000Y1440000D03*
X2022000Y1536000D03*
%TD*%
D13*
%TO.C,R27*%
X340000Y1205000D03*
X340000Y1136000D03*
%TD*%
D10*
%TO.C,C48*%
X808000Y1093500D03*
X808000Y1162500D03*
%TD*%
%TO.C,C50*%
X807000Y704500D03*
X807000Y773500D03*
%TD*%
D13*
%TO.C,R11*%
X1820000Y1826667D03*
X1820000Y1757667D03*
%TD*%
D16*
%TO.C,R19*%
X644500Y1577500D03*
X575500Y1577500D03*
%TD*%
%TO.C,R24*%
X1639500Y310000D03*
X1570500Y310000D03*
%TD*%
D10*
%TO.C,R46*%
X727500Y1653000D03*
X727500Y1722000D03*
%TD*%
D15*
%TO.C,C87*%
X1452500Y778000D03*
X1521500Y778000D03*
%TD*%
D22*
%TO.C,C54*%
X485000Y295500D03*
X485000Y199500D03*
%TD*%
D16*
%TO.C,C90*%
X1521500Y698000D03*
X1452500Y698000D03*
%TD*%
D25*
%TO.C,D5*%
X2031000Y429500D03*
D26*
X2031000Y341000D03*
%TD*%
D20*
%TO.C,C81*%
X295500Y1420000D03*
X199500Y1420000D03*
%TD*%
D14*
%TO.C,C30*%
X1471000Y1911000D03*
X1567000Y1911000D03*
%TD*%
D15*
%TO.C,C91*%
X1452000Y1178000D03*
X1521000Y1178000D03*
%TD*%
%TO.C,C105*%
X460500Y2292500D03*
X529500Y2292500D03*
%TD*%
D14*
%TO.C,C27*%
X1826000Y381000D03*
X1922000Y381000D03*
%TD*%
D15*
%TO.C,C33*%
X813000Y1417500D03*
X882000Y1417500D03*
%TD*%
D27*
%TO.C,Q1*%
X1347000Y1745500D03*
X1387000Y1745500D03*
D28*
X1367000Y1785500D03*
%TD*%
D14*
%TO.C,C28*%
X1844000Y205000D03*
X1940000Y205000D03*
%TD*%
%TO.C,C15*%
X2116000Y1601000D03*
X2212000Y1601000D03*
%TD*%
D16*
%TO.C,C66*%
X642000Y1497500D03*
X573000Y1497500D03*
%TD*%
D29*
%TO.C,SW2*%
X232000Y55000D03*
X232000Y380000D03*
%TD*%
D10*
%TO.C,R21*%
X415000Y1357500D03*
X415000Y1426500D03*
%TD*%
D15*
%TO.C,C63*%
X965500Y1577500D03*
X1034500Y1577500D03*
%TD*%
D16*
%TO.C,C85*%
X1521500Y1258000D03*
X1452500Y1258000D03*
%TD*%
D24*
%TO.C,C101*%
X1159000Y1800000D03*
X1159000Y1896000D03*
%TD*%
D15*
%TO.C,C22*%
X1850500Y857500D03*
X1919500Y857500D03*
%TD*%
D20*
%TO.C,C46*%
X574000Y1102000D03*
X478000Y1102000D03*
%TD*%
D22*
%TO.C,C37*%
X1060000Y313000D03*
X1060000Y217000D03*
%TD*%
D15*
%TO.C,C92*%
X892500Y1018000D03*
X961500Y1018000D03*
%TD*%
D10*
%TO.C,C8*%
X1682500Y1098000D03*
X1682500Y1167000D03*
%TD*%
D16*
%TO.C,R25*%
X1654500Y385000D03*
X1585500Y385000D03*
%TD*%
%TO.C,C93*%
X962500Y858000D03*
X893500Y858000D03*
%TD*%
D17*
%TO.C,D9*%
X1342250Y85000D03*
X1245250Y85000D03*
%TD*%
D15*
%TO.C,R43*%
X551000Y1937500D03*
X620000Y1937500D03*
%TD*%
%TO.C,C89*%
X893500Y779000D03*
X962500Y779000D03*
%TD*%
D16*
%TO.C,C7*%
X1759500Y1337500D03*
X1690500Y1337500D03*
%TD*%
D24*
%TO.C,C100*%
X1253000Y1816000D03*
X1253000Y1912000D03*
%TD*%
D15*
%TO.C,R16*%
X1783000Y697500D03*
X1852000Y697500D03*
%TD*%
D22*
%TO.C,C76*%
X1253000Y991000D03*
X1253000Y895000D03*
%TD*%
D30*
%TO.C,U7*%
X1059000Y415000D03*
D31*
X1059000Y463000D03*
D32*
X981000Y415000D03*
D33*
X981000Y463000D03*
D34*
X1020000Y439000D03*
%TD*%
D24*
%TO.C,C31*%
X1050000Y1271500D03*
X1050000Y1367500D03*
%TD*%
D35*
%TO.C,D7*%
X1901500Y2435000D03*
X1998500Y2435000D03*
%TD*%
D15*
%TO.C,R20*%
X1745500Y2445000D03*
X1814500Y2445000D03*
%TD*%
D20*
%TO.C,C82*%
X295000Y1327500D03*
X199000Y1327500D03*
%TD*%
D13*
%TO.C,R10*%
X1750000Y1826667D03*
X1750000Y1757667D03*
%TD*%
%TO.C,R31*%
X817500Y447000D03*
X817500Y378000D03*
%TD*%
D20*
%TO.C,C55*%
X650500Y392500D03*
X554500Y392500D03*
%TD*%
D36*
%TO.C,TH1*%
X913500Y2144000D03*
X1068500Y2144000D03*
%TD*%
D13*
%TO.C,C6*%
X1998000Y2161500D03*
X1998000Y2092500D03*
%TD*%
D16*
%TO.C,C52*%
X881500Y618000D03*
X812500Y618000D03*
%TD*%
%TO.C,C86*%
X963000Y698000D03*
X894000Y698000D03*
%TD*%
D10*
%TO.C,C24*%
X1607500Y463000D03*
X1607500Y532000D03*
%TD*%
D15*
%TO.C,C51*%
X812500Y539000D03*
X881500Y539000D03*
%TD*%
D24*
%TO.C,C78*%
X1151000Y895000D03*
X1151000Y991000D03*
%TD*%
D13*
%TO.C,C5*%
X2286000Y2319500D03*
X2286000Y2250500D03*
%TD*%
D10*
%TO.C,C39*%
X1127000Y543500D03*
X1127000Y612500D03*
%TD*%
D22*
%TO.C,C79*%
X1051000Y991000D03*
X1051000Y895000D03*
%TD*%
D24*
%TO.C,C77*%
X1358000Y895000D03*
X1358000Y991000D03*
%TD*%
D16*
%TO.C,C3*%
X1927500Y2183000D03*
X1858500Y2183000D03*
%TD*%
D10*
%TO.C,C23*%
X1607500Y770500D03*
X1607500Y839500D03*
%TD*%
D20*
%TO.C,C99*%
X636000Y1852500D03*
X540000Y1852500D03*
%TD*%
D15*
%TO.C,R41*%
X1448500Y1802000D03*
X1517500Y1802000D03*
%TD*%
D20*
%TO.C,C29*%
X1585000Y2003000D03*
X1489000Y2003000D03*
%TD*%
D22*
%TO.C,C19*%
X1615000Y1018000D03*
X1615000Y922000D03*
%TD*%
D16*
%TO.C,R40*%
X727000Y1092500D03*
X658000Y1092500D03*
%TD*%
D13*
%TO.C,R12*%
X1890000Y1826667D03*
X1890000Y1757667D03*
%TD*%
D37*
%TO.C,D4*%
X2032000Y582500D03*
D38*
X2032000Y671000D03*
%TD*%
D10*
%TO.C,R22*%
X270000Y1068000D03*
X270000Y1137000D03*
%TD*%
D16*
%TO.C,C43*%
X1521000Y538000D03*
X1452000Y538000D03*
%TD*%
D20*
%TO.C,C70*%
X1367000Y709000D03*
X1271000Y709000D03*
%TD*%
%TO.C,C59*%
X1068000Y1675000D03*
X972000Y1675000D03*
%TD*%
D17*
%TO.C,D11*%
X967250Y85000D03*
X870250Y85000D03*
%TD*%
D16*
%TO.C,C97*%
X1362000Y1080000D03*
X1293000Y1080000D03*
%TD*%
D15*
%TO.C,C38*%
X972500Y539000D03*
X1041500Y539000D03*
%TD*%
D39*
%TO.C,U8*%
X1205000Y431250D03*
X1255000Y431250D03*
X1305000Y431250D03*
X1355000Y431250D03*
D40*
X1371250Y365000D03*
X1371250Y315000D03*
X1371250Y265000D03*
D39*
X1355000Y198750D03*
X1305000Y198750D03*
X1255000Y198750D03*
X1205000Y198750D03*
D40*
X1188750Y265000D03*
X1188750Y315000D03*
X1188750Y365000D03*
%TD*%
D16*
%TO.C,R39*%
X727000Y1167500D03*
X658000Y1167500D03*
%TD*%
D15*
%TO.C,C57*%
X1450500Y1497500D03*
X1519500Y1497500D03*
%TD*%
D20*
%TO.C,C74*%
X1367000Y1259000D03*
X1271000Y1259000D03*
%TD*%
D15*
%TO.C,C26*%
X1851000Y617500D03*
X1920000Y617500D03*
%TD*%
D16*
%TO.C,R47*%
X280500Y537000D03*
X211500Y537000D03*
%TD*%
D10*
%TO.C,C58*%
X1252500Y1568000D03*
X1252500Y1637000D03*
%TD*%
D16*
%TO.C,C88*%
X962000Y1098000D03*
X893000Y1098000D03*
%TD*%
D22*
%TO.C,C44*%
X1480000Y303000D03*
X1480000Y207000D03*
%TD*%
D16*
%TO.C,R53*%
X444500Y2035000D03*
X375500Y2035000D03*
%TD*%
D14*
%TO.C,C73*%
X1271000Y617000D03*
X1367000Y617000D03*
%TD*%
%TO.C,C71*%
X1271000Y1167000D03*
X1367000Y1167000D03*
%TD*%
D16*
%TO.C,R38*%
X1517500Y1732000D03*
X1448500Y1732000D03*
%TD*%
D20*
%TO.C,C64*%
X575500Y1665000D03*
X479500Y1665000D03*
%TD*%
D13*
%TO.C,C2*%
X2185000Y2127500D03*
X2185000Y2058500D03*
%TD*%
D15*
%TO.C,C34*%
X893000Y1257500D03*
X962000Y1257500D03*
%TD*%
D13*
%TO.C,C4*%
X2077000Y2163500D03*
X2077000Y2094500D03*
%TD*%
D17*
%TO.C,D3*%
X1904000Y85000D03*
X1807000Y85000D03*
%TD*%
D10*
%TO.C,C35*%
X487500Y1358000D03*
X487500Y1427000D03*
%TD*%
D17*
%TO.C,D8*%
X1529750Y85000D03*
X1432750Y85000D03*
%TD*%
D24*
%TO.C,C47*%
X809000Y895000D03*
X809000Y991000D03*
%TD*%
D13*
%TO.C,C21*%
X1607500Y1172500D03*
X1607500Y1103500D03*
%TD*%
%TO.C,R13*%
X1960000Y1822500D03*
X1960000Y1753500D03*
%TD*%
D10*
%TO.C,R8*%
X2102500Y1013000D03*
X2102500Y1082000D03*
%TD*%
%TO.C,R18*%
X655000Y1675500D03*
X655000Y1744500D03*
%TD*%
D20*
%TO.C,C69*%
X1138000Y698000D03*
X1042000Y698000D03*
%TD*%
D16*
%TO.C,C41*%
X1365500Y536000D03*
X1296500Y536000D03*
%TD*%
D17*
%TO.C,D13*%
X592500Y85000D03*
X495500Y85000D03*
%TD*%
D15*
%TO.C,C42*%
X1452000Y619000D03*
X1521000Y619000D03*
%TD*%
D20*
%TO.C,C12*%
X1335000Y2126000D03*
X1239000Y2126000D03*
%TD*%
D15*
%TO.C,R9*%
X1827500Y2112000D03*
X1896500Y2112000D03*
%TD*%
D14*
%TO.C,C60*%
X1345000Y1367500D03*
X1441000Y1367500D03*
%TD*%
D15*
%TO.C,C95*%
X1452000Y1019000D03*
X1521000Y1019000D03*
%TD*%
D14*
%TO.C,C68*%
X1041000Y1177500D03*
X1137000Y1177500D03*
%TD*%
D13*
%TO.C,R51*%
X470000Y2219500D03*
X470000Y2150500D03*
%TD*%
D16*
%TO.C,C40*%
X1041500Y617000D03*
X972500Y617000D03*
%TD*%
%TO.C,C96*%
X1522000Y858000D03*
X1453000Y858000D03*
%TD*%
D20*
%TO.C,C11*%
X1718000Y1549000D03*
X1622000Y1549000D03*
%TD*%
D41*
%TO.C,D1*%
X1252500Y2277000D03*
D42*
X1341000Y2277000D03*
%TD*%
D22*
%TO.C,C107*%
X387500Y2210500D03*
X387500Y2114500D03*
%TD*%
D17*
%TO.C,D10*%
X1154750Y85000D03*
X1057750Y85000D03*
%TD*%
D14*
%TO.C,C32*%
X1154500Y1367500D03*
X1250500Y1367500D03*
%TD*%
D13*
%TO.C,R45*%
X717000Y1307500D03*
X717000Y1238500D03*
%TD*%
%TO.C,R4*%
X2357000Y2318500D03*
X2357000Y2249500D03*
%TD*%
D16*
%TO.C,C94*%
X1521500Y1098000D03*
X1452500Y1098000D03*
%TD*%
M02*
