%TF.GenerationSoftware,KiCad,Pcbnew,9.0.1*%
%TF.CreationDate,2025-05-16T18:32:17-04:00*%
%TF.ProjectId,Expansion_Card_Retrofit,45787061-6e73-4696-9f6e-5f436172645f,X1*%
%TF.SameCoordinates,Original*%
%TF.FileFunction,Soldermask,Top*%
%TF.FilePolarity,Negative*%
%FSLAX45Y45*%
G04 Gerber Fmt 4.5, Leading zero omitted, Abs format (unit mm)*
G04 Created by KiCad (PCBNEW 9.0.1) date 2025-05-16 18:32:17*
%MOMM*%
%LPD*%
G01*
G04 APERTURE LIST*
G04 Aperture macros list*
%AMRoundRect*
0 Rectangle with rounded corners*
0 $1 Rounding radius*
0 $2 $3 $4 $5 $6 $7 $8 $9 X,Y pos of 4 corners*
0 Add a 4 corners polygon primitive as box body*
4,1,4,$2,$3,$4,$5,$6,$7,$8,$9,$2,$3,0*
0 Add four circle primitives for the rounded corners*
1,1,$1+$1,$2,$3*
1,1,$1+$1,$4,$5*
1,1,$1+$1,$6,$7*
1,1,$1+$1,$8,$9*
0 Add four rect primitives between the rounded corners*
20,1,$1+$1,$2,$3,$4,$5,0*
20,1,$1+$1,$4,$5,$6,$7,0*
20,1,$1+$1,$6,$7,$8,$9,0*
20,1,$1+$1,$8,$9,$2,$3,0*%
%AMFreePoly0*
4,1,13,-0.500000,0.250000,-0.480970,0.345671,-0.426777,0.426777,-0.345671,0.480970,-0.250000,0.500000,0.500000,0.500000,0.500000,-0.500000,-0.250000,-0.500000,-0.345671,-0.480970,-0.426777,-0.426777,-0.480970,-0.345671,-0.500000,-0.250000,-0.500000,0.250000,-0.500000,0.250000,$1*%
%AMFreePoly1*
4,1,6,0.180000,0.075000,0.000000,-0.105000,-0.180000,-0.105000,-0.180000,0.105000,0.180000,0.105000,0.180000,0.075000,0.180000,0.075000,$1*%
%AMFreePoly2*
4,1,6,0.180000,-0.075000,0.180000,-0.105000,-0.180000,-0.105000,-0.180000,0.105000,0.000000,0.105000,0.180000,-0.075000,0.180000,-0.075000,$1*%
%AMFreePoly3*
4,1,6,0.180000,-0.105000,0.000000,-0.105000,-0.180000,0.075000,-0.180000,0.105000,0.180000,0.105000,0.180000,-0.105000,0.180000,-0.105000,$1*%
%AMFreePoly4*
4,1,6,0.180000,-0.105000,-0.180000,-0.105000,-0.180000,-0.075000,0.000000,0.105000,0.180000,0.105000,0.180000,-0.105000,0.180000,-0.105000,$1*%
G04 Aperture macros list end*
%ADD10C,2.475000*%
%ADD11C,0.010000*%
%ADD12R,0.380000X1.000000*%
%ADD13R,0.700000X1.150000*%
%ADD14R,1.500000X1.500000*%
%ADD15RoundRect,0.100000X-0.130000X-0.100000X0.130000X-0.100000X0.130000X0.100000X-0.130000X0.100000X0*%
%ADD16RoundRect,0.062500X0.062500X-0.387500X0.062500X0.387500X-0.062500X0.387500X-0.062500X-0.387500X0*%
%ADD17R,1.600000X0.200000*%
%ADD18RoundRect,0.100000X0.100000X-0.130000X0.100000X0.130000X-0.100000X0.130000X-0.100000X-0.130000X0*%
%ADD19R,0.850000X0.850000*%
%ADD20O,0.850000X0.850000*%
%ADD21FreePoly0,270.000000*%
%ADD22FreePoly0,90.000000*%
%ADD23RoundRect,0.140000X-0.170000X0.140000X-0.170000X-0.140000X0.170000X-0.140000X0.170000X0.140000X0*%
%ADD24RoundRect,0.100000X0.130000X0.100000X-0.130000X0.100000X-0.130000X-0.100000X0.130000X-0.100000X0*%
%ADD25RoundRect,0.140000X-0.140000X-0.170000X0.140000X-0.170000X0.140000X0.170000X-0.140000X0.170000X0*%
%ADD26C,0.400000*%
%ADD27C,0.365000*%
%ADD28R,0.650001X0.249999*%
%ADD29C,0.300000*%
%ADD30FreePoly1,180.000000*%
%ADD31FreePoly2,180.000000*%
%ADD32FreePoly3,180.000000*%
%ADD33FreePoly4,180.000000*%
%ADD34RoundRect,0.120000X0.000000X0.169706X-0.169706X0.000000X0.000000X-0.169706X0.169706X0.000000X0*%
%ADD35C,0.370000*%
%ADD36C,1.000000*%
%ADD37RoundRect,0.050000X-0.350000X-0.050000X0.350000X-0.050000X0.350000X0.050000X-0.350000X0.050000X0*%
%ADD38RoundRect,0.050000X-0.050000X-0.325000X0.050000X-0.325000X0.050000X0.325000X-0.050000X0.325000X0*%
%ADD39R,1.500000X0.550000*%
%ADD40RoundRect,0.140000X0.170000X-0.140000X0.170000X0.140000X-0.170000X0.140000X-0.170000X-0.140000X0*%
%ADD41R,0.200000X0.600000*%
G04 APERTURE END LIST*
D10*
X193750Y805000D02*
G75*
G02*
X-53750Y805000I-123750J0D01*
G01*
X-53750Y805000D02*
G75*
G02*
X193750Y805000I123750J0D01*
G01*
%TO.C,JP1*%
D11*
X434000Y821000D02*
X334000Y821000D01*
X334000Y801000D01*
X434000Y801000D01*
X434000Y821000D01*
G36*
X434000Y821000D02*
G01*
X334000Y821000D01*
X334000Y801000D01*
X434000Y801000D01*
X434000Y821000D01*
G37*
%TD*%
D12*
%TO.C,P1*%
X925000Y2551000D03*
X975000Y2551000D03*
X1025000Y2551000D03*
X1075000Y2551000D03*
X1125000Y2551000D03*
X1175000Y2551000D03*
X1225000Y2551000D03*
X1275000Y2551000D03*
X1325000Y2551000D03*
X1375000Y2551000D03*
X1425000Y2551000D03*
X1475000Y2551000D03*
D13*
X858000Y2467000D03*
%TD*%
D14*
%TO.C,TP7*%
X1755000Y2625000D03*
%TD*%
%TO.C,TP5*%
X645000Y2625000D03*
%TD*%
D15*
%TO.C,R34*%
X231500Y1537500D03*
X295500Y1537500D03*
%TD*%
%TO.C,R1*%
X1638000Y50000D03*
X1702000Y50000D03*
%TD*%
D16*
%TO.C,U2*%
X2121750Y1142250D03*
X2171750Y1142250D03*
X2221750Y1142250D03*
X2271750Y1142250D03*
X2271750Y1427250D03*
X2221750Y1427250D03*
X2171750Y1427250D03*
X2121750Y1427250D03*
D17*
X2196750Y1284750D03*
%TD*%
D18*
%TO.C,C102*%
X455000Y2125500D03*
X455000Y2189500D03*
%TD*%
D19*
%TO.C,J1*%
X2306000Y285000D03*
D20*
X2306000Y185000D03*
X2206000Y285000D03*
X2206000Y185000D03*
%TD*%
D21*
%TO.C,JP1*%
X384000Y871000D03*
D22*
X384000Y751000D03*
%TD*%
D23*
%TO.C,C17*%
X892500Y1933500D03*
X892500Y1837500D03*
%TD*%
D15*
%TO.C,R6*%
X211000Y467000D03*
X275000Y467000D03*
%TD*%
%TO.C,R32*%
X903500Y50000D03*
X967500Y50000D03*
%TD*%
D24*
%TO.C,R5*%
X2161000Y1731000D03*
X2097000Y1731000D03*
%TD*%
D15*
%TO.C,R33*%
X231500Y1615000D03*
X295500Y1615000D03*
%TD*%
D25*
%TO.C,C62*%
X217000Y1352500D03*
X313000Y1352500D03*
%TD*%
D24*
%TO.C,R7*%
X1369000Y1995000D03*
X1305000Y1995000D03*
%TD*%
D26*
%TO.C,U3*%
X1887000Y258000D03*
X1807000Y258000D03*
X1727000Y258000D03*
X1647000Y258000D03*
X1567000Y258000D03*
X1487000Y258000D03*
X1407000Y258000D03*
X1327000Y258000D03*
X1247000Y258000D03*
X1167000Y258000D03*
X1087000Y258000D03*
X1007000Y258000D03*
X927000Y258000D03*
X847000Y258000D03*
X767000Y258000D03*
X687000Y258000D03*
X607000Y258000D03*
X527000Y258000D03*
X1887000Y338000D03*
X1807000Y338000D03*
X1727000Y338000D03*
X1647000Y338000D03*
X1567000Y338000D03*
X1487000Y338000D03*
X1407000Y338000D03*
X1327000Y338000D03*
X1247000Y338000D03*
X1167000Y338000D03*
X1087000Y338000D03*
X1007000Y338000D03*
X927000Y338000D03*
X847000Y338000D03*
X767000Y338000D03*
X687000Y338000D03*
X607000Y338000D03*
X527000Y338000D03*
X1887000Y418000D03*
X1807000Y418000D03*
X1727000Y418000D03*
X1647000Y418000D03*
X1567000Y418000D03*
X1487000Y418000D03*
X1407000Y418000D03*
X1327000Y418000D03*
X1247000Y418000D03*
X1167000Y418000D03*
X1087000Y418000D03*
X1007000Y418000D03*
X927000Y418000D03*
X847000Y418000D03*
X767000Y418000D03*
X687000Y418000D03*
X607000Y418000D03*
X527000Y418000D03*
X1887000Y498000D03*
X1807000Y498000D03*
X1727000Y498000D03*
X1647000Y498000D03*
X1567000Y498000D03*
X1487000Y498000D03*
X1407000Y498000D03*
X1327000Y498000D03*
X1247000Y498000D03*
X1167000Y498000D03*
X1087000Y498000D03*
X1007000Y498000D03*
X927000Y498000D03*
X847000Y498000D03*
X767000Y498000D03*
X687000Y498000D03*
X607000Y498000D03*
X527000Y498000D03*
X1887000Y578000D03*
X1807000Y578000D03*
X1727000Y578000D03*
X1647000Y578000D03*
X1567000Y578000D03*
X1487000Y578000D03*
X1407000Y578000D03*
X1327000Y578000D03*
X1247000Y578000D03*
X1167000Y578000D03*
X1087000Y578000D03*
X1007000Y578000D03*
X927000Y578000D03*
X847000Y578000D03*
X767000Y578000D03*
X687000Y578000D03*
X607000Y578000D03*
X527000Y578000D03*
X1887000Y658000D03*
X1807000Y658000D03*
X1727000Y658000D03*
X1647000Y658000D03*
X1567000Y658000D03*
X1487000Y658000D03*
X1407000Y658000D03*
X1327000Y658000D03*
X1247000Y658000D03*
X1167000Y658000D03*
X1087000Y658000D03*
X1007000Y658000D03*
X927000Y658000D03*
X847000Y658000D03*
X767000Y658000D03*
X687000Y658000D03*
X607000Y658000D03*
X527000Y658000D03*
X1887000Y738000D03*
X1807000Y738000D03*
X1727000Y738000D03*
X1647000Y738000D03*
X1567000Y738000D03*
X1487000Y738000D03*
X1407000Y738000D03*
X1327000Y738000D03*
X1247000Y738000D03*
X1167000Y738000D03*
X1087000Y738000D03*
X1007000Y738000D03*
X927000Y738000D03*
X847000Y738000D03*
X767000Y738000D03*
X687000Y738000D03*
X607000Y738000D03*
X527000Y738000D03*
X1887000Y818000D03*
X1807000Y818000D03*
X1727000Y818000D03*
X1647000Y818000D03*
X1567000Y818000D03*
X1487000Y818000D03*
X1407000Y818000D03*
X1327000Y818000D03*
X1247000Y818000D03*
X1167000Y818000D03*
X1087000Y818000D03*
X1007000Y818000D03*
X927000Y818000D03*
X847000Y818000D03*
X767000Y818000D03*
X687000Y818000D03*
X607000Y818000D03*
X527000Y818000D03*
X1887000Y898000D03*
X1807000Y898000D03*
X1727000Y898000D03*
X1647000Y898000D03*
X1567000Y898000D03*
X1487000Y898000D03*
X1407000Y898000D03*
X1327000Y898000D03*
X1247000Y898000D03*
X1167000Y898000D03*
X1087000Y898000D03*
X1007000Y898000D03*
X927000Y898000D03*
X847000Y898000D03*
X767000Y898000D03*
X687000Y898000D03*
X607000Y898000D03*
X527000Y898000D03*
X1887000Y978000D03*
X1807000Y978000D03*
X1727000Y978000D03*
X1647000Y978000D03*
X1567000Y978000D03*
X1487000Y978000D03*
X1407000Y978000D03*
X1327000Y978000D03*
X1247000Y978000D03*
X1167000Y978000D03*
X1087000Y978000D03*
X1007000Y978000D03*
X927000Y978000D03*
X847000Y978000D03*
X767000Y978000D03*
X687000Y978000D03*
X607000Y978000D03*
X527000Y978000D03*
X1887000Y1058000D03*
X1807000Y1058000D03*
X1727000Y1058000D03*
X1647000Y1058000D03*
X1567000Y1058000D03*
X1487000Y1058000D03*
X1407000Y1058000D03*
X1327000Y1058000D03*
X1247000Y1058000D03*
X1167000Y1058000D03*
X1087000Y1058000D03*
X1007000Y1058000D03*
X927000Y1058000D03*
X847000Y1058000D03*
X767000Y1058000D03*
X687000Y1058000D03*
X607000Y1058000D03*
X527000Y1058000D03*
X1887000Y1138000D03*
X1807000Y1138000D03*
X1727000Y1138000D03*
X1647000Y1138000D03*
X1567000Y1138000D03*
X1487000Y1138000D03*
X1407000Y1138000D03*
X1327000Y1138000D03*
X1247000Y1138000D03*
X1167000Y1138000D03*
X1087000Y1138000D03*
X1007000Y1138000D03*
X927000Y1138000D03*
X847000Y1138000D03*
X767000Y1138000D03*
X687000Y1138000D03*
X607000Y1138000D03*
X527000Y1138000D03*
X1887000Y1218000D03*
X1807000Y1218000D03*
X1727000Y1218000D03*
X1647000Y1218000D03*
X1567000Y1218000D03*
X1487000Y1218000D03*
X1407000Y1218000D03*
X1327000Y1218000D03*
X1247000Y1218000D03*
X1167000Y1218000D03*
X1087000Y1218000D03*
X1007000Y1218000D03*
X927000Y1218000D03*
X847000Y1218000D03*
X767000Y1218000D03*
X687000Y1218000D03*
X607000Y1218000D03*
X527000Y1218000D03*
X1887000Y1298000D03*
X1807000Y1298000D03*
X1727000Y1298000D03*
X1647000Y1298000D03*
X1567000Y1298000D03*
X1487000Y1298000D03*
X1407000Y1298000D03*
X1327000Y1298000D03*
X1247000Y1298000D03*
X1167000Y1298000D03*
X1087000Y1298000D03*
X1007000Y1298000D03*
X927000Y1298000D03*
X847000Y1298000D03*
X767000Y1298000D03*
X687000Y1298000D03*
X607000Y1298000D03*
X527000Y1298000D03*
X1887000Y1378000D03*
X1807000Y1378000D03*
X1727000Y1378000D03*
X1647000Y1378000D03*
X1567000Y1378000D03*
X1487000Y1378000D03*
X1407000Y1378000D03*
X1327000Y1378000D03*
X1247000Y1378000D03*
X1167000Y1378000D03*
X1087000Y1378000D03*
X1007000Y1378000D03*
X927000Y1378000D03*
X847000Y1378000D03*
X767000Y1378000D03*
X687000Y1378000D03*
X607000Y1378000D03*
X527000Y1378000D03*
X1887000Y1458000D03*
X1807000Y1458000D03*
X1727000Y1458000D03*
X1647000Y1458000D03*
X1567000Y1458000D03*
X1487000Y1458000D03*
X1407000Y1458000D03*
X1327000Y1458000D03*
X1247000Y1458000D03*
X1167000Y1458000D03*
X1087000Y1458000D03*
X1007000Y1458000D03*
X927000Y1458000D03*
X847000Y1458000D03*
X767000Y1458000D03*
X687000Y1458000D03*
X607000Y1458000D03*
X527000Y1458000D03*
X1887000Y1538000D03*
X1807000Y1538000D03*
X1727000Y1538000D03*
X1647000Y1538000D03*
X1567000Y1538000D03*
X1487000Y1538000D03*
X1407000Y1538000D03*
X1327000Y1538000D03*
X1247000Y1538000D03*
X1167000Y1538000D03*
X1087000Y1538000D03*
X1007000Y1538000D03*
X927000Y1538000D03*
X847000Y1538000D03*
X767000Y1538000D03*
X687000Y1538000D03*
X607000Y1538000D03*
X527000Y1538000D03*
X1887000Y1618000D03*
X1807000Y1618000D03*
X1727000Y1618000D03*
X1647000Y1618000D03*
X1567000Y1618000D03*
X1487000Y1618000D03*
X1407000Y1618000D03*
X1327000Y1618000D03*
X1247000Y1618000D03*
X1167000Y1618000D03*
X1087000Y1618000D03*
X1007000Y1618000D03*
X927000Y1618000D03*
X847000Y1618000D03*
X767000Y1618000D03*
X687000Y1618000D03*
X607000Y1618000D03*
X527000Y1618000D03*
%TD*%
D18*
%TO.C,R2*%
X1120000Y2243000D03*
X1120000Y2307000D03*
%TD*%
D27*
%TO.C,U5*%
X1501000Y2029000D03*
X1551000Y2029000D03*
X1501000Y1979000D03*
X1551000Y1979000D03*
X1501000Y1929000D03*
X1551000Y1929000D03*
X1501000Y1879000D03*
X1551000Y1879000D03*
%TD*%
D28*
%TO.C,U10*%
X152500Y2290000D03*
X152500Y2240000D03*
X152500Y2190000D03*
X152500Y2140000D03*
X152500Y2090000D03*
X277500Y2090000D03*
X277500Y2140000D03*
X277500Y2190000D03*
X277500Y2240000D03*
X277500Y2290000D03*
%TD*%
D23*
%TO.C,C16*%
X577000Y2436000D03*
X577000Y2340000D03*
%TD*%
D15*
%TO.C,C13*%
X2109000Y1535000D03*
X2173000Y1535000D03*
%TD*%
%TO.C,R23*%
X1465500Y50000D03*
X1529500Y50000D03*
%TD*%
D29*
%TO.C,U6*%
X152500Y1182500D03*
X192500Y1182500D03*
X152500Y1142500D03*
X192500Y1142500D03*
%TD*%
D30*
%TO.C,U9*%
X1249000Y1842000D03*
D31*
X1249000Y1907000D03*
D32*
X1163000Y1842000D03*
D33*
X1163000Y1907000D03*
D34*
X1206000Y1874500D03*
%TD*%
D15*
%TO.C,R37*%
X528000Y50000D03*
X592000Y50000D03*
%TD*%
D35*
%TO.C,U4*%
X2198000Y1963000D03*
X2148000Y1963000D03*
X2098000Y1963000D03*
X2048000Y1963000D03*
X1998000Y1963000D03*
X1948000Y1963000D03*
X1898000Y1963000D03*
X1848000Y1963000D03*
X2198000Y2013000D03*
X2148000Y2013000D03*
X2098000Y2013000D03*
X2048000Y2013000D03*
X1998000Y2013000D03*
X1948000Y2013000D03*
X1898000Y2013000D03*
X1848000Y2013000D03*
X2198000Y2063000D03*
X2148000Y2063000D03*
X2098000Y2063000D03*
X2048000Y2063000D03*
X1998000Y2063000D03*
X1948000Y2063000D03*
X1898000Y2063000D03*
X1848000Y2063000D03*
X2198000Y2113000D03*
X2148000Y2113000D03*
X2098000Y2113000D03*
X2048000Y2113000D03*
X1998000Y2113000D03*
X1948000Y2113000D03*
X1898000Y2113000D03*
X1848000Y2113000D03*
X2198000Y2163000D03*
X2148000Y2163000D03*
X2098000Y2163000D03*
X2048000Y2163000D03*
X1998000Y2163000D03*
X1948000Y2163000D03*
X1898000Y2163000D03*
X1848000Y2163000D03*
X2198000Y2213000D03*
X2148000Y2213000D03*
X2098000Y2213000D03*
X2048000Y2213000D03*
X1998000Y2213000D03*
X1948000Y2213000D03*
X1898000Y2213000D03*
X1848000Y2213000D03*
X2198000Y2263000D03*
X2148000Y2263000D03*
X2098000Y2263000D03*
X2048000Y2263000D03*
X1998000Y2263000D03*
X1948000Y2263000D03*
X1898000Y2263000D03*
X1848000Y2263000D03*
X2198000Y2313000D03*
X2148000Y2313000D03*
X2098000Y2313000D03*
X2048000Y2313000D03*
X1998000Y2313000D03*
X1948000Y2313000D03*
X1898000Y2313000D03*
X1848000Y2313000D03*
%TD*%
D36*
%TO.C,FID3*%
X2316000Y615000D03*
%TD*%
D15*
%TO.C,R35*%
X715500Y50000D03*
X779500Y50000D03*
%TD*%
D37*
%TO.C,U1*%
X1227000Y2229000D03*
X1227000Y2189000D03*
D38*
X1247000Y2121500D03*
X1287000Y2121500D03*
X1327000Y2121500D03*
D37*
X1347000Y2189000D03*
X1347000Y2229000D03*
D38*
X1327000Y2296500D03*
X1287000Y2296500D03*
X1247000Y2296500D03*
%TD*%
D36*
%TO.C,FID6*%
X2316000Y1695000D03*
%TD*%
D24*
%TO.C,R3*%
X1904000Y50000D03*
X1840000Y50000D03*
%TD*%
D25*
%TO.C,C14*%
X2103000Y1617000D03*
X2199000Y1617000D03*
%TD*%
D15*
%TO.C,R26*%
X1278500Y50000D03*
X1342500Y50000D03*
%TD*%
D39*
%TO.C,SW1*%
X232000Y55000D03*
X232000Y380000D03*
%TD*%
D24*
%TO.C,R50*%
X432000Y2290000D03*
X368000Y2290000D03*
%TD*%
%TO.C,R14*%
X731000Y2437000D03*
X667000Y2437000D03*
%TD*%
D15*
%TO.C,R28*%
X1091000Y50000D03*
X1155000Y50000D03*
%TD*%
D40*
%TO.C,C104*%
X372500Y2117000D03*
X372500Y2213000D03*
%TD*%
D25*
%TO.C,C103*%
X150000Y2405000D03*
X246000Y2405000D03*
%TD*%
D41*
%TO.C,D6*%
X965000Y2145000D03*
X875000Y2145000D03*
X795000Y2145000D03*
X715000Y2145000D03*
X625000Y2145000D03*
X665000Y2050000D03*
X755000Y2050000D03*
X835000Y2050000D03*
X925000Y2050000D03*
%TD*%
D23*
%TO.C,C18*%
X797500Y1933500D03*
X797500Y1837500D03*
%TD*%
D36*
%TO.C,FID5*%
X242000Y1726000D03*
%TD*%
D25*
%TO.C,C61*%
X216500Y1445000D03*
X312500Y1445000D03*
%TD*%
D18*
%TO.C,R48*%
X527500Y2125000D03*
X527500Y2189000D03*
%TD*%
%TO.C,R49*%
X70000Y2078000D03*
X70000Y2142000D03*
%TD*%
%TO.C,R17*%
X975000Y1840500D03*
X975000Y1904500D03*
%TD*%
D26*
X2165000Y1035000D03*
X1691000Y1255934D03*
X2230000Y1060000D03*
X1722101Y1625306D03*
M02*
